<?xml version="1.0" encoding="utf-8"?>
<svg xmlns="http://www.w3.org/2000/svg" xmlns:xlink="http://www.w3.org/1999/xlink" width="600" height="400" viewBox="0 0 2400 1600">
<defs>
  <clipPath id="clip9800">
    <rect x="0" y="0" width="2000" height="2000"/>
  </clipPath>
</defs>
<defs>
  <clipPath id="clip9801">
    <rect x="0" y="0" width="2400" height="1600"/>
  </clipPath>
</defs>
<polygon clip-path="url(#clip9801)" points="
0,1600 2400,1600 2400,0 0,0 
  " fill="#ffffff" fill-rule="evenodd" fill-opacity="1"/>
<defs>
  <clipPath id="clip9802">
    <rect x="480" y="0" width="1681" height="1600"/>
  </clipPath>
</defs>
<polygon clip-path="url(#clip9801)" points="
161.394,1503.47 2321.26,1503.47 2321.26,125.984 161.394,125.984 
  " fill="#ffffff" fill-rule="evenodd" fill-opacity="1"/>
<defs>
  <clipPath id="clip9803">
    <rect x="161" y="125" width="2161" height="1378"/>
  </clipPath>
</defs>
<polyline clip-path="url(#clip9803)" style="stroke:#000000; stroke-width:2; stroke-opacity:0.1; fill:none" points="
  222.522,1503.47 222.522,125.984 
  "/>
<polyline clip-path="url(#clip9803)" style="stroke:#000000; stroke-width:2; stroke-opacity:0.1; fill:none" points="
  731.925,1503.47 731.925,125.984 
  "/>
<polyline clip-path="url(#clip9803)" style="stroke:#000000; stroke-width:2; stroke-opacity:0.1; fill:none" points="
  1241.33,1503.47 1241.33,125.984 
  "/>
<polyline clip-path="url(#clip9803)" style="stroke:#000000; stroke-width:2; stroke-opacity:0.1; fill:none" points="
  1750.73,1503.47 1750.73,125.984 
  "/>
<polyline clip-path="url(#clip9803)" style="stroke:#000000; stroke-width:2; stroke-opacity:0.1; fill:none" points="
  2260.13,1503.47 2260.13,125.984 
  "/>
<polyline clip-path="url(#clip9803)" style="stroke:#000000; stroke-width:2; stroke-opacity:0.1; fill:none" points="
  161.394,1288.59 2321.26,1288.59 
  "/>
<polyline clip-path="url(#clip9803)" style="stroke:#000000; stroke-width:2; stroke-opacity:0.1; fill:none" points="
  161.394,927.465 2321.26,927.465 
  "/>
<polyline clip-path="url(#clip9803)" style="stroke:#000000; stroke-width:2; stroke-opacity:0.1; fill:none" points="
  161.394,566.34 2321.26,566.34 
  "/>
<polyline clip-path="url(#clip9803)" style="stroke:#000000; stroke-width:2; stroke-opacity:0.1; fill:none" points="
  161.394,205.215 2321.26,205.215 
  "/>
<polyline clip-path="url(#clip9801)" style="stroke:#000000; stroke-width:4; stroke-opacity:1; fill:none" points="
  161.394,1503.47 2321.26,1503.47 
  "/>
<polyline clip-path="url(#clip9801)" style="stroke:#000000; stroke-width:4; stroke-opacity:1; fill:none" points="
  161.394,1503.47 161.394,125.984 
  "/>
<polyline clip-path="url(#clip9801)" style="stroke:#000000; stroke-width:4; stroke-opacity:1; fill:none" points="
  222.522,1503.47 222.522,1482.81 
  "/>
<polyline clip-path="url(#clip9801)" style="stroke:#000000; stroke-width:4; stroke-opacity:1; fill:none" points="
  731.925,1503.47 731.925,1482.81 
  "/>
<polyline clip-path="url(#clip9801)" style="stroke:#000000; stroke-width:4; stroke-opacity:1; fill:none" points="
  1241.33,1503.47 1241.33,1482.81 
  "/>
<polyline clip-path="url(#clip9801)" style="stroke:#000000; stroke-width:4; stroke-opacity:1; fill:none" points="
  1750.73,1503.47 1750.73,1482.81 
  "/>
<polyline clip-path="url(#clip9801)" style="stroke:#000000; stroke-width:4; stroke-opacity:1; fill:none" points="
  2260.13,1503.47 2260.13,1482.81 
  "/>
<polyline clip-path="url(#clip9801)" style="stroke:#000000; stroke-width:4; stroke-opacity:1; fill:none" points="
  161.394,1288.59 193.792,1288.59 
  "/>
<polyline clip-path="url(#clip9801)" style="stroke:#000000; stroke-width:4; stroke-opacity:1; fill:none" points="
  161.394,927.465 193.792,927.465 
  "/>
<polyline clip-path="url(#clip9801)" style="stroke:#000000; stroke-width:4; stroke-opacity:1; fill:none" points="
  161.394,566.34 193.792,566.34 
  "/>
<polyline clip-path="url(#clip9801)" style="stroke:#000000; stroke-width:4; stroke-opacity:1; fill:none" points="
  161.394,205.215 193.792,205.215 
  "/>
<g clip-path="url(#clip9801)">
<text style="fill:#000000; fill-opacity:1; font-family:Arial,Helvetica Neue,Helvetica,sans-serif; font-size:48px; text-anchor:middle;" transform="rotate(0, 222.522, 1557.47)" x="222.522" y="1557.47">-1.0</text>
</g>
<g clip-path="url(#clip9801)">
<text style="fill:#000000; fill-opacity:1; font-family:Arial,Helvetica Neue,Helvetica,sans-serif; font-size:48px; text-anchor:middle;" transform="rotate(0, 731.925, 1557.47)" x="731.925" y="1557.47">-0.5</text>
</g>
<g clip-path="url(#clip9801)">
<text style="fill:#000000; fill-opacity:1; font-family:Arial,Helvetica Neue,Helvetica,sans-serif; font-size:48px; text-anchor:middle;" transform="rotate(0, 1241.33, 1557.47)" x="1241.33" y="1557.47">0.0</text>
</g>
<g clip-path="url(#clip9801)">
<text style="fill:#000000; fill-opacity:1; font-family:Arial,Helvetica Neue,Helvetica,sans-serif; font-size:48px; text-anchor:middle;" transform="rotate(0, 1750.73, 1557.47)" x="1750.73" y="1557.47">0.5</text>
</g>
<g clip-path="url(#clip9801)">
<text style="fill:#000000; fill-opacity:1; font-family:Arial,Helvetica Neue,Helvetica,sans-serif; font-size:48px; text-anchor:middle;" transform="rotate(0, 2260.13, 1557.47)" x="2260.13" y="1557.47">1.0</text>
</g>
<g clip-path="url(#clip9801)">
<text style="fill:#000000; fill-opacity:1; font-family:Arial,Helvetica Neue,Helvetica,sans-serif; font-size:48px; text-anchor:end;" transform="rotate(0, 137.394, 1306.09)" x="137.394" y="1306.09">0.0</text>
</g>
<g clip-path="url(#clip9801)">
<text style="fill:#000000; fill-opacity:1; font-family:Arial,Helvetica Neue,Helvetica,sans-serif; font-size:48px; text-anchor:end;" transform="rotate(0, 137.394, 944.965)" x="137.394" y="944.965">0.5</text>
</g>
<g clip-path="url(#clip9801)">
<text style="fill:#000000; fill-opacity:1; font-family:Arial,Helvetica Neue,Helvetica,sans-serif; font-size:48px; text-anchor:end;" transform="rotate(0, 137.394, 583.84)" x="137.394" y="583.84">1.0</text>
</g>
<g clip-path="url(#clip9801)">
<text style="fill:#000000; fill-opacity:1; font-family:Arial,Helvetica Neue,Helvetica,sans-serif; font-size:48px; text-anchor:end;" transform="rotate(0, 137.394, 222.715)" x="137.394" y="222.715">1.5</text>
</g>
<g clip-path="url(#clip9801)">
<text style="fill:#000000; fill-opacity:1; font-family:Arial,Helvetica Neue,Helvetica,sans-serif; font-size:84px; text-anchor:middle;" transform="rotate(0, 1241.33, 73.2)" x="1241.33" y="73.2">BSpline interpolation comparison</text>
</g>
<circle clip-path="url(#clip9803)" style="fill:#000000; stroke:none; fill-opacity:1" cx="222.522" cy="1019.4" r="18"/>
<circle clip-path="url(#clip9803)" style="fill:#009af9; stroke:none; fill-opacity:1" cx="222.522" cy="1019.4" r="14"/>
<circle clip-path="url(#clip9803)" style="fill:#000000; stroke:none; fill-opacity:1" cx="448.923" cy="972.3" r="18"/>
<circle clip-path="url(#clip9803)" style="fill:#009af9; stroke:none; fill-opacity:1" cx="448.923" cy="972.3" r="14"/>
<circle clip-path="url(#clip9803)" style="fill:#000000; stroke:none; fill-opacity:1" cx="675.324" cy="1023.15" r="18"/>
<circle clip-path="url(#clip9803)" style="fill:#009af9; stroke:none; fill-opacity:1" cx="675.324" cy="1023.15" r="14"/>
<circle clip-path="url(#clip9803)" style="fill:#000000; stroke:none; fill-opacity:1" cx="901.725" cy="752.058" r="18"/>
<circle clip-path="url(#clip9803)" style="fill:#009af9; stroke:none; fill-opacity:1" cx="901.725" cy="752.058" r="14"/>
<circle clip-path="url(#clip9803)" style="fill:#000000; stroke:none; fill-opacity:1" cx="1128.13" cy="729.792" r="18"/>
<circle clip-path="url(#clip9803)" style="fill:#009af9; stroke:none; fill-opacity:1" cx="1128.13" cy="729.792" r="14"/>
<circle clip-path="url(#clip9803)" style="fill:#000000; stroke:none; fill-opacity:1" cx="1354.53" cy="671.097" r="18"/>
<circle clip-path="url(#clip9803)" style="fill:#009af9; stroke:none; fill-opacity:1" cx="1354.53" cy="671.097" r="14"/>
<circle clip-path="url(#clip9803)" style="fill:#000000; stroke:none; fill-opacity:1" cx="1580.93" cy="944.242" r="18"/>
<circle clip-path="url(#clip9803)" style="fill:#009af9; stroke:none; fill-opacity:1" cx="1580.93" cy="944.242" r="14"/>
<circle clip-path="url(#clip9803)" style="fill:#000000; stroke:none; fill-opacity:1" cx="1807.33" cy="1029.32" r="18"/>
<circle clip-path="url(#clip9803)" style="fill:#009af9; stroke:none; fill-opacity:1" cx="1807.33" cy="1029.32" r="14"/>
<circle clip-path="url(#clip9803)" style="fill:#000000; stroke:none; fill-opacity:1" cx="2033.73" cy="909.228" r="18"/>
<circle clip-path="url(#clip9803)" style="fill:#009af9; stroke:none; fill-opacity:1" cx="2033.73" cy="909.228" r="14"/>
<circle clip-path="url(#clip9803)" style="fill:#000000; stroke:none; fill-opacity:1" cx="2260.13" cy="905.249" r="18"/>
<circle clip-path="url(#clip9803)" style="fill:#009af9; stroke:none; fill-opacity:1" cx="2260.13" cy="905.249" r="14"/>
<polyline clip-path="url(#clip9803)" style="stroke:#e26f46; stroke-width:4; stroke-opacity:1; fill:none" points="
  222.522,1019.4 224.562,1018.97 226.602,1018.55 228.641,1018.12 230.681,1017.7 232.721,1017.27 234.76,1016.85 236.8,1016.43 238.84,1016 240.879,1015.58 
  242.919,1015.15 244.958,1014.73 246.998,1014.3 249.038,1013.88 251.077,1013.46 253.117,1013.03 255.157,1012.61 257.196,1012.18 259.236,1011.76 261.276,1011.33 
  263.315,1010.91 265.355,1010.49 267.395,1010.06 269.434,1009.64 271.474,1009.21 273.514,1008.79 275.553,1008.36 277.593,1007.94 279.632,1007.52 281.672,1007.09 
  283.712,1006.67 285.751,1006.24 287.791,1005.82 289.831,1005.39 291.87,1004.97 293.91,1004.55 295.95,1004.12 297.989,1003.7 300.029,1003.27 302.069,1002.85 
  304.108,1002.42 306.148,1002 308.188,1001.58 310.227,1001.15 312.267,1000.73 314.307,1000.3 316.346,999.879 318.386,999.454 320.425,999.03 322.465,998.606 
  324.505,998.182 326.544,997.757 328.584,997.333 330.624,996.909 332.663,996.484 334.703,996.06 336.743,995.636 338.782,995.212 340.822,994.787 342.862,994.363 
  344.901,993.939 346.941,993.514 348.981,993.09 351.02,992.666 353.06,992.242 355.099,991.817 357.139,991.393 359.179,990.969 361.218,990.544 363.258,990.12 
  365.298,989.696 367.337,989.272 369.377,988.847 371.417,988.423 373.456,987.999 375.496,987.574 377.536,987.15 379.575,986.726 381.615,986.302 383.655,985.877 
  385.694,985.453 387.734,985.029 389.774,984.604 391.813,984.18 393.853,983.756 395.892,983.332 397.932,982.907 399.972,982.483 402.011,982.059 404.051,981.635 
  406.091,981.21 408.13,980.786 410.17,980.362 412.21,979.937 414.249,979.513 416.289,979.089 418.329,978.665 420.368,978.24 422.408,977.816 424.448,977.392 
  426.487,976.967 428.527,976.543 430.567,976.119 432.606,975.695 434.646,975.27 436.685,974.846 438.725,974.422 440.765,973.997 442.804,973.573 444.844,973.149 
  446.884,972.725 448.923,972.3 450.963,972.758 453.003,973.217 455.042,973.675 457.082,974.133 459.122,974.591 461.161,975.049 463.201,975.507 465.241,975.965 
  467.28,976.423 469.32,976.882 471.359,977.34 473.399,977.798 475.439,978.256 477.478,978.714 479.518,979.172 481.558,979.63 483.597,980.088 485.637,980.546 
  487.677,981.005 489.716,981.463 491.756,981.921 493.796,982.379 495.835,982.837 497.875,983.295 499.915,983.753 501.954,984.211 503.994,984.67 506.034,985.128 
  508.073,985.586 510.113,986.044 512.152,986.502 514.192,986.96 516.232,987.418 518.271,987.876 520.311,988.335 522.351,988.793 524.39,989.251 526.43,989.709 
  528.47,990.167 530.509,990.625 532.549,991.083 534.589,991.541 536.628,992 538.668,992.458 540.708,992.916 542.747,993.374 544.787,993.832 546.826,994.29 
  548.866,994.748 550.906,995.206 552.945,995.665 554.985,996.123 557.025,996.581 559.064,997.039 561.104,997.497 563.144,997.955 565.183,998.413 567.223,998.871 
  569.263,999.329 571.302,999.788 573.342,1000.25 575.382,1000.7 577.421,1001.16 579.461,1001.62 581.501,1002.08 583.54,1002.54 585.58,1002.99 587.619,1003.45 
  589.659,1003.91 591.699,1004.37 593.738,1004.83 595.778,1005.29 597.818,1005.74 599.857,1006.2 601.897,1006.66 603.937,1007.12 605.976,1007.58 608.016,1008.03 
  610.056,1008.49 612.095,1008.95 614.135,1009.41 616.175,1009.87 618.214,1010.32 620.254,1010.78 622.294,1011.24 624.333,1011.7 626.373,1012.16 628.412,1012.62 
  630.452,1013.07 632.492,1013.53 634.531,1013.99 636.571,1014.45 638.611,1014.91 640.65,1015.36 642.69,1015.82 644.73,1016.28 646.769,1016.74 648.809,1017.2 
  650.849,1017.65 652.888,1018.11 654.928,1018.57 656.968,1019.03 659.007,1019.49 661.047,1019.94 663.086,1020.4 665.126,1020.86 667.166,1021.32 669.205,1021.78 
  671.245,1022.24 673.285,1022.69 675.324,1023.15 677.364,1020.71 679.404,1018.27 681.443,1015.82 683.483,1013.38 685.523,1010.94 687.562,1008.5 689.602,1006.06 
  691.642,1003.61 693.681,1001.17 695.721,998.729 697.761,996.287 699.8,993.844 701.84,991.402 703.879,988.96 705.919,986.518 707.959,984.075 709.998,981.633 
  712.038,979.191 714.078,976.748 716.117,974.306 718.157,971.864 720.197,969.422 722.236,966.979 724.276,964.537 726.316,962.095 728.355,959.652 730.395,957.21 
  732.435,954.768 734.474,952.326 736.514,949.883 738.553,947.441 740.593,944.999 742.633,942.556 744.672,940.114 746.712,937.672 748.752,935.23 750.791,932.787 
  752.831,930.345 754.871,927.903 756.91,925.46 758.95,923.018 760.99,920.576 763.029,918.134 765.069,915.691 767.109,913.249 769.148,910.807 771.188,908.364 
  773.228,905.922 775.267,903.48 777.307,901.038 779.346,898.595 781.386,896.153 783.426,893.711 785.465,891.268 787.505,888.826 789.545,886.384 791.584,883.942 
  793.624,881.499 795.664,879.057 797.703,876.615 799.743,874.173 801.783,871.73 803.822,869.288 805.862,866.846 807.902,864.403 809.941,861.961 811.981,859.519 
  814.02,857.077 816.06,854.634 818.1,852.192 820.139,849.75 822.179,847.307 824.219,844.865 826.258,842.423 828.298,839.981 830.338,837.538 832.377,835.096 
  834.417,832.654 836.457,830.211 838.496,827.769 840.536,825.327 842.576,822.885 844.615,820.442 846.655,818 848.695,815.558 850.734,813.115 852.774,810.673 
  854.813,808.231 856.853,805.789 858.893,803.346 860.932,800.904 862.972,798.462 865.012,796.019 867.051,793.577 869.091,791.135 871.131,788.693 873.17,786.25 
  875.21,783.808 877.25,781.366 879.289,778.923 881.329,776.481 883.369,774.039 885.408,771.597 887.448,769.154 889.488,766.712 891.527,764.27 893.567,761.827 
  895.606,759.385 897.646,756.943 899.686,754.501 901.725,752.058 903.765,751.858 905.805,751.657 907.844,751.457 909.884,751.256 911.924,751.055 913.963,750.855 
  916.003,750.654 918.043,750.454 920.082,750.253 922.122,750.052 924.162,749.852 926.201,749.651 928.241,749.451 930.28,749.25 932.32,749.049 934.36,748.849 
  936.399,748.648 938.439,748.448 940.479,748.247 942.518,748.046 944.558,747.846 946.598,747.645 948.637,747.445 950.677,747.244 952.717,747.043 954.756,746.843 
  956.796,746.642 958.836,746.442 960.875,746.241 962.915,746.04 964.955,745.84 966.994,745.639 969.034,745.439 971.073,745.238 973.113,745.038 975.153,744.837 
  977.192,744.636 979.232,744.436 981.272,744.235 983.311,744.035 985.351,743.834 987.391,743.633 989.43,743.433 991.47,743.232 993.51,743.032 995.549,742.831 
  997.589,742.63 999.629,742.43 1001.67,742.229 1003.71,742.029 1005.75,741.828 1007.79,741.627 1009.83,741.427 1011.87,741.226 1013.91,741.026 1015.95,740.825 
  1017.99,740.624 1020.03,740.424 1022.06,740.223 1024.1,740.023 1026.14,739.822 1028.18,739.621 1030.22,739.421 1032.26,739.22 1034.3,739.02 1036.34,738.819 
  1038.38,738.618 1040.42,738.418 1042.46,738.217 1044.5,738.017 1046.54,737.816 1048.58,737.616 1050.62,737.415 1052.66,737.214 1054.7,737.014 1056.74,736.813 
  1058.78,736.613 1060.82,736.412 1062.86,736.211 1064.9,736.011 1066.94,735.81 1068.98,735.61 1071.02,735.409 1073.06,735.208 1075.1,735.008 1077.14,734.807 
  1079.17,734.607 1081.21,734.406 1083.25,734.205 1085.29,734.005 1087.33,733.804 1089.37,733.604 1091.41,733.403 1093.45,733.202 1095.49,733.002 1097.53,732.801 
  1099.57,732.601 1101.61,732.4 1103.65,732.199 1105.69,731.999 1107.73,731.798 1109.77,731.598 1111.81,731.397 1113.85,731.197 1115.89,730.996 1117.93,730.795 
  1119.97,730.595 1122.01,730.394 1124.05,730.194 1126.09,729.993 1128.13,729.792 1130.17,729.264 1132.21,728.735 1134.25,728.206 1136.29,727.677 1138.32,727.148 
  1140.36,726.62 1142.4,726.091 1144.44,725.562 1146.48,725.033 1148.52,724.504 1150.56,723.976 1152.6,723.447 1154.64,722.918 1156.68,722.389 1158.72,721.861 
  1160.76,721.332 1162.8,720.803 1164.84,720.274 1166.88,719.745 1168.92,719.217 1170.96,718.688 1173,718.159 1175.04,717.63 1177.08,717.101 1179.12,716.573 
  1181.16,716.044 1183.2,715.515 1185.24,714.986 1187.28,714.458 1189.32,713.929 1191.36,713.4 1193.4,712.871 1195.43,712.342 1197.47,711.814 1199.51,711.285 
  1201.55,710.756 1203.59,710.227 1205.63,709.698 1207.67,709.17 1209.71,708.641 1211.75,708.112 1213.79,707.583 1215.83,707.054 1217.87,706.526 1219.91,705.997 
  1221.95,705.468 1223.99,704.939 1226.03,704.411 1228.07,703.882 1230.11,703.353 1232.15,702.824 1234.19,702.295 1236.23,701.767 1238.27,701.238 1240.31,700.709 
  1242.35,700.18 1244.39,699.651 1246.43,699.123 1248.47,698.594 1250.51,698.065 1252.55,697.536 1254.58,697.007 1256.62,696.479 1258.66,695.95 1260.7,695.421 
  1262.74,694.892 1264.78,694.364 1266.82,693.835 1268.86,693.306 1270.9,692.777 1272.94,692.248 1274.98,691.72 1277.02,691.191 1279.06,690.662 1281.1,690.133 
  1283.14,689.604 1285.18,689.076 1287.22,688.547 1289.26,688.018 1291.3,687.489 1293.34,686.961 1295.38,686.432 1297.42,685.903 1299.46,685.374 1301.5,684.845 
  1303.54,684.317 1305.58,683.788 1307.62,683.259 1309.66,682.73 1311.69,682.201 1313.73,681.673 1315.77,681.144 1317.81,680.615 1319.85,680.086 1321.89,679.557 
  1323.93,679.029 1325.97,678.5 1328.01,677.971 1330.05,677.442 1332.09,676.914 1334.13,676.385 1336.17,675.856 1338.21,675.327 1340.25,674.798 1342.29,674.27 
  1344.33,673.741 1346.37,673.212 1348.41,672.683 1350.45,672.154 1352.49,671.626 1354.53,671.097 1356.57,673.558 1358.61,676.018 1360.65,678.479 1362.69,680.94 
  1364.73,683.401 1366.77,685.862 1368.8,688.322 1370.84,690.783 1372.88,693.244 1374.92,695.705 1376.96,698.165 1379,700.626 1381.04,703.087 1383.08,705.548 
  1385.12,708.008 1387.16,710.469 1389.2,712.93 1391.24,715.391 1393.28,717.852 1395.32,720.312 1397.36,722.773 1399.4,725.234 1401.44,727.695 1403.48,730.155 
  1405.52,732.616 1407.56,735.077 1409.6,737.538 1411.64,739.998 1413.68,742.459 1415.72,744.92 1417.76,747.381 1419.8,749.842 1421.84,752.302 1423.88,754.763 
  1425.92,757.224 1427.95,759.685 1429.99,762.145 1432.03,764.606 1434.07,767.067 1436.11,769.528 1438.15,771.989 1440.19,774.449 1442.23,776.91 1444.27,779.371 
  1446.31,781.832 1448.35,784.292 1450.39,786.753 1452.43,789.214 1454.47,791.675 1456.51,794.135 1458.55,796.596 1460.59,799.057 1462.63,801.518 1464.67,803.979 
  1466.71,806.439 1468.75,808.9 1470.79,811.361 1472.83,813.822 1474.87,816.282 1476.91,818.743 1478.95,821.204 1480.99,823.665 1483.03,826.125 1485.06,828.586 
  1487.1,831.047 1489.14,833.508 1491.18,835.969 1493.22,838.429 1495.26,840.89 1497.3,843.351 1499.34,845.812 1501.38,848.272 1503.42,850.733 1505.46,853.194 
  1507.5,855.655 1509.54,858.115 1511.58,860.576 1513.62,863.037 1515.66,865.498 1517.7,867.959 1519.74,870.419 1521.78,872.88 1523.82,875.341 1525.86,877.802 
  1527.9,880.262 1529.94,882.723 1531.98,885.184 1534.02,887.645 1536.06,890.106 1538.1,892.566 1540.14,895.027 1542.18,897.488 1544.21,899.949 1546.25,902.409 
  1548.29,904.87 1550.33,907.331 1552.37,909.792 1554.41,912.252 1556.45,914.713 1558.49,917.174 1560.53,919.635 1562.57,922.096 1564.61,924.556 1566.65,927.017 
  1568.69,929.478 1570.73,931.939 1572.77,934.399 1574.81,936.86 1576.85,939.321 1578.89,941.782 1580.93,944.242 1582.97,945.009 1585.01,945.775 1587.05,946.542 
  1589.09,947.308 1591.13,948.075 1593.17,948.841 1595.21,949.608 1597.25,950.374 1599.29,951.141 1601.32,951.907 1603.36,952.674 1605.4,953.44 1607.44,954.206 
  1609.48,954.973 1611.52,955.739 1613.56,956.506 1615.6,957.272 1617.64,958.039 1619.68,958.805 1621.72,959.572 1623.76,960.338 1625.8,961.105 1627.84,961.871 
  1629.88,962.638 1631.92,963.404 1633.96,964.17 1636,964.937 1638.04,965.703 1640.08,966.47 1642.12,967.236 1644.16,968.003 1646.2,968.769 1648.24,969.536 
  1650.28,970.302 1652.32,971.069 1654.36,971.835 1656.4,972.602 1658.44,973.368 1660.47,974.134 1662.51,974.901 1664.55,975.667 1666.59,976.434 1668.63,977.2 
  1670.67,977.967 1672.71,978.733 1674.75,979.5 1676.79,980.266 1678.83,981.033 1680.87,981.799 1682.91,982.566 1684.95,983.332 1686.99,984.098 1689.03,984.865 
  1691.07,985.631 1693.11,986.398 1695.15,987.164 1697.19,987.931 1699.23,988.697 1701.27,989.464 1703.31,990.23 1705.35,990.997 1707.39,991.763 1709.43,992.53 
  1711.47,993.296 1713.51,994.062 1715.55,994.829 1717.58,995.595 1719.62,996.362 1721.66,997.128 1723.7,997.895 1725.74,998.661 1727.78,999.428 1729.82,1000.19 
  1731.86,1000.96 1733.9,1001.73 1735.94,1002.49 1737.98,1003.26 1740.02,1004.03 1742.06,1004.79 1744.1,1005.56 1746.14,1006.33 1748.18,1007.09 1750.22,1007.86 
  1752.26,1008.63 1754.3,1009.39 1756.34,1010.16 1758.38,1010.92 1760.42,1011.69 1762.46,1012.46 1764.5,1013.22 1766.54,1013.99 1768.58,1014.76 1770.62,1015.52 
  1772.66,1016.29 1774.7,1017.06 1776.73,1017.82 1778.77,1018.59 1780.81,1019.36 1782.85,1020.12 1784.89,1020.89 1786.93,1021.66 1788.97,1022.42 1791.01,1023.19 
  1793.05,1023.95 1795.09,1024.72 1797.13,1025.49 1799.17,1026.25 1801.21,1027.02 1803.25,1027.79 1805.29,1028.55 1807.33,1029.32 1809.37,1028.24 1811.41,1027.16 
  1813.45,1026.07 1815.49,1024.99 1817.53,1023.91 1819.57,1022.83 1821.61,1021.75 1823.65,1020.66 1825.69,1019.58 1827.73,1018.5 1829.77,1017.42 1831.81,1016.34 
  1833.84,1015.25 1835.88,1014.17 1837.92,1013.09 1839.96,1012.01 1842,1010.93 1844.04,1009.85 1846.08,1008.76 1848.12,1007.68 1850.16,1006.6 1852.2,1005.52 
  1854.24,1004.44 1856.28,1003.35 1858.32,1002.27 1860.36,1001.19 1862.4,1000.11 1864.44,999.026 1866.48,997.945 1868.52,996.863 1870.56,995.781 1872.6,994.699 
  1874.64,993.617 1876.68,992.535 1878.72,991.453 1880.76,990.371 1882.8,989.289 1884.84,988.207 1886.88,987.125 1888.92,986.044 1890.96,984.962 1892.99,983.88 
  1895.03,982.798 1897.07,981.716 1899.11,980.634 1901.15,979.552 1903.19,978.47 1905.23,977.388 1907.27,976.306 1909.31,975.225 1911.35,974.143 1913.39,973.061 
  1915.43,971.979 1917.47,970.897 1919.51,969.815 1921.55,968.733 1923.59,967.651 1925.63,966.569 1927.67,965.487 1929.71,964.405 1931.75,963.324 1933.79,962.242 
  1935.83,961.16 1937.87,960.078 1939.91,958.996 1941.95,957.914 1943.99,956.832 1946.03,955.75 1948.07,954.668 1950.1,953.586 1952.14,952.505 1954.18,951.423 
  1956.22,950.341 1958.26,949.259 1960.3,948.177 1962.34,947.095 1964.38,946.013 1966.42,944.931 1968.46,943.849 1970.5,942.767 1972.54,941.686 1974.58,940.604 
  1976.62,939.522 1978.66,938.44 1980.7,937.358 1982.74,936.276 1984.78,935.194 1986.82,934.112 1988.86,933.03 1990.9,931.948 1992.94,930.866 1994.98,929.785 
  1997.02,928.703 1999.06,927.621 2001.1,926.539 2003.14,925.457 2005.18,924.375 2007.22,923.293 2009.25,922.211 2011.29,921.129 2013.33,920.047 2015.37,918.966 
  2017.41,917.884 2019.45,916.802 2021.49,915.72 2023.53,914.638 2025.57,913.556 2027.61,912.474 2029.65,911.392 2031.69,910.31 2033.73,909.228 2035.77,909.193 
  2037.81,909.157 2039.85,909.121 2041.89,909.085 2043.93,909.049 2045.97,909.013 2048.01,908.977 2050.05,908.942 2052.09,908.906 2054.13,908.87 2056.17,908.834 
  2058.21,908.798 2060.25,908.762 2062.29,908.726 2064.33,908.691 2066.36,908.655 2068.4,908.619 2070.44,908.583 2072.48,908.547 2074.52,908.511 2076.56,908.476 
  2078.6,908.44 2080.64,908.404 2082.68,908.368 2084.72,908.332 2086.76,908.296 2088.8,908.26 2090.84,908.225 2092.88,908.189 2094.92,908.153 2096.96,908.117 
  2099,908.081 2101.04,908.045 2103.08,908.009 2105.12,907.974 2107.16,907.938 2109.2,907.902 2111.24,907.866 2113.28,907.83 2115.32,907.794 2117.36,907.759 
  2119.4,907.723 2121.44,907.687 2123.48,907.651 2125.51,907.615 2127.55,907.579 2129.59,907.543 2131.63,907.508 2133.67,907.472 2135.71,907.436 2137.75,907.4 
  2139.79,907.364 2141.83,907.328 2143.87,907.292 2145.91,907.257 2147.95,907.221 2149.99,907.185 2152.03,907.149 2154.07,907.113 2156.11,907.077 2158.15,907.042 
  2160.19,907.006 2162.23,906.97 2164.27,906.934 2166.31,906.898 2168.35,906.862 2170.39,906.826 2172.43,906.791 2174.47,906.755 2176.51,906.719 2178.55,906.683 
  2180.59,906.647 2182.62,906.611 2184.66,906.575 2186.7,906.54 2188.74,906.504 2190.78,906.468 2192.82,906.432 2194.86,906.396 2196.9,906.36 2198.94,906.325 
  2200.98,906.289 2203.02,906.253 2205.06,906.217 2207.1,906.181 2209.14,906.145 2211.18,906.109 2213.22,906.074 2215.26,906.038 2217.3,906.002 2219.34,905.966 
  2221.38,905.93 2223.42,905.894 2225.46,905.858 2227.5,905.823 2229.54,905.787 2231.58,905.751 2233.62,905.715 2235.66,905.679 2237.7,905.643 2239.74,905.608 
  2241.77,905.572 2243.81,905.536 2245.85,905.5 2247.89,905.464 2249.93,905.428 2251.97,905.392 2254.01,905.357 2256.05,905.321 2258.09,905.285 2260.13,905.249 
  
  "/>
<polyline clip-path="url(#clip9803)" style="stroke:#3da44d; stroke-width:4; stroke-opacity:1; fill:none" points="
  222.522,1019.4 224.562,1018.48 226.602,1017.56 228.641,1016.64 230.681,1015.72 232.721,1014.81 234.76,1013.89 236.8,1012.98 238.84,1012.07 240.879,1011.16 
  242.919,1010.25 244.958,1009.35 246.998,1008.45 249.038,1007.55 251.077,1006.65 253.117,1005.76 255.157,1004.87 257.196,1003.98 259.236,1003.1 261.276,1002.22 
  263.315,1001.35 265.355,1000.48 267.395,999.619 269.434,998.762 271.474,997.91 273.514,997.064 275.553,996.224 277.593,995.39 279.632,994.563 281.672,993.742 
  283.712,992.928 285.751,992.122 287.791,991.323 289.831,990.532 291.87,989.749 293.91,988.973 295.95,988.207 297.989,987.449 300.029,986.699 302.069,985.959 
  304.108,985.229 306.148,984.508 308.188,983.797 310.227,983.096 312.267,982.405 314.307,981.725 316.346,981.056 318.386,980.397 320.425,979.75 322.465,979.115 
  324.505,978.492 326.544,977.88 328.584,977.281 330.624,976.694 332.663,976.12 334.703,975.559 336.743,975.011 338.782,974.477 340.822,973.956 342.862,973.45 
  344.901,972.957 346.941,972.479 348.981,972.016 351.02,971.567 353.06,971.134 355.099,970.716 357.139,970.314 359.179,969.928 361.218,969.557 363.258,969.204 
  365.298,968.866 367.337,968.546 369.377,968.243 371.417,967.956 373.456,967.688 375.496,967.437 377.536,967.205 379.575,966.99 381.615,966.795 383.655,966.618 
  385.694,966.46 387.734,966.321 389.774,966.201 391.813,966.102 393.853,966.022 395.892,965.963 397.932,965.924 399.972,965.906 402.011,965.908 404.051,965.932 
  406.091,965.977 408.13,966.044 410.17,966.133 412.21,966.244 414.249,966.377 416.289,966.533 418.329,966.712 420.368,966.914 422.408,967.139 424.448,967.388 
  426.487,967.661 428.527,967.957 430.567,968.278 432.606,968.624 434.646,968.994 436.685,969.389 438.725,969.81 440.765,970.256 442.804,970.728 444.844,971.226 
  446.884,971.75 448.923,972.3 450.963,972.877 453.003,973.48 455.042,974.108 457.082,974.761 459.122,975.437 461.161,976.136 463.201,976.857 465.241,977.599 
  467.28,978.362 469.32,979.145 471.359,979.946 473.399,980.766 475.439,981.603 477.478,982.457 479.518,983.327 481.558,984.212 483.597,985.111 485.637,986.023 
  487.677,986.949 489.716,987.886 491.756,988.835 493.796,989.794 495.835,990.763 497.875,991.741 499.915,992.727 501.954,993.721 503.994,994.721 506.034,995.726 
  508.073,996.737 510.113,997.752 512.152,998.771 514.192,999.792 516.232,1000.82 518.271,1001.84 520.311,1002.87 522.351,1003.89 524.39,1004.91 526.43,1005.93 
  528.47,1006.95 530.509,1007.97 532.549,1008.98 534.589,1009.99 536.628,1010.99 538.668,1011.98 540.708,1012.97 542.747,1013.95 544.787,1014.92 546.826,1015.88 
  548.866,1016.82 550.906,1017.76 552.945,1018.69 554.985,1019.6 557.025,1020.5 559.064,1021.39 561.104,1022.26 563.144,1023.12 565.183,1023.95 567.223,1024.77 
  569.263,1025.58 571.302,1026.36 573.342,1027.13 575.382,1027.87 577.421,1028.59 579.461,1029.29 581.501,1029.97 583.54,1030.63 585.58,1031.26 587.619,1031.86 
  589.659,1032.44 591.699,1032.99 593.738,1033.52 595.778,1034.01 597.818,1034.48 599.857,1034.92 601.897,1035.33 603.937,1035.7 605.976,1036.05 608.016,1036.36 
  610.056,1036.64 612.095,1036.88 614.135,1037.09 616.175,1037.26 618.214,1037.4 620.254,1037.49 622.294,1037.55 624.333,1037.57 626.373,1037.56 628.412,1037.5 
  630.452,1037.39 632.492,1037.25 634.531,1037.07 636.571,1036.84 638.611,1036.56 640.65,1036.24 642.69,1035.88 644.73,1035.47 646.769,1035.01 648.809,1034.5 
  650.849,1033.94 652.888,1033.34 654.928,1032.68 656.968,1031.97 659.007,1031.21 661.047,1030.4 663.086,1029.53 665.126,1028.61 667.166,1027.63 669.205,1026.6 
  671.245,1025.51 673.285,1024.36 675.324,1023.15 677.364,1021.89 679.404,1020.56 681.443,1019.18 683.483,1017.75 685.523,1016.26 687.562,1014.71 689.602,1013.11 
  691.642,1011.46 693.681,1009.76 695.721,1008.01 697.761,1006.21 699.8,1004.36 701.84,1002.47 703.879,1000.52 705.919,998.538 707.959,996.508 709.998,994.434 
  712.038,992.319 714.078,990.163 716.117,987.967 718.157,985.732 720.197,983.459 722.236,981.149 724.276,978.803 726.316,976.422 728.355,974.008 730.395,971.56 
  732.435,969.081 734.474,966.571 736.514,964.031 738.553,961.462 740.593,958.866 742.633,956.242 744.672,953.593 746.712,950.919 748.752,948.222 750.791,945.501 
  752.831,942.759 754.871,939.996 756.91,937.214 758.95,934.412 760.99,931.593 763.029,928.758 765.069,925.906 767.109,923.04 769.148,920.16 771.188,917.268 
  773.228,914.364 775.267,911.449 777.307,908.525 779.346,905.592 781.386,902.651 783.426,899.704 785.465,896.752 787.505,893.794 789.545,890.833 791.584,887.87 
  793.624,884.905 795.664,881.94 797.703,878.975 799.743,876.011 801.783,873.05 803.822,870.093 805.862,867.14 807.902,864.192 809.941,861.251 811.981,858.318 
  814.02,855.393 816.06,852.478 818.1,849.573 820.139,846.68 822.179,843.8 824.219,840.933 826.258,838.081 828.298,835.244 830.338,832.424 832.377,829.622 
  834.417,826.838 836.457,824.074 838.496,821.331 840.536,818.609 842.576,815.91 844.615,813.235 846.655,810.585 848.695,807.96 850.734,805.362 852.774,802.792 
  854.813,800.25 856.853,797.738 858.893,795.258 860.932,792.808 862.972,790.392 865.012,788.01 867.051,785.662 869.091,783.35 871.131,781.075 873.17,778.838 
  875.21,776.64 877.25,774.481 879.289,772.364 881.329,770.288 883.369,768.255 885.408,766.267 887.448,764.323 889.488,762.425 891.527,760.574 893.567,758.771 
  895.606,757.017 897.646,755.313 899.686,753.659 901.725,752.058 903.765,750.51 905.805,749.014 907.844,747.569 909.884,746.175 911.924,744.831 913.963,743.536 
  916.003,742.29 918.043,741.091 920.082,739.939 922.122,738.834 924.162,737.773 926.201,736.758 928.241,735.786 930.28,734.857 932.32,733.971 934.36,733.126 
  936.399,732.322 938.439,731.557 940.479,730.833 942.518,730.146 944.558,729.498 946.598,728.886 948.637,728.311 950.677,727.771 952.717,727.266 954.756,726.794 
  956.796,726.356 958.836,725.95 960.875,725.576 962.915,725.233 964.955,724.92 966.994,724.636 969.034,724.381 971.073,724.153 973.113,723.953 975.153,723.779 
  977.192,723.63 979.232,723.506 981.272,723.406 983.311,723.33 985.351,723.276 987.391,723.243 989.43,723.232 991.47,723.241 993.51,723.269 995.549,723.315 
  997.589,723.38 999.629,723.462 1001.67,723.56 1003.71,723.674 1005.75,723.802 1007.79,723.945 1009.83,724.101 1011.87,724.27 1013.91,724.45 1015.95,724.641 
  1017.99,724.843 1020.03,725.054 1022.06,725.274 1024.1,725.501 1026.14,725.736 1028.18,725.978 1030.22,726.225 1032.26,726.477 1034.3,726.733 1036.34,726.992 
  1038.38,727.254 1040.42,727.518 1042.46,727.783 1044.5,728.049 1046.54,728.314 1048.58,728.578 1050.62,728.839 1052.66,729.098 1054.7,729.354 1056.74,729.605 
  1058.78,729.852 1060.82,730.092 1062.86,730.326 1064.9,730.553 1066.94,730.772 1068.98,730.981 1071.02,731.182 1073.06,731.371 1075.1,731.55 1077.14,731.717 
  1079.17,731.871 1081.21,732.012 1083.25,732.139 1085.29,732.25 1087.33,732.346 1089.37,732.426 1091.41,732.488 1093.45,732.532 1095.49,732.558 1097.53,732.564 
  1099.57,732.55 1101.61,732.514 1103.65,732.457 1105.69,732.377 1107.73,732.274 1109.77,732.147 1111.81,731.995 1113.85,731.818 1115.89,731.614 1117.93,731.382 
  1119.97,731.123 1122.01,730.835 1124.05,730.518 1126.09,730.171 1128.13,729.792 1130.17,729.382 1132.21,728.942 1134.25,728.471 1136.29,727.97 1138.32,727.441 
  1140.36,726.885 1142.4,726.301 1144.44,725.691 1146.48,725.056 1148.52,724.396 1150.56,723.712 1152.6,723.006 1154.64,722.277 1156.68,721.526 1158.72,720.755 
  1160.76,719.965 1162.8,719.155 1164.84,718.327 1166.88,717.481 1168.92,716.619 1170.96,715.74 1173,714.847 1175.04,713.939 1177.08,713.018 1179.12,712.084 
  1181.16,711.138 1183.2,710.181 1185.24,709.214 1187.28,708.237 1189.32,707.252 1191.36,706.258 1193.4,705.257 1195.43,704.25 1197.47,703.237 1199.51,702.22 
  1201.55,701.198 1203.59,700.174 1205.63,699.146 1207.67,698.117 1209.71,697.088 1211.75,696.058 1213.79,695.029 1215.83,694.002 1217.87,692.976 1219.91,691.954 
  1221.95,690.936 1223.99,689.923 1226.03,688.915 1228.07,687.913 1230.11,686.919 1232.15,685.932 1234.19,684.954 1236.23,683.986 1238.27,683.027 1240.31,682.08 
  1242.35,681.145 1244.39,680.222 1246.43,679.313 1248.47,678.417 1250.51,677.537 1252.55,676.673 1254.58,675.825 1256.62,674.995 1258.66,674.182 1260.7,673.389 
  1262.74,672.616 1264.78,671.863 1266.82,671.131 1268.86,670.421 1270.9,669.735 1272.94,669.072 1274.98,668.434 1277.02,667.821 1279.06,667.234 1281.1,666.674 
  1283.14,666.141 1285.18,665.637 1287.22,665.162 1289.26,664.718 1291.3,664.304 1293.34,663.922 1295.38,663.572 1297.42,663.256 1299.46,662.973 1301.5,662.725 
  1303.54,662.513 1305.58,662.338 1307.62,662.199 1309.66,662.099 1311.69,662.037 1313.73,662.015 1315.77,662.033 1317.81,662.092 1319.85,662.193 1321.89,662.337 
  1323.93,662.524 1325.97,662.756 1328.01,663.033 1330.05,663.356 1332.09,663.725 1334.13,664.142 1336.17,664.607 1338.21,665.122 1340.25,665.686 1342.29,666.3 
  1344.33,666.967 1346.37,667.685 1348.41,668.456 1350.45,669.282 1352.49,670.162 1354.53,671.097 1356.57,672.088 1358.61,673.135 1360.65,674.236 1362.69,675.391 
  1364.73,676.599 1366.77,677.859 1368.8,679.171 1370.84,680.534 1372.88,681.946 1374.92,683.407 1376.96,684.917 1379,686.474 1381.04,688.078 1383.08,689.728 
  1385.12,691.423 1387.16,693.162 1389.2,694.945 1391.24,696.771 1393.28,698.639 1395.32,700.547 1397.36,702.497 1399.4,704.486 1401.44,706.513 1403.48,708.579 
  1405.52,710.682 1407.56,712.821 1409.6,714.997 1411.64,717.206 1413.68,719.451 1415.72,721.728 1417.76,724.038 1419.8,726.379 1421.84,728.752 1423.88,731.155 
  1425.92,733.587 1427.95,736.047 1429.99,738.536 1432.03,741.051 1434.07,743.592 1436.11,746.159 1438.15,748.751 1440.19,751.366 1442.23,754.005 1444.27,756.665 
  1446.31,759.347 1448.35,762.05 1450.39,764.773 1452.43,767.515 1454.47,770.275 1456.51,773.052 1458.55,775.846 1460.59,778.657 1462.63,781.482 1464.67,784.322 
  1466.71,787.175 1468.75,790.041 1470.79,792.919 1472.83,795.808 1474.87,798.708 1476.91,801.617 1478.95,804.535 1480.99,807.461 1483.03,810.394 1485.06,813.334 
  1487.1,816.28 1489.14,819.23 1491.18,822.184 1493.22,825.142 1495.26,828.102 1497.3,831.064 1499.34,834.027 1501.38,836.99 1503.42,839.952 1505.46,842.913 
  1507.5,845.872 1509.54,848.828 1511.58,851.78 1513.62,854.727 1515.66,857.669 1517.7,860.605 1519.74,863.533 1521.78,866.454 1523.82,869.367 1525.86,872.27 
  1527.9,875.163 1529.94,878.045 1531.98,880.916 1534.02,883.773 1536.06,886.618 1538.1,889.449 1540.14,892.264 1542.18,895.064 1544.21,897.848 1546.25,900.614 
  1548.29,903.363 1550.33,906.092 1552.37,908.802 1554.41,911.492 1556.45,914.16 1558.49,916.807 1560.53,919.431 1562.57,922.031 1564.61,924.607 1566.65,927.157 
  1568.69,929.682 1570.73,932.18 1572.77,934.651 1574.81,937.093 1576.85,939.506 1578.89,941.89 1580.93,944.242 1582.97,946.564 1585.01,948.854 1587.05,951.113 
  1589.09,953.341 1591.13,955.537 1593.17,957.703 1595.21,959.837 1597.25,961.941 1599.29,964.014 1601.32,966.056 1603.36,968.068 1605.4,970.049 1607.44,972 
  1609.48,973.921 1611.52,975.811 1613.56,977.671 1615.6,979.501 1617.64,981.301 1619.68,983.071 1621.72,984.812 1623.76,986.522 1625.8,988.203 1627.84,989.854 
  1629.88,991.476 1631.92,993.068 1633.96,994.632 1636,996.165 1638.04,997.67 1640.08,999.146 1642.12,1000.59 1644.16,1002.01 1646.2,1003.4 1648.24,1004.76 
  1650.28,1006.09 1652.32,1007.39 1654.36,1008.67 1656.4,1009.91 1658.44,1011.13 1660.47,1012.32 1662.51,1013.48 1664.55,1014.62 1666.59,1015.72 1668.63,1016.8 
  1670.67,1017.85 1672.71,1018.87 1674.75,1019.87 1676.79,1020.83 1678.83,1021.77 1680.87,1022.69 1682.91,1023.57 1684.95,1024.43 1686.99,1025.26 1689.03,1026.06 
  1691.07,1026.84 1693.11,1027.59 1695.15,1028.31 1697.19,1029.01 1699.23,1029.68 1701.27,1030.32 1703.31,1030.94 1705.35,1031.53 1707.39,1032.09 1709.43,1032.63 
  1711.47,1033.14 1713.51,1033.63 1715.55,1034.09 1717.58,1034.52 1719.62,1034.93 1721.66,1035.31 1723.7,1035.67 1725.74,1036 1727.78,1036.31 1729.82,1036.59 
  1731.86,1036.84 1733.9,1037.07 1735.94,1037.28 1737.98,1037.46 1740.02,1037.61 1742.06,1037.74 1744.1,1037.85 1746.14,1037.93 1748.18,1037.99 1750.22,1038.02 
  1752.26,1038.03 1754.3,1038.01 1756.34,1037.97 1758.38,1037.91 1760.42,1037.82 1762.46,1037.7 1764.5,1037.57 1766.54,1037.41 1768.58,1037.22 1770.62,1037.01 
  1772.66,1036.78 1774.7,1036.53 1776.73,1036.25 1778.77,1035.95 1780.81,1035.62 1782.85,1035.27 1784.89,1034.9 1786.93,1034.51 1788.97,1034.09 1791.01,1033.65 
  1793.05,1033.19 1795.09,1032.7 1797.13,1032.19 1799.17,1031.66 1801.21,1031.11 1803.25,1030.54 1805.29,1029.94 1807.33,1029.32 1809.37,1028.68 1811.41,1028.02 
  1813.45,1027.33 1815.49,1026.63 1817.53,1025.9 1819.57,1025.16 1821.61,1024.39 1823.65,1023.61 1825.69,1022.8 1827.73,1021.98 1829.77,1021.14 1831.81,1020.28 
  1833.84,1019.4 1835.88,1018.51 1837.92,1017.6 1839.96,1016.67 1842,1015.73 1844.04,1014.77 1846.08,1013.8 1848.12,1012.81 1850.16,1011.81 1852.2,1010.79 
  1854.24,1009.76 1856.28,1008.72 1858.32,1007.66 1860.36,1006.59 1862.4,1005.51 1864.44,1004.41 1866.48,1003.31 1868.52,1002.19 1870.56,1001.06 1872.6,999.924 
  1874.64,998.776 1876.68,997.619 1878.72,996.452 1880.76,995.276 1882.8,994.092 1884.84,992.9 1886.88,991.7 1888.92,990.492 1890.96,989.278 1892.99,988.057 
  1895.03,986.829 1897.07,985.596 1899.11,984.357 1901.15,983.113 1903.19,981.865 1905.23,980.611 1907.27,979.354 1909.31,978.094 1911.35,976.83 1913.39,975.563 
  1915.43,974.294 1917.47,973.022 1919.51,971.749 1921.55,970.474 1923.59,969.199 1925.63,967.922 1927.67,966.646 1929.71,965.369 1931.75,964.093 1933.79,962.818 
  1935.83,961.545 1937.87,960.273 1939.91,959.002 1941.95,957.735 1943.99,956.47 1946.03,955.208 1948.07,953.949 1950.1,952.695 1952.14,951.444 1954.18,950.199 
  1956.22,948.958 1958.26,947.723 1960.3,946.493 1962.34,945.27 1964.38,944.053 1966.42,942.843 1968.46,941.64 1970.5,940.445 1972.54,939.258 1974.58,938.079 
  1976.62,936.909 1978.66,935.748 1980.7,934.597 1982.74,933.455 1984.78,932.324 1986.82,931.204 1988.86,930.094 1990.9,928.996 1992.94,927.909 1994.98,926.835 
  1997.02,925.773 1999.06,924.724 2001.1,923.689 2003.14,922.667 2005.18,921.659 2007.22,920.665 2009.25,919.686 2011.29,918.723 2013.33,917.774 2015.37,916.842 
  2017.41,915.926 2019.45,915.027 2021.49,914.144 2023.53,913.279 2025.57,912.432 2027.61,911.603 2029.65,910.792 2031.69,910.001 2033.73,909.228 2035.77,908.476 
  2037.81,907.742 2039.85,907.028 2041.89,906.333 2043.93,905.657 2045.97,905 2048.01,904.361 2050.05,903.741 2052.09,903.139 2054.13,902.555 2056.17,901.988 
  2058.21,901.44 2060.25,900.909 2062.29,900.395 2064.33,899.899 2066.36,899.42 2068.4,898.957 2070.44,898.511 2072.48,898.081 2074.52,897.668 2076.56,897.271 
  2078.6,896.89 2080.64,896.524 2082.68,896.174 2084.72,895.84 2086.76,895.521 2088.8,895.216 2090.84,894.927 2092.88,894.652 2094.92,894.392 2096.96,894.146 
  2099,893.914 2101.04,893.697 2103.08,893.493 2105.12,893.303 2107.16,893.126 2109.2,892.962 2111.24,892.812 2113.28,892.674 2115.32,892.549 2117.36,892.437 
  2119.4,892.337 2121.44,892.25 2123.48,892.174 2125.51,892.11 2127.55,892.058 2129.59,892.018 2131.63,891.988 2133.67,891.97 2135.71,891.963 2137.75,891.967 
  2139.79,891.981 2141.83,892.006 2143.87,892.041 2145.91,892.086 2147.95,892.141 2149.99,892.206 2152.03,892.28 2154.07,892.364 2156.11,892.456 2158.15,892.558 
  2160.19,892.669 2162.23,892.788 2164.27,892.916 2166.31,893.053 2168.35,893.197 2170.39,893.349 2172.43,893.509 2174.47,893.677 2176.51,893.852 2178.55,894.035 
  2180.59,894.224 2182.62,894.421 2184.66,894.624 2186.7,894.833 2188.74,895.049 2190.78,895.272 2192.82,895.5 2194.86,895.734 2196.9,895.974 2198.94,896.219 
  2200.98,896.469 2203.02,896.725 2205.06,896.986 2207.1,897.251 2209.14,897.521 2211.18,897.796 2213.22,898.074 2215.26,898.357 2217.3,898.644 2219.34,898.934 
  2221.38,899.228 2223.42,899.525 2225.46,899.826 2227.5,900.129 2229.54,900.435 2231.58,900.744 2233.62,901.056 2235.66,901.369 2237.7,901.685 2239.74,902.003 
  2241.77,902.323 2243.81,902.644 2245.85,902.966 2247.89,903.29 2249.93,903.615 2251.97,903.941 2254.01,904.267 2256.05,904.594 2258.09,904.921 2260.13,905.249 
  
  "/>
<polyline clip-path="url(#clip9803)" style="stroke:#c271d2; stroke-width:4; stroke-opacity:1; fill:none" points="
  222.522,1019.4 224.562,1018.72 226.602,1018.05 228.641,1017.38 230.681,1016.7 232.721,1016.03 234.76,1015.36 236.8,1014.68 238.84,1014.01 240.879,1013.34 
  242.919,1012.66 244.958,1011.99 246.998,1011.32 249.038,1010.64 251.077,1009.97 253.117,1009.3 255.157,1008.63 257.196,1007.95 259.236,1007.28 261.276,1006.61 
  263.315,1005.93 265.355,1005.26 267.395,1004.59 269.434,1003.91 271.474,1003.24 273.514,1002.57 275.553,1001.89 277.593,1001.22 279.632,1000.55 281.672,999.874 
  283.712,999.201 285.751,998.528 287.791,997.855 289.831,997.182 291.87,996.509 293.91,995.836 295.95,995.162 297.989,994.489 300.029,993.816 302.069,993.143 
  304.108,992.47 306.148,991.797 308.188,991.124 310.227,990.45 312.267,989.777 314.307,989.104 316.346,988.431 318.386,987.758 320.425,987.085 322.465,986.412 
  324.505,985.738 326.544,985.065 328.584,984.392 330.624,983.719 332.663,983.046 334.703,982.373 336.743,981.702 338.782,981.047 340.822,980.409 342.862,979.79 
  344.901,979.189 346.941,978.605 348.981,978.04 351.02,977.492 353.06,976.962 355.099,976.451 357.139,975.957 359.179,975.481 361.218,975.023 363.258,974.583 
  365.298,974.161 367.337,973.757 369.377,973.371 371.417,973.003 373.456,972.652 375.496,972.32 377.536,972.005 379.575,971.709 381.615,971.43 383.655,971.17 
  385.694,970.927 387.734,970.702 389.774,970.496 391.813,970.307 393.853,970.136 395.892,969.983 397.932,969.848 399.972,969.731 402.011,969.631 404.051,969.55 
  406.091,969.487 408.13,969.441 410.17,969.414 412.21,969.404 414.249,969.413 416.289,969.439 418.329,969.484 420.368,969.546 422.408,969.626 424.448,969.724 
  426.487,969.84 428.527,969.974 430.567,970.126 432.606,970.296 434.646,970.484 436.685,970.689 438.725,970.913 440.765,971.155 442.804,971.414 444.844,971.692 
  446.884,971.987 448.923,972.3 450.963,972.632 453.003,972.981 455.042,973.348 457.082,973.733 459.122,974.136 461.161,974.557 463.201,974.996 465.241,975.453 
  467.28,975.927 469.32,976.42 471.359,976.931 473.399,977.459 475.439,978.006 477.478,978.57 479.518,979.153 481.558,979.753 483.597,980.371 485.637,981.007 
  487.677,981.661 489.716,982.334 491.756,983.024 493.796,983.731 495.835,984.457 497.875,985.201 499.915,985.963 501.954,986.743 503.994,987.54 506.034,988.356 
  508.073,989.189 510.113,990.041 512.152,990.91 514.192,991.797 516.232,992.702 518.271,993.626 520.311,994.567 522.351,995.526 524.39,996.503 526.43,997.498 
  528.47,998.51 530.509,999.541 532.549,1000.59 534.589,1001.66 536.628,1002.74 538.668,1003.84 540.708,1004.96 542.747,1006.1 544.787,1007.26 546.826,1008.43 
  548.866,1009.63 550.906,1010.84 552.945,1012.06 554.985,1013.31 557.025,1014.57 559.064,1015.86 561.104,1017.16 563.144,1018.47 565.183,1019.74 567.223,1020.97 
  569.263,1022.15 571.302,1023.3 573.342,1024.39 575.382,1025.45 577.421,1026.46 579.461,1027.42 581.501,1028.34 583.54,1029.22 585.58,1030.06 587.619,1030.84 
  589.659,1031.59 591.699,1032.29 593.738,1032.95 595.778,1033.56 597.818,1034.13 599.857,1034.66 601.897,1035.14 603.937,1035.58 605.976,1035.97 608.016,1036.32 
  610.056,1036.62 612.095,1036.89 614.135,1037.1 616.175,1037.28 618.214,1037.41 620.254,1037.49 622.294,1037.53 624.333,1037.53 626.373,1037.48 628.412,1037.39 
  630.452,1037.26 632.492,1037.08 634.531,1036.85 636.571,1036.59 638.611,1036.28 640.65,1035.92 642.69,1035.52 644.73,1035.08 646.769,1034.59 648.809,1034.06 
  650.849,1033.49 652.888,1032.87 654.928,1032.2 656.968,1031.5 659.007,1030.75 661.047,1029.95 663.086,1029.11 665.126,1028.23 667.166,1027.3 669.205,1026.33 
  671.245,1025.31 673.285,1024.26 675.324,1023.15 677.364,1022 679.404,1020.81 681.443,1019.58 683.483,1018.3 685.523,1016.98 687.562,1015.61 689.602,1014.2 
  691.642,1012.74 693.681,1011.24 695.721,1009.7 697.761,1008.11 699.8,1006.48 701.84,1004.8 703.879,1003.08 705.919,1001.32 707.959,999.512 709.998,997.661 
  712.038,995.765 714.078,993.825 716.117,991.842 718.157,989.814 720.197,987.742 722.236,985.626 724.276,983.467 726.316,981.263 728.355,979.015 730.395,976.723 
  732.435,974.387 734.474,972.008 736.514,969.584 738.553,967.116 740.593,964.604 742.633,962.048 744.672,959.448 746.712,956.804 748.752,954.116 750.791,951.384 
  752.831,948.608 754.871,945.788 756.91,942.924 758.95,940.016 760.99,937.064 763.029,934.067 765.069,931.027 767.109,927.943 769.148,924.815 771.188,921.643 
  773.228,918.427 775.267,915.166 777.307,911.862 779.346,908.514 781.386,905.121 783.426,901.685 785.465,898.205 787.505,894.68 789.545,891.122 791.584,887.591 
  793.624,884.097 795.664,880.64 797.703,877.22 799.743,873.837 801.783,870.492 803.822,867.183 805.862,863.912 807.902,860.678 809.941,857.481 811.981,854.321 
  814.02,851.199 816.06,848.113 818.1,845.065 820.139,842.053 822.179,839.079 824.219,836.142 826.258,833.242 828.298,830.38 830.338,827.554 832.377,824.766 
  834.417,822.014 836.457,819.3 838.496,816.623 840.536,813.983 842.576,811.381 844.615,808.815 846.655,806.287 848.695,803.795 850.734,801.341 852.774,798.924 
  854.813,796.544 856.853,794.202 858.893,791.896 860.932,789.628 862.972,787.396 865.012,785.202 867.051,783.045 869.091,780.925 871.131,778.842 873.17,776.797 
  875.21,774.788 877.25,772.817 879.289,770.883 881.329,768.986 883.369,767.126 885.408,765.303 887.448,763.518 889.488,761.769 891.527,760.058 893.567,758.384 
  895.606,756.747 897.646,755.147 899.686,753.584 901.725,752.058 903.765,750.57 905.805,749.118 907.844,747.704 909.884,746.327 911.924,744.987 913.963,743.685 
  916.003,742.419 918.043,741.19 920.082,739.999 922.122,738.845 924.162,737.728 926.201,736.648 928.241,735.605 930.28,734.599 932.32,733.631 934.36,732.699 
  936.399,731.805 938.439,730.948 940.479,730.128 942.518,729.345 944.558,728.6 946.598,727.891 948.637,727.22 950.677,726.586 952.717,725.989 954.756,725.429 
  956.796,724.906 958.836,724.42 960.875,723.972 962.915,723.56 964.955,723.186 966.994,722.849 969.034,722.549 971.073,722.286 973.113,722.06 975.153,721.872 
  977.192,721.72 979.232,721.606 981.272,721.529 983.311,721.489 985.351,721.486 987.391,721.52 989.43,721.592 991.47,721.7 993.51,721.846 995.549,722.029 
  997.589,722.249 999.629,722.506 1001.67,722.8 1003.71,723.132 1005.75,723.5 1007.79,723.906 1009.83,724.349 1011.87,724.829 1013.91,725.346 1015.95,725.894 
  1017.99,726.431 1020.03,726.95 1022.06,727.453 1024.1,727.938 1026.14,728.406 1028.18,728.857 1030.22,729.29 1032.26,729.706 1034.3,730.105 1036.34,730.487 
  1038.38,730.851 1040.42,731.198 1042.46,731.528 1044.5,731.841 1046.54,732.136 1048.58,732.414 1050.62,732.675 1052.66,732.918 1054.7,733.145 1056.74,733.354 
  1058.78,733.545 1060.82,733.72 1062.86,733.877 1064.9,734.017 1066.94,734.14 1068.98,734.245 1071.02,734.333 1073.06,734.404 1075.1,734.458 1077.14,734.494 
  1079.17,734.513 1081.21,734.515 1083.25,734.5 1085.29,734.467 1087.33,734.417 1089.37,734.35 1091.41,734.265 1093.45,734.164 1095.49,734.045 1097.53,733.908 
  1099.57,733.755 1101.61,733.584 1103.65,733.396 1105.69,733.19 1107.73,732.968 1109.77,732.728 1111.81,732.471 1113.85,732.196 1115.89,731.905 1117.93,731.596 
  1119.97,731.27 1122.01,730.926 1124.05,730.566 1126.09,730.188 1128.13,729.792 1130.17,729.38 1132.21,728.95 1134.25,728.503 1136.29,728.039 1138.32,727.557 
  1140.36,727.058 1142.4,726.542 1144.44,726.009 1146.48,725.458 1148.52,724.89 1150.56,724.305 1152.6,723.703 1154.64,723.083 1156.68,722.446 1158.72,721.792 
  1160.76,721.121 1162.8,720.432 1164.84,719.726 1166.88,719.003 1168.92,718.262 1170.96,717.504 1173,716.729 1175.04,715.937 1177.08,715.127 1179.12,714.301 
  1181.16,713.457 1183.2,712.595 1185.24,711.717 1187.28,710.821 1189.32,709.907 1191.36,708.977 1193.4,708.029 1195.43,707.064 1197.47,706.082 1199.51,705.083 
  1201.55,704.066 1203.59,703.032 1205.63,701.981 1207.67,700.912 1209.71,699.826 1211.75,698.723 1213.79,697.603 1215.83,696.465 1217.87,695.311 1219.91,694.138 
  1221.95,692.949 1223.99,691.742 1226.03,690.519 1228.07,689.277 1230.11,688.019 1232.15,686.743 1234.19,685.45 1236.23,684.14 1238.27,682.813 1240.31,681.468 
  1242.35,680.113 1244.39,678.794 1246.43,677.518 1248.47,676.284 1250.51,675.093 1252.55,673.945 1254.58,672.84 1256.62,671.777 1258.66,670.758 1260.7,669.781 
  1262.74,668.847 1264.78,667.955 1266.82,667.107 1268.86,666.301 1270.9,665.538 1272.94,664.818 1274.98,664.14 1277.02,663.506 1279.06,662.914 1281.1,662.365 
  1283.14,661.859 1285.18,661.395 1287.22,660.974 1289.26,660.597 1291.3,660.262 1293.34,659.969 1295.38,659.72 1297.42,659.513 1299.46,659.349 1301.5,659.228 
  1303.54,659.15 1305.58,659.114 1307.62,659.121 1309.66,659.171 1311.69,659.264 1313.73,659.4 1315.77,659.578 1317.81,659.799 1319.85,660.063 1321.89,660.37 
  1323.93,660.719 1325.97,661.112 1328.01,661.547 1330.05,662.025 1332.09,662.545 1334.13,663.109 1336.17,663.715 1338.21,664.364 1340.25,665.056 1342.29,665.791 
  1344.33,666.568 1346.37,667.388 1348.41,668.251 1350.45,669.157 1352.49,670.106 1354.53,671.097 1356.57,672.131 1358.61,673.208 1360.65,674.328 1362.69,675.49 
  1364.73,676.696 1366.77,677.944 1368.8,679.234 1370.84,680.568 1372.88,681.945 1374.92,683.364 1376.96,684.826 1379,686.331 1381.04,687.878 1383.08,689.469 
  1385.12,691.102 1387.16,692.778 1389.2,694.497 1391.24,696.258 1393.28,698.063 1395.32,699.91 1397.36,701.8 1399.4,703.732 1401.44,705.708 1403.48,707.726 
  1405.52,709.787 1407.56,711.891 1409.6,714.038 1411.64,716.227 1413.68,718.459 1415.72,720.734 1417.76,723.052 1419.8,725.413 1421.84,727.816 1423.88,730.262 
  1425.92,732.751 1427.95,735.283 1429.99,737.858 1432.03,740.475 1434.07,743.135 1436.11,745.838 1438.15,748.584 1440.19,751.372 1442.23,754.203 1444.27,757.077 
  1446.31,759.994 1448.35,762.954 1450.39,765.956 1452.43,769.002 1454.47,772.09 1456.51,775.22 1458.55,778.394 1460.59,781.61 1462.63,784.869 1464.67,788.171 
  1466.71,791.516 1468.75,794.895 1470.79,798.259 1472.83,801.598 1474.87,804.914 1476.91,808.205 1478.95,811.473 1480.99,814.716 1483.03,817.936 1485.06,821.131 
  1487.1,824.303 1489.14,827.45 1491.18,830.574 1493.22,833.673 1495.26,836.749 1497.3,839.8 1499.34,842.828 1501.38,845.831 1503.42,848.81 1505.46,851.766 
  1507.5,854.697 1509.54,857.605 1511.58,860.488 1513.62,863.348 1515.66,866.183 1517.7,868.995 1519.74,871.782 1521.78,874.545 1523.82,877.285 1525.86,880 
  1527.9,882.692 1529.94,885.359 1531.98,888.002 1534.02,890.622 1536.06,893.217 1538.1,895.788 1540.14,898.336 1542.18,900.859 1544.21,903.359 1546.25,905.834 
  1548.29,908.285 1550.33,910.713 1552.37,913.116 1554.41,915.495 1556.45,917.851 1558.49,920.182 1560.53,922.489 1562.57,924.773 1564.61,927.032 1566.65,929.267 
  1568.69,931.479 1570.73,933.666 1572.77,935.829 1574.81,937.969 1576.85,940.084 1578.89,942.175 1580.93,944.242 1582.97,946.286 1585.01,948.305 1587.05,950.3 
  1589.09,952.272 1591.13,954.219 1593.17,956.142 1595.21,958.041 1597.25,959.917 1599.29,961.768 1601.32,963.595 1603.36,965.398 1605.4,967.178 1607.44,968.933 
  1609.48,970.664 1611.52,972.371 1613.56,974.055 1615.6,975.714 1617.64,977.349 1619.68,978.96 1621.72,980.547 1623.76,982.111 1625.8,983.65 1627.84,985.165 
  1629.88,986.656 1631.92,988.123 1633.96,989.567 1636,990.986 1638.04,992.381 1640.08,993.752 1642.12,995.099 1644.16,996.422 1646.2,997.722 1648.24,998.997 
  1650.28,1000.25 1652.32,1001.48 1654.36,1002.68 1656.4,1003.86 1658.44,1005.01 1660.47,1006.14 1662.51,1007.25 1664.55,1008.33 1666.59,1009.39 1668.63,1010.43 
  1670.67,1011.44 1672.71,1012.43 1674.75,1013.39 1676.79,1014.33 1678.83,1015.24 1680.87,1016.13 1682.91,1017 1684.95,1017.84 1686.99,1018.66 1689.03,1019.46 
  1691.07,1020.23 1693.11,1020.98 1695.15,1021.7 1697.19,1022.4 1699.23,1023.08 1701.27,1023.74 1703.31,1024.38 1705.35,1025 1707.39,1025.6 1709.43,1026.18 
  1711.47,1026.73 1713.51,1027.27 1715.55,1027.78 1717.58,1028.28 1719.62,1028.75 1721.66,1029.2 1723.7,1029.63 1725.74,1030.04 1727.78,1030.43 1729.82,1030.8 
  1731.86,1031.15 1733.9,1031.47 1735.94,1031.78 1737.98,1032.06 1740.02,1032.33 1742.06,1032.57 1744.1,1032.79 1746.14,1032.99 1748.18,1033.17 1750.22,1033.33 
  1752.26,1033.47 1754.3,1033.59 1756.34,1033.68 1758.38,1033.76 1760.42,1033.82 1762.46,1033.85 1764.5,1033.86 1766.54,1033.86 1768.58,1033.83 1770.62,1033.78 
  1772.66,1033.71 1774.7,1033.62 1776.73,1033.5 1778.77,1033.37 1780.81,1033.22 1782.85,1033.04 1784.89,1032.85 1786.93,1032.63 1788.97,1032.39 1791.01,1032.14 
  1793.05,1031.86 1795.09,1031.56 1797.13,1031.24 1799.17,1030.89 1801.21,1030.53 1803.25,1030.15 1805.29,1029.74 1807.33,1029.32 1809.37,1028.87 1811.41,1028.41 
  1813.45,1027.92 1815.49,1027.41 1817.53,1026.88 1819.57,1026.33 1821.61,1025.76 1823.65,1025.17 1825.69,1024.55 1827.73,1023.92 1829.77,1023.27 1831.81,1022.59 
  1833.84,1021.89 1835.88,1021.18 1837.92,1020.44 1839.96,1019.68 1842,1018.9 1844.04,1018.1 1846.08,1017.28 1848.12,1016.43 1850.16,1015.57 1852.2,1014.69 
  1854.24,1013.78 1856.28,1012.85 1858.32,1011.91 1860.36,1010.94 1862.4,1009.95 1864.44,1008.94 1866.48,1007.91 1868.52,1006.86 1870.56,1005.79 1872.6,1004.69 
  1874.64,1003.58 1876.68,1002.44 1878.72,1001.29 1880.76,1000.11 1882.8,998.914 1884.84,997.696 1886.88,996.457 1888.92,995.197 1890.96,993.916 1892.99,992.614 
  1895.03,991.291 1897.07,989.947 1899.11,988.583 1901.15,987.197 1903.19,985.791 1905.23,984.364 1907.27,982.916 1909.31,981.447 1911.35,979.957 1913.39,978.446 
  1915.43,976.915 1917.47,975.362 1919.51,973.789 1921.55,972.199 1923.59,970.621 1925.63,969.059 1927.67,967.513 1929.71,965.983 1931.75,964.469 1933.79,962.971 
  1935.83,961.49 1937.87,960.024 1939.91,958.574 1941.95,957.14 1943.99,955.722 1946.03,954.321 1948.07,952.935 1950.1,951.566 1952.14,950.212 1954.18,948.875 
  1956.22,947.553 1958.26,946.248 1960.3,944.959 1962.34,943.685 1964.38,942.428 1966.42,941.187 1968.46,939.962 1970.5,938.753 1972.54,937.56 1974.58,936.383 
  1976.62,935.222 1978.66,934.077 1980.7,932.948 1982.74,931.835 1984.78,930.738 1986.82,929.657 1988.86,928.593 1990.9,927.544 1992.94,926.511 1994.98,925.495 
  1997.02,924.494 1999.06,923.51 2001.1,922.541 2003.14,921.589 2005.18,920.653 2007.22,919.732 2009.25,918.828 2011.29,917.94 2013.33,917.068 2015.37,916.212 
  2017.41,915.371 2019.45,914.547 2021.49,913.739 2023.53,912.947 2025.57,912.172 2027.61,911.412 2029.65,910.668 2031.69,909.94 2033.73,909.228 2035.77,908.533 
  2037.81,907.853 2039.85,907.189 2041.89,906.542 2043.93,905.91 2045.97,905.295 2048.01,904.696 2050.05,904.112 2052.09,903.545 2054.13,902.994 2056.17,902.458 
  2058.21,901.939 2060.25,901.436 2062.29,900.949 2064.33,900.478 2066.36,900.023 2068.4,899.584 2070.44,899.161 2072.48,898.754 2074.52,898.363 2076.56,897.988 
  2078.6,897.63 2080.64,897.287 2082.68,896.96 2084.72,896.65 2086.76,896.355 2088.8,896.077 2090.84,895.814 2092.88,895.568 2094.92,895.337 2096.96,895.123 
  2099,894.925 2101.04,894.742 2103.08,894.576 2105.12,894.426 2107.16,894.292 2109.2,894.174 2111.24,894.072 2113.28,893.986 2115.32,893.916 2117.36,893.862 
  2119.4,893.824 2121.44,893.802 2123.48,893.797 2125.51,893.807 2127.55,893.833 2129.59,893.875 2131.63,893.934 2133.67,894.008 2135.71,894.099 2137.75,894.205 
  2139.79,894.328 2141.83,894.467 2143.87,894.621 2145.91,894.792 2147.95,894.977 2149.99,895.164 2152.03,895.35 2154.07,895.537 2156.11,895.724 2158.15,895.911 
  2160.19,896.097 2162.23,896.284 2164.27,896.471 2166.31,896.658 2168.35,896.844 2170.39,897.031 2172.43,897.218 2174.47,897.405 2176.51,897.592 2178.55,897.778 
  2180.59,897.965 2182.62,898.152 2184.66,898.339 2186.7,898.525 2188.74,898.712 2190.78,898.899 2192.82,899.086 2194.86,899.272 2196.9,899.459 2198.94,899.646 
  2200.98,899.833 2203.02,900.02 2205.06,900.206 2207.1,900.393 2209.14,900.58 2211.18,900.767 2213.22,900.953 2215.26,901.14 2217.3,901.327 2219.34,901.514 
  2221.38,901.7 2223.42,901.887 2225.46,902.074 2227.5,902.261 2229.54,902.447 2231.58,902.634 2233.62,902.821 2235.66,903.008 2237.7,903.195 2239.74,903.381 
  2241.77,903.568 2243.81,903.755 2245.85,903.942 2247.89,904.128 2249.93,904.315 2251.97,904.502 2254.01,904.689 2256.05,904.875 2258.09,905.062 2260.13,905.249 
  
  "/>
<polyline clip-path="url(#clip9803)" style="stroke:#ac8d18; stroke-width:4; stroke-opacity:1; fill:none" points="
  222.522,1019.4 224.562,962.865 226.602,908.852 228.641,857.291 230.681,808.116 232.721,761.265 234.76,716.675 236.8,674.285 238.84,634.035 240.879,595.866 
  242.919,559.72 244.958,525.54 246.998,493.271 249.038,462.858 251.077,434.248 253.117,407.387 255.157,382.226 257.196,358.713 259.236,336.799 261.276,316.435 
  263.315,297.574 265.355,280.169 267.395,264.175 269.434,249.547 271.474,236.241 273.514,224.215 275.553,213.426 277.593,203.833 279.632,195.397 281.672,188.077 
  283.712,181.836 285.751,176.635 287.791,172.437 289.831,169.206 291.87,166.908 293.91,165.507 295.95,164.97 297.989,165.263 300.029,166.355 302.069,168.213 
  304.108,170.807 306.148,174.107 308.188,178.083 310.227,182.707 312.267,187.95 314.307,193.784 316.346,200.184 318.386,207.123 320.425,214.575 322.465,222.516 
  324.505,230.922 326.544,239.767 328.584,249.031 330.624,258.689 332.663,268.72 334.703,279.104 336.743,289.818 338.782,300.842 340.822,312.158 342.862,323.745 
  344.901,335.585 346.941,347.66 348.981,359.952 351.02,372.444 353.06,385.119 355.099,397.961 357.139,410.955 359.179,424.084 361.218,437.334 363.258,450.69 
  365.298,464.14 367.337,477.668 369.377,491.261 371.417,504.908 373.456,518.596 375.496,532.312 377.536,546.046 379.575,559.785 381.615,573.52 383.655,587.24 
  385.694,600.934 387.734,614.593 389.774,628.207 391.813,641.768 393.853,655.267 395.892,668.694 397.932,682.044 399.972,695.306 402.011,708.475 404.051,721.542 
  406.091,734.501 408.13,747.346 410.17,760.07 412.21,772.666 414.249,785.13 416.289,797.456 418.329,809.638 420.368,821.672 422.408,833.552 424.448,845.274 
  426.487,856.835 428.527,868.229 430.567,879.453 432.606,890.504 434.646,901.378 436.685,912.072 438.725,922.583 440.765,932.908 442.804,943.044 444.844,952.99 
  446.884,962.743 448.923,972.3 450.963,981.661 453.003,990.823 455.042,999.786 457.082,1008.55 459.122,1017.1 461.161,1025.46 463.201,1033.61 465.241,1041.55 
  467.28,1049.29 469.32,1056.83 471.359,1064.15 473.399,1071.27 475.439,1078.19 477.478,1084.89 479.518,1091.39 481.558,1097.68 483.597,1103.77 485.637,1109.65 
  487.677,1115.33 489.716,1120.8 491.756,1126.07 493.796,1131.14 495.835,1136.01 497.875,1140.68 499.915,1145.14 501.954,1149.41 503.994,1153.49 506.034,1157.37 
  508.073,1161.05 510.113,1164.55 512.152,1167.85 514.192,1170.97 516.232,1173.9 518.271,1176.64 520.311,1179.2 522.351,1181.58 524.39,1183.78 526.43,1185.81 
  528.47,1187.66 530.509,1189.34 532.549,1190.84 534.589,1192.18 536.628,1193.36 538.668,1194.37 540.708,1195.21 542.747,1195.9 544.787,1196.44 546.826,1196.82 
  548.866,1197.05 550.906,1197.13 552.945,1197.06 554.985,1196.85 557.025,1196.49 559.064,1196 561.104,1195.38 563.144,1194.62 565.183,1193.72 567.223,1192.7 
  569.263,1191.56 571.302,1190.29 573.342,1188.9 575.382,1187.4 577.421,1185.77 579.461,1184.04 581.501,1182.2 583.54,1180.25 585.58,1178.19 587.619,1176.04 
  589.659,1173.78 591.699,1171.43 593.738,1168.99 595.778,1166.45 597.818,1163.83 599.857,1161.12 601.897,1158.33 603.937,1155.45 605.976,1152.5 608.016,1149.48 
  610.056,1146.38 612.095,1143.21 614.135,1139.97 616.175,1136.67 618.214,1133.31 620.254,1129.88 622.294,1126.4 624.333,1122.86 626.373,1119.27 628.412,1115.63 
  630.452,1111.95 632.492,1108.21 634.531,1104.43 636.571,1100.62 638.611,1096.76 640.65,1092.87 642.69,1088.94 644.73,1084.98 646.769,1080.99 648.809,1076.97 
  650.849,1072.93 652.888,1068.86 654.928,1064.77 656.968,1060.67 659.007,1056.54 661.047,1052.4 663.086,1048.25 665.126,1044.08 667.166,1039.91 669.205,1035.73 
  671.245,1031.54 673.285,1027.35 675.324,1023.15 677.364,1018.96 679.404,1014.76 681.443,1010.57 683.483,1006.38 685.523,1002.2 687.562,998.027 689.602,993.862 
  691.642,989.708 693.681,985.566 695.721,981.437 697.761,977.323 699.8,973.226 701.84,969.146 703.879,965.085 705.919,961.044 707.959,957.025 709.998,953.028 
  712.038,949.056 714.078,945.108 716.117,941.186 718.157,937.292 720.197,933.426 722.236,929.589 724.276,925.783 726.316,922.008 728.355,918.264 730.395,914.554 
  732.435,910.878 734.474,907.237 736.514,903.631 738.553,900.062 740.593,896.53 742.633,893.035 744.672,889.579 746.712,886.162 748.752,882.784 750.791,879.447 
  752.831,876.151 754.871,872.896 756.91,869.683 758.95,866.513 760.99,863.385 763.029,860.3 765.069,857.259 767.109,854.262 769.148,851.31 771.188,848.402 
  773.228,845.538 775.267,842.72 777.307,839.948 779.346,837.22 781.386,834.539 783.426,831.904 785.465,829.314 787.505,826.771 789.545,824.274 791.584,821.823 
  793.624,819.418 795.664,817.06 797.703,814.748 799.743,812.482 801.783,810.262 803.822,808.089 805.862,805.961 807.902,803.88 809.941,801.844 811.981,799.854 
  814.02,797.909 816.06,796.009 818.1,794.155 820.139,792.345 822.179,790.579 824.219,788.858 826.258,787.181 828.298,785.547 830.338,783.957 832.377,782.41 
  834.417,780.905 836.457,779.442 838.496,778.021 840.536,776.642 842.576,775.304 844.615,774.006 846.655,772.749 848.695,771.531 850.734,770.352 852.774,769.213 
  854.813,768.111 856.853,767.047 858.893,766.021 860.932,765.031 862.972,764.077 865.012,763.159 867.051,762.276 869.091,761.428 871.131,760.613 873.17,759.832 
  875.21,759.084 877.25,758.368 879.289,757.683 881.329,757.03 883.369,756.406 885.408,755.813 887.448,755.248 889.488,754.712 891.527,754.204 893.567,753.723 
  895.606,753.269 897.646,752.84 899.686,752.437 901.725,752.058 903.765,751.703 905.805,751.372 907.844,751.063 909.884,750.776 911.924,750.51 913.963,750.264 
  916.003,750.039 918.043,749.833 920.082,749.645 922.122,749.475 924.162,749.322 926.201,749.186 928.241,749.066 930.28,748.961 932.32,748.87 934.36,748.794 
  936.399,748.73 938.439,748.679 940.479,748.64 942.518,748.612 944.558,748.595 946.598,748.587 948.637,748.589 950.677,748.6 952.717,748.618 954.756,748.644 
  956.796,748.677 958.836,748.715 960.875,748.759 962.915,748.808 964.955,748.862 966.994,748.919 969.034,748.979 971.073,749.042 973.113,749.106 975.153,749.172 
  977.192,749.239 979.232,749.306 981.272,749.373 983.311,749.439 985.351,749.503 987.391,749.566 989.43,749.626 991.47,749.683 993.51,749.737 995.549,749.787 
  997.589,749.833 999.629,749.873 1001.67,749.909 1003.71,749.938 1005.75,749.962 1007.79,749.979 1009.83,749.988 1011.87,749.99 1013.91,749.985 1015.95,749.971 
  1017.99,749.948 1020.03,749.916 1022.06,749.875 1024.1,749.825 1026.14,749.764 1028.18,749.693 1030.22,749.611 1032.26,749.518 1034.3,749.413 1036.34,749.297 
  1038.38,749.17 1040.42,749.03 1042.46,748.878 1044.5,748.713 1046.54,748.535 1048.58,748.344 1050.62,748.14 1052.66,747.923 1054.7,747.692 1056.74,747.447 
  1058.78,747.188 1060.82,746.916 1062.86,746.629 1064.9,746.327 1066.94,746.011 1068.98,745.681 1071.02,745.336 1073.06,744.977 1075.1,744.603 1077.14,744.213 
  1079.17,743.81 1081.21,743.391 1083.25,742.957 1085.29,742.509 1087.33,742.046 1089.37,741.568 1091.41,741.075 1093.45,740.568 1095.49,740.046 1097.53,739.509 
  1099.57,738.958 1101.61,738.392 1103.65,737.812 1105.69,737.218 1107.73,736.61 1109.77,735.988 1111.81,735.352 1113.85,734.703 1115.89,734.04 1117.93,733.364 
  1119.97,732.675 1122.01,731.973 1124.05,731.259 1126.09,730.532 1128.13,729.792 1130.17,729.041 1132.21,728.279 1134.25,727.504 1136.29,726.719 1138.32,725.923 
  1140.36,725.116 1142.4,724.299 1144.44,723.473 1146.48,722.636 1148.52,721.79 1150.56,720.936 1152.6,720.073 1154.64,719.201 1156.68,718.322 1158.72,717.435 
  1160.76,716.541 1162.8,715.64 1164.84,714.733 1166.88,713.821 1168.92,712.902 1170.96,711.979 1173,711.051 1175.04,710.118 1177.08,709.182 1179.12,708.243 
  1181.16,707.301 1183.2,706.356 1185.24,705.409 1187.28,704.461 1189.32,703.512 1191.36,702.562 1193.4,701.613 1195.43,700.664 1197.47,699.715 1199.51,698.768 
  1201.55,697.824 1203.59,696.881 1205.63,695.942 1207.67,695.006 1209.71,694.074 1211.75,693.147 1213.79,692.225 1215.83,691.308 1217.87,690.398 1219.91,689.494 
  1221.95,688.598 1223.99,687.709 1226.03,686.829 1228.07,685.957 1230.11,685.095 1232.15,684.243 1234.19,683.401 1236.23,682.571 1238.27,681.752 1240.31,680.945 
  1242.35,680.151 1244.39,679.37 1246.43,678.603 1248.47,677.85 1250.51,677.112 1252.55,676.39 1254.58,675.683 1256.62,674.993 1258.66,674.321 1260.7,673.665 
  1262.74,673.028 1264.78,672.41 1266.82,671.811 1268.86,671.232 1270.9,670.673 1272.94,670.134 1274.98,669.618 1277.02,669.123 1279.06,668.65 1281.1,668.2 
  1283.14,667.774 1285.18,667.372 1287.22,666.994 1289.26,666.64 1291.3,666.313 1293.34,666.011 1295.38,665.735 1297.42,665.486 1299.46,665.265 1301.5,665.071 
  1303.54,664.906 1305.58,664.769 1307.62,664.661 1309.66,664.582 1311.69,664.534 1313.73,664.516 1315.77,664.528 1317.81,664.572 1319.85,664.648 1321.89,664.755 
  1323.93,664.895 1325.97,665.067 1328.01,665.272 1330.05,665.511 1332.09,665.784 1334.13,666.09 1336.17,666.431 1338.21,666.807 1340.25,667.218 1342.29,667.664 
  1344.33,668.145 1346.37,668.663 1348.41,669.216 1350.45,669.807 1352.49,670.433 1354.53,671.097 1356.57,671.798 1358.61,672.536 1360.65,673.311 1362.69,674.124 
  1364.73,674.976 1366.77,675.865 1368.8,676.792 1370.84,677.758 1372.88,678.762 1374.92,679.805 1376.96,680.886 1379,682.006 1381.04,683.166 1383.08,684.364 
  1385.12,685.601 1387.16,686.877 1389.2,688.192 1391.24,689.546 1393.28,690.939 1395.32,692.372 1397.36,693.843 1399.4,695.354 1401.44,696.903 1403.48,698.491 
  1405.52,700.119 1407.56,701.785 1409.6,703.489 1411.64,705.232 1413.68,707.014 1415.72,708.833 1417.76,710.691 1419.8,712.587 1421.84,714.52 1423.88,716.491 
  1425.92,718.5 1427.95,720.545 1429.99,722.628 1432.03,724.746 1434.07,726.902 1436.11,729.093 1438.15,731.32 1440.19,733.582 1442.23,735.88 1444.27,738.212 
  1446.31,740.579 1448.35,742.98 1450.39,745.415 1452.43,747.883 1454.47,750.383 1456.51,752.917 1458.55,755.482 1460.59,758.079 1462.63,760.707 1464.67,763.365 
  1466.71,766.054 1468.75,768.772 1470.79,771.52 1472.83,774.296 1474.87,777.1 1476.91,779.932 1478.95,782.791 1480.99,785.676 1483.03,788.587 1485.06,791.523 
  1487.1,794.483 1489.14,797.468 1491.18,800.476 1493.22,803.506 1495.26,806.559 1497.3,809.632 1499.34,812.727 1501.38,815.841 1503.42,818.974 1505.46,822.126 
  1507.5,825.296 1509.54,828.482 1511.58,831.685 1513.62,834.903 1515.66,838.136 1517.7,841.383 1519.74,844.643 1521.78,847.916 1523.82,851.199 1525.86,854.494 
  1527.9,857.798 1529.94,861.111 1531.98,864.433 1534.02,867.761 1536.06,871.096 1538.1,874.437 1540.14,877.782 1542.18,881.131 1544.21,884.483 1546.25,887.837 
  1548.29,891.191 1550.33,894.546 1552.37,897.9 1554.41,901.253 1556.45,904.602 1558.49,907.949 1560.53,911.29 1562.57,914.626 1564.61,917.956 1566.65,921.278 
  1568.69,924.591 1570.73,927.896 1572.77,931.19 1574.81,934.472 1576.85,937.743 1578.89,941 1580.93,944.242 1582.97,947.47 1585.01,950.681 1587.05,953.876 
  1589.09,957.052 1591.13,960.208 1593.17,963.345 1595.21,966.461 1597.25,969.554 1599.29,972.624 1601.32,975.67 1603.36,978.691 1605.4,981.686 1607.44,984.654 
  1609.48,987.594 1611.52,990.505 1613.56,993.386 1615.6,996.236 1617.64,999.054 1619.68,1001.84 1621.72,1004.59 1623.76,1007.31 1625.8,1009.99 1627.84,1012.63 
  1629.88,1015.24 1631.92,1017.81 1633.96,1020.34 1636,1022.83 1638.04,1025.27 1640.08,1027.68 1642.12,1030.04 1644.16,1032.36 1646.2,1034.64 1648.24,1036.87 
  1650.28,1039.05 1652.32,1041.18 1654.36,1043.27 1656.4,1045.31 1658.44,1047.3 1660.47,1049.24 1662.51,1051.13 1664.55,1052.96 1666.59,1054.75 1668.63,1056.48 
  1670.67,1058.15 1672.71,1059.77 1674.75,1061.34 1676.79,1062.85 1678.83,1064.3 1680.87,1065.7 1682.91,1067.04 1684.95,1068.32 1686.99,1069.54 1689.03,1070.7 
  1691.07,1071.8 1693.11,1072.84 1695.15,1073.82 1697.19,1074.74 1699.23,1075.59 1701.27,1076.39 1703.31,1077.12 1705.35,1077.78 1707.39,1078.38 1709.43,1078.92 
  1711.47,1079.4 1713.51,1079.81 1715.55,1080.15 1717.58,1080.43 1719.62,1080.65 1721.66,1080.8 1723.7,1080.88 1725.74,1080.9 1727.78,1080.85 1729.82,1080.73 
  1731.86,1080.55 1733.9,1080.3 1735.94,1079.99 1737.98,1079.61 1740.02,1079.17 1742.06,1078.65 1744.1,1078.07 1746.14,1077.43 1748.18,1076.72 1750.22,1075.94 
  1752.26,1075.1 1754.3,1074.2 1756.34,1073.23 1758.38,1072.19 1760.42,1071.09 1762.46,1069.93 1764.5,1068.7 1766.54,1067.41 1768.58,1066.06 1770.62,1064.64 
  1772.66,1063.16 1774.7,1061.63 1776.73,1060.03 1778.77,1058.37 1780.81,1056.65 1782.85,1054.88 1784.89,1053.05 1786.93,1051.16 1788.97,1049.21 1791.01,1047.21 
  1793.05,1045.15 1795.09,1043.04 1797.13,1040.88 1799.17,1038.67 1801.21,1036.41 1803.25,1034.09 1805.29,1031.73 1807.33,1029.32 1809.37,1026.86 1811.41,1024.36 
  1813.45,1021.82 1815.49,1019.23 1817.53,1016.6 1819.57,1013.93 1821.61,1011.22 1823.65,1008.48 1825.69,1005.7 1827.73,1002.88 1829.77,1000.03 1831.81,997.152 
  1833.84,994.242 1835.88,991.303 1837.92,988.337 1839.96,985.347 1842,982.333 1844.04,979.297 1846.08,976.242 1848.12,973.168 1850.16,970.078 1852.2,966.973 
  1854.24,963.856 1856.28,960.728 1858.32,957.591 1860.36,954.447 1862.4,951.299 1864.44,948.148 1866.48,944.996 1868.52,941.845 1870.56,938.698 1872.6,935.556 
  1874.64,932.422 1876.68,929.298 1878.72,926.187 1880.76,923.089 1882.8,920.009 1884.84,916.947 1886.88,913.907 1888.92,910.89 1890.96,907.899 1892.99,904.937 
  1895.03,902.005 1897.07,899.107 1899.11,896.244 1901.15,893.419 1903.19,890.635 1905.23,887.894 1907.27,885.198 1909.31,882.551 1911.35,879.954 1913.39,877.41 
  1915.43,874.921 1917.47,872.491 1919.51,870.122 1921.55,867.816 1923.59,865.576 1925.63,863.405 1927.67,861.304 1929.71,859.278 1931.75,857.327 1933.79,855.456 
  1935.83,853.666 1937.87,851.96 1939.91,850.341 1941.95,848.811 1943.99,847.372 1946.03,846.029 1948.07,844.781 1950.1,843.634 1952.14,842.588 1954.18,841.647 
  1956.22,840.812 1958.26,840.087 1960.3,839.474 1962.34,838.975 1964.38,838.592 1966.42,838.329 1968.46,838.187 1970.5,838.168 1972.54,838.275 1974.58,838.511 
  1976.62,838.876 1978.66,839.375 1980.7,840.007 1982.74,840.777 1984.78,841.685 1986.82,842.733 1988.86,843.924 1990.9,845.26 1992.94,846.742 1994.98,848.371 
  1997.02,850.151 1999.06,852.081 2001.1,854.164 2003.14,856.402 2005.18,858.795 2007.22,861.345 2009.25,864.054 2011.29,866.922 2013.33,869.95 2015.37,873.14 
  2017.41,876.492 2019.45,880.007 2021.49,883.686 2023.53,887.53 2025.57,891.538 2027.61,895.712 2029.65,900.052 2031.69,904.557 2033.73,909.228 2035.77,914.065 
  2037.81,919.068 2039.85,924.235 2041.89,929.568 2043.93,935.064 2045.97,940.724 2048.01,946.546 2050.05,952.529 2052.09,958.673 2054.13,964.975 2056.17,971.435 
  2058.21,978.05 2060.25,984.819 2062.29,991.74 2064.33,998.81 2066.36,1006.03 2068.4,1013.39 2070.44,1020.89 2072.48,1028.53 2074.52,1036.31 2076.56,1044.22 
  2078.6,1052.26 2080.64,1060.42 2082.68,1068.7 2084.72,1077.1 2086.76,1085.61 2088.8,1094.22 2090.84,1102.94 2092.88,1111.75 2094.92,1120.66 2096.96,1129.65 
  2099,1138.72 2101.04,1147.86 2103.08,1157.06 2105.12,1166.33 2107.16,1175.65 2109.2,1185.01 2111.24,1194.41 2113.28,1203.83 2115.32,1213.28 2117.36,1222.74 
  2119.4,1232.19 2121.44,1241.64 2123.48,1251.08 2125.51,1260.48 2127.55,1269.85 2129.59,1279.17 2131.63,1288.42 2133.67,1297.61 2135.71,1306.71 2137.75,1315.71 
  2139.79,1324.61 2141.83,1333.38 2143.87,1342.02 2145.91,1350.5 2147.95,1358.82 2149.99,1366.96 2152.03,1374.9 2154.07,1382.63 2156.11,1390.14 2158.15,1397.4 
  2160.19,1404.39 2162.23,1411.11 2164.27,1417.53 2166.31,1423.63 2168.35,1429.39 2170.39,1434.8 2172.43,1439.83 2174.47,1444.47 2176.51,1448.68 2178.55,1452.45 
  2180.59,1455.76 2182.62,1458.57 2184.66,1460.88 2186.7,1462.65 2188.74,1463.86 2190.78,1464.48 2192.82,1464.49 2194.86,1463.86 2196.9,1462.56 2198.94,1460.56 
  2200.98,1457.83 2203.02,1454.36 2205.06,1450.09 2207.1,1445.01 2209.14,1439.08 2211.18,1432.26 2213.22,1424.54 2215.26,1415.86 2217.3,1406.2 2219.34,1395.51 
  2221.38,1383.78 2223.42,1370.94 2225.46,1356.98 2227.5,1341.85 2229.54,1325.5 2231.58,1307.91 2233.62,1289.02 2235.66,1268.79 2237.7,1247.19 2239.74,1224.16 
  2241.77,1199.67 2243.81,1173.66 2245.85,1146.1 2247.89,1116.92 2249.93,1086.08 2251.97,1053.54 2254.01,1019.24 2256.05,983.122 2258.09,945.145 2260.13,905.249 
  
  "/>
<polygon clip-path="url(#clip9801)" points="
1632.04,572.384 2249.26,572.384 2249.26,209.504 1632.04,209.504 
  " fill="#ffffff" fill-rule="evenodd" fill-opacity="1"/>
<polyline clip-path="url(#clip9801)" style="stroke:#000000; stroke-width:4; stroke-opacity:1; fill:none" points="
  1632.04,572.384 2249.26,572.384 2249.26,209.504 1632.04,209.504 1632.04,572.384 
  "/>
<circle clip-path="url(#clip9801)" style="fill:#000000; stroke:none; fill-opacity:1" cx="1740.04" cy="269.984" r="25"/>
<circle clip-path="url(#clip9801)" style="fill:#009af9; stroke:none; fill-opacity:1" cx="1740.04" cy="269.984" r="21"/>
<g clip-path="url(#clip9801)">
<text style="fill:#000000; fill-opacity:1; font-family:Arial,Helvetica Neue,Helvetica,sans-serif; font-size:48px; text-anchor:start;" transform="rotate(0, 1824.04, 287.484)" x="1824.04" y="287.484">Nodes</text>
</g>
<polyline clip-path="url(#clip9801)" style="stroke:#e26f46; stroke-width:4; stroke-opacity:1; fill:none" points="
  1656.04,330.464 1800.04,330.464 
  "/>
<g clip-path="url(#clip9801)">
<text style="fill:#000000; fill-opacity:1; font-family:Arial,Helvetica Neue,Helvetica,sans-serif; font-size:48px; text-anchor:start;" transform="rotate(0, 1824.04, 347.964)" x="1824.04" y="347.964">BSpline linear</text>
</g>
<polyline clip-path="url(#clip9801)" style="stroke:#3da44d; stroke-width:4; stroke-opacity:1; fill:none" points="
  1656.04,390.944 1800.04,390.944 
  "/>
<g clip-path="url(#clip9801)">
<text style="fill:#000000; fill-opacity:1; font-family:Arial,Helvetica Neue,Helvetica,sans-serif; font-size:48px; text-anchor:start;" transform="rotate(0, 1824.04, 408.444)" x="1824.04" y="408.444">BSpline cubic</text>
</g>
<polyline clip-path="url(#clip9801)" style="stroke:#c271d2; stroke-width:4; stroke-opacity:1; fill:none" points="
  1656.04,451.424 1800.04,451.424 
  "/>
<g clip-path="url(#clip9801)">
<text style="fill:#000000; fill-opacity:1; font-family:Arial,Helvetica Neue,Helvetica,sans-serif; font-size:48px; text-anchor:start;" transform="rotate(0, 1824.04, 468.924)" x="1824.04" y="468.924">BSpline quadratic</text>
</g>
<polyline clip-path="url(#clip9801)" style="stroke:#ac8d18; stroke-width:4; stroke-opacity:1; fill:none" points="
  1656.04,511.904 1800.04,511.904 
  "/>
<g clip-path="url(#clip9801)">
<text style="fill:#000000; fill-opacity:1; font-family:Arial,Helvetica Neue,Helvetica,sans-serif; font-size:48px; text-anchor:start;" transform="rotate(0, 1824.04, 529.404)" x="1824.04" y="529.404">Polynomials</text>
</g>
</svg>
