<?xml version="1.0" encoding="utf-8"?>
<svg xmlns="http://www.w3.org/2000/svg" xmlns:xlink="http://www.w3.org/1999/xlink" width="600" height="400" viewBox="0 0 2400 1600">
<defs>
  <clipPath id="clip8600">
    <rect x="0" y="0" width="2000" height="2000"/>
  </clipPath>
</defs>
<defs>
  <clipPath id="clip8601">
    <rect x="0" y="0" width="2400" height="1600"/>
  </clipPath>
</defs>
<polygon clip-path="url(#clip8601)" points="
0,1600 2400,1600 2400,0 0,0 
  " fill="#ffffff" fill-rule="evenodd" fill-opacity="1"/>
<defs>
  <clipPath id="clip8602">
    <rect x="480" y="0" width="1681" height="1600"/>
  </clipPath>
</defs>
<polygon clip-path="url(#clip8601)" points="
161.394,1503.47 2321.26,1503.47 2321.26,125.984 161.394,125.984 
  " fill="#ffffff" fill-rule="evenodd" fill-opacity="1"/>
<defs>
  <clipPath id="clip8603">
    <rect x="161" y="125" width="2161" height="1378"/>
  </clipPath>
</defs>
<polyline clip-path="url(#clip8603)" style="stroke:#000000; stroke-width:2; stroke-opacity:0.1; fill:none" points="
  222.522,1503.47 222.522,125.984 
  "/>
<polyline clip-path="url(#clip8603)" style="stroke:#000000; stroke-width:2; stroke-opacity:0.1; fill:none" points="
  731.925,1503.47 731.925,125.984 
  "/>
<polyline clip-path="url(#clip8603)" style="stroke:#000000; stroke-width:2; stroke-opacity:0.1; fill:none" points="
  1241.33,1503.47 1241.33,125.984 
  "/>
<polyline clip-path="url(#clip8603)" style="stroke:#000000; stroke-width:2; stroke-opacity:0.1; fill:none" points="
  1750.73,1503.47 1750.73,125.984 
  "/>
<polyline clip-path="url(#clip8603)" style="stroke:#000000; stroke-width:2; stroke-opacity:0.1; fill:none" points="
  2260.13,1503.47 2260.13,125.984 
  "/>
<polyline clip-path="url(#clip8603)" style="stroke:#000000; stroke-width:2; stroke-opacity:0.1; fill:none" points="
  161.394,1334.54 2321.26,1334.54 
  "/>
<polyline clip-path="url(#clip8603)" style="stroke:#000000; stroke-width:2; stroke-opacity:0.1; fill:none" points="
  161.394,1086.51 2321.26,1086.51 
  "/>
<polyline clip-path="url(#clip8603)" style="stroke:#000000; stroke-width:2; stroke-opacity:0.1; fill:none" points="
  161.394,838.482 2321.26,838.482 
  "/>
<polyline clip-path="url(#clip8603)" style="stroke:#000000; stroke-width:2; stroke-opacity:0.1; fill:none" points="
  161.394,590.456 2321.26,590.456 
  "/>
<polyline clip-path="url(#clip8603)" style="stroke:#000000; stroke-width:2; stroke-opacity:0.1; fill:none" points="
  161.394,342.429 2321.26,342.429 
  "/>
<polyline clip-path="url(#clip8601)" style="stroke:#000000; stroke-width:4; stroke-opacity:1; fill:none" points="
  161.394,1503.47 2321.26,1503.47 
  "/>
<polyline clip-path="url(#clip8601)" style="stroke:#000000; stroke-width:4; stroke-opacity:1; fill:none" points="
  161.394,1503.47 161.394,125.984 
  "/>
<polyline clip-path="url(#clip8601)" style="stroke:#000000; stroke-width:4; stroke-opacity:1; fill:none" points="
  222.522,1503.47 222.522,1482.81 
  "/>
<polyline clip-path="url(#clip8601)" style="stroke:#000000; stroke-width:4; stroke-opacity:1; fill:none" points="
  731.925,1503.47 731.925,1482.81 
  "/>
<polyline clip-path="url(#clip8601)" style="stroke:#000000; stroke-width:4; stroke-opacity:1; fill:none" points="
  1241.33,1503.47 1241.33,1482.81 
  "/>
<polyline clip-path="url(#clip8601)" style="stroke:#000000; stroke-width:4; stroke-opacity:1; fill:none" points="
  1750.73,1503.47 1750.73,1482.81 
  "/>
<polyline clip-path="url(#clip8601)" style="stroke:#000000; stroke-width:4; stroke-opacity:1; fill:none" points="
  2260.13,1503.47 2260.13,1482.81 
  "/>
<polyline clip-path="url(#clip8601)" style="stroke:#000000; stroke-width:4; stroke-opacity:1; fill:none" points="
  161.394,1334.54 193.792,1334.54 
  "/>
<polyline clip-path="url(#clip8601)" style="stroke:#000000; stroke-width:4; stroke-opacity:1; fill:none" points="
  161.394,1086.51 193.792,1086.51 
  "/>
<polyline clip-path="url(#clip8601)" style="stroke:#000000; stroke-width:4; stroke-opacity:1; fill:none" points="
  161.394,838.482 193.792,838.482 
  "/>
<polyline clip-path="url(#clip8601)" style="stroke:#000000; stroke-width:4; stroke-opacity:1; fill:none" points="
  161.394,590.456 193.792,590.456 
  "/>
<polyline clip-path="url(#clip8601)" style="stroke:#000000; stroke-width:4; stroke-opacity:1; fill:none" points="
  161.394,342.429 193.792,342.429 
  "/>
<g clip-path="url(#clip8601)">
<text style="fill:#000000; fill-opacity:1; font-family:Arial,Helvetica Neue,Helvetica,sans-serif; font-size:48px; text-anchor:middle;" transform="rotate(0, 222.522, 1557.47)" x="222.522" y="1557.47">-1.0</text>
</g>
<g clip-path="url(#clip8601)">
<text style="fill:#000000; fill-opacity:1; font-family:Arial,Helvetica Neue,Helvetica,sans-serif; font-size:48px; text-anchor:middle;" transform="rotate(0, 731.925, 1557.47)" x="731.925" y="1557.47">-0.5</text>
</g>
<g clip-path="url(#clip8601)">
<text style="fill:#000000; fill-opacity:1; font-family:Arial,Helvetica Neue,Helvetica,sans-serif; font-size:48px; text-anchor:middle;" transform="rotate(0, 1241.33, 1557.47)" x="1241.33" y="1557.47">0.0</text>
</g>
<g clip-path="url(#clip8601)">
<text style="fill:#000000; fill-opacity:1; font-family:Arial,Helvetica Neue,Helvetica,sans-serif; font-size:48px; text-anchor:middle;" transform="rotate(0, 1750.73, 1557.47)" x="1750.73" y="1557.47">0.5</text>
</g>
<g clip-path="url(#clip8601)">
<text style="fill:#000000; fill-opacity:1; font-family:Arial,Helvetica Neue,Helvetica,sans-serif; font-size:48px; text-anchor:middle;" transform="rotate(0, 2260.13, 1557.47)" x="2260.13" y="1557.47">1.0</text>
</g>
<g clip-path="url(#clip8601)">
<text style="fill:#000000; fill-opacity:1; font-family:Arial,Helvetica Neue,Helvetica,sans-serif; font-size:48px; text-anchor:end;" transform="rotate(0, 137.394, 1352.04)" x="137.394" y="1352.04">0.4</text>
</g>
<g clip-path="url(#clip8601)">
<text style="fill:#000000; fill-opacity:1; font-family:Arial,Helvetica Neue,Helvetica,sans-serif; font-size:48px; text-anchor:end;" transform="rotate(0, 137.394, 1104.01)" x="137.394" y="1104.01">0.5</text>
</g>
<g clip-path="url(#clip8601)">
<text style="fill:#000000; fill-opacity:1; font-family:Arial,Helvetica Neue,Helvetica,sans-serif; font-size:48px; text-anchor:end;" transform="rotate(0, 137.394, 855.982)" x="137.394" y="855.982">0.6</text>
</g>
<g clip-path="url(#clip8601)">
<text style="fill:#000000; fill-opacity:1; font-family:Arial,Helvetica Neue,Helvetica,sans-serif; font-size:48px; text-anchor:end;" transform="rotate(0, 137.394, 607.956)" x="137.394" y="607.956">0.7</text>
</g>
<g clip-path="url(#clip8601)">
<text style="fill:#000000; fill-opacity:1; font-family:Arial,Helvetica Neue,Helvetica,sans-serif; font-size:48px; text-anchor:end;" transform="rotate(0, 137.394, 359.929)" x="137.394" y="359.929">0.8</text>
</g>
<g clip-path="url(#clip8601)">
<text style="fill:#000000; fill-opacity:1; font-family:Arial,Helvetica Neue,Helvetica,sans-serif; font-size:84px; text-anchor:middle;" transform="rotate(0, 1241.33, 73.2)" x="1241.33" y="73.2">BSpline quadratic interpolation</text>
</g>
<circle clip-path="url(#clip8603)" style="fill:#000000; stroke:none; fill-opacity:1" cx="222.522" cy="1402.21" r="18"/>
<circle clip-path="url(#clip8603)" style="fill:#009af9; stroke:none; fill-opacity:1" cx="222.522" cy="1402.21" r="14"/>
<circle clip-path="url(#clip8603)" style="fill:#000000; stroke:none; fill-opacity:1" cx="448.923" cy="1240.48" r="18"/>
<circle clip-path="url(#clip8603)" style="fill:#009af9; stroke:none; fill-opacity:1" cx="448.923" cy="1240.48" r="14"/>
<circle clip-path="url(#clip8603)" style="fill:#000000; stroke:none; fill-opacity:1" cx="675.324" cy="1415.11" r="18"/>
<circle clip-path="url(#clip8603)" style="fill:#009af9; stroke:none; fill-opacity:1" cx="675.324" cy="1415.11" r="14"/>
<circle clip-path="url(#clip8603)" style="fill:#000000; stroke:none; fill-opacity:1" cx="901.725" cy="484.149" r="18"/>
<circle clip-path="url(#clip8603)" style="fill:#009af9; stroke:none; fill-opacity:1" cx="901.725" cy="484.149" r="14"/>
<circle clip-path="url(#clip8603)" style="fill:#000000; stroke:none; fill-opacity:1" cx="1128.13" cy="407.686" r="18"/>
<circle clip-path="url(#clip8603)" style="fill:#009af9; stroke:none; fill-opacity:1" cx="1128.13" cy="407.686" r="14"/>
<circle clip-path="url(#clip8603)" style="fill:#000000; stroke:none; fill-opacity:1" cx="1354.53" cy="206.12" r="18"/>
<circle clip-path="url(#clip8603)" style="fill:#009af9; stroke:none; fill-opacity:1" cx="1354.53" cy="206.12" r="14"/>
<circle clip-path="url(#clip8603)" style="fill:#000000; stroke:none; fill-opacity:1" cx="1580.93" cy="1144.13" r="18"/>
<circle clip-path="url(#clip8603)" style="fill:#009af9; stroke:none; fill-opacity:1" cx="1580.93" cy="1144.13" r="14"/>
<circle clip-path="url(#clip8603)" style="fill:#000000; stroke:none; fill-opacity:1" cx="1807.33" cy="1436.29" r="18"/>
<circle clip-path="url(#clip8603)" style="fill:#009af9; stroke:none; fill-opacity:1" cx="1807.33" cy="1436.29" r="14"/>
<circle clip-path="url(#clip8603)" style="fill:#000000; stroke:none; fill-opacity:1" cx="2033.73" cy="1023.88" r="18"/>
<circle clip-path="url(#clip8603)" style="fill:#009af9; stroke:none; fill-opacity:1" cx="2033.73" cy="1023.88" r="14"/>
<circle clip-path="url(#clip8603)" style="fill:#000000; stroke:none; fill-opacity:1" cx="2260.13" cy="1010.22" r="18"/>
<circle clip-path="url(#clip8603)" style="fill:#009af9; stroke:none; fill-opacity:1" cx="2260.13" cy="1010.22" r="14"/>
<polyline clip-path="url(#clip8603)" style="stroke:#e26f46; stroke-width:4; stroke-opacity:1; fill:none" points="
  222.522,1402.21 224.562,1399.9 226.602,1397.59 228.641,1395.27 230.681,1392.96 232.721,1390.65 234.76,1388.34 236.8,1386.03 238.84,1383.72 240.879,1381.4 
  242.919,1379.09 244.958,1376.78 246.998,1374.47 249.038,1372.16 251.077,1369.85 253.117,1367.53 255.157,1365.22 257.196,1362.91 259.236,1360.6 261.276,1358.29 
  263.315,1355.98 265.355,1353.66 267.395,1351.35 269.434,1349.04 271.474,1346.73 273.514,1344.42 275.553,1342.11 277.593,1339.79 279.632,1337.48 281.672,1335.17 
  283.712,1332.86 285.751,1330.55 287.791,1328.24 289.831,1325.92 291.87,1323.61 293.91,1321.3 295.95,1318.99 297.989,1316.68 300.029,1314.37 302.069,1312.05 
  304.108,1309.74 306.148,1307.43 308.188,1305.12 310.227,1302.81 312.267,1300.5 314.307,1298.19 316.346,1295.87 318.386,1293.56 320.425,1291.25 322.465,1288.94 
  324.505,1286.63 326.544,1284.32 328.584,1282 330.624,1279.69 332.663,1277.38 334.703,1275.07 336.743,1272.76 338.782,1270.51 340.822,1268.33 342.862,1266.2 
  344.901,1264.13 346.941,1262.13 348.981,1260.19 351.02,1258.31 353.06,1256.49 355.099,1254.73 357.139,1253.04 359.179,1251.4 361.218,1249.83 363.258,1248.32 
  365.298,1246.87 367.337,1245.48 369.377,1244.16 371.417,1242.89 373.456,1241.69 375.496,1240.55 377.536,1239.47 379.575,1238.45 381.615,1237.49 383.655,1236.6 
  385.694,1235.76 387.734,1234.99 389.774,1234.28 391.813,1233.63 393.853,1233.05 395.892,1232.52 397.932,1232.06 399.972,1231.65 402.011,1231.31 404.051,1231.03 
  406.091,1230.82 408.13,1230.66 410.17,1230.57 412.21,1230.53 414.249,1230.56 416.289,1230.65 418.329,1230.81 420.368,1231.02 422.408,1231.3 424.448,1231.63 
  426.487,1232.03 428.527,1232.49 430.567,1233.01 432.606,1233.6 434.646,1234.24 436.685,1234.95 438.725,1235.72 440.765,1236.54 442.804,1237.44 444.844,1238.39 
  446.884,1239.4 448.923,1240.48 450.963,1241.62 453.003,1242.82 455.042,1244.08 457.082,1245.4 459.122,1246.78 461.161,1248.23 463.201,1249.74 465.241,1251.3 
  467.28,1252.94 469.32,1254.63 471.359,1256.38 473.399,1258.2 475.439,1260.07 477.478,1262.01 479.518,1264.01 481.558,1266.07 483.597,1268.2 485.637,1270.38 
  487.677,1272.63 489.716,1274.93 491.756,1277.3 493.796,1279.73 495.835,1282.23 497.875,1284.78 499.915,1287.4 501.954,1290.08 503.994,1292.81 506.034,1295.61 
  508.073,1298.48 510.113,1301.4 512.152,1304.39 514.192,1307.43 516.232,1310.54 518.271,1313.71 520.311,1316.94 522.351,1320.24 524.39,1323.59 526.43,1327.01 
  528.47,1330.49 530.509,1334.03 532.549,1337.63 534.589,1341.29 536.628,1345.02 538.668,1348.8 540.708,1352.65 542.747,1356.56 544.787,1360.53 546.826,1364.56 
  548.866,1368.66 550.906,1372.81 552.945,1377.03 554.985,1381.31 557.025,1385.65 559.064,1390.05 561.104,1394.51 563.144,1399.01 565.183,1403.39 567.223,1407.61 
  569.263,1411.68 571.302,1415.6 573.342,1419.37 575.382,1422.99 577.421,1426.46 579.461,1429.77 581.501,1432.94 583.54,1435.95 585.58,1438.81 587.619,1441.53 
  589.659,1444.09 591.699,1446.49 593.738,1448.75 595.778,1450.86 597.818,1452.81 599.857,1454.62 601.897,1456.27 603.937,1457.77 605.976,1459.12 608.016,1460.32 
  610.056,1461.37 612.095,1462.27 614.135,1463.02 616.175,1463.61 618.214,1464.06 620.254,1464.35 622.294,1464.49 624.333,1464.48 626.373,1464.32 628.412,1464.01 
  630.452,1463.54 632.492,1462.93 634.531,1462.16 636.571,1461.25 638.611,1460.18 640.65,1458.96 642.69,1457.59 644.73,1456.07 646.769,1454.4 648.809,1452.57 
  650.849,1450.6 652.888,1448.47 654.928,1446.19 656.968,1443.77 659.007,1441.19 661.047,1438.46 663.086,1435.57 665.126,1432.54 667.166,1429.36 669.205,1426.02 
  671.245,1422.53 673.285,1418.9 675.324,1415.11 677.364,1411.17 679.404,1407.08 681.443,1402.83 683.483,1398.44 685.523,1393.9 687.562,1389.2 689.602,1384.35 
  691.642,1379.36 693.681,1374.21 695.721,1368.91 697.761,1363.45 699.8,1357.85 701.84,1352.1 703.879,1346.19 705.919,1340.14 707.959,1333.93 709.998,1327.57 
  712.038,1321.06 714.078,1314.4 716.117,1307.59 718.157,1300.62 720.197,1293.51 722.236,1286.24 724.276,1278.83 726.316,1271.26 728.355,1263.54 730.395,1255.67 
  732.435,1247.65 734.474,1239.47 736.514,1231.15 738.553,1222.68 740.593,1214.05 742.633,1205.27 744.672,1196.34 746.712,1187.26 748.752,1178.03 750.791,1168.65 
  752.831,1159.12 754.871,1149.43 756.91,1139.6 758.95,1129.61 760.99,1119.47 763.029,1109.18 765.069,1098.74 767.109,1088.15 769.148,1077.41 771.188,1066.52 
  773.228,1055.47 775.267,1044.28 777.307,1032.93 779.346,1021.43 781.386,1009.78 783.426,997.98 785.465,986.029 787.505,973.926 789.545,961.706 791.584,949.58 
  793.624,937.581 795.664,925.709 797.703,913.965 799.743,902.349 801.783,890.86 803.822,879.499 805.862,868.265 807.902,857.159 809.941,846.18 811.981,835.329 
  814.02,824.605 816.06,814.009 818.1,803.541 820.139,793.2 822.179,782.986 824.219,772.9 826.258,762.942 828.298,753.111 830.338,743.408 832.377,733.832 
  834.417,724.384 836.457,715.064 838.496,705.871 840.536,696.805 842.576,687.867 844.615,679.057 846.655,670.374 848.695,661.819 850.734,653.391 852.774,645.091 
  854.813,636.918 856.853,628.873 858.893,620.955 860.932,613.165 862.972,605.503 865.012,597.968 867.051,590.56 869.091,583.28 871.131,576.128 873.17,569.103 
  875.21,562.206 877.25,555.436 879.289,548.794 881.329,542.28 883.369,535.893 885.408,529.633 887.448,523.501 889.488,517.497 891.527,511.62 893.567,505.871 
  895.606,500.249 897.646,494.755 899.686,489.388 901.725,484.149 903.765,479.037 905.805,474.053 907.844,469.197 909.884,464.468 911.924,459.866 913.963,455.393 
  916.003,451.046 918.043,446.827 920.082,442.736 922.122,438.773 924.162,434.936 926.201,431.228 928.241,427.647 930.28,424.193 932.32,420.867 934.36,417.669 
  936.399,414.598 938.439,411.655 940.479,408.839 942.518,406.151 944.558,403.59 946.598,401.157 948.637,398.852 950.677,396.673 952.717,394.623 954.756,392.7 
  956.796,390.905 958.836,389.237 960.875,387.696 962.915,386.284 964.955,384.999 966.994,383.841 969.034,382.811 971.073,381.908 973.113,381.133 975.153,380.486 
  977.192,379.966 979.232,379.573 981.272,379.308 983.311,379.171 985.351,379.161 987.391,379.279 989.43,379.525 991.47,379.897 993.51,380.398 995.549,381.026 
  997.589,381.781 999.629,382.664 1001.67,383.675 1003.71,384.813 1005.75,386.079 1007.79,387.472 1009.83,388.993 1011.87,390.641 1013.91,392.417 1015.95,394.297 
  1017.99,396.141 1020.03,397.926 1022.06,399.652 1024.1,401.318 1026.14,402.925 1028.18,404.473 1030.22,405.961 1032.26,407.39 1034.3,408.76 1036.34,410.071 
  1038.38,411.322 1040.42,412.514 1042.46,413.647 1044.5,414.72 1046.54,415.734 1048.58,416.689 1050.62,417.585 1052.66,418.421 1054.7,419.198 1056.74,419.916 
  1058.78,420.574 1060.82,421.173 1062.86,421.713 1064.9,422.194 1066.94,422.615 1068.98,422.977 1071.02,423.28 1073.06,423.523 1075.1,423.707 1077.14,423.832 
  1079.17,423.898 1081.21,423.904 1083.25,423.851 1085.29,423.739 1087.33,423.567 1089.37,423.336 1091.41,423.046 1093.45,422.697 1095.49,422.288 1097.53,421.82 
  1099.57,421.293 1101.61,420.706 1103.65,420.06 1105.69,419.355 1107.73,418.591 1109.77,417.767 1111.81,416.884 1113.85,415.942 1115.89,414.94 1117.93,413.879 
  1119.97,412.759 1122.01,411.58 1124.05,410.341 1126.09,409.043 1128.13,407.686 1130.17,406.269 1132.21,404.793 1134.25,403.258 1136.29,401.664 1138.32,400.01 
  1140.36,398.297 1142.4,396.525 1144.44,394.693 1146.48,392.802 1148.52,390.852 1150.56,388.843 1152.6,386.774 1154.64,384.646 1156.68,382.459 1158.72,380.212 
  1160.76,377.906 1162.8,375.541 1164.84,373.117 1166.88,370.633 1168.92,368.09 1170.96,365.488 1173,362.826 1175.04,360.105 1177.08,357.325 1179.12,354.486 
  1181.16,351.587 1183.2,348.629 1185.24,345.612 1187.28,342.535 1189.32,339.399 1191.36,336.204 1193.4,332.95 1195.43,329.636 1197.47,326.263 1199.51,322.831 
  1201.55,319.339 1203.59,315.788 1205.63,312.178 1207.67,308.509 1209.71,304.78 1211.75,300.992 1213.79,297.145 1215.83,293.238 1217.87,289.272 1219.91,285.247 
  1221.95,281.163 1223.99,277.019 1226.03,272.816 1228.07,268.554 1230.11,264.232 1232.15,259.851 1234.19,255.411 1236.23,250.912 1238.27,246.353 1240.31,241.735 
  1242.35,237.083 1244.39,232.553 1246.43,228.17 1248.47,223.933 1250.51,219.844 1252.55,215.901 1254.58,212.105 1256.62,208.457 1258.66,204.955 1260.7,201.6 
  1262.74,198.392 1264.78,195.331 1266.82,192.417 1268.86,189.65 1270.9,187.03 1272.94,184.557 1274.98,182.231 1277.02,180.051 1279.06,178.019 1281.1,176.134 
  1283.14,174.395 1285.18,172.804 1287.22,171.359 1289.26,170.061 1291.3,168.911 1293.34,167.907 1295.38,167.05 1297.42,166.34 1299.46,165.777 1301.5,165.361 
  1303.54,165.092 1305.58,164.97 1307.62,164.995 1309.66,165.166 1311.69,165.485 1313.73,165.951 1315.77,166.563 1317.81,167.323 1319.85,168.229 1321.89,169.282 
  1323.93,170.483 1325.97,171.83 1328.01,173.324 1330.05,174.965 1332.09,176.753 1334.13,178.688 1336.17,180.77 1338.21,182.999 1340.25,185.375 1342.29,187.898 
  1344.33,190.568 1346.37,193.384 1348.41,196.348 1350.45,199.458 1352.49,202.716 1354.53,206.12 1356.57,209.672 1358.61,213.37 1360.65,217.215 1362.69,221.207 
  1364.73,225.346 1366.77,229.632 1368.8,234.065 1370.84,238.645 1372.88,243.372 1374.92,248.246 1376.96,253.267 1379,258.435 1381.04,263.749 1383.08,269.211 
  1385.12,274.819 1387.16,280.575 1389.2,286.477 1391.24,292.526 1393.28,298.723 1395.32,305.066 1397.36,311.556 1399.4,318.193 1401.44,324.977 1403.48,331.908 
  1405.52,338.986 1407.56,346.211 1409.6,353.583 1411.64,361.101 1413.68,368.767 1415.72,376.58 1417.76,384.539 1419.8,392.646 1421.84,400.899 1423.88,409.299 
  1425.92,417.847 1427.95,426.541 1429.99,435.382 1432.03,444.37 1434.07,453.505 1436.11,462.787 1438.15,472.216 1440.19,481.792 1442.23,491.515 1444.27,501.385 
  1446.31,511.402 1448.35,521.565 1450.39,531.876 1452.43,542.333 1454.47,552.938 1456.51,563.689 1458.55,574.588 1460.59,585.633 1462.63,596.825 1464.67,608.164 
  1466.71,619.65 1468.75,631.255 1470.79,642.805 1472.83,654.274 1474.87,665.659 1476.91,676.963 1478.95,688.183 1480.99,699.322 1483.03,710.378 1485.06,721.352 
  1487.1,732.243 1489.14,743.051 1491.18,753.778 1493.22,764.422 1495.26,774.983 1497.3,785.462 1499.34,795.859 1501.38,806.173 1503.42,816.404 1505.46,826.554 
  1507.5,836.62 1509.54,846.605 1511.58,856.507 1513.62,866.326 1515.66,876.063 1517.7,885.718 1519.74,895.29 1521.78,904.78 1523.82,914.187 1525.86,923.512 
  1527.9,932.755 1529.94,941.915 1531.98,950.993 1534.02,959.988 1536.06,968.901 1538.1,977.731 1540.14,986.479 1542.18,995.144 1544.21,1003.73 1546.25,1012.23 
  1548.29,1020.65 1550.33,1028.98 1552.37,1037.24 1554.41,1045.41 1556.45,1053.49 1558.49,1061.5 1560.53,1069.42 1562.57,1077.27 1564.61,1085.02 1566.65,1092.7 
  1568.69,1100.29 1570.73,1107.81 1572.77,1115.23 1574.81,1122.58 1576.85,1129.85 1578.89,1137.03 1580.93,1144.13 1582.97,1151.14 1585.01,1158.08 1587.05,1164.93 
  1589.09,1171.7 1591.13,1178.39 1593.17,1184.99 1595.21,1191.51 1597.25,1197.95 1599.29,1204.31 1601.32,1210.59 1603.36,1216.78 1605.4,1222.89 1607.44,1228.92 
  1609.48,1234.86 1611.52,1240.72 1613.56,1246.5 1615.6,1252.2 1617.64,1257.82 1619.68,1263.35 1621.72,1268.8 1623.76,1274.17 1625.8,1279.45 1627.84,1284.66 
  1629.88,1289.78 1631.92,1294.82 1633.96,1299.77 1636,1304.65 1638.04,1309.44 1640.08,1314.15 1642.12,1318.77 1644.16,1323.32 1646.2,1327.78 1648.24,1332.16 
  1650.28,1336.45 1652.32,1340.67 1654.36,1344.8 1656.4,1348.85 1658.44,1352.82 1660.47,1356.7 1662.51,1360.5 1664.55,1364.22 1666.59,1367.86 1668.63,1371.41 
  1670.67,1374.89 1672.71,1378.28 1674.75,1381.58 1676.79,1384.81 1678.83,1387.95 1680.87,1391.01 1682.91,1393.99 1684.95,1396.88 1686.99,1399.7 1689.03,1402.43 
  1691.07,1405.07 1693.11,1407.64 1695.15,1410.12 1697.19,1412.54 1699.23,1414.88 1701.27,1417.14 1703.31,1419.34 1705.35,1421.46 1707.39,1423.52 1709.43,1425.5 
  1711.47,1427.41 1713.51,1429.25 1715.55,1431.01 1717.58,1432.71 1719.62,1434.33 1721.66,1435.88 1723.7,1437.36 1725.74,1438.77 1727.78,1440.1 1729.82,1441.37 
  1731.86,1442.56 1733.9,1443.68 1735.94,1444.73 1737.98,1445.71 1740.02,1446.61 1742.06,1447.45 1744.1,1448.21 1746.14,1448.9 1748.18,1449.52 1750.22,1450.07 
  1752.26,1450.54 1754.3,1450.95 1756.34,1451.28 1758.38,1451.54 1760.42,1451.73 1762.46,1451.85 1764.5,1451.89 1766.54,1451.87 1768.58,1451.77 1770.62,1451.6 
  1772.66,1451.36 1774.7,1451.04 1776.73,1450.66 1778.77,1450.2 1780.81,1449.68 1782.85,1449.08 1784.89,1448.4 1786.93,1447.66 1788.97,1446.85 1791.01,1445.96 
  1793.05,1445 1795.09,1443.97 1797.13,1442.87 1799.17,1441.7 1801.21,1440.45 1803.25,1439.14 1805.29,1437.75 1807.33,1436.29 1809.37,1434.76 1811.41,1433.15 
  1813.45,1431.48 1815.49,1429.73 1817.53,1427.91 1819.57,1426.02 1821.61,1424.06 1823.65,1422.03 1825.69,1419.92 1827.73,1417.75 1829.77,1415.5 1831.81,1413.18 
  1833.84,1410.79 1835.88,1408.32 1837.92,1405.79 1839.96,1403.18 1842,1400.5 1844.04,1397.75 1846.08,1394.93 1848.12,1392.04 1850.16,1389.07 1852.2,1386.03 
  1854.24,1382.92 1856.28,1379.74 1858.32,1376.49 1860.36,1373.17 1862.4,1369.77 1864.44,1366.31 1866.48,1362.77 1868.52,1359.16 1870.56,1355.47 1872.6,1351.72 
  1874.64,1347.89 1876.68,1344 1878.72,1340.03 1880.76,1335.99 1882.8,1331.87 1884.84,1327.69 1886.88,1323.43 1888.92,1319.11 1890.96,1314.71 1892.99,1310.24 
  1895.03,1305.69 1897.07,1301.08 1899.11,1296.39 1901.15,1291.64 1903.19,1286.81 1905.23,1281.91 1907.27,1276.93 1909.31,1271.89 1911.35,1266.77 1913.39,1261.59 
  1915.43,1256.33 1917.47,1250.99 1919.51,1245.59 1921.55,1240.13 1923.59,1234.71 1925.63,1229.35 1927.67,1224.04 1929.71,1218.79 1931.75,1213.59 1933.79,1208.44 
  1935.83,1203.35 1937.87,1198.32 1939.91,1193.34 1941.95,1188.42 1943.99,1183.55 1946.03,1178.74 1948.07,1173.98 1950.1,1169.27 1952.14,1164.63 1954.18,1160.03 
  1956.22,1155.5 1958.26,1151.01 1960.3,1146.59 1962.34,1142.21 1964.38,1137.9 1966.42,1133.63 1968.46,1129.43 1970.5,1125.27 1972.54,1121.18 1974.58,1117.13 
  1976.62,1113.15 1978.66,1109.22 1980.7,1105.34 1982.74,1101.52 1984.78,1097.75 1986.82,1094.04 1988.86,1090.38 1990.9,1086.78 1992.94,1083.24 1994.98,1079.75 
  1997.02,1076.31 1999.06,1072.93 2001.1,1069.6 2003.14,1066.33 2005.18,1063.12 2007.22,1059.96 2009.25,1056.85 2011.29,1053.8 2013.33,1050.81 2015.37,1047.87 
  2017.41,1044.98 2019.45,1042.15 2021.49,1039.38 2023.53,1036.66 2025.57,1033.99 2027.61,1031.38 2029.65,1028.83 2031.69,1026.33 2033.73,1023.88 2035.77,1021.5 
  2037.81,1019.16 2039.85,1016.88 2041.89,1014.66 2043.93,1012.49 2045.97,1010.38 2048.01,1008.32 2050.05,1006.32 2052.09,1004.37 2054.13,1002.47 2056.17,1000.64 
  2058.21,998.853 2060.25,997.125 2062.29,995.452 2064.33,993.835 2066.36,992.272 2068.4,990.765 2070.44,989.312 2072.48,987.915 2074.52,986.573 2076.56,985.286 
  2078.6,984.054 2080.64,982.877 2082.68,981.755 2084.72,980.688 2086.76,979.677 2088.8,978.72 2090.84,977.819 2092.88,976.973 2094.92,976.182 2096.96,975.446 
  2099,974.765 2101.04,974.139 2103.08,973.568 2105.12,973.052 2107.16,972.592 2109.2,972.186 2111.24,971.836 2113.28,971.54 2115.32,971.3 2117.36,971.115 
  2119.4,970.985 2121.44,970.91 2123.48,970.89 2125.51,970.926 2127.55,971.016 2129.59,971.162 2131.63,971.362 2133.67,971.618 2135.71,971.929 2137.75,972.295 
  2139.79,972.715 2141.83,973.192 2143.87,973.723 2145.91,974.309 2147.95,974.944 2149.99,975.585 2152.03,976.226 2154.07,976.868 2156.11,977.509 2158.15,978.15 
  2160.19,978.792 2162.23,979.433 2164.27,980.075 2166.31,980.716 2168.35,981.357 2170.39,981.999 2172.43,982.64 2174.47,983.281 2176.51,983.923 2178.55,984.564 
  2180.59,985.206 2182.62,985.847 2184.66,986.488 2186.7,987.13 2188.74,987.771 2190.78,988.412 2192.82,989.054 2194.86,989.695 2196.9,990.337 2198.94,990.978 
  2200.98,991.619 2203.02,992.261 2205.06,992.902 2207.1,993.543 2209.14,994.185 2211.18,994.826 2213.22,995.468 2215.26,996.109 2217.3,996.75 2219.34,997.392 
  2221.38,998.033 2223.42,998.674 2225.46,999.316 2227.5,999.957 2229.54,1000.6 2231.58,1001.24 2233.62,1001.88 2235.66,1002.52 2237.7,1003.16 2239.74,1003.81 
  2241.77,1004.45 2243.81,1005.09 2245.85,1005.73 2247.89,1006.37 2249.93,1007.01 2251.97,1007.65 2254.01,1008.3 2256.05,1008.94 2258.09,1009.58 2260.13,1010.22 
  
  "/>
<polygon clip-path="url(#clip8601)" points="
1632.04,390.944 2249.26,390.944 2249.26,209.504 1632.04,209.504 
  " fill="#ffffff" fill-rule="evenodd" fill-opacity="1"/>
<polyline clip-path="url(#clip8601)" style="stroke:#000000; stroke-width:4; stroke-opacity:1; fill:none" points="
  1632.04,390.944 2249.26,390.944 2249.26,209.504 1632.04,209.504 1632.04,390.944 
  "/>
<circle clip-path="url(#clip8601)" style="fill:#000000; stroke:none; fill-opacity:1" cx="1740.04" cy="269.984" r="25"/>
<circle clip-path="url(#clip8601)" style="fill:#009af9; stroke:none; fill-opacity:1" cx="1740.04" cy="269.984" r="21"/>
<g clip-path="url(#clip8601)">
<text style="fill:#000000; fill-opacity:1; font-family:Arial,Helvetica Neue,Helvetica,sans-serif; font-size:48px; text-anchor:start;" transform="rotate(0, 1824.04, 287.484)" x="1824.04" y="287.484">Nodes</text>
</g>
<polyline clip-path="url(#clip8601)" style="stroke:#e26f46; stroke-width:4; stroke-opacity:1; fill:none" points="
  1656.04,330.464 1800.04,330.464 
  "/>
<g clip-path="url(#clip8601)">
<text style="fill:#000000; fill-opacity:1; font-family:Arial,Helvetica Neue,Helvetica,sans-serif; font-size:48px; text-anchor:start;" transform="rotate(0, 1824.04, 347.964)" x="1824.04" y="347.964">BSpline quadratic</text>
</g>
</svg>
