<?xml version="1.0" encoding="utf-8"?>
<svg xmlns="http://www.w3.org/2000/svg" xmlns:xlink="http://www.w3.org/1999/xlink" width="600" height="400" viewBox="0 0 2400 1600">
<defs>
  <clipPath id="clip9000">
    <rect x="0" y="0" width="2000" height="2000"/>
  </clipPath>
</defs>
<defs>
  <clipPath id="clip9001">
    <rect x="0" y="0" width="2400" height="1600"/>
  </clipPath>
</defs>
<polygon clip-path="url(#clip9001)" points="
0,1600 2400,1600 2400,0 0,0 
  " fill="#ffffff" fill-rule="evenodd" fill-opacity="1"/>
<defs>
  <clipPath id="clip9002">
    <rect x="480" y="0" width="1681" height="1600"/>
  </clipPath>
</defs>
<polygon clip-path="url(#clip9001)" points="
161.394,1503.47 2321.26,1503.47 2321.26,125.984 161.394,125.984 
  " fill="#ffffff" fill-rule="evenodd" fill-opacity="1"/>
<defs>
  <clipPath id="clip9003">
    <rect x="161" y="125" width="2161" height="1378"/>
  </clipPath>
</defs>
<polyline clip-path="url(#clip9003)" style="stroke:#000000; stroke-width:2; stroke-opacity:0.1; fill:none" points="
  222.522,1503.47 222.522,125.984 
  "/>
<polyline clip-path="url(#clip9003)" style="stroke:#000000; stroke-width:2; stroke-opacity:0.1; fill:none" points="
  731.925,1503.47 731.925,125.984 
  "/>
<polyline clip-path="url(#clip9003)" style="stroke:#000000; stroke-width:2; stroke-opacity:0.1; fill:none" points="
  1241.33,1503.47 1241.33,125.984 
  "/>
<polyline clip-path="url(#clip9003)" style="stroke:#000000; stroke-width:2; stroke-opacity:0.1; fill:none" points="
  1750.73,1503.47 1750.73,125.984 
  "/>
<polyline clip-path="url(#clip9003)" style="stroke:#000000; stroke-width:2; stroke-opacity:0.1; fill:none" points="
  2260.13,1503.47 2260.13,125.984 
  "/>
<polyline clip-path="url(#clip9003)" style="stroke:#000000; stroke-width:2; stroke-opacity:0.1; fill:none" points="
  161.394,1333 2321.26,1333 
  "/>
<polyline clip-path="url(#clip9003)" style="stroke:#000000; stroke-width:2; stroke-opacity:0.1; fill:none" points="
  161.394,1085.3 2321.26,1085.3 
  "/>
<polyline clip-path="url(#clip9003)" style="stroke:#000000; stroke-width:2; stroke-opacity:0.1; fill:none" points="
  161.394,837.601 2321.26,837.601 
  "/>
<polyline clip-path="url(#clip9003)" style="stroke:#000000; stroke-width:2; stroke-opacity:0.1; fill:none" points="
  161.394,589.899 2321.26,589.899 
  "/>
<polyline clip-path="url(#clip9003)" style="stroke:#000000; stroke-width:2; stroke-opacity:0.1; fill:none" points="
  161.394,342.196 2321.26,342.196 
  "/>
<polyline clip-path="url(#clip9001)" style="stroke:#000000; stroke-width:4; stroke-opacity:1; fill:none" points="
  161.394,1503.47 2321.26,1503.47 
  "/>
<polyline clip-path="url(#clip9001)" style="stroke:#000000; stroke-width:4; stroke-opacity:1; fill:none" points="
  161.394,1503.47 161.394,125.984 
  "/>
<polyline clip-path="url(#clip9001)" style="stroke:#000000; stroke-width:4; stroke-opacity:1; fill:none" points="
  222.522,1503.47 222.522,1482.81 
  "/>
<polyline clip-path="url(#clip9001)" style="stroke:#000000; stroke-width:4; stroke-opacity:1; fill:none" points="
  731.925,1503.47 731.925,1482.81 
  "/>
<polyline clip-path="url(#clip9001)" style="stroke:#000000; stroke-width:4; stroke-opacity:1; fill:none" points="
  1241.33,1503.47 1241.33,1482.81 
  "/>
<polyline clip-path="url(#clip9001)" style="stroke:#000000; stroke-width:4; stroke-opacity:1; fill:none" points="
  1750.73,1503.47 1750.73,1482.81 
  "/>
<polyline clip-path="url(#clip9001)" style="stroke:#000000; stroke-width:4; stroke-opacity:1; fill:none" points="
  2260.13,1503.47 2260.13,1482.81 
  "/>
<polyline clip-path="url(#clip9001)" style="stroke:#000000; stroke-width:4; stroke-opacity:1; fill:none" points="
  161.394,1333 193.792,1333 
  "/>
<polyline clip-path="url(#clip9001)" style="stroke:#000000; stroke-width:4; stroke-opacity:1; fill:none" points="
  161.394,1085.3 193.792,1085.3 
  "/>
<polyline clip-path="url(#clip9001)" style="stroke:#000000; stroke-width:4; stroke-opacity:1; fill:none" points="
  161.394,837.601 193.792,837.601 
  "/>
<polyline clip-path="url(#clip9001)" style="stroke:#000000; stroke-width:4; stroke-opacity:1; fill:none" points="
  161.394,589.899 193.792,589.899 
  "/>
<polyline clip-path="url(#clip9001)" style="stroke:#000000; stroke-width:4; stroke-opacity:1; fill:none" points="
  161.394,342.196 193.792,342.196 
  "/>
<g clip-path="url(#clip9001)">
<text style="fill:#000000; fill-opacity:1; font-family:Arial,Helvetica Neue,Helvetica,sans-serif; font-size:48px; text-anchor:middle;" transform="rotate(0, 222.522, 1557.47)" x="222.522" y="1557.47">-1.0</text>
</g>
<g clip-path="url(#clip9001)">
<text style="fill:#000000; fill-opacity:1; font-family:Arial,Helvetica Neue,Helvetica,sans-serif; font-size:48px; text-anchor:middle;" transform="rotate(0, 731.925, 1557.47)" x="731.925" y="1557.47">-0.5</text>
</g>
<g clip-path="url(#clip9001)">
<text style="fill:#000000; fill-opacity:1; font-family:Arial,Helvetica Neue,Helvetica,sans-serif; font-size:48px; text-anchor:middle;" transform="rotate(0, 1241.33, 1557.47)" x="1241.33" y="1557.47">0.0</text>
</g>
<g clip-path="url(#clip9001)">
<text style="fill:#000000; fill-opacity:1; font-family:Arial,Helvetica Neue,Helvetica,sans-serif; font-size:48px; text-anchor:middle;" transform="rotate(0, 1750.73, 1557.47)" x="1750.73" y="1557.47">0.5</text>
</g>
<g clip-path="url(#clip9001)">
<text style="fill:#000000; fill-opacity:1; font-family:Arial,Helvetica Neue,Helvetica,sans-serif; font-size:48px; text-anchor:middle;" transform="rotate(0, 2260.13, 1557.47)" x="2260.13" y="1557.47">1.0</text>
</g>
<g clip-path="url(#clip9001)">
<text style="fill:#000000; fill-opacity:1; font-family:Arial,Helvetica Neue,Helvetica,sans-serif; font-size:48px; text-anchor:end;" transform="rotate(0, 137.394, 1350.5)" x="137.394" y="1350.5">0.4</text>
</g>
<g clip-path="url(#clip9001)">
<text style="fill:#000000; fill-opacity:1; font-family:Arial,Helvetica Neue,Helvetica,sans-serif; font-size:48px; text-anchor:end;" transform="rotate(0, 137.394, 1102.8)" x="137.394" y="1102.8">0.5</text>
</g>
<g clip-path="url(#clip9001)">
<text style="fill:#000000; fill-opacity:1; font-family:Arial,Helvetica Neue,Helvetica,sans-serif; font-size:48px; text-anchor:end;" transform="rotate(0, 137.394, 855.101)" x="137.394" y="855.101">0.6</text>
</g>
<g clip-path="url(#clip9001)">
<text style="fill:#000000; fill-opacity:1; font-family:Arial,Helvetica Neue,Helvetica,sans-serif; font-size:48px; text-anchor:end;" transform="rotate(0, 137.394, 607.399)" x="137.394" y="607.399">0.7</text>
</g>
<g clip-path="url(#clip9001)">
<text style="fill:#000000; fill-opacity:1; font-family:Arial,Helvetica Neue,Helvetica,sans-serif; font-size:48px; text-anchor:end;" transform="rotate(0, 137.394, 359.696)" x="137.394" y="359.696">0.8</text>
</g>
<g clip-path="url(#clip9001)">
<text style="fill:#000000; fill-opacity:1; font-family:Arial,Helvetica Neue,Helvetica,sans-serif; font-size:84px; text-anchor:middle;" transform="rotate(0, 1241.33, 73.2)" x="1241.33" y="73.2">BSpline interpolation comparison</text>
</g>
<circle clip-path="url(#clip9003)" style="fill:#000000; stroke:none; fill-opacity:1" cx="222.522" cy="1400.59" r="18"/>
<circle clip-path="url(#clip9003)" style="fill:#009af9; stroke:none; fill-opacity:1" cx="222.522" cy="1400.59" r="14"/>
<circle clip-path="url(#clip9003)" style="fill:#000000; stroke:none; fill-opacity:1" cx="448.923" cy="1239.07" r="18"/>
<circle clip-path="url(#clip9003)" style="fill:#009af9; stroke:none; fill-opacity:1" cx="448.923" cy="1239.07" r="14"/>
<circle clip-path="url(#clip9003)" style="fill:#000000; stroke:none; fill-opacity:1" cx="675.324" cy="1413.47" r="18"/>
<circle clip-path="url(#clip9003)" style="fill:#009af9; stroke:none; fill-opacity:1" cx="675.324" cy="1413.47" r="14"/>
<circle clip-path="url(#clip9003)" style="fill:#000000; stroke:none; fill-opacity:1" cx="901.725" cy="483.731" r="18"/>
<circle clip-path="url(#clip9003)" style="fill:#009af9; stroke:none; fill-opacity:1" cx="901.725" cy="483.731" r="14"/>
<circle clip-path="url(#clip9003)" style="fill:#000000; stroke:none; fill-opacity:1" cx="1128.13" cy="407.368" r="18"/>
<circle clip-path="url(#clip9003)" style="fill:#009af9; stroke:none; fill-opacity:1" cx="1128.13" cy="407.368" r="14"/>
<circle clip-path="url(#clip9003)" style="fill:#000000; stroke:none; fill-opacity:1" cx="1354.53" cy="206.066" r="18"/>
<circle clip-path="url(#clip9003)" style="fill:#009af9; stroke:none; fill-opacity:1" cx="1354.53" cy="206.066" r="14"/>
<circle clip-path="url(#clip9003)" style="fill:#000000; stroke:none; fill-opacity:1" cx="1580.93" cy="1142.84" r="18"/>
<circle clip-path="url(#clip9003)" style="fill:#009af9; stroke:none; fill-opacity:1" cx="1580.93" cy="1142.84" r="14"/>
<circle clip-path="url(#clip9003)" style="fill:#000000; stroke:none; fill-opacity:1" cx="1807.33" cy="1434.62" r="18"/>
<circle clip-path="url(#clip9003)" style="fill:#009af9; stroke:none; fill-opacity:1" cx="1807.33" cy="1434.62" r="14"/>
<circle clip-path="url(#clip9003)" style="fill:#000000; stroke:none; fill-opacity:1" cx="2033.73" cy="1022.76" r="18"/>
<circle clip-path="url(#clip9003)" style="fill:#009af9; stroke:none; fill-opacity:1" cx="2033.73" cy="1022.76" r="14"/>
<circle clip-path="url(#clip9003)" style="fill:#000000; stroke:none; fill-opacity:1" cx="2260.13" cy="1009.11" r="18"/>
<circle clip-path="url(#clip9003)" style="fill:#009af9; stroke:none; fill-opacity:1" cx="2260.13" cy="1009.11" r="14"/>
<polyline clip-path="url(#clip9003)" style="stroke:#e26f46; stroke-width:4; stroke-opacity:1; fill:none" points="
  222.522,1400.59 224.562,1399.13 226.602,1397.68 228.641,1396.22 230.681,1394.77 232.721,1393.31 234.76,1391.86 236.8,1390.4 238.84,1388.95 240.879,1387.49 
  242.919,1386.04 244.958,1384.58 246.998,1383.13 249.038,1381.67 251.077,1380.22 253.117,1378.76 255.157,1377.31 257.196,1375.85 259.236,1374.4 261.276,1372.94 
  263.315,1371.49 265.355,1370.03 267.395,1368.58 269.434,1367.12 271.474,1365.67 273.514,1364.21 275.553,1362.76 277.593,1361.3 279.632,1359.85 281.672,1358.39 
  283.712,1356.94 285.751,1355.48 287.791,1354.03 289.831,1352.57 291.87,1351.12 293.91,1349.66 295.95,1348.2 297.989,1346.75 300.029,1345.29 302.069,1343.84 
  304.108,1342.38 306.148,1340.93 308.188,1339.47 310.227,1338.02 312.267,1336.56 314.307,1335.11 316.346,1333.65 318.386,1332.2 320.425,1330.74 322.465,1329.29 
  324.505,1327.83 326.544,1326.38 328.584,1324.92 330.624,1323.47 332.663,1322.01 334.703,1320.56 336.743,1319.1 338.782,1317.65 340.822,1316.19 342.862,1314.74 
  344.901,1313.28 346.941,1311.83 348.981,1310.37 351.02,1308.92 353.06,1307.46 355.099,1306.01 357.139,1304.55 359.179,1303.1 361.218,1301.64 363.258,1300.19 
  365.298,1298.73 367.337,1297.28 369.377,1295.82 371.417,1294.37 373.456,1292.91 375.496,1291.46 377.536,1290 379.575,1288.55 381.615,1287.09 383.655,1285.63 
  385.694,1284.18 387.734,1282.72 389.774,1281.27 391.813,1279.81 393.853,1278.36 395.892,1276.9 397.932,1275.45 399.972,1273.99 402.011,1272.54 404.051,1271.08 
  406.091,1269.63 408.13,1268.17 410.17,1266.72 412.21,1265.26 414.249,1263.81 416.289,1262.35 418.329,1260.9 420.368,1259.44 422.408,1257.99 424.448,1256.53 
  426.487,1255.08 428.527,1253.62 430.567,1252.17 432.606,1250.71 434.646,1249.26 436.685,1247.8 438.725,1246.35 440.765,1244.89 442.804,1243.44 444.844,1241.98 
  446.884,1240.53 448.923,1239.07 450.963,1240.64 453.003,1242.21 455.042,1243.78 457.082,1245.36 459.122,1246.93 461.161,1248.5 463.201,1250.07 465.241,1251.64 
  467.28,1253.21 469.32,1254.78 471.359,1256.35 473.399,1257.93 475.439,1259.5 477.478,1261.07 479.518,1262.64 481.558,1264.21 483.597,1265.78 485.637,1267.35 
  487.677,1268.92 489.716,1270.49 491.756,1272.07 493.796,1273.64 495.835,1275.21 497.875,1276.78 499.915,1278.35 501.954,1279.92 503.994,1281.49 506.034,1283.06 
  508.073,1284.64 510.113,1286.21 512.152,1287.78 514.192,1289.35 516.232,1290.92 518.271,1292.49 520.311,1294.06 522.351,1295.63 524.39,1297.2 526.43,1298.78 
  528.47,1300.35 530.509,1301.92 532.549,1303.49 534.589,1305.06 536.628,1306.63 538.668,1308.2 540.708,1309.77 542.747,1311.35 544.787,1312.92 546.826,1314.49 
  548.866,1316.06 550.906,1317.63 552.945,1319.2 554.985,1320.77 557.025,1322.34 559.064,1323.91 561.104,1325.49 563.144,1327.06 565.183,1328.63 567.223,1330.2 
  569.263,1331.77 571.302,1333.34 573.342,1334.91 575.382,1336.48 577.421,1338.05 579.461,1339.63 581.501,1341.2 583.54,1342.77 585.58,1344.34 587.619,1345.91 
  589.659,1347.48 591.699,1349.05 593.738,1350.62 595.778,1352.2 597.818,1353.77 599.857,1355.34 601.897,1356.91 603.937,1358.48 605.976,1360.05 608.016,1361.62 
  610.056,1363.19 612.095,1364.76 614.135,1366.34 616.175,1367.91 618.214,1369.48 620.254,1371.05 622.294,1372.62 624.333,1374.19 626.373,1375.76 628.412,1377.33 
  630.452,1378.91 632.492,1380.48 634.531,1382.05 636.571,1383.62 638.611,1385.19 640.65,1386.76 642.69,1388.33 644.73,1389.9 646.769,1391.47 648.809,1393.05 
  650.849,1394.62 652.888,1396.19 654.928,1397.76 656.968,1399.33 659.007,1400.9 661.047,1402.47 663.086,1404.04 665.126,1405.62 667.166,1407.19 669.205,1408.76 
  671.245,1410.33 673.285,1411.9 675.324,1413.47 677.364,1405.1 679.404,1396.72 681.443,1388.34 683.483,1379.97 685.523,1371.59 687.562,1363.21 689.602,1354.84 
  691.642,1346.46 693.681,1338.09 695.721,1329.71 697.761,1321.33 699.8,1312.96 701.84,1304.58 703.879,1296.21 705.919,1287.83 707.959,1279.45 709.998,1271.08 
  712.038,1262.7 714.078,1254.33 716.117,1245.95 718.157,1237.57 720.197,1229.2 722.236,1220.82 724.276,1212.45 726.316,1204.07 728.355,1195.69 730.395,1187.32 
  732.435,1178.94 734.474,1170.57 736.514,1162.19 738.553,1153.81 740.593,1145.44 742.633,1137.06 744.672,1128.69 746.712,1120.31 748.752,1111.93 750.791,1103.56 
  752.831,1095.18 754.871,1086.81 756.91,1078.43 758.95,1070.05 760.99,1061.68 763.029,1053.3 765.069,1044.93 767.109,1036.55 769.148,1028.17 771.188,1019.8 
  773.228,1011.42 775.267,1003.05 777.307,994.669 779.346,986.293 781.386,977.917 783.426,969.541 785.465,961.165 787.505,952.789 789.545,944.413 791.584,936.037 
  793.624,927.661 795.664,919.285 797.703,910.909 799.743,902.533 801.783,894.157 803.822,885.781 805.862,877.405 807.902,869.029 809.941,860.653 811.981,852.277 
  814.02,843.901 816.06,835.525 818.1,827.149 820.139,818.772 822.179,810.396 824.219,802.02 826.258,793.644 828.298,785.268 830.338,776.892 832.377,768.516 
  834.417,760.14 836.457,751.764 838.496,743.388 840.536,735.012 842.576,726.636 844.615,718.26 846.655,709.884 848.695,701.508 850.734,693.132 852.774,684.756 
  854.813,676.38 856.853,668.004 858.893,659.628 860.932,651.252 862.972,642.876 865.012,634.5 867.051,626.124 869.091,617.748 871.131,609.372 873.17,600.996 
  875.21,592.619 877.25,584.243 879.289,575.867 881.329,567.491 883.369,559.115 885.408,550.739 887.448,542.363 889.488,533.987 891.527,525.611 893.567,517.235 
  895.606,508.859 897.646,500.483 899.686,492.107 901.725,483.731 903.765,483.043 905.805,482.355 907.844,481.667 909.884,480.979 911.924,480.291 913.963,479.603 
  916.003,478.915 918.043,478.227 920.082,477.539 922.122,476.851 924.162,476.163 926.201,475.476 928.241,474.788 930.28,474.1 932.32,473.412 934.36,472.724 
  936.399,472.036 938.439,471.348 940.479,470.66 942.518,469.972 944.558,469.284 946.598,468.596 948.637,467.908 950.677,467.22 952.717,466.532 954.756,465.844 
  956.796,465.156 958.836,464.468 960.875,463.78 962.915,463.092 964.955,462.404 966.994,461.716 969.034,461.028 971.073,460.341 973.113,459.653 975.153,458.965 
  977.192,458.277 979.232,457.589 981.272,456.901 983.311,456.213 985.351,455.525 987.391,454.837 989.43,454.149 991.47,453.461 993.51,452.773 995.549,452.085 
  997.589,451.397 999.629,450.709 1001.67,450.021 1003.71,449.333 1005.75,448.645 1007.79,447.957 1009.83,447.269 1011.87,446.581 1013.91,445.893 1015.95,445.205 
  1017.99,444.518 1020.03,443.83 1022.06,443.142 1024.1,442.454 1026.14,441.766 1028.18,441.078 1030.22,440.39 1032.26,439.702 1034.3,439.014 1036.34,438.326 
  1038.38,437.638 1040.42,436.95 1042.46,436.262 1044.5,435.574 1046.54,434.886 1048.58,434.198 1050.62,433.51 1052.66,432.822 1054.7,432.134 1056.74,431.446 
  1058.78,430.758 1060.82,430.07 1062.86,429.382 1064.9,428.695 1066.94,428.007 1068.98,427.319 1071.02,426.631 1073.06,425.943 1075.1,425.255 1077.14,424.567 
  1079.17,423.879 1081.21,423.191 1083.25,422.503 1085.29,421.815 1087.33,421.127 1089.37,420.439 1091.41,419.751 1093.45,419.063 1095.49,418.375 1097.53,417.687 
  1099.57,416.999 1101.61,416.311 1103.65,415.623 1105.69,414.935 1107.73,414.247 1109.77,413.56 1111.81,412.872 1113.85,412.184 1115.89,411.496 1117.93,410.808 
  1119.97,410.12 1122.01,409.432 1124.05,408.744 1126.09,408.056 1128.13,407.368 1130.17,405.554 1132.21,403.741 1134.25,401.927 1136.29,400.114 1138.32,398.3 
  1140.36,396.487 1142.4,394.673 1144.44,392.86 1146.48,391.046 1148.52,389.233 1150.56,387.419 1152.6,385.606 1154.64,383.792 1156.68,381.979 1158.72,380.165 
  1160.76,378.351 1162.8,376.538 1164.84,374.724 1166.88,372.911 1168.92,371.097 1170.96,369.284 1173,367.47 1175.04,365.657 1177.08,363.843 1179.12,362.03 
  1181.16,360.216 1183.2,358.403 1185.24,356.589 1187.28,354.776 1189.32,352.962 1191.36,351.149 1193.4,349.335 1195.43,347.522 1197.47,345.708 1199.51,343.894 
  1201.55,342.081 1203.59,340.267 1205.63,338.454 1207.67,336.64 1209.71,334.827 1211.75,333.013 1213.79,331.2 1215.83,329.386 1217.87,327.573 1219.91,325.759 
  1221.95,323.946 1223.99,322.132 1226.03,320.319 1228.07,318.505 1230.11,316.692 1232.15,314.878 1234.19,313.064 1236.23,311.251 1238.27,309.437 1240.31,307.624 
  1242.35,305.81 1244.39,303.997 1246.43,302.183 1248.47,300.37 1250.51,298.556 1252.55,296.743 1254.58,294.929 1256.62,293.116 1258.66,291.302 1260.7,289.489 
  1262.74,287.675 1264.78,285.862 1266.82,284.048 1268.86,282.235 1270.9,280.421 1272.94,278.607 1274.98,276.794 1277.02,274.98 1279.06,273.167 1281.1,271.353 
  1283.14,269.54 1285.18,267.726 1287.22,265.913 1289.26,264.099 1291.3,262.286 1293.34,260.472 1295.38,258.659 1297.42,256.845 1299.46,255.032 1301.5,253.218 
  1303.54,251.405 1305.58,249.591 1307.62,247.778 1309.66,245.964 1311.69,244.15 1313.73,242.337 1315.77,240.523 1317.81,238.71 1319.85,236.896 1321.89,235.083 
  1323.93,233.269 1325.97,231.456 1328.01,229.642 1330.05,227.829 1332.09,226.015 1334.13,224.202 1336.17,222.388 1338.21,220.575 1340.25,218.761 1342.29,216.948 
  1344.33,215.134 1346.37,213.321 1348.41,211.507 1350.45,209.693 1352.49,207.88 1354.53,206.066 1356.57,214.506 1358.61,222.945 1360.65,231.385 1362.69,239.824 
  1364.73,248.264 1366.77,256.703 1368.8,265.142 1370.84,273.582 1372.88,282.021 1374.92,290.461 1376.96,298.9 1379,307.34 1381.04,315.779 1383.08,324.219 
  1385.12,332.658 1387.16,341.097 1389.2,349.537 1391.24,357.976 1393.28,366.416 1395.32,374.855 1397.36,383.295 1399.4,391.734 1401.44,400.174 1403.48,408.613 
  1405.52,417.052 1407.56,425.492 1409.6,433.931 1411.64,442.371 1413.68,450.81 1415.72,459.25 1417.76,467.689 1419.8,476.128 1421.84,484.568 1423.88,493.007 
  1425.92,501.447 1427.95,509.886 1429.99,518.326 1432.03,526.765 1434.07,535.205 1436.11,543.644 1438.15,552.083 1440.19,560.523 1442.23,568.962 1444.27,577.402 
  1446.31,585.841 1448.35,594.281 1450.39,602.72 1452.43,611.16 1454.47,619.599 1456.51,628.038 1458.55,636.478 1460.59,644.917 1462.63,653.357 1464.67,661.796 
  1466.71,670.236 1468.75,678.675 1470.79,687.115 1472.83,695.554 1474.87,703.993 1476.91,712.433 1478.95,720.872 1480.99,729.312 1483.03,737.751 1485.06,746.191 
  1487.1,754.63 1489.14,763.069 1491.18,771.509 1493.22,779.948 1495.26,788.388 1497.3,796.827 1499.34,805.267 1501.38,813.706 1503.42,822.146 1505.46,830.585 
  1507.5,839.024 1509.54,847.464 1511.58,855.903 1513.62,864.343 1515.66,872.782 1517.7,881.222 1519.74,889.661 1521.78,898.101 1523.82,906.54 1525.86,914.979 
  1527.9,923.419 1529.94,931.858 1531.98,940.298 1534.02,948.737 1536.06,957.177 1538.1,965.616 1540.14,974.056 1542.18,982.495 1544.21,990.934 1546.25,999.374 
  1548.29,1007.81 1550.33,1016.25 1552.37,1024.69 1554.41,1033.13 1556.45,1041.57 1558.49,1050.01 1560.53,1058.45 1562.57,1066.89 1564.61,1075.33 1566.65,1083.77 
  1568.69,1092.21 1570.73,1100.65 1572.77,1109.09 1574.81,1117.53 1576.85,1125.97 1578.89,1134.4 1580.93,1142.84 1582.97,1145.47 1585.01,1148.1 1587.05,1150.73 
  1589.09,1153.36 1591.13,1155.99 1593.17,1158.62 1595.21,1161.24 1597.25,1163.87 1599.29,1166.5 1601.32,1169.13 1603.36,1171.76 1605.4,1174.39 1607.44,1177.02 
  1609.48,1179.65 1611.52,1182.27 1613.56,1184.9 1615.6,1187.53 1617.64,1190.16 1619.68,1192.79 1621.72,1195.42 1623.76,1198.05 1625.8,1200.67 1627.84,1203.3 
  1629.88,1205.93 1631.92,1208.56 1633.96,1211.19 1636,1213.82 1638.04,1216.45 1640.08,1219.08 1642.12,1221.7 1644.16,1224.33 1646.2,1226.96 1648.24,1229.59 
  1650.28,1232.22 1652.32,1234.85 1654.36,1237.48 1656.4,1240.1 1658.44,1242.73 1660.47,1245.36 1662.51,1247.99 1664.55,1250.62 1666.59,1253.25 1668.63,1255.88 
  1670.67,1258.5 1672.71,1261.13 1674.75,1263.76 1676.79,1266.39 1678.83,1269.02 1680.87,1271.65 1682.91,1274.28 1684.95,1276.91 1686.99,1279.53 1689.03,1282.16 
  1691.07,1284.79 1693.11,1287.42 1695.15,1290.05 1697.19,1292.68 1699.23,1295.31 1701.27,1297.93 1703.31,1300.56 1705.35,1303.19 1707.39,1305.82 1709.43,1308.45 
  1711.47,1311.08 1713.51,1313.71 1715.55,1316.34 1717.58,1318.96 1719.62,1321.59 1721.66,1324.22 1723.7,1326.85 1725.74,1329.48 1727.78,1332.11 1729.82,1334.74 
  1731.86,1337.36 1733.9,1339.99 1735.94,1342.62 1737.98,1345.25 1740.02,1347.88 1742.06,1350.51 1744.1,1353.14 1746.14,1355.77 1748.18,1358.39 1750.22,1361.02 
  1752.26,1363.65 1754.3,1366.28 1756.34,1368.91 1758.38,1371.54 1760.42,1374.17 1762.46,1376.79 1764.5,1379.42 1766.54,1382.05 1768.58,1384.68 1770.62,1387.31 
  1772.66,1389.94 1774.7,1392.57 1776.73,1395.19 1778.77,1397.82 1780.81,1400.45 1782.85,1403.08 1784.89,1405.71 1786.93,1408.34 1788.97,1410.97 1791.01,1413.6 
  1793.05,1416.22 1795.09,1418.85 1797.13,1421.48 1799.17,1424.11 1801.21,1426.74 1803.25,1429.37 1805.29,1432 1807.33,1434.62 1809.37,1430.91 1811.41,1427.2 
  1813.45,1423.49 1815.49,1419.78 1817.53,1416.07 1819.57,1412.36 1821.61,1408.65 1823.65,1404.94 1825.69,1401.23 1827.73,1397.52 1829.77,1393.81 1831.81,1390.1 
  1833.84,1386.39 1835.88,1382.68 1837.92,1378.97 1839.96,1375.26 1842,1371.55 1844.04,1367.84 1846.08,1364.13 1848.12,1360.41 1850.16,1356.7 1852.2,1352.99 
  1854.24,1349.28 1856.28,1345.57 1858.32,1341.86 1860.36,1338.15 1862.4,1334.44 1864.44,1330.73 1866.48,1327.02 1868.52,1323.31 1870.56,1319.6 1872.6,1315.89 
  1874.64,1312.18 1876.68,1308.47 1878.72,1304.76 1880.76,1301.05 1882.8,1297.34 1884.84,1293.63 1886.88,1289.92 1888.92,1286.2 1890.96,1282.49 1892.99,1278.78 
  1895.03,1275.07 1897.07,1271.36 1899.11,1267.65 1901.15,1263.94 1903.19,1260.23 1905.23,1256.52 1907.27,1252.81 1909.31,1249.1 1911.35,1245.39 1913.39,1241.68 
  1915.43,1237.97 1917.47,1234.26 1919.51,1230.55 1921.55,1226.84 1923.59,1223.13 1925.63,1219.42 1927.67,1215.71 1929.71,1212 1931.75,1208.28 1933.79,1204.57 
  1935.83,1200.86 1937.87,1197.15 1939.91,1193.44 1941.95,1189.73 1943.99,1186.02 1946.03,1182.31 1948.07,1178.6 1950.1,1174.89 1952.14,1171.18 1954.18,1167.47 
  1956.22,1163.76 1958.26,1160.05 1960.3,1156.34 1962.34,1152.63 1964.38,1148.92 1966.42,1145.21 1968.46,1141.5 1970.5,1137.79 1972.54,1134.07 1974.58,1130.36 
  1976.62,1126.65 1978.66,1122.94 1980.7,1119.23 1982.74,1115.52 1984.78,1111.81 1986.82,1108.1 1988.86,1104.39 1990.9,1100.68 1992.94,1096.97 1994.98,1093.26 
  1997.02,1089.55 1999.06,1085.84 2001.1,1082.13 2003.14,1078.42 2005.18,1074.71 2007.22,1071 2009.25,1067.29 2011.29,1063.58 2013.33,1059.87 2015.37,1056.15 
  2017.41,1052.44 2019.45,1048.73 2021.49,1045.02 2023.53,1041.31 2025.57,1037.6 2027.61,1033.89 2029.65,1030.18 2031.69,1026.47 2033.73,1022.76 2035.77,1022.64 
  2037.81,1022.51 2039.85,1022.39 2041.89,1022.27 2043.93,1022.15 2045.97,1022.02 2048.01,1021.9 2050.05,1021.78 2052.09,1021.65 2054.13,1021.53 2056.17,1021.41 
  2058.21,1021.28 2060.25,1021.16 2062.29,1021.04 2064.33,1020.92 2066.36,1020.79 2068.4,1020.67 2070.44,1020.55 2072.48,1020.42 2074.52,1020.3 2076.56,1020.18 
  2078.6,1020.06 2080.64,1019.93 2082.68,1019.81 2084.72,1019.69 2086.76,1019.56 2088.8,1019.44 2090.84,1019.32 2092.88,1019.19 2094.92,1019.07 2096.96,1018.95 
  2099,1018.83 2101.04,1018.7 2103.08,1018.58 2105.12,1018.46 2107.16,1018.33 2109.2,1018.21 2111.24,1018.09 2113.28,1017.97 2115.32,1017.84 2117.36,1017.72 
  2119.4,1017.6 2121.44,1017.47 2123.48,1017.35 2125.51,1017.23 2127.55,1017.1 2129.59,1016.98 2131.63,1016.86 2133.67,1016.74 2135.71,1016.61 2137.75,1016.49 
  2139.79,1016.37 2141.83,1016.24 2143.87,1016.12 2145.91,1016 2147.95,1015.87 2149.99,1015.75 2152.03,1015.63 2154.07,1015.51 2156.11,1015.38 2158.15,1015.26 
  2160.19,1015.14 2162.23,1015.01 2164.27,1014.89 2166.31,1014.77 2168.35,1014.65 2170.39,1014.52 2172.43,1014.4 2174.47,1014.28 2176.51,1014.15 2178.55,1014.03 
  2180.59,1013.91 2182.62,1013.78 2184.66,1013.66 2186.7,1013.54 2188.74,1013.42 2190.78,1013.29 2192.82,1013.17 2194.86,1013.05 2196.9,1012.92 2198.94,1012.8 
  2200.98,1012.68 2203.02,1012.56 2205.06,1012.43 2207.1,1012.31 2209.14,1012.19 2211.18,1012.06 2213.22,1011.94 2215.26,1011.82 2217.3,1011.69 2219.34,1011.57 
  2221.38,1011.45 2223.42,1011.33 2225.46,1011.2 2227.5,1011.08 2229.54,1010.96 2231.58,1010.83 2233.62,1010.71 2235.66,1010.59 2237.7,1010.47 2239.74,1010.34 
  2241.77,1010.22 2243.81,1010.1 2245.85,1009.97 2247.89,1009.85 2249.93,1009.73 2251.97,1009.6 2254.01,1009.48 2256.05,1009.36 2258.09,1009.24 2260.13,1009.11 
  
  "/>
<polyline clip-path="url(#clip9003)" style="stroke:#3da44d; stroke-width:4; stroke-opacity:1; fill:none" points="
  222.522,1400.59 224.562,1397.44 226.602,1394.29 228.641,1391.14 230.681,1388 232.721,1384.86 234.76,1381.72 236.8,1378.59 238.84,1375.46 240.879,1372.34 
  242.919,1369.23 244.958,1366.13 246.998,1363.03 249.038,1359.95 251.077,1356.87 253.117,1353.81 255.157,1350.76 257.196,1347.72 259.236,1344.7 261.276,1341.69 
  263.315,1338.7 265.355,1335.72 267.395,1332.76 269.434,1329.82 271.474,1326.9 273.514,1324 275.553,1321.12 277.593,1318.26 279.632,1315.42 281.672,1312.61 
  283.712,1309.82 285.751,1307.05 287.791,1304.31 289.831,1301.6 291.87,1298.91 293.91,1296.25 295.95,1293.62 297.989,1291.02 300.029,1288.45 302.069,1285.92 
  304.108,1283.41 306.148,1280.94 308.188,1278.5 310.227,1276.09 312.267,1273.73 314.307,1271.39 316.346,1269.1 318.386,1266.84 320.425,1264.62 322.465,1262.44 
  324.505,1260.3 326.544,1258.21 328.584,1256.15 330.624,1254.14 332.663,1252.17 334.703,1250.25 336.743,1248.37 338.782,1246.54 340.822,1244.75 342.862,1243.01 
  344.901,1241.32 346.941,1239.68 348.981,1238.1 351.02,1236.56 353.06,1235.07 355.099,1233.64 357.139,1232.26 359.179,1230.93 361.218,1229.66 363.258,1228.45 
  365.298,1227.29 367.337,1226.19 369.377,1225.15 371.417,1224.17 373.456,1223.25 375.496,1222.39 377.536,1221.6 379.575,1220.86 381.615,1220.19 383.655,1219.58 
  385.694,1219.04 387.734,1218.56 389.774,1218.15 391.813,1217.81 393.853,1217.54 395.892,1217.34 397.932,1217.2 399.972,1217.14 402.011,1217.15 404.051,1217.23 
  406.091,1217.39 408.13,1217.62 410.17,1217.92 412.21,1218.3 414.249,1218.76 416.289,1219.29 418.329,1219.91 420.368,1220.6 422.408,1221.37 424.448,1222.22 
  426.487,1223.16 428.527,1224.18 430.567,1225.28 432.606,1226.46 434.646,1227.73 436.685,1229.09 438.725,1230.53 440.765,1232.06 442.804,1233.68 444.844,1235.39 
  446.884,1237.18 448.923,1239.07 450.963,1241.05 453.003,1243.12 455.042,1245.27 457.082,1247.51 459.122,1249.83 461.161,1252.23 463.201,1254.7 465.241,1257.24 
  467.28,1259.86 469.32,1262.54 471.359,1265.29 473.399,1268.11 475.439,1270.98 477.478,1273.9 479.518,1276.89 481.558,1279.92 483.597,1283.01 485.637,1286.14 
  487.677,1289.31 489.716,1292.53 491.756,1295.78 493.796,1299.07 495.835,1302.39 497.875,1305.75 499.915,1309.13 501.954,1312.53 503.994,1315.96 506.034,1319.41 
  508.073,1322.88 510.113,1326.36 512.152,1329.85 514.192,1333.36 516.232,1336.87 518.271,1340.38 520.311,1343.9 522.351,1347.41 524.39,1350.92 526.43,1354.42 
  528.47,1357.92 530.509,1361.4 532.549,1364.87 534.589,1368.32 536.628,1371.75 538.668,1375.16 540.708,1378.54 542.747,1381.9 544.787,1385.22 546.826,1388.52 
  548.866,1391.77 550.906,1394.99 552.945,1398.17 554.985,1401.3 557.025,1404.39 559.064,1407.43 561.104,1410.41 563.144,1413.35 565.183,1416.22 567.223,1419.04 
  569.263,1421.79 571.302,1424.48 573.342,1427.1 575.382,1429.65 577.421,1432.13 579.461,1434.53 581.501,1436.86 583.54,1439.1 585.58,1441.26 587.619,1443.34 
  589.659,1445.32 591.699,1447.22 593.738,1449.02 595.778,1450.72 597.818,1452.33 599.857,1453.83 601.897,1455.23 603.937,1456.52 605.976,1457.7 608.016,1458.76 
  610.056,1459.72 612.095,1460.55 614.135,1461.26 616.175,1461.86 618.214,1462.32 620.254,1462.66 622.294,1462.86 624.333,1462.93 626.373,1462.87 628.412,1462.66 
  630.452,1462.32 632.492,1461.83 634.531,1461.19 636.571,1460.4 638.611,1459.46 640.65,1458.37 642.69,1457.12 644.73,1455.7 646.769,1454.13 648.809,1452.39 
  650.849,1450.48 652.888,1448.4 654.928,1446.14 656.968,1443.71 659.007,1441.1 661.047,1438.31 663.086,1435.34 665.126,1432.18 667.166,1428.82 669.205,1425.28 
  671.245,1421.54 673.285,1417.61 675.324,1413.47 677.364,1409.13 679.404,1404.6 681.443,1399.86 683.483,1394.94 685.523,1389.82 687.562,1384.52 689.602,1379.04 
  691.642,1373.38 693.681,1367.55 695.721,1361.54 697.761,1355.37 699.8,1349.03 701.84,1342.53 703.879,1335.87 705.919,1329.06 707.959,1322.09 709.998,1314.98 
  712.038,1307.73 714.078,1300.33 716.117,1292.8 718.157,1285.13 720.197,1277.34 722.236,1269.42 724.276,1261.37 726.316,1253.21 728.355,1244.93 730.395,1236.53 
  732.435,1228.03 734.474,1219.42 736.514,1210.71 738.553,1201.9 740.593,1193 742.633,1184 744.672,1174.91 746.712,1165.74 748.752,1156.49 750.791,1147.16 
  752.831,1137.76 754.871,1128.28 756.91,1118.74 758.95,1109.13 760.99,1099.46 763.029,1089.74 765.069,1079.96 767.109,1070.13 769.148,1060.25 771.188,1050.33 
  773.228,1040.37 775.267,1030.38 777.307,1020.35 779.346,1010.29 781.386,1000.2 783.426,990.096 785.465,979.97 787.505,969.827 789.545,959.673 791.584,949.51 
  793.624,939.341 795.664,929.171 797.703,919.002 799.743,908.838 801.783,898.683 803.822,888.54 805.862,878.413 807.902,868.304 809.941,858.218 811.981,848.158 
  814.02,838.127 816.06,828.129 818.1,818.167 820.139,808.245 822.179,798.366 824.219,788.534 826.258,778.752 828.298,769.024 830.338,759.353 832.377,749.742 
  834.417,740.195 836.457,730.716 838.496,721.307 840.536,711.973 842.576,702.717 844.615,693.542 846.655,684.452 848.695,675.451 850.734,666.541 852.774,657.726 
  854.813,649.009 856.853,640.395 858.893,631.887 860.932,623.487 862.972,615.2 865.012,607.029 867.051,598.978 869.091,591.049 871.131,583.247 873.17,575.574 
  875.21,568.035 877.25,560.632 879.289,553.37 881.329,546.252 883.369,539.28 885.408,532.459 887.448,525.793 889.488,519.284 891.527,512.935 893.567,506.752 
  895.606,500.736 897.646,494.892 899.686,489.222 901.725,483.731 903.765,478.421 905.805,473.289 907.844,468.335 909.884,463.554 911.924,458.945 913.963,454.504 
  916.003,450.229 918.043,446.118 920.082,442.168 922.122,438.376 924.162,434.739 926.201,431.256 928.241,427.923 930.28,424.738 932.32,421.697 934.36,418.8 
  936.399,416.042 938.439,413.422 940.479,410.936 942.518,408.582 944.558,406.358 946.598,404.26 948.637,402.287 950.677,400.435 952.717,398.702 954.756,397.086 
  956.796,395.583 958.836,394.191 960.875,392.908 962.915,391.731 964.955,390.657 966.994,389.683 969.034,388.808 971.073,388.028 973.113,387.341 975.153,386.744 
  977.192,386.234 979.232,385.809 981.272,385.467 983.311,385.204 985.351,385.019 987.391,384.907 989.43,384.868 991.47,384.898 993.51,384.994 995.549,385.155 
  997.589,385.377 999.629,385.657 1001.67,385.994 1003.71,386.384 1005.75,386.825 1007.79,387.314 1009.83,387.849 1011.87,388.427 1013.91,389.045 1015.95,389.701 
  1017.99,390.393 1020.03,391.116 1022.06,391.87 1024.1,392.651 1026.14,393.457 1028.18,394.285 1030.22,395.132 1032.26,395.996 1034.3,396.875 1036.34,397.765 
  1038.38,398.664 1040.42,399.569 1042.46,400.478 1044.5,401.388 1046.54,402.297 1048.58,403.202 1050.62,404.099 1052.66,404.988 1054.7,405.865 1056.74,406.727 
  1058.78,407.571 1060.82,408.396 1062.86,409.199 1064.9,409.977 1066.94,410.726 1068.98,411.446 1071.02,412.133 1073.06,412.784 1075.1,413.397 1077.14,413.969 
  1079.17,414.498 1081.21,414.981 1083.25,415.415 1085.29,415.798 1087.33,416.127 1089.37,416.4 1091.41,416.613 1093.45,416.765 1095.49,416.852 1097.53,416.873 
  1099.57,416.824 1101.61,416.703 1103.65,416.507 1105.69,416.234 1107.73,415.88 1109.77,415.444 1111.81,414.923 1113.85,414.313 1115.89,413.614 1117.93,412.821 
  1119.97,411.932 1122.01,410.945 1124.05,409.857 1126.09,408.666 1128.13,407.368 1130.17,405.962 1132.21,404.45 1134.25,402.835 1136.29,401.119 1138.32,399.305 
  1140.36,397.396 1142.4,395.394 1144.44,393.303 1146.48,391.124 1148.52,388.861 1150.56,386.516 1152.6,384.093 1154.64,381.593 1156.68,379.019 1158.72,376.375 
  1160.76,373.663 1162.8,370.885 1164.84,368.045 1166.88,365.145 1168.92,362.187 1170.96,359.175 1173,356.111 1175.04,352.998 1177.08,349.839 1179.12,346.636 
  1181.16,343.393 1183.2,340.111 1185.24,336.793 1187.28,333.443 1189.32,330.063 1191.36,326.655 1193.4,323.223 1195.43,319.769 1197.47,316.295 1199.51,312.805 
  1201.55,309.302 1203.59,305.787 1205.63,302.264 1207.67,298.736 1209.71,295.205 1211.75,291.673 1213.79,288.144 1215.83,284.62 1217.87,281.104 1219.91,277.599 
  1221.95,274.108 1223.99,270.632 1226.03,267.175 1228.07,263.74 1230.11,260.329 1232.15,256.946 1234.19,253.591 1236.23,250.27 1238.27,246.983 1240.31,243.735 
  1242.35,240.526 1244.39,237.362 1246.43,234.243 1248.47,231.173 1250.51,228.154 1252.55,225.19 1254.58,222.282 1256.62,219.434 1258.66,216.649 1260.7,213.928 
  1262.74,211.275 1264.78,208.693 1266.82,206.183 1268.86,203.75 1270.9,201.395 1272.94,199.122 1274.98,196.933 1277.02,194.83 1279.06,192.817 1281.1,190.896 
  1283.14,189.07 1285.18,187.342 1287.22,185.714 1289.26,184.189 1291.3,182.77 1293.34,181.459 1295.38,180.26 1297.42,179.174 1299.46,178.205 1301.5,177.356 
  1303.54,176.628 1305.58,176.026 1307.62,175.551 1309.66,175.206 1311.69,174.994 1313.73,174.918 1315.77,174.98 1317.81,175.183 1319.85,175.53 1321.89,176.024 
  1323.93,176.666 1325.97,177.461 1328.01,178.411 1330.05,179.518 1332.09,180.785 1334.13,182.215 1336.17,183.81 1338.21,185.574 1340.25,187.508 1342.29,189.617 
  1344.33,191.901 1346.37,194.365 1348.41,197.011 1350.45,199.841 1352.49,202.859 1354.53,206.066 1356.57,209.466 1358.61,213.055 1360.65,216.832 1362.69,220.793 
  1364.73,224.936 1366.77,229.259 1368.8,233.758 1370.84,238.43 1372.88,243.274 1374.92,248.286 1376.96,253.464 1379,258.804 1381.04,264.305 1383.08,269.963 
  1385.12,275.777 1387.16,281.742 1389.2,287.856 1391.24,294.118 1393.28,300.523 1395.32,307.07 1397.36,313.755 1399.4,320.576 1401.44,327.53 1403.48,334.615 
  1405.52,341.827 1407.56,349.164 1409.6,356.624 1411.64,364.203 1413.68,371.9 1415.72,379.71 1417.76,387.632 1419.8,395.663 1421.84,403.8 1423.88,412.04 
  1425.92,420.381 1427.95,428.819 1429.99,437.353 1432.03,445.98 1434.07,454.696 1436.11,463.5 1438.15,472.388 1440.19,481.357 1442.23,490.406 1444.27,499.531 
  1446.31,508.73 1448.35,517.999 1450.39,527.337 1452.43,536.74 1454.47,546.205 1456.51,555.731 1458.55,565.314 1460.59,574.952 1462.63,584.642 1464.67,594.381 
  1466.71,604.166 1468.75,613.996 1470.79,623.866 1472.83,633.775 1474.87,643.719 1476.91,653.697 1478.95,663.704 1480.99,673.74 1483.03,683.8 1485.06,693.882 
  1487.1,703.984 1489.14,714.102 1491.18,724.235 1493.22,734.378 1495.26,744.531 1497.3,754.689 1499.34,764.851 1501.38,775.012 1503.42,785.172 1505.46,795.327 
  1507.5,805.474 1509.54,815.611 1511.58,825.735 1513.62,835.843 1515.66,845.932 1517.7,856.001 1519.74,866.045 1521.78,876.063 1523.82,886.051 1525.86,896.008 
  1527.9,905.93 1529.94,915.814 1531.98,925.659 1534.02,935.46 1536.06,945.216 1538.1,954.924 1540.14,964.581 1542.18,974.184 1544.21,983.73 1546.25,993.218 
  1548.29,1002.64 1550.33,1012.01 1552.37,1021.3 1554.41,1030.52 1556.45,1039.67 1558.49,1048.75 1560.53,1057.75 1562.57,1066.67 1564.61,1075.5 1566.65,1084.25 
  1568.69,1092.91 1570.73,1101.48 1572.77,1109.95 1574.81,1118.32 1576.85,1126.6 1578.89,1134.78 1580.93,1142.84 1582.97,1150.81 1585.01,1158.66 1587.05,1166.41 
  1589.09,1174.05 1591.13,1181.58 1593.17,1189.01 1595.21,1196.33 1597.25,1203.54 1599.29,1210.65 1601.32,1217.66 1603.36,1224.56 1605.4,1231.35 1607.44,1238.04 
  1609.48,1244.63 1611.52,1251.11 1613.56,1257.49 1615.6,1263.77 1617.64,1269.94 1619.68,1276.01 1621.72,1281.98 1623.76,1287.85 1625.8,1293.61 1627.84,1299.27 
  1629.88,1304.84 1631.92,1310.3 1633.96,1315.66 1636,1320.92 1638.04,1326.08 1640.08,1331.14 1642.12,1336.1 1644.16,1340.96 1646.2,1345.73 1648.24,1350.39 
  1650.28,1354.96 1652.32,1359.43 1654.36,1363.8 1656.4,1368.07 1658.44,1372.25 1660.47,1376.33 1662.51,1380.31 1664.55,1384.2 1666.59,1387.99 1668.63,1391.69 
  1670.67,1395.29 1672.71,1398.79 1674.75,1402.21 1676.79,1405.52 1678.83,1408.74 1680.87,1411.87 1682.91,1414.91 1684.95,1417.85 1686.99,1420.7 1689.03,1423.45 
  1691.07,1426.12 1693.11,1428.69 1695.15,1431.17 1697.19,1433.56 1699.23,1435.85 1701.27,1438.06 1703.31,1440.17 1705.35,1442.2 1707.39,1444.13 1709.43,1445.98 
  1711.47,1447.73 1713.51,1449.4 1715.55,1450.98 1717.58,1452.46 1719.62,1453.86 1721.66,1455.18 1723.7,1456.4 1725.74,1457.54 1727.78,1458.59 1729.82,1459.55 
  1731.86,1460.43 1733.9,1461.22 1735.94,1461.92 1737.98,1462.54 1740.02,1463.07 1742.06,1463.52 1744.1,1463.88 1746.14,1464.16 1748.18,1464.35 1750.22,1464.46 
  1752.26,1464.49 1754.3,1464.43 1756.34,1464.29 1758.38,1464.07 1760.42,1463.76 1762.46,1463.38 1764.5,1462.91 1766.54,1462.35 1768.58,1461.72 1770.62,1461.01 
  1772.66,1460.21 1774.7,1459.34 1776.73,1458.38 1778.77,1457.35 1780.81,1456.23 1782.85,1455.04 1784.89,1453.76 1786.93,1452.41 1788.97,1450.98 1791.01,1449.47 
  1793.05,1447.89 1795.09,1446.22 1797.13,1444.48 1799.17,1442.66 1801.21,1440.77 1803.25,1438.8 1805.29,1436.75 1807.33,1434.62 1809.37,1432.43 1811.41,1430.15 
  1813.45,1427.81 1815.49,1425.39 1817.53,1422.9 1819.57,1420.34 1821.61,1417.72 1823.65,1415.03 1825.69,1412.27 1827.73,1409.45 1829.77,1406.56 1831.81,1403.62 
  1833.84,1400.61 1835.88,1397.55 1837.92,1394.43 1839.96,1391.25 1842,1388.02 1844.04,1384.73 1846.08,1381.39 1848.12,1378 1850.16,1374.56 1852.2,1371.08 
  1854.24,1367.54 1856.28,1363.96 1858.32,1360.33 1860.36,1356.66 1862.4,1352.95 1864.44,1349.2 1866.48,1345.41 1868.52,1341.58 1870.56,1337.71 1872.6,1333.81 
  1874.64,1329.87 1876.68,1325.9 1878.72,1321.9 1880.76,1317.87 1882.8,1313.81 1884.84,1309.72 1886.88,1305.6 1888.92,1301.46 1890.96,1297.3 1892.99,1293.11 
  1895.03,1288.9 1897.07,1284.67 1899.11,1280.42 1901.15,1276.16 1903.19,1271.87 1905.23,1267.58 1907.27,1263.26 1909.31,1258.94 1911.35,1254.61 1913.39,1250.26 
  1915.43,1245.91 1917.47,1241.55 1919.51,1237.18 1921.55,1232.81 1923.59,1228.43 1925.63,1224.06 1927.67,1219.68 1929.71,1215.3 1931.75,1210.93 1933.79,1206.55 
  1935.83,1202.18 1937.87,1197.82 1939.91,1193.46 1941.95,1189.12 1943.99,1184.78 1946.03,1180.45 1948.07,1176.13 1950.1,1171.83 1952.14,1167.54 1954.18,1163.27 
  1956.22,1159.02 1958.26,1154.78 1960.3,1150.56 1962.34,1146.37 1964.38,1142.19 1966.42,1138.04 1968.46,1133.92 1970.5,1129.82 1972.54,1125.75 1974.58,1121.71 
  1976.62,1117.69 1978.66,1113.71 1980.7,1109.76 1982.74,1105.85 1984.78,1101.97 1986.82,1098.13 1988.86,1094.32 1990.9,1090.55 1992.94,1086.83 1994.98,1083.14 
  1997.02,1079.5 1999.06,1075.91 2001.1,1072.35 2003.14,1068.85 2005.18,1065.39 2007.22,1061.98 2009.25,1058.63 2011.29,1055.32 2013.33,1052.07 2015.37,1048.87 
  2017.41,1045.73 2019.45,1042.65 2021.49,1039.62 2023.53,1036.65 2025.57,1033.75 2027.61,1030.9 2029.65,1028.12 2031.69,1025.41 2033.73,1022.76 2035.77,1020.18 
  2037.81,1017.66 2039.85,1015.21 2041.89,1012.83 2043.93,1010.51 2045.97,1008.26 2048.01,1006.07 2050.05,1003.94 2052.09,1001.87 2054.13,999.872 2056.17,997.93 
  2058.21,996.049 2060.25,994.228 2062.29,992.467 2064.33,990.764 2066.36,989.12 2068.4,987.533 2070.44,986.004 2072.48,984.53 2074.52,983.113 2076.56,981.751 
  2078.6,980.444 2080.64,979.19 2082.68,977.99 2084.72,976.843 2086.76,975.748 2088.8,974.704 2090.84,973.712 2092.88,972.77 2094.92,971.877 2096.96,971.034 
  2099,970.24 2101.04,969.493 2103.08,968.794 2105.12,968.141 2107.16,967.535 2109.2,966.974 2111.24,966.458 2113.28,965.986 2115.32,965.558 2117.36,965.173 
  2119.4,964.831 2121.44,964.53 2123.48,964.271 2125.51,964.052 2127.55,963.873 2129.59,963.734 2131.63,963.634 2133.67,963.572 2135.71,963.547 2137.75,963.56 
  2139.79,963.609 2141.83,963.694 2143.87,963.814 2145.91,963.969 2147.95,964.157 2149.99,964.379 2152.03,964.634 2154.07,964.921 2156.11,965.239 2158.15,965.589 
  2160.19,965.968 2162.23,966.378 2164.27,966.817 2166.31,967.284 2168.35,967.779 2170.39,968.301 2172.43,968.85 2174.47,969.426 2176.51,970.026 2178.55,970.652 
  2180.59,971.302 2182.62,971.975 2184.66,972.672 2186.7,973.391 2188.74,974.132 2190.78,974.894 2192.82,975.677 2194.86,976.48 2196.9,977.302 2198.94,978.143 
  2200.98,979.002 2203.02,979.879 2205.06,980.773 2207.1,981.683 2209.14,982.609 2211.18,983.55 2213.22,984.506 2215.26,985.476 2217.3,986.459 2219.34,987.455 
  2221.38,988.463 2223.42,989.482 2225.46,990.512 2227.5,991.553 2229.54,992.604 2231.58,993.663 2233.62,994.731 2235.66,995.807 2237.7,996.89 2239.74,997.98 
  2241.77,999.076 2243.81,1000.18 2245.85,1001.28 2247.89,1002.39 2249.93,1003.51 2251.97,1004.63 2254.01,1005.75 2256.05,1006.87 2258.09,1007.99 2260.13,1009.11 
  
  "/>
<polyline clip-path="url(#clip9003)" style="stroke:#c271d2; stroke-width:4; stroke-opacity:1; fill:none" points="
  222.522,1400.59 224.562,1398.28 226.602,1395.97 228.641,1393.66 230.681,1391.35 232.721,1389.05 234.76,1386.74 236.8,1384.43 238.84,1382.12 240.879,1379.81 
  242.919,1377.5 244.958,1375.19 246.998,1372.89 249.038,1370.58 251.077,1368.27 253.117,1365.96 255.157,1363.65 257.196,1361.34 259.236,1359.03 261.276,1356.73 
  263.315,1354.42 265.355,1352.11 267.395,1349.8 269.434,1347.49 271.474,1345.18 273.514,1342.87 275.553,1340.57 277.593,1338.26 279.632,1335.95 281.672,1333.64 
  283.712,1331.33 285.751,1329.02 287.791,1326.71 289.831,1324.4 291.87,1322.1 293.91,1319.79 295.95,1317.48 297.989,1315.17 300.029,1312.86 302.069,1310.55 
  304.108,1308.24 306.148,1305.94 308.188,1303.63 310.227,1301.32 312.267,1299.01 314.307,1296.7 316.346,1294.39 318.386,1292.08 320.425,1289.78 322.465,1287.47 
  324.505,1285.16 326.544,1282.85 328.584,1280.54 330.624,1278.23 332.663,1275.92 334.703,1273.62 336.743,1271.31 338.782,1269.07 340.822,1266.88 342.862,1264.76 
  344.901,1262.7 346.941,1260.69 348.981,1258.75 351.02,1256.88 353.06,1255.06 355.099,1253.31 357.139,1251.61 359.179,1249.98 361.218,1248.41 363.258,1246.9 
  365.298,1245.45 367.337,1244.07 369.377,1242.74 371.417,1241.48 373.456,1240.28 375.496,1239.14 377.536,1238.06 379.575,1237.04 381.615,1236.09 383.655,1235.19 
  385.694,1234.36 387.734,1233.59 389.774,1232.88 391.813,1232.23 393.853,1231.65 395.892,1231.12 397.932,1230.66 399.972,1230.26 402.011,1229.92 404.051,1229.64 
  406.091,1229.42 408.13,1229.27 410.17,1229.17 412.21,1229.14 414.249,1229.17 416.289,1229.26 418.329,1229.41 420.368,1229.62 422.408,1229.9 424.448,1230.24 
  426.487,1230.63 428.527,1231.09 430.567,1231.61 432.606,1232.2 434.646,1232.84 436.685,1233.55 438.725,1234.31 440.765,1235.14 442.804,1236.03 444.844,1236.98 
  446.884,1238 448.923,1239.07 450.963,1240.21 453.003,1241.4 455.042,1242.66 457.082,1243.98 459.122,1245.37 461.161,1246.81 463.201,1248.32 465.241,1249.88 
  467.28,1251.51 469.32,1253.2 471.359,1254.95 473.399,1256.76 475.439,1258.64 477.478,1260.57 479.518,1262.57 481.558,1264.63 483.597,1266.75 485.637,1268.93 
  487.677,1271.18 489.716,1273.48 491.756,1275.85 493.796,1278.28 495.835,1280.76 497.875,1283.32 499.915,1285.93 501.954,1288.6 503.994,1291.34 506.034,1294.13 
  508.073,1296.99 510.113,1299.91 512.152,1302.89 514.192,1305.94 516.232,1309.04 518.271,1312.21 520.311,1315.44 522.351,1318.72 524.39,1322.08 526.43,1325.49 
  528.47,1328.96 530.509,1332.5 532.549,1336.09 534.589,1339.75 536.628,1343.47 538.668,1347.25 540.708,1351.09 542.747,1355 544.787,1358.96 546.826,1362.99 
  548.866,1367.08 550.906,1371.23 552.945,1375.44 554.985,1379.72 557.025,1384.05 559.064,1388.45 561.104,1392.9 563.144,1397.4 565.183,1401.77 567.223,1405.98 
  569.263,1410.05 571.302,1413.97 573.342,1417.73 575.382,1421.34 577.421,1424.81 579.461,1428.12 581.501,1431.28 583.54,1434.29 585.58,1437.15 587.619,1439.85 
  589.659,1442.41 591.699,1444.82 593.738,1447.07 595.778,1449.18 597.818,1451.13 599.857,1452.93 601.897,1454.58 603.937,1456.08 605.976,1457.43 608.016,1458.63 
  610.056,1459.68 612.095,1460.57 614.135,1461.32 616.175,1461.91 618.214,1462.35 620.254,1462.65 622.294,1462.79 624.333,1462.78 626.373,1462.62 628.412,1462.31 
  630.452,1461.84 632.492,1461.23 634.531,1460.47 636.571,1459.55 638.611,1458.48 640.65,1457.27 642.69,1455.9 644.73,1454.38 646.769,1452.71 648.809,1450.89 
  650.849,1448.91 652.888,1446.79 654.928,1444.52 656.968,1442.09 659.007,1439.52 661.047,1436.79 663.086,1433.91 665.126,1430.88 667.166,1427.7 669.205,1424.37 
  671.245,1420.89 673.285,1417.26 675.324,1413.47 677.364,1409.54 679.404,1405.45 681.443,1401.21 683.483,1396.83 685.523,1392.29 687.562,1387.6 689.602,1382.76 
  691.642,1377.77 693.681,1372.62 695.721,1367.33 697.761,1361.88 699.8,1356.29 701.84,1350.54 703.879,1344.65 705.919,1338.6 707.959,1332.4 709.998,1326.05 
  712.038,1319.55 714.078,1312.89 716.117,1306.09 718.157,1299.14 720.197,1292.03 722.236,1284.77 724.276,1277.37 726.316,1269.81 728.355,1262.1 730.395,1254.24 
  732.435,1246.23 734.474,1238.07 736.514,1229.75 738.553,1221.29 740.593,1212.68 742.633,1203.91 744.672,1194.99 746.712,1185.93 748.752,1176.71 750.791,1167.34 
  752.831,1157.82 754.871,1148.14 756.91,1138.32 758.95,1128.35 760.99,1118.22 763.029,1107.95 765.069,1097.52 767.109,1086.94 769.148,1076.22 771.188,1065.34 
  773.228,1054.31 775.267,1043.12 777.307,1031.79 779.346,1020.31 781.386,1008.67 783.426,996.89 785.465,984.954 787.505,972.866 789.545,960.663 791.584,948.552 
  793.624,936.569 795.664,924.713 797.703,912.985 799.743,901.383 801.783,889.91 803.822,878.563 805.862,867.344 807.902,856.252 809.941,845.288 811.981,834.451 
  814.02,823.742 816.06,813.159 818.1,802.705 820.139,792.377 822.179,782.177 824.219,772.104 826.258,762.159 828.298,752.341 830.338,742.651 832.377,733.088 
  834.417,723.652 836.457,714.343 838.496,705.162 840.536,696.109 842.576,687.183 844.615,678.384 846.655,669.712 848.695,661.168 850.734,652.751 852.774,644.462 
  854.813,636.3 856.853,628.265 858.893,620.358 860.932,612.578 862.972,604.926 865.012,597.401 867.051,590.003 869.091,582.733 871.131,575.59 873.17,568.574 
  875.21,561.686 877.25,554.925 879.289,548.292 881.329,541.786 883.369,535.407 885.408,529.156 887.448,523.032 889.488,517.035 891.527,511.166 893.567,505.424 
  895.606,499.81 897.646,494.323 899.686,488.963 901.725,483.731 903.765,478.626 905.805,473.649 907.844,468.798 909.884,464.076 911.924,459.48 913.963,455.012 
  916.003,450.672 918.043,446.458 920.082,442.373 922.122,438.414 924.162,434.583 926.201,430.879 928.241,427.303 930.28,423.854 932.32,420.532 934.36,417.338 
  936.399,414.271 938.439,411.332 940.479,408.52 942.518,405.835 944.558,403.278 946.598,400.848 948.637,398.545 950.677,396.37 952.717,394.322 954.756,392.402 
  956.796,390.609 958.836,388.943 960.875,387.405 962.915,385.994 964.955,384.71 966.994,383.554 969.034,382.526 971.073,381.624 973.113,380.85 975.153,380.203 
  977.192,379.684 979.232,379.292 981.272,379.028 983.311,378.891 985.351,378.881 987.391,378.999 989.43,379.244 991.47,379.616 993.51,380.116 995.549,380.743 
  997.589,381.497 999.629,382.379 1001.67,383.389 1003.71,384.525 1005.75,385.789 1007.79,387.181 1009.83,388.7 1011.87,390.346 1013.91,392.119 1015.95,393.997 
  1017.99,395.839 1020.03,397.621 1022.06,399.344 1024.1,401.009 1026.14,402.613 1028.18,404.159 1030.22,405.646 1032.26,407.073 1034.3,408.441 1036.34,409.75 
  1038.38,410.999 1040.42,412.19 1042.46,413.321 1044.5,414.393 1046.54,415.406 1048.58,416.36 1050.62,417.254 1052.66,418.089 1054.7,418.865 1056.74,419.582 
  1058.78,420.239 1060.82,420.838 1062.86,421.377 1064.9,421.857 1066.94,422.278 1068.98,422.639 1071.02,422.941 1073.06,423.185 1075.1,423.369 1077.14,423.493 
  1079.17,423.559 1081.21,423.565 1083.25,423.512 1085.29,423.4 1087.33,423.229 1089.37,422.998 1091.41,422.708 1093.45,422.359 1095.49,421.951 1097.53,421.484 
  1099.57,420.957 1101.61,420.371 1103.65,419.726 1105.69,419.022 1107.73,418.259 1109.77,417.436 1111.81,416.554 1113.85,415.613 1115.89,414.613 1117.93,413.553 
  1119.97,412.435 1122.01,411.257 1124.05,410.02 1126.09,408.723 1128.13,407.368 1130.17,405.953 1132.21,404.479 1134.25,402.946 1136.29,401.354 1138.32,399.702 
  1140.36,397.991 1142.4,396.222 1144.44,394.392 1146.48,392.504 1148.52,390.556 1150.56,388.55 1152.6,386.484 1154.64,384.358 1156.68,382.174 1158.72,379.93 
  1160.76,377.627 1162.8,375.265 1164.84,372.844 1166.88,370.364 1168.92,367.824 1170.96,365.225 1173,362.567 1175.04,359.85 1177.08,357.073 1179.12,354.238 
  1181.16,351.343 1183.2,348.389 1185.24,345.375 1187.28,342.303 1189.32,339.171 1191.36,335.98 1193.4,332.73 1195.43,329.42 1197.47,326.052 1199.51,322.624 
  1201.55,319.137 1203.59,315.591 1205.63,311.985 1207.67,308.321 1209.71,304.597 1211.75,300.814 1213.79,296.972 1215.83,293.07 1217.87,289.11 1219.91,285.09 
  1221.95,281.011 1223.99,276.872 1226.03,272.675 1228.07,268.418 1230.11,264.102 1232.15,259.727 1234.19,255.293 1236.23,250.799 1238.27,246.246 1240.31,241.634 
  1242.35,236.989 1244.39,232.465 1246.43,228.087 1248.47,223.856 1250.51,219.772 1252.55,215.834 1254.58,212.044 1256.62,208.4 1258.66,204.903 1260.7,201.552 
  1262.74,198.349 1264.78,195.292 1266.82,192.381 1268.86,189.618 1270.9,187.001 1272.94,184.531 1274.98,182.208 1277.02,180.032 1279.06,178.002 1281.1,176.119 
  1283.14,174.383 1285.18,172.793 1287.22,171.351 1289.26,170.055 1291.3,168.905 1293.34,167.903 1295.38,167.047 1297.42,166.338 1299.46,165.776 1301.5,165.361 
  1303.54,165.092 1305.58,164.97 1307.62,164.995 1309.66,165.166 1311.69,165.484 1313.73,165.949 1315.77,166.561 1317.81,167.32 1319.85,168.225 1321.89,169.277 
  1323.93,170.476 1325.97,171.821 1328.01,173.313 1330.05,174.952 1332.09,176.738 1334.13,178.67 1336.17,180.75 1338.21,182.976 1340.25,185.348 1342.29,187.868 
  1344.33,190.534 1346.37,193.347 1348.41,196.307 1350.45,199.413 1352.49,202.666 1354.53,206.066 1356.57,209.613 1358.61,213.307 1360.65,217.147 1362.69,221.134 
  1364.73,225.267 1366.77,229.548 1368.8,233.975 1370.84,238.549 1372.88,243.27 1374.92,248.137 1376.96,253.151 1379,258.312 1381.04,263.62 1383.08,269.074 
  1385.12,274.675 1387.16,280.423 1389.2,286.318 1391.24,292.359 1393.28,298.548 1395.32,304.882 1397.36,311.364 1399.4,317.992 1401.44,324.768 1403.48,331.69 
  1405.52,338.758 1407.56,345.974 1409.6,353.336 1411.64,360.845 1413.68,368.5 1415.72,376.303 1417.76,384.252 1419.8,392.348 1421.84,400.59 1423.88,408.98 
  1425.92,417.516 1427.95,426.199 1429.99,435.028 1432.03,444.005 1434.07,453.128 1436.11,462.398 1438.15,471.814 1440.19,481.377 1442.23,491.088 1444.27,500.944 
  1446.31,510.948 1448.35,521.098 1450.39,531.395 1452.43,541.839 1454.47,552.43 1456.51,563.167 1458.55,574.051 1460.59,585.082 1462.63,596.26 1464.67,607.584 
  1466.71,619.055 1468.75,630.644 1470.79,642.18 1472.83,653.633 1474.87,665.004 1476.91,676.292 1478.95,687.498 1480.99,698.622 1483.03,709.664 1485.06,720.623 
  1487.1,731.5 1489.14,742.295 1491.18,753.007 1493.22,763.637 1495.26,774.184 1497.3,784.65 1499.34,795.033 1501.38,805.333 1503.42,815.551 1505.46,825.687 
  1507.5,835.741 1509.54,845.712 1511.58,855.601 1513.62,865.408 1515.66,875.132 1517.7,884.774 1519.74,894.334 1521.78,903.812 1523.82,913.207 1525.86,922.519 
  1527.9,931.75 1529.94,940.898 1531.98,949.964 1534.02,958.947 1536.06,967.848 1538.1,976.667 1540.14,985.403 1542.18,994.057 1544.21,1002.63 1546.25,1011.12 
  1548.29,1019.53 1550.33,1027.85 1552.37,1036.09 1554.41,1044.25 1556.45,1052.33 1558.49,1060.33 1560.53,1068.24 1562.57,1076.07 1564.61,1083.82 1566.65,1091.49 
  1568.69,1099.07 1570.73,1106.57 1572.77,1113.99 1574.81,1121.33 1576.85,1128.58 1578.89,1135.75 1580.93,1142.84 1582.97,1149.85 1585.01,1156.78 1587.05,1163.62 
  1589.09,1170.38 1591.13,1177.06 1593.17,1183.66 1595.21,1190.17 1597.25,1196.6 1599.29,1202.95 1601.32,1209.22 1603.36,1215.4 1605.4,1221.5 1607.44,1227.52 
  1609.48,1233.46 1611.52,1239.31 1613.56,1245.09 1615.6,1250.78 1617.64,1256.39 1619.68,1261.91 1621.72,1267.36 1623.76,1272.72 1625.8,1278 1627.84,1283.19 
  1629.88,1288.31 1631.92,1293.34 1633.96,1298.29 1636,1303.15 1638.04,1307.94 1640.08,1312.64 1642.12,1317.26 1644.16,1321.8 1646.2,1326.26 1648.24,1330.63 
  1650.28,1334.92 1652.32,1339.13 1654.36,1343.25 1656.4,1347.3 1658.44,1351.26 1660.47,1355.14 1662.51,1358.94 1664.55,1362.65 1666.59,1366.28 1668.63,1369.83 
  1670.67,1373.3 1672.71,1376.69 1674.75,1379.99 1676.79,1383.21 1678.83,1386.35 1680.87,1389.41 1682.91,1392.38 1684.95,1395.27 1686.99,1398.08 1689.03,1400.81 
  1691.07,1403.45 1693.11,1406.01 1695.15,1408.49 1697.19,1410.9 1699.23,1413.24 1701.27,1415.5 1703.31,1417.7 1705.35,1419.82 1707.39,1421.87 1709.43,1423.85 
  1711.47,1425.75 1713.51,1427.59 1715.55,1429.35 1717.58,1431.05 1719.62,1432.67 1721.66,1434.22 1723.7,1435.69 1725.74,1437.1 1727.78,1438.43 1729.82,1439.7 
  1731.86,1440.89 1733.9,1442.01 1735.94,1443.05 1737.98,1444.03 1740.02,1444.94 1742.06,1445.77 1744.1,1446.53 1746.14,1447.22 1748.18,1447.84 1750.22,1448.38 
  1752.26,1448.86 1754.3,1449.26 1756.34,1449.6 1758.38,1449.86 1760.42,1450.04 1762.46,1450.16 1764.5,1450.21 1766.54,1450.18 1768.58,1450.08 1770.62,1449.91 
  1772.66,1449.67 1774.7,1449.36 1776.73,1448.98 1778.77,1448.52 1780.81,1447.99 1782.85,1447.4 1784.89,1446.72 1786.93,1445.98 1788.97,1445.17 1791.01,1444.28 
  1793.05,1443.33 1795.09,1442.3 1797.13,1441.2 1799.17,1440.03 1801.21,1438.78 1803.25,1437.47 1805.29,1436.08 1807.33,1434.62 1809.37,1433.09 1811.41,1431.49 
  1813.45,1429.82 1815.49,1428.08 1817.53,1426.26 1819.57,1424.37 1821.61,1422.41 1823.65,1420.38 1825.69,1418.28 1827.73,1416.11 1829.77,1413.86 1831.81,1411.54 
  1833.84,1409.16 1835.88,1406.7 1837.92,1404.16 1839.96,1401.56 1842,1398.88 1844.04,1396.14 1846.08,1393.32 1848.12,1390.43 1850.16,1387.47 1852.2,1384.43 
  1854.24,1381.33 1856.28,1378.15 1858.32,1374.91 1860.36,1371.59 1862.4,1368.2 1864.44,1364.73 1866.48,1361.2 1868.52,1357.59 1870.56,1353.92 1872.6,1350.17 
  1874.64,1346.35 1876.68,1342.45 1878.72,1338.49 1880.76,1334.45 1882.8,1330.35 1884.84,1326.17 1886.88,1321.92 1888.92,1317.6 1890.96,1313.2 1892.99,1308.74 
  1895.03,1304.2 1897.07,1299.59 1899.11,1294.91 1901.15,1290.16 1903.19,1285.34 1905.23,1280.44 1907.27,1275.48 1909.31,1270.44 1911.35,1265.33 1913.39,1260.15 
  1915.43,1254.9 1917.47,1249.57 1919.51,1244.18 1921.55,1238.73 1923.59,1233.31 1925.63,1227.96 1927.67,1222.65 1929.71,1217.41 1931.75,1212.21 1933.79,1207.08 
  1935.83,1201.99 1937.87,1196.97 1939.91,1192 1941.95,1187.08 1943.99,1182.22 1946.03,1177.41 1948.07,1172.66 1950.1,1167.96 1952.14,1163.32 1954.18,1158.73 
  1956.22,1154.2 1958.26,1149.72 1960.3,1145.3 1962.34,1140.93 1964.38,1136.62 1966.42,1132.36 1968.46,1128.16 1970.5,1124.02 1972.54,1119.92 1974.58,1115.89 
  1976.62,1111.91 1978.66,1107.98 1980.7,1104.11 1982.74,1100.29 1984.78,1096.53 1986.82,1092.82 1988.86,1089.17 1990.9,1085.58 1992.94,1082.03 1994.98,1078.55 
  1997.02,1075.12 1999.06,1071.74 2001.1,1068.42 2003.14,1065.15 2005.18,1061.94 2007.22,1058.78 2009.25,1055.68 2011.29,1052.64 2013.33,1049.65 2015.37,1046.71 
  2017.41,1043.83 2019.45,1041 2021.49,1038.23 2023.53,1035.52 2025.57,1032.85 2027.61,1030.25 2029.65,1027.7 2031.69,1025.2 2033.73,1022.76 2035.77,1020.37 
  2037.81,1018.04 2039.85,1015.77 2041.89,1013.55 2043.93,1011.38 2045.97,1009.27 2048.01,1007.21 2050.05,1005.21 2052.09,1003.27 2054.13,1001.38 2056.17,999.542 
  2058.21,997.761 2060.25,996.036 2062.29,994.365 2064.33,992.749 2066.36,991.189 2068.4,989.683 2070.44,988.233 2072.48,986.838 2074.52,985.497 2076.56,984.212 
  2078.6,982.981 2080.64,981.806 2082.68,980.686 2084.72,979.62 2086.76,978.61 2088.8,977.655 2090.84,976.755 2092.88,975.91 2094.92,975.12 2096.96,974.384 
  2099,973.704 2101.04,973.079 2103.08,972.509 2105.12,971.994 2107.16,971.534 2109.2,971.129 2111.24,970.779 2113.28,970.484 2115.32,970.244 2117.36,970.06 
  2119.4,969.93 2121.44,969.855 2123.48,969.835 2125.51,969.87 2127.55,969.961 2129.59,970.106 2131.63,970.306 2133.67,970.562 2135.71,970.872 2137.75,971.238 
  2139.79,971.658 2141.83,972.133 2143.87,972.664 2145.91,973.249 2147.95,973.883 2149.99,974.524 2152.03,975.164 2154.07,975.805 2156.11,976.445 2158.15,977.086 
  2160.19,977.726 2162.23,978.367 2164.27,979.007 2166.31,979.648 2168.35,980.288 2170.39,980.929 2172.43,981.569 2174.47,982.21 2176.51,982.851 2178.55,983.491 
  2180.59,984.132 2182.62,984.772 2184.66,985.413 2186.7,986.053 2188.74,986.694 2190.78,987.334 2192.82,987.975 2194.86,988.615 2196.9,989.256 2198.94,989.896 
  2200.98,990.537 2203.02,991.178 2205.06,991.818 2207.1,992.459 2209.14,993.099 2211.18,993.74 2213.22,994.38 2215.26,995.021 2217.3,995.661 2219.34,996.302 
  2221.38,996.942 2223.42,997.583 2225.46,998.223 2227.5,998.864 2229.54,999.505 2231.58,1000.15 2233.62,1000.79 2235.66,1001.43 2237.7,1002.07 2239.74,1002.71 
  2241.77,1003.35 2243.81,1003.99 2245.85,1004.63 2247.89,1005.27 2249.93,1005.91 2251.97,1006.55 2254.01,1007.19 2256.05,1007.83 2258.09,1008.47 2260.13,1009.11 
  
  "/>
<polygon clip-path="url(#clip9001)" points="
1632.04,511.904 2249.26,511.904 2249.26,209.504 1632.04,209.504 
  " fill="#ffffff" fill-rule="evenodd" fill-opacity="1"/>
<polyline clip-path="url(#clip9001)" style="stroke:#000000; stroke-width:4; stroke-opacity:1; fill:none" points="
  1632.04,511.904 2249.26,511.904 2249.26,209.504 1632.04,209.504 1632.04,511.904 
  "/>
<circle clip-path="url(#clip9001)" style="fill:#000000; stroke:none; fill-opacity:1" cx="1740.04" cy="269.984" r="25"/>
<circle clip-path="url(#clip9001)" style="fill:#009af9; stroke:none; fill-opacity:1" cx="1740.04" cy="269.984" r="21"/>
<g clip-path="url(#clip9001)">
<text style="fill:#000000; fill-opacity:1; font-family:Arial,Helvetica Neue,Helvetica,sans-serif; font-size:48px; text-anchor:start;" transform="rotate(0, 1824.04, 287.484)" x="1824.04" y="287.484">Nodes</text>
</g>
<polyline clip-path="url(#clip9001)" style="stroke:#e26f46; stroke-width:4; stroke-opacity:1; fill:none" points="
  1656.04,330.464 1800.04,330.464 
  "/>
<g clip-path="url(#clip9001)">
<text style="fill:#000000; fill-opacity:1; font-family:Arial,Helvetica Neue,Helvetica,sans-serif; font-size:48px; text-anchor:start;" transform="rotate(0, 1824.04, 347.964)" x="1824.04" y="347.964">BSpline linear</text>
</g>
<polyline clip-path="url(#clip9001)" style="stroke:#3da44d; stroke-width:4; stroke-opacity:1; fill:none" points="
  1656.04,390.944 1800.04,390.944 
  "/>
<g clip-path="url(#clip9001)">
<text style="fill:#000000; fill-opacity:1; font-family:Arial,Helvetica Neue,Helvetica,sans-serif; font-size:48px; text-anchor:start;" transform="rotate(0, 1824.04, 408.444)" x="1824.04" y="408.444">BSpline cubic</text>
</g>
<polyline clip-path="url(#clip9001)" style="stroke:#c271d2; stroke-width:4; stroke-opacity:1; fill:none" points="
  1656.04,451.424 1800.04,451.424 
  "/>
<g clip-path="url(#clip9001)">
<text style="fill:#000000; fill-opacity:1; font-family:Arial,Helvetica Neue,Helvetica,sans-serif; font-size:48px; text-anchor:start;" transform="rotate(0, 1824.04, 468.924)" x="1824.04" y="468.924">BSpline quadratic</text>
</g>
</svg>
