<?xml version="1.0" encoding="utf-8"?>
<svg xmlns="http://www.w3.org/2000/svg" xmlns:xlink="http://www.w3.org/1999/xlink" width="600" height="400" viewBox="0 0 2400 1600">
<defs>
  <clipPath id="clip7800">
    <rect x="0" y="0" width="2000" height="2000"/>
  </clipPath>
</defs>
<defs>
  <clipPath id="clip7801">
    <rect x="0" y="0" width="2400" height="1600"/>
  </clipPath>
</defs>
<polygon clip-path="url(#clip7801)" points="
0,1600 2400,1600 2400,0 0,0 
  " fill="#ffffff" fill-rule="evenodd" fill-opacity="1"/>
<defs>
  <clipPath id="clip7802">
    <rect x="480" y="0" width="1681" height="1600"/>
  </clipPath>
</defs>
<polygon clip-path="url(#clip7801)" points="
161.394,1503.47 2321.26,1503.47 2321.26,125.984 161.394,125.984 
  " fill="#ffffff" fill-rule="evenodd" fill-opacity="1"/>
<defs>
  <clipPath id="clip7803">
    <rect x="161" y="125" width="2161" height="1378"/>
  </clipPath>
</defs>
<polyline clip-path="url(#clip7803)" style="stroke:#000000; stroke-width:2; stroke-opacity:0.1; fill:none" points="
  222.522,1503.47 222.522,125.984 
  "/>
<polyline clip-path="url(#clip7803)" style="stroke:#000000; stroke-width:2; stroke-opacity:0.1; fill:none" points="
  731.925,1503.47 731.925,125.984 
  "/>
<polyline clip-path="url(#clip7803)" style="stroke:#000000; stroke-width:2; stroke-opacity:0.1; fill:none" points="
  1241.33,1503.47 1241.33,125.984 
  "/>
<polyline clip-path="url(#clip7803)" style="stroke:#000000; stroke-width:2; stroke-opacity:0.1; fill:none" points="
  1750.73,1503.47 1750.73,125.984 
  "/>
<polyline clip-path="url(#clip7803)" style="stroke:#000000; stroke-width:2; stroke-opacity:0.1; fill:none" points="
  2260.13,1503.47 2260.13,125.984 
  "/>
<polyline clip-path="url(#clip7803)" style="stroke:#000000; stroke-width:2; stroke-opacity:0.1; fill:none" points="
  161.394,1357 2321.26,1357 
  "/>
<polyline clip-path="url(#clip7803)" style="stroke:#000000; stroke-width:2; stroke-opacity:0.1; fill:none" points="
  161.394,1094.99 2321.26,1094.99 
  "/>
<polyline clip-path="url(#clip7803)" style="stroke:#000000; stroke-width:2; stroke-opacity:0.1; fill:none" points="
  161.394,832.981 2321.26,832.981 
  "/>
<polyline clip-path="url(#clip7803)" style="stroke:#000000; stroke-width:2; stroke-opacity:0.1; fill:none" points="
  161.394,570.972 2321.26,570.972 
  "/>
<polyline clip-path="url(#clip7803)" style="stroke:#000000; stroke-width:2; stroke-opacity:0.1; fill:none" points="
  161.394,308.963 2321.26,308.963 
  "/>
<polyline clip-path="url(#clip7801)" style="stroke:#000000; stroke-width:4; stroke-opacity:1; fill:none" points="
  161.394,1503.47 2321.26,1503.47 
  "/>
<polyline clip-path="url(#clip7801)" style="stroke:#000000; stroke-width:4; stroke-opacity:1; fill:none" points="
  161.394,1503.47 161.394,125.984 
  "/>
<polyline clip-path="url(#clip7801)" style="stroke:#000000; stroke-width:4; stroke-opacity:1; fill:none" points="
  222.522,1503.47 222.522,1482.81 
  "/>
<polyline clip-path="url(#clip7801)" style="stroke:#000000; stroke-width:4; stroke-opacity:1; fill:none" points="
  731.925,1503.47 731.925,1482.81 
  "/>
<polyline clip-path="url(#clip7801)" style="stroke:#000000; stroke-width:4; stroke-opacity:1; fill:none" points="
  1241.33,1503.47 1241.33,1482.81 
  "/>
<polyline clip-path="url(#clip7801)" style="stroke:#000000; stroke-width:4; stroke-opacity:1; fill:none" points="
  1750.73,1503.47 1750.73,1482.81 
  "/>
<polyline clip-path="url(#clip7801)" style="stroke:#000000; stroke-width:4; stroke-opacity:1; fill:none" points="
  2260.13,1503.47 2260.13,1482.81 
  "/>
<polyline clip-path="url(#clip7801)" style="stroke:#000000; stroke-width:4; stroke-opacity:1; fill:none" points="
  161.394,1357 193.792,1357 
  "/>
<polyline clip-path="url(#clip7801)" style="stroke:#000000; stroke-width:4; stroke-opacity:1; fill:none" points="
  161.394,1094.99 193.792,1094.99 
  "/>
<polyline clip-path="url(#clip7801)" style="stroke:#000000; stroke-width:4; stroke-opacity:1; fill:none" points="
  161.394,832.981 193.792,832.981 
  "/>
<polyline clip-path="url(#clip7801)" style="stroke:#000000; stroke-width:4; stroke-opacity:1; fill:none" points="
  161.394,570.972 193.792,570.972 
  "/>
<polyline clip-path="url(#clip7801)" style="stroke:#000000; stroke-width:4; stroke-opacity:1; fill:none" points="
  161.394,308.963 193.792,308.963 
  "/>
<g clip-path="url(#clip7801)">
<text style="fill:#000000; fill-opacity:1; font-family:Arial,Helvetica Neue,Helvetica,sans-serif; font-size:48px; text-anchor:middle;" transform="rotate(0, 222.522, 1557.47)" x="222.522" y="1557.47">-1.0</text>
</g>
<g clip-path="url(#clip7801)">
<text style="fill:#000000; fill-opacity:1; font-family:Arial,Helvetica Neue,Helvetica,sans-serif; font-size:48px; text-anchor:middle;" transform="rotate(0, 731.925, 1557.47)" x="731.925" y="1557.47">-0.5</text>
</g>
<g clip-path="url(#clip7801)">
<text style="fill:#000000; fill-opacity:1; font-family:Arial,Helvetica Neue,Helvetica,sans-serif; font-size:48px; text-anchor:middle;" transform="rotate(0, 1241.33, 1557.47)" x="1241.33" y="1557.47">0.0</text>
</g>
<g clip-path="url(#clip7801)">
<text style="fill:#000000; fill-opacity:1; font-family:Arial,Helvetica Neue,Helvetica,sans-serif; font-size:48px; text-anchor:middle;" transform="rotate(0, 1750.73, 1557.47)" x="1750.73" y="1557.47">0.5</text>
</g>
<g clip-path="url(#clip7801)">
<text style="fill:#000000; fill-opacity:1; font-family:Arial,Helvetica Neue,Helvetica,sans-serif; font-size:48px; text-anchor:middle;" transform="rotate(0, 2260.13, 1557.47)" x="2260.13" y="1557.47">1.0</text>
</g>
<g clip-path="url(#clip7801)">
<text style="fill:#000000; fill-opacity:1; font-family:Arial,Helvetica Neue,Helvetica,sans-serif; font-size:48px; text-anchor:end;" transform="rotate(0, 137.394, 1374.5)" x="137.394" y="1374.5">0.4</text>
</g>
<g clip-path="url(#clip7801)">
<text style="fill:#000000; fill-opacity:1; font-family:Arial,Helvetica Neue,Helvetica,sans-serif; font-size:48px; text-anchor:end;" transform="rotate(0, 137.394, 1112.49)" x="137.394" y="1112.49">0.5</text>
</g>
<g clip-path="url(#clip7801)">
<text style="fill:#000000; fill-opacity:1; font-family:Arial,Helvetica Neue,Helvetica,sans-serif; font-size:48px; text-anchor:end;" transform="rotate(0, 137.394, 850.481)" x="137.394" y="850.481">0.6</text>
</g>
<g clip-path="url(#clip7801)">
<text style="fill:#000000; fill-opacity:1; font-family:Arial,Helvetica Neue,Helvetica,sans-serif; font-size:48px; text-anchor:end;" transform="rotate(0, 137.394, 588.472)" x="137.394" y="588.472">0.7</text>
</g>
<g clip-path="url(#clip7801)">
<text style="fill:#000000; fill-opacity:1; font-family:Arial,Helvetica Neue,Helvetica,sans-serif; font-size:48px; text-anchor:end;" transform="rotate(0, 137.394, 326.463)" x="137.394" y="326.463">0.8</text>
</g>
<g clip-path="url(#clip7801)">
<text style="fill:#000000; fill-opacity:1; font-family:Arial,Helvetica Neue,Helvetica,sans-serif; font-size:84px; text-anchor:middle;" transform="rotate(0, 1241.33, 73.2)" x="1241.33" y="73.2">BSpline linear interpolation</text>
</g>
<circle clip-path="url(#clip7803)" style="fill:#000000; stroke:none; fill-opacity:1" cx="222.522" cy="1428.49" r="18"/>
<circle clip-path="url(#clip7803)" style="fill:#009af9; stroke:none; fill-opacity:1" cx="222.522" cy="1428.49" r="14"/>
<circle clip-path="url(#clip7803)" style="fill:#000000; stroke:none; fill-opacity:1" cx="448.923" cy="1257.64" r="18"/>
<circle clip-path="url(#clip7803)" style="fill:#009af9; stroke:none; fill-opacity:1" cx="448.923" cy="1257.64" r="14"/>
<circle clip-path="url(#clip7803)" style="fill:#000000; stroke:none; fill-opacity:1" cx="675.324" cy="1442.11" r="18"/>
<circle clip-path="url(#clip7803)" style="fill:#009af9; stroke:none; fill-opacity:1" cx="675.324" cy="1442.11" r="14"/>
<circle clip-path="url(#clip7803)" style="fill:#000000; stroke:none; fill-opacity:1" cx="901.725" cy="458.672" r="18"/>
<circle clip-path="url(#clip7803)" style="fill:#009af9; stroke:none; fill-opacity:1" cx="901.725" cy="458.672" r="14"/>
<circle clip-path="url(#clip7803)" style="fill:#000000; stroke:none; fill-opacity:1" cx="1128.13" cy="377.898" r="18"/>
<circle clip-path="url(#clip7803)" style="fill:#009af9; stroke:none; fill-opacity:1" cx="1128.13" cy="377.898" r="14"/>
<circle clip-path="url(#clip7803)" style="fill:#000000; stroke:none; fill-opacity:1" cx="1354.53" cy="164.97" r="18"/>
<circle clip-path="url(#clip7803)" style="fill:#009af9; stroke:none; fill-opacity:1" cx="1354.53" cy="164.97" r="14"/>
<circle clip-path="url(#clip7803)" style="fill:#000000; stroke:none; fill-opacity:1" cx="1580.93" cy="1155.86" r="18"/>
<circle clip-path="url(#clip7803)" style="fill:#009af9; stroke:none; fill-opacity:1" cx="1580.93" cy="1155.86" r="14"/>
<circle clip-path="url(#clip7803)" style="fill:#000000; stroke:none; fill-opacity:1" cx="1807.33" cy="1464.49" r="18"/>
<circle clip-path="url(#clip7803)" style="fill:#009af9; stroke:none; fill-opacity:1" cx="1807.33" cy="1464.49" r="14"/>
<circle clip-path="url(#clip7803)" style="fill:#000000; stroke:none; fill-opacity:1" cx="2033.73" cy="1028.84" r="18"/>
<circle clip-path="url(#clip7803)" style="fill:#009af9; stroke:none; fill-opacity:1" cx="2033.73" cy="1028.84" r="14"/>
<circle clip-path="url(#clip7803)" style="fill:#000000; stroke:none; fill-opacity:1" cx="2260.13" cy="1014.4" r="18"/>
<circle clip-path="url(#clip7803)" style="fill:#009af9; stroke:none; fill-opacity:1" cx="2260.13" cy="1014.4" r="14"/>
<polyline clip-path="url(#clip7803)" style="stroke:#e26f46; stroke-width:4; stroke-opacity:1; fill:none" points="
  222.522,1428.49 224.562,1426.95 226.602,1425.41 228.641,1423.87 230.681,1422.33 232.721,1420.79 234.76,1419.25 236.8,1417.71 238.84,1416.17 240.879,1414.64 
  242.919,1413.1 244.958,1411.56 246.998,1410.02 249.038,1408.48 251.077,1406.94 253.117,1405.4 255.157,1403.86 257.196,1402.32 259.236,1400.78 261.276,1399.24 
  263.315,1397.7 265.355,1396.17 267.395,1394.63 269.434,1393.09 271.474,1391.55 273.514,1390.01 275.553,1388.47 277.593,1386.93 279.632,1385.39 281.672,1383.85 
  283.712,1382.31 285.751,1380.77 287.791,1379.23 289.831,1377.7 291.87,1376.16 293.91,1374.62 295.95,1373.08 297.989,1371.54 300.029,1370 302.069,1368.46 
  304.108,1366.92 306.148,1365.38 308.188,1363.84 310.227,1362.3 312.267,1360.76 314.307,1359.23 316.346,1357.69 318.386,1356.15 320.425,1354.61 322.465,1353.07 
  324.505,1351.53 326.544,1349.99 328.584,1348.45 330.624,1346.91 332.663,1345.37 334.703,1343.83 336.743,1342.29 338.782,1340.76 340.822,1339.22 342.862,1337.68 
  344.901,1336.14 346.941,1334.6 348.981,1333.06 351.02,1331.52 353.06,1329.98 355.099,1328.44 357.139,1326.9 359.179,1325.36 361.218,1323.82 363.258,1322.29 
  365.298,1320.75 367.337,1319.21 369.377,1317.67 371.417,1316.13 373.456,1314.59 375.496,1313.05 377.536,1311.51 379.575,1309.97 381.615,1308.43 383.655,1306.89 
  385.694,1305.35 387.734,1303.82 389.774,1302.28 391.813,1300.74 393.853,1299.2 395.892,1297.66 397.932,1296.12 399.972,1294.58 402.011,1293.04 404.051,1291.5 
  406.091,1289.96 408.13,1288.42 410.17,1286.88 412.21,1285.35 414.249,1283.81 416.289,1282.27 418.329,1280.73 420.368,1279.19 422.408,1277.65 424.448,1276.11 
  426.487,1274.57 428.527,1273.03 430.567,1271.49 432.606,1269.95 434.646,1268.41 436.685,1266.88 438.725,1265.34 440.765,1263.8 442.804,1262.26 444.844,1260.72 
  446.884,1259.18 448.923,1257.64 450.963,1259.3 453.003,1260.96 455.042,1262.63 457.082,1264.29 459.122,1265.95 461.161,1267.61 463.201,1269.27 465.241,1270.94 
  467.28,1272.6 469.32,1274.26 471.359,1275.92 473.399,1277.58 475.439,1279.25 477.478,1280.91 479.518,1282.57 481.558,1284.23 483.597,1285.89 485.637,1287.56 
  487.677,1289.22 489.716,1290.88 491.756,1292.54 493.796,1294.2 495.835,1295.86 497.875,1297.53 499.915,1299.19 501.954,1300.85 503.994,1302.51 506.034,1304.17 
  508.073,1305.84 510.113,1307.5 512.152,1309.16 514.192,1310.82 516.232,1312.48 518.271,1314.15 520.311,1315.81 522.351,1317.47 524.39,1319.13 526.43,1320.79 
  528.47,1322.46 530.509,1324.12 532.549,1325.78 534.589,1327.44 536.628,1329.1 538.668,1330.77 540.708,1332.43 542.747,1334.09 544.787,1335.75 546.826,1337.41 
  548.866,1339.07 550.906,1340.74 552.945,1342.4 554.985,1344.06 557.025,1345.72 559.064,1347.38 561.104,1349.05 563.144,1350.71 565.183,1352.37 567.223,1354.03 
  569.263,1355.69 571.302,1357.36 573.342,1359.02 575.382,1360.68 577.421,1362.34 579.461,1364 581.501,1365.67 583.54,1367.33 585.58,1368.99 587.619,1370.65 
  589.659,1372.31 591.699,1373.98 593.738,1375.64 595.778,1377.3 597.818,1378.96 599.857,1380.62 601.897,1382.28 603.937,1383.95 605.976,1385.61 608.016,1387.27 
  610.056,1388.93 612.095,1390.59 614.135,1392.26 616.175,1393.92 618.214,1395.58 620.254,1397.24 622.294,1398.9 624.333,1400.57 626.373,1402.23 628.412,1403.89 
  630.452,1405.55 632.492,1407.21 634.531,1408.88 636.571,1410.54 638.611,1412.2 640.65,1413.86 642.69,1415.52 644.73,1417.19 646.769,1418.85 648.809,1420.51 
  650.849,1422.17 652.888,1423.83 654.928,1425.49 656.968,1427.16 659.007,1428.82 661.047,1430.48 663.086,1432.14 665.126,1433.8 667.166,1435.47 669.205,1437.13 
  671.245,1438.79 673.285,1440.45 675.324,1442.11 677.364,1433.25 679.404,1424.39 681.443,1415.53 683.483,1406.67 685.523,1397.81 687.562,1388.95 689.602,1380.1 
  691.642,1371.24 693.681,1362.38 695.721,1353.52 697.761,1344.66 699.8,1335.8 701.84,1326.94 703.879,1318.08 705.919,1309.22 707.959,1300.36 709.998,1291.5 
  712.038,1282.64 714.078,1273.78 716.117,1264.92 718.157,1256.06 720.197,1247.2 722.236,1238.34 724.276,1229.48 726.316,1220.62 728.355,1211.76 730.395,1202.9 
  732.435,1194.04 734.474,1185.18 736.514,1176.32 738.553,1167.46 740.593,1158.6 742.633,1149.74 744.672,1140.88 746.712,1132.02 748.752,1123.16 750.791,1114.3 
  752.831,1105.44 754.871,1096.58 756.91,1087.72 758.95,1078.86 760.99,1070 763.029,1061.14 765.069,1052.28 767.109,1043.42 769.148,1034.56 771.188,1025.7 
  773.228,1016.84 775.267,1007.98 777.307,999.122 779.346,990.262 781.386,981.403 783.426,972.543 785.465,963.683 787.505,954.823 789.545,945.963 791.584,937.103 
  793.624,928.244 795.664,919.384 797.703,910.524 799.743,901.664 801.783,892.804 803.822,883.944 805.862,875.085 807.902,866.225 809.941,857.365 811.981,848.505 
  814.02,839.645 816.06,830.785 818.1,821.926 820.139,813.066 822.179,804.206 824.219,795.346 826.258,786.486 828.298,777.626 830.338,768.767 832.377,759.907 
  834.417,751.047 836.457,742.187 838.496,733.327 840.536,724.467 842.576,715.607 844.615,706.748 846.655,697.888 848.695,689.028 850.734,680.168 852.774,671.308 
  854.813,662.448 856.853,653.589 858.893,644.729 860.932,635.869 862.972,627.009 865.012,618.149 867.051,609.289 869.091,600.43 871.131,591.57 873.17,582.71 
  875.21,573.85 877.25,564.99 879.289,556.13 881.329,547.271 883.369,538.411 885.408,529.551 887.448,520.691 889.488,511.831 891.527,502.971 893.567,494.112 
  895.606,485.252 897.646,476.392 899.686,467.532 901.725,458.672 903.765,457.945 905.805,457.217 907.844,456.489 909.884,455.762 911.924,455.034 913.963,454.306 
  916.003,453.578 918.043,452.851 920.082,452.123 922.122,451.395 924.162,450.668 926.201,449.94 928.241,449.212 930.28,448.485 932.32,447.757 934.36,447.029 
  936.399,446.302 938.439,445.574 940.479,444.846 942.518,444.118 944.558,443.391 946.598,442.663 948.637,441.935 950.677,441.208 952.717,440.48 954.756,439.752 
  956.796,439.025 958.836,438.297 960.875,437.569 962.915,436.842 964.955,436.114 966.994,435.386 969.034,434.658 971.073,433.931 973.113,433.203 975.153,432.475 
  977.192,431.748 979.232,431.02 981.272,430.292 983.311,429.565 985.351,428.837 987.391,428.109 989.43,427.382 991.47,426.654 993.51,425.926 995.549,425.198 
  997.589,424.471 999.629,423.743 1001.67,423.015 1003.71,422.288 1005.75,421.56 1007.79,420.832 1009.83,420.105 1011.87,419.377 1013.91,418.649 1015.95,417.922 
  1017.99,417.194 1020.03,416.466 1022.06,415.738 1024.1,415.011 1026.14,414.283 1028.18,413.555 1030.22,412.828 1032.26,412.1 1034.3,411.372 1036.34,410.645 
  1038.38,409.917 1040.42,409.189 1042.46,408.462 1044.5,407.734 1046.54,407.006 1048.58,406.278 1050.62,405.551 1052.66,404.823 1054.7,404.095 1056.74,403.368 
  1058.78,402.64 1060.82,401.912 1062.86,401.185 1064.9,400.457 1066.94,399.729 1068.98,399.002 1071.02,398.274 1073.06,397.546 1075.1,396.818 1077.14,396.091 
  1079.17,395.363 1081.21,394.635 1083.25,393.908 1085.29,393.18 1087.33,392.452 1089.37,391.725 1091.41,390.997 1093.45,390.269 1095.49,389.542 1097.53,388.814 
  1099.57,388.086 1101.61,387.358 1103.65,386.631 1105.69,385.903 1107.73,385.175 1109.77,384.448 1111.81,383.72 1113.85,382.992 1115.89,382.265 1117.93,381.537 
  1119.97,380.809 1122.01,380.082 1124.05,379.354 1126.09,378.626 1128.13,377.898 1130.17,375.98 1132.21,374.062 1134.25,372.144 1136.29,370.225 1138.32,368.307 
  1140.36,366.389 1142.4,364.471 1144.44,362.552 1146.48,360.634 1148.52,358.716 1150.56,356.797 1152.6,354.879 1154.64,352.961 1156.68,351.043 1158.72,349.124 
  1160.76,347.206 1162.8,345.288 1164.84,343.369 1166.88,341.451 1168.92,339.533 1170.96,337.615 1173,335.696 1175.04,333.778 1177.08,331.86 1179.12,329.942 
  1181.16,328.023 1183.2,326.105 1185.24,324.187 1187.28,322.268 1189.32,320.35 1191.36,318.432 1193.4,316.514 1195.43,314.595 1197.47,312.677 1199.51,310.759 
  1201.55,308.841 1203.59,306.922 1205.63,305.004 1207.67,303.086 1209.71,301.167 1211.75,299.249 1213.79,297.331 1215.83,295.413 1217.87,293.494 1219.91,291.576 
  1221.95,289.658 1223.99,287.739 1226.03,285.821 1228.07,283.903 1230.11,281.985 1232.15,280.066 1234.19,278.148 1236.23,276.23 1238.27,274.312 1240.31,272.393 
  1242.35,270.475 1244.39,268.557 1246.43,266.638 1248.47,264.72 1250.51,262.802 1252.55,260.884 1254.58,258.965 1256.62,257.047 1258.66,255.129 1260.7,253.211 
  1262.74,251.292 1264.78,249.374 1266.82,247.456 1268.86,245.537 1270.9,243.619 1272.94,241.701 1274.98,239.783 1277.02,237.864 1279.06,235.946 1281.1,234.028 
  1283.14,232.109 1285.18,230.191 1287.22,228.273 1289.26,226.355 1291.3,224.436 1293.34,222.518 1295.38,220.6 1297.42,218.682 1299.46,216.763 1301.5,214.845 
  1303.54,212.927 1305.58,211.008 1307.62,209.09 1309.66,207.172 1311.69,205.254 1313.73,203.335 1315.77,201.417 1317.81,199.499 1319.85,197.581 1321.89,195.662 
  1323.93,193.744 1325.97,191.826 1328.01,189.907 1330.05,187.989 1332.09,186.071 1334.13,184.153 1336.17,182.234 1338.21,180.316 1340.25,178.398 1342.29,176.479 
  1344.33,174.561 1346.37,172.643 1348.41,170.725 1350.45,168.806 1352.49,166.888 1354.53,164.97 1356.57,173.897 1358.61,182.824 1360.65,191.751 1362.69,200.677 
  1364.73,209.604 1366.77,218.531 1368.8,227.458 1370.84,236.385 1372.88,245.312 1374.92,254.239 1376.96,263.166 1379,272.093 1381.04,281.02 1383.08,289.946 
  1385.12,298.873 1387.16,307.8 1389.2,316.727 1391.24,325.654 1393.28,334.581 1395.32,343.508 1397.36,352.435 1399.4,361.362 1401.44,370.289 1403.48,379.215 
  1405.52,388.142 1407.56,397.069 1409.6,405.996 1411.64,414.923 1413.68,423.85 1415.72,432.777 1417.76,441.704 1419.8,450.631 1421.84,459.558 1423.88,468.484 
  1425.92,477.411 1427.95,486.338 1429.99,495.265 1432.03,504.192 1434.07,513.119 1436.11,522.046 1438.15,530.973 1440.19,539.9 1442.23,548.827 1444.27,557.753 
  1446.31,566.68 1448.35,575.607 1450.39,584.534 1452.43,593.461 1454.47,602.388 1456.51,611.315 1458.55,620.242 1460.59,629.169 1462.63,638.096 1464.67,647.022 
  1466.71,655.949 1468.75,664.876 1470.79,673.803 1472.83,682.73 1474.87,691.657 1476.91,700.584 1478.95,709.511 1480.99,718.438 1483.03,727.365 1485.06,736.291 
  1487.1,745.218 1489.14,754.145 1491.18,763.072 1493.22,771.999 1495.26,780.926 1497.3,789.853 1499.34,798.78 1501.38,807.707 1503.42,816.634 1505.46,825.56 
  1507.5,834.487 1509.54,843.414 1511.58,852.341 1513.62,861.268 1515.66,870.195 1517.7,879.122 1519.74,888.049 1521.78,896.976 1523.82,905.903 1525.86,914.829 
  1527.9,923.756 1529.94,932.683 1531.98,941.61 1534.02,950.537 1536.06,959.464 1538.1,968.391 1540.14,977.318 1542.18,986.245 1544.21,995.172 1546.25,1004.1 
  1548.29,1013.03 1550.33,1021.95 1552.37,1030.88 1554.41,1039.81 1556.45,1048.73 1558.49,1057.66 1560.53,1066.59 1562.57,1075.51 1564.61,1084.44 1566.65,1093.37 
  1568.69,1102.29 1570.73,1111.22 1572.77,1120.15 1574.81,1129.08 1576.85,1138 1578.89,1146.93 1580.93,1155.86 1582.97,1158.64 1585.01,1161.42 1587.05,1164.2 
  1589.09,1166.98 1591.13,1169.76 1593.17,1172.54 1595.21,1175.32 1597.25,1178.1 1599.29,1180.88 1601.32,1183.66 1603.36,1186.44 1605.4,1189.22 1607.44,1192 
  1609.48,1194.78 1611.52,1197.56 1613.56,1200.34 1615.6,1203.12 1617.64,1205.9 1619.68,1208.68 1621.72,1211.47 1623.76,1214.25 1625.8,1217.03 1627.84,1219.81 
  1629.88,1222.59 1631.92,1225.37 1633.96,1228.15 1636,1230.93 1638.04,1233.71 1640.08,1236.49 1642.12,1239.27 1644.16,1242.05 1646.2,1244.83 1648.24,1247.61 
  1650.28,1250.39 1652.32,1253.17 1654.36,1255.95 1656.4,1258.73 1658.44,1261.51 1660.47,1264.29 1662.51,1267.08 1664.55,1269.86 1666.59,1272.64 1668.63,1275.42 
  1670.67,1278.2 1672.71,1280.98 1674.75,1283.76 1676.79,1286.54 1678.83,1289.32 1680.87,1292.1 1682.91,1294.88 1684.95,1297.66 1686.99,1300.44 1689.03,1303.22 
  1691.07,1306 1693.11,1308.78 1695.15,1311.56 1697.19,1314.34 1699.23,1317.12 1701.27,1319.9 1703.31,1322.68 1705.35,1325.47 1707.39,1328.25 1709.43,1331.03 
  1711.47,1333.81 1713.51,1336.59 1715.55,1339.37 1717.58,1342.15 1719.62,1344.93 1721.66,1347.71 1723.7,1350.49 1725.74,1353.27 1727.78,1356.05 1729.82,1358.83 
  1731.86,1361.61 1733.9,1364.39 1735.94,1367.17 1737.98,1369.95 1740.02,1372.73 1742.06,1375.51 1744.1,1378.29 1746.14,1381.07 1748.18,1383.86 1750.22,1386.64 
  1752.26,1389.42 1754.3,1392.2 1756.34,1394.98 1758.38,1397.76 1760.42,1400.54 1762.46,1403.32 1764.5,1406.1 1766.54,1408.88 1768.58,1411.66 1770.62,1414.44 
  1772.66,1417.22 1774.7,1420 1776.73,1422.78 1778.77,1425.56 1780.81,1428.34 1782.85,1431.12 1784.89,1433.9 1786.93,1436.68 1788.97,1439.46 1791.01,1442.25 
  1793.05,1445.03 1795.09,1447.81 1797.13,1450.59 1799.17,1453.37 1801.21,1456.15 1803.25,1458.93 1805.29,1461.71 1807.33,1464.49 1809.37,1460.56 1811.41,1456.64 
  1813.45,1452.71 1815.49,1448.79 1817.53,1444.87 1819.57,1440.94 1821.61,1437.02 1823.65,1433.09 1825.69,1429.17 1827.73,1425.24 1829.77,1421.32 1831.81,1417.39 
  1833.84,1413.47 1835.88,1409.54 1837.92,1405.62 1839.96,1401.69 1842,1397.77 1844.04,1393.84 1846.08,1389.92 1848.12,1385.99 1850.16,1382.07 1852.2,1378.14 
  1854.24,1374.22 1856.28,1370.29 1858.32,1366.37 1860.36,1362.44 1862.4,1358.52 1864.44,1354.59 1866.48,1350.67 1868.52,1346.74 1870.56,1342.82 1872.6,1338.9 
  1874.64,1334.97 1876.68,1331.05 1878.72,1327.12 1880.76,1323.2 1882.8,1319.27 1884.84,1315.35 1886.88,1311.42 1888.92,1307.5 1890.96,1303.57 1892.99,1299.65 
  1895.03,1295.72 1897.07,1291.8 1899.11,1287.87 1901.15,1283.95 1903.19,1280.02 1905.23,1276.1 1907.27,1272.17 1909.31,1268.25 1911.35,1264.32 1913.39,1260.4 
  1915.43,1256.47 1917.47,1252.55 1919.51,1248.62 1921.55,1244.7 1923.59,1240.78 1925.63,1236.85 1927.67,1232.93 1929.71,1229 1931.75,1225.08 1933.79,1221.15 
  1935.83,1217.23 1937.87,1213.3 1939.91,1209.38 1941.95,1205.45 1943.99,1201.53 1946.03,1197.6 1948.07,1193.68 1950.1,1189.75 1952.14,1185.83 1954.18,1181.9 
  1956.22,1177.98 1958.26,1174.05 1960.3,1170.13 1962.34,1166.2 1964.38,1162.28 1966.42,1158.35 1968.46,1154.43 1970.5,1150.5 1972.54,1146.58 1974.58,1142.66 
  1976.62,1138.73 1978.66,1134.81 1980.7,1130.88 1982.74,1126.96 1984.78,1123.03 1986.82,1119.11 1988.86,1115.18 1990.9,1111.26 1992.94,1107.33 1994.98,1103.41 
  1997.02,1099.48 1999.06,1095.56 2001.1,1091.63 2003.14,1087.71 2005.18,1083.78 2007.22,1079.86 2009.25,1075.93 2011.29,1072.01 2013.33,1068.08 2015.37,1064.16 
  2017.41,1060.23 2019.45,1056.31 2021.49,1052.38 2023.53,1048.46 2025.57,1044.53 2027.61,1040.61 2029.65,1036.69 2031.69,1032.76 2033.73,1028.84 2035.77,1028.71 
  2037.81,1028.58 2039.85,1028.45 2041.89,1028.32 2043.93,1028.19 2045.97,1028.06 2048.01,1027.93 2050.05,1027.8 2052.09,1027.67 2054.13,1027.54 2056.17,1027.41 
  2058.21,1027.28 2060.25,1027.15 2062.29,1027.01 2064.33,1026.88 2066.36,1026.75 2068.4,1026.62 2070.44,1026.49 2072.48,1026.36 2074.52,1026.23 2076.56,1026.1 
  2078.6,1025.97 2080.64,1025.84 2082.68,1025.71 2084.72,1025.58 2086.76,1025.45 2088.8,1025.32 2090.84,1025.19 2092.88,1025.06 2094.92,1024.93 2096.96,1024.8 
  2099,1024.67 2101.04,1024.54 2103.08,1024.41 2105.12,1024.28 2107.16,1024.15 2109.2,1024.02 2111.24,1023.89 2113.28,1023.76 2115.32,1023.63 2117.36,1023.5 
  2119.4,1023.37 2121.44,1023.24 2123.48,1023.11 2125.51,1022.98 2127.55,1022.85 2129.59,1022.72 2131.63,1022.59 2133.67,1022.46 2135.71,1022.33 2137.75,1022.2 
  2139.79,1022.07 2141.83,1021.94 2143.87,1021.81 2145.91,1021.68 2147.95,1021.55 2149.99,1021.42 2152.03,1021.29 2154.07,1021.16 2156.11,1021.03 2158.15,1020.9 
  2160.19,1020.77 2162.23,1020.64 2164.27,1020.51 2166.31,1020.38 2168.35,1020.25 2170.39,1020.12 2172.43,1019.99 2174.47,1019.86 2176.51,1019.73 2178.55,1019.6 
  2180.59,1019.47 2182.62,1019.34 2184.66,1019.21 2186.7,1019.08 2188.74,1018.95 2190.78,1018.82 2192.82,1018.69 2194.86,1018.56 2196.9,1018.43 2198.94,1018.3 
  2200.98,1018.17 2203.02,1018.04 2205.06,1017.91 2207.1,1017.78 2209.14,1017.65 2211.18,1017.52 2213.22,1017.39 2215.26,1017.26 2217.3,1017.13 2219.34,1017 
  2221.38,1016.87 2223.42,1016.74 2225.46,1016.61 2227.5,1016.48 2229.54,1016.35 2231.58,1016.22 2233.62,1016.09 2235.66,1015.96 2237.7,1015.83 2239.74,1015.7 
  2241.77,1015.57 2243.81,1015.44 2245.85,1015.31 2247.89,1015.18 2249.93,1015.05 2251.97,1014.92 2254.01,1014.79 2256.05,1014.66 2258.09,1014.53 2260.13,1014.4 
  
  "/>
<polygon clip-path="url(#clip7801)" points="
1712.32,390.944 2249.26,390.944 2249.26,209.504 1712.32,209.504 
  " fill="#ffffff" fill-rule="evenodd" fill-opacity="1"/>
<polyline clip-path="url(#clip7801)" style="stroke:#000000; stroke-width:4; stroke-opacity:1; fill:none" points="
  1712.32,390.944 2249.26,390.944 2249.26,209.504 1712.32,209.504 1712.32,390.944 
  "/>
<circle clip-path="url(#clip7801)" style="fill:#000000; stroke:none; fill-opacity:1" cx="1820.32" cy="269.984" r="25"/>
<circle clip-path="url(#clip7801)" style="fill:#009af9; stroke:none; fill-opacity:1" cx="1820.32" cy="269.984" r="21"/>
<g clip-path="url(#clip7801)">
<text style="fill:#000000; fill-opacity:1; font-family:Arial,Helvetica Neue,Helvetica,sans-serif; font-size:48px; text-anchor:start;" transform="rotate(0, 1904.32, 287.484)" x="1904.32" y="287.484">Nodes</text>
</g>
<polyline clip-path="url(#clip7801)" style="stroke:#e26f46; stroke-width:4; stroke-opacity:1; fill:none" points="
  1736.32,330.464 1880.32,330.464 
  "/>
<g clip-path="url(#clip7801)">
<text style="fill:#000000; fill-opacity:1; font-family:Arial,Helvetica Neue,Helvetica,sans-serif; font-size:48px; text-anchor:start;" transform="rotate(0, 1904.32, 347.964)" x="1904.32" y="347.964">BSpline linear</text>
</g>
</svg>
