<?xml version="1.0" encoding="utf-8"?>
<svg xmlns="http://www.w3.org/2000/svg" xmlns:xlink="http://www.w3.org/1999/xlink" width="600" height="400" viewBox="0 0 2400 1600">
<defs>
  <clipPath id="clip8200">
    <rect x="0" y="0" width="2000" height="2000"/>
  </clipPath>
</defs>
<defs>
  <clipPath id="clip8201">
    <rect x="0" y="0" width="2400" height="1600"/>
  </clipPath>
</defs>
<polygon clip-path="url(#clip8201)" points="
0,1600 2400,1600 2400,0 0,0 
  " fill="#ffffff" fill-rule="evenodd" fill-opacity="1"/>
<defs>
  <clipPath id="clip8202">
    <rect x="480" y="0" width="1681" height="1600"/>
  </clipPath>
</defs>
<polygon clip-path="url(#clip8201)" points="
161.394,1503.47 2321.26,1503.47 2321.26,125.984 161.394,125.984 
  " fill="#ffffff" fill-rule="evenodd" fill-opacity="1"/>
<defs>
  <clipPath id="clip8203">
    <rect x="161" y="125" width="2161" height="1378"/>
  </clipPath>
</defs>
<polyline clip-path="url(#clip8203)" style="stroke:#000000; stroke-width:2; stroke-opacity:0.1; fill:none" points="
  222.522,1503.47 222.522,125.984 
  "/>
<polyline clip-path="url(#clip8203)" style="stroke:#000000; stroke-width:2; stroke-opacity:0.1; fill:none" points="
  731.925,1503.47 731.925,125.984 
  "/>
<polyline clip-path="url(#clip8203)" style="stroke:#000000; stroke-width:2; stroke-opacity:0.1; fill:none" points="
  1241.33,1503.47 1241.33,125.984 
  "/>
<polyline clip-path="url(#clip8203)" style="stroke:#000000; stroke-width:2; stroke-opacity:0.1; fill:none" points="
  1750.73,1503.47 1750.73,125.984 
  "/>
<polyline clip-path="url(#clip8203)" style="stroke:#000000; stroke-width:2; stroke-opacity:0.1; fill:none" points="
  2260.13,1503.47 2260.13,125.984 
  "/>
<polyline clip-path="url(#clip8203)" style="stroke:#000000; stroke-width:2; stroke-opacity:0.1; fill:none" points="
  161.394,1331.99 2321.26,1331.99 
  "/>
<polyline clip-path="url(#clip8203)" style="stroke:#000000; stroke-width:2; stroke-opacity:0.1; fill:none" points="
  161.394,1082.38 2321.26,1082.38 
  "/>
<polyline clip-path="url(#clip8203)" style="stroke:#000000; stroke-width:2; stroke-opacity:0.1; fill:none" points="
  161.394,832.765 2321.26,832.765 
  "/>
<polyline clip-path="url(#clip8203)" style="stroke:#000000; stroke-width:2; stroke-opacity:0.1; fill:none" points="
  161.394,583.152 2321.26,583.152 
  "/>
<polyline clip-path="url(#clip8203)" style="stroke:#000000; stroke-width:2; stroke-opacity:0.1; fill:none" points="
  161.394,333.539 2321.26,333.539 
  "/>
<polyline clip-path="url(#clip8201)" style="stroke:#000000; stroke-width:4; stroke-opacity:1; fill:none" points="
  161.394,1503.47 2321.26,1503.47 
  "/>
<polyline clip-path="url(#clip8201)" style="stroke:#000000; stroke-width:4; stroke-opacity:1; fill:none" points="
  161.394,1503.47 161.394,125.984 
  "/>
<polyline clip-path="url(#clip8201)" style="stroke:#000000; stroke-width:4; stroke-opacity:1; fill:none" points="
  222.522,1503.47 222.522,1482.81 
  "/>
<polyline clip-path="url(#clip8201)" style="stroke:#000000; stroke-width:4; stroke-opacity:1; fill:none" points="
  731.925,1503.47 731.925,1482.81 
  "/>
<polyline clip-path="url(#clip8201)" style="stroke:#000000; stroke-width:4; stroke-opacity:1; fill:none" points="
  1241.33,1503.47 1241.33,1482.81 
  "/>
<polyline clip-path="url(#clip8201)" style="stroke:#000000; stroke-width:4; stroke-opacity:1; fill:none" points="
  1750.73,1503.47 1750.73,1482.81 
  "/>
<polyline clip-path="url(#clip8201)" style="stroke:#000000; stroke-width:4; stroke-opacity:1; fill:none" points="
  2260.13,1503.47 2260.13,1482.81 
  "/>
<polyline clip-path="url(#clip8201)" style="stroke:#000000; stroke-width:4; stroke-opacity:1; fill:none" points="
  161.394,1331.99 193.792,1331.99 
  "/>
<polyline clip-path="url(#clip8201)" style="stroke:#000000; stroke-width:4; stroke-opacity:1; fill:none" points="
  161.394,1082.38 193.792,1082.38 
  "/>
<polyline clip-path="url(#clip8201)" style="stroke:#000000; stroke-width:4; stroke-opacity:1; fill:none" points="
  161.394,832.765 193.792,832.765 
  "/>
<polyline clip-path="url(#clip8201)" style="stroke:#000000; stroke-width:4; stroke-opacity:1; fill:none" points="
  161.394,583.152 193.792,583.152 
  "/>
<polyline clip-path="url(#clip8201)" style="stroke:#000000; stroke-width:4; stroke-opacity:1; fill:none" points="
  161.394,333.539 193.792,333.539 
  "/>
<g clip-path="url(#clip8201)">
<text style="fill:#000000; fill-opacity:1; font-family:Arial,Helvetica Neue,Helvetica,sans-serif; font-size:48px; text-anchor:middle;" transform="rotate(0, 222.522, 1557.47)" x="222.522" y="1557.47">-1.0</text>
</g>
<g clip-path="url(#clip8201)">
<text style="fill:#000000; fill-opacity:1; font-family:Arial,Helvetica Neue,Helvetica,sans-serif; font-size:48px; text-anchor:middle;" transform="rotate(0, 731.925, 1557.47)" x="731.925" y="1557.47">-0.5</text>
</g>
<g clip-path="url(#clip8201)">
<text style="fill:#000000; fill-opacity:1; font-family:Arial,Helvetica Neue,Helvetica,sans-serif; font-size:48px; text-anchor:middle;" transform="rotate(0, 1241.33, 1557.47)" x="1241.33" y="1557.47">0.0</text>
</g>
<g clip-path="url(#clip8201)">
<text style="fill:#000000; fill-opacity:1; font-family:Arial,Helvetica Neue,Helvetica,sans-serif; font-size:48px; text-anchor:middle;" transform="rotate(0, 1750.73, 1557.47)" x="1750.73" y="1557.47">0.5</text>
</g>
<g clip-path="url(#clip8201)">
<text style="fill:#000000; fill-opacity:1; font-family:Arial,Helvetica Neue,Helvetica,sans-serif; font-size:48px; text-anchor:middle;" transform="rotate(0, 2260.13, 1557.47)" x="2260.13" y="1557.47">1.0</text>
</g>
<g clip-path="url(#clip8201)">
<text style="fill:#000000; fill-opacity:1; font-family:Arial,Helvetica Neue,Helvetica,sans-serif; font-size:48px; text-anchor:end;" transform="rotate(0, 137.394, 1349.49)" x="137.394" y="1349.49">0.4</text>
</g>
<g clip-path="url(#clip8201)">
<text style="fill:#000000; fill-opacity:1; font-family:Arial,Helvetica Neue,Helvetica,sans-serif; font-size:48px; text-anchor:end;" transform="rotate(0, 137.394, 1099.88)" x="137.394" y="1099.88">0.5</text>
</g>
<g clip-path="url(#clip8201)">
<text style="fill:#000000; fill-opacity:1; font-family:Arial,Helvetica Neue,Helvetica,sans-serif; font-size:48px; text-anchor:end;" transform="rotate(0, 137.394, 850.265)" x="137.394" y="850.265">0.6</text>
</g>
<g clip-path="url(#clip8201)">
<text style="fill:#000000; fill-opacity:1; font-family:Arial,Helvetica Neue,Helvetica,sans-serif; font-size:48px; text-anchor:end;" transform="rotate(0, 137.394, 600.652)" x="137.394" y="600.652">0.7</text>
</g>
<g clip-path="url(#clip8201)">
<text style="fill:#000000; fill-opacity:1; font-family:Arial,Helvetica Neue,Helvetica,sans-serif; font-size:48px; text-anchor:end;" transform="rotate(0, 137.394, 351.039)" x="137.394" y="351.039">0.8</text>
</g>
<g clip-path="url(#clip8201)">
<text style="fill:#000000; fill-opacity:1; font-family:Arial,Helvetica Neue,Helvetica,sans-serif; font-size:84px; text-anchor:middle;" transform="rotate(0, 1241.33, 73.2)" x="1241.33" y="73.2">BSpline cubic interpolation</text>
</g>
<circle clip-path="url(#clip8203)" style="fill:#000000; stroke:none; fill-opacity:1" cx="222.522" cy="1400.1" r="18"/>
<circle clip-path="url(#clip8203)" style="fill:#009af9; stroke:none; fill-opacity:1" cx="222.522" cy="1400.1" r="14"/>
<circle clip-path="url(#clip8203)" style="fill:#000000; stroke:none; fill-opacity:1" cx="448.923" cy="1237.33" r="18"/>
<circle clip-path="url(#clip8203)" style="fill:#009af9; stroke:none; fill-opacity:1" cx="448.923" cy="1237.33" r="14"/>
<circle clip-path="url(#clip8203)" style="fill:#000000; stroke:none; fill-opacity:1" cx="675.324" cy="1413.08" r="18"/>
<circle clip-path="url(#clip8203)" style="fill:#009af9; stroke:none; fill-opacity:1" cx="675.324" cy="1413.08" r="14"/>
<circle clip-path="url(#clip8203)" style="fill:#000000; stroke:none; fill-opacity:1" cx="901.725" cy="476.165" r="18"/>
<circle clip-path="url(#clip8203)" style="fill:#009af9; stroke:none; fill-opacity:1" cx="901.725" cy="476.165" r="14"/>
<circle clip-path="url(#clip8203)" style="fill:#000000; stroke:none; fill-opacity:1" cx="1128.13" cy="399.213" r="18"/>
<circle clip-path="url(#clip8203)" style="fill:#009af9; stroke:none; fill-opacity:1" cx="1128.13" cy="399.213" r="14"/>
<circle clip-path="url(#clip8203)" style="fill:#000000; stroke:none; fill-opacity:1" cx="1354.53" cy="196.359" r="18"/>
<circle clip-path="url(#clip8203)" style="fill:#009af9; stroke:none; fill-opacity:1" cx="1354.53" cy="196.359" r="14"/>
<circle clip-path="url(#clip8203)" style="fill:#000000; stroke:none; fill-opacity:1" cx="1580.93" cy="1140.36" r="18"/>
<circle clip-path="url(#clip8203)" style="fill:#009af9; stroke:none; fill-opacity:1" cx="1580.93" cy="1140.36" r="14"/>
<circle clip-path="url(#clip8203)" style="fill:#000000; stroke:none; fill-opacity:1" cx="1807.33" cy="1434.39" r="18"/>
<circle clip-path="url(#clip8203)" style="fill:#009af9; stroke:none; fill-opacity:1" cx="1807.33" cy="1434.39" r="14"/>
<circle clip-path="url(#clip8203)" style="fill:#000000; stroke:none; fill-opacity:1" cx="2033.73" cy="1019.35" r="18"/>
<circle clip-path="url(#clip8203)" style="fill:#009af9; stroke:none; fill-opacity:1" cx="2033.73" cy="1019.35" r="14"/>
<circle clip-path="url(#clip8203)" style="fill:#000000; stroke:none; fill-opacity:1" cx="2260.13" cy="1005.6" r="18"/>
<circle clip-path="url(#clip8203)" style="fill:#009af9; stroke:none; fill-opacity:1" cx="2260.13" cy="1005.6" r="14"/>
<polyline clip-path="url(#clip8203)" style="stroke:#e26f46; stroke-width:4; stroke-opacity:1; fill:none" points="
  222.522,1400.1 224.562,1396.92 226.602,1393.75 228.641,1390.58 230.681,1387.41 232.721,1384.24 234.76,1381.08 236.8,1377.93 238.84,1374.78 240.879,1371.63 
  242.919,1368.5 244.958,1365.37 246.998,1362.25 249.038,1359.14 251.077,1356.04 253.117,1352.96 255.157,1349.88 257.196,1346.82 259.236,1343.78 261.276,1340.74 
  263.315,1337.73 265.355,1334.73 267.395,1331.75 269.434,1328.79 271.474,1325.84 273.514,1322.92 275.553,1320.01 277.593,1317.13 279.632,1314.27 281.672,1311.44 
  283.712,1308.62 285.751,1305.84 287.791,1303.08 289.831,1300.34 291.87,1297.63 293.91,1294.96 295.95,1292.31 297.989,1289.69 300.029,1287.1 302.069,1284.54 
  304.108,1282.01 306.148,1279.52 308.188,1277.06 310.227,1274.64 312.267,1272.25 314.307,1269.9 316.346,1267.59 318.386,1265.32 320.425,1263.08 322.465,1260.88 
  324.505,1258.73 326.544,1256.62 328.584,1254.54 330.624,1252.52 332.663,1250.53 334.703,1248.59 336.743,1246.7 338.782,1244.85 340.822,1243.06 342.862,1241.3 
  344.901,1239.6 346.941,1237.95 348.981,1236.35 351.02,1234.8 353.06,1233.3 355.099,1231.86 357.139,1230.47 359.179,1229.13 361.218,1227.85 363.258,1226.63 
  365.298,1225.46 367.337,1224.36 369.377,1223.31 371.417,1222.32 373.456,1221.39 375.496,1220.53 377.536,1219.72 379.575,1218.98 381.615,1218.3 383.655,1217.69 
  385.694,1217.15 387.734,1216.67 389.774,1216.25 391.813,1215.91 393.853,1215.64 395.892,1215.43 397.932,1215.3 399.972,1215.23 402.011,1215.24 404.051,1215.32 
  406.091,1215.48 408.13,1215.71 410.17,1216.02 412.21,1216.4 414.249,1216.86 416.289,1217.4 418.329,1218.02 420.368,1218.72 422.408,1219.5 424.448,1220.36 
  426.487,1221.3 428.527,1222.32 430.567,1223.43 432.606,1224.63 434.646,1225.91 436.685,1227.27 438.725,1228.73 440.765,1230.27 442.804,1231.9 444.844,1233.62 
  446.884,1235.43 448.923,1237.33 450.963,1239.33 453.003,1241.41 455.042,1243.58 457.082,1245.84 459.122,1248.17 461.161,1250.59 463.201,1253.08 465.241,1255.65 
  467.28,1258.28 469.32,1260.99 471.359,1263.76 473.399,1266.59 475.439,1269.48 477.478,1272.43 479.518,1275.44 481.558,1278.5 483.597,1281.61 485.637,1284.76 
  487.677,1287.96 489.716,1291.2 491.756,1294.48 493.796,1297.79 495.835,1301.14 497.875,1304.52 499.915,1307.93 501.954,1311.36 503.994,1314.82 506.034,1318.29 
  508.073,1321.79 510.113,1325.3 512.152,1328.82 514.192,1332.35 516.232,1335.88 518.271,1339.42 520.311,1342.97 522.351,1346.51 524.39,1350.04 526.43,1353.57 
  528.47,1357.1 530.509,1360.6 532.549,1364.1 534.589,1367.58 536.628,1371.03 538.668,1374.47 540.708,1377.88 542.747,1381.26 544.787,1384.61 546.826,1387.93 
  548.866,1391.21 550.906,1394.45 552.945,1397.66 554.985,1400.81 557.025,1403.92 559.064,1406.99 561.104,1410 563.144,1412.95 565.183,1415.85 567.223,1418.69 
  569.263,1421.46 571.302,1424.17 573.342,1426.81 575.382,1429.38 577.421,1431.88 579.461,1434.3 581.501,1436.65 583.54,1438.91 585.58,1441.08 587.619,1443.17 
  589.659,1445.18 591.699,1447.08 593.738,1448.9 595.778,1450.61 597.818,1452.23 599.857,1453.75 601.897,1455.15 603.937,1456.45 605.976,1457.64 608.016,1458.72 
  610.056,1459.68 612.095,1460.52 614.135,1461.24 616.175,1461.84 618.214,1462.3 620.254,1462.64 622.294,1462.85 624.333,1462.92 626.373,1462.86 628.412,1462.65 
  630.452,1462.3 632.492,1461.81 634.531,1461.16 636.571,1460.37 638.611,1459.42 640.65,1458.32 642.69,1457.06 644.73,1455.64 646.769,1454.05 648.809,1452.29 
  650.849,1450.37 652.888,1448.27 654.928,1446 656.968,1443.55 659.007,1440.92 661.047,1438.11 663.086,1435.11 665.126,1431.93 667.166,1428.55 669.205,1424.98 
  671.245,1421.21 673.285,1417.25 675.324,1413.08 677.364,1408.71 679.404,1404.13 681.443,1399.37 683.483,1394.4 685.523,1389.25 687.562,1383.91 689.602,1378.38 
  691.642,1372.68 693.681,1366.8 695.721,1360.75 697.761,1354.53 699.8,1348.14 701.84,1341.59 703.879,1334.88 705.919,1328.01 707.959,1320.99 709.998,1313.83 
  712.038,1306.52 714.078,1299.07 716.117,1291.48 718.157,1283.75 720.197,1275.9 722.236,1267.91 724.276,1259.81 726.316,1251.58 728.355,1243.23 730.395,1234.77 
  732.435,1226.21 734.474,1217.53 736.514,1208.75 738.553,1199.88 740.593,1190.9 742.633,1181.84 744.672,1172.68 746.712,1163.44 748.752,1154.12 750.791,1144.71 
  752.831,1135.24 754.871,1125.69 756.91,1116.07 758.95,1106.39 760.99,1096.65 763.029,1086.85 765.069,1076.99 767.109,1067.09 769.148,1057.13 771.188,1047.14 
  773.228,1037.1 775.267,1027.03 777.307,1016.92 779.346,1006.78 781.386,996.622 783.426,986.437 785.465,976.232 787.505,966.012 789.545,955.779 791.584,945.537 
  793.624,935.29 795.664,925.041 797.703,914.794 799.743,904.552 801.783,894.319 803.822,884.098 805.862,873.892 807.902,863.705 809.941,853.541 811.981,843.404 
  814.02,833.295 816.06,823.22 818.1,813.181 820.139,803.183 822.179,793.228 824.219,783.32 826.258,773.462 828.298,763.659 830.338,753.913 832.377,744.228 
  834.417,734.608 836.457,725.055 838.496,715.574 840.536,706.168 842.576,696.841 844.615,687.595 846.655,678.435 848.695,669.364 850.734,660.385 852.774,651.502 
  854.813,642.719 856.853,634.038 858.893,625.464 860.932,617 862.972,608.649 865.012,600.415 867.051,592.301 869.091,584.311 871.131,576.449 873.17,568.717 
  875.21,561.12 877.25,553.66 879.289,546.342 881.329,539.168 883.369,532.143 885.408,525.27 887.448,518.552 889.488,511.992 891.527,505.595 893.567,499.364 
  895.606,493.302 897.646,487.412 899.686,481.699 901.725,476.165 903.765,470.814 905.805,465.643 907.844,460.65 909.884,455.833 911.924,451.188 913.963,446.713 
  916.003,442.405 918.043,438.263 920.082,434.282 922.122,430.46 924.162,426.796 926.201,423.286 928.241,419.927 930.28,416.717 932.32,413.653 934.36,410.733 
  936.399,407.954 938.439,405.314 940.479,402.809 942.518,400.437 944.558,398.195 946.598,396.082 948.637,394.093 950.677,392.227 952.717,390.481 954.756,388.852 
  956.796,387.337 958.836,385.935 960.875,384.642 962.915,383.456 964.955,382.373 966.994,381.392 969.034,380.51 971.073,379.724 973.113,379.032 975.153,378.43 
  977.192,377.916 979.232,377.488 981.272,377.143 983.311,376.879 985.351,376.692 987.391,376.58 989.43,376.54 991.47,376.57 993.51,376.667 995.549,376.829 
  997.589,377.052 999.629,377.335 1001.67,377.674 1003.71,378.067 1005.75,378.512 1007.79,379.005 1009.83,379.544 1011.87,380.126 1013.91,380.749 1015.95,381.41 
  1017.99,382.107 1020.03,382.836 1022.06,383.596 1024.1,384.383 1026.14,385.195 1028.18,386.029 1030.22,386.883 1032.26,387.754 1034.3,388.639 1036.34,389.536 
  1038.38,390.442 1040.42,391.354 1042.46,392.27 1044.5,393.187 1046.54,394.103 1048.58,395.015 1050.62,395.92 1052.66,396.815 1054.7,397.698 1056.74,398.567 
  1058.78,399.418 1060.82,400.25 1062.86,401.058 1064.9,401.842 1066.94,402.598 1068.98,403.323 1071.02,404.015 1073.06,404.671 1075.1,405.289 1077.14,405.865 
  1079.17,406.398 1081.21,406.885 1083.25,407.322 1085.29,407.708 1087.33,408.04 1089.37,408.315 1091.41,408.53 1093.45,408.683 1095.49,408.771 1097.53,408.792 
  1099.57,408.742 1101.61,408.62 1103.65,408.423 1105.69,408.147 1107.73,407.791 1109.77,407.352 1111.81,406.826 1113.85,406.212 1115.89,405.507 1117.93,404.708 
  1119.97,403.813 1122.01,402.818 1124.05,401.722 1126.09,400.521 1128.13,399.213 1130.17,397.797 1132.21,396.273 1134.25,394.645 1136.29,392.916 1138.32,391.088 
  1140.36,389.164 1142.4,387.147 1144.44,385.04 1146.48,382.844 1148.52,380.564 1150.56,378.201 1152.6,375.758 1154.64,373.239 1156.68,370.646 1158.72,367.981 
  1160.76,365.248 1162.8,362.449 1164.84,359.587 1166.88,356.664 1168.92,353.684 1170.96,350.649 1173,347.561 1175.04,344.424 1177.08,341.241 1179.12,338.013 
  1181.16,334.744 1183.2,331.437 1185.24,328.094 1187.28,324.718 1189.32,321.312 1191.36,317.878 1193.4,314.419 1195.43,310.938 1197.47,307.438 1199.51,303.921 
  1201.55,300.391 1203.59,296.849 1205.63,293.299 1207.67,289.743 1209.71,286.185 1211.75,282.626 1213.79,279.07 1215.83,275.519 1217.87,271.976 1219.91,268.444 
  1221.95,264.925 1223.99,261.423 1226.03,257.939 1228.07,254.478 1230.11,251.041 1232.15,247.631 1234.19,244.251 1236.23,240.903 1238.27,237.591 1240.31,234.318 
  1242.35,231.085 1244.39,227.896 1246.43,224.753 1248.47,221.659 1250.51,218.617 1252.55,215.63 1254.58,212.7 1256.62,209.83 1258.66,207.023 1260.7,204.281 
  1262.74,201.608 1264.78,199.005 1266.82,196.477 1268.86,194.025 1270.9,191.652 1272.94,189.361 1274.98,187.155 1277.02,185.036 1279.06,183.007 1281.1,181.072 
  1283.14,179.231 1285.18,177.49 1287.22,175.849 1289.26,174.313 1291.3,172.882 1293.34,171.562 1295.38,170.353 1297.42,169.259 1299.46,168.283 1301.5,167.427 
  1303.54,166.694 1305.58,166.086 1307.62,165.608 1309.66,165.26 1311.69,165.047 1313.73,164.97 1315.77,165.032 1317.81,165.237 1319.85,165.587 1321.89,166.084 
  1323.93,166.732 1325.97,167.533 1328.01,168.49 1330.05,169.605 1332.09,170.882 1334.13,172.323 1336.17,173.931 1338.21,175.708 1340.25,177.658 1342.29,179.782 
  1344.33,182.085 1346.37,184.567 1348.41,187.234 1350.45,190.086 1352.49,193.127 1354.53,196.359 1356.57,199.785 1358.61,203.402 1360.65,207.207 1362.69,211.199 
  1364.73,215.374 1366.77,219.73 1368.8,224.264 1370.84,228.972 1372.88,233.853 1374.92,238.904 1376.96,244.122 1379,249.504 1381.04,255.047 1383.08,260.749 
  1385.12,266.607 1387.16,272.618 1389.2,278.78 1391.24,285.09 1393.28,291.544 1395.32,298.141 1397.36,304.878 1399.4,311.752 1401.44,318.76 1403.48,325.899 
  1405.52,333.167 1407.56,340.561 1409.6,348.078 1411.64,355.716 1413.68,363.471 1415.72,371.342 1417.76,379.325 1419.8,387.418 1421.84,395.617 1423.88,403.921 
  1425.92,412.326 1427.95,420.83 1429.99,429.43 1432.03,438.123 1434.07,446.907 1436.11,455.778 1438.15,464.735 1440.19,473.774 1442.23,482.892 1444.27,492.087 
  1446.31,501.357 1448.35,510.698 1450.39,520.107 1452.43,529.583 1454.47,539.122 1456.51,548.721 1458.55,558.378 1460.59,568.09 1462.63,577.855 1464.67,587.669 
  1466.71,597.53 1468.75,607.435 1470.79,617.382 1472.83,627.367 1474.87,637.388 1476.91,647.442 1478.95,657.527 1480.99,667.64 1483.03,677.778 1485.06,687.938 
  1487.1,698.117 1489.14,708.314 1491.18,718.524 1493.22,728.746 1495.26,738.977 1497.3,749.214 1499.34,759.454 1501.38,769.694 1503.42,779.932 1505.46,790.165 
  1507.5,800.39 1509.54,810.605 1511.58,820.807 1513.62,830.993 1515.66,841.161 1517.7,851.307 1519.74,861.429 1521.78,871.524 1523.82,881.589 1525.86,891.623 
  1527.9,901.621 1529.94,911.582 1531.98,921.502 1534.02,931.379 1536.06,941.21 1538.1,950.993 1540.14,960.724 1542.18,970.401 1544.21,980.022 1546.25,989.582 
  1548.29,999.081 1550.33,1008.51 1552.37,1017.88 1554.41,1027.18 1556.45,1036.4 1558.49,1045.54 1560.53,1054.61 1562.57,1063.6 1564.61,1072.5 1566.65,1081.32 
  1568.69,1090.04 1570.73,1098.68 1572.77,1107.21 1574.81,1115.65 1576.85,1123.99 1578.89,1132.23 1580.93,1140.36 1582.97,1148.39 1585.01,1156.3 1587.05,1164.11 
  1589.09,1171.81 1591.13,1179.4 1593.17,1186.88 1595.21,1194.26 1597.25,1201.53 1599.29,1208.69 1601.32,1215.75 1603.36,1222.71 1605.4,1229.55 1607.44,1236.3 
  1609.48,1242.93 1611.52,1249.47 1613.56,1255.89 1615.6,1262.22 1617.64,1268.44 1619.68,1274.56 1621.72,1280.57 1623.76,1286.48 1625.8,1292.29 1627.84,1298 
  1629.88,1303.6 1631.92,1309.11 1633.96,1314.51 1636,1319.81 1638.04,1325.01 1640.08,1330.11 1642.12,1335.11 1644.16,1340.01 1646.2,1344.81 1648.24,1349.51 
  1650.28,1354.11 1652.32,1358.62 1654.36,1363.02 1656.4,1367.33 1658.44,1371.54 1660.47,1375.65 1662.51,1379.66 1664.55,1383.58 1666.59,1387.4 1668.63,1391.13 
  1670.67,1394.76 1672.71,1398.29 1674.75,1401.73 1676.79,1405.07 1678.83,1408.31 1680.87,1411.47 1682.91,1414.52 1684.95,1417.49 1686.99,1420.36 1689.03,1423.14 
  1691.07,1425.82 1693.11,1428.41 1695.15,1430.91 1697.19,1433.32 1699.23,1435.63 1701.27,1437.85 1703.31,1439.98 1705.35,1442.03 1707.39,1443.97 1709.43,1445.83 
  1711.47,1447.6 1713.51,1449.28 1715.55,1450.87 1717.58,1452.37 1719.62,1453.78 1721.66,1455.1 1723.7,1456.34 1725.74,1457.48 1727.78,1458.54 1729.82,1459.51 
  1731.86,1460.39 1733.9,1461.19 1735.94,1461.9 1737.98,1462.52 1740.02,1463.06 1742.06,1463.51 1744.1,1463.88 1746.14,1464.16 1748.18,1464.35 1750.22,1464.46 
  1752.26,1464.49 1754.3,1464.43 1756.34,1464.29 1758.38,1464.07 1760.42,1463.76 1762.46,1463.37 1764.5,1462.89 1766.54,1462.34 1768.58,1461.7 1770.62,1460.98 
  1772.66,1460.18 1774.7,1459.3 1776.73,1458.33 1778.77,1457.29 1780.81,1456.17 1782.85,1454.96 1784.89,1453.68 1786.93,1452.32 1788.97,1450.88 1791.01,1449.36 
  1793.05,1447.76 1795.09,1446.08 1797.13,1444.33 1799.17,1442.49 1801.21,1440.58 1803.25,1438.6 1805.29,1436.53 1807.33,1434.39 1809.37,1432.18 1811.41,1429.89 
  1813.45,1427.52 1815.49,1425.09 1817.53,1422.58 1819.57,1420 1821.61,1417.36 1823.65,1414.64 1825.69,1411.87 1827.73,1409.02 1829.77,1406.12 1831.81,1403.15 
  1833.84,1400.12 1835.88,1397.03 1837.92,1393.89 1839.96,1390.69 1842,1387.43 1844.04,1384.12 1846.08,1380.75 1848.12,1377.34 1850.16,1373.87 1852.2,1370.36 
  1854.24,1366.79 1856.28,1363.18 1858.32,1359.53 1860.36,1355.83 1862.4,1352.09 1864.44,1348.31 1866.48,1344.49 1868.52,1340.63 1870.56,1336.73 1872.6,1332.8 
  1874.64,1328.83 1876.68,1324.83 1878.72,1320.8 1880.76,1316.74 1882.8,1312.65 1884.84,1308.53 1886.88,1304.38 1888.92,1300.2 1890.96,1296.01 1892.99,1291.79 
  1895.03,1287.54 1897.07,1283.28 1899.11,1279 1901.15,1274.7 1903.19,1270.39 1905.23,1266.06 1907.27,1261.71 1909.31,1257.35 1911.35,1252.99 1913.39,1248.61 
  1915.43,1244.22 1917.47,1239.83 1919.51,1235.43 1921.55,1231.02 1923.59,1226.61 1925.63,1222.2 1927.67,1217.79 1929.71,1213.38 1931.75,1208.97 1933.79,1204.56 
  1935.83,1200.16 1937.87,1195.76 1939.91,1191.37 1941.95,1186.99 1943.99,1182.62 1946.03,1178.26 1948.07,1173.91 1950.1,1169.57 1952.14,1165.25 1954.18,1160.95 
  1956.22,1156.66 1958.26,1152.39 1960.3,1148.14 1962.34,1143.91 1964.38,1139.71 1966.42,1135.53 1968.46,1131.37 1970.5,1127.24 1972.54,1123.14 1974.58,1119.06 
  1976.62,1115.02 1978.66,1111.01 1980.7,1107.03 1982.74,1103.08 1984.78,1099.17 1986.82,1095.3 1988.86,1091.47 1990.9,1087.67 1992.94,1083.92 1994.98,1080.2 
  1997.02,1076.53 1999.06,1072.91 2001.1,1069.33 2003.14,1065.8 2005.18,1062.31 2007.22,1058.88 2009.25,1055.5 2011.29,1052.17 2013.33,1048.89 2015.37,1045.67 
  2017.41,1042.5 2019.45,1039.39 2021.49,1036.34 2023.53,1033.35 2025.57,1030.43 2027.61,1027.56 2029.65,1024.76 2031.69,1022.02 2033.73,1019.35 2035.77,1016.75 
  2037.81,1014.22 2039.85,1011.75 2041.89,1009.35 2043.93,1007.01 2045.97,1004.74 2048.01,1002.53 2050.05,1000.39 2052.09,998.306 2054.13,996.288 2056.17,994.331 
  2058.21,992.435 2060.25,990.601 2062.29,988.825 2064.33,987.11 2066.36,985.453 2068.4,983.854 2070.44,982.313 2072.48,980.828 2074.52,979.4 2076.56,978.027 
  2078.6,976.71 2080.64,975.447 2082.68,974.237 2084.72,973.081 2086.76,971.978 2088.8,970.926 2090.84,969.926 2092.88,968.977 2094.92,968.077 2096.96,967.228 
  2099,966.427 2101.04,965.675 2103.08,964.97 2105.12,964.312 2107.16,963.701 2109.2,963.136 2111.24,962.616 2113.28,962.14 2115.32,961.709 2117.36,961.321 
  2119.4,960.976 2121.44,960.673 2123.48,960.412 2125.51,960.192 2127.55,960.012 2129.59,959.871 2131.63,959.77 2133.67,959.708 2135.71,959.683 2137.75,959.696 
  2139.79,959.745 2141.83,959.831 2143.87,959.952 2145.91,960.108 2147.95,960.298 2149.99,960.521 2152.03,960.778 2154.07,961.067 2156.11,961.388 2158.15,961.74 
  2160.19,962.123 2162.23,962.536 2164.27,962.978 2166.31,963.448 2168.35,963.947 2170.39,964.474 2172.43,965.027 2174.47,965.607 2176.51,966.212 2178.55,966.842 
  2180.59,967.497 2182.62,968.176 2184.66,968.878 2186.7,969.603 2188.74,970.349 2190.78,971.117 2192.82,971.906 2194.86,972.715 2196.9,973.544 2198.94,974.391 
  2200.98,975.257 2203.02,976.141 2205.06,977.041 2207.1,977.959 2209.14,978.892 2211.18,979.84 2213.22,980.803 2215.26,981.781 2217.3,982.771 2219.34,983.775 
  2221.38,984.79 2223.42,985.818 2225.46,986.856 2227.5,987.905 2229.54,988.963 2231.58,990.031 2233.62,991.107 2235.66,992.192 2237.7,993.283 2239.74,994.381 
  2241.77,995.486 2243.81,996.596 2245.85,997.711 2247.89,998.83 2249.93,999.952 2251.97,1001.08 2254.01,1002.21 2256.05,1003.34 2258.09,1004.47 2260.13,1005.6 
  
  "/>
<polygon clip-path="url(#clip8201)" points="
1717.67,390.944 2249.26,390.944 2249.26,209.504 1717.67,209.504 
  " fill="#ffffff" fill-rule="evenodd" fill-opacity="1"/>
<polyline clip-path="url(#clip8201)" style="stroke:#000000; stroke-width:4; stroke-opacity:1; fill:none" points="
  1717.67,390.944 2249.26,390.944 2249.26,209.504 1717.67,209.504 1717.67,390.944 
  "/>
<circle clip-path="url(#clip8201)" style="fill:#000000; stroke:none; fill-opacity:1" cx="1825.67" cy="269.984" r="25"/>
<circle clip-path="url(#clip8201)" style="fill:#009af9; stroke:none; fill-opacity:1" cx="1825.67" cy="269.984" r="21"/>
<g clip-path="url(#clip8201)">
<text style="fill:#000000; fill-opacity:1; font-family:Arial,Helvetica Neue,Helvetica,sans-serif; font-size:48px; text-anchor:start;" transform="rotate(0, 1909.67, 287.484)" x="1909.67" y="287.484">Nodes</text>
</g>
<polyline clip-path="url(#clip8201)" style="stroke:#e26f46; stroke-width:4; stroke-opacity:1; fill:none" points="
  1741.67,330.464 1885.67,330.464 
  "/>
<g clip-path="url(#clip8201)">
<text style="fill:#000000; fill-opacity:1; font-family:Arial,Helvetica Neue,Helvetica,sans-serif; font-size:48px; text-anchor:start;" transform="rotate(0, 1909.67, 347.964)" x="1909.67" y="347.964">BSpline cubic</text>
</g>
</svg>
