<?xml version="1.0" encoding="utf-8"?>
<svg xmlns="http://www.w3.org/2000/svg" xmlns:xlink="http://www.w3.org/1999/xlink" width="600" height="400" viewBox="0 0 2400 1600">
<defs>
  <clipPath id="clip5400">
    <rect x="0" y="0" width="2000" height="2000"/>
  </clipPath>
</defs>
<defs>
  <clipPath id="clip5401">
    <rect x="0" y="0" width="2400" height="1600"/>
  </clipPath>
</defs>
<polygon clip-path="url(#clip5401)" points="
0,1600 2400,1600 2400,0 0,0 
  " fill="#ffffff" fill-rule="evenodd" fill-opacity="1"/>
<defs>
  <clipPath id="clip5402">
    <rect x="480" y="0" width="1681" height="1600"/>
  </clipPath>
</defs>
<polygon clip-path="url(#clip5401)" points="
161.394,1503.47 2321.26,1503.47 2321.26,125.984 161.394,125.984 
  " fill="#ffffff" fill-rule="evenodd" fill-opacity="1"/>
<defs>
  <clipPath id="clip5403">
    <rect x="161" y="125" width="2161" height="1378"/>
  </clipPath>
</defs>
<polyline clip-path="url(#clip5403)" style="stroke:#000000; stroke-width:2; stroke-opacity:0.1; fill:none" points="
  222.522,1503.47 222.522,125.984 
  "/>
<polyline clip-path="url(#clip5403)" style="stroke:#000000; stroke-width:2; stroke-opacity:0.1; fill:none" points="
  731.925,1503.47 731.925,125.984 
  "/>
<polyline clip-path="url(#clip5403)" style="stroke:#000000; stroke-width:2; stroke-opacity:0.1; fill:none" points="
  1241.33,1503.47 1241.33,125.984 
  "/>
<polyline clip-path="url(#clip5403)" style="stroke:#000000; stroke-width:2; stroke-opacity:0.1; fill:none" points="
  1750.73,1503.47 1750.73,125.984 
  "/>
<polyline clip-path="url(#clip5403)" style="stroke:#000000; stroke-width:2; stroke-opacity:0.1; fill:none" points="
  2260.13,1503.47 2260.13,125.984 
  "/>
<polyline clip-path="url(#clip5403)" style="stroke:#000000; stroke-width:2; stroke-opacity:0.1; fill:none" points="
  161.394,1357 2321.26,1357 
  "/>
<polyline clip-path="url(#clip5403)" style="stroke:#000000; stroke-width:2; stroke-opacity:0.1; fill:none" points="
  161.394,1094.99 2321.26,1094.99 
  "/>
<polyline clip-path="url(#clip5403)" style="stroke:#000000; stroke-width:2; stroke-opacity:0.1; fill:none" points="
  161.394,832.981 2321.26,832.981 
  "/>
<polyline clip-path="url(#clip5403)" style="stroke:#000000; stroke-width:2; stroke-opacity:0.1; fill:none" points="
  161.394,570.972 2321.26,570.972 
  "/>
<polyline clip-path="url(#clip5403)" style="stroke:#000000; stroke-width:2; stroke-opacity:0.1; fill:none" points="
  161.394,308.963 2321.26,308.963 
  "/>
<polyline clip-path="url(#clip5401)" style="stroke:#000000; stroke-width:4; stroke-opacity:1; fill:none" points="
  161.394,1503.47 2321.26,1503.47 
  "/>
<polyline clip-path="url(#clip5401)" style="stroke:#000000; stroke-width:4; stroke-opacity:1; fill:none" points="
  161.394,1503.47 161.394,125.984 
  "/>
<polyline clip-path="url(#clip5401)" style="stroke:#000000; stroke-width:4; stroke-opacity:1; fill:none" points="
  222.522,1503.47 222.522,1482.81 
  "/>
<polyline clip-path="url(#clip5401)" style="stroke:#000000; stroke-width:4; stroke-opacity:1; fill:none" points="
  731.925,1503.47 731.925,1482.81 
  "/>
<polyline clip-path="url(#clip5401)" style="stroke:#000000; stroke-width:4; stroke-opacity:1; fill:none" points="
  1241.33,1503.47 1241.33,1482.81 
  "/>
<polyline clip-path="url(#clip5401)" style="stroke:#000000; stroke-width:4; stroke-opacity:1; fill:none" points="
  1750.73,1503.47 1750.73,1482.81 
  "/>
<polyline clip-path="url(#clip5401)" style="stroke:#000000; stroke-width:4; stroke-opacity:1; fill:none" points="
  2260.13,1503.47 2260.13,1482.81 
  "/>
<polyline clip-path="url(#clip5401)" style="stroke:#000000; stroke-width:4; stroke-opacity:1; fill:none" points="
  161.394,1357 193.792,1357 
  "/>
<polyline clip-path="url(#clip5401)" style="stroke:#000000; stroke-width:4; stroke-opacity:1; fill:none" points="
  161.394,1094.99 193.792,1094.99 
  "/>
<polyline clip-path="url(#clip5401)" style="stroke:#000000; stroke-width:4; stroke-opacity:1; fill:none" points="
  161.394,832.981 193.792,832.981 
  "/>
<polyline clip-path="url(#clip5401)" style="stroke:#000000; stroke-width:4; stroke-opacity:1; fill:none" points="
  161.394,570.972 193.792,570.972 
  "/>
<polyline clip-path="url(#clip5401)" style="stroke:#000000; stroke-width:4; stroke-opacity:1; fill:none" points="
  161.394,308.963 193.792,308.963 
  "/>
<g clip-path="url(#clip5401)">
<text style="fill:#000000; fill-opacity:1; font-family:Arial,Helvetica Neue,Helvetica,sans-serif; font-size:48px; text-anchor:middle;" transform="rotate(0, 222.522, 1557.47)" x="222.522" y="1557.47">-1.0</text>
</g>
<g clip-path="url(#clip5401)">
<text style="fill:#000000; fill-opacity:1; font-family:Arial,Helvetica Neue,Helvetica,sans-serif; font-size:48px; text-anchor:middle;" transform="rotate(0, 731.925, 1557.47)" x="731.925" y="1557.47">-0.5</text>
</g>
<g clip-path="url(#clip5401)">
<text style="fill:#000000; fill-opacity:1; font-family:Arial,Helvetica Neue,Helvetica,sans-serif; font-size:48px; text-anchor:middle;" transform="rotate(0, 1241.33, 1557.47)" x="1241.33" y="1557.47">0.0</text>
</g>
<g clip-path="url(#clip5401)">
<text style="fill:#000000; fill-opacity:1; font-family:Arial,Helvetica Neue,Helvetica,sans-serif; font-size:48px; text-anchor:middle;" transform="rotate(0, 1750.73, 1557.47)" x="1750.73" y="1557.47">0.5</text>
</g>
<g clip-path="url(#clip5401)">
<text style="fill:#000000; fill-opacity:1; font-family:Arial,Helvetica Neue,Helvetica,sans-serif; font-size:48px; text-anchor:middle;" transform="rotate(0, 2260.13, 1557.47)" x="2260.13" y="1557.47">1.0</text>
</g>
<g clip-path="url(#clip5401)">
<text style="fill:#000000; fill-opacity:1; font-family:Arial,Helvetica Neue,Helvetica,sans-serif; font-size:48px; text-anchor:end;" transform="rotate(0, 137.394, 1374.5)" x="137.394" y="1374.5">0.4</text>
</g>
<g clip-path="url(#clip5401)">
<text style="fill:#000000; fill-opacity:1; font-family:Arial,Helvetica Neue,Helvetica,sans-serif; font-size:48px; text-anchor:end;" transform="rotate(0, 137.394, 1112.49)" x="137.394" y="1112.49">0.5</text>
</g>
<g clip-path="url(#clip5401)">
<text style="fill:#000000; fill-opacity:1; font-family:Arial,Helvetica Neue,Helvetica,sans-serif; font-size:48px; text-anchor:end;" transform="rotate(0, 137.394, 850.481)" x="137.394" y="850.481">0.6</text>
</g>
<g clip-path="url(#clip5401)">
<text style="fill:#000000; fill-opacity:1; font-family:Arial,Helvetica Neue,Helvetica,sans-serif; font-size:48px; text-anchor:end;" transform="rotate(0, 137.394, 588.472)" x="137.394" y="588.472">0.7</text>
</g>
<g clip-path="url(#clip5401)">
<text style="fill:#000000; fill-opacity:1; font-family:Arial,Helvetica Neue,Helvetica,sans-serif; font-size:48px; text-anchor:end;" transform="rotate(0, 137.394, 326.463)" x="137.394" y="326.463">0.8</text>
</g>
<g clip-path="url(#clip5401)">
<text style="fill:#000000; fill-opacity:1; font-family:Arial,Helvetica Neue,Helvetica,sans-serif; font-size:84px; text-anchor:middle;" transform="rotate(0, 1241.33, 73.2)" x="1241.33" y="73.2">Interpolation nodes</text>
</g>
<circle clip-path="url(#clip5403)" style="fill:#000000; stroke:none; fill-opacity:1" cx="222.522" cy="1428.49" r="18"/>
<circle clip-path="url(#clip5403)" style="fill:#009af9; stroke:none; fill-opacity:1" cx="222.522" cy="1428.49" r="14"/>
<circle clip-path="url(#clip5403)" style="fill:#000000; stroke:none; fill-opacity:1" cx="448.923" cy="1257.64" r="18"/>
<circle clip-path="url(#clip5403)" style="fill:#009af9; stroke:none; fill-opacity:1" cx="448.923" cy="1257.64" r="14"/>
<circle clip-path="url(#clip5403)" style="fill:#000000; stroke:none; fill-opacity:1" cx="675.324" cy="1442.11" r="18"/>
<circle clip-path="url(#clip5403)" style="fill:#009af9; stroke:none; fill-opacity:1" cx="675.324" cy="1442.11" r="14"/>
<circle clip-path="url(#clip5403)" style="fill:#000000; stroke:none; fill-opacity:1" cx="901.725" cy="458.672" r="18"/>
<circle clip-path="url(#clip5403)" style="fill:#009af9; stroke:none; fill-opacity:1" cx="901.725" cy="458.672" r="14"/>
<circle clip-path="url(#clip5403)" style="fill:#000000; stroke:none; fill-opacity:1" cx="1128.13" cy="377.898" r="18"/>
<circle clip-path="url(#clip5403)" style="fill:#009af9; stroke:none; fill-opacity:1" cx="1128.13" cy="377.898" r="14"/>
<circle clip-path="url(#clip5403)" style="fill:#000000; stroke:none; fill-opacity:1" cx="1354.53" cy="164.97" r="18"/>
<circle clip-path="url(#clip5403)" style="fill:#009af9; stroke:none; fill-opacity:1" cx="1354.53" cy="164.97" r="14"/>
<circle clip-path="url(#clip5403)" style="fill:#000000; stroke:none; fill-opacity:1" cx="1580.93" cy="1155.86" r="18"/>
<circle clip-path="url(#clip5403)" style="fill:#009af9; stroke:none; fill-opacity:1" cx="1580.93" cy="1155.86" r="14"/>
<circle clip-path="url(#clip5403)" style="fill:#000000; stroke:none; fill-opacity:1" cx="1807.33" cy="1464.49" r="18"/>
<circle clip-path="url(#clip5403)" style="fill:#009af9; stroke:none; fill-opacity:1" cx="1807.33" cy="1464.49" r="14"/>
<circle clip-path="url(#clip5403)" style="fill:#000000; stroke:none; fill-opacity:1" cx="2033.73" cy="1028.84" r="18"/>
<circle clip-path="url(#clip5403)" style="fill:#009af9; stroke:none; fill-opacity:1" cx="2033.73" cy="1028.84" r="14"/>
<circle clip-path="url(#clip5403)" style="fill:#000000; stroke:none; fill-opacity:1" cx="2260.13" cy="1014.4" r="18"/>
<circle clip-path="url(#clip5403)" style="fill:#009af9; stroke:none; fill-opacity:1" cx="2260.13" cy="1014.4" r="14"/>
<polygon clip-path="url(#clip5401)" points="
1870.15,330.464 2249.26,330.464 2249.26,209.504 1870.15,209.504 
  " fill="#ffffff" fill-rule="evenodd" fill-opacity="1"/>
<polyline clip-path="url(#clip5401)" style="stroke:#000000; stroke-width:4; stroke-opacity:1; fill:none" points="
  1870.15,330.464 2249.26,330.464 2249.26,209.504 1870.15,209.504 1870.15,330.464 
  "/>
<circle clip-path="url(#clip5401)" style="fill:#000000; stroke:none; fill-opacity:1" cx="1978.15" cy="269.984" r="25"/>
<circle clip-path="url(#clip5401)" style="fill:#009af9; stroke:none; fill-opacity:1" cx="1978.15" cy="269.984" r="21"/>
<g clip-path="url(#clip5401)">
<text style="fill:#000000; fill-opacity:1; font-family:Arial,Helvetica Neue,Helvetica,sans-serif; font-size:48px; text-anchor:start;" transform="rotate(0, 2062.15, 287.484)" x="2062.15" y="287.484">Nodes</text>
</g>
</svg>
