<?xml version="1.0" encoding="utf-8"?>
<svg xmlns="http://www.w3.org/2000/svg" xmlns:xlink="http://www.w3.org/1999/xlink" width="600" height="400" viewBox="0 0 2400 1600">
<defs>
  <clipPath id="clip6200">
    <rect x="0" y="0" width="2000" height="2000"/>
  </clipPath>
</defs>
<defs>
  <clipPath id="clip6201">
    <rect x="0" y="0" width="2400" height="1600"/>
  </clipPath>
</defs>
<polygon clip-path="url(#clip6201)" points="
0,1600 2400,1600 2400,0 0,0 
  " fill="#ffffff" fill-rule="evenodd" fill-opacity="1"/>
<defs>
  <clipPath id="clip6202">
    <rect x="480" y="0" width="1681" height="1600"/>
  </clipPath>
</defs>
<polygon clip-path="url(#clip6201)" points="
161.394,1503.47 2321.26,1503.47 2321.26,125.984 161.394,125.984 
  " fill="#ffffff" fill-rule="evenodd" fill-opacity="1"/>
<defs>
  <clipPath id="clip6203">
    <rect x="161" y="125" width="2161" height="1378"/>
  </clipPath>
</defs>
<polyline clip-path="url(#clip6203)" style="stroke:#000000; stroke-width:2; stroke-opacity:0.1; fill:none" points="
  222.522,1503.47 222.522,125.984 
  "/>
<polyline clip-path="url(#clip6203)" style="stroke:#000000; stroke-width:2; stroke-opacity:0.1; fill:none" points="
  731.925,1503.47 731.925,125.984 
  "/>
<polyline clip-path="url(#clip6203)" style="stroke:#000000; stroke-width:2; stroke-opacity:0.1; fill:none" points="
  1241.33,1503.47 1241.33,125.984 
  "/>
<polyline clip-path="url(#clip6203)" style="stroke:#000000; stroke-width:2; stroke-opacity:0.1; fill:none" points="
  1750.73,1503.47 1750.73,125.984 
  "/>
<polyline clip-path="url(#clip6203)" style="stroke:#000000; stroke-width:2; stroke-opacity:0.1; fill:none" points="
  2260.13,1503.47 2260.13,125.984 
  "/>
<polyline clip-path="url(#clip6203)" style="stroke:#000000; stroke-width:2; stroke-opacity:0.1; fill:none" points="
  161.394,1288.59 2321.26,1288.59 
  "/>
<polyline clip-path="url(#clip6203)" style="stroke:#000000; stroke-width:2; stroke-opacity:0.1; fill:none" points="
  161.394,927.465 2321.26,927.465 
  "/>
<polyline clip-path="url(#clip6203)" style="stroke:#000000; stroke-width:2; stroke-opacity:0.1; fill:none" points="
  161.394,566.34 2321.26,566.34 
  "/>
<polyline clip-path="url(#clip6203)" style="stroke:#000000; stroke-width:2; stroke-opacity:0.1; fill:none" points="
  161.394,205.215 2321.26,205.215 
  "/>
<polyline clip-path="url(#clip6201)" style="stroke:#000000; stroke-width:4; stroke-opacity:1; fill:none" points="
  161.394,1503.47 2321.26,1503.47 
  "/>
<polyline clip-path="url(#clip6201)" style="stroke:#000000; stroke-width:4; stroke-opacity:1; fill:none" points="
  161.394,1503.47 161.394,125.984 
  "/>
<polyline clip-path="url(#clip6201)" style="stroke:#000000; stroke-width:4; stroke-opacity:1; fill:none" points="
  222.522,1503.47 222.522,1482.81 
  "/>
<polyline clip-path="url(#clip6201)" style="stroke:#000000; stroke-width:4; stroke-opacity:1; fill:none" points="
  731.925,1503.47 731.925,1482.81 
  "/>
<polyline clip-path="url(#clip6201)" style="stroke:#000000; stroke-width:4; stroke-opacity:1; fill:none" points="
  1241.33,1503.47 1241.33,1482.81 
  "/>
<polyline clip-path="url(#clip6201)" style="stroke:#000000; stroke-width:4; stroke-opacity:1; fill:none" points="
  1750.73,1503.47 1750.73,1482.81 
  "/>
<polyline clip-path="url(#clip6201)" style="stroke:#000000; stroke-width:4; stroke-opacity:1; fill:none" points="
  2260.13,1503.47 2260.13,1482.81 
  "/>
<polyline clip-path="url(#clip6201)" style="stroke:#000000; stroke-width:4; stroke-opacity:1; fill:none" points="
  161.394,1288.59 193.792,1288.59 
  "/>
<polyline clip-path="url(#clip6201)" style="stroke:#000000; stroke-width:4; stroke-opacity:1; fill:none" points="
  161.394,927.465 193.792,927.465 
  "/>
<polyline clip-path="url(#clip6201)" style="stroke:#000000; stroke-width:4; stroke-opacity:1; fill:none" points="
  161.394,566.34 193.792,566.34 
  "/>
<polyline clip-path="url(#clip6201)" style="stroke:#000000; stroke-width:4; stroke-opacity:1; fill:none" points="
  161.394,205.215 193.792,205.215 
  "/>
<g clip-path="url(#clip6201)">
<text style="fill:#000000; fill-opacity:1; font-family:Arial,Helvetica Neue,Helvetica,sans-serif; font-size:48px; text-anchor:middle;" transform="rotate(0, 222.522, 1557.47)" x="222.522" y="1557.47">-1.0</text>
</g>
<g clip-path="url(#clip6201)">
<text style="fill:#000000; fill-opacity:1; font-family:Arial,Helvetica Neue,Helvetica,sans-serif; font-size:48px; text-anchor:middle;" transform="rotate(0, 731.925, 1557.47)" x="731.925" y="1557.47">-0.5</text>
</g>
<g clip-path="url(#clip6201)">
<text style="fill:#000000; fill-opacity:1; font-family:Arial,Helvetica Neue,Helvetica,sans-serif; font-size:48px; text-anchor:middle;" transform="rotate(0, 1241.33, 1557.47)" x="1241.33" y="1557.47">0.0</text>
</g>
<g clip-path="url(#clip6201)">
<text style="fill:#000000; fill-opacity:1; font-family:Arial,Helvetica Neue,Helvetica,sans-serif; font-size:48px; text-anchor:middle;" transform="rotate(0, 1750.73, 1557.47)" x="1750.73" y="1557.47">0.5</text>
</g>
<g clip-path="url(#clip6201)">
<text style="fill:#000000; fill-opacity:1; font-family:Arial,Helvetica Neue,Helvetica,sans-serif; font-size:48px; text-anchor:middle;" transform="rotate(0, 2260.13, 1557.47)" x="2260.13" y="1557.47">1.0</text>
</g>
<g clip-path="url(#clip6201)">
<text style="fill:#000000; fill-opacity:1; font-family:Arial,Helvetica Neue,Helvetica,sans-serif; font-size:48px; text-anchor:end;" transform="rotate(0, 137.394, 1306.09)" x="137.394" y="1306.09">0.0</text>
</g>
<g clip-path="url(#clip6201)">
<text style="fill:#000000; fill-opacity:1; font-family:Arial,Helvetica Neue,Helvetica,sans-serif; font-size:48px; text-anchor:end;" transform="rotate(0, 137.394, 944.965)" x="137.394" y="944.965">0.5</text>
</g>
<g clip-path="url(#clip6201)">
<text style="fill:#000000; fill-opacity:1; font-family:Arial,Helvetica Neue,Helvetica,sans-serif; font-size:48px; text-anchor:end;" transform="rotate(0, 137.394, 583.84)" x="137.394" y="583.84">1.0</text>
</g>
<g clip-path="url(#clip6201)">
<text style="fill:#000000; fill-opacity:1; font-family:Arial,Helvetica Neue,Helvetica,sans-serif; font-size:48px; text-anchor:end;" transform="rotate(0, 137.394, 222.715)" x="137.394" y="222.715">1.5</text>
</g>
<g clip-path="url(#clip6201)">
<text style="fill:#000000; fill-opacity:1; font-family:Arial,Helvetica Neue,Helvetica,sans-serif; font-size:84px; text-anchor:middle;" transform="rotate(0, 1241.33, 73.2)" x="1241.33" y="73.2">Newton interpolation</text>
</g>
<circle clip-path="url(#clip6203)" style="fill:#000000; stroke:none; fill-opacity:1" cx="222.522" cy="1019.4" r="18"/>
<circle clip-path="url(#clip6203)" style="fill:#009af9; stroke:none; fill-opacity:1" cx="222.522" cy="1019.4" r="14"/>
<circle clip-path="url(#clip6203)" style="fill:#000000; stroke:none; fill-opacity:1" cx="448.923" cy="972.3" r="18"/>
<circle clip-path="url(#clip6203)" style="fill:#009af9; stroke:none; fill-opacity:1" cx="448.923" cy="972.3" r="14"/>
<circle clip-path="url(#clip6203)" style="fill:#000000; stroke:none; fill-opacity:1" cx="675.324" cy="1023.15" r="18"/>
<circle clip-path="url(#clip6203)" style="fill:#009af9; stroke:none; fill-opacity:1" cx="675.324" cy="1023.15" r="14"/>
<circle clip-path="url(#clip6203)" style="fill:#000000; stroke:none; fill-opacity:1" cx="901.725" cy="752.058" r="18"/>
<circle clip-path="url(#clip6203)" style="fill:#009af9; stroke:none; fill-opacity:1" cx="901.725" cy="752.058" r="14"/>
<circle clip-path="url(#clip6203)" style="fill:#000000; stroke:none; fill-opacity:1" cx="1128.13" cy="729.792" r="18"/>
<circle clip-path="url(#clip6203)" style="fill:#009af9; stroke:none; fill-opacity:1" cx="1128.13" cy="729.792" r="14"/>
<circle clip-path="url(#clip6203)" style="fill:#000000; stroke:none; fill-opacity:1" cx="1354.53" cy="671.097" r="18"/>
<circle clip-path="url(#clip6203)" style="fill:#009af9; stroke:none; fill-opacity:1" cx="1354.53" cy="671.097" r="14"/>
<circle clip-path="url(#clip6203)" style="fill:#000000; stroke:none; fill-opacity:1" cx="1580.93" cy="944.242" r="18"/>
<circle clip-path="url(#clip6203)" style="fill:#009af9; stroke:none; fill-opacity:1" cx="1580.93" cy="944.242" r="14"/>
<circle clip-path="url(#clip6203)" style="fill:#000000; stroke:none; fill-opacity:1" cx="1807.33" cy="1029.32" r="18"/>
<circle clip-path="url(#clip6203)" style="fill:#009af9; stroke:none; fill-opacity:1" cx="1807.33" cy="1029.32" r="14"/>
<circle clip-path="url(#clip6203)" style="fill:#000000; stroke:none; fill-opacity:1" cx="2033.73" cy="909.228" r="18"/>
<circle clip-path="url(#clip6203)" style="fill:#009af9; stroke:none; fill-opacity:1" cx="2033.73" cy="909.228" r="14"/>
<circle clip-path="url(#clip6203)" style="fill:#000000; stroke:none; fill-opacity:1" cx="2260.13" cy="905.249" r="18"/>
<circle clip-path="url(#clip6203)" style="fill:#009af9; stroke:none; fill-opacity:1" cx="2260.13" cy="905.249" r="14"/>
<polyline clip-path="url(#clip6203)" style="stroke:#e26f46; stroke-width:4; stroke-opacity:1; fill:none" points="
  222.522,1019.4 224.562,962.865 226.602,908.852 228.641,857.291 230.681,808.116 232.721,761.265 234.76,716.675 236.8,674.285 238.84,634.035 240.879,595.866 
  242.919,559.72 244.958,525.54 246.998,493.271 249.038,462.858 251.077,434.248 253.117,407.387 255.157,382.226 257.196,358.713 259.236,336.799 261.276,316.435 
  263.315,297.574 265.355,280.169 267.395,264.175 269.434,249.547 271.474,236.241 273.514,224.215 275.553,213.426 277.593,203.833 279.632,195.397 281.672,188.077 
  283.712,181.836 285.751,176.635 287.791,172.437 289.831,169.206 291.87,166.908 293.91,165.507 295.95,164.97 297.989,165.263 300.029,166.355 302.069,168.213 
  304.108,170.807 306.148,174.107 308.188,178.083 310.227,182.707 312.267,187.95 314.307,193.784 316.346,200.184 318.386,207.123 320.425,214.575 322.465,222.516 
  324.505,230.922 326.544,239.767 328.584,249.031 330.624,258.689 332.663,268.72 334.703,279.104 336.743,289.818 338.782,300.842 340.822,312.158 342.862,323.745 
  344.901,335.585 346.941,347.66 348.981,359.952 351.02,372.444 353.06,385.119 355.099,397.961 357.139,410.955 359.179,424.084 361.218,437.334 363.258,450.69 
  365.298,464.14 367.337,477.668 369.377,491.261 371.417,504.908 373.456,518.596 375.496,532.312 377.536,546.046 379.575,559.785 381.615,573.52 383.655,587.24 
  385.694,600.934 387.734,614.593 389.774,628.207 391.813,641.768 393.853,655.267 395.892,668.694 397.932,682.044 399.972,695.306 402.011,708.475 404.051,721.542 
  406.091,734.501 408.13,747.346 410.17,760.07 412.21,772.666 414.249,785.13 416.289,797.456 418.329,809.638 420.368,821.672 422.408,833.552 424.448,845.274 
  426.487,856.835 428.527,868.229 430.567,879.453 432.606,890.504 434.646,901.378 436.685,912.072 438.725,922.583 440.765,932.908 442.804,943.044 444.844,952.99 
  446.884,962.743 448.923,972.3 450.963,981.661 453.003,990.823 455.042,999.786 457.082,1008.55 459.122,1017.1 461.161,1025.46 463.201,1033.61 465.241,1041.55 
  467.28,1049.29 469.32,1056.83 471.359,1064.15 473.399,1071.27 475.439,1078.19 477.478,1084.89 479.518,1091.39 481.558,1097.68 483.597,1103.77 485.637,1109.65 
  487.677,1115.33 489.716,1120.8 491.756,1126.07 493.796,1131.14 495.835,1136.01 497.875,1140.68 499.915,1145.14 501.954,1149.41 503.994,1153.49 506.034,1157.37 
  508.073,1161.05 510.113,1164.55 512.152,1167.85 514.192,1170.97 516.232,1173.9 518.271,1176.64 520.311,1179.2 522.351,1181.58 524.39,1183.78 526.43,1185.81 
  528.47,1187.66 530.509,1189.34 532.549,1190.84 534.589,1192.18 536.628,1193.36 538.668,1194.37 540.708,1195.21 542.747,1195.9 544.787,1196.44 546.826,1196.82 
  548.866,1197.05 550.906,1197.13 552.945,1197.06 554.985,1196.85 557.025,1196.49 559.064,1196 561.104,1195.38 563.144,1194.62 565.183,1193.72 567.223,1192.7 
  569.263,1191.56 571.302,1190.29 573.342,1188.9 575.382,1187.4 577.421,1185.77 579.461,1184.04 581.501,1182.2 583.54,1180.25 585.58,1178.19 587.619,1176.04 
  589.659,1173.78 591.699,1171.43 593.738,1168.99 595.778,1166.45 597.818,1163.83 599.857,1161.12 601.897,1158.33 603.937,1155.45 605.976,1152.5 608.016,1149.48 
  610.056,1146.38 612.095,1143.21 614.135,1139.97 616.175,1136.67 618.214,1133.31 620.254,1129.88 622.294,1126.4 624.333,1122.86 626.373,1119.27 628.412,1115.63 
  630.452,1111.95 632.492,1108.21 634.531,1104.43 636.571,1100.62 638.611,1096.76 640.65,1092.87 642.69,1088.94 644.73,1084.98 646.769,1080.99 648.809,1076.97 
  650.849,1072.93 652.888,1068.86 654.928,1064.77 656.968,1060.67 659.007,1056.54 661.047,1052.4 663.086,1048.25 665.126,1044.08 667.166,1039.91 669.205,1035.73 
  671.245,1031.54 673.285,1027.35 675.324,1023.15 677.364,1018.96 679.404,1014.76 681.443,1010.57 683.483,1006.38 685.523,1002.2 687.562,998.027 689.602,993.862 
  691.642,989.708 693.681,985.566 695.721,981.437 697.761,977.323 699.8,973.226 701.84,969.146 703.879,965.085 705.919,961.044 707.959,957.025 709.998,953.028 
  712.038,949.056 714.078,945.108 716.117,941.186 718.157,937.292 720.197,933.426 722.236,929.589 724.276,925.783 726.316,922.008 728.355,918.264 730.395,914.554 
  732.435,910.878 734.474,907.237 736.514,903.631 738.553,900.062 740.593,896.53 742.633,893.035 744.672,889.579 746.712,886.162 748.752,882.784 750.791,879.447 
  752.831,876.151 754.871,872.896 756.91,869.683 758.95,866.513 760.99,863.385 763.029,860.3 765.069,857.259 767.109,854.262 769.148,851.31 771.188,848.402 
  773.228,845.538 775.267,842.72 777.307,839.948 779.346,837.22 781.386,834.539 783.426,831.904 785.465,829.314 787.505,826.771 789.545,824.274 791.584,821.823 
  793.624,819.418 795.664,817.06 797.703,814.748 799.743,812.482 801.783,810.262 803.822,808.089 805.862,805.961 807.902,803.88 809.941,801.844 811.981,799.854 
  814.02,797.909 816.06,796.009 818.1,794.155 820.139,792.345 822.179,790.579 824.219,788.858 826.258,787.181 828.298,785.547 830.338,783.957 832.377,782.41 
  834.417,780.905 836.457,779.442 838.496,778.021 840.536,776.642 842.576,775.304 844.615,774.006 846.655,772.749 848.695,771.531 850.734,770.352 852.774,769.213 
  854.813,768.111 856.853,767.047 858.893,766.021 860.932,765.031 862.972,764.077 865.012,763.159 867.051,762.276 869.091,761.428 871.131,760.613 873.17,759.832 
  875.21,759.084 877.25,758.368 879.289,757.683 881.329,757.03 883.369,756.406 885.408,755.813 887.448,755.248 889.488,754.712 891.527,754.204 893.567,753.723 
  895.606,753.269 897.646,752.84 899.686,752.437 901.725,752.058 903.765,751.703 905.805,751.372 907.844,751.063 909.884,750.776 911.924,750.51 913.963,750.264 
  916.003,750.039 918.043,749.833 920.082,749.645 922.122,749.475 924.162,749.322 926.201,749.186 928.241,749.066 930.28,748.961 932.32,748.87 934.36,748.794 
  936.399,748.73 938.439,748.679 940.479,748.64 942.518,748.612 944.558,748.595 946.598,748.587 948.637,748.589 950.677,748.6 952.717,748.618 954.756,748.644 
  956.796,748.677 958.836,748.715 960.875,748.759 962.915,748.808 964.955,748.862 966.994,748.919 969.034,748.979 971.073,749.042 973.113,749.106 975.153,749.172 
  977.192,749.239 979.232,749.306 981.272,749.373 983.311,749.439 985.351,749.503 987.391,749.566 989.43,749.626 991.47,749.683 993.51,749.737 995.549,749.787 
  997.589,749.833 999.629,749.873 1001.67,749.909 1003.71,749.938 1005.75,749.962 1007.79,749.979 1009.83,749.988 1011.87,749.99 1013.91,749.985 1015.95,749.971 
  1017.99,749.948 1020.03,749.916 1022.06,749.875 1024.1,749.825 1026.14,749.764 1028.18,749.693 1030.22,749.611 1032.26,749.518 1034.3,749.413 1036.34,749.297 
  1038.38,749.17 1040.42,749.03 1042.46,748.878 1044.5,748.713 1046.54,748.535 1048.58,748.344 1050.62,748.14 1052.66,747.923 1054.7,747.692 1056.74,747.447 
  1058.78,747.188 1060.82,746.916 1062.86,746.629 1064.9,746.327 1066.94,746.011 1068.98,745.681 1071.02,745.336 1073.06,744.977 1075.1,744.603 1077.14,744.213 
  1079.17,743.81 1081.21,743.391 1083.25,742.957 1085.29,742.509 1087.33,742.046 1089.37,741.568 1091.41,741.075 1093.45,740.568 1095.49,740.046 1097.53,739.509 
  1099.57,738.958 1101.61,738.392 1103.65,737.812 1105.69,737.218 1107.73,736.61 1109.77,735.988 1111.81,735.352 1113.85,734.703 1115.89,734.04 1117.93,733.364 
  1119.97,732.675 1122.01,731.973 1124.05,731.259 1126.09,730.532 1128.13,729.792 1130.17,729.041 1132.21,728.279 1134.25,727.504 1136.29,726.719 1138.32,725.923 
  1140.36,725.116 1142.4,724.299 1144.44,723.473 1146.48,722.636 1148.52,721.79 1150.56,720.936 1152.6,720.073 1154.64,719.201 1156.68,718.322 1158.72,717.435 
  1160.76,716.541 1162.8,715.64 1164.84,714.733 1166.88,713.821 1168.92,712.902 1170.96,711.979 1173,711.051 1175.04,710.118 1177.08,709.182 1179.12,708.243 
  1181.16,707.301 1183.2,706.356 1185.24,705.409 1187.28,704.461 1189.32,703.512 1191.36,702.562 1193.4,701.613 1195.43,700.664 1197.47,699.715 1199.51,698.768 
  1201.55,697.824 1203.59,696.881 1205.63,695.942 1207.67,695.006 1209.71,694.074 1211.75,693.147 1213.79,692.225 1215.83,691.308 1217.87,690.398 1219.91,689.494 
  1221.95,688.598 1223.99,687.709 1226.03,686.829 1228.07,685.957 1230.11,685.095 1232.15,684.243 1234.19,683.401 1236.23,682.571 1238.27,681.752 1240.31,680.945 
  1242.35,680.151 1244.39,679.37 1246.43,678.603 1248.47,677.85 1250.51,677.112 1252.55,676.39 1254.58,675.683 1256.62,674.993 1258.66,674.321 1260.7,673.665 
  1262.74,673.028 1264.78,672.41 1266.82,671.811 1268.86,671.232 1270.9,670.673 1272.94,670.134 1274.98,669.618 1277.02,669.123 1279.06,668.65 1281.1,668.2 
  1283.14,667.774 1285.18,667.372 1287.22,666.994 1289.26,666.64 1291.3,666.313 1293.34,666.011 1295.38,665.735 1297.42,665.486 1299.46,665.265 1301.5,665.071 
  1303.54,664.906 1305.58,664.769 1307.62,664.661 1309.66,664.582 1311.69,664.534 1313.73,664.516 1315.77,664.528 1317.81,664.572 1319.85,664.648 1321.89,664.755 
  1323.93,664.895 1325.97,665.067 1328.01,665.272 1330.05,665.511 1332.09,665.784 1334.13,666.09 1336.17,666.431 1338.21,666.807 1340.25,667.218 1342.29,667.664 
  1344.33,668.145 1346.37,668.663 1348.41,669.216 1350.45,669.807 1352.49,670.433 1354.53,671.097 1356.57,671.798 1358.61,672.536 1360.65,673.311 1362.69,674.124 
  1364.73,674.976 1366.77,675.865 1368.8,676.792 1370.84,677.758 1372.88,678.762 1374.92,679.805 1376.96,680.886 1379,682.006 1381.04,683.166 1383.08,684.364 
  1385.12,685.601 1387.16,686.877 1389.2,688.192 1391.24,689.546 1393.28,690.939 1395.32,692.372 1397.36,693.843 1399.4,695.354 1401.44,696.903 1403.48,698.491 
  1405.52,700.119 1407.56,701.785 1409.6,703.489 1411.64,705.232 1413.68,707.014 1415.72,708.833 1417.76,710.691 1419.8,712.587 1421.84,714.52 1423.88,716.491 
  1425.92,718.5 1427.95,720.545 1429.99,722.628 1432.03,724.746 1434.07,726.902 1436.11,729.093 1438.15,731.32 1440.19,733.582 1442.23,735.88 1444.27,738.212 
  1446.31,740.579 1448.35,742.98 1450.39,745.415 1452.43,747.883 1454.47,750.383 1456.51,752.917 1458.55,755.482 1460.59,758.079 1462.63,760.707 1464.67,763.365 
  1466.71,766.054 1468.75,768.772 1470.79,771.52 1472.83,774.296 1474.87,777.1 1476.91,779.932 1478.95,782.791 1480.99,785.676 1483.03,788.587 1485.06,791.523 
  1487.1,794.483 1489.14,797.468 1491.18,800.476 1493.22,803.506 1495.26,806.559 1497.3,809.632 1499.34,812.727 1501.38,815.841 1503.42,818.974 1505.46,822.126 
  1507.5,825.296 1509.54,828.482 1511.58,831.685 1513.62,834.903 1515.66,838.136 1517.7,841.383 1519.74,844.643 1521.78,847.916 1523.82,851.199 1525.86,854.494 
  1527.9,857.798 1529.94,861.111 1531.98,864.433 1534.02,867.761 1536.06,871.096 1538.1,874.437 1540.14,877.782 1542.18,881.131 1544.21,884.483 1546.25,887.837 
  1548.29,891.191 1550.33,894.546 1552.37,897.9 1554.41,901.253 1556.45,904.602 1558.49,907.949 1560.53,911.29 1562.57,914.626 1564.61,917.956 1566.65,921.278 
  1568.69,924.591 1570.73,927.896 1572.77,931.19 1574.81,934.472 1576.85,937.743 1578.89,941 1580.93,944.242 1582.97,947.47 1585.01,950.681 1587.05,953.876 
  1589.09,957.052 1591.13,960.208 1593.17,963.345 1595.21,966.461 1597.25,969.554 1599.29,972.624 1601.32,975.67 1603.36,978.691 1605.4,981.686 1607.44,984.654 
  1609.48,987.594 1611.52,990.505 1613.56,993.386 1615.6,996.236 1617.64,999.054 1619.68,1001.84 1621.72,1004.59 1623.76,1007.31 1625.8,1009.99 1627.84,1012.63 
  1629.88,1015.24 1631.92,1017.81 1633.96,1020.34 1636,1022.83 1638.04,1025.27 1640.08,1027.68 1642.12,1030.04 1644.16,1032.36 1646.2,1034.64 1648.24,1036.87 
  1650.28,1039.05 1652.32,1041.18 1654.36,1043.27 1656.4,1045.31 1658.44,1047.3 1660.47,1049.24 1662.51,1051.13 1664.55,1052.96 1666.59,1054.75 1668.63,1056.48 
  1670.67,1058.15 1672.71,1059.77 1674.75,1061.34 1676.79,1062.85 1678.83,1064.3 1680.87,1065.7 1682.91,1067.04 1684.95,1068.32 1686.99,1069.54 1689.03,1070.7 
  1691.07,1071.8 1693.11,1072.84 1695.15,1073.82 1697.19,1074.74 1699.23,1075.59 1701.27,1076.39 1703.31,1077.12 1705.35,1077.78 1707.39,1078.38 1709.43,1078.92 
  1711.47,1079.4 1713.51,1079.81 1715.55,1080.15 1717.58,1080.43 1719.62,1080.65 1721.66,1080.8 1723.7,1080.88 1725.74,1080.9 1727.78,1080.85 1729.82,1080.73 
  1731.86,1080.55 1733.9,1080.3 1735.94,1079.99 1737.98,1079.61 1740.02,1079.17 1742.06,1078.65 1744.1,1078.07 1746.14,1077.43 1748.18,1076.72 1750.22,1075.94 
  1752.26,1075.1 1754.3,1074.2 1756.34,1073.23 1758.38,1072.19 1760.42,1071.09 1762.46,1069.93 1764.5,1068.7 1766.54,1067.41 1768.58,1066.06 1770.62,1064.64 
  1772.66,1063.16 1774.7,1061.63 1776.73,1060.03 1778.77,1058.37 1780.81,1056.65 1782.85,1054.88 1784.89,1053.05 1786.93,1051.16 1788.97,1049.21 1791.01,1047.21 
  1793.05,1045.15 1795.09,1043.04 1797.13,1040.88 1799.17,1038.67 1801.21,1036.41 1803.25,1034.09 1805.29,1031.73 1807.33,1029.32 1809.37,1026.86 1811.41,1024.36 
  1813.45,1021.82 1815.49,1019.23 1817.53,1016.6 1819.57,1013.93 1821.61,1011.22 1823.65,1008.48 1825.69,1005.7 1827.73,1002.88 1829.77,1000.03 1831.81,997.152 
  1833.84,994.242 1835.88,991.303 1837.92,988.337 1839.96,985.347 1842,982.333 1844.04,979.297 1846.08,976.242 1848.12,973.168 1850.16,970.078 1852.2,966.973 
  1854.24,963.856 1856.28,960.728 1858.32,957.591 1860.36,954.447 1862.4,951.299 1864.44,948.148 1866.48,944.996 1868.52,941.845 1870.56,938.698 1872.6,935.556 
  1874.64,932.422 1876.68,929.298 1878.72,926.187 1880.76,923.089 1882.8,920.009 1884.84,916.947 1886.88,913.907 1888.92,910.89 1890.96,907.899 1892.99,904.937 
  1895.03,902.005 1897.07,899.107 1899.11,896.244 1901.15,893.419 1903.19,890.635 1905.23,887.894 1907.27,885.198 1909.31,882.551 1911.35,879.954 1913.39,877.41 
  1915.43,874.921 1917.47,872.491 1919.51,870.122 1921.55,867.816 1923.59,865.576 1925.63,863.405 1927.67,861.304 1929.71,859.278 1931.75,857.327 1933.79,855.456 
  1935.83,853.666 1937.87,851.96 1939.91,850.341 1941.95,848.811 1943.99,847.372 1946.03,846.029 1948.07,844.781 1950.1,843.634 1952.14,842.588 1954.18,841.647 
  1956.22,840.812 1958.26,840.087 1960.3,839.474 1962.34,838.975 1964.38,838.592 1966.42,838.329 1968.46,838.187 1970.5,838.168 1972.54,838.275 1974.58,838.511 
  1976.62,838.876 1978.66,839.375 1980.7,840.007 1982.74,840.777 1984.78,841.685 1986.82,842.733 1988.86,843.924 1990.9,845.26 1992.94,846.742 1994.98,848.371 
  1997.02,850.151 1999.06,852.081 2001.1,854.164 2003.14,856.402 2005.18,858.795 2007.22,861.345 2009.25,864.054 2011.29,866.922 2013.33,869.95 2015.37,873.14 
  2017.41,876.492 2019.45,880.007 2021.49,883.686 2023.53,887.53 2025.57,891.538 2027.61,895.712 2029.65,900.052 2031.69,904.557 2033.73,909.228 2035.77,914.065 
  2037.81,919.068 2039.85,924.235 2041.89,929.568 2043.93,935.064 2045.97,940.724 2048.01,946.546 2050.05,952.529 2052.09,958.673 2054.13,964.975 2056.17,971.435 
  2058.21,978.05 2060.25,984.819 2062.29,991.74 2064.33,998.81 2066.36,1006.03 2068.4,1013.39 2070.44,1020.89 2072.48,1028.53 2074.52,1036.31 2076.56,1044.22 
  2078.6,1052.26 2080.64,1060.42 2082.68,1068.7 2084.72,1077.1 2086.76,1085.61 2088.8,1094.22 2090.84,1102.94 2092.88,1111.75 2094.92,1120.66 2096.96,1129.65 
  2099,1138.72 2101.04,1147.86 2103.08,1157.06 2105.12,1166.33 2107.16,1175.65 2109.2,1185.01 2111.24,1194.41 2113.28,1203.83 2115.32,1213.28 2117.36,1222.74 
  2119.4,1232.19 2121.44,1241.64 2123.48,1251.08 2125.51,1260.48 2127.55,1269.85 2129.59,1279.17 2131.63,1288.42 2133.67,1297.61 2135.71,1306.71 2137.75,1315.71 
  2139.79,1324.61 2141.83,1333.38 2143.87,1342.02 2145.91,1350.5 2147.95,1358.82 2149.99,1366.96 2152.03,1374.9 2154.07,1382.63 2156.11,1390.14 2158.15,1397.4 
  2160.19,1404.39 2162.23,1411.11 2164.27,1417.53 2166.31,1423.63 2168.35,1429.39 2170.39,1434.8 2172.43,1439.83 2174.47,1444.47 2176.51,1448.68 2178.55,1452.45 
  2180.59,1455.76 2182.62,1458.57 2184.66,1460.88 2186.7,1462.65 2188.74,1463.86 2190.78,1464.48 2192.82,1464.49 2194.86,1463.86 2196.9,1462.56 2198.94,1460.56 
  2200.98,1457.83 2203.02,1454.36 2205.06,1450.09 2207.1,1445.01 2209.14,1439.08 2211.18,1432.26 2213.22,1424.54 2215.26,1415.86 2217.3,1406.2 2219.34,1395.51 
  2221.38,1383.78 2223.42,1370.94 2225.46,1356.98 2227.5,1341.85 2229.54,1325.5 2231.58,1307.91 2233.62,1289.02 2235.66,1268.79 2237.7,1247.19 2239.74,1224.16 
  2241.77,1199.67 2243.81,1173.66 2245.85,1146.1 2247.89,1116.92 2249.93,1086.08 2251.97,1053.54 2254.01,1019.24 2256.05,983.122 2258.09,945.145 2260.13,905.249 
  
  "/>
<polygon clip-path="url(#clip6201)" points="
1846.09,390.944 2249.26,390.944 2249.26,209.504 1846.09,209.504 
  " fill="#ffffff" fill-rule="evenodd" fill-opacity="1"/>
<polyline clip-path="url(#clip6201)" style="stroke:#000000; stroke-width:4; stroke-opacity:1; fill:none" points="
  1846.09,390.944 2249.26,390.944 2249.26,209.504 1846.09,209.504 1846.09,390.944 
  "/>
<circle clip-path="url(#clip6201)" style="fill:#000000; stroke:none; fill-opacity:1" cx="1954.09" cy="269.984" r="25"/>
<circle clip-path="url(#clip6201)" style="fill:#009af9; stroke:none; fill-opacity:1" cx="1954.09" cy="269.984" r="21"/>
<g clip-path="url(#clip6201)">
<text style="fill:#000000; fill-opacity:1; font-family:Arial,Helvetica Neue,Helvetica,sans-serif; font-size:48px; text-anchor:start;" transform="rotate(0, 2038.09, 287.484)" x="2038.09" y="287.484">Nodes</text>
</g>
<polyline clip-path="url(#clip6201)" style="stroke:#e26f46; stroke-width:4; stroke-opacity:1; fill:none" points="
  1870.09,330.464 2014.09,330.464 
  "/>
<g clip-path="url(#clip6201)">
<text style="fill:#000000; fill-opacity:1; font-family:Arial,Helvetica Neue,Helvetica,sans-serif; font-size:48px; text-anchor:start;" transform="rotate(0, 2038.09, 347.964)" x="2038.09" y="347.964">Newton</text>
</g>
</svg>
