<?xml version="1.0" encoding="utf-8"?>
<svg xmlns="http://www.w3.org/2000/svg" xmlns:xlink="http://www.w3.org/1999/xlink" width="600" height="400" viewBox="0 0 2400 1600">
<defs>
  <clipPath id="clip8300">
    <rect x="0" y="0" width="2000" height="2000"/>
  </clipPath>
</defs>
<defs>
  <clipPath id="clip8301">
    <rect x="0" y="0" width="2400" height="1600"/>
  </clipPath>
</defs>
<polygon clip-path="url(#clip8301)" points="
0,1600 2400,1600 2400,0 0,0 
  " fill="#ffffff" fill-rule="evenodd" fill-opacity="1"/>
<defs>
  <clipPath id="clip8302">
    <rect x="480" y="0" width="1681" height="1600"/>
  </clipPath>
</defs>
<polygon clip-path="url(#clip8301)" points="
188.156,1503.47 2321.26,1503.47 2321.26,125.984 188.156,125.984 
  " fill="#ffffff" fill-rule="evenodd" fill-opacity="1"/>
<defs>
  <clipPath id="clip8303">
    <rect x="188" y="125" width="2134" height="1378"/>
  </clipPath>
</defs>
<polyline clip-path="url(#clip8303)" style="stroke:#000000; stroke-width:2; stroke-opacity:0.1; fill:none" points="
  248.527,1503.47 248.527,125.984 
  "/>
<polyline clip-path="url(#clip8303)" style="stroke:#000000; stroke-width:2; stroke-opacity:0.1; fill:none" points="
  751.618,1503.47 751.618,125.984 
  "/>
<polyline clip-path="url(#clip8303)" style="stroke:#000000; stroke-width:2; stroke-opacity:0.1; fill:none" points="
  1254.71,1503.47 1254.71,125.984 
  "/>
<polyline clip-path="url(#clip8303)" style="stroke:#000000; stroke-width:2; stroke-opacity:0.1; fill:none" points="
  1757.8,1503.47 1757.8,125.984 
  "/>
<polyline clip-path="url(#clip8303)" style="stroke:#000000; stroke-width:2; stroke-opacity:0.1; fill:none" points="
  2260.89,1503.47 2260.89,125.984 
  "/>
<polyline clip-path="url(#clip8303)" style="stroke:#000000; stroke-width:2; stroke-opacity:0.1; fill:none" points="
  188.156,1340.69 2321.26,1340.69 
  "/>
<polyline clip-path="url(#clip8303)" style="stroke:#000000; stroke-width:2; stroke-opacity:0.1; fill:none" points="
  188.156,1046.76 2321.26,1046.76 
  "/>
<polyline clip-path="url(#clip8303)" style="stroke:#000000; stroke-width:2; stroke-opacity:0.1; fill:none" points="
  188.156,752.829 2321.26,752.829 
  "/>
<polyline clip-path="url(#clip8303)" style="stroke:#000000; stroke-width:2; stroke-opacity:0.1; fill:none" points="
  188.156,458.899 2321.26,458.899 
  "/>
<polyline clip-path="url(#clip8303)" style="stroke:#000000; stroke-width:2; stroke-opacity:0.1; fill:none" points="
  188.156,164.97 2321.26,164.97 
  "/>
<polyline clip-path="url(#clip8301)" style="stroke:#000000; stroke-width:4; stroke-opacity:1; fill:none" points="
  188.156,1503.47 2321.26,1503.47 
  "/>
<polyline clip-path="url(#clip8301)" style="stroke:#000000; stroke-width:4; stroke-opacity:1; fill:none" points="
  188.156,1503.47 188.156,125.984 
  "/>
<polyline clip-path="url(#clip8301)" style="stroke:#000000; stroke-width:4; stroke-opacity:1; fill:none" points="
  248.527,1503.47 248.527,1482.81 
  "/>
<polyline clip-path="url(#clip8301)" style="stroke:#000000; stroke-width:4; stroke-opacity:1; fill:none" points="
  751.618,1503.47 751.618,1482.81 
  "/>
<polyline clip-path="url(#clip8301)" style="stroke:#000000; stroke-width:4; stroke-opacity:1; fill:none" points="
  1254.71,1503.47 1254.71,1482.81 
  "/>
<polyline clip-path="url(#clip8301)" style="stroke:#000000; stroke-width:4; stroke-opacity:1; fill:none" points="
  1757.8,1503.47 1757.8,1482.81 
  "/>
<polyline clip-path="url(#clip8301)" style="stroke:#000000; stroke-width:4; stroke-opacity:1; fill:none" points="
  2260.89,1503.47 2260.89,1482.81 
  "/>
<polyline clip-path="url(#clip8301)" style="stroke:#000000; stroke-width:4; stroke-opacity:1; fill:none" points="
  188.156,1340.69 220.153,1340.69 
  "/>
<polyline clip-path="url(#clip8301)" style="stroke:#000000; stroke-width:4; stroke-opacity:1; fill:none" points="
  188.156,1046.76 220.153,1046.76 
  "/>
<polyline clip-path="url(#clip8301)" style="stroke:#000000; stroke-width:4; stroke-opacity:1; fill:none" points="
  188.156,752.829 220.153,752.829 
  "/>
<polyline clip-path="url(#clip8301)" style="stroke:#000000; stroke-width:4; stroke-opacity:1; fill:none" points="
  188.156,458.899 220.153,458.899 
  "/>
<polyline clip-path="url(#clip8301)" style="stroke:#000000; stroke-width:4; stroke-opacity:1; fill:none" points="
  188.156,164.97 220.153,164.97 
  "/>
<g clip-path="url(#clip8301)">
<text style="fill:#000000; fill-opacity:1; font-family:Arial,Helvetica Neue,Helvetica,sans-serif; font-size:48px; text-anchor:middle;" transform="rotate(0, 248.527, 1557.47)" x="248.527" y="1557.47">-1.0</text>
</g>
<g clip-path="url(#clip8301)">
<text style="fill:#000000; fill-opacity:1; font-family:Arial,Helvetica Neue,Helvetica,sans-serif; font-size:48px; text-anchor:middle;" transform="rotate(0, 751.618, 1557.47)" x="751.618" y="1557.47">-0.5</text>
</g>
<g clip-path="url(#clip8301)">
<text style="fill:#000000; fill-opacity:1; font-family:Arial,Helvetica Neue,Helvetica,sans-serif; font-size:48px; text-anchor:middle;" transform="rotate(0, 1254.71, 1557.47)" x="1254.71" y="1557.47">0.0</text>
</g>
<g clip-path="url(#clip8301)">
<text style="fill:#000000; fill-opacity:1; font-family:Arial,Helvetica Neue,Helvetica,sans-serif; font-size:48px; text-anchor:middle;" transform="rotate(0, 1757.8, 1557.47)" x="1757.8" y="1557.47">0.5</text>
</g>
<g clip-path="url(#clip8301)">
<text style="fill:#000000; fill-opacity:1; font-family:Arial,Helvetica Neue,Helvetica,sans-serif; font-size:48px; text-anchor:middle;" transform="rotate(0, 2260.89, 1557.47)" x="2260.89" y="1557.47">1.0</text>
</g>
<g clip-path="url(#clip8301)">
<text style="fill:#000000; fill-opacity:1; font-family:Arial,Helvetica Neue,Helvetica,sans-serif; font-size:48px; text-anchor:end;" transform="rotate(0, 164.156, 1358.19)" x="164.156" y="1358.19">0.00</text>
</g>
<g clip-path="url(#clip8301)">
<text style="fill:#000000; fill-opacity:1; font-family:Arial,Helvetica Neue,Helvetica,sans-serif; font-size:48px; text-anchor:end;" transform="rotate(0, 164.156, 1064.26)" x="164.156" y="1064.26">0.25</text>
</g>
<g clip-path="url(#clip8301)">
<text style="fill:#000000; fill-opacity:1; font-family:Arial,Helvetica Neue,Helvetica,sans-serif; font-size:48px; text-anchor:end;" transform="rotate(0, 164.156, 770.329)" x="164.156" y="770.329">0.50</text>
</g>
<g clip-path="url(#clip8301)">
<text style="fill:#000000; fill-opacity:1; font-family:Arial,Helvetica Neue,Helvetica,sans-serif; font-size:48px; text-anchor:end;" transform="rotate(0, 164.156, 476.399)" x="164.156" y="476.399">0.75</text>
</g>
<g clip-path="url(#clip8301)">
<text style="fill:#000000; fill-opacity:1; font-family:Arial,Helvetica Neue,Helvetica,sans-serif; font-size:48px; text-anchor:end;" transform="rotate(0, 164.156, 182.47)" x="164.156" y="182.47">1.00</text>
</g>
<g clip-path="url(#clip8301)">
<text style="fill:#000000; fill-opacity:1; font-family:Arial,Helvetica Neue,Helvetica,sans-serif; font-size:84px; text-anchor:middle;" transform="rotate(0, 1254.71, 73.2)" x="1254.71" y="73.2">Runge&apos;s phenomenon (Nodes = 7)</text>
</g>
<polyline clip-path="url(#clip8303)" style="stroke:#009af9; stroke-width:4; stroke-opacity:1; fill:none" points="
  248.527,1295.47 250.542,1295.29 252.556,1295.12 254.57,1294.94 256.585,1294.76 258.599,1294.59 260.613,1294.41 262.628,1294.22 264.642,1294.04 266.657,1293.86 
  268.671,1293.68 270.685,1293.49 272.7,1293.31 274.714,1293.12 276.728,1292.93 278.743,1292.74 280.757,1292.55 282.772,1292.36 284.786,1292.17 286.8,1291.97 
  288.815,1291.78 290.829,1291.58 292.844,1291.38 294.858,1291.19 296.872,1290.99 298.887,1290.79 300.901,1290.58 302.915,1290.38 304.93,1290.18 306.944,1289.97 
  308.959,1289.76 310.973,1289.55 312.987,1289.35 315.002,1289.13 317.016,1288.92 319.03,1288.71 321.045,1288.49 323.059,1288.28 325.074,1288.06 327.088,1287.84 
  329.102,1287.62 331.117,1287.4 333.131,1287.18 335.145,1286.96 337.16,1286.73 339.174,1286.5 341.189,1286.28 343.203,1286.05 345.217,1285.81 347.232,1285.58 
  349.246,1285.35 351.26,1285.11 353.275,1284.88 355.289,1284.64 357.304,1284.4 359.318,1284.16 361.332,1283.91 363.347,1283.67 365.361,1283.42 367.375,1283.18 
  369.39,1282.93 371.404,1282.68 373.419,1282.42 375.433,1282.17 377.447,1281.91 379.462,1281.66 381.476,1281.4 383.49,1281.14 385.505,1280.88 387.519,1280.61 
  389.534,1280.35 391.548,1280.08 393.562,1279.81 395.577,1279.54 397.591,1279.27 399.605,1278.99 401.62,1278.71 403.634,1278.44 405.649,1278.16 407.663,1277.87 
  409.677,1277.59 411.692,1277.3 413.706,1277.02 415.72,1276.73 417.735,1276.44 419.749,1276.14 421.764,1275.85 423.778,1275.55 425.792,1275.25 427.807,1274.95 
  429.821,1274.65 431.835,1274.34 433.85,1274.03 435.864,1273.72 437.879,1273.41 439.893,1273.1 441.907,1272.78 443.922,1272.46 445.936,1272.14 447.95,1271.82 
  449.965,1271.5 451.979,1271.17 453.994,1270.84 456.008,1270.51 458.022,1270.17 460.037,1269.84 462.051,1269.5 464.065,1269.16 466.08,1268.81 468.094,1268.47 
  470.109,1268.12 472.123,1267.77 474.137,1267.42 476.152,1267.06 478.166,1266.7 480.18,1266.34 482.195,1265.98 484.209,1265.61 486.224,1265.24 488.238,1264.87 
  490.252,1264.5 492.267,1264.12 494.281,1263.74 496.295,1263.36 498.31,1262.97 500.324,1262.58 502.339,1262.19 504.353,1261.8 506.367,1261.4 508.382,1261 
  510.396,1260.6 512.411,1260.19 514.425,1259.79 516.439,1259.37 518.454,1258.96 520.468,1258.54 522.482,1258.12 524.497,1257.7 526.511,1257.27 528.526,1256.84 
  530.54,1256.41 532.554,1255.97 534.569,1255.53 536.583,1255.09 538.597,1254.64 540.612,1254.19 542.626,1253.73 544.641,1253.28 546.655,1252.82 548.669,1252.35 
  550.684,1251.88 552.698,1251.41 554.712,1250.94 556.727,1250.46 558.741,1249.98 560.756,1249.49 562.77,1249 564.784,1248.5 566.799,1248.01 568.813,1247.5 
  570.827,1247 572.842,1246.49 574.856,1245.97 576.871,1245.46 578.885,1244.93 580.899,1244.41 582.914,1243.88 584.928,1243.34 586.942,1242.8 588.957,1242.26 
  590.971,1241.71 592.986,1241.16 595,1240.6 597.014,1240.04 599.029,1239.47 601.043,1238.9 603.057,1238.33 605.072,1237.75 607.086,1237.16 609.101,1236.57 
  611.115,1235.98 613.129,1235.38 615.144,1234.78 617.158,1234.17 619.172,1233.55 621.187,1232.93 623.201,1232.31 625.216,1231.68 627.23,1231.04 629.244,1230.4 
  631.259,1229.75 633.273,1229.1 635.287,1228.44 637.302,1227.78 639.316,1227.11 641.331,1226.44 643.345,1225.76 645.359,1225.07 647.374,1224.38 649.388,1223.68 
  651.402,1222.97 653.417,1222.26 655.431,1221.55 657.446,1220.82 659.46,1220.1 661.474,1219.36 663.489,1218.62 665.503,1217.87 667.517,1217.11 669.532,1216.35 
  671.546,1215.58 673.561,1214.81 675.575,1214.02 677.589,1213.23 679.604,1212.44 681.618,1211.63 683.632,1210.82 685.647,1210 687.661,1209.18 689.676,1208.34 
  691.69,1207.5 693.704,1206.65 695.719,1205.8 697.733,1204.93 699.747,1204.06 701.762,1203.18 703.776,1202.29 705.791,1201.39 707.805,1200.49 709.819,1199.57 
  711.834,1198.65 713.848,1197.72 715.862,1196.78 717.877,1195.83 719.891,1194.87 721.906,1193.91 723.92,1192.93 725.934,1191.95 727.949,1190.95 729.963,1189.95 
  731.978,1188.93 733.992,1187.91 736.006,1186.88 738.021,1185.83 740.035,1184.78 742.049,1183.72 744.064,1182.64 746.078,1181.56 748.093,1180.46 750.107,1179.36 
  752.121,1178.24 754.136,1177.11 756.15,1175.97 758.164,1174.82 760.179,1173.66 762.193,1172.49 764.208,1171.3 766.222,1170.11 768.236,1168.9 770.251,1167.68 
  772.265,1166.44 774.279,1165.2 776.294,1163.94 778.308,1162.67 780.323,1161.38 782.337,1160.09 784.351,1158.78 786.366,1157.45 788.38,1156.12 790.394,1154.76 
  792.409,1153.4 794.423,1152.02 796.438,1150.63 798.452,1149.22 800.466,1147.8 802.481,1146.36 804.495,1144.91 806.509,1143.44 808.524,1141.95 810.538,1140.46 
  812.553,1138.94 814.567,1137.41 816.581,1135.86 818.596,1134.3 820.61,1132.72 822.624,1131.12 824.639,1129.51 826.653,1127.88 828.668,1126.23 830.682,1124.56 
  832.696,1122.87 834.711,1121.17 836.725,1119.45 838.739,1117.71 840.754,1115.95 842.768,1114.17 844.783,1112.37 846.797,1110.55 848.811,1108.72 850.826,1106.86 
  852.84,1104.98 854.854,1103.08 856.869,1101.16 858.883,1099.22 860.898,1097.25 862.912,1095.27 864.926,1093.26 866.941,1091.23 868.955,1089.17 870.969,1087.1 
  872.984,1085 874.998,1082.87 877.013,1080.73 879.027,1078.55 881.041,1076.36 883.056,1074.14 885.07,1071.89 887.084,1069.62 889.099,1067.32 891.113,1064.99 
  893.128,1062.64 895.142,1060.26 897.156,1057.86 899.171,1055.42 901.185,1052.96 903.199,1050.47 905.214,1047.95 907.228,1045.4 909.243,1042.82 911.257,1040.21 
  913.271,1037.57 915.286,1034.9 917.3,1032.2 919.314,1029.47 921.329,1026.7 923.343,1023.91 925.358,1021.08 927.372,1018.21 929.386,1015.32 931.401,1012.38 
  933.415,1009.42 935.429,1006.42 937.444,1003.38 939.458,1000.31 941.473,997.199 943.487,994.053 945.501,990.87 947.516,987.65 949.53,984.391 951.545,981.093 
  953.559,977.756 955.573,974.38 957.588,970.963 959.602,967.506 961.616,964.008 963.631,960.468 965.645,956.887 967.66,953.262 969.674,949.595 971.688,945.884 
  973.703,942.129 975.717,938.33 977.731,934.485 979.746,930.595 981.76,926.659 983.775,922.677 985.789,918.648 987.803,914.571 989.818,910.446 991.832,906.272 
  993.846,902.05 995.861,897.778 997.875,893.457 999.89,889.085 1001.9,884.662 1003.92,880.187 1005.93,875.661 1007.95,871.083 1009.96,866.452 1011.98,861.768 
  1013.99,857.03 1016,852.238 1018.02,847.392 1020.03,842.491 1022.05,837.534 1024.06,832.522 1026.08,827.455 1028.09,822.33 1030.11,817.15 1032.12,811.912 
  1034.13,806.617 1036.15,801.265 1038.16,795.854 1040.18,790.386 1042.19,784.86 1044.21,779.275 1046.22,773.632 1048.23,767.93 1050.25,762.169 1052.26,756.349 
  1054.28,750.47 1056.29,744.533 1058.31,738.537 1060.32,732.482 1062.34,726.368 1064.35,720.195 1066.36,713.965 1068.38,707.676 1070.39,701.329 1072.41,694.925 
  1074.42,688.464 1076.44,681.946 1078.45,675.372 1080.46,668.743 1082.48,662.059 1084.49,655.32 1086.51,648.528 1088.52,641.683 1090.54,634.787 1092.55,627.839 
  1094.57,620.842 1096.58,613.796 1098.59,606.703 1100.61,599.563 1102.62,592.379 1104.64,585.152 1106.65,577.882 1108.67,570.573 1110.68,563.225 1112.69,555.84 
  1114.71,548.421 1116.72,540.969 1118.74,533.487 1120.75,525.977 1122.77,518.441 1124.78,510.882 1126.8,503.301 1128.81,495.703 1130.82,488.09 1132.84,480.464 
  1134.85,472.829 1136.87,465.188 1138.88,457.544 1140.9,449.901 1142.91,442.262 1144.92,434.631 1146.94,427.011 1148.95,419.407 1150.97,411.822 1152.98,404.261 
  1155,396.727 1157.01,389.226 1159.03,381.761 1161.04,374.338 1163.05,366.96 1165.07,359.633 1167.08,352.361 1169.1,345.149 1171.11,338.003 1173.13,330.928 
  1175.14,323.928 1177.15,317.009 1179.17,310.176 1181.18,303.435 1183.2,296.791 1185.21,290.249 1187.23,283.815 1189.24,277.495 1191.26,271.293 1193.27,265.216 
  1195.28,259.269 1197.3,253.457 1199.31,247.786 1201.33,242.261 1203.34,236.888 1205.36,231.672 1207.37,226.618 1209.38,221.731 1211.4,217.016 1213.41,212.478 
  1215.43,208.122 1217.44,203.953 1219.46,199.974 1221.47,196.191 1223.49,192.608 1225.5,189.228 1227.51,186.055 1229.53,183.093 1231.54,180.346 1233.56,177.816 
  1235.57,175.507 1237.59,173.42 1239.6,171.559 1241.61,169.926 1243.63,168.523 1245.64,167.351 1247.66,166.411 1249.67,165.706 1251.69,165.235 1253.7,164.999 
  1255.72,164.999 1257.73,165.235 1259.74,165.706 1261.76,166.411 1263.77,167.351 1265.79,168.523 1267.8,169.926 1269.82,171.559 1271.83,173.42 1273.84,175.507 
  1275.86,177.816 1277.87,180.346 1279.89,183.093 1281.9,186.055 1283.92,189.228 1285.93,192.608 1287.95,196.191 1289.96,199.974 1291.97,203.953 1293.99,208.122 
  1296,212.478 1298.02,217.016 1300.03,221.731 1302.05,226.618 1304.06,231.672 1306.07,236.888 1308.09,242.261 1310.1,247.786 1312.12,253.457 1314.13,259.269 
  1316.15,265.216 1318.16,271.293 1320.18,277.495 1322.19,283.815 1324.2,290.249 1326.22,296.791 1328.23,303.435 1330.25,310.176 1332.26,317.009 1334.28,323.928 
  1336.29,330.928 1338.3,338.003 1340.32,345.149 1342.33,352.361 1344.35,359.633 1346.36,366.96 1348.38,374.338 1350.39,381.761 1352.41,389.226 1354.42,396.727 
  1356.43,404.261 1358.45,411.822 1360.46,419.407 1362.48,427.011 1364.49,434.631 1366.51,442.262 1368.52,449.901 1370.53,457.544 1372.55,465.188 1374.56,472.829 
  1376.58,480.464 1378.59,488.09 1380.61,495.703 1382.62,503.301 1384.64,510.882 1386.65,518.441 1388.66,525.977 1390.68,533.487 1392.69,540.969 1394.71,548.421 
  1396.72,555.84 1398.74,563.225 1400.75,570.573 1402.76,577.882 1404.78,585.152 1406.79,592.379 1408.81,599.563 1410.82,606.703 1412.84,613.796 1414.85,620.842 
  1416.87,627.839 1418.88,634.787 1420.89,641.683 1422.91,648.528 1424.92,655.32 1426.94,662.059 1428.95,668.743 1430.97,675.372 1432.98,681.946 1434.99,688.464 
  1437.01,694.925 1439.02,701.329 1441.04,707.676 1443.05,713.965 1445.07,720.195 1447.08,726.368 1449.1,732.482 1451.11,738.537 1453.12,744.533 1455.14,750.47 
  1457.15,756.349 1459.17,762.169 1461.18,767.93 1463.2,773.632 1465.21,779.275 1467.22,784.86 1469.24,790.386 1471.25,795.854 1473.27,801.265 1475.28,806.617 
  1477.3,811.912 1479.31,817.15 1481.33,822.33 1483.34,827.455 1485.35,832.522 1487.37,837.534 1489.38,842.491 1491.4,847.392 1493.41,852.238 1495.43,857.03 
  1497.44,861.768 1499.45,866.452 1501.47,871.083 1503.48,875.661 1505.5,880.187 1507.51,884.662 1509.53,889.085 1511.54,893.457 1513.56,897.778 1515.57,902.05 
  1517.58,906.272 1519.6,910.446 1521.61,914.571 1523.63,918.648 1525.64,922.677 1527.66,926.659 1529.67,930.595 1531.68,934.485 1533.7,938.33 1535.71,942.129 
  1537.73,945.884 1539.74,949.595 1541.76,953.262 1543.77,956.887 1545.79,960.468 1547.8,964.008 1549.81,967.506 1551.83,970.963 1553.84,974.38 1555.86,977.756 
  1557.87,981.093 1559.89,984.391 1561.9,987.65 1563.91,990.87 1565.93,994.053 1567.94,997.199 1569.96,1000.31 1571.97,1003.38 1573.99,1006.42 1576,1009.42 
  1578.02,1012.38 1580.03,1015.32 1582.04,1018.21 1584.06,1021.08 1586.07,1023.91 1588.09,1026.7 1590.1,1029.47 1592.12,1032.2 1594.13,1034.9 1596.14,1037.57 
  1598.16,1040.21 1600.17,1042.82 1602.19,1045.4 1604.2,1047.95 1606.22,1050.47 1608.23,1052.96 1610.25,1055.42 1612.26,1057.86 1614.27,1060.26 1616.29,1062.64 
  1618.3,1064.99 1620.32,1067.32 1622.33,1069.62 1624.35,1071.89 1626.36,1074.14 1628.37,1076.36 1630.39,1078.55 1632.4,1080.73 1634.42,1082.87 1636.43,1085 
  1638.45,1087.1 1640.46,1089.17 1642.48,1091.23 1644.49,1093.26 1646.5,1095.27 1648.52,1097.25 1650.53,1099.22 1652.55,1101.16 1654.56,1103.08 1656.58,1104.98 
  1658.59,1106.86 1660.6,1108.72 1662.62,1110.55 1664.63,1112.37 1666.65,1114.17 1668.66,1115.95 1670.68,1117.71 1672.69,1119.45 1674.71,1121.17 1676.72,1122.87 
  1678.73,1124.56 1680.75,1126.23 1682.76,1127.88 1684.78,1129.51 1686.79,1131.12 1688.81,1132.72 1690.82,1134.3 1692.83,1135.86 1694.85,1137.41 1696.86,1138.94 
  1698.88,1140.46 1700.89,1141.95 1702.91,1143.44 1704.92,1144.91 1706.94,1146.36 1708.95,1147.8 1710.96,1149.22 1712.98,1150.63 1714.99,1152.02 1717.01,1153.4 
  1719.02,1154.76 1721.04,1156.12 1723.05,1157.45 1725.06,1158.78 1727.08,1160.09 1729.09,1161.38 1731.11,1162.67 1733.12,1163.94 1735.14,1165.2 1737.15,1166.44 
  1739.17,1167.68 1741.18,1168.9 1743.19,1170.11 1745.21,1171.3 1747.22,1172.49 1749.24,1173.66 1751.25,1174.82 1753.27,1175.97 1755.28,1177.11 1757.29,1178.24 
  1759.31,1179.36 1761.32,1180.46 1763.34,1181.56 1765.35,1182.64 1767.37,1183.72 1769.38,1184.78 1771.4,1185.83 1773.41,1186.88 1775.42,1187.91 1777.44,1188.93 
  1779.45,1189.95 1781.47,1190.95 1783.48,1191.95 1785.5,1192.93 1787.51,1193.91 1789.52,1194.87 1791.54,1195.83 1793.55,1196.78 1795.57,1197.72 1797.58,1198.65 
  1799.6,1199.57 1801.61,1200.49 1803.63,1201.39 1805.64,1202.29 1807.65,1203.18 1809.67,1204.06 1811.68,1204.93 1813.7,1205.8 1815.71,1206.65 1817.73,1207.5 
  1819.74,1208.34 1821.75,1209.18 1823.77,1210 1825.78,1210.82 1827.8,1211.63 1829.81,1212.44 1831.83,1213.23 1833.84,1214.02 1835.86,1214.81 1837.87,1215.58 
  1839.88,1216.35 1841.9,1217.11 1843.91,1217.87 1845.93,1218.62 1847.94,1219.36 1849.96,1220.1 1851.97,1220.82 1853.99,1221.55 1856,1222.26 1858.01,1222.97 
  1860.03,1223.68 1862.04,1224.38 1864.06,1225.07 1866.07,1225.76 1868.09,1226.44 1870.1,1227.11 1872.11,1227.78 1874.13,1228.44 1876.14,1229.1 1878.16,1229.75 
  1880.17,1230.4 1882.19,1231.04 1884.2,1231.68 1886.22,1232.31 1888.23,1232.93 1890.24,1233.55 1892.26,1234.17 1894.27,1234.78 1896.29,1235.38 1898.3,1235.98 
  1900.32,1236.57 1902.33,1237.16 1904.34,1237.75 1906.36,1238.33 1908.37,1238.9 1910.39,1239.47 1912.4,1240.04 1914.42,1240.6 1916.43,1241.16 1918.45,1241.71 
  1920.46,1242.26 1922.47,1242.8 1924.49,1243.34 1926.5,1243.88 1928.52,1244.41 1930.53,1244.93 1932.55,1245.46 1934.56,1245.97 1936.57,1246.49 1938.59,1247 
  1940.6,1247.5 1942.62,1248.01 1944.63,1248.5 1946.65,1249 1948.66,1249.49 1950.68,1249.98 1952.69,1250.46 1954.7,1250.94 1956.72,1251.41 1958.73,1251.88 
  1960.75,1252.35 1962.76,1252.82 1964.78,1253.28 1966.79,1253.73 1968.8,1254.19 1970.82,1254.64 1972.83,1255.09 1974.85,1255.53 1976.86,1255.97 1978.88,1256.41 
  1980.89,1256.84 1982.91,1257.27 1984.92,1257.7 1986.93,1258.12 1988.95,1258.54 1990.96,1258.96 1992.98,1259.37 1994.99,1259.79 1997.01,1260.19 1999.02,1260.6 
  2001.03,1261 2003.05,1261.4 2005.06,1261.8 2007.08,1262.19 2009.09,1262.58 2011.11,1262.97 2013.12,1263.36 2015.14,1263.74 2017.15,1264.12 2019.16,1264.5 
  2021.18,1264.87 2023.19,1265.24 2025.21,1265.61 2027.22,1265.98 2029.24,1266.34 2031.25,1266.7 2033.26,1267.06 2035.28,1267.42 2037.29,1267.77 2039.31,1268.12 
  2041.32,1268.47 2043.34,1268.81 2045.35,1269.16 2047.37,1269.5 2049.38,1269.84 2051.39,1270.17 2053.41,1270.51 2055.42,1270.84 2057.44,1271.17 2059.45,1271.5 
  2061.47,1271.82 2063.48,1272.14 2065.49,1272.46 2067.51,1272.78 2069.52,1273.1 2071.54,1273.41 2073.55,1273.72 2075.57,1274.03 2077.58,1274.34 2079.6,1274.65 
  2081.61,1274.95 2083.62,1275.25 2085.64,1275.55 2087.65,1275.85 2089.67,1276.14 2091.68,1276.44 2093.7,1276.73 2095.71,1277.02 2097.72,1277.3 2099.74,1277.59 
  2101.75,1277.87 2103.77,1278.16 2105.78,1278.44 2107.8,1278.71 2109.81,1278.99 2111.83,1279.27 2113.84,1279.54 2115.85,1279.81 2117.87,1280.08 2119.88,1280.35 
  2121.9,1280.61 2123.91,1280.88 2125.93,1281.14 2127.94,1281.4 2129.95,1281.66 2131.97,1281.91 2133.98,1282.17 2136,1282.42 2138.01,1282.68 2140.03,1282.93 
  2142.04,1283.18 2144.06,1283.42 2146.07,1283.67 2148.08,1283.91 2150.1,1284.16 2152.11,1284.4 2154.13,1284.64 2156.14,1284.88 2158.16,1285.11 2160.17,1285.35 
  2162.18,1285.58 2164.2,1285.81 2166.21,1286.05 2168.23,1286.28 2170.24,1286.5 2172.26,1286.73 2174.27,1286.96 2176.29,1287.18 2178.3,1287.4 2180.31,1287.62 
  2182.33,1287.84 2184.34,1288.06 2186.36,1288.28 2188.37,1288.49 2190.39,1288.71 2192.4,1288.92 2194.41,1289.13 2196.43,1289.35 2198.44,1289.55 2200.46,1289.76 
  2202.47,1289.97 2204.49,1290.18 2206.5,1290.38 2208.52,1290.58 2210.53,1290.79 2212.54,1290.99 2214.56,1291.19 2216.57,1291.38 2218.59,1291.58 2220.6,1291.78 
  2222.62,1291.97 2224.63,1292.17 2226.64,1292.36 2228.66,1292.55 2230.67,1292.74 2232.69,1292.93 2234.7,1293.12 2236.72,1293.31 2238.73,1293.49 2240.75,1293.68 
  2242.76,1293.86 2244.77,1294.04 2246.79,1294.22 2248.8,1294.41 2250.82,1294.59 2252.83,1294.76 2254.85,1294.94 2256.86,1295.12 2258.87,1295.29 2260.89,1295.47 
  
  "/>
<circle clip-path="url(#clip8303)" style="fill:#000000; stroke:none; fill-opacity:1" cx="248.527" cy="1295.47" r="18"/>
<circle clip-path="url(#clip8303)" style="fill:#e26f46; stroke:none; fill-opacity:1" cx="248.527" cy="1295.47" r="14"/>
<circle clip-path="url(#clip8303)" style="fill:#000000; stroke:none; fill-opacity:1" cx="583.921" cy="1243.61" r="18"/>
<circle clip-path="url(#clip8303)" style="fill:#e26f46; stroke:none; fill-opacity:1" cx="583.921" cy="1243.61" r="14"/>
<circle clip-path="url(#clip8303)" style="fill:#000000; stroke:none; fill-opacity:1" cx="919.314" cy="1029.47" r="18"/>
<circle clip-path="url(#clip8303)" style="fill:#e26f46; stroke:none; fill-opacity:1" cx="919.314" cy="1029.47" r="14"/>
<circle clip-path="url(#clip8303)" style="fill:#000000; stroke:none; fill-opacity:1" cx="1254.71" cy="164.97" r="18"/>
<circle clip-path="url(#clip8303)" style="fill:#e26f46; stroke:none; fill-opacity:1" cx="1254.71" cy="164.97" r="14"/>
<circle clip-path="url(#clip8303)" style="fill:#000000; stroke:none; fill-opacity:1" cx="1590.1" cy="1029.47" r="18"/>
<circle clip-path="url(#clip8303)" style="fill:#e26f46; stroke:none; fill-opacity:1" cx="1590.1" cy="1029.47" r="14"/>
<circle clip-path="url(#clip8303)" style="fill:#000000; stroke:none; fill-opacity:1" cx="1925.5" cy="1243.61" r="18"/>
<circle clip-path="url(#clip8303)" style="fill:#e26f46; stroke:none; fill-opacity:1" cx="1925.5" cy="1243.61" r="14"/>
<circle clip-path="url(#clip8303)" style="fill:#000000; stroke:none; fill-opacity:1" cx="2260.89" cy="1295.47" r="18"/>
<circle clip-path="url(#clip8303)" style="fill:#e26f46; stroke:none; fill-opacity:1" cx="2260.89" cy="1295.47" r="14"/>
<polyline clip-path="url(#clip8303)" style="stroke:#3da44d; stroke-width:4; stroke-opacity:1; fill:none" points="
  248.527,1295.47 250.542,1266.31 252.556,1237.89 254.57,1210.21 256.585,1183.26 258.599,1157.02 260.613,1131.48 262.628,1106.64 264.642,1082.49 266.657,1059.01 
  268.671,1036.19 270.685,1014.04 272.7,992.532 274.714,971.663 276.728,951.424 278.743,931.806 280.757,912.799 282.772,894.394 284.786,876.583 286.8,859.358 
  288.815,842.708 290.829,826.626 292.844,811.103 294.858,796.13 296.872,781.699 298.887,767.803 300.901,754.431 302.915,741.577 304.93,729.232 306.944,717.389 
  308.959,706.038 310.973,695.172 312.987,684.784 315.002,674.865 317.016,665.408 319.03,656.405 321.045,647.849 323.059,639.732 325.074,632.046 327.088,624.785 
  329.102,617.94 331.117,611.505 333.131,605.473 335.145,599.836 337.16,594.588 339.174,589.721 341.189,585.228 343.203,581.103 345.217,577.339 347.232,573.928 
  349.246,570.866 351.26,568.144 353.275,565.756 355.289,563.696 357.304,561.958 359.318,560.534 361.332,559.42 363.347,558.608 365.361,558.092 367.375,557.867 
  369.39,557.926 371.404,558.263 373.419,558.872 375.433,559.748 377.447,560.885 379.462,562.276 381.476,563.917 383.49,565.801 385.505,567.924 387.519,570.278 
  389.534,572.86 391.548,575.664 393.562,578.683 395.577,581.914 397.591,585.351 399.605,588.988 401.62,592.821 403.634,596.844 405.649,601.052 407.663,605.441 
  409.677,610.005 411.692,614.74 413.706,619.641 415.72,624.703 417.735,629.922 419.749,635.292 421.764,640.81 423.778,646.47 425.792,652.269 427.807,658.201 
  429.821,664.263 431.835,670.45 433.85,676.757 435.864,683.181 437.879,689.718 439.893,696.363 441.907,703.112 443.922,709.961 445.936,716.906 447.95,723.944 
  449.965,731.07 451.979,738.28 453.994,745.571 456.008,752.94 458.022,760.381 460.037,767.892 462.051,775.469 464.065,783.109 466.08,790.808 468.094,798.562 
  470.109,806.368 472.123,814.223 474.137,822.123 476.152,830.066 478.166,838.047 480.18,846.064 482.195,854.114 484.209,862.193 486.224,870.299 488.238,878.427 
  490.252,886.576 492.267,894.743 494.281,902.924 496.295,911.117 498.31,919.318 500.324,927.526 502.339,935.737 504.353,943.949 506.367,952.158 508.382,960.364 
  510.396,968.562 512.411,976.75 514.425,984.926 516.439,993.087 518.454,1001.23 520.468,1009.36 522.482,1017.46 524.497,1025.54 526.511,1033.59 528.526,1041.62 
  530.54,1049.61 532.554,1057.57 534.569,1065.5 536.583,1073.39 538.597,1081.24 540.612,1089.05 542.626,1096.81 544.641,1104.53 546.655,1112.21 548.669,1119.83 
  550.684,1127.41 552.698,1134.93 554.712,1142.4 556.727,1149.81 558.741,1157.16 560.756,1164.46 562.77,1171.69 564.784,1178.87 566.799,1185.98 568.813,1193.02 
  570.827,1199.99 572.842,1206.9 574.856,1213.74 576.871,1220.51 578.885,1227.2 580.899,1233.82 582.914,1240.37 584.928,1246.84 586.942,1253.23 588.957,1259.54 
  590.971,1265.77 592.986,1271.92 595,1277.99 597.014,1283.97 599.029,1289.87 601.043,1295.69 603.057,1301.41 605.072,1307.05 607.086,1312.61 609.101,1318.07 
  611.115,1323.44 613.129,1328.72 615.144,1333.91 617.158,1339 619.172,1344 621.187,1348.91 623.201,1353.72 625.216,1358.44 627.23,1363.06 629.244,1367.58 
  631.259,1372.01 633.273,1376.33 635.287,1380.56 637.302,1384.68 639.316,1388.71 641.331,1392.64 643.345,1396.46 645.359,1400.19 647.374,1403.81 649.388,1407.33 
  651.402,1410.74 653.417,1414.06 655.431,1417.26 657.446,1420.37 659.46,1423.37 661.474,1426.27 663.489,1429.06 665.503,1431.74 667.517,1434.33 669.532,1436.8 
  671.546,1439.17 673.561,1441.44 675.575,1443.59 677.589,1445.65 679.604,1447.59 681.618,1449.43 683.632,1451.17 685.647,1452.8 687.661,1454.32 689.676,1455.73 
  691.69,1457.04 693.704,1458.24 695.719,1459.34 697.733,1460.33 699.747,1461.21 701.762,1461.99 703.776,1462.66 705.791,1463.23 707.805,1463.69 709.819,1464.05 
  711.834,1464.3 713.848,1464.45 715.862,1464.49 717.877,1464.43 719.891,1464.26 721.906,1463.99 723.92,1463.62 725.934,1463.14 727.949,1462.56 729.963,1461.88 
  731.978,1461.09 733.992,1460.2 736.006,1459.22 738.021,1458.13 740.035,1456.94 742.049,1455.65 744.064,1454.26 746.078,1452.77 748.093,1451.18 750.107,1449.5 
  752.121,1447.71 754.136,1445.83 756.15,1443.85 758.164,1441.78 760.179,1439.61 762.193,1437.34 764.208,1434.99 766.222,1432.53 768.236,1429.99 770.251,1427.35 
  772.265,1424.61 774.279,1421.79 776.294,1418.88 778.308,1415.87 780.323,1412.78 782.337,1409.6 784.351,1406.32 786.366,1402.97 788.38,1399.52 790.394,1395.99 
  792.409,1392.37 794.423,1388.67 796.438,1384.89 798.452,1381.02 800.466,1377.07 802.481,1373.03 804.495,1368.92 806.509,1364.73 808.524,1360.45 810.538,1356.1 
  812.553,1351.68 814.567,1347.17 816.581,1342.59 818.596,1337.93 820.61,1333.2 822.624,1328.4 824.639,1323.52 826.653,1318.57 828.668,1313.55 830.682,1308.46 
  832.696,1303.3 834.711,1298.07 836.725,1292.78 838.739,1287.42 840.754,1281.99 842.768,1276.5 844.783,1270.95 846.797,1265.33 848.811,1259.65 850.826,1253.91 
  852.84,1248.11 854.854,1242.25 856.869,1236.34 858.883,1230.36 860.898,1224.33 862.912,1218.25 864.926,1212.11 866.941,1205.91 868.955,1199.67 870.969,1193.37 
  872.984,1187.02 874.998,1180.63 877.013,1174.18 879.027,1167.69 881.041,1161.15 883.056,1154.57 885.07,1147.94 887.084,1141.27 889.099,1134.56 891.113,1127.8 
  893.128,1121.01 895.142,1114.17 897.156,1107.3 899.171,1100.39 901.185,1093.45 903.199,1086.46 905.214,1079.45 907.228,1072.4 909.243,1065.32 911.257,1058.21 
  913.271,1051.06 915.286,1043.89 917.3,1036.69 919.314,1029.47 921.329,1022.22 923.343,1014.94 925.358,1007.64 927.372,1000.31 929.386,992.969 931.401,985.603 
  933.415,978.217 935.429,970.812 937.444,963.389 939.458,955.95 941.473,948.495 943.487,941.025 945.501,933.542 947.516,926.046 949.53,918.539 951.545,911.021 
  953.559,903.493 955.573,895.958 957.588,888.414 959.602,880.865 961.616,873.309 963.631,865.75 965.645,858.187 967.66,850.622 969.674,843.055 971.688,835.488 
  973.703,827.922 975.717,820.357 977.731,812.795 979.746,805.236 981.76,797.683 983.775,790.134 985.789,782.593 987.803,775.059 989.818,767.534 991.832,760.018 
  993.846,752.513 995.861,745.019 997.875,737.538 999.89,730.07 1001.9,722.617 1003.92,715.179 1005.93,707.757 1007.95,700.353 1009.96,692.967 1011.98,685.6 
  1013.99,678.253 1016,670.927 1018.02,663.623 1020.03,656.342 1022.05,649.085 1024.06,641.853 1026.08,634.646 1028.09,627.466 1030.11,620.313 1032.12,613.188 
  1034.13,606.093 1036.15,599.028 1038.16,591.994 1040.18,584.992 1042.19,578.022 1044.21,571.086 1046.22,564.185 1048.23,557.319 1050.25,550.489 1052.26,543.696 
  1054.28,536.941 1056.29,530.225 1058.31,523.548 1060.32,516.912 1062.34,510.317 1064.35,503.763 1066.36,497.253 1068.38,490.786 1070.39,484.363 1072.41,477.985 
  1074.42,471.653 1076.44,465.368 1078.45,459.131 1080.46,452.941 1082.48,446.8 1084.49,440.709 1086.51,434.669 1088.52,428.679 1090.54,422.742 1092.55,416.857 
  1094.57,411.025 1096.58,405.247 1098.59,399.524 1100.61,393.856 1102.62,388.244 1104.64,382.689 1106.65,377.191 1108.67,371.752 1110.68,366.37 1112.69,361.048 
  1114.71,355.786 1116.72,350.585 1118.74,345.445 1120.75,340.366 1122.77,335.35 1124.78,330.397 1126.8,325.507 1128.81,320.682 1130.82,315.921 1132.84,311.225 
  1134.85,306.595 1136.87,302.032 1138.88,297.535 1140.9,293.106 1142.91,288.745 1144.92,284.452 1146.94,280.228 1148.95,276.074 1150.97,271.989 1152.98,267.975 
  1155,264.032 1157.01,260.16 1159.03,256.36 1161.04,252.632 1163.05,248.976 1165.07,245.394 1167.08,241.886 1169.1,238.451 1171.11,235.09 1173.13,231.805 
  1175.14,228.594 1177.15,225.459 1179.17,222.399 1181.18,219.416 1183.2,216.509 1185.21,213.679 1187.23,210.926 1189.24,208.251 1191.26,205.654 1193.27,203.134 
  1195.28,200.693 1197.3,198.331 1199.31,196.048 1201.33,193.843 1203.34,191.719 1205.36,189.674 1207.37,187.709 1209.38,185.824 1211.4,184.019 1213.41,182.295 
  1215.43,180.652 1217.44,179.09 1219.46,177.609 1221.47,176.21 1223.49,174.892 1225.5,173.655 1227.51,172.501 1229.53,171.428 1231.54,170.437 1233.56,169.529 
  1235.57,168.702 1237.59,167.958 1239.6,167.297 1241.61,166.718 1243.63,166.222 1245.64,165.808 1247.66,165.477 1249.67,165.229 1251.69,165.063 1253.7,164.98 
  1255.72,164.98 1257.73,165.063 1259.74,165.229 1261.76,165.477 1263.77,165.808 1265.79,166.222 1267.8,166.718 1269.82,167.297 1271.83,167.958 1273.84,168.702 
  1275.86,169.529 1277.87,170.437 1279.89,171.428 1281.9,172.501 1283.92,173.655 1285.93,174.892 1287.95,176.21 1289.96,177.609 1291.97,179.09 1293.99,180.652 
  1296,182.295 1298.02,184.019 1300.03,185.824 1302.05,187.709 1304.06,189.674 1306.07,191.719 1308.09,193.843 1310.1,196.048 1312.12,198.331 1314.13,200.693 
  1316.15,203.134 1318.16,205.654 1320.18,208.251 1322.19,210.926 1324.2,213.679 1326.22,216.509 1328.23,219.416 1330.25,222.399 1332.26,225.459 1334.28,228.594 
  1336.29,231.805 1338.3,235.09 1340.32,238.451 1342.33,241.886 1344.35,245.394 1346.36,248.976 1348.38,252.632 1350.39,256.36 1352.41,260.16 1354.42,264.032 
  1356.43,267.975 1358.45,271.989 1360.46,276.074 1362.48,280.228 1364.49,284.452 1366.51,288.745 1368.52,293.106 1370.53,297.535 1372.55,302.032 1374.56,306.595 
  1376.58,311.225 1378.59,315.921 1380.61,320.682 1382.62,325.507 1384.64,330.397 1386.65,335.35 1388.66,340.366 1390.68,345.445 1392.69,350.585 1394.71,355.786 
  1396.72,361.048 1398.74,366.37 1400.75,371.752 1402.76,377.191 1404.78,382.689 1406.79,388.244 1408.81,393.856 1410.82,399.524 1412.84,405.247 1414.85,411.025 
  1416.87,416.857 1418.88,422.742 1420.89,428.679 1422.91,434.669 1424.92,440.709 1426.94,446.8 1428.95,452.941 1430.97,459.131 1432.98,465.368 1434.99,471.653 
  1437.01,477.985 1439.02,484.363 1441.04,490.786 1443.05,497.253 1445.07,503.763 1447.08,510.317 1449.1,516.912 1451.11,523.548 1453.12,530.225 1455.14,536.941 
  1457.15,543.696 1459.17,550.489 1461.18,557.319 1463.2,564.185 1465.21,571.086 1467.22,578.022 1469.24,584.992 1471.25,591.994 1473.27,599.028 1475.28,606.093 
  1477.3,613.188 1479.31,620.313 1481.33,627.466 1483.34,634.646 1485.35,641.853 1487.37,649.085 1489.38,656.342 1491.4,663.623 1493.41,670.927 1495.43,678.253 
  1497.44,685.6 1499.45,692.967 1501.47,700.353 1503.48,707.757 1505.5,715.179 1507.51,722.617 1509.53,730.07 1511.54,737.538 1513.56,745.019 1515.57,752.513 
  1517.58,760.018 1519.6,767.534 1521.61,775.059 1523.63,782.593 1525.64,790.134 1527.66,797.683 1529.67,805.236 1531.68,812.795 1533.7,820.357 1535.71,827.922 
  1537.73,835.488 1539.74,843.055 1541.76,850.622 1543.77,858.187 1545.79,865.75 1547.8,873.309 1549.81,880.865 1551.83,888.414 1553.84,895.958 1555.86,903.493 
  1557.87,911.021 1559.89,918.539 1561.9,926.046 1563.91,933.542 1565.93,941.025 1567.94,948.495 1569.96,955.95 1571.97,963.389 1573.99,970.812 1576,978.217 
  1578.02,985.603 1580.03,992.969 1582.04,1000.31 1584.06,1007.64 1586.07,1014.94 1588.09,1022.22 1590.1,1029.47 1592.12,1036.69 1594.13,1043.89 1596.14,1051.06 
  1598.16,1058.21 1600.17,1065.32 1602.19,1072.4 1604.2,1079.45 1606.22,1086.46 1608.23,1093.45 1610.25,1100.39 1612.26,1107.3 1614.27,1114.17 1616.29,1121.01 
  1618.3,1127.8 1620.32,1134.56 1622.33,1141.27 1624.35,1147.94 1626.36,1154.57 1628.37,1161.15 1630.39,1167.69 1632.4,1174.18 1634.42,1180.63 1636.43,1187.02 
  1638.45,1193.37 1640.46,1199.67 1642.48,1205.91 1644.49,1212.11 1646.5,1218.25 1648.52,1224.33 1650.53,1230.36 1652.55,1236.34 1654.56,1242.25 1656.58,1248.11 
  1658.59,1253.91 1660.6,1259.65 1662.62,1265.33 1664.63,1270.95 1666.65,1276.5 1668.66,1281.99 1670.68,1287.42 1672.69,1292.78 1674.71,1298.07 1676.72,1303.3 
  1678.73,1308.46 1680.75,1313.55 1682.76,1318.57 1684.78,1323.52 1686.79,1328.4 1688.81,1333.2 1690.82,1337.93 1692.83,1342.59 1694.85,1347.17 1696.86,1351.68 
  1698.88,1356.1 1700.89,1360.45 1702.91,1364.73 1704.92,1368.92 1706.94,1373.03 1708.95,1377.07 1710.96,1381.02 1712.98,1384.89 1714.99,1388.67 1717.01,1392.37 
  1719.02,1395.99 1721.04,1399.52 1723.05,1402.97 1725.06,1406.32 1727.08,1409.6 1729.09,1412.78 1731.11,1415.87 1733.12,1418.88 1735.14,1421.79 1737.15,1424.61 
  1739.17,1427.35 1741.18,1429.99 1743.19,1432.53 1745.21,1434.99 1747.22,1437.34 1749.24,1439.61 1751.25,1441.78 1753.27,1443.85 1755.28,1445.83 1757.29,1447.71 
  1759.31,1449.5 1761.32,1451.18 1763.34,1452.77 1765.35,1454.26 1767.37,1455.65 1769.38,1456.94 1771.4,1458.13 1773.41,1459.22 1775.42,1460.2 1777.44,1461.09 
  1779.45,1461.88 1781.47,1462.56 1783.48,1463.14 1785.5,1463.62 1787.51,1463.99 1789.52,1464.26 1791.54,1464.43 1793.55,1464.49 1795.57,1464.45 1797.58,1464.3 
  1799.6,1464.05 1801.61,1463.69 1803.63,1463.23 1805.64,1462.66 1807.65,1461.99 1809.67,1461.21 1811.68,1460.33 1813.7,1459.34 1815.71,1458.24 1817.73,1457.04 
  1819.74,1455.73 1821.75,1454.32 1823.77,1452.8 1825.78,1451.17 1827.8,1449.43 1829.81,1447.59 1831.83,1445.65 1833.84,1443.59 1835.86,1441.44 1837.87,1439.17 
  1839.88,1436.8 1841.9,1434.33 1843.91,1431.74 1845.93,1429.06 1847.94,1426.27 1849.96,1423.37 1851.97,1420.37 1853.99,1417.26 1856,1414.06 1858.01,1410.74 
  1860.03,1407.33 1862.04,1403.81 1864.06,1400.19 1866.07,1396.46 1868.09,1392.64 1870.1,1388.71 1872.11,1384.68 1874.13,1380.56 1876.14,1376.33 1878.16,1372.01 
  1880.17,1367.58 1882.19,1363.06 1884.2,1358.44 1886.22,1353.72 1888.23,1348.91 1890.24,1344 1892.26,1339 1894.27,1333.91 1896.29,1328.72 1898.3,1323.44 
  1900.32,1318.07 1902.33,1312.61 1904.34,1307.05 1906.36,1301.41 1908.37,1295.69 1910.39,1289.87 1912.4,1283.97 1914.42,1277.99 1916.43,1271.92 1918.45,1265.77 
  1920.46,1259.54 1922.47,1253.23 1924.49,1246.84 1926.5,1240.37 1928.52,1233.82 1930.53,1227.2 1932.55,1220.51 1934.56,1213.74 1936.57,1206.9 1938.59,1199.99 
  1940.6,1193.02 1942.62,1185.98 1944.63,1178.87 1946.65,1171.69 1948.66,1164.46 1950.68,1157.16 1952.69,1149.81 1954.7,1142.4 1956.72,1134.93 1958.73,1127.41 
  1960.75,1119.83 1962.76,1112.21 1964.78,1104.53 1966.79,1096.81 1968.8,1089.05 1970.82,1081.24 1972.83,1073.39 1974.85,1065.5 1976.86,1057.57 1978.88,1049.61 
  1980.89,1041.62 1982.91,1033.59 1984.92,1025.54 1986.93,1017.46 1988.95,1009.36 1990.96,1001.23 1992.98,993.087 1994.99,984.926 1997.01,976.75 1999.02,968.562 
  2001.03,960.364 2003.05,952.158 2005.06,943.949 2007.08,935.737 2009.09,927.526 2011.11,919.318 2013.12,911.117 2015.14,902.924 2017.15,894.743 2019.16,886.576 
  2021.18,878.427 2023.19,870.299 2025.21,862.193 2027.22,854.114 2029.24,846.064 2031.25,838.047 2033.26,830.066 2035.28,822.123 2037.29,814.223 2039.31,806.368 
  2041.32,798.562 2043.34,790.808 2045.35,783.109 2047.37,775.469 2049.38,767.892 2051.39,760.381 2053.41,752.94 2055.42,745.571 2057.44,738.28 2059.45,731.07 
  2061.47,723.944 2063.48,716.906 2065.49,709.961 2067.51,703.112 2069.52,696.363 2071.54,689.718 2073.55,683.181 2075.57,676.757 2077.58,670.45 2079.6,664.263 
  2081.61,658.201 2083.62,652.269 2085.64,646.47 2087.65,640.81 2089.67,635.292 2091.68,629.922 2093.7,624.703 2095.71,619.641 2097.72,614.74 2099.74,610.005 
  2101.75,605.441 2103.77,601.052 2105.78,596.844 2107.8,592.821 2109.81,588.988 2111.83,585.351 2113.84,581.914 2115.85,578.683 2117.87,575.664 2119.88,572.86 
  2121.9,570.278 2123.91,567.924 2125.93,565.801 2127.94,563.917 2129.95,562.276 2131.97,560.885 2133.98,559.748 2136,558.872 2138.01,558.263 2140.03,557.926 
  2142.04,557.867 2144.06,558.092 2146.07,558.608 2148.08,559.42 2150.1,560.534 2152.11,561.958 2154.13,563.696 2156.14,565.756 2158.16,568.144 2160.17,570.866 
  2162.18,573.928 2164.2,577.339 2166.21,581.103 2168.23,585.228 2170.24,589.721 2172.26,594.588 2174.27,599.836 2176.29,605.473 2178.3,611.505 2180.31,617.94 
  2182.33,624.785 2184.34,632.046 2186.36,639.732 2188.37,647.849 2190.39,656.405 2192.4,665.408 2194.41,674.865 2196.43,684.784 2198.44,695.172 2200.46,706.038 
  2202.47,717.389 2204.49,729.232 2206.5,741.577 2208.52,754.431 2210.53,767.803 2212.54,781.699 2214.56,796.13 2216.57,811.103 2218.59,826.626 2220.6,842.708 
  2222.62,859.358 2224.63,876.583 2226.64,894.394 2228.66,912.799 2230.67,931.806 2232.69,951.424 2234.7,971.663 2236.72,992.532 2238.73,1014.04 2240.75,1036.19 
  2242.76,1059.01 2244.77,1082.49 2246.79,1106.64 2248.8,1131.48 2250.82,1157.02 2252.83,1183.26 2254.85,1210.21 2256.86,1237.89 2258.87,1266.31 2260.89,1295.47 
  
  "/>
<polygon clip-path="url(#clip8301)" points="
1685.51,451.424 2249.26,451.424 2249.26,209.504 1685.51,209.504 
  " fill="#ffffff" fill-rule="evenodd" fill-opacity="1"/>
<polyline clip-path="url(#clip8301)" style="stroke:#000000; stroke-width:4; stroke-opacity:1; fill:none" points="
  1685.51,451.424 2249.26,451.424 2249.26,209.504 1685.51,209.504 1685.51,451.424 
  "/>
<polyline clip-path="url(#clip8301)" style="stroke:#009af9; stroke-width:4; stroke-opacity:1; fill:none" points="
  1709.51,269.984 1853.51,269.984 
  "/>
<g clip-path="url(#clip8301)">
<text style="fill:#000000; fill-opacity:1; font-family:Arial,Helvetica Neue,Helvetica,sans-serif; font-size:48px; text-anchor:start;" transform="rotate(0, 1877.51, 287.484)" x="1877.51" y="287.484">Runge function</text>
</g>
<circle clip-path="url(#clip8301)" style="fill:#000000; stroke:none; fill-opacity:1" cx="1793.51" cy="330.464" r="25"/>
<circle clip-path="url(#clip8301)" style="fill:#e26f46; stroke:none; fill-opacity:1" cx="1793.51" cy="330.464" r="21"/>
<g clip-path="url(#clip8301)">
<text style="fill:#000000; fill-opacity:1; font-family:Arial,Helvetica Neue,Helvetica,sans-serif; font-size:48px; text-anchor:start;" transform="rotate(0, 1877.51, 347.964)" x="1877.51" y="347.964">Nodes</text>
</g>
<polyline clip-path="url(#clip8301)" style="stroke:#3da44d; stroke-width:4; stroke-opacity:1; fill:none" points="
  1709.51,390.944 1853.51,390.944 
  "/>
<g clip-path="url(#clip8301)">
<text style="fill:#000000; fill-opacity:1; font-family:Arial,Helvetica Neue,Helvetica,sans-serif; font-size:48px; text-anchor:start;" transform="rotate(0, 1877.51, 408.444)" x="1877.51" y="408.444">Intepolation</text>
</g>
</svg>
