<?xml version="1.0" encoding="utf-8"?>
<svg xmlns="http://www.w3.org/2000/svg" xmlns:xlink="http://www.w3.org/1999/xlink" width="600" height="400" viewBox="0 0 2400 1600">
<defs>
  <clipPath id="clip8500">
    <rect x="0" y="0" width="2000" height="2000"/>
  </clipPath>
</defs>
<defs>
  <clipPath id="clip8501">
    <rect x="0" y="0" width="2400" height="1600"/>
  </clipPath>
</defs>
<polygon clip-path="url(#clip8501)" points="
0,1600 2400,1600 2400,0 0,0 
  " fill="#ffffff" fill-rule="evenodd" fill-opacity="1"/>
<defs>
  <clipPath id="clip8502">
    <rect x="480" y="0" width="1681" height="1600"/>
  </clipPath>
</defs>
<polygon clip-path="url(#clip8501)" points="
188.156,1503.47 2321.26,1503.47 2321.26,125.984 188.156,125.984 
  " fill="#ffffff" fill-rule="evenodd" fill-opacity="1"/>
<defs>
  <clipPath id="clip8503">
    <rect x="188" y="125" width="2134" height="1378"/>
  </clipPath>
</defs>
<polyline clip-path="url(#clip8503)" style="stroke:#000000; stroke-width:2; stroke-opacity:0.1; fill:none" points="
  248.527,1503.47 248.527,125.984 
  "/>
<polyline clip-path="url(#clip8503)" style="stroke:#000000; stroke-width:2; stroke-opacity:0.1; fill:none" points="
  751.618,1503.47 751.618,125.984 
  "/>
<polyline clip-path="url(#clip8503)" style="stroke:#000000; stroke-width:2; stroke-opacity:0.1; fill:none" points="
  1254.71,1503.47 1254.71,125.984 
  "/>
<polyline clip-path="url(#clip8503)" style="stroke:#000000; stroke-width:2; stroke-opacity:0.1; fill:none" points="
  1757.8,1503.47 1757.8,125.984 
  "/>
<polyline clip-path="url(#clip8503)" style="stroke:#000000; stroke-width:2; stroke-opacity:0.1; fill:none" points="
  2260.89,1503.47 2260.89,125.984 
  "/>
<polyline clip-path="url(#clip8503)" style="stroke:#000000; stroke-width:2; stroke-opacity:0.1; fill:none" points="
  188.156,1497.69 2321.26,1497.69 
  "/>
<polyline clip-path="url(#clip8503)" style="stroke:#000000; stroke-width:2; stroke-opacity:0.1; fill:none" points="
  188.156,1164.5 2321.26,1164.5 
  "/>
<polyline clip-path="url(#clip8503)" style="stroke:#000000; stroke-width:2; stroke-opacity:0.1; fill:none" points="
  188.156,831.314 2321.26,831.314 
  "/>
<polyline clip-path="url(#clip8503)" style="stroke:#000000; stroke-width:2; stroke-opacity:0.1; fill:none" points="
  188.156,498.125 2321.26,498.125 
  "/>
<polyline clip-path="url(#clip8503)" style="stroke:#000000; stroke-width:2; stroke-opacity:0.1; fill:none" points="
  188.156,164.936 2321.26,164.936 
  "/>
<polyline clip-path="url(#clip8501)" style="stroke:#000000; stroke-width:4; stroke-opacity:1; fill:none" points="
  188.156,1503.47 2321.26,1503.47 
  "/>
<polyline clip-path="url(#clip8501)" style="stroke:#000000; stroke-width:4; stroke-opacity:1; fill:none" points="
  188.156,1503.47 188.156,125.984 
  "/>
<polyline clip-path="url(#clip8501)" style="stroke:#000000; stroke-width:4; stroke-opacity:1; fill:none" points="
  248.527,1503.47 248.527,1482.81 
  "/>
<polyline clip-path="url(#clip8501)" style="stroke:#000000; stroke-width:4; stroke-opacity:1; fill:none" points="
  751.618,1503.47 751.618,1482.81 
  "/>
<polyline clip-path="url(#clip8501)" style="stroke:#000000; stroke-width:4; stroke-opacity:1; fill:none" points="
  1254.71,1503.47 1254.71,1482.81 
  "/>
<polyline clip-path="url(#clip8501)" style="stroke:#000000; stroke-width:4; stroke-opacity:1; fill:none" points="
  1757.8,1503.47 1757.8,1482.81 
  "/>
<polyline clip-path="url(#clip8501)" style="stroke:#000000; stroke-width:4; stroke-opacity:1; fill:none" points="
  2260.89,1503.47 2260.89,1482.81 
  "/>
<polyline clip-path="url(#clip8501)" style="stroke:#000000; stroke-width:4; stroke-opacity:1; fill:none" points="
  188.156,1497.69 220.153,1497.69 
  "/>
<polyline clip-path="url(#clip8501)" style="stroke:#000000; stroke-width:4; stroke-opacity:1; fill:none" points="
  188.156,1164.5 220.153,1164.5 
  "/>
<polyline clip-path="url(#clip8501)" style="stroke:#000000; stroke-width:4; stroke-opacity:1; fill:none" points="
  188.156,831.314 220.153,831.314 
  "/>
<polyline clip-path="url(#clip8501)" style="stroke:#000000; stroke-width:4; stroke-opacity:1; fill:none" points="
  188.156,498.125 220.153,498.125 
  "/>
<polyline clip-path="url(#clip8501)" style="stroke:#000000; stroke-width:4; stroke-opacity:1; fill:none" points="
  188.156,164.936 220.153,164.936 
  "/>
<g clip-path="url(#clip8501)">
<text style="fill:#000000; fill-opacity:1; font-family:Arial,Helvetica Neue,Helvetica,sans-serif; font-size:48px; text-anchor:middle;" transform="rotate(0, 248.527, 1557.47)" x="248.527" y="1557.47">-1.0</text>
</g>
<g clip-path="url(#clip8501)">
<text style="fill:#000000; fill-opacity:1; font-family:Arial,Helvetica Neue,Helvetica,sans-serif; font-size:48px; text-anchor:middle;" transform="rotate(0, 751.618, 1557.47)" x="751.618" y="1557.47">-0.5</text>
</g>
<g clip-path="url(#clip8501)">
<text style="fill:#000000; fill-opacity:1; font-family:Arial,Helvetica Neue,Helvetica,sans-serif; font-size:48px; text-anchor:middle;" transform="rotate(0, 1254.71, 1557.47)" x="1254.71" y="1557.47">0.0</text>
</g>
<g clip-path="url(#clip8501)">
<text style="fill:#000000; fill-opacity:1; font-family:Arial,Helvetica Neue,Helvetica,sans-serif; font-size:48px; text-anchor:middle;" transform="rotate(0, 1757.8, 1557.47)" x="1757.8" y="1557.47">0.5</text>
</g>
<g clip-path="url(#clip8501)">
<text style="fill:#000000; fill-opacity:1; font-family:Arial,Helvetica Neue,Helvetica,sans-serif; font-size:48px; text-anchor:middle;" transform="rotate(0, 2260.89, 1557.47)" x="2260.89" y="1557.47">1.0</text>
</g>
<g clip-path="url(#clip8501)">
<text style="fill:#000000; fill-opacity:1; font-family:Arial,Helvetica Neue,Helvetica,sans-serif; font-size:48px; text-anchor:end;" transform="rotate(0, 164.156, 1515.19)" x="164.156" y="1515.19">0.00</text>
</g>
<g clip-path="url(#clip8501)">
<text style="fill:#000000; fill-opacity:1; font-family:Arial,Helvetica Neue,Helvetica,sans-serif; font-size:48px; text-anchor:end;" transform="rotate(0, 164.156, 1182)" x="164.156" y="1182">0.25</text>
</g>
<g clip-path="url(#clip8501)">
<text style="fill:#000000; fill-opacity:1; font-family:Arial,Helvetica Neue,Helvetica,sans-serif; font-size:48px; text-anchor:end;" transform="rotate(0, 164.156, 848.814)" x="164.156" y="848.814">0.50</text>
</g>
<g clip-path="url(#clip8501)">
<text style="fill:#000000; fill-opacity:1; font-family:Arial,Helvetica Neue,Helvetica,sans-serif; font-size:48px; text-anchor:end;" transform="rotate(0, 164.156, 515.625)" x="164.156" y="515.625">0.75</text>
</g>
<g clip-path="url(#clip8501)">
<text style="fill:#000000; fill-opacity:1; font-family:Arial,Helvetica Neue,Helvetica,sans-serif; font-size:48px; text-anchor:end;" transform="rotate(0, 164.156, 182.436)" x="164.156" y="182.436">1.00</text>
</g>
<g clip-path="url(#clip8501)">
<text style="fill:#000000; fill-opacity:1; font-family:Arial,Helvetica Neue,Helvetica,sans-serif; font-size:84px; text-anchor:middle;" transform="rotate(0, 1254.71, 73.2)" x="1254.71" y="73.2">Runge&apos;s phenomenon (Nodes = 8)</text>
</g>
<polyline clip-path="url(#clip8503)" style="stroke:#009af9; stroke-width:4; stroke-opacity:1; fill:none" points="
  248.527,1446.43 250.542,1446.23 252.556,1446.03 254.57,1445.83 256.585,1445.63 258.599,1445.43 260.613,1445.23 262.628,1445.02 264.642,1444.82 266.657,1444.61 
  268.671,1444.4 270.685,1444.19 272.7,1443.98 274.714,1443.77 276.728,1443.55 278.743,1443.34 280.757,1443.12 282.772,1442.91 284.786,1442.69 286.8,1442.47 
  288.815,1442.25 290.829,1442.02 292.844,1441.8 294.858,1441.58 296.872,1441.35 298.887,1441.12 300.901,1440.89 302.915,1440.66 304.93,1440.43 306.944,1440.2 
  308.959,1439.96 310.973,1439.73 312.987,1439.49 315.002,1439.25 317.016,1439.01 319.03,1438.77 321.045,1438.53 323.059,1438.28 325.074,1438.04 327.088,1437.79 
  329.102,1437.54 331.117,1437.29 333.131,1437.04 335.145,1436.78 337.16,1436.53 339.174,1436.27 341.189,1436.01 343.203,1435.75 345.217,1435.49 347.232,1435.22 
  349.246,1434.96 351.26,1434.69 353.275,1434.42 355.289,1434.15 357.304,1433.88 359.318,1433.61 361.332,1433.33 363.347,1433.06 365.361,1432.78 367.375,1432.5 
  369.39,1432.21 371.404,1431.93 373.419,1431.64 375.433,1431.36 377.447,1431.07 379.462,1430.77 381.476,1430.48 383.49,1430.19 385.505,1429.89 387.519,1429.59 
  389.534,1429.29 391.548,1428.98 393.562,1428.68 395.577,1428.37 397.591,1428.06 399.605,1427.75 401.62,1427.44 403.634,1427.12 405.649,1426.81 407.663,1426.49 
  409.677,1426.17 411.692,1425.84 413.706,1425.52 415.72,1425.19 417.735,1424.86 419.749,1424.52 421.764,1424.19 423.778,1423.85 425.792,1423.51 427.807,1423.17 
  429.821,1422.83 431.835,1422.48 433.85,1422.13 435.864,1421.78 437.879,1421.43 439.893,1421.07 441.907,1420.71 443.922,1420.35 445.936,1419.99 447.95,1419.62 
  449.965,1419.26 451.979,1418.89 453.994,1418.51 456.008,1418.14 458.022,1417.76 460.037,1417.38 462.051,1416.99 464.065,1416.61 466.08,1416.22 468.094,1415.82 
  470.109,1415.43 472.123,1415.03 474.137,1414.63 476.152,1414.23 478.166,1413.82 480.18,1413.41 482.195,1413 484.209,1412.58 486.224,1412.17 488.238,1411.75 
  490.252,1411.32 492.267,1410.89 494.281,1410.46 496.295,1410.03 498.31,1409.59 500.324,1409.15 502.339,1408.71 504.353,1408.26 506.367,1407.82 508.382,1407.36 
  510.396,1406.91 512.411,1406.45 514.425,1405.98 516.439,1405.52 518.454,1405.05 520.468,1404.57 522.482,1404.1 524.497,1403.62 526.511,1403.13 528.526,1402.64 
  530.54,1402.15 532.554,1401.66 534.569,1401.16 536.583,1400.66 538.597,1400.15 540.612,1399.64 542.626,1399.12 544.641,1398.6 546.655,1398.08 548.669,1397.56 
  550.684,1397.03 552.698,1396.49 554.712,1395.95 556.727,1395.41 558.741,1394.86 560.756,1394.31 562.77,1393.75 564.784,1393.19 566.799,1392.63 568.813,1392.06 
  570.827,1391.49 572.842,1390.91 574.856,1390.33 576.871,1389.74 578.885,1389.15 580.899,1388.55 582.914,1387.95 584.928,1387.34 586.942,1386.73 588.957,1386.12 
  590.971,1385.49 592.986,1384.87 595,1384.24 597.014,1383.6 599.029,1382.96 601.043,1382.31 603.057,1381.66 605.072,1381 607.086,1380.34 609.101,1379.67 
  611.115,1379 613.129,1378.32 615.144,1377.63 617.158,1376.94 619.172,1376.24 621.187,1375.54 623.201,1374.83 625.216,1374.12 627.23,1373.4 629.244,1372.67 
  631.259,1371.94 633.273,1371.2 635.287,1370.45 637.302,1369.7 639.316,1368.94 641.331,1368.18 643.345,1367.41 645.359,1366.63 647.374,1365.84 649.388,1365.05 
  651.402,1364.26 653.417,1363.45 655.431,1362.64 657.446,1361.82 659.46,1360.99 661.474,1360.16 663.489,1359.32 665.503,1358.47 667.517,1357.61 669.532,1356.75 
  671.546,1355.88 673.561,1355 675.575,1354.11 677.589,1353.21 679.604,1352.31 681.618,1351.4 683.632,1350.48 685.647,1349.55 687.661,1348.61 689.676,1347.67 
  691.69,1346.72 693.704,1345.75 695.719,1344.78 697.733,1343.8 699.747,1342.81 701.762,1341.82 703.776,1340.81 705.791,1339.79 707.805,1338.76 709.819,1337.73 
  711.834,1336.68 713.848,1335.63 715.862,1334.56 717.877,1333.49 719.891,1332.4 721.906,1331.31 723.92,1330.2 725.934,1329.08 727.949,1327.95 729.963,1326.82 
  731.978,1325.67 733.992,1324.51 736.006,1323.34 738.021,1322.15 740.035,1320.96 742.049,1319.75 744.064,1318.54 746.078,1317.31 748.093,1316.06 750.107,1314.81 
  752.121,1313.54 754.136,1312.27 756.15,1310.98 758.164,1309.67 760.179,1308.35 762.193,1307.02 764.208,1305.68 766.222,1304.33 768.236,1302.95 770.251,1301.57 
  772.265,1300.17 774.279,1298.76 776.294,1297.33 778.308,1295.89 780.323,1294.44 782.337,1292.97 784.351,1291.48 786.366,1289.98 788.38,1288.47 790.394,1286.93 
  792.409,1285.39 794.423,1283.82 796.438,1282.24 798.452,1280.65 800.466,1279.03 802.481,1277.41 804.495,1275.76 806.509,1274.09 808.524,1272.41 810.538,1270.71 
  812.553,1269 814.567,1267.26 816.581,1265.51 818.596,1263.74 820.61,1261.94 822.624,1260.13 824.639,1258.3 826.653,1256.45 828.668,1254.58 830.682,1252.69 
  832.696,1250.78 834.711,1248.85 836.725,1246.9 838.739,1244.93 840.754,1242.93 842.768,1240.92 844.783,1238.88 846.797,1236.82 848.811,1234.73 850.826,1232.63 
  852.84,1230.5 854.854,1228.34 856.869,1226.17 858.883,1223.97 860.898,1221.74 862.912,1219.49 864.926,1217.21 866.941,1214.91 868.955,1212.58 870.969,1210.23 
  872.984,1207.85 874.998,1205.44 877.013,1203.01 879.027,1200.55 881.041,1198.06 883.056,1195.54 885.07,1192.99 887.084,1190.41 889.099,1187.81 891.113,1185.17 
  893.128,1182.51 895.142,1179.81 897.156,1177.08 899.171,1174.32 901.185,1171.53 903.199,1168.71 905.214,1165.85 907.228,1162.96 909.243,1160.04 911.257,1157.08 
  913.271,1154.09 915.286,1151.06 917.3,1148 919.314,1144.9 921.329,1141.77 923.343,1138.6 925.358,1135.39 927.372,1132.14 929.386,1128.86 931.401,1125.54 
  933.415,1122.17 935.429,1118.77 937.444,1115.33 939.458,1111.85 941.473,1108.32 943.487,1104.76 945.501,1101.15 947.516,1097.5 949.53,1093.8 951.545,1090.07 
  953.559,1086.28 955.573,1082.46 957.588,1078.58 959.602,1074.66 961.616,1070.7 963.631,1066.69 965.645,1062.63 967.66,1058.52 969.674,1054.36 971.688,1050.15 
  973.703,1045.9 975.717,1041.59 977.731,1037.23 979.746,1032.82 981.76,1028.36 983.775,1023.85 985.789,1019.28 987.803,1014.66 989.818,1009.98 991.832,1005.25 
  993.846,1000.47 995.861,995.623 997.875,990.724 999.89,985.768 1001.9,980.755 1003.92,975.683 1005.93,970.552 1007.95,965.362 1009.96,960.112 1011.98,954.803 
  1013.99,949.432 1016,944 1018.02,938.506 1020.03,932.951 1022.05,927.333 1024.06,921.651 1026.08,915.907 1028.09,910.098 1030.11,904.225 1032.12,898.288 
  1034.13,892.286 1036.15,886.219 1038.16,880.086 1040.18,873.887 1042.19,867.623 1044.21,861.292 1046.22,854.895 1048.23,848.431 1050.25,841.901 1052.26,835.304 
  1054.28,828.64 1056.29,821.91 1058.31,815.112 1060.32,808.248 1062.34,801.318 1064.35,794.321 1066.36,787.258 1068.38,780.13 1070.39,772.935 1072.41,765.676 
  1074.42,758.352 1076.44,750.963 1078.45,743.511 1080.46,735.997 1082.48,728.419 1084.49,720.781 1086.51,713.081 1088.52,705.322 1090.54,697.505 1092.55,689.629 
  1094.57,681.698 1096.58,673.711 1098.59,665.67 1100.61,657.577 1102.62,649.433 1104.64,641.24 1106.65,633 1108.67,624.714 1110.68,616.385 1112.69,608.014 
  1114.71,599.604 1116.72,591.157 1118.74,582.675 1120.75,574.162 1122.77,565.619 1124.78,557.05 1126.8,548.458 1128.81,539.845 1130.82,531.214 1132.84,522.57 
  1134.85,513.915 1136.87,505.254 1138.88,496.589 1140.9,487.925 1142.91,479.265 1144.92,470.615 1146.94,461.977 1148.95,453.357 1150.97,444.759 1152.98,436.188 
  1155,427.649 1157.01,419.145 1159.03,410.684 1161.04,402.269 1163.05,393.905 1165.07,385.599 1167.08,377.356 1169.1,369.182 1171.11,361.081 1173.13,353.06 
  1175.14,345.126 1177.15,337.282 1179.17,329.537 1181.18,321.896 1183.2,314.364 1185.21,306.948 1187.23,299.655 1189.24,292.491 1191.26,285.461 1193.27,278.572 
  1195.28,271.831 1197.3,265.243 1199.31,258.814 1201.33,252.551 1203.34,246.461 1205.36,240.548 1207.37,234.818 1209.38,229.278 1211.4,223.934 1213.41,218.79 
  1215.43,213.852 1217.44,209.126 1219.46,204.616 1221.47,200.328 1223.49,196.266 1225.5,192.434 1227.51,188.838 1229.53,185.481 1231.54,182.366 1233.56,179.499 
  1235.57,176.881 1237.59,174.516 1239.6,172.406 1241.61,170.555 1243.63,168.964 1245.64,167.635 1247.66,166.57 1249.67,165.771 1251.69,165.237 1253.7,164.97 
  1255.72,164.97 1257.73,165.237 1259.74,165.771 1261.76,166.57 1263.77,167.635 1265.79,168.964 1267.8,170.555 1269.82,172.406 1271.83,174.516 1273.84,176.881 
  1275.86,179.499 1277.87,182.366 1279.89,185.481 1281.9,188.838 1283.92,192.434 1285.93,196.266 1287.95,200.328 1289.96,204.616 1291.97,209.126 1293.99,213.852 
  1296,218.79 1298.02,223.934 1300.03,229.278 1302.05,234.818 1304.06,240.548 1306.07,246.461 1308.09,252.551 1310.1,258.814 1312.12,265.243 1314.13,271.831 
  1316.15,278.572 1318.16,285.461 1320.18,292.491 1322.19,299.655 1324.2,306.948 1326.22,314.364 1328.23,321.896 1330.25,329.537 1332.26,337.282 1334.28,345.126 
  1336.29,353.06 1338.3,361.081 1340.32,369.182 1342.33,377.356 1344.35,385.599 1346.36,393.905 1348.38,402.269 1350.39,410.684 1352.41,419.145 1354.42,427.649 
  1356.43,436.188 1358.45,444.759 1360.46,453.357 1362.48,461.977 1364.49,470.615 1366.51,479.265 1368.52,487.925 1370.53,496.589 1372.55,505.254 1374.56,513.915 
  1376.58,522.57 1378.59,531.214 1380.61,539.845 1382.62,548.458 1384.64,557.05 1386.65,565.619 1388.66,574.162 1390.68,582.675 1392.69,591.157 1394.71,599.604 
  1396.72,608.014 1398.74,616.385 1400.75,624.714 1402.76,633 1404.78,641.24 1406.79,649.433 1408.81,657.577 1410.82,665.67 1412.84,673.711 1414.85,681.698 
  1416.87,689.629 1418.88,697.505 1420.89,705.322 1422.91,713.081 1424.92,720.781 1426.94,728.419 1428.95,735.997 1430.97,743.511 1432.98,750.963 1434.99,758.352 
  1437.01,765.676 1439.02,772.935 1441.04,780.13 1443.05,787.258 1445.07,794.321 1447.08,801.318 1449.1,808.248 1451.11,815.112 1453.12,821.91 1455.14,828.64 
  1457.15,835.304 1459.17,841.901 1461.18,848.431 1463.2,854.895 1465.21,861.292 1467.22,867.623 1469.24,873.887 1471.25,880.086 1473.27,886.219 1475.28,892.286 
  1477.3,898.288 1479.31,904.225 1481.33,910.098 1483.34,915.907 1485.35,921.651 1487.37,927.333 1489.38,932.951 1491.4,938.506 1493.41,944 1495.43,949.432 
  1497.44,954.803 1499.45,960.112 1501.47,965.362 1503.48,970.552 1505.5,975.683 1507.51,980.755 1509.53,985.768 1511.54,990.724 1513.56,995.623 1515.57,1000.47 
  1517.58,1005.25 1519.6,1009.98 1521.61,1014.66 1523.63,1019.28 1525.64,1023.85 1527.66,1028.36 1529.67,1032.82 1531.68,1037.23 1533.7,1041.59 1535.71,1045.9 
  1537.73,1050.15 1539.74,1054.36 1541.76,1058.52 1543.77,1062.63 1545.79,1066.69 1547.8,1070.7 1549.81,1074.66 1551.83,1078.58 1553.84,1082.46 1555.86,1086.28 
  1557.87,1090.07 1559.89,1093.8 1561.9,1097.5 1563.91,1101.15 1565.93,1104.76 1567.94,1108.32 1569.96,1111.85 1571.97,1115.33 1573.99,1118.77 1576,1122.17 
  1578.02,1125.54 1580.03,1128.86 1582.04,1132.14 1584.06,1135.39 1586.07,1138.6 1588.09,1141.77 1590.1,1144.9 1592.12,1148 1594.13,1151.06 1596.14,1154.09 
  1598.16,1157.08 1600.17,1160.04 1602.19,1162.96 1604.2,1165.85 1606.22,1168.71 1608.23,1171.53 1610.25,1174.32 1612.26,1177.08 1614.27,1179.81 1616.29,1182.51 
  1618.3,1185.17 1620.32,1187.81 1622.33,1190.41 1624.35,1192.99 1626.36,1195.54 1628.37,1198.06 1630.39,1200.55 1632.4,1203.01 1634.42,1205.44 1636.43,1207.85 
  1638.45,1210.23 1640.46,1212.58 1642.48,1214.91 1644.49,1217.21 1646.5,1219.49 1648.52,1221.74 1650.53,1223.97 1652.55,1226.17 1654.56,1228.34 1656.58,1230.5 
  1658.59,1232.63 1660.6,1234.73 1662.62,1236.82 1664.63,1238.88 1666.65,1240.92 1668.66,1242.93 1670.68,1244.93 1672.69,1246.9 1674.71,1248.85 1676.72,1250.78 
  1678.73,1252.69 1680.75,1254.58 1682.76,1256.45 1684.78,1258.3 1686.79,1260.13 1688.81,1261.94 1690.82,1263.74 1692.83,1265.51 1694.85,1267.26 1696.86,1269 
  1698.88,1270.71 1700.89,1272.41 1702.91,1274.09 1704.92,1275.76 1706.94,1277.41 1708.95,1279.03 1710.96,1280.65 1712.98,1282.24 1714.99,1283.82 1717.01,1285.39 
  1719.02,1286.93 1721.04,1288.47 1723.05,1289.98 1725.06,1291.48 1727.08,1292.97 1729.09,1294.44 1731.11,1295.89 1733.12,1297.33 1735.14,1298.76 1737.15,1300.17 
  1739.17,1301.57 1741.18,1302.95 1743.19,1304.33 1745.21,1305.68 1747.22,1307.02 1749.24,1308.35 1751.25,1309.67 1753.27,1310.98 1755.28,1312.27 1757.29,1313.54 
  1759.31,1314.81 1761.32,1316.06 1763.34,1317.31 1765.35,1318.54 1767.37,1319.75 1769.38,1320.96 1771.4,1322.15 1773.41,1323.34 1775.42,1324.51 1777.44,1325.67 
  1779.45,1326.82 1781.47,1327.95 1783.48,1329.08 1785.5,1330.2 1787.51,1331.31 1789.52,1332.4 1791.54,1333.49 1793.55,1334.56 1795.57,1335.63 1797.58,1336.68 
  1799.6,1337.73 1801.61,1338.76 1803.63,1339.79 1805.64,1340.81 1807.65,1341.82 1809.67,1342.81 1811.68,1343.8 1813.7,1344.78 1815.71,1345.75 1817.73,1346.72 
  1819.74,1347.67 1821.75,1348.61 1823.77,1349.55 1825.78,1350.48 1827.8,1351.4 1829.81,1352.31 1831.83,1353.21 1833.84,1354.11 1835.86,1355 1837.87,1355.88 
  1839.88,1356.75 1841.9,1357.61 1843.91,1358.47 1845.93,1359.32 1847.94,1360.16 1849.96,1360.99 1851.97,1361.82 1853.99,1362.64 1856,1363.45 1858.01,1364.26 
  1860.03,1365.05 1862.04,1365.84 1864.06,1366.63 1866.07,1367.41 1868.09,1368.18 1870.1,1368.94 1872.11,1369.7 1874.13,1370.45 1876.14,1371.2 1878.16,1371.94 
  1880.17,1372.67 1882.19,1373.4 1884.2,1374.12 1886.22,1374.83 1888.23,1375.54 1890.24,1376.24 1892.26,1376.94 1894.27,1377.63 1896.29,1378.32 1898.3,1379 
  1900.32,1379.67 1902.33,1380.34 1904.34,1381 1906.36,1381.66 1908.37,1382.31 1910.39,1382.96 1912.4,1383.6 1914.42,1384.24 1916.43,1384.87 1918.45,1385.49 
  1920.46,1386.12 1922.47,1386.73 1924.49,1387.34 1926.5,1387.95 1928.52,1388.55 1930.53,1389.15 1932.55,1389.74 1934.56,1390.33 1936.57,1390.91 1938.59,1391.49 
  1940.6,1392.06 1942.62,1392.63 1944.63,1393.19 1946.65,1393.75 1948.66,1394.31 1950.68,1394.86 1952.69,1395.41 1954.7,1395.95 1956.72,1396.49 1958.73,1397.03 
  1960.75,1397.56 1962.76,1398.08 1964.78,1398.6 1966.79,1399.12 1968.8,1399.64 1970.82,1400.15 1972.83,1400.66 1974.85,1401.16 1976.86,1401.66 1978.88,1402.15 
  1980.89,1402.64 1982.91,1403.13 1984.92,1403.62 1986.93,1404.1 1988.95,1404.57 1990.96,1405.05 1992.98,1405.52 1994.99,1405.98 1997.01,1406.45 1999.02,1406.91 
  2001.03,1407.36 2003.05,1407.82 2005.06,1408.26 2007.08,1408.71 2009.09,1409.15 2011.11,1409.59 2013.12,1410.03 2015.14,1410.46 2017.15,1410.89 2019.16,1411.32 
  2021.18,1411.75 2023.19,1412.17 2025.21,1412.58 2027.22,1413 2029.24,1413.41 2031.25,1413.82 2033.26,1414.23 2035.28,1414.63 2037.29,1415.03 2039.31,1415.43 
  2041.32,1415.82 2043.34,1416.22 2045.35,1416.61 2047.37,1416.99 2049.38,1417.38 2051.39,1417.76 2053.41,1418.14 2055.42,1418.51 2057.44,1418.89 2059.45,1419.26 
  2061.47,1419.62 2063.48,1419.99 2065.49,1420.35 2067.51,1420.71 2069.52,1421.07 2071.54,1421.43 2073.55,1421.78 2075.57,1422.13 2077.58,1422.48 2079.6,1422.83 
  2081.61,1423.17 2083.62,1423.51 2085.64,1423.85 2087.65,1424.19 2089.67,1424.52 2091.68,1424.86 2093.7,1425.19 2095.71,1425.52 2097.72,1425.84 2099.74,1426.17 
  2101.75,1426.49 2103.77,1426.81 2105.78,1427.12 2107.8,1427.44 2109.81,1427.75 2111.83,1428.06 2113.84,1428.37 2115.85,1428.68 2117.87,1428.98 2119.88,1429.29 
  2121.9,1429.59 2123.91,1429.89 2125.93,1430.19 2127.94,1430.48 2129.95,1430.77 2131.97,1431.07 2133.98,1431.36 2136,1431.64 2138.01,1431.93 2140.03,1432.21 
  2142.04,1432.5 2144.06,1432.78 2146.07,1433.06 2148.08,1433.33 2150.1,1433.61 2152.11,1433.88 2154.13,1434.15 2156.14,1434.42 2158.16,1434.69 2160.17,1434.96 
  2162.18,1435.22 2164.2,1435.49 2166.21,1435.75 2168.23,1436.01 2170.24,1436.27 2172.26,1436.53 2174.27,1436.78 2176.29,1437.04 2178.3,1437.29 2180.31,1437.54 
  2182.33,1437.79 2184.34,1438.04 2186.36,1438.28 2188.37,1438.53 2190.39,1438.77 2192.4,1439.01 2194.41,1439.25 2196.43,1439.49 2198.44,1439.73 2200.46,1439.96 
  2202.47,1440.2 2204.49,1440.43 2206.5,1440.66 2208.52,1440.89 2210.53,1441.12 2212.54,1441.35 2214.56,1441.58 2216.57,1441.8 2218.59,1442.02 2220.6,1442.25 
  2222.62,1442.47 2224.63,1442.69 2226.64,1442.91 2228.66,1443.12 2230.67,1443.34 2232.69,1443.55 2234.7,1443.77 2236.72,1443.98 2238.73,1444.19 2240.75,1444.4 
  2242.76,1444.61 2244.77,1444.82 2246.79,1445.02 2248.8,1445.23 2250.82,1445.43 2252.83,1445.63 2254.85,1445.83 2256.86,1446.03 2258.87,1446.23 2260.89,1446.43 
  
  "/>
<circle clip-path="url(#clip8503)" style="fill:#000000; stroke:none; fill-opacity:1" cx="248.527" cy="1446.43" r="18"/>
<circle clip-path="url(#clip8503)" style="fill:#e26f46; stroke:none; fill-opacity:1" cx="248.527" cy="1446.43" r="14"/>
<circle clip-path="url(#clip8503)" style="fill:#000000; stroke:none; fill-opacity:1" cx="536.007" cy="1400.8" r="18"/>
<circle clip-path="url(#clip8503)" style="fill:#e26f46; stroke:none; fill-opacity:1" cx="536.007" cy="1400.8" r="14"/>
<circle clip-path="url(#clip8503)" style="fill:#000000; stroke:none; fill-opacity:1" cx="823.488" cy="1259.35" r="18"/>
<circle clip-path="url(#clip8503)" style="fill:#e26f46; stroke:none; fill-opacity:1" cx="823.488" cy="1259.35" r="14"/>
<circle clip-path="url(#clip8503)" style="fill:#000000; stroke:none; fill-opacity:1" cx="1110.97" cy="615.191" r="18"/>
<circle clip-path="url(#clip8503)" style="fill:#e26f46; stroke:none; fill-opacity:1" cx="1110.97" cy="615.191" r="14"/>
<circle clip-path="url(#clip8503)" style="fill:#000000; stroke:none; fill-opacity:1" cx="1398.45" cy="615.191" r="18"/>
<circle clip-path="url(#clip8503)" style="fill:#e26f46; stroke:none; fill-opacity:1" cx="1398.45" cy="615.191" r="14"/>
<circle clip-path="url(#clip8503)" style="fill:#000000; stroke:none; fill-opacity:1" cx="1685.93" cy="1259.35" r="18"/>
<circle clip-path="url(#clip8503)" style="fill:#e26f46; stroke:none; fill-opacity:1" cx="1685.93" cy="1259.35" r="14"/>
<circle clip-path="url(#clip8503)" style="fill:#000000; stroke:none; fill-opacity:1" cx="1973.41" cy="1400.8" r="18"/>
<circle clip-path="url(#clip8503)" style="fill:#e26f46; stroke:none; fill-opacity:1" cx="1973.41" cy="1400.8" r="14"/>
<circle clip-path="url(#clip8503)" style="fill:#000000; stroke:none; fill-opacity:1" cx="2260.89" cy="1446.43" r="18"/>
<circle clip-path="url(#clip8503)" style="fill:#e26f46; stroke:none; fill-opacity:1" cx="2260.89" cy="1446.43" r="14"/>
<polyline clip-path="url(#clip8503)" style="stroke:#3da44d; stroke-width:4; stroke-opacity:1; fill:none" points="
  248.527,1446.43 250.542,1435.98 252.556,1425.83 254.57,1415.96 256.585,1406.38 258.599,1397.08 260.613,1388.05 262.628,1379.29 264.642,1370.8 266.657,1362.58 
  268.671,1354.61 270.685,1346.9 272.7,1339.44 274.714,1332.23 276.728,1325.26 278.743,1318.53 280.757,1312.03 282.772,1305.77 284.786,1299.74 286.8,1293.93 
  288.815,1288.34 290.829,1282.97 292.844,1277.82 294.858,1272.87 296.872,1268.13 298.887,1263.59 300.901,1259.25 302.915,1255.11 304.93,1251.16 306.944,1247.4 
  308.959,1243.83 310.973,1240.44 312.987,1237.22 315.002,1234.19 317.016,1231.32 319.03,1228.63 321.045,1226.1 323.059,1223.73 325.074,1221.53 327.088,1219.48 
  329.102,1217.58 331.117,1215.84 333.131,1214.24 335.145,1212.79 337.16,1211.48 339.174,1210.31 341.189,1209.28 343.203,1208.37 345.217,1207.6 347.232,1206.96 
  349.246,1206.44 351.26,1206.04 353.275,1205.76 355.289,1205.6 357.304,1205.55 359.318,1205.62 361.332,1205.79 363.347,1206.06 365.361,1206.44 367.375,1206.93 
  369.39,1207.51 371.404,1208.18 373.419,1208.95 375.433,1209.81 377.447,1210.76 379.462,1211.79 381.476,1212.91 383.49,1214.11 385.505,1215.39 387.519,1216.75 
  389.534,1218.18 391.548,1219.68 393.562,1221.26 395.577,1222.9 397.591,1224.6 399.605,1226.38 401.62,1228.21 403.634,1230.1 405.649,1232.05 407.663,1234.05 
  409.677,1236.11 411.692,1238.22 413.706,1240.38 415.72,1242.59 417.735,1244.84 419.749,1247.14 421.764,1249.48 423.778,1251.85 425.792,1254.27 427.807,1256.72 
  429.821,1259.21 431.835,1261.73 433.85,1264.28 435.864,1266.86 437.879,1269.47 439.893,1272.1 441.907,1274.76 443.922,1277.44 445.936,1280.15 447.95,1282.87 
  449.965,1285.61 451.979,1288.36 453.994,1291.13 456.008,1293.92 458.022,1296.72 460.037,1299.52 462.051,1302.34 464.065,1305.16 466.08,1307.99 468.094,1310.83 
  470.109,1313.66 472.123,1316.5 474.137,1319.34 476.152,1322.18 478.166,1325.02 480.18,1327.86 482.195,1330.69 484.209,1333.52 486.224,1336.33 488.238,1339.15 
  490.252,1341.95 492.267,1344.74 494.281,1347.52 496.295,1350.29 498.31,1353.04 500.324,1355.78 502.339,1358.5 504.353,1361.21 506.367,1363.9 508.382,1366.57 
  510.396,1369.22 512.411,1371.85 514.425,1374.46 516.439,1377.04 518.454,1379.61 520.468,1382.14 522.482,1384.65 524.497,1387.14 526.511,1389.6 528.526,1392.03 
  530.54,1394.43 532.554,1396.8 534.569,1399.15 536.583,1401.46 538.597,1403.73 540.612,1405.98 542.626,1408.19 544.641,1410.37 546.655,1412.52 548.669,1414.62 
  550.684,1416.7 552.698,1418.73 554.712,1420.73 556.727,1422.69 558.741,1424.61 560.756,1426.49 562.77,1428.34 564.784,1430.14 566.799,1431.9 568.813,1433.62 
  570.827,1435.3 572.842,1436.93 574.856,1438.52 576.871,1440.07 578.885,1441.58 580.899,1443.04 582.914,1444.45 584.928,1445.82 586.942,1447.15 588.957,1448.43 
  590.971,1449.66 592.986,1450.84 595,1451.98 597.014,1453.07 599.029,1454.11 601.043,1455.11 603.057,1456.05 605.072,1456.95 607.086,1457.8 609.101,1458.6 
  611.115,1459.35 613.129,1460.04 615.144,1460.69 617.158,1461.29 619.172,1461.84 621.187,1462.33 623.201,1462.78 625.216,1463.17 627.23,1463.52 629.244,1463.81 
  631.259,1464.05 633.273,1464.24 635.287,1464.37 637.302,1464.46 639.316,1464.49 641.331,1464.47 643.345,1464.4 645.359,1464.27 647.374,1464.09 649.388,1463.86 
  651.402,1463.58 653.417,1463.24 655.431,1462.85 657.446,1462.41 659.46,1461.92 661.474,1461.37 663.489,1460.77 665.503,1460.12 667.517,1459.42 669.532,1458.66 
  671.546,1457.85 673.561,1456.99 675.575,1456.07 677.589,1455.1 679.604,1454.08 681.618,1453.01 683.632,1451.89 685.647,1450.71 687.661,1449.48 689.676,1448.2 
  691.69,1446.87 693.704,1445.49 695.719,1444.05 697.733,1442.57 699.747,1441.03 701.762,1439.44 703.776,1437.8 705.791,1436.11 707.805,1434.37 709.819,1432.58 
  711.834,1430.74 713.848,1428.85 715.862,1426.92 717.877,1424.93 719.891,1422.89 721.906,1420.8 723.92,1418.67 725.934,1416.48 727.949,1414.25 729.963,1411.97 
  731.978,1409.64 733.992,1407.27 736.006,1404.85 738.021,1402.38 740.035,1399.87 742.049,1397.31 744.064,1394.7 746.078,1392.05 748.093,1389.35 750.107,1386.61 
  752.121,1383.82 754.136,1380.99 756.15,1378.11 758.164,1375.2 760.179,1372.23 762.193,1369.23 764.208,1366.18 766.222,1363.09 768.236,1359.96 770.251,1356.79 
  772.265,1353.58 774.279,1350.32 776.294,1347.03 778.308,1343.7 780.323,1340.32 782.337,1336.91 784.351,1333.46 786.366,1329.97 788.38,1326.44 790.394,1322.88 
  792.409,1319.28 794.423,1315.64 796.438,1311.97 798.452,1308.26 800.466,1304.51 802.481,1300.73 804.495,1296.92 806.509,1293.07 808.524,1289.19 810.538,1285.27 
  812.553,1281.33 814.567,1277.35 816.581,1273.34 818.596,1269.29 820.61,1265.22 822.624,1261.12 824.639,1256.99 826.653,1252.82 828.668,1248.63 830.682,1244.41 
  832.696,1240.17 834.711,1235.89 836.725,1231.59 838.739,1227.26 840.754,1222.91 842.768,1218.53 844.783,1214.13 846.797,1209.7 848.811,1205.25 850.826,1200.77 
  852.84,1196.27 854.854,1191.75 856.869,1187.21 858.883,1182.65 860.898,1178.06 862.912,1173.46 864.926,1168.83 866.941,1164.19 868.955,1159.52 870.969,1154.84 
  872.984,1150.14 874.998,1145.43 877.013,1140.69 879.027,1135.94 881.041,1131.18 883.056,1126.4 885.07,1121.6 887.084,1116.79 889.099,1111.97 891.113,1107.14 
  893.128,1102.29 895.142,1097.43 897.156,1092.56 899.171,1087.67 901.185,1082.78 903.199,1077.88 905.214,1072.97 907.228,1068.05 909.243,1063.12 911.257,1058.18 
  913.271,1053.24 915.286,1048.29 917.3,1043.33 919.314,1038.37 921.329,1033.4 923.343,1028.43 925.358,1023.45 927.372,1018.47 929.386,1013.49 931.401,1008.5 
  933.415,1003.52 935.429,998.527 937.444,993.538 939.458,988.549 941.473,983.56 943.487,978.571 945.501,973.584 947.516,968.598 949.53,963.615 951.545,958.634 
  953.559,953.657 955.573,948.684 957.588,943.715 959.602,938.751 961.616,933.793 963.631,928.84 965.645,923.894 967.66,918.955 969.674,914.023 971.688,909.099 
  973.703,904.184 975.717,899.277 977.731,894.381 979.746,889.494 981.76,884.617 983.775,879.752 985.789,874.898 987.803,870.056 989.818,865.227 991.832,860.411 
  993.846,855.608 995.861,850.819 997.875,846.044 999.89,841.285 1001.9,836.541 1003.92,831.812 1005.93,827.1 1007.95,822.405 1009.96,817.728 1011.98,813.068 
  1013.99,808.426 1016,803.803 1018.02,799.2 1020.03,794.616 1022.05,790.052 1024.06,785.508 1026.08,780.986 1028.09,776.485 1030.11,772.007 1032.12,767.55 
  1034.13,763.116 1036.15,758.706 1038.16,754.32 1040.18,749.957 1042.19,745.619 1044.21,741.306 1046.22,737.019 1048.23,732.757 1050.25,728.522 1052.26,724.314 
  1054.28,720.132 1056.29,715.978 1058.31,711.852 1060.32,707.755 1062.34,703.686 1064.35,699.646 1066.36,695.636 1068.38,691.656 1070.39,687.706 1072.41,683.787 
  1074.42,679.899 1076.44,676.043 1078.45,672.218 1080.46,668.426 1082.48,664.666 1084.49,660.94 1086.51,657.246 1088.52,653.587 1090.54,649.961 1092.55,646.37 
  1094.57,642.814 1096.58,639.292 1098.59,635.806 1100.61,632.356 1102.62,628.942 1104.64,625.565 1106.65,622.224 1108.67,618.921 1110.68,615.655 1112.69,612.426 
  1114.71,609.236 1116.72,606.084 1118.74,602.971 1120.75,599.897 1122.77,596.862 1124.78,593.866 1126.8,590.911 1128.81,587.995 1130.82,585.12 1132.84,582.286 
  1134.85,579.492 1136.87,576.74 1138.88,574.029 1140.9,571.361 1142.91,568.734 1144.92,566.149 1146.94,563.607 1148.95,561.108 1150.97,558.651 1152.98,556.238 
  1155,553.868 1157.01,551.542 1159.03,549.26 1161.04,547.022 1163.05,544.829 1165.07,542.68 1167.08,540.575 1169.1,538.516 1171.11,536.502 1173.13,534.533 
  1175.14,532.609 1177.15,530.732 1179.17,528.9 1181.18,527.114 1183.2,525.375 1185.21,523.682 1187.23,522.036 1189.24,520.436 1191.26,518.883 1193.27,517.377 
  1195.28,515.918 1197.3,514.507 1199.31,513.143 1201.33,511.827 1203.34,510.558 1205.36,509.337 1207.37,508.164 1209.38,507.039 1211.4,505.962 1213.41,504.934 
  1215.43,503.954 1217.44,503.022 1219.46,502.139 1221.47,501.304 1223.49,500.518 1225.5,499.781 1227.51,499.093 1229.53,498.453 1231.54,497.863 1233.56,497.321 
  1235.57,496.829 1237.59,496.385 1239.6,495.991 1241.61,495.646 1243.63,495.35 1245.64,495.104 1247.66,494.907 1249.67,494.759 1251.69,494.66 1253.7,494.611 
  1255.72,494.611 1257.73,494.66 1259.74,494.759 1261.76,494.907 1263.77,495.104 1265.79,495.35 1267.8,495.646 1269.82,495.991 1271.83,496.385 1273.84,496.829 
  1275.86,497.321 1277.87,497.863 1279.89,498.453 1281.9,499.093 1283.92,499.781 1285.93,500.518 1287.95,501.304 1289.96,502.139 1291.97,503.022 1293.99,503.954 
  1296,504.934 1298.02,505.962 1300.03,507.039 1302.05,508.164 1304.06,509.337 1306.07,510.558 1308.09,511.827 1310.1,513.143 1312.12,514.507 1314.13,515.918 
  1316.15,517.377 1318.16,518.883 1320.18,520.436 1322.19,522.036 1324.2,523.682 1326.22,525.375 1328.23,527.114 1330.25,528.9 1332.26,530.732 1334.28,532.609 
  1336.29,534.533 1338.3,536.502 1340.32,538.516 1342.33,540.575 1344.35,542.68 1346.36,544.829 1348.38,547.022 1350.39,549.26 1352.41,551.542 1354.42,553.868 
  1356.43,556.238 1358.45,558.651 1360.46,561.108 1362.48,563.607 1364.49,566.149 1366.51,568.734 1368.52,571.361 1370.53,574.029 1372.55,576.74 1374.56,579.492 
  1376.58,582.286 1378.59,585.12 1380.61,587.995 1382.62,590.911 1384.64,593.866 1386.65,596.862 1388.66,599.897 1390.68,602.971 1392.69,606.084 1394.71,609.236 
  1396.72,612.426 1398.74,615.655 1400.75,618.921 1402.76,622.224 1404.78,625.565 1406.79,628.942 1408.81,632.356 1410.82,635.806 1412.84,639.292 1414.85,642.814 
  1416.87,646.37 1418.88,649.961 1420.89,653.587 1422.91,657.246 1424.92,660.94 1426.94,664.666 1428.95,668.426 1430.97,672.218 1432.98,676.043 1434.99,679.899 
  1437.01,683.787 1439.02,687.706 1441.04,691.656 1443.05,695.636 1445.07,699.646 1447.08,703.686 1449.1,707.755 1451.11,711.852 1453.12,715.978 1455.14,720.132 
  1457.15,724.314 1459.17,728.522 1461.18,732.757 1463.2,737.019 1465.21,741.306 1467.22,745.619 1469.24,749.957 1471.25,754.32 1473.27,758.706 1475.28,763.116 
  1477.3,767.55 1479.31,772.007 1481.33,776.485 1483.34,780.986 1485.35,785.508 1487.37,790.052 1489.38,794.616 1491.4,799.2 1493.41,803.803 1495.43,808.426 
  1497.44,813.068 1499.45,817.728 1501.47,822.405 1503.48,827.1 1505.5,831.812 1507.51,836.541 1509.53,841.285 1511.54,846.044 1513.56,850.819 1515.57,855.608 
  1517.58,860.411 1519.6,865.227 1521.61,870.056 1523.63,874.898 1525.64,879.752 1527.66,884.617 1529.67,889.494 1531.68,894.381 1533.7,899.277 1535.71,904.184 
  1537.73,909.099 1539.74,914.023 1541.76,918.955 1543.77,923.894 1545.79,928.84 1547.8,933.793 1549.81,938.751 1551.83,943.715 1553.84,948.684 1555.86,953.657 
  1557.87,958.634 1559.89,963.615 1561.9,968.598 1563.91,973.584 1565.93,978.571 1567.94,983.56 1569.96,988.549 1571.97,993.538 1573.99,998.527 1576,1003.52 
  1578.02,1008.5 1580.03,1013.49 1582.04,1018.47 1584.06,1023.45 1586.07,1028.43 1588.09,1033.4 1590.1,1038.37 1592.12,1043.33 1594.13,1048.29 1596.14,1053.24 
  1598.16,1058.18 1600.17,1063.12 1602.19,1068.05 1604.2,1072.97 1606.22,1077.88 1608.23,1082.78 1610.25,1087.67 1612.26,1092.56 1614.27,1097.43 1616.29,1102.29 
  1618.3,1107.14 1620.32,1111.97 1622.33,1116.79 1624.35,1121.6 1626.36,1126.4 1628.37,1131.18 1630.39,1135.94 1632.4,1140.69 1634.42,1145.43 1636.43,1150.14 
  1638.45,1154.84 1640.46,1159.52 1642.48,1164.19 1644.49,1168.83 1646.5,1173.46 1648.52,1178.06 1650.53,1182.65 1652.55,1187.21 1654.56,1191.75 1656.58,1196.27 
  1658.59,1200.77 1660.6,1205.25 1662.62,1209.7 1664.63,1214.13 1666.65,1218.53 1668.66,1222.91 1670.68,1227.26 1672.69,1231.59 1674.71,1235.89 1676.72,1240.17 
  1678.73,1244.41 1680.75,1248.63 1682.76,1252.82 1684.78,1256.99 1686.79,1261.12 1688.81,1265.22 1690.82,1269.29 1692.83,1273.34 1694.85,1277.35 1696.86,1281.33 
  1698.88,1285.27 1700.89,1289.19 1702.91,1293.07 1704.92,1296.92 1706.94,1300.73 1708.95,1304.51 1710.96,1308.26 1712.98,1311.97 1714.99,1315.64 1717.01,1319.28 
  1719.02,1322.88 1721.04,1326.44 1723.05,1329.97 1725.06,1333.46 1727.08,1336.91 1729.09,1340.32 1731.11,1343.7 1733.12,1347.03 1735.14,1350.32 1737.15,1353.58 
  1739.17,1356.79 1741.18,1359.96 1743.19,1363.09 1745.21,1366.18 1747.22,1369.23 1749.24,1372.23 1751.25,1375.2 1753.27,1378.11 1755.28,1380.99 1757.29,1383.82 
  1759.31,1386.61 1761.32,1389.35 1763.34,1392.05 1765.35,1394.7 1767.37,1397.31 1769.38,1399.87 1771.4,1402.38 1773.41,1404.85 1775.42,1407.27 1777.44,1409.64 
  1779.45,1411.97 1781.47,1414.25 1783.48,1416.48 1785.5,1418.67 1787.51,1420.8 1789.52,1422.89 1791.54,1424.93 1793.55,1426.92 1795.57,1428.85 1797.58,1430.74 
  1799.6,1432.58 1801.61,1434.37 1803.63,1436.11 1805.64,1437.8 1807.65,1439.44 1809.67,1441.03 1811.68,1442.57 1813.7,1444.05 1815.71,1445.49 1817.73,1446.87 
  1819.74,1448.2 1821.75,1449.48 1823.77,1450.71 1825.78,1451.89 1827.8,1453.01 1829.81,1454.08 1831.83,1455.1 1833.84,1456.07 1835.86,1456.99 1837.87,1457.85 
  1839.88,1458.66 1841.9,1459.42 1843.91,1460.12 1845.93,1460.77 1847.94,1461.37 1849.96,1461.92 1851.97,1462.41 1853.99,1462.85 1856,1463.24 1858.01,1463.58 
  1860.03,1463.86 1862.04,1464.09 1864.06,1464.27 1866.07,1464.4 1868.09,1464.47 1870.1,1464.49 1872.11,1464.46 1874.13,1464.37 1876.14,1464.24 1878.16,1464.05 
  1880.17,1463.81 1882.19,1463.52 1884.2,1463.17 1886.22,1462.78 1888.23,1462.33 1890.24,1461.84 1892.26,1461.29 1894.27,1460.69 1896.29,1460.04 1898.3,1459.35 
  1900.32,1458.6 1902.33,1457.8 1904.34,1456.95 1906.36,1456.05 1908.37,1455.11 1910.39,1454.11 1912.4,1453.07 1914.42,1451.98 1916.43,1450.84 1918.45,1449.66 
  1920.46,1448.43 1922.47,1447.15 1924.49,1445.82 1926.5,1444.45 1928.52,1443.04 1930.53,1441.58 1932.55,1440.07 1934.56,1438.52 1936.57,1436.93 1938.59,1435.3 
  1940.6,1433.62 1942.62,1431.9 1944.63,1430.14 1946.65,1428.34 1948.66,1426.49 1950.68,1424.61 1952.69,1422.69 1954.7,1420.73 1956.72,1418.73 1958.73,1416.7 
  1960.75,1414.62 1962.76,1412.52 1964.78,1410.37 1966.79,1408.19 1968.8,1405.98 1970.82,1403.73 1972.83,1401.46 1974.85,1399.15 1976.86,1396.8 1978.88,1394.43 
  1980.89,1392.03 1982.91,1389.6 1984.92,1387.14 1986.93,1384.65 1988.95,1382.14 1990.96,1379.61 1992.98,1377.04 1994.99,1374.46 1997.01,1371.85 1999.02,1369.22 
  2001.03,1366.57 2003.05,1363.9 2005.06,1361.21 2007.08,1358.5 2009.09,1355.78 2011.11,1353.04 2013.12,1350.29 2015.14,1347.52 2017.15,1344.74 2019.16,1341.95 
  2021.18,1339.15 2023.19,1336.33 2025.21,1333.52 2027.22,1330.69 2029.24,1327.86 2031.25,1325.02 2033.26,1322.18 2035.28,1319.34 2037.29,1316.5 2039.31,1313.66 
  2041.32,1310.83 2043.34,1307.99 2045.35,1305.16 2047.37,1302.34 2049.38,1299.52 2051.39,1296.72 2053.41,1293.92 2055.42,1291.13 2057.44,1288.36 2059.45,1285.61 
  2061.47,1282.87 2063.48,1280.15 2065.49,1277.44 2067.51,1274.76 2069.52,1272.1 2071.54,1269.47 2073.55,1266.86 2075.57,1264.28 2077.58,1261.73 2079.6,1259.21 
  2081.61,1256.72 2083.62,1254.27 2085.64,1251.85 2087.65,1249.48 2089.67,1247.14 2091.68,1244.84 2093.7,1242.59 2095.71,1240.38 2097.72,1238.22 2099.74,1236.11 
  2101.75,1234.05 2103.77,1232.05 2105.78,1230.1 2107.8,1228.21 2109.81,1226.38 2111.83,1224.6 2113.84,1222.9 2115.85,1221.26 2117.87,1219.68 2119.88,1218.18 
  2121.9,1216.75 2123.91,1215.39 2125.93,1214.11 2127.94,1212.91 2129.95,1211.79 2131.97,1210.76 2133.98,1209.81 2136,1208.95 2138.01,1208.18 2140.03,1207.51 
  2142.04,1206.93 2144.06,1206.44 2146.07,1206.06 2148.08,1205.79 2150.1,1205.62 2152.11,1205.55 2154.13,1205.6 2156.14,1205.76 2158.16,1206.04 2160.17,1206.44 
  2162.18,1206.96 2164.2,1207.6 2166.21,1208.37 2168.23,1209.28 2170.24,1210.31 2172.26,1211.48 2174.27,1212.79 2176.29,1214.24 2178.3,1215.84 2180.31,1217.58 
  2182.33,1219.48 2184.34,1221.53 2186.36,1223.73 2188.37,1226.1 2190.39,1228.63 2192.4,1231.32 2194.41,1234.19 2196.43,1237.22 2198.44,1240.44 2200.46,1243.83 
  2202.47,1247.4 2204.49,1251.16 2206.5,1255.11 2208.52,1259.25 2210.53,1263.59 2212.54,1268.13 2214.56,1272.87 2216.57,1277.82 2218.59,1282.97 2220.6,1288.34 
  2222.62,1293.93 2224.63,1299.74 2226.64,1305.77 2228.66,1312.03 2230.67,1318.53 2232.69,1325.26 2234.7,1332.23 2236.72,1339.44 2238.73,1346.9 2240.75,1354.61 
  2242.76,1362.58 2244.77,1370.8 2246.79,1379.29 2248.8,1388.05 2250.82,1397.08 2252.83,1406.38 2254.85,1415.96 2256.86,1425.83 2258.87,1435.98 2260.89,1446.43 
  
  "/>
<polygon clip-path="url(#clip8501)" points="
1685.51,451.424 2249.26,451.424 2249.26,209.504 1685.51,209.504 
  " fill="#ffffff" fill-rule="evenodd" fill-opacity="1"/>
<polyline clip-path="url(#clip8501)" style="stroke:#000000; stroke-width:4; stroke-opacity:1; fill:none" points="
  1685.51,451.424 2249.26,451.424 2249.26,209.504 1685.51,209.504 1685.51,451.424 
  "/>
<polyline clip-path="url(#clip8501)" style="stroke:#009af9; stroke-width:4; stroke-opacity:1; fill:none" points="
  1709.51,269.984 1853.51,269.984 
  "/>
<g clip-path="url(#clip8501)">
<text style="fill:#000000; fill-opacity:1; font-family:Arial,Helvetica Neue,Helvetica,sans-serif; font-size:48px; text-anchor:start;" transform="rotate(0, 1877.51, 287.484)" x="1877.51" y="287.484">Runge function</text>
</g>
<circle clip-path="url(#clip8501)" style="fill:#000000; stroke:none; fill-opacity:1" cx="1793.51" cy="330.464" r="25"/>
<circle clip-path="url(#clip8501)" style="fill:#e26f46; stroke:none; fill-opacity:1" cx="1793.51" cy="330.464" r="21"/>
<g clip-path="url(#clip8501)">
<text style="fill:#000000; fill-opacity:1; font-family:Arial,Helvetica Neue,Helvetica,sans-serif; font-size:48px; text-anchor:start;" transform="rotate(0, 1877.51, 347.964)" x="1877.51" y="347.964">Nodes</text>
</g>
<polyline clip-path="url(#clip8501)" style="stroke:#3da44d; stroke-width:4; stroke-opacity:1; fill:none" points="
  1709.51,390.944 1853.51,390.944 
  "/>
<g clip-path="url(#clip8501)">
<text style="fill:#000000; fill-opacity:1; font-family:Arial,Helvetica Neue,Helvetica,sans-serif; font-size:48px; text-anchor:start;" transform="rotate(0, 1877.51, 408.444)" x="1877.51" y="408.444">Intepolation</text>
</g>
</svg>
