<?xml version="1.0" encoding="utf-8"?>
<svg xmlns="http://www.w3.org/2000/svg" xmlns:xlink="http://www.w3.org/1999/xlink" width="600" height="400" viewBox="0 0 2400 1600">
<defs>
  <clipPath id="clip5900">
    <rect x="0" y="0" width="2000" height="2000"/>
  </clipPath>
</defs>
<defs>
  <clipPath id="clip5901">
    <rect x="0" y="0" width="2400" height="1600"/>
  </clipPath>
</defs>
<polygon clip-path="url(#clip5901)" points="
0,1600 2400,1600 2400,0 0,0 
  " fill="#ffffff" fill-rule="evenodd" fill-opacity="1"/>
<defs>
  <clipPath id="clip5902">
    <rect x="480" y="0" width="1681" height="1600"/>
  </clipPath>
</defs>
<polygon clip-path="url(#clip5901)" points="
148.013,1503.47 2321.26,1503.47 2321.26,125.984 148.013,125.984 
  " fill="#ffffff" fill-rule="evenodd" fill-opacity="1"/>
<defs>
  <clipPath id="clip5903">
    <rect x="148" y="125" width="2174" height="1378"/>
  </clipPath>
</defs>
<polyline clip-path="url(#clip5903)" style="stroke:#000000; stroke-width:2; stroke-opacity:0.1; fill:none" points="
  209.52,1503.47 209.52,125.984 
  "/>
<polyline clip-path="url(#clip5903)" style="stroke:#000000; stroke-width:2; stroke-opacity:0.1; fill:none" points="
  722.078,1503.47 722.078,125.984 
  "/>
<polyline clip-path="url(#clip5903)" style="stroke:#000000; stroke-width:2; stroke-opacity:0.1; fill:none" points="
  1234.64,1503.47 1234.64,125.984 
  "/>
<polyline clip-path="url(#clip5903)" style="stroke:#000000; stroke-width:2; stroke-opacity:0.1; fill:none" points="
  1747.19,1503.47 1747.19,125.984 
  "/>
<polyline clip-path="url(#clip5903)" style="stroke:#000000; stroke-width:2; stroke-opacity:0.1; fill:none" points="
  2259.75,1503.47 2259.75,125.984 
  "/>
<polyline clip-path="url(#clip5903)" style="stroke:#000000; stroke-width:2; stroke-opacity:0.1; fill:none" points="
  148.013,1384.67 2321.26,1384.67 
  "/>
<polyline clip-path="url(#clip5903)" style="stroke:#000000; stroke-width:2; stroke-opacity:0.1; fill:none" points="
  148.013,1049.92 2321.26,1049.92 
  "/>
<polyline clip-path="url(#clip5903)" style="stroke:#000000; stroke-width:2; stroke-opacity:0.1; fill:none" points="
  148.013,715.163 2321.26,715.163 
  "/>
<polyline clip-path="url(#clip5903)" style="stroke:#000000; stroke-width:2; stroke-opacity:0.1; fill:none" points="
  148.013,380.409 2321.26,380.409 
  "/>
<polyline clip-path="url(#clip5901)" style="stroke:#000000; stroke-width:4; stroke-opacity:1; fill:none" points="
  148.013,1503.47 2321.26,1503.47 
  "/>
<polyline clip-path="url(#clip5901)" style="stroke:#000000; stroke-width:4; stroke-opacity:1; fill:none" points="
  148.013,1503.47 148.013,125.984 
  "/>
<polyline clip-path="url(#clip5901)" style="stroke:#000000; stroke-width:4; stroke-opacity:1; fill:none" points="
  209.52,1503.47 209.52,1482.81 
  "/>
<polyline clip-path="url(#clip5901)" style="stroke:#000000; stroke-width:4; stroke-opacity:1; fill:none" points="
  722.078,1503.47 722.078,1482.81 
  "/>
<polyline clip-path="url(#clip5901)" style="stroke:#000000; stroke-width:4; stroke-opacity:1; fill:none" points="
  1234.64,1503.47 1234.64,1482.81 
  "/>
<polyline clip-path="url(#clip5901)" style="stroke:#000000; stroke-width:4; stroke-opacity:1; fill:none" points="
  1747.19,1503.47 1747.19,1482.81 
  "/>
<polyline clip-path="url(#clip5901)" style="stroke:#000000; stroke-width:4; stroke-opacity:1; fill:none" points="
  2259.75,1503.47 2259.75,1482.81 
  "/>
<polyline clip-path="url(#clip5901)" style="stroke:#000000; stroke-width:4; stroke-opacity:1; fill:none" points="
  148.013,1384.67 180.612,1384.67 
  "/>
<polyline clip-path="url(#clip5901)" style="stroke:#000000; stroke-width:4; stroke-opacity:1; fill:none" points="
  148.013,1049.92 180.612,1049.92 
  "/>
<polyline clip-path="url(#clip5901)" style="stroke:#000000; stroke-width:4; stroke-opacity:1; fill:none" points="
  148.013,715.163 180.612,715.163 
  "/>
<polyline clip-path="url(#clip5901)" style="stroke:#000000; stroke-width:4; stroke-opacity:1; fill:none" points="
  148.013,380.409 180.612,380.409 
  "/>
<g clip-path="url(#clip5901)">
<text style="fill:#000000; fill-opacity:1; font-family:Arial,Helvetica Neue,Helvetica,sans-serif; font-size:48px; text-anchor:middle;" transform="rotate(0, 209.52, 1557.47)" x="209.52" y="1557.47">-1.0</text>
</g>
<g clip-path="url(#clip5901)">
<text style="fill:#000000; fill-opacity:1; font-family:Arial,Helvetica Neue,Helvetica,sans-serif; font-size:48px; text-anchor:middle;" transform="rotate(0, 722.078, 1557.47)" x="722.078" y="1557.47">-0.5</text>
</g>
<g clip-path="url(#clip5901)">
<text style="fill:#000000; fill-opacity:1; font-family:Arial,Helvetica Neue,Helvetica,sans-serif; font-size:48px; text-anchor:middle;" transform="rotate(0, 1234.64, 1557.47)" x="1234.64" y="1557.47">0.0</text>
</g>
<g clip-path="url(#clip5901)">
<text style="fill:#000000; fill-opacity:1; font-family:Arial,Helvetica Neue,Helvetica,sans-serif; font-size:48px; text-anchor:middle;" transform="rotate(0, 1747.19, 1557.47)" x="1747.19" y="1557.47">0.5</text>
</g>
<g clip-path="url(#clip5901)">
<text style="fill:#000000; fill-opacity:1; font-family:Arial,Helvetica Neue,Helvetica,sans-serif; font-size:48px; text-anchor:middle;" transform="rotate(0, 2259.75, 1557.47)" x="2259.75" y="1557.47">1.0</text>
</g>
<g clip-path="url(#clip5901)">
<text style="fill:#000000; fill-opacity:1; font-family:Arial,Helvetica Neue,Helvetica,sans-serif; font-size:48px; text-anchor:end;" transform="rotate(0, 124.013, 1402.17)" x="124.013" y="1402.17">0</text>
</g>
<g clip-path="url(#clip5901)">
<text style="fill:#000000; fill-opacity:1; font-family:Arial,Helvetica Neue,Helvetica,sans-serif; font-size:48px; text-anchor:end;" transform="rotate(0, 124.013, 1067.42)" x="124.013" y="1067.42">10</text>
</g>
<g clip-path="url(#clip5901)">
<text style="fill:#000000; fill-opacity:1; font-family:Arial,Helvetica Neue,Helvetica,sans-serif; font-size:48px; text-anchor:end;" transform="rotate(0, 124.013, 732.663)" x="124.013" y="732.663">20</text>
</g>
<g clip-path="url(#clip5901)">
<text style="fill:#000000; fill-opacity:1; font-family:Arial,Helvetica Neue,Helvetica,sans-serif; font-size:48px; text-anchor:end;" transform="rotate(0, 124.013, 397.909)" x="124.013" y="397.909">30</text>
</g>
<g clip-path="url(#clip5901)">
<text style="fill:#000000; fill-opacity:1; font-family:Arial,Helvetica Neue,Helvetica,sans-serif; font-size:84px; text-anchor:middle;" transform="rotate(0, 1234.64, 73.2)" x="1234.64" y="73.2">Runge&apos;s phenomenon (Nodes = 24)</text>
</g>
<polyline clip-path="url(#clip5903)" style="stroke:#009af9; stroke-width:4; stroke-opacity:1; fill:none" points="
  209.52,1383.38 211.572,1383.38 213.624,1383.37 215.677,1383.37 217.729,1383.36 219.781,1383.36 221.834,1383.35 223.886,1383.35 225.938,1383.34 227.99,1383.34 
  230.043,1383.33 232.095,1383.33 234.147,1383.32 236.2,1383.31 238.252,1383.31 240.304,1383.3 242.356,1383.3 244.409,1383.29 246.461,1383.29 248.513,1383.28 
  250.566,1383.28 252.618,1383.27 254.67,1383.27 256.722,1383.26 258.775,1383.25 260.827,1383.25 262.879,1383.24 264.932,1383.24 266.984,1383.23 269.036,1383.22 
  271.088,1383.22 273.141,1383.21 275.193,1383.21 277.245,1383.2 279.298,1383.2 281.35,1383.19 283.402,1383.18 285.454,1383.18 287.507,1383.17 289.559,1383.16 
  291.611,1383.16 293.664,1383.15 295.716,1383.15 297.768,1383.14 299.82,1383.13 301.873,1383.13 303.925,1383.12 305.977,1383.11 308.03,1383.11 310.082,1383.1 
  312.134,1383.09 314.186,1383.09 316.239,1383.08 318.291,1383.07 320.343,1383.07 322.396,1383.06 324.448,1383.05 326.5,1383.05 328.552,1383.04 330.605,1383.03 
  332.657,1383.02 334.709,1383.02 336.762,1383.01 338.814,1383 340.866,1383 342.918,1382.99 344.971,1382.98 347.023,1382.97 349.075,1382.97 351.128,1382.96 
  353.18,1382.95 355.232,1382.94 357.284,1382.94 359.337,1382.93 361.389,1382.92 363.441,1382.91 365.494,1382.9 367.546,1382.9 369.598,1382.89 371.65,1382.88 
  373.703,1382.87 375.755,1382.86 377.807,1382.86 379.86,1382.85 381.912,1382.84 383.964,1382.83 386.016,1382.82 388.069,1382.81 390.121,1382.81 392.173,1382.8 
  394.226,1382.79 396.278,1382.78 398.33,1382.77 400.382,1382.76 402.435,1382.75 404.487,1382.74 406.539,1382.74 408.592,1382.73 410.644,1382.72 412.696,1382.71 
  414.748,1382.7 416.801,1382.69 418.853,1382.68 420.905,1382.67 422.958,1382.66 425.01,1382.65 427.062,1382.64 429.114,1382.63 431.167,1382.62 433.219,1382.61 
  435.271,1382.6 437.324,1382.59 439.376,1382.58 441.428,1382.57 443.48,1382.56 445.533,1382.55 447.585,1382.54 449.637,1382.53 451.69,1382.52 453.742,1382.51 
  455.794,1382.5 457.846,1382.49 459.899,1382.48 461.951,1382.47 464.003,1382.46 466.056,1382.45 468.108,1382.43 470.16,1382.42 472.212,1382.41 474.265,1382.4 
  476.317,1382.39 478.369,1382.38 480.422,1382.37 482.474,1382.35 484.526,1382.34 486.578,1382.33 488.631,1382.32 490.683,1382.31 492.735,1382.29 494.788,1382.28 
  496.84,1382.27 498.892,1382.26 500.944,1382.24 502.997,1382.23 505.049,1382.22 507.101,1382.21 509.154,1382.19 511.206,1382.18 513.258,1382.17 515.31,1382.15 
  517.363,1382.14 519.415,1382.13 521.467,1382.11 523.52,1382.1 525.572,1382.09 527.624,1382.07 529.676,1382.06 531.729,1382.04 533.781,1382.03 535.833,1382.02 
  537.886,1382 539.938,1381.99 541.99,1381.97 544.042,1381.96 546.095,1381.94 548.147,1381.93 550.199,1381.91 552.252,1381.9 554.304,1381.88 556.356,1381.87 
  558.408,1381.85 560.461,1381.84 562.513,1381.82 564.565,1381.8 566.617,1381.79 568.67,1381.77 570.722,1381.75 572.774,1381.74 574.827,1381.72 576.879,1381.7 
  578.931,1381.69 580.983,1381.67 583.036,1381.65 585.088,1381.64 587.14,1381.62 589.193,1381.6 591.245,1381.58 593.297,1381.57 595.349,1381.55 597.402,1381.53 
  599.454,1381.51 601.506,1381.49 603.559,1381.47 605.611,1381.45 607.663,1381.44 609.715,1381.42 611.768,1381.4 613.82,1381.38 615.872,1381.36 617.925,1381.34 
  619.977,1381.32 622.029,1381.3 624.081,1381.28 626.134,1381.26 628.186,1381.24 630.238,1381.21 632.291,1381.19 634.343,1381.17 636.395,1381.15 638.447,1381.13 
  640.5,1381.11 642.552,1381.08 644.604,1381.06 646.657,1381.04 648.709,1381.02 650.761,1380.99 652.813,1380.97 654.866,1380.95 656.918,1380.92 658.97,1380.9 
  661.023,1380.88 663.075,1380.85 665.127,1380.83 667.179,1380.8 669.232,1380.78 671.284,1380.75 673.336,1380.73 675.389,1380.7 677.441,1380.68 679.493,1380.65 
  681.545,1380.62 683.598,1380.6 685.65,1380.57 687.702,1380.54 689.755,1380.52 691.807,1380.49 693.859,1380.46 695.911,1380.43 697.964,1380.41 700.016,1380.38 
  702.068,1380.35 704.121,1380.32 706.173,1380.29 708.225,1380.26 710.277,1380.23 712.33,1380.2 714.382,1380.17 716.434,1380.14 718.487,1380.11 720.539,1380.08 
  722.591,1380.04 724.643,1380.01 726.696,1379.98 728.748,1379.95 730.8,1379.91 732.853,1379.88 734.905,1379.85 736.957,1379.81 739.009,1379.78 741.062,1379.74 
  743.114,1379.71 745.166,1379.67 747.219,1379.64 749.271,1379.6 751.323,1379.56 753.375,1379.53 755.428,1379.49 757.48,1379.45 759.532,1379.41 761.585,1379.38 
  763.637,1379.34 765.689,1379.3 767.741,1379.26 769.794,1379.22 771.846,1379.18 773.898,1379.14 775.951,1379.09 778.003,1379.05 780.055,1379.01 782.107,1378.97 
  784.16,1378.92 786.212,1378.88 788.264,1378.84 790.317,1378.79 792.369,1378.75 794.421,1378.7 796.473,1378.66 798.526,1378.61 800.578,1378.56 802.63,1378.52 
  804.683,1378.47 806.735,1378.42 808.787,1378.37 810.839,1378.32 812.892,1378.27 814.944,1378.22 816.996,1378.17 819.049,1378.12 821.101,1378.06 823.153,1378.01 
  825.205,1377.96 827.258,1377.9 829.31,1377.85 831.362,1377.79 833.415,1377.74 835.467,1377.68 837.519,1377.62 839.571,1377.57 841.624,1377.51 843.676,1377.45 
  845.728,1377.39 847.781,1377.33 849.833,1377.27 851.885,1377.21 853.937,1377.14 855.99,1377.08 858.042,1377.02 860.094,1376.95 862.147,1376.89 864.199,1376.82 
  866.251,1376.75 868.303,1376.68 870.356,1376.62 872.408,1376.55 874.46,1376.48 876.513,1376.41 878.565,1376.33 880.617,1376.26 882.669,1376.19 884.722,1376.11 
  886.774,1376.04 888.826,1375.96 890.879,1375.89 892.931,1375.81 894.983,1375.73 897.035,1375.65 899.088,1375.57 901.14,1375.49 903.192,1375.4 905.245,1375.32 
  907.297,1375.24 909.349,1375.15 911.401,1375.07 913.454,1374.98 915.506,1374.89 917.558,1374.8 919.611,1374.71 921.663,1374.62 923.715,1374.52 925.767,1374.43 
  927.82,1374.34 929.872,1374.24 931.924,1374.14 933.977,1374.04 936.029,1373.94 938.081,1373.84 940.133,1373.74 942.186,1373.64 944.238,1373.53 946.29,1373.43 
  948.343,1373.32 950.395,1373.21 952.447,1373.1 954.499,1372.99 956.552,1372.88 958.604,1372.77 960.656,1372.65 962.709,1372.54 964.761,1372.42 966.813,1372.3 
  968.865,1372.18 970.918,1372.06 972.97,1371.94 975.022,1371.81 977.075,1371.68 979.127,1371.56 981.179,1371.43 983.231,1371.3 985.284,1371.17 987.336,1371.03 
  989.388,1370.9 991.441,1370.76 993.493,1370.62 995.545,1370.48 997.597,1370.34 999.65,1370.2 1001.7,1370.06 1003.75,1369.91 1005.81,1369.76 1007.86,1369.61 
  1009.91,1369.46 1011.96,1369.31 1014.02,1369.16 1016.07,1369 1018.12,1368.84 1020.17,1368.68 1022.22,1368.52 1024.28,1368.36 1026.33,1368.2 1028.38,1368.03 
  1030.43,1367.86 1032.49,1367.7 1034.54,1367.52 1036.59,1367.35 1038.64,1367.18 1040.7,1367 1042.75,1366.82 1044.8,1366.65 1046.85,1366.47 1048.9,1366.28 
  1050.96,1366.1 1053.01,1365.91 1055.06,1365.73 1057.11,1365.54 1059.17,1365.35 1061.22,1365.16 1063.27,1364.96 1065.32,1364.77 1067.38,1364.57 1069.43,1364.37 
  1071.48,1364.17 1073.53,1363.97 1075.58,1363.77 1077.64,1363.57 1079.69,1363.36 1081.74,1363.16 1083.79,1362.95 1085.85,1362.74 1087.9,1362.53 1089.95,1362.32 
  1092,1362.11 1094.05,1361.9 1096.11,1361.69 1098.16,1361.47 1100.21,1361.26 1102.26,1361.04 1104.32,1360.83 1106.37,1360.61 1108.42,1360.39 1110.47,1360.18 
  1112.53,1359.96 1114.58,1359.74 1116.63,1359.52 1118.68,1359.31 1120.73,1359.09 1122.79,1358.87 1124.84,1358.65 1126.89,1358.44 1128.94,1358.22 1131,1358.01 
  1133.05,1357.79 1135.1,1357.58 1137.15,1357.37 1139.21,1357.15 1141.26,1356.94 1143.31,1356.74 1145.36,1356.53 1147.41,1356.32 1149.47,1356.12 1151.52,1355.92 
  1153.57,1355.72 1155.62,1355.52 1157.68,1355.33 1159.73,1355.14 1161.78,1354.95 1163.83,1354.76 1165.88,1354.58 1167.94,1354.4 1169.99,1354.22 1172.04,1354.05 
  1174.09,1353.88 1176.15,1353.71 1178.2,1353.55 1180.25,1353.39 1182.3,1353.24 1184.36,1353.09 1186.41,1352.95 1188.46,1352.81 1190.51,1352.68 1192.56,1352.55 
  1194.62,1352.42 1196.67,1352.3 1198.72,1352.19 1200.77,1352.08 1202.83,1351.98 1204.88,1351.88 1206.93,1351.79 1208.98,1351.71 1211.04,1351.63 1213.09,1351.56 
  1215.14,1351.49 1217.19,1351.43 1219.24,1351.38 1221.3,1351.33 1223.35,1351.29 1225.4,1351.26 1227.45,1351.23 1229.51,1351.21 1231.56,1351.2 1233.61,1351.19 
  1235.66,1351.19 1237.71,1351.2 1239.77,1351.21 1241.82,1351.23 1243.87,1351.26 1245.92,1351.29 1247.98,1351.33 1250.03,1351.38 1252.08,1351.43 1254.13,1351.49 
  1256.19,1351.56 1258.24,1351.63 1260.29,1351.71 1262.34,1351.79 1264.39,1351.88 1266.45,1351.98 1268.5,1352.08 1270.55,1352.19 1272.6,1352.3 1274.66,1352.42 
  1276.71,1352.55 1278.76,1352.68 1280.81,1352.81 1282.87,1352.95 1284.92,1353.09 1286.97,1353.24 1289.02,1353.39 1291.07,1353.55 1293.13,1353.71 1295.18,1353.88 
  1297.23,1354.05 1299.28,1354.22 1301.34,1354.4 1303.39,1354.58 1305.44,1354.76 1307.49,1354.95 1309.54,1355.14 1311.6,1355.33 1313.65,1355.52 1315.7,1355.72 
  1317.75,1355.92 1319.81,1356.12 1321.86,1356.32 1323.91,1356.53 1325.96,1356.74 1328.02,1356.94 1330.07,1357.15 1332.12,1357.37 1334.17,1357.58 1336.22,1357.79 
  1338.28,1358.01 1340.33,1358.22 1342.38,1358.44 1344.43,1358.65 1346.49,1358.87 1348.54,1359.09 1350.59,1359.31 1352.64,1359.52 1354.7,1359.74 1356.75,1359.96 
  1358.8,1360.18 1360.85,1360.39 1362.9,1360.61 1364.96,1360.83 1367.01,1361.04 1369.06,1361.26 1371.11,1361.47 1373.17,1361.69 1375.22,1361.9 1377.27,1362.11 
  1379.32,1362.32 1381.37,1362.53 1383.43,1362.74 1385.48,1362.95 1387.53,1363.16 1389.58,1363.36 1391.64,1363.57 1393.69,1363.77 1395.74,1363.97 1397.79,1364.17 
  1399.85,1364.37 1401.9,1364.57 1403.95,1364.77 1406,1364.96 1408.05,1365.16 1410.11,1365.35 1412.16,1365.54 1414.21,1365.73 1416.26,1365.91 1418.32,1366.1 
  1420.37,1366.28 1422.42,1366.47 1424.47,1366.65 1426.53,1366.82 1428.58,1367 1430.63,1367.18 1432.68,1367.35 1434.73,1367.52 1436.79,1367.7 1438.84,1367.86 
  1440.89,1368.03 1442.94,1368.2 1445,1368.36 1447.05,1368.52 1449.1,1368.68 1451.15,1368.84 1453.2,1369 1455.26,1369.16 1457.31,1369.31 1459.36,1369.46 
  1461.41,1369.61 1463.47,1369.76 1465.52,1369.91 1467.57,1370.06 1469.62,1370.2 1471.68,1370.34 1473.73,1370.48 1475.78,1370.62 1477.83,1370.76 1479.88,1370.9 
  1481.94,1371.03 1483.99,1371.17 1486.04,1371.3 1488.09,1371.43 1490.15,1371.56 1492.2,1371.68 1494.25,1371.81 1496.3,1371.94 1498.36,1372.06 1500.41,1372.18 
  1502.46,1372.3 1504.51,1372.42 1506.56,1372.54 1508.62,1372.65 1510.67,1372.77 1512.72,1372.88 1514.77,1372.99 1516.83,1373.1 1518.88,1373.21 1520.93,1373.32 
  1522.98,1373.43 1525.03,1373.53 1527.09,1373.64 1529.14,1373.74 1531.19,1373.84 1533.24,1373.94 1535.3,1374.04 1537.35,1374.14 1539.4,1374.24 1541.45,1374.34 
  1543.51,1374.43 1545.56,1374.52 1547.61,1374.62 1549.66,1374.71 1551.71,1374.8 1553.77,1374.89 1555.82,1374.98 1557.87,1375.07 1559.92,1375.15 1561.98,1375.24 
  1564.03,1375.32 1566.08,1375.4 1568.13,1375.49 1570.18,1375.57 1572.24,1375.65 1574.29,1375.73 1576.34,1375.81 1578.39,1375.89 1580.45,1375.96 1582.5,1376.04 
  1584.55,1376.11 1586.6,1376.19 1588.66,1376.26 1590.71,1376.33 1592.76,1376.41 1594.81,1376.48 1596.86,1376.55 1598.92,1376.62 1600.97,1376.68 1603.02,1376.75 
  1605.07,1376.82 1607.13,1376.89 1609.18,1376.95 1611.23,1377.02 1613.28,1377.08 1615.34,1377.14 1617.39,1377.21 1619.44,1377.27 1621.49,1377.33 1623.54,1377.39 
  1625.6,1377.45 1627.65,1377.51 1629.7,1377.57 1631.75,1377.62 1633.81,1377.68 1635.86,1377.74 1637.91,1377.79 1639.96,1377.85 1642.01,1377.9 1644.07,1377.96 
  1646.12,1378.01 1648.17,1378.06 1650.22,1378.12 1652.28,1378.17 1654.33,1378.22 1656.38,1378.27 1658.43,1378.32 1660.49,1378.37 1662.54,1378.42 1664.59,1378.47 
  1666.64,1378.52 1668.69,1378.56 1670.75,1378.61 1672.8,1378.66 1674.85,1378.7 1676.9,1378.75 1678.96,1378.79 1681.01,1378.84 1683.06,1378.88 1685.11,1378.92 
  1687.17,1378.97 1689.22,1379.01 1691.27,1379.05 1693.32,1379.09 1695.37,1379.14 1697.43,1379.18 1699.48,1379.22 1701.53,1379.26 1703.58,1379.3 1705.64,1379.34 
  1707.69,1379.38 1709.74,1379.41 1711.79,1379.45 1713.84,1379.49 1715.9,1379.53 1717.95,1379.56 1720,1379.6 1722.05,1379.64 1724.11,1379.67 1726.16,1379.71 
  1728.21,1379.74 1730.26,1379.78 1732.32,1379.81 1734.37,1379.85 1736.42,1379.88 1738.47,1379.91 1740.52,1379.95 1742.58,1379.98 1744.63,1380.01 1746.68,1380.04 
  1748.73,1380.08 1750.79,1380.11 1752.84,1380.14 1754.89,1380.17 1756.94,1380.2 1759,1380.23 1761.05,1380.26 1763.1,1380.29 1765.15,1380.32 1767.2,1380.35 
  1769.26,1380.38 1771.31,1380.41 1773.36,1380.43 1775.41,1380.46 1777.47,1380.49 1779.52,1380.52 1781.57,1380.54 1783.62,1380.57 1785.67,1380.6 1787.73,1380.62 
  1789.78,1380.65 1791.83,1380.68 1793.88,1380.7 1795.94,1380.73 1797.99,1380.75 1800.04,1380.78 1802.09,1380.8 1804.15,1380.83 1806.2,1380.85 1808.25,1380.88 
  1810.3,1380.9 1812.35,1380.92 1814.41,1380.95 1816.46,1380.97 1818.51,1380.99 1820.56,1381.02 1822.62,1381.04 1824.67,1381.06 1826.72,1381.08 1828.77,1381.11 
  1830.83,1381.13 1832.88,1381.15 1834.93,1381.17 1836.98,1381.19 1839.03,1381.21 1841.09,1381.24 1843.14,1381.26 1845.19,1381.28 1847.24,1381.3 1849.3,1381.32 
  1851.35,1381.34 1853.4,1381.36 1855.45,1381.38 1857.5,1381.4 1859.56,1381.42 1861.61,1381.44 1863.66,1381.45 1865.71,1381.47 1867.77,1381.49 1869.82,1381.51 
  1871.87,1381.53 1873.92,1381.55 1875.98,1381.57 1878.03,1381.58 1880.08,1381.6 1882.13,1381.62 1884.18,1381.64 1886.24,1381.65 1888.29,1381.67 1890.34,1381.69 
  1892.39,1381.7 1894.45,1381.72 1896.5,1381.74 1898.55,1381.75 1900.6,1381.77 1902.66,1381.79 1904.71,1381.8 1906.76,1381.82 1908.81,1381.84 1910.86,1381.85 
  1912.92,1381.87 1914.97,1381.88 1917.02,1381.9 1919.07,1381.91 1921.13,1381.93 1923.18,1381.94 1925.23,1381.96 1927.28,1381.97 1929.33,1381.99 1931.39,1382 
  1933.44,1382.02 1935.49,1382.03 1937.54,1382.04 1939.6,1382.06 1941.65,1382.07 1943.7,1382.09 1945.75,1382.1 1947.81,1382.11 1949.86,1382.13 1951.91,1382.14 
  1953.96,1382.15 1956.01,1382.17 1958.07,1382.18 1960.12,1382.19 1962.17,1382.21 1964.22,1382.22 1966.28,1382.23 1968.33,1382.24 1970.38,1382.26 1972.43,1382.27 
  1974.49,1382.28 1976.54,1382.29 1978.59,1382.31 1980.64,1382.32 1982.69,1382.33 1984.75,1382.34 1986.8,1382.35 1988.85,1382.37 1990.9,1382.38 1992.96,1382.39 
  1995.01,1382.4 1997.06,1382.41 1999.11,1382.42 2001.16,1382.43 2003.22,1382.45 2005.27,1382.46 2007.32,1382.47 2009.37,1382.48 2011.43,1382.49 2013.48,1382.5 
  2015.53,1382.51 2017.58,1382.52 2019.64,1382.53 2021.69,1382.54 2023.74,1382.55 2025.79,1382.56 2027.84,1382.57 2029.9,1382.58 2031.95,1382.59 2034,1382.6 
  2036.05,1382.61 2038.11,1382.62 2040.16,1382.63 2042.21,1382.64 2044.26,1382.65 2046.32,1382.66 2048.37,1382.67 2050.42,1382.68 2052.47,1382.69 2054.52,1382.7 
  2056.58,1382.71 2058.63,1382.72 2060.68,1382.73 2062.73,1382.74 2064.79,1382.74 2066.84,1382.75 2068.89,1382.76 2070.94,1382.77 2072.99,1382.78 2075.05,1382.79 
  2077.1,1382.8 2079.15,1382.81 2081.2,1382.81 2083.26,1382.82 2085.31,1382.83 2087.36,1382.84 2089.41,1382.85 2091.47,1382.86 2093.52,1382.86 2095.57,1382.87 
  2097.62,1382.88 2099.67,1382.89 2101.73,1382.9 2103.78,1382.9 2105.83,1382.91 2107.88,1382.92 2109.94,1382.93 2111.99,1382.94 2114.04,1382.94 2116.09,1382.95 
  2118.15,1382.96 2120.2,1382.97 2122.25,1382.97 2124.3,1382.98 2126.35,1382.99 2128.41,1383 2130.46,1383 2132.51,1383.01 2134.56,1383.02 2136.62,1383.02 
  2138.67,1383.03 2140.72,1383.04 2142.77,1383.05 2144.82,1383.05 2146.88,1383.06 2148.93,1383.07 2150.98,1383.07 2153.03,1383.08 2155.09,1383.09 2157.14,1383.09 
  2159.19,1383.1 2161.24,1383.11 2163.3,1383.11 2165.35,1383.12 2167.4,1383.13 2169.45,1383.13 2171.5,1383.14 2173.56,1383.15 2175.61,1383.15 2177.66,1383.16 
  2179.71,1383.16 2181.77,1383.17 2183.82,1383.18 2185.87,1383.18 2187.92,1383.19 2189.98,1383.2 2192.03,1383.2 2194.08,1383.21 2196.13,1383.21 2198.18,1383.22 
  2200.24,1383.22 2202.29,1383.23 2204.34,1383.24 2206.39,1383.24 2208.45,1383.25 2210.5,1383.25 2212.55,1383.26 2214.6,1383.27 2216.65,1383.27 2218.71,1383.28 
  2220.76,1383.28 2222.81,1383.29 2224.86,1383.29 2226.92,1383.3 2228.97,1383.3 2231.02,1383.31 2233.07,1383.31 2235.13,1383.32 2237.18,1383.33 2239.23,1383.33 
  2241.28,1383.34 2243.33,1383.34 2245.39,1383.35 2247.44,1383.35 2249.49,1383.36 2251.54,1383.36 2253.6,1383.37 2255.65,1383.37 2257.7,1383.38 2259.75,1383.38 
  
  "/>
<circle clip-path="url(#clip5903)" style="fill:#000000; stroke:none; fill-opacity:1" cx="209.52" cy="1383.38" r="18"/>
<circle clip-path="url(#clip5903)" style="fill:#e26f46; stroke:none; fill-opacity:1" cx="209.52" cy="1383.38" r="14"/>
<circle clip-path="url(#clip5903)" style="fill:#000000; stroke:none; fill-opacity:1" cx="298.66" cy="1383.14" r="18"/>
<circle clip-path="url(#clip5903)" style="fill:#e26f46; stroke:none; fill-opacity:1" cx="298.66" cy="1383.14" r="14"/>
<circle clip-path="url(#clip5903)" style="fill:#000000; stroke:none; fill-opacity:1" cx="387.801" cy="1382.82" r="18"/>
<circle clip-path="url(#clip5903)" style="fill:#e26f46; stroke:none; fill-opacity:1" cx="387.801" cy="1382.82" r="14"/>
<circle clip-path="url(#clip5903)" style="fill:#000000; stroke:none; fill-opacity:1" cx="476.942" cy="1382.39" r="18"/>
<circle clip-path="url(#clip5903)" style="fill:#e26f46; stroke:none; fill-opacity:1" cx="476.942" cy="1382.39" r="14"/>
<circle clip-path="url(#clip5903)" style="fill:#000000; stroke:none; fill-opacity:1" cx="566.082" cy="1381.79" r="18"/>
<circle clip-path="url(#clip5903)" style="fill:#e26f46; stroke:none; fill-opacity:1" cx="566.082" cy="1381.79" r="14"/>
<circle clip-path="url(#clip5903)" style="fill:#000000; stroke:none; fill-opacity:1" cx="655.223" cy="1380.94" r="18"/>
<circle clip-path="url(#clip5903)" style="fill:#e26f46; stroke:none; fill-opacity:1" cx="655.223" cy="1380.94" r="14"/>
<circle clip-path="url(#clip5903)" style="fill:#000000; stroke:none; fill-opacity:1" cx="744.363" cy="1379.69" r="18"/>
<circle clip-path="url(#clip5903)" style="fill:#e26f46; stroke:none; fill-opacity:1" cx="744.363" cy="1379.69" r="14"/>
<circle clip-path="url(#clip5903)" style="fill:#000000; stroke:none; fill-opacity:1" cx="833.504" cy="1377.74" r="18"/>
<circle clip-path="url(#clip5903)" style="fill:#e26f46; stroke:none; fill-opacity:1" cx="833.504" cy="1377.74" r="14"/>
<circle clip-path="url(#clip5903)" style="fill:#000000; stroke:none; fill-opacity:1" cx="922.644" cy="1374.57" r="18"/>
<circle clip-path="url(#clip5903)" style="fill:#e26f46; stroke:none; fill-opacity:1" cx="922.644" cy="1374.57" r="14"/>
<circle clip-path="url(#clip5903)" style="fill:#000000; stroke:none; fill-opacity:1" cx="1011.78" cy="1369.32" r="18"/>
<circle clip-path="url(#clip5903)" style="fill:#e26f46; stroke:none; fill-opacity:1" cx="1011.78" cy="1369.32" r="14"/>
<circle clip-path="url(#clip5903)" style="fill:#000000; stroke:none; fill-opacity:1" cx="1100.93" cy="1361.18" r="18"/>
<circle clip-path="url(#clip5903)" style="fill:#e26f46; stroke:none; fill-opacity:1" cx="1100.93" cy="1361.18" r="14"/>
<circle clip-path="url(#clip5903)" style="fill:#000000; stroke:none; fill-opacity:1" cx="1190.07" cy="1352.7" r="18"/>
<circle clip-path="url(#clip5903)" style="fill:#e26f46; stroke:none; fill-opacity:1" cx="1190.07" cy="1352.7" r="14"/>
<circle clip-path="url(#clip5903)" style="fill:#000000; stroke:none; fill-opacity:1" cx="1279.21" cy="1352.7" r="18"/>
<circle clip-path="url(#clip5903)" style="fill:#e26f46; stroke:none; fill-opacity:1" cx="1279.21" cy="1352.7" r="14"/>
<circle clip-path="url(#clip5903)" style="fill:#000000; stroke:none; fill-opacity:1" cx="1368.35" cy="1361.18" r="18"/>
<circle clip-path="url(#clip5903)" style="fill:#e26f46; stroke:none; fill-opacity:1" cx="1368.35" cy="1361.18" r="14"/>
<circle clip-path="url(#clip5903)" style="fill:#000000; stroke:none; fill-opacity:1" cx="1457.49" cy="1369.32" r="18"/>
<circle clip-path="url(#clip5903)" style="fill:#e26f46; stroke:none; fill-opacity:1" cx="1457.49" cy="1369.32" r="14"/>
<circle clip-path="url(#clip5903)" style="fill:#000000; stroke:none; fill-opacity:1" cx="1546.63" cy="1374.57" r="18"/>
<circle clip-path="url(#clip5903)" style="fill:#e26f46; stroke:none; fill-opacity:1" cx="1546.63" cy="1374.57" r="14"/>
<circle clip-path="url(#clip5903)" style="fill:#000000; stroke:none; fill-opacity:1" cx="1635.77" cy="1377.74" r="18"/>
<circle clip-path="url(#clip5903)" style="fill:#e26f46; stroke:none; fill-opacity:1" cx="1635.77" cy="1377.74" r="14"/>
<circle clip-path="url(#clip5903)" style="fill:#000000; stroke:none; fill-opacity:1" cx="1724.91" cy="1379.69" r="18"/>
<circle clip-path="url(#clip5903)" style="fill:#e26f46; stroke:none; fill-opacity:1" cx="1724.91" cy="1379.69" r="14"/>
<circle clip-path="url(#clip5903)" style="fill:#000000; stroke:none; fill-opacity:1" cx="1814.05" cy="1380.94" r="18"/>
<circle clip-path="url(#clip5903)" style="fill:#e26f46; stroke:none; fill-opacity:1" cx="1814.05" cy="1380.94" r="14"/>
<circle clip-path="url(#clip5903)" style="fill:#000000; stroke:none; fill-opacity:1" cx="1903.19" cy="1381.79" r="18"/>
<circle clip-path="url(#clip5903)" style="fill:#e26f46; stroke:none; fill-opacity:1" cx="1903.19" cy="1381.79" r="14"/>
<circle clip-path="url(#clip5903)" style="fill:#000000; stroke:none; fill-opacity:1" cx="1992.33" cy="1382.39" r="18"/>
<circle clip-path="url(#clip5903)" style="fill:#e26f46; stroke:none; fill-opacity:1" cx="1992.33" cy="1382.39" r="14"/>
<circle clip-path="url(#clip5903)" style="fill:#000000; stroke:none; fill-opacity:1" cx="2081.47" cy="1382.82" r="18"/>
<circle clip-path="url(#clip5903)" style="fill:#e26f46; stroke:none; fill-opacity:1" cx="2081.47" cy="1382.82" r="14"/>
<circle clip-path="url(#clip5903)" style="fill:#000000; stroke:none; fill-opacity:1" cx="2170.61" cy="1383.14" r="18"/>
<circle clip-path="url(#clip5903)" style="fill:#e26f46; stroke:none; fill-opacity:1" cx="2170.61" cy="1383.14" r="14"/>
<circle clip-path="url(#clip5903)" style="fill:#000000; stroke:none; fill-opacity:1" cx="2259.75" cy="1383.38" r="18"/>
<circle clip-path="url(#clip5903)" style="fill:#e26f46; stroke:none; fill-opacity:1" cx="2259.75" cy="1383.38" r="14"/>
<polyline clip-path="url(#clip5903)" style="stroke:#3da44d; stroke-width:4; stroke-opacity:1; fill:none" points="
  209.52,1383.38 211.572,1116.44 213.624,892.223 215.677,706.223 217.729,554.297 219.781,432.658 221.834,337.842 223.886,266.691 225.938,216.328 227.99,184.134 
  230.043,167.732 232.095,164.97 234.147,173.899 236.2,192.761 238.252,219.976 240.304,254.122 242.356,293.928 244.409,338.258 246.461,386.103 248.513,436.566 
  250.566,488.859 252.618,542.287 254.67,596.244 256.722,650.202 258.775,703.708 260.827,756.373 262.879,807.867 264.932,857.916 266.984,906.291 269.036,952.809 
  271.088,997.325 273.141,1039.73 275.193,1079.94 277.245,1117.91 279.298,1153.6 281.35,1187.02 283.402,1218.17 285.454,1247.07 287.507,1273.78 289.559,1298.34 
  291.611,1320.81 293.664,1341.27 295.716,1359.79 297.768,1376.45 299.82,1391.34 301.873,1404.55 303.925,1416.16 305.977,1426.27 308.03,1434.98 310.082,1442.36 
  312.134,1448.52 314.186,1453.53 316.239,1457.5 318.291,1460.5 320.343,1462.61 322.396,1463.92 324.448,1464.49 326.5,1464.41 328.552,1463.73 330.605,1462.54 
  332.657,1460.88 334.709,1458.82 336.762,1456.42 338.814,1453.72 340.866,1450.78 342.918,1447.63 344.971,1444.33 347.023,1440.91 349.075,1437.4 351.128,1433.84 
  353.18,1430.25 355.232,1426.67 357.284,1423.12 359.337,1419.61 361.389,1416.18 363.441,1412.82 365.494,1409.57 367.546,1406.42 369.598,1403.4 371.65,1400.51 
  373.703,1397.75 375.755,1395.14 377.807,1392.67 379.86,1390.36 381.912,1388.19 383.964,1386.18 386.016,1384.31 388.069,1382.6 390.121,1381.03 392.173,1379.61 
  394.226,1378.33 396.278,1377.19 398.33,1376.18 400.382,1375.29 402.435,1374.53 404.487,1373.89 406.539,1373.35 408.592,1372.92 410.644,1372.59 412.696,1372.34 
  414.748,1372.19 416.801,1372.11 418.853,1372.11 420.905,1372.18 422.958,1372.3 425.01,1372.49 427.062,1372.72 429.114,1373 431.167,1373.31 433.219,1373.66 
  435.271,1374.04 437.324,1374.45 439.376,1374.87 441.428,1375.31 443.48,1375.76 445.533,1376.22 447.585,1376.69 449.637,1377.15 451.69,1377.62 453.742,1378.08 
  455.794,1378.53 457.846,1378.98 459.899,1379.41 461.951,1379.83 464.003,1380.24 466.056,1380.63 468.108,1381 470.16,1381.35 472.212,1381.69 474.265,1382 
  476.317,1382.3 478.369,1382.57 480.422,1382.83 482.474,1383.06 484.526,1383.27 486.578,1383.46 488.631,1383.63 490.683,1383.79 492.735,1383.92 494.788,1384.03 
  496.84,1384.12 498.892,1384.19 500.944,1384.25 502.997,1384.29 505.049,1384.32 507.101,1384.33 509.154,1384.32 511.206,1384.31 513.258,1384.28 515.31,1384.23 
  517.363,1384.18 519.415,1384.12 521.467,1384.05 523.52,1383.97 525.572,1383.89 527.624,1383.79 529.676,1383.7 531.729,1383.59 533.781,1383.49 535.833,1383.38 
  537.886,1383.27 539.938,1383.15 541.99,1383.04 544.042,1382.93 546.095,1382.81 548.147,1382.7 550.199,1382.58 552.252,1382.47 554.304,1382.36 556.356,1382.26 
  558.408,1382.15 560.461,1382.05 562.513,1381.95 564.565,1381.86 566.617,1381.77 568.67,1381.68 570.722,1381.6 572.774,1381.52 574.827,1381.45 576.879,1381.38 
  578.931,1381.32 580.983,1381.26 583.036,1381.2 585.088,1381.15 587.14,1381.1 589.193,1381.06 591.245,1381.02 593.297,1380.99 595.349,1380.96 597.402,1380.93 
  599.454,1380.91 601.506,1380.89 603.559,1380.87 605.611,1380.86 607.663,1380.85 609.715,1380.84 611.768,1380.83 613.82,1380.83 615.872,1380.83 617.925,1380.83 
  619.977,1380.83 622.029,1380.84 624.081,1380.84 626.134,1380.85 628.186,1380.86 630.238,1380.87 632.291,1380.87 634.343,1380.88 636.395,1380.89 638.447,1380.9 
  640.5,1380.91 642.552,1380.91 644.604,1380.92 646.657,1380.93 648.709,1380.93 650.761,1380.94 652.813,1380.94 654.866,1380.94 656.918,1380.94 658.97,1380.94 
  661.023,1380.94 663.075,1380.94 665.127,1380.93 667.179,1380.93 669.232,1380.92 671.284,1380.91 673.336,1380.9 675.389,1380.89 677.441,1380.87 679.493,1380.85 
  681.545,1380.84 683.598,1380.82 685.65,1380.79 687.702,1380.77 689.755,1380.75 691.807,1380.72 693.859,1380.69 695.911,1380.66 697.964,1380.63 700.016,1380.6 
  702.068,1380.57 704.121,1380.53 706.173,1380.49 708.225,1380.46 710.277,1380.42 712.33,1380.38 714.382,1380.34 716.434,1380.3 718.487,1380.26 720.539,1380.21 
  722.591,1380.17 724.643,1380.13 726.696,1380.08 728.748,1380.04 730.8,1379.99 732.853,1379.95 734.905,1379.9 736.957,1379.85 739.009,1379.81 741.062,1379.76 
  743.114,1379.71 745.166,1379.67 747.219,1379.62 749.271,1379.57 751.323,1379.53 753.375,1379.48 755.428,1379.44 757.48,1379.39 759.532,1379.34 761.585,1379.3 
  763.637,1379.25 765.689,1379.21 767.741,1379.16 769.794,1379.12 771.846,1379.07 773.898,1379.03 775.951,1378.98 778.003,1378.94 780.055,1378.9 782.107,1378.85 
  784.16,1378.81 786.212,1378.77 788.264,1378.72 790.317,1378.68 792.369,1378.64 794.421,1378.6 796.473,1378.55 798.526,1378.51 800.578,1378.47 802.63,1378.42 
  804.683,1378.38 806.735,1378.34 808.787,1378.29 810.839,1378.25 812.892,1378.21 814.944,1378.16 816.996,1378.12 819.049,1378.07 821.101,1378.02 823.153,1377.98 
  825.205,1377.93 827.258,1377.88 829.31,1377.84 831.362,1377.79 833.415,1377.74 835.467,1377.69 837.519,1377.64 839.571,1377.58 841.624,1377.53 843.676,1377.48 
  845.728,1377.42 847.781,1377.37 849.833,1377.31 851.885,1377.25 853.937,1377.2 855.99,1377.14 858.042,1377.08 860.094,1377.01 862.147,1376.95 864.199,1376.89 
  866.251,1376.82 868.303,1376.76 870.356,1376.69 872.408,1376.62 874.46,1376.55 876.513,1376.48 878.565,1376.41 880.617,1376.33 882.669,1376.26 884.722,1376.18 
  886.774,1376.11 888.826,1376.03 890.879,1375.95 892.931,1375.87 894.983,1375.79 897.035,1375.7 899.088,1375.62 901.14,1375.53 903.192,1375.45 905.245,1375.36 
  907.297,1375.27 909.349,1375.18 911.401,1375.09 913.454,1375 915.506,1374.91 917.558,1374.81 919.611,1374.72 921.663,1374.62 923.715,1374.52 925.767,1374.42 
  927.82,1374.32 929.872,1374.22 931.924,1374.12 933.977,1374.02 936.029,1373.92 938.081,1373.81 940.133,1373.71 942.186,1373.6 944.238,1373.49 946.29,1373.38 
  948.343,1373.27 950.395,1373.16 952.447,1373.05 954.499,1372.94 956.552,1372.82 958.604,1372.71 960.656,1372.59 962.709,1372.48 964.761,1372.36 966.813,1372.24 
  968.865,1372.12 970.918,1372 972.97,1371.88 975.022,1371.75 977.075,1371.63 979.127,1371.5 981.179,1371.38 983.231,1371.25 985.284,1371.12 987.336,1370.99 
  989.388,1370.86 991.441,1370.72 993.493,1370.59 995.545,1370.45 997.597,1370.32 999.65,1370.18 1001.7,1370.04 1003.75,1369.89 1005.81,1369.75 1007.86,1369.61 
  1009.91,1369.46 1011.96,1369.31 1014.02,1369.16 1016.07,1369.01 1018.12,1368.86 1020.17,1368.7 1022.22,1368.54 1024.28,1368.39 1026.33,1368.23 1028.38,1368.06 
  1030.43,1367.9 1032.49,1367.73 1034.54,1367.57 1036.59,1367.4 1038.64,1367.23 1040.7,1367.05 1042.75,1366.88 1044.8,1366.7 1046.85,1366.52 1048.9,1366.34 
  1050.96,1366.16 1053.01,1365.97 1055.06,1365.79 1057.11,1365.6 1059.17,1365.41 1061.22,1365.21 1063.27,1365.02 1065.32,1364.82 1067.38,1364.63 1069.43,1364.43 
  1071.48,1364.23 1073.53,1364.02 1075.58,1363.82 1077.64,1363.61 1079.69,1363.41 1081.74,1363.2 1083.79,1362.99 1085.85,1362.77 1087.9,1362.56 1089.95,1362.35 
  1092,1362.13 1094.05,1361.91 1096.11,1361.7 1098.16,1361.48 1100.21,1361.26 1102.26,1361.04 1104.32,1360.82 1106.37,1360.6 1108.42,1360.38 1110.47,1360.16 
  1112.53,1359.93 1114.58,1359.71 1116.63,1359.49 1118.68,1359.27 1120.73,1359.05 1122.79,1358.83 1124.84,1358.6 1126.89,1358.39 1128.94,1358.17 1131,1357.95 
  1133.05,1357.73 1135.1,1357.52 1137.15,1357.3 1139.21,1357.09 1141.26,1356.88 1143.31,1356.67 1145.36,1356.46 1147.41,1356.25 1149.47,1356.05 1151.52,1355.85 
  1153.57,1355.65 1155.62,1355.46 1157.68,1355.26 1159.73,1355.07 1161.78,1354.89 1163.83,1354.7 1165.88,1354.52 1167.94,1354.35 1169.99,1354.17 1172.04,1354.01 
  1174.09,1353.84 1176.15,1353.68 1178.2,1353.52 1180.25,1353.37 1182.3,1353.22 1184.36,1353.08 1186.41,1352.94 1188.46,1352.81 1190.51,1352.68 1192.56,1352.55 
  1194.62,1352.43 1196.67,1352.32 1198.72,1352.21 1200.77,1352.11 1202.83,1352.01 1204.88,1351.92 1206.93,1351.84 1208.98,1351.76 1211.04,1351.68 1213.09,1351.61 
  1215.14,1351.55 1217.19,1351.5 1219.24,1351.45 1221.3,1351.4 1223.35,1351.36 1225.4,1351.33 1227.45,1351.31 1229.51,1351.29 1231.56,1351.28 1233.61,1351.27 
  1235.66,1351.27 1237.71,1351.28 1239.77,1351.29 1241.82,1351.31 1243.87,1351.33 1245.92,1351.36 1247.98,1351.4 1250.03,1351.45 1252.08,1351.5 1254.13,1351.55 
  1256.19,1351.61 1258.24,1351.68 1260.29,1351.76 1262.34,1351.84 1264.39,1351.92 1266.45,1352.01 1268.5,1352.11 1270.55,1352.21 1272.6,1352.32 1274.66,1352.43 
  1276.71,1352.55 1278.76,1352.68 1280.81,1352.81 1282.87,1352.94 1284.92,1353.08 1286.97,1353.22 1289.02,1353.37 1291.07,1353.52 1293.13,1353.68 1295.18,1353.84 
  1297.23,1354.01 1299.28,1354.17 1301.34,1354.35 1303.39,1354.52 1305.44,1354.7 1307.49,1354.89 1309.54,1355.07 1311.6,1355.26 1313.65,1355.46 1315.7,1355.65 
  1317.75,1355.85 1319.81,1356.05 1321.86,1356.25 1323.91,1356.46 1325.96,1356.67 1328.02,1356.88 1330.07,1357.09 1332.12,1357.3 1334.17,1357.52 1336.22,1357.73 
  1338.28,1357.95 1340.33,1358.17 1342.38,1358.39 1344.43,1358.6 1346.49,1358.83 1348.54,1359.05 1350.59,1359.27 1352.64,1359.49 1354.7,1359.71 1356.75,1359.93 
  1358.8,1360.16 1360.85,1360.38 1362.9,1360.6 1364.96,1360.82 1367.01,1361.04 1369.06,1361.26 1371.11,1361.48 1373.17,1361.7 1375.22,1361.91 1377.27,1362.13 
  1379.32,1362.35 1381.37,1362.56 1383.43,1362.77 1385.48,1362.99 1387.53,1363.2 1389.58,1363.41 1391.64,1363.61 1393.69,1363.82 1395.74,1364.02 1397.79,1364.23 
  1399.85,1364.43 1401.9,1364.63 1403.95,1364.82 1406,1365.02 1408.05,1365.21 1410.11,1365.41 1412.16,1365.6 1414.21,1365.79 1416.26,1365.97 1418.32,1366.16 
  1420.37,1366.34 1422.42,1366.52 1424.47,1366.7 1426.53,1366.88 1428.58,1367.05 1430.63,1367.23 1432.68,1367.4 1434.73,1367.57 1436.79,1367.73 1438.84,1367.9 
  1440.89,1368.06 1442.94,1368.23 1445,1368.39 1447.05,1368.54 1449.1,1368.7 1451.15,1368.86 1453.2,1369.01 1455.26,1369.16 1457.31,1369.31 1459.36,1369.46 
  1461.41,1369.61 1463.47,1369.75 1465.52,1369.89 1467.57,1370.04 1469.62,1370.18 1471.68,1370.32 1473.73,1370.45 1475.78,1370.59 1477.83,1370.72 1479.88,1370.86 
  1481.94,1370.99 1483.99,1371.12 1486.04,1371.25 1488.09,1371.38 1490.15,1371.5 1492.2,1371.63 1494.25,1371.75 1496.3,1371.88 1498.36,1372 1500.41,1372.12 
  1502.46,1372.24 1504.51,1372.36 1506.56,1372.48 1508.62,1372.59 1510.67,1372.71 1512.72,1372.82 1514.77,1372.94 1516.83,1373.05 1518.88,1373.16 1520.93,1373.27 
  1522.98,1373.38 1525.03,1373.49 1527.09,1373.6 1529.14,1373.71 1531.19,1373.81 1533.24,1373.92 1535.3,1374.02 1537.35,1374.12 1539.4,1374.22 1541.45,1374.32 
  1543.51,1374.42 1545.56,1374.52 1547.61,1374.62 1549.66,1374.72 1551.71,1374.81 1553.77,1374.91 1555.82,1375 1557.87,1375.09 1559.92,1375.18 1561.98,1375.27 
  1564.03,1375.36 1566.08,1375.45 1568.13,1375.53 1570.18,1375.62 1572.24,1375.7 1574.29,1375.79 1576.34,1375.87 1578.39,1375.95 1580.45,1376.03 1582.5,1376.11 
  1584.55,1376.18 1586.6,1376.26 1588.66,1376.33 1590.71,1376.41 1592.76,1376.48 1594.81,1376.55 1596.86,1376.62 1598.92,1376.69 1600.97,1376.76 1603.02,1376.82 
  1605.07,1376.89 1607.13,1376.95 1609.18,1377.01 1611.23,1377.08 1613.28,1377.14 1615.34,1377.2 1617.39,1377.25 1619.44,1377.31 1621.49,1377.37 1623.54,1377.42 
  1625.6,1377.48 1627.65,1377.53 1629.7,1377.58 1631.75,1377.64 1633.81,1377.69 1635.86,1377.74 1637.91,1377.79 1639.96,1377.84 1642.01,1377.88 1644.07,1377.93 
  1646.12,1377.98 1648.17,1378.02 1650.22,1378.07 1652.28,1378.12 1654.33,1378.16 1656.38,1378.21 1658.43,1378.25 1660.49,1378.29 1662.54,1378.34 1664.59,1378.38 
  1666.64,1378.42 1668.69,1378.47 1670.75,1378.51 1672.8,1378.55 1674.85,1378.6 1676.9,1378.64 1678.96,1378.68 1681.01,1378.72 1683.06,1378.77 1685.11,1378.81 
  1687.17,1378.85 1689.22,1378.9 1691.27,1378.94 1693.32,1378.98 1695.37,1379.03 1697.43,1379.07 1699.48,1379.12 1701.53,1379.16 1703.58,1379.21 1705.64,1379.25 
  1707.69,1379.3 1709.74,1379.34 1711.79,1379.39 1713.84,1379.44 1715.9,1379.48 1717.95,1379.53 1720,1379.57 1722.05,1379.62 1724.11,1379.67 1726.16,1379.71 
  1728.21,1379.76 1730.26,1379.81 1732.32,1379.85 1734.37,1379.9 1736.42,1379.95 1738.47,1379.99 1740.52,1380.04 1742.58,1380.08 1744.63,1380.13 1746.68,1380.17 
  1748.73,1380.21 1750.79,1380.26 1752.84,1380.3 1754.89,1380.34 1756.94,1380.38 1759,1380.42 1761.05,1380.46 1763.1,1380.49 1765.15,1380.53 1767.2,1380.57 
  1769.26,1380.6 1771.31,1380.63 1773.36,1380.66 1775.41,1380.69 1777.47,1380.72 1779.52,1380.75 1781.57,1380.77 1783.62,1380.79 1785.67,1380.82 1787.73,1380.84 
  1789.78,1380.85 1791.83,1380.87 1793.88,1380.89 1795.94,1380.9 1797.99,1380.91 1800.04,1380.92 1802.09,1380.93 1804.15,1380.93 1806.2,1380.94 1808.25,1380.94 
  1810.3,1380.94 1812.35,1380.94 1814.41,1380.94 1816.46,1380.94 1818.51,1380.94 1820.56,1380.93 1822.62,1380.93 1824.67,1380.92 1826.72,1380.91 1828.77,1380.91 
  1830.83,1380.9 1832.88,1380.89 1834.93,1380.88 1836.98,1380.87 1839.03,1380.87 1841.09,1380.86 1843.14,1380.85 1845.19,1380.84 1847.24,1380.84 1849.3,1380.83 
  1851.35,1380.83 1853.4,1380.83 1855.45,1380.83 1857.5,1380.83 1859.56,1380.84 1861.61,1380.85 1863.66,1380.86 1865.71,1380.87 1867.77,1380.89 1869.82,1380.91 
  1871.87,1380.93 1873.92,1380.96 1875.98,1380.99 1878.03,1381.02 1880.08,1381.06 1882.13,1381.1 1884.18,1381.15 1886.24,1381.2 1888.29,1381.26 1890.34,1381.32 
  1892.39,1381.38 1894.45,1381.45 1896.5,1381.52 1898.55,1381.6 1900.6,1381.68 1902.66,1381.77 1904.71,1381.86 1906.76,1381.95 1908.81,1382.05 1910.86,1382.15 
  1912.92,1382.26 1914.97,1382.36 1917.02,1382.47 1919.07,1382.58 1921.13,1382.7 1923.18,1382.81 1925.23,1382.93 1927.28,1383.04 1929.33,1383.15 1931.39,1383.27 
  1933.44,1383.38 1935.49,1383.49 1937.54,1383.59 1939.6,1383.7 1941.65,1383.79 1943.7,1383.89 1945.75,1383.97 1947.81,1384.05 1949.86,1384.12 1951.91,1384.18 
  1953.96,1384.23 1956.01,1384.28 1958.07,1384.31 1960.12,1384.32 1962.17,1384.33 1964.22,1384.32 1966.28,1384.29 1968.33,1384.25 1970.38,1384.19 1972.43,1384.12 
  1974.49,1384.03 1976.54,1383.92 1978.59,1383.79 1980.64,1383.63 1982.69,1383.46 1984.75,1383.27 1986.8,1383.06 1988.85,1382.83 1990.9,1382.57 1992.96,1382.3 
  1995.01,1382 1997.06,1381.69 1999.11,1381.35 2001.16,1381 2003.22,1380.63 2005.27,1380.24 2007.32,1379.83 2009.37,1379.41 2011.43,1378.98 2013.48,1378.53 
  2015.53,1378.08 2017.58,1377.62 2019.64,1377.15 2021.69,1376.69 2023.74,1376.22 2025.79,1375.76 2027.84,1375.31 2029.9,1374.87 2031.95,1374.45 2034,1374.04 
  2036.05,1373.66 2038.11,1373.31 2040.16,1373 2042.21,1372.72 2044.26,1372.49 2046.32,1372.3 2048.37,1372.18 2050.42,1372.11 2052.47,1372.11 2054.52,1372.19 
  2056.58,1372.34 2058.63,1372.59 2060.68,1372.92 2062.73,1373.35 2064.79,1373.89 2066.84,1374.53 2068.89,1375.29 2070.94,1376.18 2072.99,1377.19 2075.05,1378.33 
  2077.1,1379.61 2079.15,1381.03 2081.2,1382.6 2083.26,1384.31 2085.31,1386.18 2087.36,1388.19 2089.41,1390.36 2091.47,1392.67 2093.52,1395.14 2095.57,1397.75 
  2097.62,1400.51 2099.67,1403.4 2101.73,1406.42 2103.78,1409.57 2105.83,1412.82 2107.88,1416.18 2109.94,1419.61 2111.99,1423.12 2114.04,1426.67 2116.09,1430.25 
  2118.15,1433.84 2120.2,1437.4 2122.25,1440.91 2124.3,1444.33 2126.35,1447.63 2128.41,1450.78 2130.46,1453.72 2132.51,1456.42 2134.56,1458.82 2136.62,1460.88 
  2138.67,1462.54 2140.72,1463.73 2142.77,1464.41 2144.82,1464.49 2146.88,1463.91 2148.93,1462.61 2150.98,1460.5 2153.03,1457.5 2155.09,1453.53 2157.14,1448.52 
  2159.19,1442.36 2161.24,1434.98 2163.3,1426.27 2165.35,1416.16 2167.4,1404.55 2169.45,1391.34 2171.5,1376.45 2173.56,1359.79 2175.61,1341.27 2177.66,1320.81 
  2179.71,1298.34 2181.77,1273.78 2183.82,1247.07 2185.87,1218.17 2187.92,1187.02 2189.98,1153.6 2192.03,1117.91 2194.08,1079.94 2196.13,1039.73 2198.18,997.325 
  2200.24,952.809 2202.29,906.291 2204.34,857.916 2206.39,807.867 2208.45,756.373 2210.5,703.708 2212.55,650.202 2214.6,596.244 2216.65,542.287 2218.71,488.859 
  2220.76,436.566 2222.81,386.103 2224.86,338.258 2226.92,293.928 2228.97,254.122 2231.02,219.976 2233.07,192.762 2235.13,173.899 2237.18,164.97 2239.23,167.732 
  2241.28,184.134 2243.33,216.328 2245.39,266.692 2247.44,337.842 2249.49,432.658 2251.54,554.297 2253.6,706.223 2255.65,892.223 2257.7,1116.44 2259.75,1383.38 
  
  "/>
<polygon clip-path="url(#clip5901)" points="
1685.51,451.424 2249.26,451.424 2249.26,209.504 1685.51,209.504 
  " fill="#ffffff" fill-rule="evenodd" fill-opacity="1"/>
<polyline clip-path="url(#clip5901)" style="stroke:#000000; stroke-width:4; stroke-opacity:1; fill:none" points="
  1685.51,451.424 2249.26,451.424 2249.26,209.504 1685.51,209.504 1685.51,451.424 
  "/>
<polyline clip-path="url(#clip5901)" style="stroke:#009af9; stroke-width:4; stroke-opacity:1; fill:none" points="
  1709.51,269.984 1853.51,269.984 
  "/>
<g clip-path="url(#clip5901)">
<text style="fill:#000000; fill-opacity:1; font-family:Arial,Helvetica Neue,Helvetica,sans-serif; font-size:48px; text-anchor:start;" transform="rotate(0, 1877.51, 287.484)" x="1877.51" y="287.484">Runge function</text>
</g>
<circle clip-path="url(#clip5901)" style="fill:#000000; stroke:none; fill-opacity:1" cx="1793.51" cy="330.464" r="25"/>
<circle clip-path="url(#clip5901)" style="fill:#e26f46; stroke:none; fill-opacity:1" cx="1793.51" cy="330.464" r="21"/>
<g clip-path="url(#clip5901)">
<text style="fill:#000000; fill-opacity:1; font-family:Arial,Helvetica Neue,Helvetica,sans-serif; font-size:48px; text-anchor:start;" transform="rotate(0, 1877.51, 347.964)" x="1877.51" y="347.964">Nodes</text>
</g>
<polyline clip-path="url(#clip5901)" style="stroke:#3da44d; stroke-width:4; stroke-opacity:1; fill:none" points="
  1709.51,390.944 1853.51,390.944 
  "/>
<g clip-path="url(#clip5901)">
<text style="fill:#000000; fill-opacity:1; font-family:Arial,Helvetica Neue,Helvetica,sans-serif; font-size:48px; text-anchor:start;" transform="rotate(0, 1877.51, 408.444)" x="1877.51" y="408.444">Intepolation</text>
</g>
</svg>
