<?xml version="1.0" encoding="utf-8"?>
<svg xmlns="http://www.w3.org/2000/svg" xmlns:xlink="http://www.w3.org/1999/xlink" width="600" height="400" viewBox="0 0 2400 1600">
<defs>
  <clipPath id="clip6700">
    <rect x="0" y="0" width="2000" height="2000"/>
  </clipPath>
</defs>
<defs>
  <clipPath id="clip6701">
    <rect x="0" y="0" width="2400" height="1600"/>
  </clipPath>
</defs>
<polygon clip-path="url(#clip6701)" points="
0,1600 2400,1600 2400,0 0,0 
  " fill="#ffffff" fill-rule="evenodd" fill-opacity="1"/>
<defs>
  <clipPath id="clip6702">
    <rect x="480" y="0" width="1681" height="1600"/>
  </clipPath>
</defs>
<polygon clip-path="url(#clip6701)" points="
174.775,1503.47 2321.26,1503.47 2321.26,125.984 174.775,125.984 
  " fill="#ffffff" fill-rule="evenodd" fill-opacity="1"/>
<defs>
  <clipPath id="clip6703">
    <rect x="174" y="125" width="2147" height="1378"/>
  </clipPath>
</defs>
<polyline clip-path="url(#clip6703)" style="stroke:#000000; stroke-width:2; stroke-opacity:0.1; fill:none" points="
  235.525,1503.47 235.525,125.984 
  "/>
<polyline clip-path="url(#clip6703)" style="stroke:#000000; stroke-width:2; stroke-opacity:0.1; fill:none" points="
  741.771,1503.47 741.771,125.984 
  "/>
<polyline clip-path="url(#clip6703)" style="stroke:#000000; stroke-width:2; stroke-opacity:0.1; fill:none" points="
  1248.02,1503.47 1248.02,125.984 
  "/>
<polyline clip-path="url(#clip6703)" style="stroke:#000000; stroke-width:2; stroke-opacity:0.1; fill:none" points="
  1754.26,1503.47 1754.26,125.984 
  "/>
<polyline clip-path="url(#clip6703)" style="stroke:#000000; stroke-width:2; stroke-opacity:0.1; fill:none" points="
  2260.51,1503.47 2260.51,125.984 
  "/>
<polyline clip-path="url(#clip6703)" style="stroke:#000000; stroke-width:2; stroke-opacity:0.1; fill:none" points="
  174.775,1397.42 2321.26,1397.42 
  "/>
<polyline clip-path="url(#clip6703)" style="stroke:#000000; stroke-width:2; stroke-opacity:0.1; fill:none" points="
  174.775,1009.21 2321.26,1009.21 
  "/>
<polyline clip-path="url(#clip6703)" style="stroke:#000000; stroke-width:2; stroke-opacity:0.1; fill:none" points="
  174.775,620.99 2321.26,620.99 
  "/>
<polyline clip-path="url(#clip6703)" style="stroke:#000000; stroke-width:2; stroke-opacity:0.1; fill:none" points="
  174.775,232.773 2321.26,232.773 
  "/>
<polyline clip-path="url(#clip6701)" style="stroke:#000000; stroke-width:4; stroke-opacity:1; fill:none" points="
  174.775,1503.47 2321.26,1503.47 
  "/>
<polyline clip-path="url(#clip6701)" style="stroke:#000000; stroke-width:4; stroke-opacity:1; fill:none" points="
  174.775,1503.47 174.775,125.984 
  "/>
<polyline clip-path="url(#clip6701)" style="stroke:#000000; stroke-width:4; stroke-opacity:1; fill:none" points="
  235.525,1503.47 235.525,1482.81 
  "/>
<polyline clip-path="url(#clip6701)" style="stroke:#000000; stroke-width:4; stroke-opacity:1; fill:none" points="
  741.771,1503.47 741.771,1482.81 
  "/>
<polyline clip-path="url(#clip6701)" style="stroke:#000000; stroke-width:4; stroke-opacity:1; fill:none" points="
  1248.02,1503.47 1248.02,1482.81 
  "/>
<polyline clip-path="url(#clip6701)" style="stroke:#000000; stroke-width:4; stroke-opacity:1; fill:none" points="
  1754.26,1503.47 1754.26,1482.81 
  "/>
<polyline clip-path="url(#clip6701)" style="stroke:#000000; stroke-width:4; stroke-opacity:1; fill:none" points="
  2260.51,1503.47 2260.51,1482.81 
  "/>
<polyline clip-path="url(#clip6701)" style="stroke:#000000; stroke-width:4; stroke-opacity:1; fill:none" points="
  174.775,1397.42 206.972,1397.42 
  "/>
<polyline clip-path="url(#clip6701)" style="stroke:#000000; stroke-width:4; stroke-opacity:1; fill:none" points="
  174.775,1009.21 206.972,1009.21 
  "/>
<polyline clip-path="url(#clip6701)" style="stroke:#000000; stroke-width:4; stroke-opacity:1; fill:none" points="
  174.775,620.99 206.972,620.99 
  "/>
<polyline clip-path="url(#clip6701)" style="stroke:#000000; stroke-width:4; stroke-opacity:1; fill:none" points="
  174.775,232.773 206.972,232.773 
  "/>
<g clip-path="url(#clip6701)">
<text style="fill:#000000; fill-opacity:1; font-family:Arial,Helvetica Neue,Helvetica,sans-serif; font-size:48px; text-anchor:middle;" transform="rotate(0, 235.525, 1557.47)" x="235.525" y="1557.47">-1.0</text>
</g>
<g clip-path="url(#clip6701)">
<text style="fill:#000000; fill-opacity:1; font-family:Arial,Helvetica Neue,Helvetica,sans-serif; font-size:48px; text-anchor:middle;" transform="rotate(0, 741.771, 1557.47)" x="741.771" y="1557.47">-0.5</text>
</g>
<g clip-path="url(#clip6701)">
<text style="fill:#000000; fill-opacity:1; font-family:Arial,Helvetica Neue,Helvetica,sans-serif; font-size:48px; text-anchor:middle;" transform="rotate(0, 1248.02, 1557.47)" x="1248.02" y="1557.47">0.0</text>
</g>
<g clip-path="url(#clip6701)">
<text style="fill:#000000; fill-opacity:1; font-family:Arial,Helvetica Neue,Helvetica,sans-serif; font-size:48px; text-anchor:middle;" transform="rotate(0, 1754.26, 1557.47)" x="1754.26" y="1557.47">0.5</text>
</g>
<g clip-path="url(#clip6701)">
<text style="fill:#000000; fill-opacity:1; font-family:Arial,Helvetica Neue,Helvetica,sans-serif; font-size:48px; text-anchor:middle;" transform="rotate(0, 2260.51, 1557.47)" x="2260.51" y="1557.47">1.0</text>
</g>
<g clip-path="url(#clip6701)">
<text style="fill:#000000; fill-opacity:1; font-family:Arial,Helvetica Neue,Helvetica,sans-serif; font-size:48px; text-anchor:end;" transform="rotate(0, 150.775, 1414.92)" x="150.775" y="1414.92">0</text>
</g>
<g clip-path="url(#clip6701)">
<text style="fill:#000000; fill-opacity:1; font-family:Arial,Helvetica Neue,Helvetica,sans-serif; font-size:48px; text-anchor:end;" transform="rotate(0, 150.775, 1026.71)" x="150.775" y="1026.71">50</text>
</g>
<g clip-path="url(#clip6701)">
<text style="fill:#000000; fill-opacity:1; font-family:Arial,Helvetica Neue,Helvetica,sans-serif; font-size:48px; text-anchor:end;" transform="rotate(0, 150.775, 638.49)" x="150.775" y="638.49">100</text>
</g>
<g clip-path="url(#clip6701)">
<text style="fill:#000000; fill-opacity:1; font-family:Arial,Helvetica Neue,Helvetica,sans-serif; font-size:48px; text-anchor:end;" transform="rotate(0, 150.775, 250.273)" x="150.775" y="250.273">150</text>
</g>
<g clip-path="url(#clip6701)">
<text style="fill:#000000; fill-opacity:1; font-family:Arial,Helvetica Neue,Helvetica,sans-serif; font-size:84px; text-anchor:middle;" transform="rotate(0, 1248.02, 73.2)" x="1248.02" y="73.2">Runge&apos;s phenomenon (Nodes = 28)</text>
</g>
<polyline clip-path="url(#clip6703)" style="stroke:#009af9; stroke-width:4; stroke-opacity:1; fill:none" points="
  235.525,1397.13 237.552,1397.12 239.579,1397.12 241.606,1397.12 243.633,1397.12 245.66,1397.12 247.687,1397.12 249.714,1397.12 251.741,1397.12 253.768,1397.11 
  255.795,1397.11 257.822,1397.11 259.849,1397.11 261.876,1397.11 263.903,1397.11 265.93,1397.11 267.957,1397.11 269.984,1397.1 272.011,1397.1 274.038,1397.1 
  276.065,1397.1 278.092,1397.1 280.119,1397.1 282.146,1397.1 284.173,1397.1 286.2,1397.09 288.227,1397.09 290.254,1397.09 292.281,1397.09 294.308,1397.09 
  296.335,1397.09 298.362,1397.09 300.389,1397.08 302.416,1397.08 304.443,1397.08 306.47,1397.08 308.497,1397.08 310.524,1397.08 312.551,1397.08 314.578,1397.07 
  316.605,1397.07 318.632,1397.07 320.659,1397.07 322.686,1397.07 324.713,1397.07 326.74,1397.07 328.767,1397.06 330.794,1397.06 332.821,1397.06 334.848,1397.06 
  336.875,1397.06 338.902,1397.06 340.929,1397.06 342.956,1397.05 344.983,1397.05 347.01,1397.05 349.037,1397.05 351.064,1397.05 353.091,1397.05 355.119,1397.04 
  357.146,1397.04 359.173,1397.04 361.2,1397.04 363.227,1397.04 365.254,1397.04 367.281,1397.03 369.308,1397.03 371.335,1397.03 373.362,1397.03 375.389,1397.03 
  377.416,1397.03 379.443,1397.02 381.47,1397.02 383.497,1397.02 385.524,1397.02 387.551,1397.02 389.578,1397.01 391.605,1397.01 393.632,1397.01 395.659,1397.01 
  397.686,1397.01 399.713,1397.01 401.74,1397 403.767,1397 405.794,1397 407.821,1397 409.848,1397 411.875,1396.99 413.902,1396.99 415.929,1396.99 
  417.956,1396.99 419.983,1396.99 422.01,1396.98 424.037,1396.98 426.064,1396.98 428.091,1396.98 430.118,1396.98 432.145,1396.97 434.172,1396.97 436.199,1396.97 
  438.226,1396.97 440.253,1396.96 442.28,1396.96 444.307,1396.96 446.334,1396.96 448.361,1396.96 450.388,1396.95 452.415,1396.95 454.442,1396.95 456.469,1396.95 
  458.496,1396.94 460.523,1396.94 462.55,1396.94 464.577,1396.94 466.604,1396.94 468.631,1396.93 470.658,1396.93 472.685,1396.93 474.712,1396.93 476.739,1396.92 
  478.766,1396.92 480.793,1396.92 482.82,1396.92 484.847,1396.91 486.874,1396.91 488.901,1396.91 490.928,1396.91 492.955,1396.9 494.982,1396.9 497.009,1396.9 
  499.036,1396.89 501.063,1396.89 503.09,1396.89 505.117,1396.89 507.144,1396.88 509.171,1396.88 511.198,1396.88 513.225,1396.88 515.253,1396.87 517.28,1396.87 
  519.307,1396.87 521.334,1396.86 523.361,1396.86 525.388,1396.86 527.415,1396.86 529.442,1396.85 531.469,1396.85 533.496,1396.85 535.523,1396.84 537.55,1396.84 
  539.577,1396.84 541.604,1396.83 543.631,1396.83 545.658,1396.83 547.685,1396.82 549.712,1396.82 551.739,1396.82 553.766,1396.82 555.793,1396.81 557.82,1396.81 
  559.847,1396.81 561.874,1396.8 563.901,1396.8 565.928,1396.79 567.955,1396.79 569.982,1396.79 572.009,1396.78 574.036,1396.78 576.063,1396.78 578.09,1396.77 
  580.117,1396.77 582.144,1396.77 584.171,1396.76 586.198,1396.76 588.225,1396.76 590.252,1396.75 592.279,1396.75 594.306,1396.74 596.333,1396.74 598.36,1396.74 
  600.387,1396.73 602.414,1396.73 604.441,1396.72 606.468,1396.72 608.495,1396.72 610.522,1396.71 612.549,1396.71 614.576,1396.7 616.603,1396.7 618.63,1396.7 
  620.657,1396.69 622.684,1396.69 624.711,1396.68 626.738,1396.68 628.765,1396.67 630.792,1396.67 632.819,1396.66 634.846,1396.66 636.873,1396.66 638.9,1396.65 
  640.927,1396.65 642.954,1396.64 644.981,1396.64 647.008,1396.63 649.035,1396.63 651.062,1396.62 653.089,1396.62 655.116,1396.61 657.143,1396.61 659.17,1396.6 
  661.197,1396.6 663.224,1396.59 665.251,1396.59 667.278,1396.58 669.305,1396.58 671.332,1396.57 673.359,1396.57 675.386,1396.56 677.414,1396.56 679.441,1396.55 
  681.468,1396.54 683.495,1396.54 685.522,1396.53 687.549,1396.53 689.576,1396.52 691.603,1396.52 693.63,1396.51 695.657,1396.5 697.684,1396.5 699.711,1396.49 
  701.738,1396.49 703.765,1396.48 705.792,1396.47 707.819,1396.47 709.846,1396.46 711.873,1396.45 713.9,1396.45 715.927,1396.44 717.954,1396.44 719.981,1396.43 
  722.008,1396.42 724.035,1396.41 726.062,1396.41 728.089,1396.4 730.116,1396.39 732.143,1396.39 734.17,1396.38 736.197,1396.37 738.224,1396.37 740.251,1396.36 
  742.278,1396.35 744.305,1396.34 746.332,1396.34 748.359,1396.33 750.386,1396.32 752.413,1396.31 754.44,1396.31 756.467,1396.3 758.494,1396.29 760.521,1396.28 
  762.548,1396.27 764.575,1396.26 766.602,1396.26 768.629,1396.25 770.656,1396.24 772.683,1396.23 774.71,1396.22 776.737,1396.21 778.764,1396.2 780.791,1396.2 
  782.818,1396.19 784.845,1396.18 786.872,1396.17 788.899,1396.16 790.926,1396.15 792.953,1396.14 794.98,1396.13 797.007,1396.12 799.034,1396.11 801.061,1396.1 
  803.088,1396.09 805.115,1396.08 807.142,1396.07 809.169,1396.06 811.196,1396.05 813.223,1396.04 815.25,1396.03 817.277,1396.02 819.304,1396.01 821.331,1396 
  823.358,1395.99 825.385,1395.97 827.412,1395.96 829.439,1395.95 831.466,1395.94 833.493,1395.93 835.52,1395.92 837.547,1395.9 839.575,1395.89 841.602,1395.88 
  843.629,1395.87 845.656,1395.85 847.683,1395.84 849.71,1395.83 851.737,1395.82 853.764,1395.8 855.791,1395.79 857.818,1395.78 859.845,1395.76 861.872,1395.75 
  863.899,1395.74 865.926,1395.72 867.953,1395.71 869.98,1395.69 872.007,1395.68 874.034,1395.66 876.061,1395.65 878.088,1395.63 880.115,1395.62 882.142,1395.6 
  884.169,1395.59 886.196,1395.57 888.223,1395.56 890.25,1395.54 892.277,1395.52 894.304,1395.51 896.331,1395.49 898.358,1395.47 900.385,1395.46 902.412,1395.44 
  904.439,1395.42 906.466,1395.4 908.493,1395.39 910.52,1395.37 912.547,1395.35 914.574,1395.33 916.601,1395.31 918.628,1395.29 920.655,1395.28 922.682,1395.26 
  924.709,1395.24 926.736,1395.22 928.763,1395.2 930.79,1395.18 932.817,1395.16 934.844,1395.13 936.871,1395.11 938.898,1395.09 940.925,1395.07 942.952,1395.05 
  944.979,1395.03 947.006,1395 949.033,1394.98 951.06,1394.96 953.087,1394.94 955.114,1394.91 957.141,1394.89 959.168,1394.87 961.195,1394.84 963.222,1394.82 
  965.249,1394.79 967.276,1394.77 969.303,1394.74 971.33,1394.72 973.357,1394.69 975.384,1394.66 977.411,1394.64 979.438,1394.61 981.465,1394.58 983.492,1394.56 
  985.519,1394.53 987.546,1394.5 989.573,1394.47 991.6,1394.44 993.627,1394.41 995.654,1394.38 997.681,1394.35 999.708,1394.32 1001.74,1394.29 1003.76,1394.26 
  1005.79,1394.23 1007.82,1394.2 1009.84,1394.17 1011.87,1394.13 1013.9,1394.1 1015.92,1394.07 1017.95,1394.03 1019.98,1394 1022.01,1393.97 1024.03,1393.93 
  1026.06,1393.9 1028.09,1393.86 1030.11,1393.83 1032.14,1393.79 1034.17,1393.75 1036.19,1393.72 1038.22,1393.68 1040.25,1393.64 1042.28,1393.6 1044.3,1393.56 
  1046.33,1393.53 1048.36,1393.49 1050.38,1393.45 1052.41,1393.41 1054.44,1393.37 1056.46,1393.33 1058.49,1393.29 1060.52,1393.24 1062.55,1393.2 1064.57,1393.16 
  1066.6,1393.12 1068.63,1393.07 1070.65,1393.03 1072.68,1392.99 1074.71,1392.94 1076.73,1392.9 1078.76,1392.85 1080.79,1392.81 1082.82,1392.76 1084.84,1392.72 
  1086.87,1392.67 1088.9,1392.62 1090.92,1392.58 1092.95,1392.53 1094.98,1392.48 1097.01,1392.43 1099.03,1392.39 1101.06,1392.34 1103.09,1392.29 1105.11,1392.24 
  1107.14,1392.19 1109.17,1392.14 1111.19,1392.09 1113.22,1392.04 1115.25,1391.99 1117.28,1391.94 1119.3,1391.89 1121.33,1391.84 1123.36,1391.79 1125.38,1391.74 
  1127.41,1391.69 1129.44,1391.64 1131.46,1391.59 1133.49,1391.54 1135.52,1391.49 1137.55,1391.44 1139.57,1391.39 1141.6,1391.34 1143.63,1391.29 1145.65,1391.24 
  1147.68,1391.19 1149.71,1391.14 1151.73,1391.09 1153.76,1391.04 1155.79,1390.99 1157.82,1390.95 1159.84,1390.9 1161.87,1390.85 1163.9,1390.8 1165.92,1390.76 
  1167.95,1390.71 1169.98,1390.66 1172,1390.62 1174.03,1390.57 1176.06,1390.53 1178.09,1390.49 1180.11,1390.44 1182.14,1390.4 1184.17,1390.36 1186.19,1390.32 
  1188.22,1390.28 1190.25,1390.24 1192.27,1390.21 1194.3,1390.17 1196.33,1390.13 1198.36,1390.1 1200.38,1390.07 1202.41,1390.03 1204.44,1390 1206.46,1389.97 
  1208.49,1389.94 1210.52,1389.92 1212.54,1389.89 1214.57,1389.87 1216.6,1389.84 1218.63,1389.82 1220.65,1389.8 1222.68,1389.78 1224.71,1389.76 1226.73,1389.74 
  1228.76,1389.73 1230.79,1389.72 1232.81,1389.7 1234.84,1389.69 1236.87,1389.68 1238.9,1389.68 1240.92,1389.67 1242.95,1389.66 1244.98,1389.66 1247,1389.66 
  1249.03,1389.66 1251.06,1389.66 1253.09,1389.66 1255.11,1389.67 1257.14,1389.68 1259.17,1389.68 1261.19,1389.69 1263.22,1389.7 1265.25,1389.72 1267.27,1389.73 
  1269.3,1389.74 1271.33,1389.76 1273.36,1389.78 1275.38,1389.8 1277.41,1389.82 1279.44,1389.84 1281.46,1389.87 1283.49,1389.89 1285.52,1389.92 1287.54,1389.94 
  1289.57,1389.97 1291.6,1390 1293.63,1390.03 1295.65,1390.07 1297.68,1390.1 1299.71,1390.13 1301.73,1390.17 1303.76,1390.21 1305.79,1390.24 1307.81,1390.28 
  1309.84,1390.32 1311.87,1390.36 1313.9,1390.4 1315.92,1390.44 1317.95,1390.49 1319.98,1390.53 1322,1390.57 1324.03,1390.62 1326.06,1390.66 1328.08,1390.71 
  1330.11,1390.76 1332.14,1390.8 1334.17,1390.85 1336.19,1390.9 1338.22,1390.95 1340.25,1390.99 1342.27,1391.04 1344.3,1391.09 1346.33,1391.14 1348.35,1391.19 
  1350.38,1391.24 1352.41,1391.29 1354.44,1391.34 1356.46,1391.39 1358.49,1391.44 1360.52,1391.49 1362.54,1391.54 1364.57,1391.59 1366.6,1391.64 1368.62,1391.69 
  1370.65,1391.74 1372.68,1391.79 1374.71,1391.84 1376.73,1391.89 1378.76,1391.94 1380.79,1391.99 1382.81,1392.04 1384.84,1392.09 1386.87,1392.14 1388.89,1392.19 
  1390.92,1392.24 1392.95,1392.29 1394.98,1392.34 1397,1392.39 1399.03,1392.43 1401.06,1392.48 1403.08,1392.53 1405.11,1392.58 1407.14,1392.62 1409.17,1392.67 
  1411.19,1392.72 1413.22,1392.76 1415.25,1392.81 1417.27,1392.85 1419.3,1392.9 1421.33,1392.94 1423.35,1392.99 1425.38,1393.03 1427.41,1393.07 1429.44,1393.12 
  1431.46,1393.16 1433.49,1393.2 1435.52,1393.24 1437.54,1393.29 1439.57,1393.33 1441.6,1393.37 1443.62,1393.41 1445.65,1393.45 1447.68,1393.49 1449.71,1393.53 
  1451.73,1393.56 1453.76,1393.6 1455.79,1393.64 1457.81,1393.68 1459.84,1393.72 1461.87,1393.75 1463.89,1393.79 1465.92,1393.83 1467.95,1393.86 1469.98,1393.9 
  1472,1393.93 1474.03,1393.97 1476.06,1394 1478.08,1394.03 1480.11,1394.07 1482.14,1394.1 1484.16,1394.13 1486.19,1394.17 1488.22,1394.2 1490.25,1394.23 
  1492.27,1394.26 1494.3,1394.29 1496.33,1394.32 1498.35,1394.35 1500.38,1394.38 1502.41,1394.41 1504.43,1394.44 1506.46,1394.47 1508.49,1394.5 1510.52,1394.53 
  1512.54,1394.56 1514.57,1394.58 1516.6,1394.61 1518.62,1394.64 1520.65,1394.66 1522.68,1394.69 1524.7,1394.72 1526.73,1394.74 1528.76,1394.77 1530.79,1394.79 
  1532.81,1394.82 1534.84,1394.84 1536.87,1394.87 1538.89,1394.89 1540.92,1394.91 1542.95,1394.94 1544.97,1394.96 1547,1394.98 1549.03,1395 1551.06,1395.03 
  1553.08,1395.05 1555.11,1395.07 1557.14,1395.09 1559.16,1395.11 1561.19,1395.13 1563.22,1395.16 1565.24,1395.18 1567.27,1395.2 1569.3,1395.22 1571.33,1395.24 
  1573.35,1395.26 1575.38,1395.28 1577.41,1395.29 1579.43,1395.31 1581.46,1395.33 1583.49,1395.35 1585.52,1395.37 1587.54,1395.39 1589.57,1395.4 1591.6,1395.42 
  1593.62,1395.44 1595.65,1395.46 1597.68,1395.47 1599.7,1395.49 1601.73,1395.51 1603.76,1395.52 1605.79,1395.54 1607.81,1395.56 1609.84,1395.57 1611.87,1395.59 
  1613.89,1395.6 1615.92,1395.62 1617.95,1395.63 1619.97,1395.65 1622,1395.66 1624.03,1395.68 1626.06,1395.69 1628.08,1395.71 1630.11,1395.72 1632.14,1395.74 
  1634.16,1395.75 1636.19,1395.76 1638.22,1395.78 1640.24,1395.79 1642.27,1395.8 1644.3,1395.82 1646.33,1395.83 1648.35,1395.84 1650.38,1395.85 1652.41,1395.87 
  1654.43,1395.88 1656.46,1395.89 1658.49,1395.9 1660.51,1395.92 1662.54,1395.93 1664.57,1395.94 1666.6,1395.95 1668.62,1395.96 1670.65,1395.97 1672.68,1395.99 
  1674.7,1396 1676.73,1396.01 1678.76,1396.02 1680.78,1396.03 1682.81,1396.04 1684.84,1396.05 1686.87,1396.06 1688.89,1396.07 1690.92,1396.08 1692.95,1396.09 
  1694.97,1396.1 1697,1396.11 1699.03,1396.12 1701.05,1396.13 1703.08,1396.14 1705.11,1396.15 1707.14,1396.16 1709.16,1396.17 1711.19,1396.18 1713.22,1396.19 
  1715.24,1396.2 1717.27,1396.2 1719.3,1396.21 1721.32,1396.22 1723.35,1396.23 1725.38,1396.24 1727.41,1396.25 1729.43,1396.26 1731.46,1396.26 1733.49,1396.27 
  1735.51,1396.28 1737.54,1396.29 1739.57,1396.3 1741.6,1396.31 1743.62,1396.31 1745.65,1396.32 1747.68,1396.33 1749.7,1396.34 1751.73,1396.34 1753.76,1396.35 
  1755.78,1396.36 1757.81,1396.37 1759.84,1396.37 1761.87,1396.38 1763.89,1396.39 1765.92,1396.39 1767.95,1396.4 1769.97,1396.41 1772,1396.41 1774.03,1396.42 
  1776.05,1396.43 1778.08,1396.44 1780.11,1396.44 1782.14,1396.45 1784.16,1396.45 1786.19,1396.46 1788.22,1396.47 1790.24,1396.47 1792.27,1396.48 1794.3,1396.49 
  1796.32,1396.49 1798.35,1396.5 1800.38,1396.5 1802.41,1396.51 1804.43,1396.52 1806.46,1396.52 1808.49,1396.53 1810.51,1396.53 1812.54,1396.54 1814.57,1396.54 
  1816.59,1396.55 1818.62,1396.56 1820.65,1396.56 1822.68,1396.57 1824.7,1396.57 1826.73,1396.58 1828.76,1396.58 1830.78,1396.59 1832.81,1396.59 1834.84,1396.6 
  1836.86,1396.6 1838.89,1396.61 1840.92,1396.61 1842.95,1396.62 1844.97,1396.62 1847,1396.63 1849.03,1396.63 1851.05,1396.64 1853.08,1396.64 1855.11,1396.65 
  1857.13,1396.65 1859.16,1396.66 1861.19,1396.66 1863.22,1396.66 1865.24,1396.67 1867.27,1396.67 1869.3,1396.68 1871.32,1396.68 1873.35,1396.69 1875.38,1396.69 
  1877.4,1396.7 1879.43,1396.7 1881.46,1396.7 1883.49,1396.71 1885.51,1396.71 1887.54,1396.72 1889.57,1396.72 1891.59,1396.72 1893.62,1396.73 1895.65,1396.73 
  1897.68,1396.74 1899.7,1396.74 1901.73,1396.74 1903.76,1396.75 1905.78,1396.75 1907.81,1396.76 1909.84,1396.76 1911.86,1396.76 1913.89,1396.77 1915.92,1396.77 
  1917.95,1396.77 1919.97,1396.78 1922,1396.78 1924.03,1396.78 1926.05,1396.79 1928.08,1396.79 1930.11,1396.79 1932.13,1396.8 1934.16,1396.8 1936.19,1396.81 
  1938.22,1396.81 1940.24,1396.81 1942.27,1396.82 1944.3,1396.82 1946.32,1396.82 1948.35,1396.82 1950.38,1396.83 1952.4,1396.83 1954.43,1396.83 1956.46,1396.84 
  1958.49,1396.84 1960.51,1396.84 1962.54,1396.85 1964.57,1396.85 1966.59,1396.85 1968.62,1396.86 1970.65,1396.86 1972.67,1396.86 1974.7,1396.86 1976.73,1396.87 
  1978.76,1396.87 1980.78,1396.87 1982.81,1396.88 1984.84,1396.88 1986.86,1396.88 1988.89,1396.88 1990.92,1396.89 1992.94,1396.89 1994.97,1396.89 1997,1396.89 
  1999.03,1396.9 2001.05,1396.9 2003.08,1396.9 2005.11,1396.91 2007.13,1396.91 2009.16,1396.91 2011.19,1396.91 2013.21,1396.92 2015.24,1396.92 2017.27,1396.92 
  2019.3,1396.92 2021.32,1396.93 2023.35,1396.93 2025.38,1396.93 2027.4,1396.93 2029.43,1396.94 2031.46,1396.94 2033.48,1396.94 2035.51,1396.94 2037.54,1396.94 
  2039.57,1396.95 2041.59,1396.95 2043.62,1396.95 2045.65,1396.95 2047.67,1396.96 2049.7,1396.96 2051.73,1396.96 2053.76,1396.96 2055.78,1396.96 2057.81,1396.97 
  2059.84,1396.97 2061.86,1396.97 2063.89,1396.97 2065.92,1396.98 2067.94,1396.98 2069.97,1396.98 2072,1396.98 2074.03,1396.98 2076.05,1396.99 2078.08,1396.99 
  2080.11,1396.99 2082.13,1396.99 2084.16,1396.99 2086.19,1397 2088.21,1397 2090.24,1397 2092.27,1397 2094.3,1397 2096.32,1397.01 2098.35,1397.01 
  2100.38,1397.01 2102.4,1397.01 2104.43,1397.01 2106.46,1397.01 2108.48,1397.02 2110.51,1397.02 2112.54,1397.02 2114.57,1397.02 2116.59,1397.02 2118.62,1397.03 
  2120.65,1397.03 2122.67,1397.03 2124.7,1397.03 2126.73,1397.03 2128.75,1397.03 2130.78,1397.04 2132.81,1397.04 2134.84,1397.04 2136.86,1397.04 2138.89,1397.04 
  2140.92,1397.04 2142.94,1397.05 2144.97,1397.05 2147,1397.05 2149.02,1397.05 2151.05,1397.05 2153.08,1397.05 2155.11,1397.06 2157.13,1397.06 2159.16,1397.06 
  2161.19,1397.06 2163.21,1397.06 2165.24,1397.06 2167.27,1397.06 2169.29,1397.07 2171.32,1397.07 2173.35,1397.07 2175.38,1397.07 2177.4,1397.07 2179.43,1397.07 
  2181.46,1397.07 2183.48,1397.08 2185.51,1397.08 2187.54,1397.08 2189.56,1397.08 2191.59,1397.08 2193.62,1397.08 2195.65,1397.08 2197.67,1397.09 2199.7,1397.09 
  2201.73,1397.09 2203.75,1397.09 2205.78,1397.09 2207.81,1397.09 2209.83,1397.09 2211.86,1397.1 2213.89,1397.1 2215.92,1397.1 2217.94,1397.1 2219.97,1397.1 
  2222,1397.1 2224.02,1397.1 2226.05,1397.1 2228.08,1397.11 2230.11,1397.11 2232.13,1397.11 2234.16,1397.11 2236.19,1397.11 2238.21,1397.11 2240.24,1397.11 
  2242.27,1397.11 2244.29,1397.12 2246.32,1397.12 2248.35,1397.12 2250.38,1397.12 2252.4,1397.12 2254.43,1397.12 2256.46,1397.12 2258.48,1397.12 2260.51,1397.13 
  
  "/>
<circle clip-path="url(#clip6703)" style="fill:#000000; stroke:none; fill-opacity:1" cx="235.525" cy="1397.13" r="18"/>
<circle clip-path="url(#clip6703)" style="fill:#e26f46; stroke:none; fill-opacity:1" cx="235.525" cy="1397.13" r="14"/>
<circle clip-path="url(#clip6703)" style="fill:#000000; stroke:none; fill-opacity:1" cx="310.524" cy="1397.08" r="18"/>
<circle clip-path="url(#clip6703)" style="fill:#e26f46; stroke:none; fill-opacity:1" cx="310.524" cy="1397.08" r="14"/>
<circle clip-path="url(#clip6703)" style="fill:#000000; stroke:none; fill-opacity:1" cx="385.524" cy="1397.02" r="18"/>
<circle clip-path="url(#clip6703)" style="fill:#e26f46; stroke:none; fill-opacity:1" cx="385.524" cy="1397.02" r="14"/>
<circle clip-path="url(#clip6703)" style="fill:#000000; stroke:none; fill-opacity:1" cx="460.523" cy="1396.94" r="18"/>
<circle clip-path="url(#clip6703)" style="fill:#e26f46; stroke:none; fill-opacity:1" cx="460.523" cy="1396.94" r="14"/>
<circle clip-path="url(#clip6703)" style="fill:#000000; stroke:none; fill-opacity:1" cx="535.523" cy="1396.84" r="18"/>
<circle clip-path="url(#clip6703)" style="fill:#e26f46; stroke:none; fill-opacity:1" cx="535.523" cy="1396.84" r="14"/>
<circle clip-path="url(#clip6703)" style="fill:#000000; stroke:none; fill-opacity:1" cx="610.522" cy="1396.71" r="18"/>
<circle clip-path="url(#clip6703)" style="fill:#e26f46; stroke:none; fill-opacity:1" cx="610.522" cy="1396.71" r="14"/>
<circle clip-path="url(#clip6703)" style="fill:#000000; stroke:none; fill-opacity:1" cx="685.522" cy="1396.53" r="18"/>
<circle clip-path="url(#clip6703)" style="fill:#e26f46; stroke:none; fill-opacity:1" cx="685.522" cy="1396.53" r="14"/>
<circle clip-path="url(#clip6703)" style="fill:#000000; stroke:none; fill-opacity:1" cx="760.521" cy="1396.28" r="18"/>
<circle clip-path="url(#clip6703)" style="fill:#e26f46; stroke:none; fill-opacity:1" cx="760.521" cy="1396.28" r="14"/>
<circle clip-path="url(#clip6703)" style="fill:#000000; stroke:none; fill-opacity:1" cx="835.52" cy="1395.92" r="18"/>
<circle clip-path="url(#clip6703)" style="fill:#e26f46; stroke:none; fill-opacity:1" cx="835.52" cy="1395.92" r="14"/>
<circle clip-path="url(#clip6703)" style="fill:#000000; stroke:none; fill-opacity:1" cx="910.52" cy="1395.37" r="18"/>
<circle clip-path="url(#clip6703)" style="fill:#e26f46; stroke:none; fill-opacity:1" cx="910.52" cy="1395.37" r="14"/>
<circle clip-path="url(#clip6703)" style="fill:#000000; stroke:none; fill-opacity:1" cx="985.519" cy="1394.53" r="18"/>
<circle clip-path="url(#clip6703)" style="fill:#e26f46; stroke:none; fill-opacity:1" cx="985.519" cy="1394.53" r="14"/>
<circle clip-path="url(#clip6703)" style="fill:#000000; stroke:none; fill-opacity:1" cx="1060.52" cy="1393.24" r="18"/>
<circle clip-path="url(#clip6703)" style="fill:#e26f46; stroke:none; fill-opacity:1" cx="1060.52" cy="1393.24" r="14"/>
<circle clip-path="url(#clip6703)" style="fill:#000000; stroke:none; fill-opacity:1" cx="1135.52" cy="1391.49" r="18"/>
<circle clip-path="url(#clip6703)" style="fill:#e26f46; stroke:none; fill-opacity:1" cx="1135.52" cy="1391.49" r="14"/>
<circle clip-path="url(#clip6703)" style="fill:#000000; stroke:none; fill-opacity:1" cx="1210.52" cy="1389.92" r="18"/>
<circle clip-path="url(#clip6703)" style="fill:#e26f46; stroke:none; fill-opacity:1" cx="1210.52" cy="1389.92" r="14"/>
<circle clip-path="url(#clip6703)" style="fill:#000000; stroke:none; fill-opacity:1" cx="1285.52" cy="1389.92" r="18"/>
<circle clip-path="url(#clip6703)" style="fill:#e26f46; stroke:none; fill-opacity:1" cx="1285.52" cy="1389.92" r="14"/>
<circle clip-path="url(#clip6703)" style="fill:#000000; stroke:none; fill-opacity:1" cx="1360.52" cy="1391.49" r="18"/>
<circle clip-path="url(#clip6703)" style="fill:#e26f46; stroke:none; fill-opacity:1" cx="1360.52" cy="1391.49" r="14"/>
<circle clip-path="url(#clip6703)" style="fill:#000000; stroke:none; fill-opacity:1" cx="1435.52" cy="1393.24" r="18"/>
<circle clip-path="url(#clip6703)" style="fill:#e26f46; stroke:none; fill-opacity:1" cx="1435.52" cy="1393.24" r="14"/>
<circle clip-path="url(#clip6703)" style="fill:#000000; stroke:none; fill-opacity:1" cx="1510.52" cy="1394.53" r="18"/>
<circle clip-path="url(#clip6703)" style="fill:#e26f46; stroke:none; fill-opacity:1" cx="1510.52" cy="1394.53" r="14"/>
<circle clip-path="url(#clip6703)" style="fill:#000000; stroke:none; fill-opacity:1" cx="1585.52" cy="1395.37" r="18"/>
<circle clip-path="url(#clip6703)" style="fill:#e26f46; stroke:none; fill-opacity:1" cx="1585.52" cy="1395.37" r="14"/>
<circle clip-path="url(#clip6703)" style="fill:#000000; stroke:none; fill-opacity:1" cx="1660.51" cy="1395.92" r="18"/>
<circle clip-path="url(#clip6703)" style="fill:#e26f46; stroke:none; fill-opacity:1" cx="1660.51" cy="1395.92" r="14"/>
<circle clip-path="url(#clip6703)" style="fill:#000000; stroke:none; fill-opacity:1" cx="1735.51" cy="1396.28" r="18"/>
<circle clip-path="url(#clip6703)" style="fill:#e26f46; stroke:none; fill-opacity:1" cx="1735.51" cy="1396.28" r="14"/>
<circle clip-path="url(#clip6703)" style="fill:#000000; stroke:none; fill-opacity:1" cx="1810.51" cy="1396.53" r="18"/>
<circle clip-path="url(#clip6703)" style="fill:#e26f46; stroke:none; fill-opacity:1" cx="1810.51" cy="1396.53" r="14"/>
<circle clip-path="url(#clip6703)" style="fill:#000000; stroke:none; fill-opacity:1" cx="1885.51" cy="1396.71" r="18"/>
<circle clip-path="url(#clip6703)" style="fill:#e26f46; stroke:none; fill-opacity:1" cx="1885.51" cy="1396.71" r="14"/>
<circle clip-path="url(#clip6703)" style="fill:#000000; stroke:none; fill-opacity:1" cx="1960.51" cy="1396.84" r="18"/>
<circle clip-path="url(#clip6703)" style="fill:#e26f46; stroke:none; fill-opacity:1" cx="1960.51" cy="1396.84" r="14"/>
<circle clip-path="url(#clip6703)" style="fill:#000000; stroke:none; fill-opacity:1" cx="2035.51" cy="1396.94" r="18"/>
<circle clip-path="url(#clip6703)" style="fill:#e26f46; stroke:none; fill-opacity:1" cx="2035.51" cy="1396.94" r="14"/>
<circle clip-path="url(#clip6703)" style="fill:#000000; stroke:none; fill-opacity:1" cx="2110.51" cy="1397.02" r="18"/>
<circle clip-path="url(#clip6703)" style="fill:#e26f46; stroke:none; fill-opacity:1" cx="2110.51" cy="1397.02" r="14"/>
<circle clip-path="url(#clip6703)" style="fill:#000000; stroke:none; fill-opacity:1" cx="2185.51" cy="1397.08" r="18"/>
<circle clip-path="url(#clip6703)" style="fill:#e26f46; stroke:none; fill-opacity:1" cx="2185.51" cy="1397.08" r="14"/>
<circle clip-path="url(#clip6703)" style="fill:#000000; stroke:none; fill-opacity:1" cx="2260.51" cy="1397.13" r="18"/>
<circle clip-path="url(#clip6703)" style="fill:#e26f46; stroke:none; fill-opacity:1" cx="2260.51" cy="1397.13" r="14"/>
<polyline clip-path="url(#clip6703)" style="stroke:#3da44d; stroke-width:4; stroke-opacity:1; fill:none" points="
  235.525,1397.13 237.552,1072.23 239.579,811.002 241.606,605.101 243.633,447.05 245.66,330.171 247.687,248.518 249.714,196.803 251.741,170.338 253.768,164.977 
  255.795,177.066 257.822,203.394 259.849,241.148 261.876,287.877 263.903,341.453 265.93,400.037 267.957,462.049 269.984,526.141 272.011,591.172 274.038,656.182 
  276.065,720.376 278.092,783.101 280.119,843.828 282.146,902.142 284.173,957.722 286.2,1010.33 288.227,1059.81 290.254,1106.05 292.281,1149.01 294.308,1188.68 
  296.335,1225.09 298.362,1258.32 300.389,1288.46 302.416,1315.61 304.443,1339.9 306.47,1361.47 308.497,1380.48 310.524,1397.08 312.551,1411.42 314.578,1423.66 
  316.605,1433.97 318.632,1442.5 320.659,1449.39 322.686,1454.81 324.713,1458.89 326.74,1461.78 328.767,1463.59 330.794,1464.45 332.821,1464.49 334.848,1463.8 
  336.875,1462.49 338.902,1460.66 340.929,1458.39 342.956,1455.76 344.983,1452.84 347.01,1449.69 349.037,1446.39 351.064,1442.98 353.091,1439.51 355.119,1436.02 
  357.146,1432.55 359.173,1429.13 361.2,1425.78 363.227,1422.54 365.254,1419.42 367.281,1416.44 369.308,1413.61 371.335,1410.94 373.362,1408.43 375.389,1406.1 
  377.416,1403.94 379.443,1401.95 381.47,1400.14 383.497,1398.49 385.524,1397.02 387.551,1395.7 389.578,1394.55 391.605,1393.54 393.632,1392.67 395.659,1391.94 
  397.686,1391.33 399.713,1390.85 401.74,1390.47 403.767,1390.19 405.794,1390.01 407.821,1389.91 409.848,1389.89 411.875,1389.93 413.902,1390.04 415.929,1390.2 
  417.956,1390.41 419.983,1390.65 422.01,1390.93 424.037,1391.24 426.064,1391.57 428.091,1391.92 430.118,1392.28 432.145,1392.64 434.172,1393.01 436.199,1393.38 
  438.226,1393.74 440.253,1394.1 442.28,1394.45 444.307,1394.79 446.334,1395.12 448.361,1395.43 450.388,1395.73 452.415,1396.01 454.442,1396.27 456.469,1396.51 
  458.496,1396.74 460.523,1396.94 462.55,1397.13 464.577,1397.3 466.604,1397.45 468.631,1397.58 470.658,1397.69 472.685,1397.79 474.712,1397.87 476.739,1397.93 
  478.766,1397.98 480.793,1398.02 482.82,1398.04 484.847,1398.06 486.874,1398.06 488.901,1398.05 490.928,1398.03 492.955,1398 494.982,1397.97 497.009,1397.93 
  499.036,1397.88 501.063,1397.83 503.09,1397.77 505.117,1397.72 507.144,1397.66 509.171,1397.59 511.198,1397.53 513.225,1397.46 515.253,1397.4 517.28,1397.34 
  519.307,1397.27 521.334,1397.21 523.361,1397.15 525.388,1397.09 527.415,1397.04 529.442,1396.99 531.469,1396.94 533.496,1396.89 535.523,1396.84 537.55,1396.8 
  539.577,1396.76 541.604,1396.73 543.631,1396.7 545.658,1396.67 547.685,1396.64 549.712,1396.62 551.739,1396.6 553.766,1396.59 555.793,1396.57 557.82,1396.56 
  559.847,1396.55 561.874,1396.55 563.901,1396.54 565.928,1396.54 567.955,1396.54 569.982,1396.54 572.009,1396.55 574.036,1396.55 576.063,1396.56 578.09,1396.56 
  580.117,1396.57 582.144,1396.58 584.171,1396.59 586.198,1396.6 588.225,1396.61 590.252,1396.62 592.279,1396.63 594.306,1396.64 596.333,1396.65 598.36,1396.66 
  600.387,1396.67 602.414,1396.68 604.441,1396.69 606.468,1396.7 608.495,1396.71 610.522,1396.71 612.549,1396.72 614.576,1396.72 616.603,1396.73 618.63,1396.73 
  620.657,1396.74 622.684,1396.74 624.711,1396.74 626.738,1396.74 628.765,1396.74 630.792,1396.74 632.819,1396.74 634.846,1396.73 636.873,1396.73 638.9,1396.73 
  640.927,1396.72 642.954,1396.72 644.981,1396.71 647.008,1396.7 649.035,1396.7 651.062,1396.69 653.089,1396.68 655.116,1396.67 657.143,1396.67 659.17,1396.66 
  661.197,1396.65 663.224,1396.64 665.251,1396.63 667.278,1396.62 669.305,1396.61 671.332,1396.6 673.359,1396.59 675.386,1396.58 677.414,1396.57 679.441,1396.56 
  681.468,1396.55 683.495,1396.54 685.522,1396.53 687.549,1396.52 689.576,1396.51 691.603,1396.51 693.63,1396.5 695.657,1396.49 697.684,1396.48 699.711,1396.47 
  701.738,1396.46 703.765,1396.46 705.792,1396.45 707.819,1396.44 709.846,1396.43 711.873,1396.43 713.9,1396.42 715.927,1396.41 717.954,1396.41 719.981,1396.4 
  722.008,1396.39 724.035,1396.39 726.062,1396.38 728.089,1396.38 730.116,1396.37 732.143,1396.36 734.17,1396.36 736.197,1396.35 738.224,1396.35 740.251,1396.34 
  742.278,1396.34 744.305,1396.33 746.332,1396.32 748.359,1396.32 750.386,1396.31 752.413,1396.31 754.44,1396.3 756.467,1396.29 758.494,1396.29 760.521,1396.28 
  762.548,1396.27 764.575,1396.27 766.602,1396.26 768.629,1396.25 770.656,1396.25 772.683,1396.24 774.71,1396.23 776.737,1396.22 778.764,1396.22 780.791,1396.21 
  782.818,1396.2 784.845,1396.19 786.872,1396.18 788.899,1396.17 790.926,1396.16 792.953,1396.15 794.98,1396.14 797.007,1396.13 799.034,1396.12 801.061,1396.11 
  803.088,1396.1 805.115,1396.09 807.142,1396.08 809.169,1396.07 811.196,1396.06 813.223,1396.05 815.25,1396.04 817.277,1396.03 819.304,1396.01 821.331,1396 
  823.358,1395.99 825.385,1395.98 827.412,1395.97 829.439,1395.95 831.466,1395.94 833.493,1395.93 835.52,1395.92 837.547,1395.9 839.575,1395.89 841.602,1395.88 
  843.629,1395.86 845.656,1395.85 847.683,1395.84 849.71,1395.82 851.737,1395.81 853.764,1395.8 855.791,1395.78 857.818,1395.77 859.845,1395.76 861.872,1395.74 
  863.899,1395.73 865.926,1395.71 867.953,1395.7 869.98,1395.69 872.007,1395.67 874.034,1395.66 876.061,1395.64 878.088,1395.63 880.115,1395.61 882.142,1395.6 
  884.169,1395.58 886.196,1395.57 888.223,1395.55 890.25,1395.53 892.277,1395.52 894.304,1395.5 896.331,1395.49 898.358,1395.47 900.385,1395.45 902.412,1395.44 
  904.439,1395.42 906.466,1395.4 908.493,1395.39 910.52,1395.37 912.547,1395.35 914.574,1395.33 916.601,1395.31 918.628,1395.3 920.655,1395.28 922.682,1395.26 
  924.709,1395.24 926.736,1395.22 928.763,1395.2 930.79,1395.18 932.817,1395.16 934.844,1395.14 936.871,1395.12 938.898,1395.1 940.925,1395.08 942.952,1395.05 
  944.979,1395.03 947.006,1395.01 949.033,1394.99 951.06,1394.96 953.087,1394.94 955.114,1394.92 957.141,1394.89 959.168,1394.87 961.195,1394.85 963.222,1394.82 
  965.249,1394.8 967.276,1394.77 969.303,1394.74 971.33,1394.72 973.357,1394.69 975.384,1394.67 977.411,1394.64 979.438,1394.61 981.465,1394.58 983.492,1394.56 
  985.519,1394.53 987.546,1394.5 989.573,1394.47 991.6,1394.44 993.627,1394.41 995.654,1394.38 997.681,1394.35 999.708,1394.32 1001.74,1394.29 1003.76,1394.26 
  1005.79,1394.23 1007.82,1394.19 1009.84,1394.16 1011.87,1394.13 1013.9,1394.1 1015.92,1394.06 1017.95,1394.03 1019.98,1394 1022.01,1393.96 1024.03,1393.93 
  1026.06,1393.89 1028.09,1393.86 1030.11,1393.82 1032.14,1393.79 1034.17,1393.75 1036.19,1393.71 1038.22,1393.68 1040.25,1393.64 1042.28,1393.6 1044.3,1393.56 
  1046.33,1393.52 1048.36,1393.48 1050.38,1393.45 1052.41,1393.41 1054.44,1393.37 1056.46,1393.33 1058.49,1393.28 1060.52,1393.24 1062.55,1393.2 1064.57,1393.16 
  1066.6,1393.12 1068.63,1393.08 1070.65,1393.03 1072.68,1392.99 1074.71,1392.94 1076.73,1392.9 1078.76,1392.86 1080.79,1392.81 1082.82,1392.77 1084.84,1392.72 
  1086.87,1392.67 1088.9,1392.63 1090.92,1392.58 1092.95,1392.53 1094.98,1392.49 1097.01,1392.44 1099.03,1392.39 1101.06,1392.34 1103.09,1392.29 1105.11,1392.25 
  1107.14,1392.2 1109.17,1392.15 1111.19,1392.1 1113.22,1392.05 1115.25,1392 1117.28,1391.95 1119.3,1391.9 1121.33,1391.85 1123.36,1391.8 1125.38,1391.74 
  1127.41,1391.69 1129.44,1391.64 1131.46,1391.59 1133.49,1391.54 1135.52,1391.49 1137.55,1391.44 1139.57,1391.39 1141.6,1391.34 1143.63,1391.29 1145.65,1391.24 
  1147.68,1391.19 1149.71,1391.14 1151.73,1391.09 1153.76,1391.04 1155.79,1390.99 1157.82,1390.94 1159.84,1390.89 1161.87,1390.84 1163.9,1390.8 1165.92,1390.75 
  1167.95,1390.7 1169.98,1390.66 1172,1390.61 1174.03,1390.57 1176.06,1390.52 1178.09,1390.48 1180.11,1390.44 1182.14,1390.4 1184.17,1390.36 1186.19,1390.32 
  1188.22,1390.28 1190.25,1390.24 1192.27,1390.2 1194.3,1390.17 1196.33,1390.13 1198.36,1390.1 1200.38,1390.06 1202.41,1390.03 1204.44,1390 1206.46,1389.97 
  1208.49,1389.94 1210.52,1389.92 1212.54,1389.89 1214.57,1389.87 1216.6,1389.84 1218.63,1389.82 1220.65,1389.8 1222.68,1389.78 1224.71,1389.76 1226.73,1389.75 
  1228.76,1389.73 1230.79,1389.72 1232.81,1389.71 1234.84,1389.7 1236.87,1389.69 1238.9,1389.68 1240.92,1389.67 1242.95,1389.67 1244.98,1389.67 1247,1389.67 
  1249.03,1389.67 1251.06,1389.67 1253.09,1389.67 1255.11,1389.67 1257.14,1389.68 1259.17,1389.69 1261.19,1389.7 1263.22,1389.71 1265.25,1389.72 1267.27,1389.73 
  1269.3,1389.75 1271.33,1389.76 1273.36,1389.78 1275.38,1389.8 1277.41,1389.82 1279.44,1389.84 1281.46,1389.87 1283.49,1389.89 1285.52,1389.92 1287.54,1389.94 
  1289.57,1389.97 1291.6,1390 1293.63,1390.03 1295.65,1390.06 1297.68,1390.1 1299.71,1390.13 1301.73,1390.17 1303.76,1390.2 1305.79,1390.24 1307.81,1390.28 
  1309.84,1390.32 1311.87,1390.36 1313.9,1390.4 1315.92,1390.44 1317.95,1390.48 1319.98,1390.52 1322,1390.57 1324.03,1390.61 1326.06,1390.66 1328.08,1390.7 
  1330.11,1390.75 1332.14,1390.8 1334.17,1390.84 1336.19,1390.89 1338.22,1390.94 1340.25,1390.99 1342.27,1391.04 1344.3,1391.09 1346.33,1391.14 1348.35,1391.19 
  1350.38,1391.24 1352.41,1391.29 1354.44,1391.34 1356.46,1391.39 1358.49,1391.44 1360.52,1391.49 1362.54,1391.54 1364.57,1391.59 1366.6,1391.64 1368.62,1391.69 
  1370.65,1391.74 1372.68,1391.8 1374.71,1391.85 1376.73,1391.9 1378.76,1391.95 1380.79,1392 1382.81,1392.05 1384.84,1392.1 1386.87,1392.15 1388.89,1392.2 
  1390.92,1392.25 1392.95,1392.29 1394.98,1392.34 1397,1392.39 1399.03,1392.44 1401.06,1392.49 1403.08,1392.53 1405.11,1392.58 1407.14,1392.63 1409.17,1392.67 
  1411.19,1392.72 1413.22,1392.77 1415.25,1392.81 1417.27,1392.86 1419.3,1392.9 1421.33,1392.94 1423.35,1392.99 1425.38,1393.03 1427.41,1393.08 1429.44,1393.12 
  1431.46,1393.16 1433.49,1393.2 1435.52,1393.24 1437.54,1393.28 1439.57,1393.33 1441.6,1393.37 1443.62,1393.41 1445.65,1393.45 1447.68,1393.48 1449.71,1393.52 
  1451.73,1393.56 1453.76,1393.6 1455.79,1393.64 1457.81,1393.68 1459.84,1393.71 1461.87,1393.75 1463.89,1393.79 1465.92,1393.82 1467.95,1393.86 1469.98,1393.89 
  1472,1393.93 1474.03,1393.96 1476.06,1394 1478.08,1394.03 1480.11,1394.06 1482.14,1394.1 1484.16,1394.13 1486.19,1394.16 1488.22,1394.19 1490.25,1394.23 
  1492.27,1394.26 1494.3,1394.29 1496.33,1394.32 1498.35,1394.35 1500.38,1394.38 1502.41,1394.41 1504.43,1394.44 1506.46,1394.47 1508.49,1394.5 1510.52,1394.53 
  1512.54,1394.56 1514.57,1394.58 1516.6,1394.61 1518.62,1394.64 1520.65,1394.67 1522.68,1394.69 1524.7,1394.72 1526.73,1394.74 1528.76,1394.77 1530.79,1394.8 
  1532.81,1394.82 1534.84,1394.85 1536.87,1394.87 1538.89,1394.89 1540.92,1394.92 1542.95,1394.94 1544.97,1394.96 1547,1394.99 1549.03,1395.01 1551.06,1395.03 
  1553.08,1395.05 1555.11,1395.08 1557.14,1395.1 1559.16,1395.12 1561.19,1395.14 1563.22,1395.16 1565.24,1395.18 1567.27,1395.2 1569.3,1395.22 1571.33,1395.24 
  1573.35,1395.26 1575.38,1395.28 1577.41,1395.3 1579.43,1395.31 1581.46,1395.33 1583.49,1395.35 1585.52,1395.37 1587.54,1395.39 1589.57,1395.4 1591.6,1395.42 
  1593.62,1395.44 1595.65,1395.45 1597.68,1395.47 1599.7,1395.49 1601.73,1395.5 1603.76,1395.52 1605.79,1395.53 1607.81,1395.55 1609.84,1395.57 1611.87,1395.58 
  1613.89,1395.6 1615.92,1395.61 1617.95,1395.63 1619.97,1395.64 1622,1395.66 1624.03,1395.67 1626.06,1395.69 1628.08,1395.7 1630.11,1395.71 1632.14,1395.73 
  1634.16,1395.74 1636.19,1395.76 1638.22,1395.77 1640.24,1395.78 1642.27,1395.8 1644.3,1395.81 1646.33,1395.82 1648.35,1395.84 1650.38,1395.85 1652.41,1395.86 
  1654.43,1395.88 1656.46,1395.89 1658.49,1395.9 1660.51,1395.92 1662.54,1395.93 1664.57,1395.94 1666.6,1395.95 1668.62,1395.97 1670.65,1395.98 1672.68,1395.99 
  1674.7,1396 1676.73,1396.01 1678.76,1396.03 1680.78,1396.04 1682.81,1396.05 1684.84,1396.06 1686.87,1396.07 1688.89,1396.08 1690.92,1396.09 1692.95,1396.1 
  1694.97,1396.11 1697,1396.12 1699.03,1396.13 1701.05,1396.14 1703.08,1396.15 1705.11,1396.16 1707.14,1396.17 1709.16,1396.18 1711.19,1396.19 1713.22,1396.2 
  1715.24,1396.21 1717.27,1396.22 1719.3,1396.22 1721.32,1396.23 1723.35,1396.24 1725.38,1396.25 1727.41,1396.25 1729.43,1396.26 1731.46,1396.27 1733.49,1396.27 
  1735.51,1396.28 1737.54,1396.29 1739.57,1396.29 1741.6,1396.3 1743.62,1396.31 1745.65,1396.31 1747.68,1396.32 1749.7,1396.32 1751.73,1396.33 1753.76,1396.34 
  1755.78,1396.34 1757.81,1396.35 1759.84,1396.35 1761.87,1396.36 1763.89,1396.36 1765.92,1396.37 1767.95,1396.38 1769.97,1396.38 1772,1396.39 1774.03,1396.39 
  1776.05,1396.4 1778.08,1396.41 1780.11,1396.41 1782.14,1396.42 1784.16,1396.43 1786.19,1396.43 1788.22,1396.44 1790.24,1396.45 1792.27,1396.46 1794.3,1396.46 
  1796.32,1396.47 1798.35,1396.48 1800.38,1396.49 1802.41,1396.5 1804.43,1396.51 1806.46,1396.51 1808.49,1396.52 1810.51,1396.53 1812.54,1396.54 1814.57,1396.55 
  1816.59,1396.56 1818.62,1396.57 1820.65,1396.58 1822.68,1396.59 1824.7,1396.6 1826.73,1396.61 1828.76,1396.62 1830.78,1396.63 1832.81,1396.64 1834.84,1396.65 
  1836.86,1396.66 1838.89,1396.67 1840.92,1396.67 1842.95,1396.68 1844.97,1396.69 1847,1396.7 1849.03,1396.7 1851.05,1396.71 1853.08,1396.72 1855.11,1396.72 
  1857.13,1396.73 1859.16,1396.73 1861.19,1396.73 1863.22,1396.74 1865.24,1396.74 1867.27,1396.74 1869.3,1396.74 1871.32,1396.74 1873.35,1396.74 1875.38,1396.74 
  1877.4,1396.73 1879.43,1396.73 1881.46,1396.72 1883.49,1396.72 1885.51,1396.71 1887.54,1396.71 1889.57,1396.7 1891.59,1396.69 1893.62,1396.68 1895.65,1396.67 
  1897.68,1396.66 1899.7,1396.65 1901.73,1396.64 1903.76,1396.63 1905.78,1396.62 1907.81,1396.61 1909.84,1396.6 1911.86,1396.59 1913.89,1396.58 1915.92,1396.57 
  1917.95,1396.56 1919.97,1396.56 1922,1396.55 1924.03,1396.55 1926.05,1396.54 1928.08,1396.54 1930.11,1396.54 1932.13,1396.54 1934.16,1396.55 1936.19,1396.55 
  1938.22,1396.56 1940.24,1396.57 1942.27,1396.59 1944.3,1396.6 1946.32,1396.62 1948.35,1396.64 1950.38,1396.67 1952.4,1396.7 1954.43,1396.73 1956.46,1396.76 
  1958.49,1396.8 1960.51,1396.84 1962.54,1396.89 1964.57,1396.94 1966.59,1396.99 1968.62,1397.04 1970.65,1397.09 1972.67,1397.15 1974.7,1397.21 1976.73,1397.27 
  1978.76,1397.34 1980.78,1397.4 1982.81,1397.46 1984.84,1397.53 1986.86,1397.59 1988.89,1397.66 1990.92,1397.72 1992.94,1397.77 1994.97,1397.83 1997,1397.88 
  1999.03,1397.93 2001.05,1397.97 2003.08,1398 2005.11,1398.03 2007.13,1398.05 2009.16,1398.06 2011.19,1398.06 2013.21,1398.04 2015.24,1398.02 2017.27,1397.98 
  2019.3,1397.93 2021.32,1397.87 2023.35,1397.79 2025.38,1397.69 2027.4,1397.58 2029.43,1397.45 2031.46,1397.3 2033.48,1397.13 2035.51,1396.94 2037.54,1396.74 
  2039.57,1396.51 2041.59,1396.27 2043.62,1396.01 2045.65,1395.73 2047.67,1395.43 2049.7,1395.12 2051.73,1394.79 2053.76,1394.45 2055.78,1394.1 2057.81,1393.74 
  2059.84,1393.38 2061.86,1393.01 2063.89,1392.64 2065.92,1392.28 2067.94,1391.92 2069.97,1391.57 2072,1391.24 2074.03,1390.93 2076.05,1390.65 2078.08,1390.41 
  2080.11,1390.2 2082.13,1390.04 2084.16,1389.93 2086.19,1389.89 2088.21,1389.91 2090.24,1390.01 2092.27,1390.19 2094.3,1390.47 2096.32,1390.85 2098.35,1391.33 
  2100.38,1391.94 2102.4,1392.67 2104.43,1393.54 2106.46,1394.55 2108.48,1395.7 2110.51,1397.02 2112.54,1398.49 2114.57,1400.14 2116.59,1401.95 2118.62,1403.94 
  2120.65,1406.1 2122.67,1408.43 2124.7,1410.94 2126.73,1413.61 2128.75,1416.44 2130.78,1419.42 2132.81,1422.54 2134.84,1425.78 2136.86,1429.13 2138.89,1432.55 
  2140.92,1436.02 2142.94,1439.51 2144.97,1442.98 2147,1446.39 2149.02,1449.69 2151.05,1452.84 2153.08,1455.76 2155.11,1458.39 2157.13,1460.66 2159.16,1462.5 
  2161.19,1463.8 2163.21,1464.49 2165.24,1464.45 2167.27,1463.59 2169.29,1461.78 2171.32,1458.9 2173.35,1454.81 2175.38,1449.39 2177.4,1442.5 2179.43,1433.97 
  2181.46,1423.66 2183.48,1411.42 2185.51,1397.08 2187.54,1380.48 2189.56,1361.47 2191.59,1339.9 2193.62,1315.61 2195.65,1288.46 2197.67,1258.32 2199.7,1225.09 
  2201.73,1188.68 2203.75,1149.01 2205.78,1106.05 2207.81,1059.81 2209.83,1010.33 2211.86,957.72 2213.89,902.139 2215.92,843.825 2217.94,783.097 2219.97,720.373 
  2222,656.178 2224.02,591.167 2226.05,526.136 2228.08,462.043 2230.11,400.031 2232.13,341.447 2234.16,287.871 2236.19,241.141 2238.21,203.387 2240.24,177.059 
  2242.27,164.97 2244.29,170.331 2246.32,196.796 2248.35,248.511 2250.38,330.165 2252.4,447.044 2254.43,605.097 2256.46,810.998 2258.48,1072.22 2260.51,1397.13 
  
  "/>
<polygon clip-path="url(#clip6701)" points="
1685.51,451.424 2249.26,451.424 2249.26,209.504 1685.51,209.504 
  " fill="#ffffff" fill-rule="evenodd" fill-opacity="1"/>
<polyline clip-path="url(#clip6701)" style="stroke:#000000; stroke-width:4; stroke-opacity:1; fill:none" points="
  1685.51,451.424 2249.26,451.424 2249.26,209.504 1685.51,209.504 1685.51,451.424 
  "/>
<polyline clip-path="url(#clip6701)" style="stroke:#009af9; stroke-width:4; stroke-opacity:1; fill:none" points="
  1709.51,269.984 1853.51,269.984 
  "/>
<g clip-path="url(#clip6701)">
<text style="fill:#000000; fill-opacity:1; font-family:Arial,Helvetica Neue,Helvetica,sans-serif; font-size:48px; text-anchor:start;" transform="rotate(0, 1877.51, 287.484)" x="1877.51" y="287.484">Runge function</text>
</g>
<circle clip-path="url(#clip6701)" style="fill:#000000; stroke:none; fill-opacity:1" cx="1793.51" cy="330.464" r="25"/>
<circle clip-path="url(#clip6701)" style="fill:#e26f46; stroke:none; fill-opacity:1" cx="1793.51" cy="330.464" r="21"/>
<g clip-path="url(#clip6701)">
<text style="fill:#000000; fill-opacity:1; font-family:Arial,Helvetica Neue,Helvetica,sans-serif; font-size:48px; text-anchor:start;" transform="rotate(0, 1877.51, 347.964)" x="1877.51" y="347.964">Nodes</text>
</g>
<polyline clip-path="url(#clip6701)" style="stroke:#3da44d; stroke-width:4; stroke-opacity:1; fill:none" points="
  1709.51,390.944 1853.51,390.944 
  "/>
<g clip-path="url(#clip6701)">
<text style="fill:#000000; fill-opacity:1; font-family:Arial,Helvetica Neue,Helvetica,sans-serif; font-size:48px; text-anchor:start;" transform="rotate(0, 1877.51, 408.444)" x="1877.51" y="408.444">Intepolation</text>
</g>
</svg>
