<?xml version="1.0" encoding="utf-8"?>
<svg xmlns="http://www.w3.org/2000/svg" xmlns:xlink="http://www.w3.org/1999/xlink" width="600" height="400" viewBox="0 0 2400 1600">
<defs>
  <clipPath id="clip5300">
    <rect x="0" y="0" width="2000" height="2000"/>
  </clipPath>
</defs>
<defs>
  <clipPath id="clip5301">
    <rect x="0" y="0" width="2400" height="1600"/>
  </clipPath>
</defs>
<polygon clip-path="url(#clip5301)" points="
0,1600 2400,1600 2400,0 0,0 
  " fill="#ffffff" fill-rule="evenodd" fill-opacity="1"/>
<defs>
  <clipPath id="clip5302">
    <rect x="480" y="0" width="1681" height="1600"/>
  </clipPath>
</defs>
<polygon clip-path="url(#clip5301)" points="
176.123,1503.47 2321.26,1503.47 2321.26,125.984 176.123,125.984 
  " fill="#ffffff" fill-rule="evenodd" fill-opacity="1"/>
<defs>
  <clipPath id="clip5303">
    <rect x="176" y="125" width="2146" height="1378"/>
  </clipPath>
</defs>
<polyline clip-path="url(#clip5303)" style="stroke:#000000; stroke-width:2; stroke-opacity:0.1; fill:none" points="
  236.834,1503.47 236.834,125.984 
  "/>
<polyline clip-path="url(#clip5303)" style="stroke:#000000; stroke-width:2; stroke-opacity:0.1; fill:none" points="
  742.763,1503.47 742.763,125.984 
  "/>
<polyline clip-path="url(#clip5303)" style="stroke:#000000; stroke-width:2; stroke-opacity:0.1; fill:none" points="
  1248.69,1503.47 1248.69,125.984 
  "/>
<polyline clip-path="url(#clip5303)" style="stroke:#000000; stroke-width:2; stroke-opacity:0.1; fill:none" points="
  1754.62,1503.47 1754.62,125.984 
  "/>
<polyline clip-path="url(#clip5303)" style="stroke:#000000; stroke-width:2; stroke-opacity:0.1; fill:none" points="
  2260.55,1503.47 2260.55,125.984 
  "/>
<polyline clip-path="url(#clip5303)" style="stroke:#000000; stroke-width:2; stroke-opacity:0.1; fill:none" points="
  176.123,1470.01 2321.26,1470.01 
  "/>
<polyline clip-path="url(#clip5303)" style="stroke:#000000; stroke-width:2; stroke-opacity:0.1; fill:none" points="
  176.123,1267.1 2321.26,1267.1 
  "/>
<polyline clip-path="url(#clip5303)" style="stroke:#000000; stroke-width:2; stroke-opacity:0.1; fill:none" points="
  176.123,1064.2 2321.26,1064.2 
  "/>
<polyline clip-path="url(#clip5303)" style="stroke:#000000; stroke-width:2; stroke-opacity:0.1; fill:none" points="
  176.123,861.299 2321.26,861.299 
  "/>
<polyline clip-path="url(#clip5303)" style="stroke:#000000; stroke-width:2; stroke-opacity:0.1; fill:none" points="
  176.123,658.397 2321.26,658.397 
  "/>
<polyline clip-path="url(#clip5303)" style="stroke:#000000; stroke-width:2; stroke-opacity:0.1; fill:none" points="
  176.123,455.494 2321.26,455.494 
  "/>
<polyline clip-path="url(#clip5303)" style="stroke:#000000; stroke-width:2; stroke-opacity:0.1; fill:none" points="
  176.123,252.592 2321.26,252.592 
  "/>
<polyline clip-path="url(#clip5301)" style="stroke:#000000; stroke-width:4; stroke-opacity:1; fill:none" points="
  176.123,1503.47 2321.26,1503.47 
  "/>
<polyline clip-path="url(#clip5301)" style="stroke:#000000; stroke-width:4; stroke-opacity:1; fill:none" points="
  176.123,1503.47 176.123,125.984 
  "/>
<polyline clip-path="url(#clip5301)" style="stroke:#000000; stroke-width:4; stroke-opacity:1; fill:none" points="
  236.834,1503.47 236.834,1482.81 
  "/>
<polyline clip-path="url(#clip5301)" style="stroke:#000000; stroke-width:4; stroke-opacity:1; fill:none" points="
  742.763,1503.47 742.763,1482.81 
  "/>
<polyline clip-path="url(#clip5301)" style="stroke:#000000; stroke-width:4; stroke-opacity:1; fill:none" points="
  1248.69,1503.47 1248.69,1482.81 
  "/>
<polyline clip-path="url(#clip5301)" style="stroke:#000000; stroke-width:4; stroke-opacity:1; fill:none" points="
  1754.62,1503.47 1754.62,1482.81 
  "/>
<polyline clip-path="url(#clip5301)" style="stroke:#000000; stroke-width:4; stroke-opacity:1; fill:none" points="
  2260.55,1503.47 2260.55,1482.81 
  "/>
<polyline clip-path="url(#clip5301)" style="stroke:#000000; stroke-width:4; stroke-opacity:1; fill:none" points="
  176.123,1470.01 208.3,1470.01 
  "/>
<polyline clip-path="url(#clip5301)" style="stroke:#000000; stroke-width:4; stroke-opacity:1; fill:none" points="
  176.123,1267.1 208.3,1267.1 
  "/>
<polyline clip-path="url(#clip5301)" style="stroke:#000000; stroke-width:4; stroke-opacity:1; fill:none" points="
  176.123,1064.2 208.3,1064.2 
  "/>
<polyline clip-path="url(#clip5301)" style="stroke:#000000; stroke-width:4; stroke-opacity:1; fill:none" points="
  176.123,861.299 208.3,861.299 
  "/>
<polyline clip-path="url(#clip5301)" style="stroke:#000000; stroke-width:4; stroke-opacity:1; fill:none" points="
  176.123,658.397 208.3,658.397 
  "/>
<polyline clip-path="url(#clip5301)" style="stroke:#000000; stroke-width:4; stroke-opacity:1; fill:none" points="
  176.123,455.494 208.3,455.494 
  "/>
<polyline clip-path="url(#clip5301)" style="stroke:#000000; stroke-width:4; stroke-opacity:1; fill:none" points="
  176.123,252.592 208.3,252.592 
  "/>
<g clip-path="url(#clip5301)">
<text style="fill:#000000; fill-opacity:1; font-family:Arial,Helvetica Neue,Helvetica,sans-serif; font-size:48px; text-anchor:middle;" transform="rotate(0, 236.834, 1557.47)" x="236.834" y="1557.47">-1.0</text>
</g>
<g clip-path="url(#clip5301)">
<text style="fill:#000000; fill-opacity:1; font-family:Arial,Helvetica Neue,Helvetica,sans-serif; font-size:48px; text-anchor:middle;" transform="rotate(0, 742.763, 1557.47)" x="742.763" y="1557.47">-0.5</text>
</g>
<g clip-path="url(#clip5301)">
<text style="fill:#000000; fill-opacity:1; font-family:Arial,Helvetica Neue,Helvetica,sans-serif; font-size:48px; text-anchor:middle;" transform="rotate(0, 1248.69, 1557.47)" x="1248.69" y="1557.47">0.0</text>
</g>
<g clip-path="url(#clip5301)">
<text style="fill:#000000; fill-opacity:1; font-family:Arial,Helvetica Neue,Helvetica,sans-serif; font-size:48px; text-anchor:middle;" transform="rotate(0, 1754.62, 1557.47)" x="1754.62" y="1557.47">0.5</text>
</g>
<g clip-path="url(#clip5301)">
<text style="fill:#000000; fill-opacity:1; font-family:Arial,Helvetica Neue,Helvetica,sans-serif; font-size:48px; text-anchor:middle;" transform="rotate(0, 2260.55, 1557.47)" x="2260.55" y="1557.47">1.0</text>
</g>
<g clip-path="url(#clip5301)">
<text style="fill:#000000; fill-opacity:1; font-family:Arial,Helvetica Neue,Helvetica,sans-serif; font-size:48px; text-anchor:end;" transform="rotate(0, 152.123, 1487.51)" x="152.123" y="1487.51">-60</text>
</g>
<g clip-path="url(#clip5301)">
<text style="fill:#000000; fill-opacity:1; font-family:Arial,Helvetica Neue,Helvetica,sans-serif; font-size:48px; text-anchor:end;" transform="rotate(0, 152.123, 1284.6)" x="152.123" y="1284.6">-50</text>
</g>
<g clip-path="url(#clip5301)">
<text style="fill:#000000; fill-opacity:1; font-family:Arial,Helvetica Neue,Helvetica,sans-serif; font-size:48px; text-anchor:end;" transform="rotate(0, 152.123, 1081.7)" x="152.123" y="1081.7">-40</text>
</g>
<g clip-path="url(#clip5301)">
<text style="fill:#000000; fill-opacity:1; font-family:Arial,Helvetica Neue,Helvetica,sans-serif; font-size:48px; text-anchor:end;" transform="rotate(0, 152.123, 878.799)" x="152.123" y="878.799">-30</text>
</g>
<g clip-path="url(#clip5301)">
<text style="fill:#000000; fill-opacity:1; font-family:Arial,Helvetica Neue,Helvetica,sans-serif; font-size:48px; text-anchor:end;" transform="rotate(0, 152.123, 675.897)" x="152.123" y="675.897">-20</text>
</g>
<g clip-path="url(#clip5301)">
<text style="fill:#000000; fill-opacity:1; font-family:Arial,Helvetica Neue,Helvetica,sans-serif; font-size:48px; text-anchor:end;" transform="rotate(0, 152.123, 472.994)" x="152.123" y="472.994">-10</text>
</g>
<g clip-path="url(#clip5301)">
<text style="fill:#000000; fill-opacity:1; font-family:Arial,Helvetica Neue,Helvetica,sans-serif; font-size:48px; text-anchor:end;" transform="rotate(0, 152.123, 270.092)" x="152.123" y="270.092">0</text>
</g>
<g clip-path="url(#clip5301)">
<text style="fill:#000000; fill-opacity:1; font-family:Arial,Helvetica Neue,Helvetica,sans-serif; font-size:84px; text-anchor:middle;" transform="rotate(0, 1248.69, 73.2)" x="1248.69" y="73.2">Runge&apos;s phenomenon (Nodes = 21)</text>
</g>
<polyline clip-path="url(#clip5303)" style="stroke:#009af9; stroke-width:4; stroke-opacity:1; fill:none" points="
  236.834,251.812 238.86,251.809 240.886,251.806 242.912,251.802 244.937,251.799 246.963,251.796 248.989,251.793 251.015,251.79 253.04,251.787 255.066,251.784 
  257.092,251.781 259.118,251.777 261.143,251.774 263.169,251.771 265.195,251.768 267.22,251.764 269.246,251.761 271.272,251.758 273.298,251.755 275.323,251.751 
  277.349,251.748 279.375,251.744 281.401,251.741 283.426,251.738 285.452,251.734 287.478,251.731 289.504,251.727 291.529,251.724 293.555,251.72 295.581,251.717 
  297.607,251.713 299.632,251.71 301.658,251.706 303.684,251.702 305.71,251.699 307.735,251.695 309.761,251.691 311.787,251.687 313.812,251.684 315.838,251.68 
  317.864,251.676 319.89,251.672 321.915,251.669 323.941,251.665 325.967,251.661 327.993,251.657 330.018,251.653 332.044,251.649 334.07,251.645 336.096,251.641 
  338.121,251.637 340.147,251.633 342.173,251.629 344.199,251.625 346.224,251.621 348.25,251.616 350.276,251.612 352.302,251.608 354.327,251.604 356.353,251.599 
  358.379,251.595 360.405,251.591 362.43,251.586 364.456,251.582 366.482,251.578 368.507,251.573 370.533,251.569 372.559,251.564 374.585,251.56 376.61,251.555 
  378.636,251.551 380.662,251.546 382.688,251.541 384.713,251.537 386.739,251.532 388.765,251.527 390.791,251.522 392.816,251.518 394.842,251.513 396.868,251.508 
  398.894,251.503 400.919,251.498 402.945,251.493 404.971,251.488 406.997,251.483 409.022,251.478 411.048,251.473 413.074,251.468 415.099,251.463 417.125,251.457 
  419.151,251.452 421.177,251.447 423.202,251.442 425.228,251.436 427.254,251.431 429.28,251.426 431.305,251.42 433.331,251.415 435.357,251.409 437.383,251.403 
  439.408,251.398 441.434,251.392 443.46,251.387 445.486,251.381 447.511,251.375 449.537,251.369 451.563,251.363 453.589,251.357 455.614,251.352 457.64,251.346 
  459.666,251.34 461.691,251.334 463.717,251.327 465.743,251.321 467.769,251.315 469.794,251.309 471.82,251.303 473.846,251.296 475.872,251.29 477.897,251.284 
  479.923,251.277 481.949,251.271 483.975,251.264 486,251.257 488.026,251.251 490.052,251.244 492.078,251.237 494.103,251.231 496.129,251.224 498.155,251.217 
  500.181,251.21 502.206,251.203 504.232,251.196 506.258,251.189 508.284,251.182 510.309,251.174 512.335,251.167 514.361,251.16 516.386,251.152 518.412,251.145 
  520.438,251.137 522.464,251.13 524.489,251.122 526.515,251.115 528.541,251.107 530.567,251.099 532.592,251.091 534.618,251.083 536.644,251.075 538.67,251.067 
  540.695,251.059 542.721,251.051 544.747,251.043 546.773,251.035 548.798,251.026 550.824,251.018 552.85,251.01 554.876,251.001 556.901,250.992 558.927,250.984 
  560.953,250.975 562.978,250.966 565.004,250.957 567.03,250.948 569.056,250.939 571.081,250.93 573.107,250.921 575.133,250.912 577.159,250.903 579.184,250.893 
  581.21,250.884 583.236,250.874 585.262,250.865 587.287,250.855 589.313,250.845 591.339,250.835 593.365,250.825 595.39,250.815 597.416,250.805 599.442,250.795 
  601.468,250.785 603.493,250.775 605.519,250.764 607.545,250.754 609.57,250.743 611.596,250.732 613.622,250.722 615.648,250.711 617.673,250.7 619.699,250.689 
  621.725,250.677 623.751,250.666 625.776,250.655 627.802,250.643 629.828,250.632 631.854,250.62 633.879,250.608 635.905,250.597 637.931,250.585 639.957,250.573 
  641.982,250.56 644.008,250.548 646.034,250.536 648.06,250.523 650.085,250.511 652.111,250.498 654.137,250.485 656.163,250.472 658.188,250.459 660.214,250.446 
  662.24,250.433 664.265,250.42 666.291,250.406 668.317,250.392 670.343,250.379 672.368,250.365 674.394,250.351 676.42,250.337 678.446,250.322 680.471,250.308 
  682.497,250.293 684.523,250.279 686.549,250.264 688.574,250.249 690.6,250.234 692.626,250.219 694.652,250.204 696.677,250.188 698.703,250.172 700.729,250.157 
  702.755,250.141 704.78,250.125 706.806,250.108 708.832,250.092 710.857,250.076 712.883,250.059 714.909,250.042 716.935,250.025 718.96,250.008 720.986,249.991 
  723.012,249.973 725.038,249.955 727.063,249.938 729.089,249.92 731.115,249.901 733.141,249.883 735.166,249.864 737.192,249.846 739.218,249.827 741.244,249.808 
  743.269,249.788 745.295,249.769 747.321,249.749 749.347,249.73 751.372,249.709 753.398,249.689 755.424,249.669 757.449,249.648 759.475,249.627 761.501,249.606 
  763.527,249.585 765.552,249.563 767.578,249.542 769.604,249.52 771.63,249.498 773.655,249.475 775.681,249.453 777.707,249.43 779.733,249.407 781.758,249.383 
  783.784,249.36 785.81,249.336 787.836,249.312 789.861,249.288 791.887,249.263 793.913,249.238 795.939,249.213 797.964,249.188 799.99,249.162 802.016,249.136 
  804.042,249.11 806.067,249.084 808.093,249.057 810.119,249.03 812.144,249.003 814.17,248.975 816.196,248.947 818.222,248.919 820.247,248.891 822.273,248.862 
  824.299,248.833 826.325,248.804 828.35,248.774 830.376,248.744 832.402,248.713 834.428,248.683 836.453,248.652 838.479,248.62 840.505,248.589 842.531,248.557 
  844.556,248.524 846.582,248.491 848.608,248.458 850.634,248.425 852.659,248.391 854.685,248.357 856.711,248.322 858.736,248.287 860.762,248.251 862.788,248.216 
  864.814,248.179 866.839,248.143 868.865,248.106 870.891,248.068 872.917,248.03 874.942,247.992 876.968,247.953 878.994,247.914 881.02,247.874 883.045,247.834 
  885.071,247.793 887.097,247.752 889.123,247.711 891.148,247.669 893.174,247.626 895.2,247.583 897.226,247.54 899.251,247.496 901.277,247.451 903.303,247.406 
  905.329,247.361 907.354,247.315 909.38,247.268 911.406,247.221 913.431,247.173 915.457,247.125 917.483,247.076 919.509,247.027 921.534,246.977 923.56,246.926 
  925.586,246.875 927.612,246.823 929.637,246.771 931.663,246.718 933.689,246.664 935.715,246.61 937.74,246.555 939.766,246.499 941.792,246.443 943.818,246.386 
  945.843,246.329 947.869,246.27 949.895,246.211 951.921,246.152 953.946,246.091 955.972,246.03 957.998,245.968 960.023,245.906 962.049,245.843 964.075,245.779 
  966.101,245.714 968.126,245.648 970.152,245.582 972.178,245.515 974.204,245.447 976.229,245.378 978.255,245.308 980.281,245.238 982.307,245.167 984.332,245.095 
  986.358,245.022 988.384,244.948 990.41,244.874 992.435,244.798 994.461,244.722 996.487,244.645 998.513,244.567 1000.54,244.488 1002.56,244.408 1004.59,244.327 
  1006.62,244.245 1008.64,244.162 1010.67,244.079 1012.69,243.994 1014.72,243.909 1016.74,243.822 1018.77,243.735 1020.8,243.646 1022.82,243.557 1024.85,243.466 
  1026.87,243.375 1028.9,243.283 1030.92,243.189 1032.95,243.095 1034.98,243 1037,242.903 1039.03,242.806 1041.05,242.707 1043.08,242.608 1045.1,242.508 
  1047.13,242.406 1049.16,242.304 1051.18,242.2 1053.21,242.096 1055.23,241.99 1057.26,241.884 1059.28,241.776 1061.31,241.668 1063.34,241.558 1065.36,241.448 
  1067.39,241.336 1069.41,241.224 1071.44,241.11 1073.46,240.996 1075.49,240.88 1077.52,240.764 1079.54,240.647 1081.57,240.529 1083.59,240.41 1085.62,240.29 
  1087.65,240.169 1089.67,240.047 1091.7,239.925 1093.72,239.802 1095.75,239.678 1097.77,239.553 1099.8,239.428 1101.83,239.302 1103.85,239.175 1105.88,239.047 
  1107.9,238.919 1109.93,238.791 1111.95,238.662 1113.98,238.532 1116.01,238.402 1118.03,238.271 1120.06,238.141 1122.08,238.009 1124.11,237.878 1126.13,237.746 
  1128.16,237.615 1130.19,237.483 1132.21,237.351 1134.24,237.219 1136.26,237.087 1138.29,236.955 1140.31,236.824 1142.34,236.693 1144.37,236.562 1146.39,236.431 
  1148.42,236.301 1150.44,236.172 1152.47,236.043 1154.49,235.915 1156.52,235.788 1158.55,235.661 1160.57,235.536 1162.6,235.411 1164.62,235.288 1166.65,235.166 
  1168.67,235.045 1170.7,234.926 1172.73,234.808 1174.75,234.691 1176.78,234.577 1178.8,234.464 1180.83,234.353 1182.85,234.244 1184.88,234.137 1186.91,234.032 
  1188.93,233.929 1190.96,233.829 1192.98,233.731 1195.01,233.636 1197.04,233.543 1199.06,233.453 1201.09,233.366 1203.11,233.281 1205.14,233.2 1207.16,233.122 
  1209.19,233.046 1211.22,232.974 1213.24,232.906 1215.27,232.841 1217.29,232.779 1219.32,232.72 1221.34,232.666 1223.37,232.614 1225.4,232.567 1227.42,232.523 
  1229.45,232.484 1231.47,232.448 1233.5,232.415 1235.52,232.387 1237.55,232.363 1239.58,232.343 1241.6,232.327 1243.63,232.314 1245.65,232.306 1247.68,232.302 
  1249.7,232.302 1251.73,232.306 1253.76,232.314 1255.78,232.327 1257.81,232.343 1259.83,232.363 1261.86,232.387 1263.88,232.415 1265.91,232.448 1267.94,232.484 
  1269.96,232.523 1271.99,232.567 1274.01,232.614 1276.04,232.666 1278.06,232.72 1280.09,232.779 1282.12,232.841 1284.14,232.906 1286.17,232.974 1288.19,233.046 
  1290.22,233.122 1292.24,233.2 1294.27,233.281 1296.3,233.366 1298.32,233.453 1300.35,233.543 1302.37,233.636 1304.4,233.731 1306.42,233.829 1308.45,233.929 
  1310.48,234.032 1312.5,234.137 1314.53,234.244 1316.55,234.353 1318.58,234.464 1320.61,234.577 1322.63,234.691 1324.66,234.808 1326.68,234.926 1328.71,235.045 
  1330.73,235.166 1332.76,235.288 1334.79,235.411 1336.81,235.536 1338.84,235.661 1340.86,235.788 1342.89,235.915 1344.91,236.043 1346.94,236.172 1348.97,236.301 
  1350.99,236.431 1353.02,236.562 1355.04,236.693 1357.07,236.824 1359.09,236.955 1361.12,237.087 1363.15,237.219 1365.17,237.351 1367.2,237.483 1369.22,237.615 
  1371.25,237.746 1373.27,237.878 1375.3,238.009 1377.33,238.141 1379.35,238.271 1381.38,238.402 1383.4,238.532 1385.43,238.662 1387.45,238.791 1389.48,238.919 
  1391.51,239.047 1393.53,239.175 1395.56,239.302 1397.58,239.428 1399.61,239.553 1401.63,239.678 1403.66,239.802 1405.69,239.925 1407.71,240.047 1409.74,240.169 
  1411.76,240.29 1413.79,240.41 1415.81,240.529 1417.84,240.647 1419.87,240.764 1421.89,240.88 1423.92,240.996 1425.94,241.11 1427.97,241.224 1430,241.336 
  1432.02,241.448 1434.05,241.558 1436.07,241.668 1438.1,241.776 1440.12,241.884 1442.15,241.99 1444.18,242.096 1446.2,242.2 1448.23,242.304 1450.25,242.406 
  1452.28,242.508 1454.3,242.608 1456.33,242.707 1458.36,242.806 1460.38,242.903 1462.41,243 1464.43,243.095 1466.46,243.189 1468.48,243.283 1470.51,243.375 
  1472.54,243.466 1474.56,243.557 1476.59,243.646 1478.61,243.735 1480.64,243.822 1482.66,243.909 1484.69,243.994 1486.72,244.079 1488.74,244.162 1490.77,244.245 
  1492.79,244.327 1494.82,244.408 1496.84,244.488 1498.87,244.567 1500.9,244.645 1502.92,244.722 1504.95,244.798 1506.97,244.874 1509,244.948 1511.02,245.022 
  1513.05,245.095 1515.08,245.167 1517.1,245.238 1519.13,245.308 1521.15,245.378 1523.18,245.447 1525.2,245.515 1527.23,245.582 1529.26,245.648 1531.28,245.714 
  1533.31,245.779 1535.33,245.843 1537.36,245.906 1539.39,245.968 1541.41,246.03 1543.44,246.091 1545.46,246.152 1547.49,246.211 1549.51,246.27 1551.54,246.329 
  1553.57,246.386 1555.59,246.443 1557.62,246.499 1559.64,246.555 1561.67,246.61 1563.69,246.664 1565.72,246.718 1567.75,246.771 1569.77,246.823 1571.8,246.875 
  1573.82,246.926 1575.85,246.977 1577.87,247.027 1579.9,247.076 1581.93,247.125 1583.95,247.173 1585.98,247.221 1588,247.268 1590.03,247.315 1592.05,247.361 
  1594.08,247.406 1596.11,247.451 1598.13,247.496 1600.16,247.54 1602.18,247.583 1604.21,247.626 1606.23,247.669 1608.26,247.711 1610.29,247.752 1612.31,247.793 
  1614.34,247.834 1616.36,247.874 1618.39,247.914 1620.41,247.953 1622.44,247.992 1624.47,248.03 1626.49,248.068 1628.52,248.106 1630.54,248.143 1632.57,248.179 
  1634.59,248.216 1636.62,248.251 1638.65,248.287 1640.67,248.322 1642.7,248.357 1644.72,248.391 1646.75,248.425 1648.78,248.458 1650.8,248.491 1652.83,248.524 
  1654.85,248.557 1656.88,248.589 1658.9,248.62 1660.93,248.652 1662.96,248.683 1664.98,248.713 1667.01,248.744 1669.03,248.774 1671.06,248.804 1673.08,248.833 
  1675.11,248.862 1677.14,248.891 1679.16,248.919 1681.19,248.947 1683.21,248.975 1685.24,249.003 1687.26,249.03 1689.29,249.057 1691.32,249.084 1693.34,249.11 
  1695.37,249.136 1697.39,249.162 1699.42,249.188 1701.44,249.213 1703.47,249.238 1705.5,249.263 1707.52,249.288 1709.55,249.312 1711.57,249.336 1713.6,249.36 
  1715.62,249.383 1717.65,249.407 1719.68,249.43 1721.7,249.453 1723.73,249.475 1725.75,249.498 1727.78,249.52 1729.8,249.542 1731.83,249.563 1733.86,249.585 
  1735.88,249.606 1737.91,249.627 1739.93,249.648 1741.96,249.669 1743.98,249.689 1746.01,249.709 1748.04,249.73 1750.06,249.749 1752.09,249.769 1754.11,249.788 
  1756.14,249.808 1758.16,249.827 1760.19,249.846 1762.22,249.864 1764.24,249.883 1766.27,249.901 1768.29,249.92 1770.32,249.938 1772.35,249.955 1774.37,249.973 
  1776.4,249.991 1778.42,250.008 1780.45,250.025 1782.47,250.042 1784.5,250.059 1786.53,250.076 1788.55,250.092 1790.58,250.108 1792.6,250.125 1794.63,250.141 
  1796.65,250.157 1798.68,250.172 1800.71,250.188 1802.73,250.204 1804.76,250.219 1806.78,250.234 1808.81,250.249 1810.83,250.264 1812.86,250.279 1814.89,250.293 
  1816.91,250.308 1818.94,250.322 1820.96,250.337 1822.99,250.351 1825.01,250.365 1827.04,250.379 1829.07,250.392 1831.09,250.406 1833.12,250.42 1835.14,250.433 
  1837.17,250.446 1839.19,250.459 1841.22,250.472 1843.25,250.485 1845.27,250.498 1847.3,250.511 1849.32,250.523 1851.35,250.536 1853.37,250.548 1855.4,250.56 
  1857.43,250.573 1859.45,250.585 1861.48,250.597 1863.5,250.608 1865.53,250.62 1867.55,250.632 1869.58,250.643 1871.61,250.655 1873.63,250.666 1875.66,250.677 
  1877.68,250.689 1879.71,250.7 1881.74,250.711 1883.76,250.722 1885.79,250.732 1887.81,250.743 1889.84,250.754 1891.86,250.764 1893.89,250.775 1895.92,250.785 
  1897.94,250.795 1899.97,250.805 1901.99,250.815 1904.02,250.825 1906.04,250.835 1908.07,250.845 1910.1,250.855 1912.12,250.865 1914.15,250.874 1916.17,250.884 
  1918.2,250.893 1920.22,250.903 1922.25,250.912 1924.28,250.921 1926.3,250.93 1928.33,250.939 1930.35,250.948 1932.38,250.957 1934.4,250.966 1936.43,250.975 
  1938.46,250.984 1940.48,250.992 1942.51,251.001 1944.53,251.01 1946.56,251.018 1948.58,251.026 1950.61,251.035 1952.64,251.043 1954.66,251.051 1956.69,251.059 
  1958.71,251.067 1960.74,251.075 1962.76,251.083 1964.79,251.091 1966.82,251.099 1968.84,251.107 1970.87,251.115 1972.89,251.122 1974.92,251.13 1976.94,251.137 
  1978.97,251.145 1981,251.152 1983.02,251.16 1985.05,251.167 1987.07,251.174 1989.1,251.182 1991.13,251.189 1993.15,251.196 1995.18,251.203 1997.2,251.21 
  1999.23,251.217 2001.25,251.224 2003.28,251.231 2005.31,251.237 2007.33,251.244 2009.36,251.251 2011.38,251.257 2013.41,251.264 2015.43,251.271 2017.46,251.277 
  2019.49,251.284 2021.51,251.29 2023.54,251.296 2025.56,251.303 2027.59,251.309 2029.61,251.315 2031.64,251.321 2033.67,251.327 2035.69,251.334 2037.72,251.34 
  2039.74,251.346 2041.77,251.352 2043.79,251.357 2045.82,251.363 2047.85,251.369 2049.87,251.375 2051.9,251.381 2053.92,251.387 2055.95,251.392 2057.97,251.398 
  2060,251.403 2062.03,251.409 2064.05,251.415 2066.08,251.42 2068.1,251.426 2070.13,251.431 2072.15,251.436 2074.18,251.442 2076.21,251.447 2078.23,251.452 
  2080.26,251.457 2082.28,251.463 2084.31,251.468 2086.33,251.473 2088.36,251.478 2090.39,251.483 2092.41,251.488 2094.44,251.493 2096.46,251.498 2098.49,251.503 
  2100.51,251.508 2102.54,251.513 2104.57,251.518 2106.59,251.522 2108.62,251.527 2110.64,251.532 2112.67,251.537 2114.7,251.541 2116.72,251.546 2118.75,251.551 
  2120.77,251.555 2122.8,251.56 2124.82,251.564 2126.85,251.569 2128.88,251.573 2130.9,251.578 2132.93,251.582 2134.95,251.586 2136.98,251.591 2139,251.595 
  2141.03,251.599 2143.06,251.604 2145.08,251.608 2147.11,251.612 2149.13,251.616 2151.16,251.621 2153.18,251.625 2155.21,251.629 2157.24,251.633 2159.26,251.637 
  2161.29,251.641 2163.31,251.645 2165.34,251.649 2167.36,251.653 2169.39,251.657 2171.42,251.661 2173.44,251.665 2175.47,251.669 2177.49,251.672 2179.52,251.676 
  2181.54,251.68 2183.57,251.684 2185.6,251.687 2187.62,251.691 2189.65,251.695 2191.67,251.699 2193.7,251.702 2195.72,251.706 2197.75,251.71 2199.78,251.713 
  2201.8,251.717 2203.83,251.72 2205.85,251.724 2207.88,251.727 2209.9,251.731 2211.93,251.734 2213.96,251.738 2215.98,251.741 2218.01,251.744 2220.03,251.748 
  2222.06,251.751 2224.09,251.755 2226.11,251.758 2228.14,251.761 2230.16,251.764 2232.19,251.768 2234.21,251.771 2236.24,251.774 2238.27,251.777 2240.29,251.781 
  2242.32,251.784 2244.34,251.787 2246.37,251.79 2248.39,251.793 2250.42,251.796 2252.45,251.799 2254.47,251.802 2256.5,251.806 2258.52,251.809 2260.55,251.812 
  
  "/>
<circle clip-path="url(#clip5303)" style="fill:#000000; stroke:none; fill-opacity:1" cx="236.834" cy="251.812" r="18"/>
<circle clip-path="url(#clip5303)" style="fill:#e26f46; stroke:none; fill-opacity:1" cx="236.834" cy="251.812" r="14"/>
<circle clip-path="url(#clip5303)" style="fill:#000000; stroke:none; fill-opacity:1" cx="338.02" cy="251.637" r="18"/>
<circle clip-path="url(#clip5303)" style="fill:#e26f46; stroke:none; fill-opacity:1" cx="338.02" cy="251.637" r="14"/>
<circle clip-path="url(#clip5303)" style="fill:#000000; stroke:none; fill-opacity:1" cx="439.206" cy="251.398" r="18"/>
<circle clip-path="url(#clip5303)" style="fill:#e26f46; stroke:none; fill-opacity:1" cx="439.206" cy="251.398" r="14"/>
<circle clip-path="url(#clip5303)" style="fill:#000000; stroke:none; fill-opacity:1" cx="540.391" cy="251.061" r="18"/>
<circle clip-path="url(#clip5303)" style="fill:#e26f46; stroke:none; fill-opacity:1" cx="540.391" cy="251.061" r="14"/>
<circle clip-path="url(#clip5303)" style="fill:#000000; stroke:none; fill-opacity:1" cx="641.577" cy="250.563" r="18"/>
<circle clip-path="url(#clip5303)" style="fill:#e26f46; stroke:none; fill-opacity:1" cx="641.577" cy="250.563" r="14"/>
<circle clip-path="url(#clip5303)" style="fill:#000000; stroke:none; fill-opacity:1" cx="742.763" cy="249.793" r="18"/>
<circle clip-path="url(#clip5303)" style="fill:#e26f46; stroke:none; fill-opacity:1" cx="742.763" cy="249.793" r="14"/>
<circle clip-path="url(#clip5303)" style="fill:#000000; stroke:none; fill-opacity:1" cx="843.949" cy="248.534" r="18"/>
<circle clip-path="url(#clip5303)" style="fill:#e26f46; stroke:none; fill-opacity:1" cx="843.949" cy="248.534" r="14"/>
<circle clip-path="url(#clip5303)" style="fill:#000000; stroke:none; fill-opacity:1" cx="945.134" cy="246.349" r="18"/>
<circle clip-path="url(#clip5303)" style="fill:#e26f46; stroke:none; fill-opacity:1" cx="945.134" cy="246.349" r="14"/>
<circle clip-path="url(#clip5303)" style="fill:#000000; stroke:none; fill-opacity:1" cx="1046.32" cy="242.447" r="18"/>
<circle clip-path="url(#clip5303)" style="fill:#e26f46; stroke:none; fill-opacity:1" cx="1046.32" cy="242.447" r="14"/>
<circle clip-path="url(#clip5303)" style="fill:#000000; stroke:none; fill-opacity:1" cx="1147.51" cy="236.36" r="18"/>
<circle clip-path="url(#clip5303)" style="fill:#e26f46; stroke:none; fill-opacity:1" cx="1147.51" cy="236.36" r="14"/>
<circle clip-path="url(#clip5303)" style="fill:#000000; stroke:none; fill-opacity:1" cx="1248.69" cy="232.302" r="18"/>
<circle clip-path="url(#clip5303)" style="fill:#e26f46; stroke:none; fill-opacity:1" cx="1248.69" cy="232.302" r="14"/>
<circle clip-path="url(#clip5303)" style="fill:#000000; stroke:none; fill-opacity:1" cx="1349.88" cy="236.36" r="18"/>
<circle clip-path="url(#clip5303)" style="fill:#e26f46; stroke:none; fill-opacity:1" cx="1349.88" cy="236.36" r="14"/>
<circle clip-path="url(#clip5303)" style="fill:#000000; stroke:none; fill-opacity:1" cx="1451.06" cy="242.447" r="18"/>
<circle clip-path="url(#clip5303)" style="fill:#e26f46; stroke:none; fill-opacity:1" cx="1451.06" cy="242.447" r="14"/>
<circle clip-path="url(#clip5303)" style="fill:#000000; stroke:none; fill-opacity:1" cx="1552.25" cy="246.349" r="18"/>
<circle clip-path="url(#clip5303)" style="fill:#e26f46; stroke:none; fill-opacity:1" cx="1552.25" cy="246.349" r="14"/>
<circle clip-path="url(#clip5303)" style="fill:#000000; stroke:none; fill-opacity:1" cx="1653.43" cy="248.534" r="18"/>
<circle clip-path="url(#clip5303)" style="fill:#e26f46; stroke:none; fill-opacity:1" cx="1653.43" cy="248.534" r="14"/>
<circle clip-path="url(#clip5303)" style="fill:#000000; stroke:none; fill-opacity:1" cx="1754.62" cy="249.793" r="18"/>
<circle clip-path="url(#clip5303)" style="fill:#e26f46; stroke:none; fill-opacity:1" cx="1754.62" cy="249.793" r="14"/>
<circle clip-path="url(#clip5303)" style="fill:#000000; stroke:none; fill-opacity:1" cx="1855.81" cy="250.563" r="18"/>
<circle clip-path="url(#clip5303)" style="fill:#e26f46; stroke:none; fill-opacity:1" cx="1855.81" cy="250.563" r="14"/>
<circle clip-path="url(#clip5303)" style="fill:#000000; stroke:none; fill-opacity:1" cx="1956.99" cy="251.061" r="18"/>
<circle clip-path="url(#clip5303)" style="fill:#e26f46; stroke:none; fill-opacity:1" cx="1956.99" cy="251.061" r="14"/>
<circle clip-path="url(#clip5303)" style="fill:#000000; stroke:none; fill-opacity:1" cx="2058.18" cy="251.398" r="18"/>
<circle clip-path="url(#clip5303)" style="fill:#e26f46; stroke:none; fill-opacity:1" cx="2058.18" cy="251.398" r="14"/>
<circle clip-path="url(#clip5303)" style="fill:#000000; stroke:none; fill-opacity:1" cx="2159.36" cy="251.637" r="18"/>
<circle clip-path="url(#clip5303)" style="fill:#e26f46; stroke:none; fill-opacity:1" cx="2159.36" cy="251.637" r="14"/>
<circle clip-path="url(#clip5303)" style="fill:#000000; stroke:none; fill-opacity:1" cx="2260.55" cy="251.812" r="18"/>
<circle clip-path="url(#clip5303)" style="fill:#e26f46; stroke:none; fill-opacity:1" cx="2260.55" cy="251.812" r="14"/>
<polyline clip-path="url(#clip5303)" style="stroke:#3da44d; stroke-width:4; stroke-opacity:1; fill:none" points="
  236.834,251.812 238.86,482.216 240.886,680.97 242.912,850.928 244.937,994.742 246.963,1114.87 248.989,1213.61 251.015,1293.06 253.04,1355.18 255.066,1401.77 
  257.092,1434.52 259.118,1454.95 261.143,1464.49 263.169,1464.43 265.195,1455.96 267.22,1440.19 269.246,1418.11 271.272,1390.65 273.298,1358.62 275.323,1322.78 
  277.349,1283.84 279.375,1242.4 281.401,1199.02 283.426,1154.22 285.452,1108.43 287.478,1062.07 289.504,1015.5 291.529,969.026 293.555,922.934 295.581,877.467 
  297.607,832.837 299.632,789.228 301.658,746.793 303.684,705.666 305.71,665.954 307.735,627.744 309.761,591.107 311.787,556.095 313.812,522.746 315.838,491.082 
  317.864,461.116 319.89,432.847 321.915,406.268 323.941,381.36 325.967,358.098 327.993,336.45 330.018,316.378 332.044,297.842 334.07,280.793 336.096,265.183 
  338.121,250.958 340.147,238.064 342.173,226.444 344.199,216.041 346.224,206.796 348.25,198.65 350.276,191.545 352.302,185.42 354.327,180.219 356.353,175.883 
  358.379,172.356 360.405,169.583 362.43,167.509 364.456,166.083 366.482,165.253 368.507,164.97 370.533,165.186 372.559,165.857 374.585,166.937 376.61,168.386 
  378.636,170.163 380.662,172.23 382.688,174.551 384.713,177.093 386.739,179.823 388.765,182.711 390.791,185.729 392.816,188.85 394.842,192.049 396.868,195.304 
  398.894,198.593 400.919,201.896 402.945,205.196 404.971,208.477 406.997,211.723 409.022,214.92 411.048,218.058 413.074,221.124 415.099,224.109 417.125,227.005 
  419.151,229.804 421.177,232.501 423.202,235.089 425.228,237.565 427.254,239.925 429.28,242.167 431.305,244.288 433.331,246.288 435.357,248.166 437.383,249.922 
  439.408,251.556 441.434,253.071 443.46,254.468 445.486,255.748 447.511,256.914 449.537,257.969 451.563,258.916 453.589,259.759 455.614,260.5 457.64,261.144 
  459.666,261.695 461.691,262.156 463.717,262.532 465.743,262.828 467.769,263.046 469.794,263.193 471.82,263.271 473.846,263.286 475.872,263.242 477.897,263.142 
  479.923,262.991 481.949,262.794 483.975,262.555 486,262.276 488.026,261.963 490.052,261.618 492.078,261.246 494.103,260.85 496.129,260.433 498.155,259.999 
  500.181,259.551 502.206,259.091 504.232,258.623 506.258,258.148 508.284,257.67 510.309,257.191 512.335,256.713 514.361,256.238 516.386,255.767 518.412,255.304 
  520.438,254.849 522.464,254.404 524.489,253.969 526.515,253.548 528.541,253.139 530.567,252.745 532.592,252.366 534.618,252.003 536.644,251.657 538.67,251.327 
  540.695,251.015 542.721,250.72 544.747,250.444 546.773,250.185 548.798,249.945 550.824,249.722 552.85,249.517 554.876,249.33 556.901,249.161 558.927,249.008 
  560.953,248.873 562.978,248.753 565.004,248.65 567.03,248.562 569.056,248.489 571.081,248.43 573.107,248.385 575.133,248.354 577.159,248.334 579.184,248.327 
  581.21,248.331 583.236,248.345 585.262,248.369 587.287,248.402 589.313,248.444 591.339,248.494 593.365,248.551 595.39,248.614 597.416,248.684 599.442,248.758 
  601.468,248.837 603.493,248.92 605.519,249.006 607.545,249.096 609.57,249.187 611.596,249.28 613.622,249.374 615.648,249.469 617.673,249.564 619.699,249.659 
  621.725,249.753 623.751,249.846 625.776,249.937 627.802,250.027 629.828,250.114 631.854,250.199 633.879,250.281 635.905,250.36 637.931,250.436 639.957,250.508 
  641.982,250.576 644.008,250.641 646.034,250.702 648.06,250.758 650.085,250.811 652.111,250.859 654.137,250.903 656.163,250.942 658.188,250.977 660.214,251.008 
  662.24,251.034 664.265,251.056 666.291,251.073 668.317,251.086 670.343,251.095 672.368,251.1 674.394,251.101 676.42,251.098 678.446,251.091 680.471,251.081 
  682.497,251.067 684.523,251.049 686.549,251.028 688.574,251.005 690.6,250.978 692.626,250.948 694.652,250.916 696.677,250.882 698.703,250.845 700.729,250.806 
  702.755,250.765 704.78,250.722 706.806,250.678 708.832,250.632 710.857,250.586 712.883,250.537 714.909,250.488 716.935,250.439 718.96,250.388 720.986,250.337 
  723.012,250.286 725.038,250.234 727.063,250.183 729.089,250.131 731.115,250.08 733.141,250.029 735.166,249.978 737.192,249.928 739.218,249.878 741.244,249.829 
  743.269,249.781 745.295,249.734 747.321,249.688 749.347,249.642 751.372,249.598 753.398,249.555 755.424,249.513 757.449,249.472 759.475,249.432 761.501,249.393 
  763.527,249.356 765.552,249.32 767.578,249.285 769.604,249.252 771.63,249.219 773.655,249.188 775.681,249.158 777.707,249.13 779.733,249.102 781.758,249.076 
  783.784,249.05 785.81,249.026 787.836,249.003 789.861,248.981 791.887,248.959 793.913,248.939 795.939,248.919 797.964,248.9 799.99,248.882 802.016,248.865 
  804.042,248.848 806.067,248.831 808.093,248.815 810.119,248.8 812.144,248.784 814.17,248.769 816.196,248.754 818.222,248.74 820.247,248.725 822.273,248.71 
  824.299,248.695 826.325,248.68 828.35,248.665 830.376,248.649 832.402,248.634 834.428,248.617 836.453,248.601 838.479,248.583 840.505,248.566 842.531,248.547 
  844.556,248.528 846.582,248.508 848.608,248.488 850.634,248.466 852.659,248.444 854.685,248.421 856.711,248.397 858.736,248.372 860.762,248.346 862.788,248.319 
  864.814,248.291 866.839,248.262 868.865,248.232 870.891,248.201 872.917,248.168 874.942,248.135 876.968,248.101 878.994,248.065 881.02,248.028 883.045,247.99 
  885.071,247.951 887.097,247.911 889.123,247.87 891.148,247.827 893.174,247.784 895.2,247.739 897.226,247.694 899.251,247.647 901.277,247.599 903.303,247.55 
  905.329,247.5 907.354,247.45 909.38,247.398 911.406,247.345 913.431,247.291 915.457,247.237 917.483,247.181 919.509,247.125 921.534,247.068 923.56,247.01 
  925.586,246.951 927.612,246.892 929.637,246.831 931.663,246.77 933.689,246.709 935.715,246.646 937.74,246.584 939.766,246.52 941.792,246.456 943.818,246.391 
  945.843,246.326 947.869,246.26 949.895,246.194 951.921,246.127 953.946,246.06 955.972,245.992 957.998,245.924 960.023,245.855 962.049,245.786 964.075,245.716 
  966.101,245.646 968.126,245.576 970.152,245.505 972.178,245.434 974.204,245.363 976.229,245.291 978.255,245.218 980.281,245.145 982.307,245.072 984.332,244.998 
  986.358,244.924 988.384,244.85 990.41,244.775 992.435,244.699 994.461,244.623 996.487,244.547 998.513,244.47 1000.54,244.392 1002.56,244.314 1004.59,244.235 
  1006.62,244.156 1008.64,244.076 1010.67,243.996 1012.69,243.915 1014.72,243.833 1016.74,243.75 1018.77,243.667 1020.8,243.583 1022.82,243.498 1024.85,243.412 
  1026.87,243.326 1028.9,243.238 1030.92,243.15 1032.95,243.061 1034.98,242.97 1037,242.879 1039.03,242.787 1041.05,242.694 1043.08,242.6 1045.1,242.505 
  1047.13,242.408 1049.16,242.311 1051.18,242.212 1053.21,242.112 1055.23,242.012 1057.26,241.91 1059.28,241.806 1061.31,241.702 1063.34,241.596 1065.36,241.49 
  1067.39,241.382 1069.41,241.272 1071.44,241.162 1073.46,241.05 1075.49,240.937 1077.52,240.823 1079.54,240.708 1081.57,240.591 1083.59,240.474 1085.62,240.355 
  1087.65,240.235 1089.67,240.114 1091.7,239.992 1093.72,239.868 1095.75,239.744 1097.77,239.619 1099.8,239.492 1101.83,239.365 1103.85,239.237 1105.88,239.108 
  1107.9,238.978 1109.93,238.847 1111.95,238.716 1113.98,238.584 1116.01,238.451 1118.03,238.318 1120.06,238.185 1122.08,238.05 1124.11,237.916 1126.13,237.781 
  1128.16,237.646 1130.19,237.511 1132.21,237.376 1134.24,237.24 1136.26,237.105 1138.29,236.97 1140.31,236.835 1142.34,236.701 1144.37,236.567 1146.39,236.433 
  1148.42,236.3 1150.44,236.168 1152.47,236.036 1154.49,235.905 1156.52,235.775 1158.55,235.646 1160.57,235.518 1162.6,235.392 1164.62,235.267 1166.65,235.143 
  1168.67,235.02 1170.7,234.9 1172.73,234.781 1174.75,234.663 1176.78,234.548 1178.8,234.434 1180.83,234.323 1182.85,234.213 1184.88,234.106 1186.91,234.002 
  1188.93,233.899 1190.96,233.799 1192.98,233.702 1195.01,233.608 1197.04,233.516 1199.06,233.427 1201.09,233.341 1203.11,233.257 1205.14,233.177 1207.16,233.1 
  1209.19,233.027 1211.22,232.956 1213.24,232.889 1215.27,232.825 1217.29,232.765 1219.32,232.708 1221.34,232.655 1223.37,232.605 1225.4,232.559 1227.42,232.516 
  1229.45,232.478 1231.47,232.443 1233.5,232.412 1235.52,232.384 1237.55,232.361 1239.58,232.341 1241.6,232.326 1243.63,232.314 1245.65,232.306 1247.68,232.302 
  1249.7,232.302 1251.73,232.306 1253.76,232.314 1255.78,232.326 1257.81,232.341 1259.83,232.361 1261.86,232.384 1263.88,232.412 1265.91,232.443 1267.94,232.478 
  1269.96,232.516 1271.99,232.559 1274.01,232.605 1276.04,232.655 1278.06,232.708 1280.09,232.765 1282.12,232.825 1284.14,232.889 1286.17,232.956 1288.19,233.027 
  1290.22,233.1 1292.24,233.177 1294.27,233.257 1296.3,233.341 1298.32,233.427 1300.35,233.516 1302.37,233.608 1304.4,233.702 1306.42,233.799 1308.45,233.899 
  1310.48,234.002 1312.5,234.106 1314.53,234.213 1316.55,234.323 1318.58,234.434 1320.61,234.548 1322.63,234.663 1324.66,234.781 1326.68,234.9 1328.71,235.02 
  1330.73,235.143 1332.76,235.267 1334.79,235.392 1336.81,235.518 1338.84,235.646 1340.86,235.775 1342.89,235.905 1344.91,236.036 1346.94,236.168 1348.97,236.3 
  1350.99,236.433 1353.02,236.567 1355.04,236.701 1357.07,236.835 1359.09,236.97 1361.12,237.105 1363.15,237.24 1365.17,237.376 1367.2,237.511 1369.22,237.646 
  1371.25,237.781 1373.27,237.916 1375.3,238.05 1377.33,238.185 1379.35,238.318 1381.38,238.451 1383.4,238.584 1385.43,238.716 1387.45,238.847 1389.48,238.978 
  1391.51,239.108 1393.53,239.237 1395.56,239.365 1397.58,239.492 1399.61,239.619 1401.63,239.744 1403.66,239.868 1405.69,239.992 1407.71,240.114 1409.74,240.235 
  1411.76,240.355 1413.79,240.474 1415.81,240.591 1417.84,240.708 1419.87,240.823 1421.89,240.937 1423.92,241.05 1425.94,241.162 1427.97,241.272 1430,241.382 
  1432.02,241.49 1434.05,241.596 1436.07,241.702 1438.1,241.806 1440.12,241.91 1442.15,242.012 1444.18,242.112 1446.2,242.212 1448.23,242.311 1450.25,242.408 
  1452.28,242.505 1454.3,242.6 1456.33,242.694 1458.36,242.787 1460.38,242.879 1462.41,242.97 1464.43,243.061 1466.46,243.15 1468.48,243.238 1470.51,243.326 
  1472.54,243.412 1474.56,243.498 1476.59,243.583 1478.61,243.667 1480.64,243.75 1482.66,243.833 1484.69,243.915 1486.72,243.996 1488.74,244.076 1490.77,244.156 
  1492.79,244.235 1494.82,244.314 1496.84,244.392 1498.87,244.47 1500.9,244.547 1502.92,244.623 1504.95,244.699 1506.97,244.775 1509,244.85 1511.02,244.924 
  1513.05,244.998 1515.08,245.072 1517.1,245.145 1519.13,245.218 1521.15,245.291 1523.18,245.363 1525.2,245.434 1527.23,245.505 1529.26,245.576 1531.28,245.646 
  1533.31,245.716 1535.33,245.786 1537.36,245.855 1539.39,245.924 1541.41,245.992 1543.44,246.06 1545.46,246.127 1547.49,246.194 1549.51,246.26 1551.54,246.326 
  1553.57,246.391 1555.59,246.456 1557.62,246.52 1559.64,246.584 1561.67,246.646 1563.69,246.709 1565.72,246.77 1567.75,246.831 1569.77,246.892 1571.8,246.951 
  1573.82,247.01 1575.85,247.068 1577.87,247.125 1579.9,247.181 1581.93,247.237 1583.95,247.291 1585.98,247.345 1588,247.398 1590.03,247.45 1592.05,247.5 
  1594.08,247.55 1596.11,247.599 1598.13,247.647 1600.16,247.694 1602.18,247.739 1604.21,247.784 1606.23,247.827 1608.26,247.87 1610.29,247.911 1612.31,247.951 
  1614.34,247.99 1616.36,248.028 1618.39,248.065 1620.41,248.101 1622.44,248.135 1624.47,248.168 1626.49,248.201 1628.52,248.232 1630.54,248.262 1632.57,248.291 
  1634.59,248.319 1636.62,248.346 1638.65,248.372 1640.67,248.397 1642.7,248.421 1644.72,248.444 1646.75,248.466 1648.78,248.488 1650.8,248.508 1652.83,248.528 
  1654.85,248.547 1656.88,248.566 1658.9,248.583 1660.93,248.601 1662.96,248.617 1664.98,248.634 1667.01,248.649 1669.03,248.665 1671.06,248.68 1673.08,248.695 
  1675.11,248.71 1677.14,248.725 1679.16,248.74 1681.19,248.754 1683.21,248.769 1685.24,248.784 1687.26,248.8 1689.29,248.815 1691.32,248.831 1693.34,248.848 
  1695.37,248.865 1697.39,248.882 1699.42,248.9 1701.44,248.919 1703.47,248.939 1705.5,248.959 1707.52,248.981 1709.55,249.003 1711.57,249.026 1713.6,249.05 
  1715.62,249.076 1717.65,249.102 1719.68,249.13 1721.7,249.158 1723.73,249.188 1725.75,249.219 1727.78,249.252 1729.8,249.285 1731.83,249.32 1733.86,249.356 
  1735.88,249.393 1737.91,249.432 1739.93,249.472 1741.96,249.513 1743.98,249.555 1746.01,249.598 1748.04,249.642 1750.06,249.688 1752.09,249.734 1754.11,249.781 
  1756.14,249.829 1758.16,249.878 1760.19,249.928 1762.22,249.978 1764.24,250.029 1766.27,250.08 1768.29,250.131 1770.32,250.183 1772.35,250.234 1774.37,250.286 
  1776.4,250.337 1778.42,250.388 1780.45,250.439 1782.47,250.488 1784.5,250.537 1786.53,250.586 1788.55,250.632 1790.58,250.678 1792.6,250.722 1794.63,250.765 
  1796.65,250.806 1798.68,250.845 1800.71,250.882 1802.73,250.916 1804.76,250.948 1806.78,250.978 1808.81,251.005 1810.83,251.028 1812.86,251.049 1814.89,251.067 
  1816.91,251.081 1818.94,251.091 1820.96,251.098 1822.99,251.101 1825.01,251.1 1827.04,251.095 1829.07,251.086 1831.09,251.073 1833.12,251.056 1835.14,251.034 
  1837.17,251.008 1839.19,250.977 1841.22,250.942 1843.25,250.903 1845.27,250.859 1847.3,250.811 1849.32,250.758 1851.35,250.702 1853.37,250.641 1855.4,250.576 
  1857.43,250.508 1859.45,250.436 1861.48,250.36 1863.5,250.281 1865.53,250.199 1867.55,250.114 1869.58,250.027 1871.61,249.937 1873.63,249.846 1875.66,249.753 
  1877.68,249.659 1879.71,249.564 1881.74,249.469 1883.76,249.374 1885.79,249.28 1887.81,249.187 1889.84,249.096 1891.86,249.006 1893.89,248.92 1895.92,248.837 
  1897.94,248.758 1899.97,248.684 1901.99,248.614 1904.02,248.551 1906.04,248.494 1908.07,248.444 1910.1,248.402 1912.12,248.369 1914.15,248.345 1916.17,248.331 
  1918.2,248.327 1920.22,248.334 1922.25,248.354 1924.28,248.385 1926.3,248.43 1928.33,248.489 1930.35,248.562 1932.38,248.65 1934.4,248.753 1936.43,248.873 
  1938.46,249.008 1940.48,249.161 1942.51,249.33 1944.53,249.517 1946.56,249.722 1948.58,249.945 1950.61,250.185 1952.64,250.444 1954.66,250.72 1956.69,251.015 
  1958.71,251.327 1960.74,251.657 1962.76,252.003 1964.79,252.366 1966.82,252.745 1968.84,253.139 1970.87,253.548 1972.89,253.969 1974.92,254.404 1976.94,254.849 
  1978.97,255.304 1981,255.767 1983.02,256.238 1985.05,256.713 1987.07,257.191 1989.1,257.67 1991.13,258.148 1993.15,258.623 1995.18,259.091 1997.2,259.551 
  1999.23,259.999 2001.25,260.433 2003.28,260.85 2005.31,261.246 2007.33,261.618 2009.36,261.963 2011.38,262.276 2013.41,262.555 2015.43,262.794 2017.46,262.991 
  2019.49,263.142 2021.51,263.242 2023.54,263.286 2025.56,263.271 2027.59,263.193 2029.61,263.046 2031.64,262.828 2033.67,262.532 2035.69,262.156 2037.72,261.695 
  2039.74,261.144 2041.77,260.5 2043.79,259.759 2045.82,258.916 2047.85,257.969 2049.87,256.914 2051.9,255.748 2053.92,254.468 2055.95,253.071 2057.97,251.556 
  2060,249.922 2062.03,248.166 2064.05,246.288 2066.08,244.288 2068.1,242.167 2070.13,239.925 2072.15,237.565 2074.18,235.089 2076.21,232.501 2078.23,229.804 
  2080.26,227.005 2082.28,224.109 2084.31,221.124 2086.33,218.058 2088.36,214.92 2090.39,211.723 2092.41,208.477 2094.44,205.196 2096.46,201.896 2098.49,198.593 
  2100.51,195.304 2102.54,192.049 2104.57,188.85 2106.59,185.729 2108.62,182.711 2110.64,179.823 2112.67,177.093 2114.7,174.551 2116.72,172.23 2118.75,170.163 
  2120.77,168.386 2122.8,166.937 2124.82,165.857 2126.85,165.186 2128.88,164.97 2130.9,165.253 2132.93,166.083 2134.95,167.509 2136.98,169.583 2139,172.356 
  2141.03,175.883 2143.06,180.219 2145.08,185.42 2147.11,191.545 2149.13,198.65 2151.16,206.796 2153.18,216.041 2155.21,226.444 2157.24,238.064 2159.26,250.958 
  2161.29,265.183 2163.31,280.793 2165.34,297.842 2167.36,316.378 2169.39,336.45 2171.42,358.098 2173.44,381.36 2175.47,406.268 2177.49,432.847 2179.52,461.116 
  2181.54,491.082 2183.57,522.746 2185.6,556.095 2187.62,591.107 2189.65,627.744 2191.67,665.954 2193.7,705.666 2195.72,746.793 2197.75,789.228 2199.78,832.837 
  2201.8,877.467 2203.83,922.934 2205.85,969.026 2207.88,1015.5 2209.9,1062.07 2211.93,1108.43 2213.96,1154.22 2215.98,1199.02 2218.01,1242.4 2220.03,1283.84 
  2222.06,1322.78 2224.09,1358.62 2226.11,1390.65 2228.14,1418.11 2230.16,1440.19 2232.19,1455.96 2234.21,1464.43 2236.24,1464.49 2238.27,1454.95 2240.29,1434.52 
  2242.32,1401.77 2244.34,1355.18 2246.37,1293.06 2248.39,1213.61 2250.42,1114.87 2252.45,994.742 2254.47,850.928 2256.5,680.97 2258.52,482.216 2260.55,251.812 
  
  "/>
<polygon clip-path="url(#clip5301)" points="
1685.51,451.424 2249.26,451.424 2249.26,209.504 1685.51,209.504 
  " fill="#ffffff" fill-rule="evenodd" fill-opacity="1"/>
<polyline clip-path="url(#clip5301)" style="stroke:#000000; stroke-width:4; stroke-opacity:1; fill:none" points="
  1685.51,451.424 2249.26,451.424 2249.26,209.504 1685.51,209.504 1685.51,451.424 
  "/>
<polyline clip-path="url(#clip5301)" style="stroke:#009af9; stroke-width:4; stroke-opacity:1; fill:none" points="
  1709.51,269.984 1853.51,269.984 
  "/>
<g clip-path="url(#clip5301)">
<text style="fill:#000000; fill-opacity:1; font-family:Arial,Helvetica Neue,Helvetica,sans-serif; font-size:48px; text-anchor:start;" transform="rotate(0, 1877.51, 287.484)" x="1877.51" y="287.484">Runge function</text>
</g>
<circle clip-path="url(#clip5301)" style="fill:#000000; stroke:none; fill-opacity:1" cx="1793.51" cy="330.464" r="25"/>
<circle clip-path="url(#clip5301)" style="fill:#e26f46; stroke:none; fill-opacity:1" cx="1793.51" cy="330.464" r="21"/>
<g clip-path="url(#clip5301)">
<text style="fill:#000000; fill-opacity:1; font-family:Arial,Helvetica Neue,Helvetica,sans-serif; font-size:48px; text-anchor:start;" transform="rotate(0, 1877.51, 347.964)" x="1877.51" y="347.964">Nodes</text>
</g>
<polyline clip-path="url(#clip5301)" style="stroke:#3da44d; stroke-width:4; stroke-opacity:1; fill:none" points="
  1709.51,390.944 1853.51,390.944 
  "/>
<g clip-path="url(#clip5301)">
<text style="fill:#000000; fill-opacity:1; font-family:Arial,Helvetica Neue,Helvetica,sans-serif; font-size:48px; text-anchor:start;" transform="rotate(0, 1877.51, 408.444)" x="1877.51" y="408.444">Intepolation</text>
</g>
</svg>
