<?xml version="1.0" encoding="utf-8"?>
<svg xmlns="http://www.w3.org/2000/svg" xmlns:xlink="http://www.w3.org/1999/xlink" width="600" height="400" viewBox="0 0 2400 1600">
<defs>
  <clipPath id="clip0300">
    <rect x="0" y="0" width="2000" height="2000"/>
  </clipPath>
</defs>
<defs>
  <clipPath id="clip0301">
    <rect x="0" y="0" width="2400" height="1600"/>
  </clipPath>
</defs>
<polygon clip-path="url(#clip0301)" points="
0,1600 2400,1600 2400,0 0,0 
  " fill="#ffffff" fill-rule="evenodd" fill-opacity="1"/>
<defs>
  <clipPath id="clip0302">
    <rect x="480" y="0" width="1681" height="1600"/>
  </clipPath>
</defs>
<polygon clip-path="url(#clip0301)" points="
176.123,1503.47 2321.26,1503.47 2321.26,125.984 176.123,125.984 
  " fill="#ffffff" fill-rule="evenodd" fill-opacity="1"/>
<defs>
  <clipPath id="clip0303">
    <rect x="176" y="125" width="2146" height="1378"/>
  </clipPath>
</defs>
<polyline clip-path="url(#clip0303)" style="stroke:#000000; stroke-width:2; stroke-opacity:0.1; fill:none" points="
  236.834,1503.47 236.834,125.984 
  "/>
<polyline clip-path="url(#clip0303)" style="stroke:#000000; stroke-width:2; stroke-opacity:0.1; fill:none" points="
  742.763,1503.47 742.763,125.984 
  "/>
<polyline clip-path="url(#clip0303)" style="stroke:#000000; stroke-width:2; stroke-opacity:0.1; fill:none" points="
  1248.69,1503.47 1248.69,125.984 
  "/>
<polyline clip-path="url(#clip0303)" style="stroke:#000000; stroke-width:2; stroke-opacity:0.1; fill:none" points="
  1754.62,1503.47 1754.62,125.984 
  "/>
<polyline clip-path="url(#clip0303)" style="stroke:#000000; stroke-width:2; stroke-opacity:0.1; fill:none" points="
  2260.55,1503.47 2260.55,125.984 
  "/>
<polyline clip-path="url(#clip0303)" style="stroke:#000000; stroke-width:2; stroke-opacity:0.1; fill:none" points="
  176.123,1270.84 2321.26,1270.84 
  "/>
<polyline clip-path="url(#clip0303)" style="stroke:#000000; stroke-width:2; stroke-opacity:0.1; fill:none" points="
  176.123,1023.18 2321.26,1023.18 
  "/>
<polyline clip-path="url(#clip0303)" style="stroke:#000000; stroke-width:2; stroke-opacity:0.1; fill:none" points="
  176.123,775.52 2321.26,775.52 
  "/>
<polyline clip-path="url(#clip0303)" style="stroke:#000000; stroke-width:2; stroke-opacity:0.1; fill:none" points="
  176.123,527.862 2321.26,527.862 
  "/>
<polyline clip-path="url(#clip0303)" style="stroke:#000000; stroke-width:2; stroke-opacity:0.1; fill:none" points="
  176.123,280.204 2321.26,280.204 
  "/>
<polyline clip-path="url(#clip0301)" style="stroke:#000000; stroke-width:4; stroke-opacity:1; fill:none" points="
  176.123,1503.47 2321.26,1503.47 
  "/>
<polyline clip-path="url(#clip0301)" style="stroke:#000000; stroke-width:4; stroke-opacity:1; fill:none" points="
  176.123,1503.47 176.123,125.984 
  "/>
<polyline clip-path="url(#clip0301)" style="stroke:#000000; stroke-width:4; stroke-opacity:1; fill:none" points="
  236.834,1503.47 236.834,1482.81 
  "/>
<polyline clip-path="url(#clip0301)" style="stroke:#000000; stroke-width:4; stroke-opacity:1; fill:none" points="
  742.763,1503.47 742.763,1482.81 
  "/>
<polyline clip-path="url(#clip0301)" style="stroke:#000000; stroke-width:4; stroke-opacity:1; fill:none" points="
  1248.69,1503.47 1248.69,1482.81 
  "/>
<polyline clip-path="url(#clip0301)" style="stroke:#000000; stroke-width:4; stroke-opacity:1; fill:none" points="
  1754.62,1503.47 1754.62,1482.81 
  "/>
<polyline clip-path="url(#clip0301)" style="stroke:#000000; stroke-width:4; stroke-opacity:1; fill:none" points="
  2260.55,1503.47 2260.55,1482.81 
  "/>
<polyline clip-path="url(#clip0301)" style="stroke:#000000; stroke-width:4; stroke-opacity:1; fill:none" points="
  176.123,1270.84 208.3,1270.84 
  "/>
<polyline clip-path="url(#clip0301)" style="stroke:#000000; stroke-width:4; stroke-opacity:1; fill:none" points="
  176.123,1023.18 208.3,1023.18 
  "/>
<polyline clip-path="url(#clip0301)" style="stroke:#000000; stroke-width:4; stroke-opacity:1; fill:none" points="
  176.123,775.52 208.3,775.52 
  "/>
<polyline clip-path="url(#clip0301)" style="stroke:#000000; stroke-width:4; stroke-opacity:1; fill:none" points="
  176.123,527.862 208.3,527.862 
  "/>
<polyline clip-path="url(#clip0301)" style="stroke:#000000; stroke-width:4; stroke-opacity:1; fill:none" points="
  176.123,280.204 208.3,280.204 
  "/>
<g clip-path="url(#clip0301)">
<text style="fill:#000000; fill-opacity:1; font-family:Arial,Helvetica Neue,Helvetica,sans-serif; font-size:48px; text-anchor:middle;" transform="rotate(0, 236.834, 1557.47)" x="236.834" y="1557.47">-1.0</text>
</g>
<g clip-path="url(#clip0301)">
<text style="fill:#000000; fill-opacity:1; font-family:Arial,Helvetica Neue,Helvetica,sans-serif; font-size:48px; text-anchor:middle;" transform="rotate(0, 742.763, 1557.47)" x="742.763" y="1557.47">-0.5</text>
</g>
<g clip-path="url(#clip0301)">
<text style="fill:#000000; fill-opacity:1; font-family:Arial,Helvetica Neue,Helvetica,sans-serif; font-size:48px; text-anchor:middle;" transform="rotate(0, 1248.69, 1557.47)" x="1248.69" y="1557.47">0.0</text>
</g>
<g clip-path="url(#clip0301)">
<text style="fill:#000000; fill-opacity:1; font-family:Arial,Helvetica Neue,Helvetica,sans-serif; font-size:48px; text-anchor:middle;" transform="rotate(0, 1754.62, 1557.47)" x="1754.62" y="1557.47">0.5</text>
</g>
<g clip-path="url(#clip0301)">
<text style="fill:#000000; fill-opacity:1; font-family:Arial,Helvetica Neue,Helvetica,sans-serif; font-size:48px; text-anchor:middle;" transform="rotate(0, 2260.55, 1557.47)" x="2260.55" y="1557.47">1.0</text>
</g>
<g clip-path="url(#clip0301)">
<text style="fill:#000000; fill-opacity:1; font-family:Arial,Helvetica Neue,Helvetica,sans-serif; font-size:48px; text-anchor:end;" transform="rotate(0, 152.123, 1288.34)" x="152.123" y="1288.34">-12</text>
</g>
<g clip-path="url(#clip0301)">
<text style="fill:#000000; fill-opacity:1; font-family:Arial,Helvetica Neue,Helvetica,sans-serif; font-size:48px; text-anchor:end;" transform="rotate(0, 152.123, 1040.68)" x="152.123" y="1040.68">-9</text>
</g>
<g clip-path="url(#clip0301)">
<text style="fill:#000000; fill-opacity:1; font-family:Arial,Helvetica Neue,Helvetica,sans-serif; font-size:48px; text-anchor:end;" transform="rotate(0, 152.123, 793.02)" x="152.123" y="793.02">-6</text>
</g>
<g clip-path="url(#clip0301)">
<text style="fill:#000000; fill-opacity:1; font-family:Arial,Helvetica Neue,Helvetica,sans-serif; font-size:48px; text-anchor:end;" transform="rotate(0, 152.123, 545.362)" x="152.123" y="545.362">-3</text>
</g>
<g clip-path="url(#clip0301)">
<text style="fill:#000000; fill-opacity:1; font-family:Arial,Helvetica Neue,Helvetica,sans-serif; font-size:48px; text-anchor:end;" transform="rotate(0, 152.123, 297.704)" x="152.123" y="297.704">0</text>
</g>
<g clip-path="url(#clip0301)">
<text style="fill:#000000; fill-opacity:1; font-family:Arial,Helvetica Neue,Helvetica,sans-serif; font-size:84px; text-anchor:middle;" transform="rotate(0, 1248.69, 73.2)" x="1248.69" y="73.2">Runge&apos;s phenomenon (Nodes = 17)</text>
</g>
<polyline clip-path="url(#clip0303)" style="stroke:#009af9; stroke-width:4; stroke-opacity:1; fill:none" points="
  236.834,277.029 238.86,277.017 240.886,277.005 242.912,276.992 244.937,276.98 246.963,276.967 248.989,276.954 251.015,276.942 253.04,276.929 255.066,276.916 
  257.092,276.903 259.118,276.89 261.143,276.877 263.169,276.864 265.195,276.851 267.22,276.838 269.246,276.824 271.272,276.811 273.298,276.797 275.323,276.784 
  277.349,276.77 279.375,276.756 281.401,276.742 283.426,276.728 285.452,276.714 287.478,276.7 289.504,276.686 291.529,276.672 293.555,276.657 295.581,276.643 
  297.607,276.629 299.632,276.614 301.658,276.599 303.684,276.584 305.71,276.57 307.735,276.555 309.761,276.539 311.787,276.524 313.812,276.509 315.838,276.494 
  317.864,276.478 319.89,276.463 321.915,276.447 323.941,276.431 325.967,276.416 327.993,276.4 330.018,276.384 332.044,276.368 334.07,276.351 336.096,276.335 
  338.121,276.319 340.147,276.302 342.173,276.285 344.199,276.269 346.224,276.252 348.25,276.235 350.276,276.218 352.302,276.201 354.327,276.183 356.353,276.166 
  358.379,276.148 360.405,276.131 362.43,276.113 364.456,276.095 366.482,276.077 368.507,276.059 370.533,276.041 372.559,276.023 374.585,276.004 376.61,275.986 
  378.636,275.967 380.662,275.948 382.688,275.93 384.713,275.911 386.739,275.891 388.765,275.872 390.791,275.853 392.816,275.833 394.842,275.814 396.868,275.794 
  398.894,275.774 400.919,275.754 402.945,275.734 404.971,275.713 406.997,275.693 409.022,275.672 411.048,275.651 413.074,275.631 415.099,275.61 417.125,275.588 
  419.151,275.567 421.177,275.546 423.202,275.524 425.228,275.502 427.254,275.48 429.28,275.458 431.305,275.436 433.331,275.414 435.357,275.391 437.383,275.369 
  439.408,275.346 441.434,275.323 443.46,275.3 445.486,275.276 447.511,275.253 449.537,275.229 451.563,275.206 453.589,275.182 455.614,275.158 457.64,275.133 
  459.666,275.109 461.691,275.084 463.717,275.059 465.743,275.034 467.769,275.009 469.794,274.984 471.82,274.958 473.846,274.933 475.872,274.907 477.897,274.881 
  479.923,274.854 481.949,274.828 483.975,274.801 486,274.774 488.026,274.747 490.052,274.72 492.078,274.693 494.103,274.665 496.129,274.637 498.155,274.609 
  500.181,274.581 502.206,274.552 504.232,274.524 506.258,274.495 508.284,274.466 510.309,274.436 512.335,274.407 514.361,274.377 516.386,274.347 518.412,274.317 
  520.438,274.286 522.464,274.256 524.489,274.225 526.515,274.194 528.541,274.162 530.567,274.131 532.592,274.099 534.618,274.067 536.644,274.034 538.67,274.002 
  540.695,273.969 542.721,273.936 544.747,273.902 546.773,273.869 548.798,273.835 550.824,273.801 552.85,273.766 554.876,273.732 556.901,273.697 558.927,273.661 
  560.953,273.626 562.978,273.59 565.004,273.554 567.03,273.518 569.056,273.481 571.081,273.444 573.107,273.407 575.133,273.369 577.159,273.331 579.184,273.293 
  581.21,273.255 583.236,273.216 585.262,273.177 587.287,273.137 589.313,273.098 591.339,273.057 593.365,273.017 595.39,272.976 597.416,272.935 599.442,272.894 
  601.468,272.852 603.493,272.81 605.519,272.768 607.545,272.725 609.57,272.682 611.596,272.638 613.622,272.594 615.648,272.55 617.673,272.505 619.699,272.46 
  621.725,272.415 623.751,272.369 625.776,272.323 627.802,272.276 629.828,272.229 631.854,272.182 633.879,272.134 635.905,272.086 637.931,272.037 639.957,271.988 
  641.982,271.939 644.008,271.889 646.034,271.839 648.06,271.788 650.085,271.737 652.111,271.685 654.137,271.633 656.163,271.58 658.188,271.527 660.214,271.474 
  662.24,271.42 664.265,271.365 666.291,271.311 668.317,271.255 670.343,271.199 672.368,271.143 674.394,271.086 676.42,271.028 678.446,270.97 680.471,270.912 
  682.497,270.853 684.523,270.793 686.549,270.733 688.574,270.672 690.6,270.611 692.626,270.549 694.652,270.487 696.677,270.424 698.703,270.36 700.729,270.296 
  702.755,270.231 704.78,270.166 706.806,270.1 708.832,270.033 710.857,269.966 712.883,269.898 714.909,269.83 716.935,269.76 718.96,269.691 720.986,269.62 
  723.012,269.549 725.038,269.477 727.063,269.404 729.089,269.331 731.115,269.257 733.141,269.182 735.166,269.107 737.192,269.031 739.218,268.954 741.244,268.876 
  743.269,268.798 745.295,268.719 747.321,268.639 749.347,268.558 751.372,268.476 753.398,268.394 755.424,268.311 757.449,268.227 759.475,268.142 761.501,268.056 
  763.527,267.97 765.552,267.882 767.578,267.794 769.604,267.705 771.63,267.614 773.655,267.523 775.681,267.431 777.707,267.338 779.733,267.245 781.758,267.15 
  783.784,267.054 785.81,266.957 787.836,266.859 789.861,266.76 791.887,266.66 793.913,266.559 795.939,266.457 797.964,266.354 799.99,266.25 802.016,266.145 
  804.042,266.039 806.067,265.931 808.093,265.822 810.119,265.713 812.144,265.602 814.17,265.49 816.196,265.376 818.222,265.262 820.247,265.146 822.273,265.029 
  824.299,264.91 826.325,264.791 828.35,264.67 830.376,264.548 832.402,264.424 834.428,264.299 836.453,264.173 838.479,264.045 840.505,263.916 842.531,263.786 
  844.556,263.654 846.582,263.521 848.608,263.386 850.634,263.249 852.659,263.111 854.685,262.972 856.711,262.831 858.736,262.688 860.762,262.544 862.788,262.398 
  864.814,262.251 866.839,262.102 868.865,261.951 870.891,261.799 872.917,261.644 874.942,261.488 876.968,261.331 878.994,261.171 881.02,261.01 883.045,260.846 
  885.071,260.681 887.097,260.514 889.123,260.345 891.148,260.174 893.174,260.001 895.2,259.826 897.226,259.65 899.251,259.471 901.277,259.29 903.303,259.106 
  905.329,258.921 907.354,258.734 909.38,258.544 911.406,258.352 913.431,258.158 915.457,257.961 917.483,257.763 919.509,257.562 921.534,257.358 923.56,257.152 
  925.586,256.944 927.612,256.733 929.637,256.52 931.663,256.305 933.689,256.086 935.715,255.865 937.74,255.642 939.766,255.416 941.792,255.187 943.818,254.955 
  945.843,254.721 947.869,254.484 949.895,254.244 951.921,254.001 953.946,253.756 955.972,253.507 957.998,253.256 960.023,253.001 962.049,252.744 964.075,252.483 
  966.101,252.22 968.126,251.953 970.152,251.683 972.178,251.41 974.204,251.133 976.229,250.854 978.255,250.571 980.281,250.285 982.307,249.995 984.332,249.702 
  986.358,249.405 988.384,249.105 990.41,248.802 992.435,248.495 994.461,248.184 996.487,247.87 998.513,247.553 1000.54,247.231 1002.56,246.906 1004.59,246.577 
  1006.62,246.244 1008.64,245.908 1010.67,245.568 1012.69,245.223 1014.72,244.875 1016.74,244.524 1018.77,244.168 1020.8,243.808 1022.82,243.444 1024.85,243.076 
  1026.87,242.705 1028.9,242.329 1030.92,241.949 1032.95,241.565 1034.98,241.177 1037,240.785 1039.03,240.389 1041.05,239.988 1043.08,239.584 1045.1,239.175 
  1047.13,238.762 1049.16,238.345 1051.18,237.924 1053.21,237.499 1055.23,237.07 1057.26,236.637 1059.28,236.199 1061.31,235.757 1063.34,235.312 1065.36,234.862 
  1067.39,234.409 1069.41,233.951 1071.44,233.489 1073.46,233.024 1075.49,232.554 1077.52,232.081 1079.54,231.604 1081.57,231.124 1083.59,230.64 1085.62,230.152 
  1087.65,229.66 1089.67,229.166 1091.7,228.668 1093.72,228.166 1095.75,227.662 1097.77,227.154 1099.8,226.644 1101.83,226.131 1103.85,225.615 1105.88,225.096 
  1107.9,224.575 1109.93,224.052 1111.95,223.527 1113.98,223 1116.01,222.47 1118.03,221.94 1120.06,221.407 1122.08,220.874 1124.11,220.339 1126.13,219.804 
  1128.16,219.268 1130.19,218.731 1132.21,218.195 1134.24,217.658 1136.26,217.122 1138.29,216.586 1140.31,216.051 1142.34,215.517 1144.37,214.984 1146.39,214.453 
  1148.42,213.924 1150.44,213.398 1152.47,212.873 1154.49,212.352 1156.52,211.834 1158.55,211.32 1160.57,210.809 1162.6,210.303 1164.62,209.801 1166.65,209.304 
  1168.67,208.813 1170.7,208.327 1172.73,207.847 1174.75,207.374 1176.78,206.907 1178.8,206.448 1180.83,205.996 1182.85,205.552 1184.88,205.117 1186.91,204.69 
  1188.93,204.273 1190.96,203.865 1192.98,203.466 1195.01,203.079 1197.04,202.701 1199.06,202.335 1201.09,201.98 1203.11,201.637 1205.14,201.306 1207.16,200.987 
  1209.19,200.681 1211.22,200.389 1213.24,200.109 1215.27,199.844 1217.29,199.592 1219.32,199.355 1221.34,199.132 1223.37,198.924 1225.4,198.731 1227.42,198.554 
  1229.45,198.391 1231.47,198.245 1233.5,198.114 1235.52,198 1237.55,197.901 1239.58,197.819 1241.6,197.753 1243.63,197.703 1245.65,197.67 1247.68,197.654 
  1249.7,197.654 1251.73,197.67 1253.76,197.703 1255.78,197.753 1257.81,197.819 1259.83,197.901 1261.86,198 1263.88,198.114 1265.91,198.245 1267.94,198.391 
  1269.96,198.554 1271.99,198.731 1274.01,198.924 1276.04,199.132 1278.06,199.355 1280.09,199.592 1282.12,199.844 1284.14,200.109 1286.17,200.389 1288.19,200.681 
  1290.22,200.987 1292.24,201.306 1294.27,201.637 1296.3,201.98 1298.32,202.335 1300.35,202.701 1302.37,203.079 1304.4,203.466 1306.42,203.865 1308.45,204.273 
  1310.48,204.69 1312.5,205.117 1314.53,205.552 1316.55,205.996 1318.58,206.448 1320.61,206.907 1322.63,207.374 1324.66,207.847 1326.68,208.327 1328.71,208.813 
  1330.73,209.304 1332.76,209.801 1334.79,210.303 1336.81,210.809 1338.84,211.32 1340.86,211.834 1342.89,212.352 1344.91,212.873 1346.94,213.398 1348.97,213.924 
  1350.99,214.453 1353.02,214.984 1355.04,215.517 1357.07,216.051 1359.09,216.586 1361.12,217.122 1363.15,217.658 1365.17,218.195 1367.2,218.731 1369.22,219.268 
  1371.25,219.804 1373.27,220.339 1375.3,220.874 1377.33,221.407 1379.35,221.94 1381.38,222.47 1383.4,223 1385.43,223.527 1387.45,224.052 1389.48,224.575 
  1391.51,225.096 1393.53,225.615 1395.56,226.131 1397.58,226.644 1399.61,227.154 1401.63,227.662 1403.66,228.166 1405.69,228.668 1407.71,229.166 1409.74,229.66 
  1411.76,230.152 1413.79,230.64 1415.81,231.124 1417.84,231.604 1419.87,232.081 1421.89,232.554 1423.92,233.024 1425.94,233.489 1427.97,233.951 1430,234.409 
  1432.02,234.862 1434.05,235.312 1436.07,235.757 1438.1,236.199 1440.12,236.637 1442.15,237.07 1444.18,237.499 1446.2,237.924 1448.23,238.345 1450.25,238.762 
  1452.28,239.175 1454.3,239.584 1456.33,239.988 1458.36,240.389 1460.38,240.785 1462.41,241.177 1464.43,241.565 1466.46,241.949 1468.48,242.329 1470.51,242.705 
  1472.54,243.076 1474.56,243.444 1476.59,243.808 1478.61,244.168 1480.64,244.524 1482.66,244.875 1484.69,245.223 1486.72,245.568 1488.74,245.908 1490.77,246.244 
  1492.79,246.577 1494.82,246.906 1496.84,247.231 1498.87,247.553 1500.9,247.87 1502.92,248.184 1504.95,248.495 1506.97,248.802 1509,249.105 1511.02,249.405 
  1513.05,249.702 1515.08,249.995 1517.1,250.285 1519.13,250.571 1521.15,250.854 1523.18,251.133 1525.2,251.41 1527.23,251.683 1529.26,251.953 1531.28,252.22 
  1533.31,252.483 1535.33,252.744 1537.36,253.001 1539.39,253.256 1541.41,253.507 1543.44,253.756 1545.46,254.001 1547.49,254.244 1549.51,254.484 1551.54,254.721 
  1553.57,254.955 1555.59,255.187 1557.62,255.416 1559.64,255.642 1561.67,255.865 1563.69,256.086 1565.72,256.305 1567.75,256.52 1569.77,256.733 1571.8,256.944 
  1573.82,257.152 1575.85,257.358 1577.87,257.562 1579.9,257.763 1581.93,257.961 1583.95,258.158 1585.98,258.352 1588,258.544 1590.03,258.734 1592.05,258.921 
  1594.08,259.106 1596.11,259.29 1598.13,259.471 1600.16,259.65 1602.18,259.826 1604.21,260.001 1606.23,260.174 1608.26,260.345 1610.29,260.514 1612.31,260.681 
  1614.34,260.846 1616.36,261.01 1618.39,261.171 1620.41,261.331 1622.44,261.488 1624.47,261.644 1626.49,261.799 1628.52,261.951 1630.54,262.102 1632.57,262.251 
  1634.59,262.398 1636.62,262.544 1638.65,262.688 1640.67,262.831 1642.7,262.972 1644.72,263.111 1646.75,263.249 1648.78,263.386 1650.8,263.521 1652.83,263.654 
  1654.85,263.786 1656.88,263.916 1658.9,264.045 1660.93,264.173 1662.96,264.299 1664.98,264.424 1667.01,264.548 1669.03,264.67 1671.06,264.791 1673.08,264.91 
  1675.11,265.029 1677.14,265.146 1679.16,265.262 1681.19,265.376 1683.21,265.49 1685.24,265.602 1687.26,265.713 1689.29,265.822 1691.32,265.931 1693.34,266.039 
  1695.37,266.145 1697.39,266.25 1699.42,266.354 1701.44,266.457 1703.47,266.559 1705.5,266.66 1707.52,266.76 1709.55,266.859 1711.57,266.957 1713.6,267.054 
  1715.62,267.15 1717.65,267.245 1719.68,267.338 1721.7,267.431 1723.73,267.523 1725.75,267.614 1727.78,267.705 1729.8,267.794 1731.83,267.882 1733.86,267.97 
  1735.88,268.056 1737.91,268.142 1739.93,268.227 1741.96,268.311 1743.98,268.394 1746.01,268.476 1748.04,268.558 1750.06,268.639 1752.09,268.719 1754.11,268.798 
  1756.14,268.876 1758.16,268.954 1760.19,269.031 1762.22,269.107 1764.24,269.182 1766.27,269.257 1768.29,269.331 1770.32,269.404 1772.35,269.477 1774.37,269.549 
  1776.4,269.62 1778.42,269.691 1780.45,269.76 1782.47,269.83 1784.5,269.898 1786.53,269.966 1788.55,270.033 1790.58,270.1 1792.6,270.166 1794.63,270.231 
  1796.65,270.296 1798.68,270.36 1800.71,270.424 1802.73,270.487 1804.76,270.549 1806.78,270.611 1808.81,270.672 1810.83,270.733 1812.86,270.793 1814.89,270.853 
  1816.91,270.912 1818.94,270.97 1820.96,271.028 1822.99,271.086 1825.01,271.143 1827.04,271.199 1829.07,271.255 1831.09,271.311 1833.12,271.365 1835.14,271.42 
  1837.17,271.474 1839.19,271.527 1841.22,271.58 1843.25,271.633 1845.27,271.685 1847.3,271.737 1849.32,271.788 1851.35,271.839 1853.37,271.889 1855.4,271.939 
  1857.43,271.988 1859.45,272.037 1861.48,272.086 1863.5,272.134 1865.53,272.182 1867.55,272.229 1869.58,272.276 1871.61,272.323 1873.63,272.369 1875.66,272.415 
  1877.68,272.46 1879.71,272.505 1881.74,272.55 1883.76,272.594 1885.79,272.638 1887.81,272.682 1889.84,272.725 1891.86,272.768 1893.89,272.81 1895.92,272.852 
  1897.94,272.894 1899.97,272.935 1901.99,272.976 1904.02,273.017 1906.04,273.057 1908.07,273.098 1910.1,273.137 1912.12,273.177 1914.15,273.216 1916.17,273.255 
  1918.2,273.293 1920.22,273.331 1922.25,273.369 1924.28,273.407 1926.3,273.444 1928.33,273.481 1930.35,273.518 1932.38,273.554 1934.4,273.59 1936.43,273.626 
  1938.46,273.661 1940.48,273.697 1942.51,273.732 1944.53,273.766 1946.56,273.801 1948.58,273.835 1950.61,273.869 1952.64,273.902 1954.66,273.936 1956.69,273.969 
  1958.71,274.002 1960.74,274.034 1962.76,274.067 1964.79,274.099 1966.82,274.131 1968.84,274.162 1970.87,274.194 1972.89,274.225 1974.92,274.256 1976.94,274.286 
  1978.97,274.317 1981,274.347 1983.02,274.377 1985.05,274.407 1987.07,274.436 1989.1,274.466 1991.13,274.495 1993.15,274.524 1995.18,274.552 1997.2,274.581 
  1999.23,274.609 2001.25,274.637 2003.28,274.665 2005.31,274.693 2007.33,274.72 2009.36,274.747 2011.38,274.774 2013.41,274.801 2015.43,274.828 2017.46,274.854 
  2019.49,274.881 2021.51,274.907 2023.54,274.933 2025.56,274.958 2027.59,274.984 2029.61,275.009 2031.64,275.034 2033.67,275.059 2035.69,275.084 2037.72,275.109 
  2039.74,275.133 2041.77,275.158 2043.79,275.182 2045.82,275.206 2047.85,275.229 2049.87,275.253 2051.9,275.276 2053.92,275.3 2055.95,275.323 2057.97,275.346 
  2060,275.369 2062.03,275.391 2064.05,275.414 2066.08,275.436 2068.1,275.458 2070.13,275.48 2072.15,275.502 2074.18,275.524 2076.21,275.546 2078.23,275.567 
  2080.26,275.588 2082.28,275.61 2084.31,275.631 2086.33,275.651 2088.36,275.672 2090.39,275.693 2092.41,275.713 2094.44,275.734 2096.46,275.754 2098.49,275.774 
  2100.51,275.794 2102.54,275.814 2104.57,275.833 2106.59,275.853 2108.62,275.872 2110.64,275.891 2112.67,275.911 2114.7,275.93 2116.72,275.948 2118.75,275.967 
  2120.77,275.986 2122.8,276.004 2124.82,276.023 2126.85,276.041 2128.88,276.059 2130.9,276.077 2132.93,276.095 2134.95,276.113 2136.98,276.131 2139,276.148 
  2141.03,276.166 2143.06,276.183 2145.08,276.201 2147.11,276.218 2149.13,276.235 2151.16,276.252 2153.18,276.269 2155.21,276.285 2157.24,276.302 2159.26,276.319 
  2161.29,276.335 2163.31,276.351 2165.34,276.368 2167.36,276.384 2169.39,276.4 2171.42,276.416 2173.44,276.431 2175.47,276.447 2177.49,276.463 2179.52,276.478 
  2181.54,276.494 2183.57,276.509 2185.6,276.524 2187.62,276.539 2189.65,276.555 2191.67,276.57 2193.7,276.584 2195.72,276.599 2197.75,276.614 2199.78,276.629 
  2201.8,276.643 2203.83,276.657 2205.85,276.672 2207.88,276.686 2209.9,276.7 2211.93,276.714 2213.96,276.728 2215.98,276.742 2218.01,276.756 2220.03,276.77 
  2222.06,276.784 2224.09,276.797 2226.11,276.811 2228.14,276.824 2230.16,276.838 2232.19,276.851 2234.21,276.864 2236.24,276.877 2238.27,276.89 2240.29,276.903 
  2242.32,276.916 2244.34,276.929 2246.37,276.942 2248.39,276.954 2250.42,276.967 2252.45,276.98 2254.47,276.992 2256.5,277.005 2258.52,277.017 2260.55,277.029 
  
  "/>
<circle clip-path="url(#clip0303)" style="fill:#000000; stroke:none; fill-opacity:1" cx="236.834" cy="277.029" r="18"/>
<circle clip-path="url(#clip0303)" style="fill:#e26f46; stroke:none; fill-opacity:1" cx="236.834" cy="277.029" r="14"/>
<circle clip-path="url(#clip0303)" style="fill:#000000; stroke:none; fill-opacity:1" cx="363.317" cy="276.105" r="18"/>
<circle clip-path="url(#clip0303)" style="fill:#e26f46; stroke:none; fill-opacity:1" cx="363.317" cy="276.105" r="14"/>
<circle clip-path="url(#clip0303)" style="fill:#000000; stroke:none; fill-opacity:1" cx="489.799" cy="274.724" r="18"/>
<circle clip-path="url(#clip0303)" style="fill:#e26f46; stroke:none; fill-opacity:1" cx="489.799" cy="274.724" r="14"/>
<circle clip-path="url(#clip0303)" style="fill:#000000; stroke:none; fill-opacity:1" cx="616.281" cy="272.536" r="18"/>
<circle clip-path="url(#clip0303)" style="fill:#e26f46; stroke:none; fill-opacity:1" cx="616.281" cy="272.536" r="14"/>
<circle clip-path="url(#clip0303)" style="fill:#000000; stroke:none; fill-opacity:1" cx="742.763" cy="268.818" r="18"/>
<circle clip-path="url(#clip0303)" style="fill:#e26f46; stroke:none; fill-opacity:1" cx="742.763" cy="268.818" r="14"/>
<circle clip-path="url(#clip0303)" style="fill:#000000; stroke:none; fill-opacity:1" cx="869.245" cy="261.923" r="18"/>
<circle clip-path="url(#clip0303)" style="fill:#e26f46; stroke:none; fill-opacity:1" cx="869.245" cy="261.923" r="14"/>
<circle clip-path="url(#clip0303)" style="fill:#000000; stroke:none; fill-opacity:1" cx="995.727" cy="247.989" r="18"/>
<circle clip-path="url(#clip0303)" style="fill:#e26f46; stroke:none; fill-opacity:1" cx="995.727" cy="247.989" r="14"/>
<circle clip-path="url(#clip0303)" style="fill:#000000; stroke:none; fill-opacity:1" cx="1122.21" cy="220.841" r="18"/>
<circle clip-path="url(#clip0303)" style="fill:#e26f46; stroke:none; fill-opacity:1" cx="1122.21" cy="220.841" r="14"/>
<circle clip-path="url(#clip0303)" style="fill:#000000; stroke:none; fill-opacity:1" cx="1248.69" cy="197.652" r="18"/>
<circle clip-path="url(#clip0303)" style="fill:#e26f46; stroke:none; fill-opacity:1" cx="1248.69" cy="197.652" r="14"/>
<circle clip-path="url(#clip0303)" style="fill:#000000; stroke:none; fill-opacity:1" cx="1375.17" cy="220.841" r="18"/>
<circle clip-path="url(#clip0303)" style="fill:#e26f46; stroke:none; fill-opacity:1" cx="1375.17" cy="220.841" r="14"/>
<circle clip-path="url(#clip0303)" style="fill:#000000; stroke:none; fill-opacity:1" cx="1501.66" cy="247.989" r="18"/>
<circle clip-path="url(#clip0303)" style="fill:#e26f46; stroke:none; fill-opacity:1" cx="1501.66" cy="247.989" r="14"/>
<circle clip-path="url(#clip0303)" style="fill:#000000; stroke:none; fill-opacity:1" cx="1628.14" cy="261.923" r="18"/>
<circle clip-path="url(#clip0303)" style="fill:#e26f46; stroke:none; fill-opacity:1" cx="1628.14" cy="261.923" r="14"/>
<circle clip-path="url(#clip0303)" style="fill:#000000; stroke:none; fill-opacity:1" cx="1754.62" cy="268.818" r="18"/>
<circle clip-path="url(#clip0303)" style="fill:#e26f46; stroke:none; fill-opacity:1" cx="1754.62" cy="268.818" r="14"/>
<circle clip-path="url(#clip0303)" style="fill:#000000; stroke:none; fill-opacity:1" cx="1881.1" cy="272.536" r="18"/>
<circle clip-path="url(#clip0303)" style="fill:#e26f46; stroke:none; fill-opacity:1" cx="1881.1" cy="272.536" r="14"/>
<circle clip-path="url(#clip0303)" style="fill:#000000; stroke:none; fill-opacity:1" cx="2007.58" cy="274.724" r="18"/>
<circle clip-path="url(#clip0303)" style="fill:#e26f46; stroke:none; fill-opacity:1" cx="2007.58" cy="274.724" r="14"/>
<circle clip-path="url(#clip0303)" style="fill:#000000; stroke:none; fill-opacity:1" cx="2134.07" cy="276.105" r="18"/>
<circle clip-path="url(#clip0303)" style="fill:#e26f46; stroke:none; fill-opacity:1" cx="2134.07" cy="276.105" r="14"/>
<circle clip-path="url(#clip0303)" style="fill:#000000; stroke:none; fill-opacity:1" cx="2260.55" cy="277.029" r="18"/>
<circle clip-path="url(#clip0303)" style="fill:#e26f46; stroke:none; fill-opacity:1" cx="2260.55" cy="277.029" r="14"/>
<polyline clip-path="url(#clip0303)" style="stroke:#3da44d; stroke-width:4; stroke-opacity:1; fill:none" points="
  236.834,277.029 238.86,449.66 240.886,604.495 242.912,742.712 244.937,865.43 246.963,973.71 248.989,1068.56 251.015,1150.92 253.04,1221.71 255.066,1281.78 
  257.092,1331.93 259.118,1372.93 261.143,1405.5 263.169,1430.31 265.195,1448.02 267.22,1459.22 269.246,1464.49 271.272,1464.36 273.298,1459.33 275.323,1449.88 
  277.349,1436.46 279.375,1419.47 281.401,1399.31 283.426,1376.34 285.452,1350.9 287.478,1323.31 289.504,1293.87 291.529,1262.85 293.555,1230.5 295.581,1197.07 
  297.607,1162.77 299.632,1127.8 301.658,1092.36 303.684,1056.61 305.71,1020.71 307.735,984.81 309.761,949.037 311.787,913.512 313.812,878.344 315.838,843.631 
  317.864,809.462 319.89,775.916 321.915,743.061 323.941,710.962 325.967,679.671 327.993,649.235 330.018,619.696 332.044,591.086 334.07,563.434 336.096,536.763 
  338.121,511.09 340.147,486.429 342.173,462.786 344.199,440.168 346.224,418.574 348.25,398.003 350.276,378.448 352.302,359.901 354.327,342.352 356.353,325.785 
  358.379,310.186 360.405,295.537 362.43,281.819 364.456,269.012 366.482,257.092 368.507,246.038 370.533,235.824 372.559,226.425 374.585,217.816 376.61,209.971 
  378.636,202.861 380.662,196.461 382.688,190.742 384.713,185.677 386.739,181.239 388.765,177.399 390.791,174.13 392.816,171.405 394.842,169.196 396.868,167.476 
  398.894,166.22 400.919,165.4 402.945,164.992 404.971,164.97 406.997,165.309 409.022,165.986 411.048,166.977 413.074,168.259 415.099,169.809 417.125,171.607 
  419.151,173.632 421.177,175.862 423.202,178.279 425.228,180.864 427.254,183.599 429.28,186.465 431.305,189.448 433.331,192.529 435.357,195.696 437.383,198.931 
  439.408,202.223 441.434,205.557 443.46,208.921 445.486,212.303 447.511,215.692 449.537,219.078 451.563,222.45 453.589,225.8 455.614,229.118 457.64,232.397 
  459.666,235.628 461.691,238.806 463.717,241.924 465.743,244.975 467.769,247.955 469.794,250.859 471.82,253.682 473.846,256.421 475.872,259.072 477.897,261.632 
  479.923,264.098 481.949,266.469 483.975,268.742 486,270.917 488.026,272.991 490.052,274.965 492.078,276.837 494.103,278.608 496.129,280.277 498.155,281.846 
  500.181,283.314 502.206,284.683 504.232,285.954 506.258,287.127 508.284,288.205 510.309,289.189 512.335,290.081 514.361,290.883 516.386,291.597 518.412,292.224 
  520.438,292.769 522.464,293.232 524.489,293.617 526.515,293.926 528.541,294.162 530.567,294.327 532.592,294.424 534.618,294.457 536.644,294.427 538.67,294.339 
  540.695,294.194 542.721,293.996 544.747,293.747 546.773,293.45 548.798,293.109 550.824,292.726 552.85,292.304 554.876,291.845 556.901,291.353 558.927,290.83 
  560.953,290.279 562.978,289.702 565.004,289.103 567.03,288.482 569.056,287.844 571.081,287.19 573.107,286.523 575.133,285.844 577.159,285.157 579.184,284.462 
  581.21,283.763 583.236,283.061 585.262,282.357 587.287,281.655 589.313,280.955 591.339,280.259 593.365,279.568 595.39,278.885 597.416,278.21 599.442,277.544 
  601.468,276.89 603.493,276.248 605.519,275.619 607.545,275.004 609.57,274.404 611.596,273.821 613.622,273.254 615.648,272.704 617.673,272.173 619.699,271.66 
  621.725,271.166 623.751,270.691 625.776,270.237 627.802,269.802 629.828,269.388 631.854,268.995 633.879,268.622 635.905,268.27 637.931,267.939 639.957,267.628 
  641.982,267.338 644.008,267.068 646.034,266.818 648.06,266.589 650.085,266.379 652.111,266.188 654.137,266.017 656.163,265.864 658.188,265.73 660.214,265.613 
  662.24,265.514 664.265,265.432 666.291,265.365 668.317,265.315 670.343,265.28 672.368,265.259 674.394,265.253 676.42,265.26 678.446,265.279 680.471,265.311 
  682.497,265.355 684.523,265.409 686.549,265.473 688.574,265.547 690.6,265.63 692.626,265.721 694.652,265.819 696.677,265.924 698.703,266.036 700.729,266.153 
  702.755,266.275 704.78,266.401 706.806,266.531 708.832,266.664 710.857,266.799 712.883,266.936 714.909,267.074 716.935,267.213 718.96,267.352 720.986,267.49 
  723.012,267.628 725.038,267.764 727.063,267.898 729.089,268.029 731.115,268.158 733.141,268.283 735.166,268.404 737.192,268.521 739.218,268.633 741.244,268.741 
  743.269,268.843 745.295,268.939 747.321,269.029 749.347,269.113 751.372,269.191 753.398,269.262 755.424,269.326 757.449,269.382 759.475,269.432 761.501,269.473 
  763.527,269.507 765.552,269.533 767.578,269.551 769.604,269.562 771.63,269.563 773.655,269.557 775.681,269.543 777.707,269.52 779.733,269.489 781.758,269.45 
  783.784,269.403 785.81,269.348 787.836,269.284 789.861,269.213 791.887,269.133 793.913,269.046 795.939,268.951 797.964,268.848 799.99,268.738 802.016,268.621 
  804.042,268.496 806.067,268.364 808.093,268.226 810.119,268.081 812.144,267.929 814.17,267.772 816.196,267.608 818.222,267.438 820.247,267.263 822.273,267.082 
  824.299,266.897 826.325,266.706 828.35,266.51 830.376,266.31 832.402,266.106 834.428,265.898 836.453,265.686 838.479,265.471 840.505,265.252 842.531,265.03 
  844.556,264.805 846.582,264.578 848.608,264.348 850.634,264.116 852.659,263.882 854.685,263.647 856.711,263.41 858.736,263.172 860.762,262.932 862.788,262.692 
  864.814,262.451 866.839,262.21 868.865,261.968 870.891,261.726 872.917,261.484 874.942,261.242 876.968,261.001 878.994,260.76 881.02,260.519 883.045,260.28 
  885.071,260.041 887.097,259.803 889.123,259.566 891.148,259.33 893.174,259.095 895.2,258.862 897.226,258.63 899.251,258.399 901.277,258.17 903.303,257.942 
  905.329,257.716 907.354,257.491 909.38,257.268 911.406,257.046 913.431,256.826 915.457,256.607 917.483,256.39 919.509,256.173 921.534,255.959 923.56,255.745 
  925.586,255.533 927.612,255.322 929.637,255.112 931.663,254.903 933.689,254.695 935.715,254.487 937.74,254.281 939.766,254.074 941.792,253.869 943.818,253.663 
  945.843,253.458 947.869,253.253 949.895,253.047 951.921,252.841 953.946,252.635 955.972,252.428 957.998,252.221 960.023,252.012 962.049,251.802 964.075,251.592 
  966.101,251.379 968.126,251.165 970.152,250.949 972.178,250.731 974.204,250.511 976.229,250.289 978.255,250.064 980.281,249.836 982.307,249.605 984.332,249.371 
  986.358,249.134 988.384,248.893 990.41,248.649 992.435,248.401 994.461,248.148 996.487,247.892 998.513,247.631 1000.54,247.366 1002.56,247.096 1004.59,246.821 
  1006.62,246.541 1008.64,246.256 1010.67,245.965 1012.69,245.67 1014.72,245.368 1016.74,245.061 1018.77,244.748 1020.8,244.429 1022.82,244.104 1024.85,243.773 
  1026.87,243.436 1028.9,243.093 1030.92,242.743 1032.95,242.386 1034.98,242.023 1037,241.654 1039.03,241.278 1041.05,240.895 1043.08,240.505 1045.1,240.109 
  1047.13,239.706 1049.16,239.297 1051.18,238.88 1053.21,238.457 1055.23,238.028 1057.26,237.592 1059.28,237.149 1061.31,236.7 1063.34,236.244 1065.36,235.782 
  1067.39,235.314 1069.41,234.839 1071.44,234.359 1073.46,233.873 1075.49,233.38 1077.52,232.882 1079.54,232.379 1081.57,231.87 1083.59,231.356 1085.62,230.837 
  1087.65,230.313 1089.67,229.784 1091.7,229.251 1093.72,228.714 1095.75,228.172 1097.77,227.627 1099.8,227.078 1101.83,226.526 1103.85,225.97 1105.88,225.412 
  1107.9,224.851 1109.93,224.288 1111.95,223.723 1113.98,223.156 1116.01,222.587 1118.03,222.018 1120.06,221.447 1122.08,220.876 1124.11,220.305 1126.13,219.733 
  1128.16,219.163 1130.19,218.592 1132.21,218.023 1134.24,217.455 1136.26,216.889 1138.29,216.324 1140.31,215.763 1142.34,215.203 1144.37,214.647 1146.39,214.094 
  1148.42,213.545 1150.44,213 1152.47,212.459 1154.49,211.923 1156.52,211.393 1158.55,210.867 1160.57,210.348 1162.6,209.834 1164.62,209.327 1166.65,208.827 
  1168.67,208.334 1170.7,207.848 1172.73,207.37 1174.75,206.901 1176.78,206.44 1178.8,205.987 1180.83,205.544 1182.85,205.11 1184.88,204.685 1186.91,204.271 
  1188.93,203.867 1190.96,203.473 1192.98,203.091 1195.01,202.719 1197.04,202.359 1199.06,202.01 1201.09,201.674 1203.11,201.349 1205.14,201.037 1207.16,200.737 
  1209.19,200.451 1211.22,200.177 1213.24,199.916 1215.27,199.669 1217.29,199.435 1219.32,199.216 1221.34,199.01 1223.37,198.818 1225.4,198.64 1227.42,198.477 
  1229.45,198.328 1231.47,198.194 1233.5,198.074 1235.52,197.969 1237.55,197.879 1239.58,197.804 1241.6,197.744 1243.63,197.699 1245.65,197.669 1247.68,197.653 
  1249.7,197.653 1251.73,197.669 1253.76,197.699 1255.78,197.744 1257.81,197.804 1259.83,197.879 1261.86,197.969 1263.88,198.074 1265.91,198.194 1267.94,198.328 
  1269.96,198.477 1271.99,198.64 1274.01,198.818 1276.04,199.01 1278.06,199.216 1280.09,199.435 1282.12,199.669 1284.14,199.916 1286.17,200.177 1288.19,200.451 
  1290.22,200.737 1292.24,201.037 1294.27,201.349 1296.3,201.674 1298.32,202.01 1300.35,202.359 1302.37,202.719 1304.4,203.091 1306.42,203.473 1308.45,203.867 
  1310.48,204.271 1312.5,204.685 1314.53,205.11 1316.55,205.544 1318.58,205.987 1320.61,206.44 1322.63,206.901 1324.66,207.37 1326.68,207.848 1328.71,208.334 
  1330.73,208.827 1332.76,209.327 1334.79,209.834 1336.81,210.348 1338.84,210.867 1340.86,211.393 1342.89,211.923 1344.91,212.459 1346.94,213 1348.97,213.545 
  1350.99,214.094 1353.02,214.647 1355.04,215.203 1357.07,215.763 1359.09,216.324 1361.12,216.889 1363.15,217.455 1365.17,218.023 1367.2,218.592 1369.22,219.163 
  1371.25,219.733 1373.27,220.305 1375.3,220.876 1377.33,221.447 1379.35,222.018 1381.38,222.587 1383.4,223.156 1385.43,223.723 1387.45,224.288 1389.48,224.851 
  1391.51,225.412 1393.53,225.97 1395.56,226.526 1397.58,227.078 1399.61,227.627 1401.63,228.172 1403.66,228.714 1405.69,229.251 1407.71,229.784 1409.74,230.313 
  1411.76,230.837 1413.79,231.356 1415.81,231.87 1417.84,232.379 1419.87,232.882 1421.89,233.38 1423.92,233.873 1425.94,234.359 1427.97,234.839 1430,235.314 
  1432.02,235.782 1434.05,236.244 1436.07,236.7 1438.1,237.149 1440.12,237.592 1442.15,238.028 1444.18,238.457 1446.2,238.88 1448.23,239.297 1450.25,239.706 
  1452.28,240.109 1454.3,240.505 1456.33,240.895 1458.36,241.278 1460.38,241.654 1462.41,242.023 1464.43,242.386 1466.46,242.743 1468.48,243.093 1470.51,243.436 
  1472.54,243.773 1474.56,244.104 1476.59,244.429 1478.61,244.748 1480.64,245.061 1482.66,245.368 1484.69,245.67 1486.72,245.965 1488.74,246.256 1490.77,246.541 
  1492.79,246.821 1494.82,247.096 1496.84,247.366 1498.87,247.631 1500.9,247.892 1502.92,248.148 1504.95,248.401 1506.97,248.649 1509,248.893 1511.02,249.134 
  1513.05,249.371 1515.08,249.605 1517.1,249.836 1519.13,250.064 1521.15,250.289 1523.18,250.511 1525.2,250.731 1527.23,250.949 1529.26,251.165 1531.28,251.379 
  1533.31,251.592 1535.33,251.802 1537.36,252.012 1539.39,252.221 1541.41,252.428 1543.44,252.635 1545.46,252.841 1547.49,253.047 1549.51,253.253 1551.54,253.458 
  1553.57,253.663 1555.59,253.869 1557.62,254.074 1559.64,254.281 1561.67,254.487 1563.69,254.695 1565.72,254.903 1567.75,255.112 1569.77,255.322 1571.8,255.533 
  1573.82,255.745 1575.85,255.959 1577.87,256.173 1579.9,256.39 1581.93,256.607 1583.95,256.826 1585.98,257.046 1588,257.268 1590.03,257.491 1592.05,257.716 
  1594.08,257.942 1596.11,258.17 1598.13,258.399 1600.16,258.63 1602.18,258.862 1604.21,259.095 1606.23,259.33 1608.26,259.566 1610.29,259.803 1612.31,260.041 
  1614.34,260.28 1616.36,260.519 1618.39,260.76 1620.41,261.001 1622.44,261.242 1624.47,261.484 1626.49,261.726 1628.52,261.968 1630.54,262.21 1632.57,262.451 
  1634.59,262.692 1636.62,262.932 1638.65,263.172 1640.67,263.41 1642.7,263.647 1644.72,263.882 1646.75,264.116 1648.78,264.348 1650.8,264.578 1652.83,264.805 
  1654.85,265.03 1656.88,265.252 1658.9,265.471 1660.93,265.686 1662.96,265.898 1664.98,266.106 1667.01,266.31 1669.03,266.51 1671.06,266.706 1673.08,266.897 
  1675.11,267.082 1677.14,267.263 1679.16,267.438 1681.19,267.608 1683.21,267.772 1685.24,267.929 1687.26,268.081 1689.29,268.226 1691.32,268.364 1693.34,268.496 
  1695.37,268.621 1697.39,268.738 1699.42,268.848 1701.44,268.951 1703.47,269.046 1705.5,269.133 1707.52,269.213 1709.55,269.284 1711.57,269.348 1713.6,269.403 
  1715.62,269.45 1717.65,269.489 1719.68,269.52 1721.7,269.543 1723.73,269.557 1725.75,269.563 1727.78,269.562 1729.8,269.551 1731.83,269.533 1733.86,269.507 
  1735.88,269.473 1737.91,269.432 1739.93,269.382 1741.96,269.326 1743.98,269.262 1746.01,269.191 1748.04,269.113 1750.06,269.029 1752.09,268.939 1754.11,268.843 
  1756.14,268.741 1758.16,268.633 1760.19,268.521 1762.22,268.404 1764.24,268.283 1766.27,268.158 1768.29,268.029 1770.32,267.898 1772.35,267.764 1774.37,267.628 
  1776.4,267.49 1778.42,267.352 1780.45,267.213 1782.47,267.074 1784.5,266.936 1786.53,266.799 1788.55,266.664 1790.58,266.531 1792.6,266.401 1794.63,266.275 
  1796.65,266.153 1798.68,266.036 1800.71,265.924 1802.73,265.819 1804.76,265.721 1806.78,265.63 1808.81,265.547 1810.83,265.473 1812.86,265.409 1814.89,265.355 
  1816.91,265.311 1818.94,265.279 1820.96,265.26 1822.99,265.253 1825.01,265.259 1827.04,265.28 1829.07,265.315 1831.09,265.365 1833.12,265.432 1835.14,265.514 
  1837.17,265.613 1839.19,265.73 1841.22,265.864 1843.25,266.017 1845.27,266.188 1847.3,266.379 1849.32,266.589 1851.35,266.818 1853.37,267.068 1855.4,267.338 
  1857.43,267.628 1859.45,267.939 1861.48,268.27 1863.5,268.622 1865.53,268.995 1867.55,269.388 1869.58,269.802 1871.61,270.237 1873.63,270.691 1875.66,271.166 
  1877.68,271.66 1879.71,272.173 1881.74,272.704 1883.76,273.254 1885.79,273.821 1887.81,274.404 1889.84,275.004 1891.86,275.619 1893.89,276.248 1895.92,276.89 
  1897.94,277.544 1899.97,278.21 1901.99,278.885 1904.02,279.568 1906.04,280.259 1908.07,280.955 1910.1,281.655 1912.12,282.357 1914.15,283.061 1916.17,283.763 
  1918.2,284.462 1920.22,285.157 1922.25,285.844 1924.28,286.523 1926.3,287.19 1928.33,287.844 1930.35,288.482 1932.38,289.103 1934.4,289.702 1936.43,290.279 
  1938.46,290.83 1940.48,291.353 1942.51,291.845 1944.53,292.304 1946.56,292.726 1948.58,293.109 1950.61,293.45 1952.64,293.747 1954.66,293.996 1956.69,294.194 
  1958.71,294.339 1960.74,294.427 1962.76,294.457 1964.79,294.424 1966.82,294.327 1968.84,294.162 1970.87,293.926 1972.89,293.617 1974.92,293.232 1976.94,292.769 
  1978.97,292.224 1981,291.597 1983.02,290.883 1985.05,290.081 1987.07,289.189 1989.1,288.205 1991.13,287.127 1993.15,285.954 1995.18,284.683 1997.2,283.314 
  1999.23,281.846 2001.25,280.277 2003.28,278.608 2005.31,276.837 2007.33,274.965 2009.36,272.991 2011.38,270.917 2013.41,268.742 2015.43,266.469 2017.46,264.098 
  2019.49,261.632 2021.51,259.072 2023.54,256.421 2025.56,253.682 2027.59,250.859 2029.61,247.955 2031.64,244.975 2033.67,241.924 2035.69,238.806 2037.72,235.628 
  2039.74,232.397 2041.77,229.118 2043.79,225.8 2045.82,222.45 2047.85,219.078 2049.87,215.692 2051.9,212.303 2053.92,208.921 2055.95,205.557 2057.97,202.223 
  2060,198.931 2062.03,195.696 2064.05,192.529 2066.08,189.448 2068.1,186.465 2070.13,183.599 2072.15,180.864 2074.18,178.279 2076.21,175.862 2078.23,173.632 
  2080.26,171.607 2082.28,169.809 2084.31,168.259 2086.33,166.977 2088.36,165.986 2090.39,165.309 2092.41,164.97 2094.44,164.992 2096.46,165.4 2098.49,166.22 
  2100.51,167.476 2102.54,169.196 2104.57,171.405 2106.59,174.13 2108.62,177.399 2110.64,181.239 2112.67,185.677 2114.7,190.742 2116.72,196.461 2118.75,202.861 
  2120.77,209.971 2122.8,217.816 2124.82,226.425 2126.85,235.824 2128.88,246.038 2130.9,257.092 2132.93,269.012 2134.95,281.819 2136.98,295.537 2139,310.186 
  2141.03,325.785 2143.06,342.352 2145.08,359.901 2147.11,378.448 2149.13,398.003 2151.16,418.574 2153.18,440.168 2155.21,462.786 2157.24,486.429 2159.26,511.09 
  2161.29,536.763 2163.31,563.434 2165.34,591.086 2167.36,619.696 2169.39,649.235 2171.42,679.671 2173.44,710.962 2175.47,743.061 2177.49,775.916 2179.52,809.462 
  2181.54,843.631 2183.57,878.344 2185.6,913.512 2187.62,949.037 2189.65,984.81 2191.67,1020.71 2193.7,1056.61 2195.72,1092.36 2197.75,1127.8 2199.78,1162.77 
  2201.8,1197.07 2203.83,1230.5 2205.85,1262.85 2207.88,1293.87 2209.9,1323.31 2211.93,1350.9 2213.96,1376.34 2215.98,1399.31 2218.01,1419.47 2220.03,1436.46 
  2222.06,1449.88 2224.09,1459.33 2226.11,1464.36 2228.14,1464.49 2230.16,1459.22 2232.19,1448.02 2234.21,1430.31 2236.24,1405.5 2238.27,1372.93 2240.29,1331.93 
  2242.32,1281.78 2244.34,1221.71 2246.37,1150.92 2248.39,1068.56 2250.42,973.71 2252.45,865.43 2254.47,742.712 2256.5,604.495 2258.52,449.66 2260.55,277.029 
  
  "/>
<polygon clip-path="url(#clip0301)" points="
1685.51,451.424 2249.26,451.424 2249.26,209.504 1685.51,209.504 
  " fill="#ffffff" fill-rule="evenodd" fill-opacity="1"/>
<polyline clip-path="url(#clip0301)" style="stroke:#000000; stroke-width:4; stroke-opacity:1; fill:none" points="
  1685.51,451.424 2249.26,451.424 2249.26,209.504 1685.51,209.504 1685.51,451.424 
  "/>
<polyline clip-path="url(#clip0301)" style="stroke:#009af9; stroke-width:4; stroke-opacity:1; fill:none" points="
  1709.51,269.984 1853.51,269.984 
  "/>
<g clip-path="url(#clip0301)">
<text style="fill:#000000; fill-opacity:1; font-family:Arial,Helvetica Neue,Helvetica,sans-serif; font-size:48px; text-anchor:start;" transform="rotate(0, 1877.51, 287.484)" x="1877.51" y="287.484">Runge function</text>
</g>
<circle clip-path="url(#clip0301)" style="fill:#000000; stroke:none; fill-opacity:1" cx="1793.51" cy="330.464" r="25"/>
<circle clip-path="url(#clip0301)" style="fill:#e26f46; stroke:none; fill-opacity:1" cx="1793.51" cy="330.464" r="21"/>
<g clip-path="url(#clip0301)">
<text style="fill:#000000; fill-opacity:1; font-family:Arial,Helvetica Neue,Helvetica,sans-serif; font-size:48px; text-anchor:start;" transform="rotate(0, 1877.51, 347.964)" x="1877.51" y="347.964">Nodes</text>
</g>
<polyline clip-path="url(#clip0301)" style="stroke:#3da44d; stroke-width:4; stroke-opacity:1; fill:none" points="
  1709.51,390.944 1853.51,390.944 
  "/>
<g clip-path="url(#clip0301)">
<text style="fill:#000000; fill-opacity:1; font-family:Arial,Helvetica Neue,Helvetica,sans-serif; font-size:48px; text-anchor:start;" transform="rotate(0, 1877.51, 408.444)" x="1877.51" y="408.444">Intepolation</text>
</g>
</svg>
