<?xml version="1.0" encoding="utf-8"?>
<svg xmlns="http://www.w3.org/2000/svg" xmlns:xlink="http://www.w3.org/1999/xlink" width="600" height="400" viewBox="0 0 2400 1600">
<defs>
  <clipPath id="clip5100">
    <rect x="0" y="0" width="2000" height="2000"/>
  </clipPath>
</defs>
<defs>
  <clipPath id="clip5101">
    <rect x="0" y="0" width="2400" height="1600"/>
  </clipPath>
</defs>
<polygon clip-path="url(#clip5101)" points="
0,1600 2400,1600 2400,0 0,0 
  " fill="#ffffff" fill-rule="evenodd" fill-opacity="1"/>
<defs>
  <clipPath id="clip5102">
    <rect x="480" y="0" width="1681" height="1600"/>
  </clipPath>
</defs>
<polygon clip-path="url(#clip5101)" points="
121.251,1503.47 2321.26,1503.47 2321.26,125.984 121.251,125.984 
  " fill="#ffffff" fill-rule="evenodd" fill-opacity="1"/>
<defs>
  <clipPath id="clip5103">
    <rect x="121" y="125" width="2201" height="1378"/>
  </clipPath>
</defs>
<polyline clip-path="url(#clip5103)" style="stroke:#000000; stroke-width:2; stroke-opacity:0.1; fill:none" points="
  183.515,1503.47 183.515,125.984 
  "/>
<polyline clip-path="url(#clip5103)" style="stroke:#000000; stroke-width:2; stroke-opacity:0.1; fill:none" points="
  702.385,1503.47 702.385,125.984 
  "/>
<polyline clip-path="url(#clip5103)" style="stroke:#000000; stroke-width:2; stroke-opacity:0.1; fill:none" points="
  1221.26,1503.47 1221.26,125.984 
  "/>
<polyline clip-path="url(#clip5103)" style="stroke:#000000; stroke-width:2; stroke-opacity:0.1; fill:none" points="
  1740.13,1503.47 1740.13,125.984 
  "/>
<polyline clip-path="url(#clip5103)" style="stroke:#000000; stroke-width:2; stroke-opacity:0.1; fill:none" points="
  2259,1503.47 2259,125.984 
  "/>
<polyline clip-path="url(#clip5103)" style="stroke:#000000; stroke-width:2; stroke-opacity:0.1; fill:none" points="
  121.251,1369.04 2321.26,1369.04 
  "/>
<polyline clip-path="url(#clip5103)" style="stroke:#000000; stroke-width:2; stroke-opacity:0.1; fill:none" points="
  121.251,1089.54 2321.26,1089.54 
  "/>
<polyline clip-path="url(#clip5103)" style="stroke:#000000; stroke-width:2; stroke-opacity:0.1; fill:none" points="
  121.251,810.046 2321.26,810.046 
  "/>
<polyline clip-path="url(#clip5103)" style="stroke:#000000; stroke-width:2; stroke-opacity:0.1; fill:none" points="
  121.251,530.549 2321.26,530.549 
  "/>
<polyline clip-path="url(#clip5103)" style="stroke:#000000; stroke-width:2; stroke-opacity:0.1; fill:none" points="
  121.251,251.052 2321.26,251.052 
  "/>
<polyline clip-path="url(#clip5101)" style="stroke:#000000; stroke-width:4; stroke-opacity:1; fill:none" points="
  121.251,1503.47 2321.26,1503.47 
  "/>
<polyline clip-path="url(#clip5101)" style="stroke:#000000; stroke-width:4; stroke-opacity:1; fill:none" points="
  121.251,1503.47 121.251,125.984 
  "/>
<polyline clip-path="url(#clip5101)" style="stroke:#000000; stroke-width:4; stroke-opacity:1; fill:none" points="
  183.515,1503.47 183.515,1482.81 
  "/>
<polyline clip-path="url(#clip5101)" style="stroke:#000000; stroke-width:4; stroke-opacity:1; fill:none" points="
  702.385,1503.47 702.385,1482.81 
  "/>
<polyline clip-path="url(#clip5101)" style="stroke:#000000; stroke-width:4; stroke-opacity:1; fill:none" points="
  1221.26,1503.47 1221.26,1482.81 
  "/>
<polyline clip-path="url(#clip5101)" style="stroke:#000000; stroke-width:4; stroke-opacity:1; fill:none" points="
  1740.13,1503.47 1740.13,1482.81 
  "/>
<polyline clip-path="url(#clip5101)" style="stroke:#000000; stroke-width:4; stroke-opacity:1; fill:none" points="
  2259,1503.47 2259,1482.81 
  "/>
<polyline clip-path="url(#clip5101)" style="stroke:#000000; stroke-width:4; stroke-opacity:1; fill:none" points="
  121.251,1369.04 154.251,1369.04 
  "/>
<polyline clip-path="url(#clip5101)" style="stroke:#000000; stroke-width:4; stroke-opacity:1; fill:none" points="
  121.251,1089.54 154.251,1089.54 
  "/>
<polyline clip-path="url(#clip5101)" style="stroke:#000000; stroke-width:4; stroke-opacity:1; fill:none" points="
  121.251,810.046 154.251,810.046 
  "/>
<polyline clip-path="url(#clip5101)" style="stroke:#000000; stroke-width:4; stroke-opacity:1; fill:none" points="
  121.251,530.549 154.251,530.549 
  "/>
<polyline clip-path="url(#clip5101)" style="stroke:#000000; stroke-width:4; stroke-opacity:1; fill:none" points="
  121.251,251.052 154.251,251.052 
  "/>
<g clip-path="url(#clip5101)">
<text style="fill:#000000; fill-opacity:1; font-family:Arial,Helvetica Neue,Helvetica,sans-serif; font-size:48px; text-anchor:middle;" transform="rotate(0, 183.515, 1557.47)" x="183.515" y="1557.47">-1.0</text>
</g>
<g clip-path="url(#clip5101)">
<text style="fill:#000000; fill-opacity:1; font-family:Arial,Helvetica Neue,Helvetica,sans-serif; font-size:48px; text-anchor:middle;" transform="rotate(0, 702.385, 1557.47)" x="702.385" y="1557.47">-0.5</text>
</g>
<g clip-path="url(#clip5101)">
<text style="fill:#000000; fill-opacity:1; font-family:Arial,Helvetica Neue,Helvetica,sans-serif; font-size:48px; text-anchor:middle;" transform="rotate(0, 1221.26, 1557.47)" x="1221.26" y="1557.47">0.0</text>
</g>
<g clip-path="url(#clip5101)">
<text style="fill:#000000; fill-opacity:1; font-family:Arial,Helvetica Neue,Helvetica,sans-serif; font-size:48px; text-anchor:middle;" transform="rotate(0, 1740.13, 1557.47)" x="1740.13" y="1557.47">0.5</text>
</g>
<g clip-path="url(#clip5101)">
<text style="fill:#000000; fill-opacity:1; font-family:Arial,Helvetica Neue,Helvetica,sans-serif; font-size:48px; text-anchor:middle;" transform="rotate(0, 2259, 1557.47)" x="2259" y="1557.47">1.0</text>
</g>
<g clip-path="url(#clip5101)">
<text style="fill:#000000; fill-opacity:1; font-family:Arial,Helvetica Neue,Helvetica,sans-serif; font-size:48px; text-anchor:end;" transform="rotate(0, 97.2505, 1386.54)" x="97.2505" y="1386.54">0</text>
</g>
<g clip-path="url(#clip5101)">
<text style="fill:#000000; fill-opacity:1; font-family:Arial,Helvetica Neue,Helvetica,sans-serif; font-size:48px; text-anchor:end;" transform="rotate(0, 97.2505, 1107.04)" x="97.2505" y="1107.04">2</text>
</g>
<g clip-path="url(#clip5101)">
<text style="fill:#000000; fill-opacity:1; font-family:Arial,Helvetica Neue,Helvetica,sans-serif; font-size:48px; text-anchor:end;" transform="rotate(0, 97.2505, 827.546)" x="97.2505" y="827.546">4</text>
</g>
<g clip-path="url(#clip5101)">
<text style="fill:#000000; fill-opacity:1; font-family:Arial,Helvetica Neue,Helvetica,sans-serif; font-size:48px; text-anchor:end;" transform="rotate(0, 97.2505, 548.049)" x="97.2505" y="548.049">6</text>
</g>
<g clip-path="url(#clip5101)">
<text style="fill:#000000; fill-opacity:1; font-family:Arial,Helvetica Neue,Helvetica,sans-serif; font-size:48px; text-anchor:end;" transform="rotate(0, 97.2505, 268.552)" x="97.2505" y="268.552">8</text>
</g>
<g clip-path="url(#clip5101)">
<text style="fill:#000000; fill-opacity:1; font-family:Arial,Helvetica Neue,Helvetica,sans-serif; font-size:84px; text-anchor:middle;" transform="rotate(0, 1221.26, 73.2)" x="1221.26" y="73.2">Runge&apos;s phenomenon (Nodes = 20)</text>
</g>
<polyline clip-path="url(#clip5103)" style="stroke:#009af9; stroke-width:4; stroke-opacity:1; fill:none" points="
  183.515,1363.67 185.593,1363.64 187.67,1363.62 189.748,1363.6 191.825,1363.58 193.903,1363.56 195.98,1363.54 198.058,1363.52 200.135,1363.5 202.213,1363.47 
  204.291,1363.45 206.368,1363.43 208.446,1363.41 210.523,1363.39 212.601,1363.36 214.678,1363.34 216.756,1363.32 218.833,1363.3 220.911,1363.27 222.989,1363.25 
  225.066,1363.23 227.144,1363.2 229.221,1363.18 231.299,1363.16 233.376,1363.13 235.454,1363.11 237.531,1363.08 239.609,1363.06 241.687,1363.04 243.764,1363.01 
  245.842,1362.99 247.919,1362.96 249.997,1362.94 252.074,1362.91 254.152,1362.89 256.229,1362.86 258.307,1362.84 260.385,1362.81 262.462,1362.78 264.54,1362.76 
  266.617,1362.73 268.695,1362.71 270.772,1362.68 272.85,1362.65 274.927,1362.63 277.005,1362.6 279.083,1362.57 281.16,1362.55 283.238,1362.52 285.315,1362.49 
  287.393,1362.46 289.47,1362.43 291.548,1362.41 293.626,1362.38 295.703,1362.35 297.781,1362.32 299.858,1362.29 301.936,1362.26 304.013,1362.23 306.091,1362.2 
  308.168,1362.17 310.246,1362.14 312.324,1362.11 314.401,1362.08 316.479,1362.05 318.556,1362.02 320.634,1361.99 322.711,1361.96 324.789,1361.93 326.866,1361.9 
  328.944,1361.87 331.022,1361.84 333.099,1361.8 335.177,1361.77 337.254,1361.74 339.332,1361.71 341.409,1361.67 343.487,1361.64 345.564,1361.61 347.642,1361.57 
  349.72,1361.54 351.797,1361.51 353.875,1361.47 355.952,1361.44 358.03,1361.4 360.107,1361.37 362.185,1361.33 364.262,1361.3 366.34,1361.26 368.418,1361.23 
  370.495,1361.19 372.573,1361.15 374.65,1361.12 376.728,1361.08 378.805,1361.04 380.883,1361.01 382.961,1360.97 385.038,1360.93 387.116,1360.89 389.193,1360.85 
  391.271,1360.82 393.348,1360.78 395.426,1360.74 397.503,1360.7 399.581,1360.66 401.659,1360.62 403.736,1360.58 405.814,1360.54 407.891,1360.5 409.969,1360.46 
  412.046,1360.41 414.124,1360.37 416.201,1360.33 418.279,1360.29 420.357,1360.25 422.434,1360.2 424.512,1360.16 426.589,1360.12 428.667,1360.07 430.744,1360.03 
  432.822,1359.98 434.899,1359.94 436.977,1359.89 439.055,1359.85 441.132,1359.8 443.21,1359.76 445.287,1359.71 447.365,1359.66 449.442,1359.62 451.52,1359.57 
  453.597,1359.52 455.675,1359.47 457.753,1359.42 459.83,1359.38 461.908,1359.33 463.985,1359.28 466.063,1359.23 468.14,1359.18 470.218,1359.13 472.296,1359.07 
  474.373,1359.02 476.451,1358.97 478.528,1358.92 480.606,1358.87 482.683,1358.81 484.761,1358.76 486.838,1358.7 488.916,1358.65 490.994,1358.6 493.071,1358.54 
  495.149,1358.48 497.226,1358.43 499.304,1358.37 501.381,1358.32 503.459,1358.26 505.536,1358.2 507.614,1358.14 509.692,1358.08 511.769,1358.02 513.847,1357.96 
  515.924,1357.9 518.002,1357.84 520.079,1357.78 522.157,1357.72 524.234,1357.66 526.312,1357.6 528.39,1357.53 530.467,1357.47 532.545,1357.41 534.622,1357.34 
  536.7,1357.28 538.777,1357.21 540.855,1357.14 542.932,1357.08 545.01,1357.01 547.088,1356.94 549.165,1356.87 551.243,1356.8 553.32,1356.74 555.398,1356.67 
  557.475,1356.59 559.553,1356.52 561.631,1356.45 563.708,1356.38 565.786,1356.31 567.863,1356.23 569.941,1356.16 572.018,1356.08 574.096,1356.01 576.173,1355.93 
  578.251,1355.85 580.329,1355.78 582.406,1355.7 584.484,1355.62 586.561,1355.54 588.639,1355.46 590.716,1355.38 592.794,1355.3 594.871,1355.22 596.949,1355.13 
  599.027,1355.05 601.104,1354.96 603.182,1354.88 605.259,1354.79 607.337,1354.71 609.414,1354.62 611.492,1354.53 613.569,1354.44 615.647,1354.35 617.725,1354.26 
  619.802,1354.17 621.88,1354.08 623.957,1353.98 626.035,1353.89 628.112,1353.8 630.19,1353.7 632.267,1353.6 634.345,1353.51 636.423,1353.41 638.5,1353.31 
  640.578,1353.21 642.655,1353.11 644.733,1353.01 646.81,1352.9 648.888,1352.8 650.966,1352.7 653.043,1352.59 655.121,1352.48 657.198,1352.38 659.276,1352.27 
  661.353,1352.16 663.431,1352.05 665.508,1351.94 667.586,1351.82 669.664,1351.71 671.741,1351.59 673.819,1351.48 675.896,1351.36 677.974,1351.24 680.051,1351.12 
  682.129,1351 684.206,1350.88 686.284,1350.76 688.362,1350.63 690.439,1350.51 692.517,1350.38 694.594,1350.25 696.672,1350.13 698.749,1350 700.827,1349.86 
  702.904,1349.73 704.982,1349.6 707.06,1349.46 709.137,1349.33 711.215,1349.19 713.292,1349.05 715.37,1348.91 717.447,1348.76 719.525,1348.62 721.602,1348.48 
  723.68,1348.33 725.758,1348.18 727.835,1348.03 729.913,1347.88 731.99,1347.73 734.068,1347.57 736.145,1347.42 738.223,1347.26 740.3,1347.1 742.378,1346.94 
  744.456,1346.78 746.533,1346.61 748.611,1346.45 750.688,1346.28 752.766,1346.11 754.843,1345.94 756.921,1345.77 758.999,1345.59 761.076,1345.42 763.154,1345.24 
  765.231,1345.06 767.309,1344.88 769.386,1344.69 771.464,1344.51 773.541,1344.32 775.619,1344.13 777.697,1343.94 779.774,1343.74 781.852,1343.55 783.929,1343.35 
  786.007,1343.15 788.084,1342.95 790.162,1342.74 792.239,1342.54 794.317,1342.33 796.395,1342.12 798.472,1341.9 800.55,1341.69 802.627,1341.47 804.705,1341.25 
  806.782,1341.02 808.86,1340.8 810.937,1340.57 813.015,1340.34 815.093,1340.1 817.17,1339.87 819.248,1339.63 821.325,1339.39 823.403,1339.14 825.48,1338.9 
  827.558,1338.65 829.635,1338.4 831.713,1338.14 833.791,1337.88 835.868,1337.62 837.946,1337.36 840.023,1337.09 842.101,1336.82 844.178,1336.55 846.256,1336.27 
  848.334,1335.99 850.411,1335.71 852.489,1335.42 854.566,1335.13 856.644,1334.84 858.721,1334.54 860.799,1334.24 862.876,1333.94 864.954,1333.64 867.032,1333.32 
  869.109,1333.01 871.187,1332.69 873.264,1332.37 875.342,1332.05 877.419,1331.72 879.497,1331.39 881.574,1331.05 883.652,1330.71 885.73,1330.37 887.807,1330.02 
  889.885,1329.66 891.962,1329.31 894.04,1328.95 896.117,1328.58 898.195,1328.21 900.272,1327.84 902.35,1327.46 904.428,1327.08 906.505,1326.69 908.583,1326.3 
  910.66,1325.9 912.738,1325.5 914.815,1325.09 916.893,1324.68 918.97,1324.27 921.048,1323.85 923.126,1323.42 925.203,1322.99 927.281,1322.55 929.358,1322.11 
  931.436,1321.67 933.513,1321.22 935.591,1320.76 937.669,1320.3 939.746,1319.83 941.824,1319.35 943.901,1318.88 945.979,1318.39 948.056,1317.9 950.134,1317.4 
  952.211,1316.9 954.289,1316.4 956.367,1315.88 958.444,1315.36 960.522,1314.84 962.599,1314.3 964.677,1313.77 966.754,1313.22 968.832,1312.67 970.909,1312.11 
  972.987,1311.55 975.065,1310.98 977.142,1310.41 979.22,1309.82 981.297,1309.23 983.375,1308.64 985.452,1308.04 987.53,1307.43 989.607,1306.81 991.685,1306.19 
  993.763,1305.56 995.84,1304.92 997.918,1304.28 999.995,1303.63 1002.07,1302.97 1004.15,1302.31 1006.23,1301.64 1008.31,1300.96 1010.38,1300.28 1012.46,1299.58 
  1014.54,1298.89 1016.62,1298.18 1018.69,1297.47 1020.77,1296.75 1022.85,1296.02 1024.93,1295.29 1027,1294.55 1029.08,1293.8 1031.16,1293.04 1033.24,1292.28 
  1035.31,1291.52 1037.39,1290.74 1039.47,1289.96 1041.55,1289.17 1043.62,1288.38 1045.7,1287.58 1047.78,1286.77 1049.86,1285.95 1051.93,1285.14 1054.01,1284.31 
  1056.09,1283.48 1058.17,1282.64 1060.24,1281.8 1062.32,1280.95 1064.4,1280.09 1066.48,1279.24 1068.55,1278.37 1070.63,1277.5 1072.71,1276.63 1074.79,1275.75 
  1076.86,1274.87 1078.94,1273.98 1081.02,1273.09 1083.1,1272.2 1085.18,1271.31 1087.25,1270.41 1089.33,1269.51 1091.41,1268.6 1093.49,1267.7 1095.56,1266.79 
  1097.64,1265.88 1099.72,1264.98 1101.8,1264.07 1103.87,1263.16 1105.95,1262.25 1108.03,1261.34 1110.11,1260.44 1112.18,1259.53 1114.26,1258.63 1116.34,1257.73 
  1118.42,1256.84 1120.49,1255.95 1122.57,1255.06 1124.65,1254.18 1126.73,1253.3 1128.8,1252.43 1130.88,1251.57 1132.96,1250.71 1135.04,1249.86 1137.11,1249.02 
  1139.19,1248.19 1141.27,1247.36 1143.35,1246.55 1145.42,1245.75 1147.5,1244.96 1149.58,1244.18 1151.66,1243.42 1153.73,1242.67 1155.81,1241.93 1157.89,1241.21 
  1159.97,1240.5 1162.04,1239.81 1164.12,1239.14 1166.2,1238.48 1168.28,1237.84 1170.36,1237.22 1172.43,1236.62 1174.51,1236.04 1176.59,1235.48 1178.67,1234.94 
  1180.74,1234.42 1182.82,1233.93 1184.9,1233.45 1186.98,1233 1189.05,1232.58 1191.13,1232.18 1193.21,1231.8 1195.29,1231.45 1197.36,1231.12 1199.44,1230.82 
  1201.52,1230.54 1203.6,1230.3 1205.67,1230.08 1207.75,1229.88 1209.83,1229.71 1211.91,1229.57 1213.98,1229.46 1216.06,1229.38 1218.14,1229.32 1220.22,1229.3 
  1222.29,1229.3 1224.37,1229.32 1226.45,1229.38 1228.53,1229.46 1230.6,1229.57 1232.68,1229.71 1234.76,1229.88 1236.84,1230.08 1238.91,1230.3 1240.99,1230.54 
  1243.07,1230.82 1245.15,1231.12 1247.22,1231.45 1249.3,1231.8 1251.38,1232.18 1253.46,1232.58 1255.53,1233 1257.61,1233.45 1259.69,1233.93 1261.77,1234.42 
  1263.85,1234.94 1265.92,1235.48 1268,1236.04 1270.08,1236.62 1272.16,1237.22 1274.23,1237.84 1276.31,1238.48 1278.39,1239.14 1280.47,1239.81 1282.54,1240.5 
  1284.62,1241.21 1286.7,1241.93 1288.78,1242.67 1290.85,1243.42 1292.93,1244.18 1295.01,1244.96 1297.09,1245.75 1299.16,1246.55 1301.24,1247.36 1303.32,1248.19 
  1305.4,1249.02 1307.47,1249.86 1309.55,1250.71 1311.63,1251.57 1313.71,1252.43 1315.78,1253.3 1317.86,1254.18 1319.94,1255.06 1322.02,1255.95 1324.09,1256.84 
  1326.17,1257.73 1328.25,1258.63 1330.33,1259.53 1332.4,1260.44 1334.48,1261.34 1336.56,1262.25 1338.64,1263.16 1340.71,1264.07 1342.79,1264.98 1344.87,1265.88 
  1346.95,1266.79 1349.03,1267.7 1351.1,1268.6 1353.18,1269.51 1355.26,1270.41 1357.34,1271.31 1359.41,1272.2 1361.49,1273.09 1363.57,1273.98 1365.65,1274.87 
  1367.72,1275.75 1369.8,1276.63 1371.88,1277.5 1373.96,1278.37 1376.03,1279.24 1378.11,1280.09 1380.19,1280.95 1382.27,1281.8 1384.34,1282.64 1386.42,1283.48 
  1388.5,1284.31 1390.58,1285.14 1392.65,1285.95 1394.73,1286.77 1396.81,1287.58 1398.89,1288.38 1400.96,1289.17 1403.04,1289.96 1405.12,1290.74 1407.2,1291.52 
  1409.27,1292.28 1411.35,1293.04 1413.43,1293.8 1415.51,1294.55 1417.58,1295.29 1419.66,1296.02 1421.74,1296.75 1423.82,1297.47 1425.89,1298.18 1427.97,1298.89 
  1430.05,1299.58 1432.13,1300.28 1434.2,1300.96 1436.28,1301.64 1438.36,1302.31 1440.44,1302.97 1442.52,1303.63 1444.59,1304.28 1446.67,1304.92 1448.75,1305.56 
  1450.83,1306.19 1452.9,1306.81 1454.98,1307.43 1457.06,1308.04 1459.14,1308.64 1461.21,1309.23 1463.29,1309.82 1465.37,1310.41 1467.45,1310.98 1469.52,1311.55 
  1471.6,1312.11 1473.68,1312.67 1475.76,1313.22 1477.83,1313.77 1479.91,1314.3 1481.99,1314.84 1484.07,1315.36 1486.14,1315.88 1488.22,1316.4 1490.3,1316.9 
  1492.38,1317.4 1494.45,1317.9 1496.53,1318.39 1498.61,1318.88 1500.69,1319.35 1502.76,1319.83 1504.84,1320.3 1506.92,1320.76 1509,1321.22 1511.07,1321.67 
  1513.15,1322.11 1515.23,1322.55 1517.31,1322.99 1519.38,1323.42 1521.46,1323.85 1523.54,1324.27 1525.62,1324.68 1527.69,1325.09 1529.77,1325.5 1531.85,1325.9 
  1533.93,1326.3 1536.01,1326.69 1538.08,1327.08 1540.16,1327.46 1542.24,1327.84 1544.32,1328.21 1546.39,1328.58 1548.47,1328.95 1550.55,1329.31 1552.63,1329.66 
  1554.7,1330.02 1556.78,1330.37 1558.86,1330.71 1560.94,1331.05 1563.01,1331.39 1565.09,1331.72 1567.17,1332.05 1569.25,1332.37 1571.32,1332.69 1573.4,1333.01 
  1575.48,1333.32 1577.56,1333.64 1579.63,1333.94 1581.71,1334.24 1583.79,1334.54 1585.87,1334.84 1587.94,1335.13 1590.02,1335.42 1592.1,1335.71 1594.18,1335.99 
  1596.25,1336.27 1598.33,1336.55 1600.41,1336.82 1602.49,1337.09 1604.56,1337.36 1606.64,1337.62 1608.72,1337.88 1610.8,1338.14 1612.87,1338.4 1614.95,1338.65 
  1617.03,1338.9 1619.11,1339.14 1621.19,1339.39 1623.26,1339.63 1625.34,1339.87 1627.42,1340.1 1629.5,1340.34 1631.57,1340.57 1633.65,1340.8 1635.73,1341.02 
  1637.81,1341.25 1639.88,1341.47 1641.96,1341.69 1644.04,1341.9 1646.12,1342.12 1648.19,1342.33 1650.27,1342.54 1652.35,1342.74 1654.43,1342.95 1656.5,1343.15 
  1658.58,1343.35 1660.66,1343.55 1662.74,1343.74 1664.81,1343.94 1666.89,1344.13 1668.97,1344.32 1671.05,1344.51 1673.12,1344.69 1675.2,1344.88 1677.28,1345.06 
  1679.36,1345.24 1681.43,1345.42 1683.51,1345.59 1685.59,1345.77 1687.67,1345.94 1689.74,1346.11 1691.82,1346.28 1693.9,1346.45 1695.98,1346.61 1698.05,1346.78 
  1700.13,1346.94 1702.21,1347.1 1704.29,1347.26 1706.36,1347.42 1708.44,1347.57 1710.52,1347.73 1712.6,1347.88 1714.68,1348.03 1716.75,1348.18 1718.83,1348.33 
  1720.91,1348.48 1722.99,1348.62 1725.06,1348.76 1727.14,1348.91 1729.22,1349.05 1731.3,1349.19 1733.37,1349.33 1735.45,1349.46 1737.53,1349.6 1739.61,1349.73 
  1741.68,1349.86 1743.76,1350 1745.84,1350.13 1747.92,1350.25 1749.99,1350.38 1752.07,1350.51 1754.15,1350.63 1756.23,1350.76 1758.3,1350.88 1760.38,1351 
  1762.46,1351.12 1764.54,1351.24 1766.61,1351.36 1768.69,1351.48 1770.77,1351.59 1772.85,1351.71 1774.92,1351.82 1777,1351.94 1779.08,1352.05 1781.16,1352.16 
  1783.23,1352.27 1785.31,1352.38 1787.39,1352.48 1789.47,1352.59 1791.54,1352.7 1793.62,1352.8 1795.7,1352.9 1797.78,1353.01 1799.86,1353.11 1801.93,1353.21 
  1804.01,1353.31 1806.09,1353.41 1808.17,1353.51 1810.24,1353.6 1812.32,1353.7 1814.4,1353.8 1816.48,1353.89 1818.55,1353.98 1820.63,1354.08 1822.71,1354.17 
  1824.79,1354.26 1826.86,1354.35 1828.94,1354.44 1831.02,1354.53 1833.1,1354.62 1835.17,1354.71 1837.25,1354.79 1839.33,1354.88 1841.41,1354.96 1843.48,1355.05 
  1845.56,1355.13 1847.64,1355.22 1849.72,1355.3 1851.79,1355.38 1853.87,1355.46 1855.95,1355.54 1858.03,1355.62 1860.1,1355.7 1862.18,1355.78 1864.26,1355.85 
  1866.34,1355.93 1868.41,1356.01 1870.49,1356.08 1872.57,1356.16 1874.65,1356.23 1876.72,1356.31 1878.8,1356.38 1880.88,1356.45 1882.96,1356.52 1885.03,1356.59 
  1887.11,1356.67 1889.19,1356.74 1891.27,1356.8 1893.35,1356.87 1895.42,1356.94 1897.5,1357.01 1899.58,1357.08 1901.66,1357.14 1903.73,1357.21 1905.81,1357.28 
  1907.89,1357.34 1909.97,1357.41 1912.04,1357.47 1914.12,1357.53 1916.2,1357.6 1918.28,1357.66 1920.35,1357.72 1922.43,1357.78 1924.51,1357.84 1926.59,1357.9 
  1928.66,1357.96 1930.74,1358.02 1932.82,1358.08 1934.9,1358.14 1936.97,1358.2 1939.05,1358.26 1941.13,1358.32 1943.21,1358.37 1945.28,1358.43 1947.36,1358.48 
  1949.44,1358.54 1951.52,1358.6 1953.59,1358.65 1955.67,1358.7 1957.75,1358.76 1959.83,1358.81 1961.9,1358.87 1963.98,1358.92 1966.06,1358.97 1968.14,1359.02 
  1970.21,1359.07 1972.29,1359.13 1974.37,1359.18 1976.45,1359.23 1978.53,1359.28 1980.6,1359.33 1982.68,1359.38 1984.76,1359.42 1986.84,1359.47 1988.91,1359.52 
  1990.99,1359.57 1993.07,1359.62 1995.15,1359.66 1997.22,1359.71 1999.3,1359.76 2001.38,1359.8 2003.46,1359.85 2005.53,1359.89 2007.61,1359.94 2009.69,1359.98 
  2011.77,1360.03 2013.84,1360.07 2015.92,1360.12 2018,1360.16 2020.08,1360.2 2022.15,1360.25 2024.23,1360.29 2026.31,1360.33 2028.39,1360.37 2030.46,1360.41 
  2032.54,1360.46 2034.62,1360.5 2036.7,1360.54 2038.77,1360.58 2040.85,1360.62 2042.93,1360.66 2045.01,1360.7 2047.08,1360.74 2049.16,1360.78 2051.24,1360.82 
  2053.32,1360.85 2055.39,1360.89 2057.47,1360.93 2059.55,1360.97 2061.63,1361.01 2063.7,1361.04 2065.78,1361.08 2067.86,1361.12 2069.94,1361.15 2072.02,1361.19 
  2074.09,1361.23 2076.17,1361.26 2078.25,1361.3 2080.33,1361.33 2082.4,1361.37 2084.48,1361.4 2086.56,1361.44 2088.64,1361.47 2090.71,1361.51 2092.79,1361.54 
  2094.87,1361.57 2096.95,1361.61 2099.02,1361.64 2101.1,1361.67 2103.18,1361.71 2105.26,1361.74 2107.33,1361.77 2109.41,1361.8 2111.49,1361.84 2113.57,1361.87 
  2115.64,1361.9 2117.72,1361.93 2119.8,1361.96 2121.88,1361.99 2123.95,1362.02 2126.03,1362.05 2128.11,1362.08 2130.19,1362.11 2132.26,1362.14 2134.34,1362.17 
  2136.42,1362.2 2138.5,1362.23 2140.57,1362.26 2142.65,1362.29 2144.73,1362.32 2146.81,1362.35 2148.88,1362.38 2150.96,1362.41 2153.04,1362.43 2155.12,1362.46 
  2157.2,1362.49 2159.27,1362.52 2161.35,1362.55 2163.43,1362.57 2165.51,1362.6 2167.58,1362.63 2169.66,1362.65 2171.74,1362.68 2173.82,1362.71 2175.89,1362.73 
  2177.97,1362.76 2180.05,1362.78 2182.13,1362.81 2184.2,1362.84 2186.28,1362.86 2188.36,1362.89 2190.44,1362.91 2192.51,1362.94 2194.59,1362.96 2196.67,1362.99 
  2198.75,1363.01 2200.82,1363.04 2202.9,1363.06 2204.98,1363.08 2207.06,1363.11 2209.13,1363.13 2211.21,1363.16 2213.29,1363.18 2215.37,1363.2 2217.44,1363.23 
  2219.52,1363.25 2221.6,1363.27 2223.68,1363.3 2225.75,1363.32 2227.83,1363.34 2229.91,1363.36 2231.99,1363.39 2234.06,1363.41 2236.14,1363.43 2238.22,1363.45 
  2240.3,1363.47 2242.37,1363.5 2244.45,1363.52 2246.53,1363.54 2248.61,1363.56 2250.69,1363.58 2252.76,1363.6 2254.84,1363.62 2256.92,1363.64 2259,1363.67 
  
  "/>
<circle clip-path="url(#clip5103)" style="fill:#000000; stroke:none; fill-opacity:1" cx="183.515" cy="1363.67" r="18"/>
<circle clip-path="url(#clip5103)" style="fill:#e26f46; stroke:none; fill-opacity:1" cx="183.515" cy="1363.67" r="14"/>
<circle clip-path="url(#clip5103)" style="fill:#000000; stroke:none; fill-opacity:1" cx="292.751" cy="1362.39" r="18"/>
<circle clip-path="url(#clip5103)" style="fill:#e26f46; stroke:none; fill-opacity:1" cx="292.751" cy="1362.39" r="14"/>
<circle clip-path="url(#clip5103)" style="fill:#000000; stroke:none; fill-opacity:1" cx="401.987" cy="1360.61" r="18"/>
<circle clip-path="url(#clip5103)" style="fill:#e26f46; stroke:none; fill-opacity:1" cx="401.987" cy="1360.61" r="14"/>
<circle clip-path="url(#clip5103)" style="fill:#000000; stroke:none; fill-opacity:1" cx="511.222" cy="1358.04" r="18"/>
<circle clip-path="url(#clip5103)" style="fill:#e26f46; stroke:none; fill-opacity:1" cx="511.222" cy="1358.04" r="14"/>
<circle clip-path="url(#clip5103)" style="fill:#000000; stroke:none; fill-opacity:1" cx="620.458" cy="1354.14" r="18"/>
<circle clip-path="url(#clip5103)" style="fill:#e26f46; stroke:none; fill-opacity:1" cx="620.458" cy="1354.14" r="14"/>
<circle clip-path="url(#clip5103)" style="fill:#000000; stroke:none; fill-opacity:1" cx="729.694" cy="1347.9" r="18"/>
<circle clip-path="url(#clip5103)" style="fill:#e26f46; stroke:none; fill-opacity:1" cx="729.694" cy="1347.9" r="14"/>
<circle clip-path="url(#clip5103)" style="fill:#000000; stroke:none; fill-opacity:1" cx="838.93" cy="1337.23" r="18"/>
<circle clip-path="url(#clip5103)" style="fill:#e26f46; stroke:none; fill-opacity:1" cx="838.93" cy="1337.23" r="14"/>
<circle clip-path="url(#clip5103)" style="fill:#000000; stroke:none; fill-opacity:1" cx="948.166" cy="1317.87" r="18"/>
<circle clip-path="url(#clip5103)" style="fill:#e26f46; stroke:none; fill-opacity:1" cx="948.166" cy="1317.87" r="14"/>
<circle clip-path="url(#clip5103)" style="fill:#000000; stroke:none; fill-opacity:1" cx="1057.4" cy="1282.95" r="18"/>
<circle clip-path="url(#clip5103)" style="fill:#e26f46; stroke:none; fill-opacity:1" cx="1057.4" cy="1282.95" r="14"/>
<circle clip-path="url(#clip5103)" style="fill:#000000; stroke:none; fill-opacity:1" cx="1166.64" cy="1238.34" r="18"/>
<circle clip-path="url(#clip5103)" style="fill:#e26f46; stroke:none; fill-opacity:1" cx="1166.64" cy="1238.34" r="14"/>
<circle clip-path="url(#clip5103)" style="fill:#000000; stroke:none; fill-opacity:1" cx="1275.87" cy="1238.34" r="18"/>
<circle clip-path="url(#clip5103)" style="fill:#e26f46; stroke:none; fill-opacity:1" cx="1275.87" cy="1238.34" r="14"/>
<circle clip-path="url(#clip5103)" style="fill:#000000; stroke:none; fill-opacity:1" cx="1385.11" cy="1282.95" r="18"/>
<circle clip-path="url(#clip5103)" style="fill:#e26f46; stroke:none; fill-opacity:1" cx="1385.11" cy="1282.95" r="14"/>
<circle clip-path="url(#clip5103)" style="fill:#000000; stroke:none; fill-opacity:1" cx="1494.34" cy="1317.87" r="18"/>
<circle clip-path="url(#clip5103)" style="fill:#e26f46; stroke:none; fill-opacity:1" cx="1494.34" cy="1317.87" r="14"/>
<circle clip-path="url(#clip5103)" style="fill:#000000; stroke:none; fill-opacity:1" cx="1603.58" cy="1337.23" r="18"/>
<circle clip-path="url(#clip5103)" style="fill:#e26f46; stroke:none; fill-opacity:1" cx="1603.58" cy="1337.23" r="14"/>
<circle clip-path="url(#clip5103)" style="fill:#000000; stroke:none; fill-opacity:1" cx="1712.82" cy="1347.9" r="18"/>
<circle clip-path="url(#clip5103)" style="fill:#e26f46; stroke:none; fill-opacity:1" cx="1712.82" cy="1347.9" r="14"/>
<circle clip-path="url(#clip5103)" style="fill:#000000; stroke:none; fill-opacity:1" cx="1822.05" cy="1354.14" r="18"/>
<circle clip-path="url(#clip5103)" style="fill:#e26f46; stroke:none; fill-opacity:1" cx="1822.05" cy="1354.14" r="14"/>
<circle clip-path="url(#clip5103)" style="fill:#000000; stroke:none; fill-opacity:1" cx="1931.29" cy="1358.04" r="18"/>
<circle clip-path="url(#clip5103)" style="fill:#e26f46; stroke:none; fill-opacity:1" cx="1931.29" cy="1358.04" r="14"/>
<circle clip-path="url(#clip5103)" style="fill:#000000; stroke:none; fill-opacity:1" cx="2040.52" cy="1360.61" r="18"/>
<circle clip-path="url(#clip5103)" style="fill:#e26f46; stroke:none; fill-opacity:1" cx="2040.52" cy="1360.61" r="14"/>
<circle clip-path="url(#clip5103)" style="fill:#000000; stroke:none; fill-opacity:1" cx="2149.76" cy="1362.39" r="18"/>
<circle clip-path="url(#clip5103)" style="fill:#e26f46; stroke:none; fill-opacity:1" cx="2149.76" cy="1362.39" r="14"/>
<circle clip-path="url(#clip5103)" style="fill:#000000; stroke:none; fill-opacity:1" cx="2259" cy="1363.67" r="18"/>
<circle clip-path="url(#clip5103)" style="fill:#e26f46; stroke:none; fill-opacity:1" cx="2259" cy="1363.67" r="14"/>
<polyline clip-path="url(#clip5103)" style="stroke:#3da44d; stroke-width:4; stroke-opacity:1; fill:none" points="
  183.515,1363.67 185.593,1154.8 187.67,972.033 189.748,813.239 191.825,676.443 193.903,559.792 195.98,461.553 198.058,380.102 200.135,313.928 202.213,261.617 
  204.291,221.851 206.368,193.404 208.446,175.136 210.523,165.986 212.601,164.97 214.678,171.176 216.756,183.761 218.833,201.944 220.911,225.004 222.989,252.28 
  225.066,283.159 227.144,317.083 229.221,353.538 231.299,392.054 233.376,432.203 235.454,473.596 237.531,515.88 239.609,558.735 241.687,601.872 243.764,645.033 
  245.842,687.987 247.919,730.528 249.997,772.473 252.074,813.662 254.152,853.955 256.229,893.231 258.307,931.386 260.385,968.332 262.462,1004 264.54,1038.32 
  266.617,1071.25 268.695,1102.76 270.772,1132.82 272.85,1161.42 274.927,1188.54 277.005,1214.19 279.083,1238.37 281.16,1261.1 283.238,1282.4 285.315,1302.29 
  287.393,1320.8 289.47,1337.96 291.548,1353.8 293.626,1368.37 295.703,1381.71 297.781,1393.85 299.858,1404.84 301.936,1414.73 304.013,1423.57 306.091,1431.39 
  308.168,1438.25 310.246,1444.2 312.324,1449.28 314.401,1453.55 316.479,1457.04 318.556,1459.8 320.634,1461.88 322.711,1463.33 324.789,1464.18 326.866,1464.49 
  328.944,1464.29 331.022,1463.62 333.099,1462.52 335.177,1461.04 337.254,1459.2 339.332,1457.04 341.409,1454.59 343.487,1451.9 345.564,1448.98 347.642,1445.87 
  349.72,1442.59 351.797,1439.18 353.875,1435.65 355.952,1432.03 358.03,1428.34 360.107,1424.61 362.185,1420.84 364.262,1417.07 366.34,1413.3 368.418,1409.56 
  370.495,1405.85 372.573,1402.19 374.65,1398.59 376.728,1395.06 378.805,1391.61 380.883,1388.26 382.961,1385 385.038,1381.85 387.116,1378.81 389.193,1375.88 
  391.271,1373.08 393.348,1370.39 395.426,1367.84 397.503,1365.41 399.581,1363.11 401.659,1360.94 403.736,1358.91 405.814,1357 407.891,1355.22 409.969,1353.58 
  412.046,1352.05 414.124,1350.66 416.201,1349.39 418.279,1348.23 420.357,1347.2 422.434,1346.27 424.512,1345.46 426.589,1344.75 428.667,1344.15 430.744,1343.65 
  432.822,1343.24 434.899,1342.92 436.977,1342.68 439.055,1342.53 441.132,1342.46 443.21,1342.46 445.287,1342.52 447.365,1342.65 449.442,1342.84 451.52,1343.09 
  453.597,1343.39 455.675,1343.73 457.753,1344.12 459.83,1344.54 461.908,1345 463.985,1345.49 466.063,1346.01 468.14,1346.55 470.218,1347.11 472.296,1347.68 
  474.373,1348.27 476.451,1348.87 478.528,1349.48 480.606,1350.08 482.683,1350.69 484.761,1351.3 486.838,1351.91 488.916,1352.51 490.994,1353.09 493.071,1353.67 
  495.149,1354.24 497.226,1354.79 499.304,1355.33 501.381,1355.85 503.459,1356.35 505.536,1356.83 507.614,1357.29 509.692,1357.73 511.769,1358.15 513.847,1358.54 
  515.924,1358.91 518.002,1359.25 520.079,1359.57 522.157,1359.87 524.234,1360.14 526.312,1360.39 528.39,1360.61 530.467,1360.8 532.545,1360.97 534.622,1361.12 
  536.7,1361.24 538.777,1361.33 540.855,1361.41 542.932,1361.46 545.01,1361.49 547.088,1361.49 549.165,1361.48 551.243,1361.44 553.32,1361.39 555.398,1361.31 
  557.475,1361.22 559.553,1361.11 561.631,1360.99 563.708,1360.85 565.786,1360.69 567.863,1360.52 569.941,1360.34 572.018,1360.14 574.096,1359.94 576.173,1359.72 
  578.251,1359.49 580.329,1359.26 582.406,1359.02 584.484,1358.77 586.561,1358.51 588.639,1358.25 590.716,1357.99 592.794,1357.72 594.871,1357.45 596.949,1357.18 
  599.027,1356.9 601.104,1356.63 603.182,1356.35 605.259,1356.08 607.337,1355.8 609.414,1355.53 611.492,1355.26 613.569,1355 615.647,1354.73 617.725,1354.48 
  619.802,1354.22 621.88,1353.97 623.957,1353.72 626.035,1353.48 628.112,1353.25 630.19,1353.02 632.267,1352.8 634.345,1352.58 636.423,1352.37 638.5,1352.17 
  640.578,1351.97 642.655,1351.78 644.733,1351.6 646.81,1351.42 648.888,1351.25 650.966,1351.09 653.043,1350.93 655.121,1350.78 657.198,1350.64 659.276,1350.5 
  661.353,1350.37 663.431,1350.24 665.508,1350.12 667.586,1350.01 669.664,1349.9 671.741,1349.8 673.819,1349.7 675.896,1349.61 677.974,1349.52 680.051,1349.44 
  682.129,1349.36 684.206,1349.28 686.284,1349.21 688.362,1349.14 690.439,1349.07 692.517,1349.01 694.594,1348.94 696.672,1348.88 698.749,1348.82 700.827,1348.76 
  702.904,1348.71 704.982,1348.65 707.06,1348.59 709.137,1348.54 711.215,1348.48 713.292,1348.42 715.37,1348.36 717.447,1348.3 719.525,1348.24 721.602,1348.17 
  723.68,1348.1 725.758,1348.04 727.835,1347.96 729.913,1347.89 731.99,1347.81 734.068,1347.73 736.145,1347.64 738.223,1347.55 740.3,1347.46 742.378,1347.36 
  744.456,1347.26 746.533,1347.15 748.611,1347.04 750.688,1346.92 752.766,1346.8 754.843,1346.68 756.921,1346.54 758.999,1346.41 761.076,1346.26 763.154,1346.12 
  765.231,1345.96 767.309,1345.8 769.386,1345.64 771.464,1345.47 773.541,1345.29 775.619,1345.11 777.697,1344.92 779.774,1344.73 781.852,1344.53 783.929,1344.33 
  786.007,1344.12 788.084,1343.9 790.162,1343.68 792.239,1343.46 794.317,1343.23 796.395,1342.99 798.472,1342.75 800.55,1342.5 802.627,1342.25 804.705,1342 
  806.782,1341.74 808.86,1341.47 810.937,1341.21 813.015,1340.93 815.093,1340.66 817.17,1340.38 819.248,1340.09 821.325,1339.8 823.403,1339.51 825.48,1339.22 
  827.558,1338.92 829.635,1338.62 831.713,1338.31 833.791,1338 835.868,1337.69 837.946,1337.38 840.023,1337.06 842.101,1336.75 844.178,1336.43 846.256,1336.1 
  848.334,1335.78 850.411,1335.45 852.489,1335.12 854.566,1334.79 856.644,1334.46 858.721,1334.13 860.799,1333.79 862.876,1333.45 864.954,1333.11 867.032,1332.77 
  869.109,1332.43 871.187,1332.09 873.264,1331.74 875.342,1331.4 877.419,1331.05 879.497,1330.7 881.574,1330.35 883.652,1330 885.73,1329.65 887.807,1329.29 
  889.885,1328.94 891.962,1328.58 894.04,1328.22 896.117,1327.86 898.195,1327.49 900.272,1327.13 902.35,1326.76 904.428,1326.39 906.505,1326.02 908.583,1325.65 
  910.66,1325.27 912.738,1324.89 914.815,1324.51 916.893,1324.13 918.97,1323.74 921.048,1323.35 923.126,1322.95 925.203,1322.56 927.281,1322.15 929.358,1321.75 
  931.436,1321.34 933.513,1320.93 935.591,1320.51 937.669,1320.09 939.746,1319.66 941.824,1319.23 943.901,1318.79 945.979,1318.35 948.056,1317.9 950.134,1317.44 
  952.211,1316.98 954.289,1316.52 956.367,1316.05 958.444,1315.57 960.522,1315.08 962.599,1314.59 964.677,1314.09 966.754,1313.58 968.832,1313.07 970.909,1312.55 
  972.987,1312.02 975.065,1311.48 977.142,1310.93 979.22,1310.38 981.297,1309.81 983.375,1309.24 985.452,1308.66 987.53,1308.07 989.607,1307.48 991.685,1306.87 
  993.763,1306.25 995.84,1305.63 997.918,1304.99 999.995,1304.35 1002.07,1303.7 1004.15,1303.04 1006.23,1302.36 1008.31,1301.68 1010.38,1300.99 1012.46,1300.29 
  1014.54,1299.58 1016.62,1298.86 1018.69,1298.13 1020.77,1297.39 1022.85,1296.64 1024.93,1295.89 1027,1295.12 1029.08,1294.35 1031.16,1293.56 1033.24,1292.77 
  1035.31,1291.97 1037.39,1291.16 1039.47,1290.34 1041.55,1289.51 1043.62,1288.67 1045.7,1287.83 1047.78,1286.98 1049.86,1286.12 1051.93,1285.26 1054.01,1284.39 
  1056.09,1283.51 1058.17,1282.62 1060.24,1281.73 1062.32,1280.84 1064.4,1279.93 1066.48,1279.03 1068.55,1278.12 1070.63,1277.2 1072.71,1276.28 1074.79,1275.36 
  1076.86,1274.43 1078.94,1273.51 1081.02,1272.57 1083.1,1271.64 1085.18,1270.71 1087.25,1269.77 1089.33,1268.84 1091.41,1267.9 1093.49,1266.97 1095.56,1266.03 
  1097.64,1265.1 1099.72,1264.17 1101.8,1263.24 1103.87,1262.31 1105.95,1261.39 1108.03,1260.47 1110.11,1259.56 1112.18,1258.65 1114.26,1257.75 1116.34,1256.85 
  1118.42,1255.96 1120.49,1255.07 1122.57,1254.2 1124.65,1253.33 1126.73,1252.47 1128.8,1251.62 1130.88,1250.78 1132.96,1249.95 1135.04,1249.13 1137.11,1248.32 
  1139.19,1247.52 1141.27,1246.74 1143.35,1245.97 1145.42,1245.21 1147.5,1244.46 1149.58,1243.73 1151.66,1243.02 1153.73,1242.32 1155.81,1241.63 1157.89,1240.97 
  1159.97,1240.32 1162.04,1239.68 1164.12,1239.06 1166.2,1238.47 1168.28,1237.89 1170.36,1237.33 1172.43,1236.78 1174.51,1236.26 1176.59,1235.76 1178.67,1235.28 
  1180.74,1234.82 1182.82,1234.37 1184.9,1233.96 1186.98,1233.56 1189.05,1233.18 1191.13,1232.83 1193.21,1232.5 1195.29,1232.19 1197.36,1231.9 1199.44,1231.64 
  1201.52,1231.4 1203.6,1231.19 1205.67,1230.99 1207.75,1230.82 1209.83,1230.68 1211.91,1230.56 1213.98,1230.46 1216.06,1230.39 1218.14,1230.34 1220.22,1230.32 
  1222.29,1230.32 1224.37,1230.34 1226.45,1230.39 1228.53,1230.46 1230.6,1230.56 1232.68,1230.68 1234.76,1230.82 1236.84,1230.99 1238.91,1231.19 1240.99,1231.4 
  1243.07,1231.64 1245.15,1231.9 1247.22,1232.19 1249.3,1232.5 1251.38,1232.83 1253.46,1233.18 1255.53,1233.56 1257.61,1233.96 1259.69,1234.37 1261.77,1234.82 
  1263.85,1235.28 1265.92,1235.76 1268,1236.26 1270.08,1236.78 1272.16,1237.33 1274.23,1237.89 1276.31,1238.47 1278.39,1239.06 1280.47,1239.68 1282.54,1240.32 
  1284.62,1240.97 1286.7,1241.63 1288.78,1242.32 1290.85,1243.02 1292.93,1243.73 1295.01,1244.46 1297.09,1245.21 1299.16,1245.97 1301.24,1246.74 1303.32,1247.52 
  1305.4,1248.32 1307.47,1249.13 1309.55,1249.95 1311.63,1250.78 1313.71,1251.62 1315.78,1252.47 1317.86,1253.33 1319.94,1254.2 1322.02,1255.07 1324.09,1255.96 
  1326.17,1256.85 1328.25,1257.75 1330.33,1258.65 1332.4,1259.56 1334.48,1260.47 1336.56,1261.39 1338.64,1262.31 1340.71,1263.24 1342.79,1264.17 1344.87,1265.1 
  1346.95,1266.03 1349.03,1266.97 1351.1,1267.9 1353.18,1268.84 1355.26,1269.77 1357.34,1270.71 1359.41,1271.64 1361.49,1272.57 1363.57,1273.51 1365.65,1274.43 
  1367.72,1275.36 1369.8,1276.28 1371.88,1277.2 1373.96,1278.12 1376.03,1279.03 1378.11,1279.93 1380.19,1280.84 1382.27,1281.73 1384.34,1282.62 1386.42,1283.51 
  1388.5,1284.39 1390.58,1285.26 1392.65,1286.12 1394.73,1286.98 1396.81,1287.83 1398.89,1288.67 1400.96,1289.51 1403.04,1290.34 1405.12,1291.16 1407.2,1291.97 
  1409.27,1292.77 1411.35,1293.56 1413.43,1294.35 1415.51,1295.12 1417.58,1295.89 1419.66,1296.64 1421.74,1297.39 1423.82,1298.13 1425.89,1298.86 1427.97,1299.58 
  1430.05,1300.29 1432.13,1300.99 1434.2,1301.68 1436.28,1302.36 1438.36,1303.04 1440.44,1303.7 1442.52,1304.35 1444.59,1304.99 1446.67,1305.63 1448.75,1306.25 
  1450.83,1306.87 1452.9,1307.48 1454.98,1308.07 1457.06,1308.66 1459.14,1309.24 1461.21,1309.81 1463.29,1310.38 1465.37,1310.93 1467.45,1311.48 1469.52,1312.02 
  1471.6,1312.55 1473.68,1313.07 1475.76,1313.58 1477.83,1314.09 1479.91,1314.59 1481.99,1315.08 1484.07,1315.57 1486.14,1316.05 1488.22,1316.52 1490.3,1316.98 
  1492.38,1317.44 1494.45,1317.9 1496.53,1318.35 1498.61,1318.79 1500.69,1319.23 1502.76,1319.66 1504.84,1320.09 1506.92,1320.51 1509,1320.93 1511.07,1321.34 
  1513.15,1321.75 1515.23,1322.15 1517.31,1322.56 1519.38,1322.95 1521.46,1323.35 1523.54,1323.74 1525.62,1324.13 1527.69,1324.51 1529.77,1324.89 1531.85,1325.27 
  1533.93,1325.65 1536.01,1326.02 1538.08,1326.39 1540.16,1326.76 1542.24,1327.13 1544.32,1327.49 1546.39,1327.86 1548.47,1328.22 1550.55,1328.58 1552.63,1328.94 
  1554.7,1329.29 1556.78,1329.65 1558.86,1330 1560.94,1330.35 1563.01,1330.7 1565.09,1331.05 1567.17,1331.4 1569.25,1331.74 1571.32,1332.09 1573.4,1332.43 
  1575.48,1332.77 1577.56,1333.11 1579.63,1333.45 1581.71,1333.79 1583.79,1334.13 1585.87,1334.46 1587.94,1334.79 1590.02,1335.12 1592.1,1335.45 1594.18,1335.78 
  1596.25,1336.1 1598.33,1336.43 1600.41,1336.75 1602.49,1337.06 1604.56,1337.38 1606.64,1337.69 1608.72,1338 1610.8,1338.31 1612.87,1338.62 1614.95,1338.92 
  1617.03,1339.22 1619.11,1339.51 1621.19,1339.8 1623.26,1340.09 1625.34,1340.38 1627.42,1340.66 1629.5,1340.93 1631.57,1341.21 1633.65,1341.47 1635.73,1341.74 
  1637.81,1342 1639.88,1342.25 1641.96,1342.5 1644.04,1342.75 1646.12,1342.99 1648.19,1343.23 1650.27,1343.46 1652.35,1343.68 1654.43,1343.9 1656.5,1344.12 
  1658.58,1344.33 1660.66,1344.53 1662.74,1344.73 1664.81,1344.92 1666.89,1345.11 1668.97,1345.29 1671.05,1345.47 1673.12,1345.64 1675.2,1345.8 1677.28,1345.96 
  1679.36,1346.12 1681.43,1346.26 1683.51,1346.41 1685.59,1346.54 1687.67,1346.68 1689.74,1346.8 1691.82,1346.92 1693.9,1347.04 1695.98,1347.15 1698.05,1347.26 
  1700.13,1347.36 1702.21,1347.46 1704.29,1347.55 1706.36,1347.64 1708.44,1347.73 1710.52,1347.81 1712.6,1347.89 1714.68,1347.96 1716.75,1348.04 1718.83,1348.1 
  1720.91,1348.17 1722.99,1348.24 1725.06,1348.3 1727.14,1348.36 1729.22,1348.42 1731.3,1348.48 1733.37,1348.54 1735.45,1348.59 1737.53,1348.65 1739.61,1348.71 
  1741.68,1348.76 1743.76,1348.82 1745.84,1348.88 1747.92,1348.94 1749.99,1349.01 1752.07,1349.07 1754.15,1349.14 1756.23,1349.21 1758.3,1349.28 1760.38,1349.36 
  1762.46,1349.44 1764.54,1349.52 1766.61,1349.61 1768.69,1349.7 1770.77,1349.8 1772.85,1349.9 1774.92,1350.01 1777,1350.12 1779.08,1350.24 1781.16,1350.37 
  1783.23,1350.5 1785.31,1350.64 1787.39,1350.78 1789.47,1350.93 1791.54,1351.09 1793.62,1351.25 1795.7,1351.42 1797.78,1351.6 1799.86,1351.78 1801.93,1351.97 
  1804.01,1352.17 1806.09,1352.37 1808.17,1352.58 1810.24,1352.8 1812.32,1353.02 1814.4,1353.25 1816.48,1353.48 1818.55,1353.72 1820.63,1353.97 1822.71,1354.22 
  1824.79,1354.48 1826.86,1354.73 1828.94,1355 1831.02,1355.26 1833.1,1355.53 1835.17,1355.8 1837.25,1356.08 1839.33,1356.35 1841.41,1356.63 1843.48,1356.9 
  1845.56,1357.18 1847.64,1357.45 1849.72,1357.72 1851.79,1357.99 1853.87,1358.25 1855.95,1358.51 1858.03,1358.77 1860.1,1359.02 1862.18,1359.26 1864.26,1359.49 
  1866.34,1359.72 1868.41,1359.94 1870.49,1360.14 1872.57,1360.34 1874.65,1360.52 1876.72,1360.69 1878.8,1360.85 1880.88,1360.99 1882.96,1361.11 1885.03,1361.22 
  1887.11,1361.31 1889.19,1361.39 1891.27,1361.44 1893.35,1361.48 1895.42,1361.49 1897.5,1361.49 1899.58,1361.46 1901.66,1361.41 1903.73,1361.33 1905.81,1361.24 
  1907.89,1361.12 1909.97,1360.97 1912.04,1360.8 1914.12,1360.61 1916.2,1360.39 1918.28,1360.14 1920.35,1359.87 1922.43,1359.57 1924.51,1359.25 1926.59,1358.91 
  1928.66,1358.54 1930.74,1358.15 1932.82,1357.73 1934.9,1357.29 1936.97,1356.83 1939.05,1356.35 1941.13,1355.85 1943.21,1355.33 1945.28,1354.79 1947.36,1354.24 
  1949.44,1353.67 1951.52,1353.09 1953.59,1352.51 1955.67,1351.91 1957.75,1351.3 1959.83,1350.69 1961.9,1350.08 1963.98,1349.48 1966.06,1348.87 1968.14,1348.27 
  1970.21,1347.68 1972.29,1347.11 1974.37,1346.55 1976.45,1346.01 1978.53,1345.49 1980.6,1345 1982.68,1344.54 1984.76,1344.12 1986.84,1343.73 1988.91,1343.39 
  1990.99,1343.09 1993.07,1342.84 1995.15,1342.65 1997.22,1342.52 1999.3,1342.46 2001.38,1342.46 2003.46,1342.53 2005.53,1342.68 2007.61,1342.92 2009.69,1343.24 
  2011.77,1343.65 2013.84,1344.15 2015.92,1344.75 2018,1345.46 2020.08,1346.27 2022.15,1347.2 2024.23,1348.23 2026.31,1349.39 2028.39,1350.66 2030.46,1352.05 
  2032.54,1353.58 2034.62,1355.22 2036.7,1357 2038.77,1358.91 2040.85,1360.94 2042.93,1363.11 2045.01,1365.41 2047.08,1367.84 2049.16,1370.39 2051.24,1373.08 
  2053.32,1375.88 2055.39,1378.81 2057.47,1381.85 2059.55,1385 2061.63,1388.26 2063.7,1391.61 2065.78,1395.06 2067.86,1398.59 2069.94,1402.19 2072.02,1405.85 
  2074.09,1409.56 2076.17,1413.3 2078.25,1417.07 2080.33,1420.84 2082.4,1424.61 2084.48,1428.34 2086.56,1432.03 2088.64,1435.65 2090.71,1439.18 2092.79,1442.59 
  2094.87,1445.87 2096.95,1448.98 2099.02,1451.9 2101.1,1454.59 2103.18,1457.04 2105.26,1459.2 2107.33,1461.04 2109.41,1462.52 2111.49,1463.62 2113.57,1464.29 
  2115.64,1464.49 2117.72,1464.18 2119.8,1463.33 2121.88,1461.88 2123.95,1459.8 2126.03,1457.04 2128.11,1453.55 2130.19,1449.28 2132.26,1444.2 2134.34,1438.25 
  2136.42,1431.39 2138.5,1423.57 2140.57,1414.73 2142.65,1404.84 2144.73,1393.85 2146.81,1381.71 2148.88,1368.37 2150.96,1353.8 2153.04,1337.96 2155.12,1320.8 
  2157.2,1302.29 2159.27,1282.4 2161.35,1261.1 2163.43,1238.37 2165.51,1214.19 2167.58,1188.54 2169.66,1161.42 2171.74,1132.82 2173.82,1102.76 2175.89,1071.25 
  2177.97,1038.32 2180.05,1004 2182.13,968.332 2184.2,931.386 2186.28,893.231 2188.36,853.955 2190.44,813.662 2192.51,772.473 2194.59,730.528 2196.67,687.987 
  2198.75,645.033 2200.82,601.872 2202.9,558.735 2204.98,515.88 2207.06,473.596 2209.13,432.203 2211.21,392.054 2213.29,353.538 2215.37,317.083 2217.44,283.159 
  2219.52,252.28 2221.6,225.004 2223.68,201.944 2225.75,183.761 2227.83,171.176 2229.91,164.97 2231.99,165.986 2234.06,175.136 2236.14,193.404 2238.22,221.851 
  2240.3,261.617 2242.37,313.928 2244.45,380.102 2246.53,461.553 2248.61,559.792 2250.69,676.443 2252.76,813.239 2254.84,972.033 2256.92,1154.8 2259,1363.67 
  
  "/>
<polygon clip-path="url(#clip5101)" points="
1685.51,451.424 2249.26,451.424 2249.26,209.504 1685.51,209.504 
  " fill="#ffffff" fill-rule="evenodd" fill-opacity="1"/>
<polyline clip-path="url(#clip5101)" style="stroke:#000000; stroke-width:4; stroke-opacity:1; fill:none" points="
  1685.51,451.424 2249.26,451.424 2249.26,209.504 1685.51,209.504 1685.51,451.424 
  "/>
<polyline clip-path="url(#clip5101)" style="stroke:#009af9; stroke-width:4; stroke-opacity:1; fill:none" points="
  1709.51,269.984 1853.51,269.984 
  "/>
<g clip-path="url(#clip5101)">
<text style="fill:#000000; fill-opacity:1; font-family:Arial,Helvetica Neue,Helvetica,sans-serif; font-size:48px; text-anchor:start;" transform="rotate(0, 1877.51, 287.484)" x="1877.51" y="287.484">Runge function</text>
</g>
<circle clip-path="url(#clip5101)" style="fill:#000000; stroke:none; fill-opacity:1" cx="1793.51" cy="330.464" r="25"/>
<circle clip-path="url(#clip5101)" style="fill:#e26f46; stroke:none; fill-opacity:1" cx="1793.51" cy="330.464" r="21"/>
<g clip-path="url(#clip5101)">
<text style="fill:#000000; fill-opacity:1; font-family:Arial,Helvetica Neue,Helvetica,sans-serif; font-size:48px; text-anchor:start;" transform="rotate(0, 1877.51, 347.964)" x="1877.51" y="347.964">Nodes</text>
</g>
<polyline clip-path="url(#clip5101)" style="stroke:#3da44d; stroke-width:4; stroke-opacity:1; fill:none" points="
  1709.51,390.944 1853.51,390.944 
  "/>
<g clip-path="url(#clip5101)">
<text style="fill:#000000; fill-opacity:1; font-family:Arial,Helvetica Neue,Helvetica,sans-serif; font-size:48px; text-anchor:start;" transform="rotate(0, 1877.51, 408.444)" x="1877.51" y="408.444">Intepolation</text>
</g>
</svg>
