<?xml version="1.0" encoding="utf-8"?>
<svg xmlns="http://www.w3.org/2000/svg" xmlns:xlink="http://www.w3.org/1999/xlink" width="600" height="400" viewBox="0 0 2400 1600">
<defs>
  <clipPath id="clip6500">
    <rect x="0" y="0" width="2000" height="2000"/>
  </clipPath>
</defs>
<defs>
  <clipPath id="clip6501">
    <rect x="0" y="0" width="2400" height="1600"/>
  </clipPath>
</defs>
<polygon clip-path="url(#clip6501)" points="
0,1600 2400,1600 2400,0 0,0 
  " fill="#ffffff" fill-rule="evenodd" fill-opacity="1"/>
<defs>
  <clipPath id="clip6502">
    <rect x="480" y="0" width="1681" height="1600"/>
  </clipPath>
</defs>
<polygon clip-path="url(#clip6501)" points="
174.775,1503.47 2321.26,1503.47 2321.26,125.984 174.775,125.984 
  " fill="#ffffff" fill-rule="evenodd" fill-opacity="1"/>
<defs>
  <clipPath id="clip6503">
    <rect x="174" y="125" width="2147" height="1378"/>
  </clipPath>
</defs>
<polyline clip-path="url(#clip6503)" style="stroke:#000000; stroke-width:2; stroke-opacity:0.1; fill:none" points="
  235.525,1503.47 235.525,125.984 
  "/>
<polyline clip-path="url(#clip6503)" style="stroke:#000000; stroke-width:2; stroke-opacity:0.1; fill:none" points="
  741.771,1503.47 741.771,125.984 
  "/>
<polyline clip-path="url(#clip6503)" style="stroke:#000000; stroke-width:2; stroke-opacity:0.1; fill:none" points="
  1248.02,1503.47 1248.02,125.984 
  "/>
<polyline clip-path="url(#clip6503)" style="stroke:#000000; stroke-width:2; stroke-opacity:0.1; fill:none" points="
  1754.26,1503.47 1754.26,125.984 
  "/>
<polyline clip-path="url(#clip6503)" style="stroke:#000000; stroke-width:2; stroke-opacity:0.1; fill:none" points="
  2260.51,1503.47 2260.51,125.984 
  "/>
<polyline clip-path="url(#clip6503)" style="stroke:#000000; stroke-width:2; stroke-opacity:0.1; fill:none" points="
  174.775,1399.61 2321.26,1399.61 
  "/>
<polyline clip-path="url(#clip6503)" style="stroke:#000000; stroke-width:2; stroke-opacity:0.1; fill:none" points="
  174.775,1170.21 2321.26,1170.21 
  "/>
<polyline clip-path="url(#clip6503)" style="stroke:#000000; stroke-width:2; stroke-opacity:0.1; fill:none" points="
  174.775,940.817 2321.26,940.817 
  "/>
<polyline clip-path="url(#clip6503)" style="stroke:#000000; stroke-width:2; stroke-opacity:0.1; fill:none" points="
  174.775,711.42 2321.26,711.42 
  "/>
<polyline clip-path="url(#clip6503)" style="stroke:#000000; stroke-width:2; stroke-opacity:0.1; fill:none" points="
  174.775,482.023 2321.26,482.023 
  "/>
<polyline clip-path="url(#clip6503)" style="stroke:#000000; stroke-width:2; stroke-opacity:0.1; fill:none" points="
  174.775,252.625 2321.26,252.625 
  "/>
<polyline clip-path="url(#clip6501)" style="stroke:#000000; stroke-width:4; stroke-opacity:1; fill:none" points="
  174.775,1503.47 2321.26,1503.47 
  "/>
<polyline clip-path="url(#clip6501)" style="stroke:#000000; stroke-width:4; stroke-opacity:1; fill:none" points="
  174.775,1503.47 174.775,125.984 
  "/>
<polyline clip-path="url(#clip6501)" style="stroke:#000000; stroke-width:4; stroke-opacity:1; fill:none" points="
  235.525,1503.47 235.525,1482.81 
  "/>
<polyline clip-path="url(#clip6501)" style="stroke:#000000; stroke-width:4; stroke-opacity:1; fill:none" points="
  741.771,1503.47 741.771,1482.81 
  "/>
<polyline clip-path="url(#clip6501)" style="stroke:#000000; stroke-width:4; stroke-opacity:1; fill:none" points="
  1248.02,1503.47 1248.02,1482.81 
  "/>
<polyline clip-path="url(#clip6501)" style="stroke:#000000; stroke-width:4; stroke-opacity:1; fill:none" points="
  1754.26,1503.47 1754.26,1482.81 
  "/>
<polyline clip-path="url(#clip6501)" style="stroke:#000000; stroke-width:4; stroke-opacity:1; fill:none" points="
  2260.51,1503.47 2260.51,1482.81 
  "/>
<polyline clip-path="url(#clip6501)" style="stroke:#000000; stroke-width:4; stroke-opacity:1; fill:none" points="
  174.775,1399.61 206.972,1399.61 
  "/>
<polyline clip-path="url(#clip6501)" style="stroke:#000000; stroke-width:4; stroke-opacity:1; fill:none" points="
  174.775,1170.21 206.972,1170.21 
  "/>
<polyline clip-path="url(#clip6501)" style="stroke:#000000; stroke-width:4; stroke-opacity:1; fill:none" points="
  174.775,940.817 206.972,940.817 
  "/>
<polyline clip-path="url(#clip6501)" style="stroke:#000000; stroke-width:4; stroke-opacity:1; fill:none" points="
  174.775,711.42 206.972,711.42 
  "/>
<polyline clip-path="url(#clip6501)" style="stroke:#000000; stroke-width:4; stroke-opacity:1; fill:none" points="
  174.775,482.023 206.972,482.023 
  "/>
<polyline clip-path="url(#clip6501)" style="stroke:#000000; stroke-width:4; stroke-opacity:1; fill:none" points="
  174.775,252.625 206.972,252.625 
  "/>
<g clip-path="url(#clip6501)">
<text style="fill:#000000; fill-opacity:1; font-family:Arial,Helvetica Neue,Helvetica,sans-serif; font-size:48px; text-anchor:middle;" transform="rotate(0, 235.525, 1557.47)" x="235.525" y="1557.47">-1.0</text>
</g>
<g clip-path="url(#clip6501)">
<text style="fill:#000000; fill-opacity:1; font-family:Arial,Helvetica Neue,Helvetica,sans-serif; font-size:48px; text-anchor:middle;" transform="rotate(0, 741.771, 1557.47)" x="741.771" y="1557.47">-0.5</text>
</g>
<g clip-path="url(#clip6501)">
<text style="fill:#000000; fill-opacity:1; font-family:Arial,Helvetica Neue,Helvetica,sans-serif; font-size:48px; text-anchor:middle;" transform="rotate(0, 1248.02, 1557.47)" x="1248.02" y="1557.47">0.0</text>
</g>
<g clip-path="url(#clip6501)">
<text style="fill:#000000; fill-opacity:1; font-family:Arial,Helvetica Neue,Helvetica,sans-serif; font-size:48px; text-anchor:middle;" transform="rotate(0, 1754.26, 1557.47)" x="1754.26" y="1557.47">0.5</text>
</g>
<g clip-path="url(#clip6501)">
<text style="fill:#000000; fill-opacity:1; font-family:Arial,Helvetica Neue,Helvetica,sans-serif; font-size:48px; text-anchor:middle;" transform="rotate(0, 2260.51, 1557.47)" x="2260.51" y="1557.47">1.0</text>
</g>
<g clip-path="url(#clip6501)">
<text style="fill:#000000; fill-opacity:1; font-family:Arial,Helvetica Neue,Helvetica,sans-serif; font-size:48px; text-anchor:end;" transform="rotate(0, 150.775, 1417.11)" x="150.775" y="1417.11">0</text>
</g>
<g clip-path="url(#clip6501)">
<text style="fill:#000000; fill-opacity:1; font-family:Arial,Helvetica Neue,Helvetica,sans-serif; font-size:48px; text-anchor:end;" transform="rotate(0, 150.775, 1187.71)" x="150.775" y="1187.71">100</text>
</g>
<g clip-path="url(#clip6501)">
<text style="fill:#000000; fill-opacity:1; font-family:Arial,Helvetica Neue,Helvetica,sans-serif; font-size:48px; text-anchor:end;" transform="rotate(0, 150.775, 958.317)" x="150.775" y="958.317">200</text>
</g>
<g clip-path="url(#clip6501)">
<text style="fill:#000000; fill-opacity:1; font-family:Arial,Helvetica Neue,Helvetica,sans-serif; font-size:48px; text-anchor:end;" transform="rotate(0, 150.775, 728.92)" x="150.775" y="728.92">300</text>
</g>
<g clip-path="url(#clip6501)">
<text style="fill:#000000; fill-opacity:1; font-family:Arial,Helvetica Neue,Helvetica,sans-serif; font-size:48px; text-anchor:end;" transform="rotate(0, 150.775, 499.523)" x="150.775" y="499.523">400</text>
</g>
<g clip-path="url(#clip6501)">
<text style="fill:#000000; fill-opacity:1; font-family:Arial,Helvetica Neue,Helvetica,sans-serif; font-size:48px; text-anchor:end;" transform="rotate(0, 150.775, 270.125)" x="150.775" y="270.125">500</text>
</g>
<g clip-path="url(#clip6501)">
<text style="fill:#000000; fill-opacity:1; font-family:Arial,Helvetica Neue,Helvetica,sans-serif; font-size:84px; text-anchor:middle;" transform="rotate(0, 1248.02, 73.2)" x="1248.02" y="73.2">Runge&apos;s phenomenon (Nodes = 27)</text>
</g>
<polyline clip-path="url(#clip6503)" style="stroke:#009af9; stroke-width:4; stroke-opacity:1; fill:none" points="
  235.525,1399.52 237.552,1399.52 239.579,1399.52 241.606,1399.52 243.633,1399.52 245.66,1399.52 247.687,1399.52 249.714,1399.52 251.741,1399.52 253.768,1399.52 
  255.795,1399.52 257.822,1399.52 259.849,1399.52 261.876,1399.52 263.903,1399.52 265.93,1399.52 267.957,1399.52 269.984,1399.52 272.011,1399.52 274.038,1399.52 
  276.065,1399.52 278.092,1399.52 280.119,1399.52 282.146,1399.52 284.173,1399.52 286.2,1399.51 288.227,1399.51 290.254,1399.51 292.281,1399.51 294.308,1399.51 
  296.335,1399.51 298.362,1399.51 300.389,1399.51 302.416,1399.51 304.443,1399.51 306.47,1399.51 308.497,1399.51 310.524,1399.51 312.551,1399.51 314.578,1399.51 
  316.605,1399.51 318.632,1399.51 320.659,1399.51 322.686,1399.51 324.713,1399.51 326.74,1399.51 328.767,1399.51 330.794,1399.51 332.821,1399.51 334.848,1399.5 
  336.875,1399.5 338.902,1399.5 340.929,1399.5 342.956,1399.5 344.983,1399.5 347.01,1399.5 349.037,1399.5 351.064,1399.5 353.091,1399.5 355.119,1399.5 
  357.146,1399.5 359.173,1399.5 361.2,1399.5 363.227,1399.5 365.254,1399.5 367.281,1399.5 369.308,1399.5 371.335,1399.5 373.362,1399.5 375.389,1399.5 
  377.416,1399.49 379.443,1399.49 381.47,1399.49 383.497,1399.49 385.524,1399.49 387.551,1399.49 389.578,1399.49 391.605,1399.49 393.632,1399.49 395.659,1399.49 
  397.686,1399.49 399.713,1399.49 401.74,1399.49 403.767,1399.49 405.794,1399.49 407.821,1399.49 409.848,1399.49 411.875,1399.49 413.902,1399.48 415.929,1399.48 
  417.956,1399.48 419.983,1399.48 422.01,1399.48 424.037,1399.48 426.064,1399.48 428.091,1399.48 430.118,1399.48 432.145,1399.48 434.172,1399.48 436.199,1399.48 
  438.226,1399.48 440.253,1399.48 442.28,1399.48 444.307,1399.48 446.334,1399.47 448.361,1399.47 450.388,1399.47 452.415,1399.47 454.442,1399.47 456.469,1399.47 
  458.496,1399.47 460.523,1399.47 462.55,1399.47 464.577,1399.47 466.604,1399.47 468.631,1399.47 470.658,1399.47 472.685,1399.47 474.712,1399.47 476.739,1399.46 
  478.766,1399.46 480.793,1399.46 482.82,1399.46 484.847,1399.46 486.874,1399.46 488.901,1399.46 490.928,1399.46 492.955,1399.46 494.982,1399.46 497.009,1399.46 
  499.036,1399.46 501.063,1399.46 503.09,1399.45 505.117,1399.45 507.144,1399.45 509.171,1399.45 511.198,1399.45 513.225,1399.45 515.253,1399.45 517.28,1399.45 
  519.307,1399.45 521.334,1399.45 523.361,1399.45 525.388,1399.45 527.415,1399.44 529.442,1399.44 531.469,1399.44 533.496,1399.44 535.523,1399.44 537.55,1399.44 
  539.577,1399.44 541.604,1399.44 543.631,1399.44 545.658,1399.44 547.685,1399.44 549.712,1399.43 551.739,1399.43 553.766,1399.43 555.793,1399.43 557.82,1399.43 
  559.847,1399.43 561.874,1399.43 563.901,1399.43 565.928,1399.43 567.955,1399.43 569.982,1399.42 572.009,1399.42 574.036,1399.42 576.063,1399.42 578.09,1399.42 
  580.117,1399.42 582.144,1399.42 584.171,1399.42 586.198,1399.42 588.225,1399.41 590.252,1399.41 592.279,1399.41 594.306,1399.41 596.333,1399.41 598.36,1399.41 
  600.387,1399.41 602.414,1399.41 604.441,1399.41 606.468,1399.4 608.495,1399.4 610.522,1399.4 612.549,1399.4 614.576,1399.4 616.603,1399.4 618.63,1399.4 
  620.657,1399.4 622.684,1399.39 624.711,1399.39 626.738,1399.39 628.765,1399.39 630.792,1399.39 632.819,1399.39 634.846,1399.39 636.873,1399.39 638.9,1399.38 
  640.927,1399.38 642.954,1399.38 644.981,1399.38 647.008,1399.38 649.035,1399.38 651.062,1399.38 653.089,1399.37 655.116,1399.37 657.143,1399.37 659.17,1399.37 
  661.197,1399.37 663.224,1399.37 665.251,1399.37 667.278,1399.36 669.305,1399.36 671.332,1399.36 673.359,1399.36 675.386,1399.36 677.414,1399.36 679.441,1399.35 
  681.468,1399.35 683.495,1399.35 685.522,1399.35 687.549,1399.35 689.576,1399.35 691.603,1399.34 693.63,1399.34 695.657,1399.34 697.684,1399.34 699.711,1399.34 
  701.738,1399.34 703.765,1399.33 705.792,1399.33 707.819,1399.33 709.846,1399.33 711.873,1399.33 713.9,1399.32 715.927,1399.32 717.954,1399.32 719.981,1399.32 
  722.008,1399.32 724.035,1399.31 726.062,1399.31 728.089,1399.31 730.116,1399.31 732.143,1399.31 734.17,1399.3 736.197,1399.3 738.224,1399.3 740.251,1399.3 
  742.278,1399.3 744.305,1399.29 746.332,1399.29 748.359,1399.29 750.386,1399.29 752.413,1399.28 754.44,1399.28 756.467,1399.28 758.494,1399.28 760.521,1399.27 
  762.548,1399.27 764.575,1399.27 766.602,1399.27 768.629,1399.26 770.656,1399.26 772.683,1399.26 774.71,1399.26 776.737,1399.25 778.764,1399.25 780.791,1399.25 
  782.818,1399.25 784.845,1399.24 786.872,1399.24 788.899,1399.24 790.926,1399.24 792.953,1399.23 794.98,1399.23 797.007,1399.23 799.034,1399.22 801.061,1399.22 
  803.088,1399.22 805.115,1399.22 807.142,1399.21 809.169,1399.21 811.196,1399.21 813.223,1399.2 815.25,1399.2 817.277,1399.2 819.304,1399.19 821.331,1399.19 
  823.358,1399.19 825.385,1399.18 827.412,1399.18 829.439,1399.18 831.466,1399.17 833.493,1399.17 835.52,1399.17 837.547,1399.16 839.575,1399.16 841.602,1399.16 
  843.629,1399.15 845.656,1399.15 847.683,1399.14 849.71,1399.14 851.737,1399.14 853.764,1399.13 855.791,1399.13 857.818,1399.13 859.845,1399.12 861.872,1399.12 
  863.899,1399.11 865.926,1399.11 867.953,1399.11 869.98,1399.1 872.007,1399.1 874.034,1399.09 876.061,1399.09 878.088,1399.08 880.115,1399.08 882.142,1399.07 
  884.169,1399.07 886.196,1399.07 888.223,1399.06 890.25,1399.06 892.277,1399.05 894.304,1399.05 896.331,1399.04 898.358,1399.04 900.385,1399.03 902.412,1399.03 
  904.439,1399.02 906.466,1399.02 908.493,1399.01 910.52,1399.01 912.547,1399 914.574,1398.99 916.601,1398.99 918.628,1398.98 920.655,1398.98 922.682,1398.97 
  924.709,1398.97 926.736,1398.96 928.763,1398.95 930.79,1398.95 932.817,1398.94 934.844,1398.94 936.871,1398.93 938.898,1398.92 940.925,1398.92 942.952,1398.91 
  944.979,1398.9 947.006,1398.9 949.033,1398.89 951.06,1398.88 953.087,1398.88 955.114,1398.87 957.141,1398.86 959.168,1398.86 961.195,1398.85 963.222,1398.84 
  965.249,1398.83 967.276,1398.83 969.303,1398.82 971.33,1398.81 973.357,1398.8 975.384,1398.8 977.411,1398.79 979.438,1398.78 981.465,1398.77 983.492,1398.76 
  985.519,1398.76 987.546,1398.75 989.573,1398.74 991.6,1398.73 993.627,1398.72 995.654,1398.71 997.681,1398.7 999.708,1398.7 1001.74,1398.69 1003.76,1398.68 
  1005.79,1398.67 1007.82,1398.66 1009.84,1398.65 1011.87,1398.64 1013.9,1398.63 1015.92,1398.62 1017.95,1398.61 1019.98,1398.6 1022.01,1398.59 1024.03,1398.58 
  1026.06,1398.57 1028.09,1398.56 1030.11,1398.55 1032.14,1398.54 1034.17,1398.53 1036.19,1398.52 1038.22,1398.51 1040.25,1398.49 1042.28,1398.48 1044.3,1398.47 
  1046.33,1398.46 1048.36,1398.45 1050.38,1398.44 1052.41,1398.43 1054.44,1398.41 1056.46,1398.4 1058.49,1398.39 1060.52,1398.38 1062.55,1398.36 1064.57,1398.35 
  1066.6,1398.34 1068.63,1398.33 1070.65,1398.31 1072.68,1398.3 1074.71,1398.29 1076.73,1398.28 1078.76,1398.26 1080.79,1398.25 1082.82,1398.23 1084.84,1398.22 
  1086.87,1398.21 1088.9,1398.19 1090.92,1398.18 1092.95,1398.17 1094.98,1398.15 1097.01,1398.14 1099.03,1398.12 1101.06,1398.11 1103.09,1398.1 1105.11,1398.08 
  1107.14,1398.07 1109.17,1398.05 1111.19,1398.04 1113.22,1398.02 1115.25,1398.01 1117.28,1397.99 1119.3,1397.98 1121.33,1397.96 1123.36,1397.95 1125.38,1397.93 
  1127.41,1397.92 1129.44,1397.9 1131.46,1397.89 1133.49,1397.87 1135.52,1397.86 1137.55,1397.84 1139.57,1397.83 1141.6,1397.81 1143.63,1397.8 1145.65,1397.79 
  1147.68,1397.77 1149.71,1397.76 1151.73,1397.74 1153.76,1397.73 1155.79,1397.71 1157.82,1397.7 1159.84,1397.68 1161.87,1397.67 1163.9,1397.66 1165.92,1397.64 
  1167.95,1397.63 1169.98,1397.61 1172,1397.6 1174.03,1397.59 1176.06,1397.58 1178.09,1397.56 1180.11,1397.55 1182.14,1397.54 1184.17,1397.53 1186.19,1397.51 
  1188.22,1397.5 1190.25,1397.49 1192.27,1397.48 1194.3,1397.47 1196.33,1397.46 1198.36,1397.45 1200.38,1397.44 1202.41,1397.43 1204.44,1397.42 1206.46,1397.41 
  1208.49,1397.4 1210.52,1397.39 1212.54,1397.39 1214.57,1397.38 1216.6,1397.37 1218.63,1397.37 1220.65,1397.36 1222.68,1397.35 1224.71,1397.35 1226.73,1397.34 
  1228.76,1397.34 1230.79,1397.33 1232.81,1397.33 1234.84,1397.33 1236.87,1397.33 1238.9,1397.32 1240.92,1397.32 1242.95,1397.32 1244.98,1397.32 1247,1397.32 
  1249.03,1397.32 1251.06,1397.32 1253.09,1397.32 1255.11,1397.32 1257.14,1397.32 1259.17,1397.33 1261.19,1397.33 1263.22,1397.33 1265.25,1397.33 1267.27,1397.34 
  1269.3,1397.34 1271.33,1397.35 1273.36,1397.35 1275.38,1397.36 1277.41,1397.37 1279.44,1397.37 1281.46,1397.38 1283.49,1397.39 1285.52,1397.39 1287.54,1397.4 
  1289.57,1397.41 1291.6,1397.42 1293.63,1397.43 1295.65,1397.44 1297.68,1397.45 1299.71,1397.46 1301.73,1397.47 1303.76,1397.48 1305.79,1397.49 1307.81,1397.5 
  1309.84,1397.51 1311.87,1397.53 1313.9,1397.54 1315.92,1397.55 1317.95,1397.56 1319.98,1397.58 1322,1397.59 1324.03,1397.6 1326.06,1397.61 1328.08,1397.63 
  1330.11,1397.64 1332.14,1397.66 1334.17,1397.67 1336.19,1397.68 1338.22,1397.7 1340.25,1397.71 1342.27,1397.73 1344.3,1397.74 1346.33,1397.76 1348.35,1397.77 
  1350.38,1397.79 1352.41,1397.8 1354.44,1397.81 1356.46,1397.83 1358.49,1397.84 1360.52,1397.86 1362.54,1397.87 1364.57,1397.89 1366.6,1397.9 1368.62,1397.92 
  1370.65,1397.93 1372.68,1397.95 1374.71,1397.96 1376.73,1397.98 1378.76,1397.99 1380.79,1398.01 1382.81,1398.02 1384.84,1398.04 1386.87,1398.05 1388.89,1398.07 
  1390.92,1398.08 1392.95,1398.1 1394.98,1398.11 1397,1398.12 1399.03,1398.14 1401.06,1398.15 1403.08,1398.17 1405.11,1398.18 1407.14,1398.19 1409.17,1398.21 
  1411.19,1398.22 1413.22,1398.23 1415.25,1398.25 1417.27,1398.26 1419.3,1398.28 1421.33,1398.29 1423.35,1398.3 1425.38,1398.31 1427.41,1398.33 1429.44,1398.34 
  1431.46,1398.35 1433.49,1398.36 1435.52,1398.38 1437.54,1398.39 1439.57,1398.4 1441.6,1398.41 1443.62,1398.43 1445.65,1398.44 1447.68,1398.45 1449.71,1398.46 
  1451.73,1398.47 1453.76,1398.48 1455.79,1398.49 1457.81,1398.51 1459.84,1398.52 1461.87,1398.53 1463.89,1398.54 1465.92,1398.55 1467.95,1398.56 1469.98,1398.57 
  1472,1398.58 1474.03,1398.59 1476.06,1398.6 1478.08,1398.61 1480.11,1398.62 1482.14,1398.63 1484.16,1398.64 1486.19,1398.65 1488.22,1398.66 1490.25,1398.67 
  1492.27,1398.68 1494.3,1398.69 1496.33,1398.7 1498.35,1398.7 1500.38,1398.71 1502.41,1398.72 1504.43,1398.73 1506.46,1398.74 1508.49,1398.75 1510.52,1398.76 
  1512.54,1398.76 1514.57,1398.77 1516.6,1398.78 1518.62,1398.79 1520.65,1398.8 1522.68,1398.8 1524.7,1398.81 1526.73,1398.82 1528.76,1398.83 1530.79,1398.83 
  1532.81,1398.84 1534.84,1398.85 1536.87,1398.86 1538.89,1398.86 1540.92,1398.87 1542.95,1398.88 1544.97,1398.88 1547,1398.89 1549.03,1398.9 1551.06,1398.9 
  1553.08,1398.91 1555.11,1398.92 1557.14,1398.92 1559.16,1398.93 1561.19,1398.94 1563.22,1398.94 1565.24,1398.95 1567.27,1398.95 1569.3,1398.96 1571.33,1398.97 
  1573.35,1398.97 1575.38,1398.98 1577.41,1398.98 1579.43,1398.99 1581.46,1398.99 1583.49,1399 1585.52,1399.01 1587.54,1399.01 1589.57,1399.02 1591.6,1399.02 
  1593.62,1399.03 1595.65,1399.03 1597.68,1399.04 1599.7,1399.04 1601.73,1399.05 1603.76,1399.05 1605.79,1399.06 1607.81,1399.06 1609.84,1399.07 1611.87,1399.07 
  1613.89,1399.07 1615.92,1399.08 1617.95,1399.08 1619.97,1399.09 1622,1399.09 1624.03,1399.1 1626.06,1399.1 1628.08,1399.11 1630.11,1399.11 1632.14,1399.11 
  1634.16,1399.12 1636.19,1399.12 1638.22,1399.13 1640.24,1399.13 1642.27,1399.13 1644.3,1399.14 1646.33,1399.14 1648.35,1399.14 1650.38,1399.15 1652.41,1399.15 
  1654.43,1399.16 1656.46,1399.16 1658.49,1399.16 1660.51,1399.17 1662.54,1399.17 1664.57,1399.17 1666.6,1399.18 1668.62,1399.18 1670.65,1399.18 1672.68,1399.19 
  1674.7,1399.19 1676.73,1399.19 1678.76,1399.2 1680.78,1399.2 1682.81,1399.2 1684.84,1399.21 1686.87,1399.21 1688.89,1399.21 1690.92,1399.22 1692.95,1399.22 
  1694.97,1399.22 1697,1399.22 1699.03,1399.23 1701.05,1399.23 1703.08,1399.23 1705.11,1399.24 1707.14,1399.24 1709.16,1399.24 1711.19,1399.24 1713.22,1399.25 
  1715.24,1399.25 1717.27,1399.25 1719.3,1399.25 1721.32,1399.26 1723.35,1399.26 1725.38,1399.26 1727.41,1399.26 1729.43,1399.27 1731.46,1399.27 1733.49,1399.27 
  1735.51,1399.27 1737.54,1399.28 1739.57,1399.28 1741.6,1399.28 1743.62,1399.28 1745.65,1399.29 1747.68,1399.29 1749.7,1399.29 1751.73,1399.29 1753.76,1399.3 
  1755.78,1399.3 1757.81,1399.3 1759.84,1399.3 1761.87,1399.3 1763.89,1399.31 1765.92,1399.31 1767.95,1399.31 1769.97,1399.31 1772,1399.31 1774.03,1399.32 
  1776.05,1399.32 1778.08,1399.32 1780.11,1399.32 1782.14,1399.32 1784.16,1399.33 1786.19,1399.33 1788.22,1399.33 1790.24,1399.33 1792.27,1399.33 1794.3,1399.34 
  1796.32,1399.34 1798.35,1399.34 1800.38,1399.34 1802.41,1399.34 1804.43,1399.34 1806.46,1399.35 1808.49,1399.35 1810.51,1399.35 1812.54,1399.35 1814.57,1399.35 
  1816.59,1399.35 1818.62,1399.36 1820.65,1399.36 1822.68,1399.36 1824.7,1399.36 1826.73,1399.36 1828.76,1399.36 1830.78,1399.37 1832.81,1399.37 1834.84,1399.37 
  1836.86,1399.37 1838.89,1399.37 1840.92,1399.37 1842.95,1399.37 1844.97,1399.38 1847,1399.38 1849.03,1399.38 1851.05,1399.38 1853.08,1399.38 1855.11,1399.38 
  1857.13,1399.38 1859.16,1399.39 1861.19,1399.39 1863.22,1399.39 1865.24,1399.39 1867.27,1399.39 1869.3,1399.39 1871.32,1399.39 1873.35,1399.39 1875.38,1399.4 
  1877.4,1399.4 1879.43,1399.4 1881.46,1399.4 1883.49,1399.4 1885.51,1399.4 1887.54,1399.4 1889.57,1399.4 1891.59,1399.41 1893.62,1399.41 1895.65,1399.41 
  1897.68,1399.41 1899.7,1399.41 1901.73,1399.41 1903.76,1399.41 1905.78,1399.41 1907.81,1399.41 1909.84,1399.42 1911.86,1399.42 1913.89,1399.42 1915.92,1399.42 
  1917.95,1399.42 1919.97,1399.42 1922,1399.42 1924.03,1399.42 1926.05,1399.42 1928.08,1399.43 1930.11,1399.43 1932.13,1399.43 1934.16,1399.43 1936.19,1399.43 
  1938.22,1399.43 1940.24,1399.43 1942.27,1399.43 1944.3,1399.43 1946.32,1399.43 1948.35,1399.44 1950.38,1399.44 1952.4,1399.44 1954.43,1399.44 1956.46,1399.44 
  1958.49,1399.44 1960.51,1399.44 1962.54,1399.44 1964.57,1399.44 1966.59,1399.44 1968.62,1399.44 1970.65,1399.45 1972.67,1399.45 1974.7,1399.45 1976.73,1399.45 
  1978.76,1399.45 1980.78,1399.45 1982.81,1399.45 1984.84,1399.45 1986.86,1399.45 1988.89,1399.45 1990.92,1399.45 1992.94,1399.45 1994.97,1399.46 1997,1399.46 
  1999.03,1399.46 2001.05,1399.46 2003.08,1399.46 2005.11,1399.46 2007.13,1399.46 2009.16,1399.46 2011.19,1399.46 2013.21,1399.46 2015.24,1399.46 2017.27,1399.46 
  2019.3,1399.46 2021.32,1399.47 2023.35,1399.47 2025.38,1399.47 2027.4,1399.47 2029.43,1399.47 2031.46,1399.47 2033.48,1399.47 2035.51,1399.47 2037.54,1399.47 
  2039.57,1399.47 2041.59,1399.47 2043.62,1399.47 2045.65,1399.47 2047.67,1399.47 2049.7,1399.47 2051.73,1399.48 2053.76,1399.48 2055.78,1399.48 2057.81,1399.48 
  2059.84,1399.48 2061.86,1399.48 2063.89,1399.48 2065.92,1399.48 2067.94,1399.48 2069.97,1399.48 2072,1399.48 2074.03,1399.48 2076.05,1399.48 2078.08,1399.48 
  2080.11,1399.48 2082.13,1399.48 2084.16,1399.49 2086.19,1399.49 2088.21,1399.49 2090.24,1399.49 2092.27,1399.49 2094.3,1399.49 2096.32,1399.49 2098.35,1399.49 
  2100.38,1399.49 2102.4,1399.49 2104.43,1399.49 2106.46,1399.49 2108.48,1399.49 2110.51,1399.49 2112.54,1399.49 2114.57,1399.49 2116.59,1399.49 2118.62,1399.49 
  2120.65,1399.5 2122.67,1399.5 2124.7,1399.5 2126.73,1399.5 2128.75,1399.5 2130.78,1399.5 2132.81,1399.5 2134.84,1399.5 2136.86,1399.5 2138.89,1399.5 
  2140.92,1399.5 2142.94,1399.5 2144.97,1399.5 2147,1399.5 2149.02,1399.5 2151.05,1399.5 2153.08,1399.5 2155.11,1399.5 2157.13,1399.5 2159.16,1399.5 
  2161.19,1399.5 2163.21,1399.51 2165.24,1399.51 2167.27,1399.51 2169.29,1399.51 2171.32,1399.51 2173.35,1399.51 2175.38,1399.51 2177.4,1399.51 2179.43,1399.51 
  2181.46,1399.51 2183.48,1399.51 2185.51,1399.51 2187.54,1399.51 2189.56,1399.51 2191.59,1399.51 2193.62,1399.51 2195.65,1399.51 2197.67,1399.51 2199.7,1399.51 
  2201.73,1399.51 2203.75,1399.51 2205.78,1399.51 2207.81,1399.51 2209.83,1399.51 2211.86,1399.52 2213.89,1399.52 2215.92,1399.52 2217.94,1399.52 2219.97,1399.52 
  2222,1399.52 2224.02,1399.52 2226.05,1399.52 2228.08,1399.52 2230.11,1399.52 2232.13,1399.52 2234.16,1399.52 2236.19,1399.52 2238.21,1399.52 2240.24,1399.52 
  2242.27,1399.52 2244.29,1399.52 2246.32,1399.52 2248.35,1399.52 2250.38,1399.52 2252.4,1399.52 2254.43,1399.52 2256.46,1399.52 2258.48,1399.52 2260.51,1399.52 
  
  "/>
<circle clip-path="url(#clip6503)" style="fill:#000000; stroke:none; fill-opacity:1" cx="235.525" cy="1399.52" r="18"/>
<circle clip-path="url(#clip6503)" style="fill:#e26f46; stroke:none; fill-opacity:1" cx="235.525" cy="1399.52" r="14"/>
<circle clip-path="url(#clip6503)" style="fill:#000000; stroke:none; fill-opacity:1" cx="313.409" cy="1399.51" r="18"/>
<circle clip-path="url(#clip6503)" style="fill:#e26f46; stroke:none; fill-opacity:1" cx="313.409" cy="1399.51" r="14"/>
<circle clip-path="url(#clip6503)" style="fill:#000000; stroke:none; fill-opacity:1" cx="391.293" cy="1399.49" r="18"/>
<circle clip-path="url(#clip6503)" style="fill:#e26f46; stroke:none; fill-opacity:1" cx="391.293" cy="1399.49" r="14"/>
<circle clip-path="url(#clip6503)" style="fill:#000000; stroke:none; fill-opacity:1" cx="469.177" cy="1399.47" r="18"/>
<circle clip-path="url(#clip6503)" style="fill:#e26f46; stroke:none; fill-opacity:1" cx="469.177" cy="1399.47" r="14"/>
<circle clip-path="url(#clip6503)" style="fill:#000000; stroke:none; fill-opacity:1" cx="547.061" cy="1399.44" r="18"/>
<circle clip-path="url(#clip6503)" style="fill:#e26f46; stroke:none; fill-opacity:1" cx="547.061" cy="1399.44" r="14"/>
<circle clip-path="url(#clip6503)" style="fill:#000000; stroke:none; fill-opacity:1" cx="624.945" cy="1399.39" r="18"/>
<circle clip-path="url(#clip6503)" style="fill:#e26f46; stroke:none; fill-opacity:1" cx="624.945" cy="1399.39" r="14"/>
<circle clip-path="url(#clip6503)" style="fill:#000000; stroke:none; fill-opacity:1" cx="702.829" cy="1399.33" r="18"/>
<circle clip-path="url(#clip6503)" style="fill:#e26f46; stroke:none; fill-opacity:1" cx="702.829" cy="1399.33" r="14"/>
<circle clip-path="url(#clip6503)" style="fill:#000000; stroke:none; fill-opacity:1" cx="780.713" cy="1399.25" r="18"/>
<circle clip-path="url(#clip6503)" style="fill:#e26f46; stroke:none; fill-opacity:1" cx="780.713" cy="1399.25" r="14"/>
<circle clip-path="url(#clip6503)" style="fill:#000000; stroke:none; fill-opacity:1" cx="858.597" cy="1399.12" r="18"/>
<circle clip-path="url(#clip6503)" style="fill:#e26f46; stroke:none; fill-opacity:1" cx="858.597" cy="1399.12" r="14"/>
<circle clip-path="url(#clip6503)" style="fill:#000000; stroke:none; fill-opacity:1" cx="936.481" cy="1398.93" r="18"/>
<circle clip-path="url(#clip6503)" style="fill:#e26f46; stroke:none; fill-opacity:1" cx="936.481" cy="1398.93" r="14"/>
<circle clip-path="url(#clip6503)" style="fill:#000000; stroke:none; fill-opacity:1" cx="1014.37" cy="1398.63" r="18"/>
<circle clip-path="url(#clip6503)" style="fill:#e26f46; stroke:none; fill-opacity:1" cx="1014.37" cy="1398.63" r="14"/>
<circle clip-path="url(#clip6503)" style="fill:#000000; stroke:none; fill-opacity:1" cx="1092.25" cy="1398.17" r="18"/>
<circle clip-path="url(#clip6503)" style="fill:#e26f46; stroke:none; fill-opacity:1" cx="1092.25" cy="1398.17" r="14"/>
<circle clip-path="url(#clip6503)" style="fill:#000000; stroke:none; fill-opacity:1" cx="1170.13" cy="1397.61" r="18"/>
<circle clip-path="url(#clip6503)" style="fill:#e26f46; stroke:none; fill-opacity:1" cx="1170.13" cy="1397.61" r="14"/>
<circle clip-path="url(#clip6503)" style="fill:#000000; stroke:none; fill-opacity:1" cx="1248.02" cy="1397.32" r="18"/>
<circle clip-path="url(#clip6503)" style="fill:#e26f46; stroke:none; fill-opacity:1" cx="1248.02" cy="1397.32" r="14"/>
<circle clip-path="url(#clip6503)" style="fill:#000000; stroke:none; fill-opacity:1" cx="1325.9" cy="1397.61" r="18"/>
<circle clip-path="url(#clip6503)" style="fill:#e26f46; stroke:none; fill-opacity:1" cx="1325.9" cy="1397.61" r="14"/>
<circle clip-path="url(#clip6503)" style="fill:#000000; stroke:none; fill-opacity:1" cx="1403.79" cy="1398.17" r="18"/>
<circle clip-path="url(#clip6503)" style="fill:#e26f46; stroke:none; fill-opacity:1" cx="1403.79" cy="1398.17" r="14"/>
<circle clip-path="url(#clip6503)" style="fill:#000000; stroke:none; fill-opacity:1" cx="1481.67" cy="1398.63" r="18"/>
<circle clip-path="url(#clip6503)" style="fill:#e26f46; stroke:none; fill-opacity:1" cx="1481.67" cy="1398.63" r="14"/>
<circle clip-path="url(#clip6503)" style="fill:#000000; stroke:none; fill-opacity:1" cx="1559.55" cy="1398.93" r="18"/>
<circle clip-path="url(#clip6503)" style="fill:#e26f46; stroke:none; fill-opacity:1" cx="1559.55" cy="1398.93" r="14"/>
<circle clip-path="url(#clip6503)" style="fill:#000000; stroke:none; fill-opacity:1" cx="1637.44" cy="1399.12" r="18"/>
<circle clip-path="url(#clip6503)" style="fill:#e26f46; stroke:none; fill-opacity:1" cx="1637.44" cy="1399.12" r="14"/>
<circle clip-path="url(#clip6503)" style="fill:#000000; stroke:none; fill-opacity:1" cx="1715.32" cy="1399.25" r="18"/>
<circle clip-path="url(#clip6503)" style="fill:#e26f46; stroke:none; fill-opacity:1" cx="1715.32" cy="1399.25" r="14"/>
<circle clip-path="url(#clip6503)" style="fill:#000000; stroke:none; fill-opacity:1" cx="1793.21" cy="1399.33" r="18"/>
<circle clip-path="url(#clip6503)" style="fill:#e26f46; stroke:none; fill-opacity:1" cx="1793.21" cy="1399.33" r="14"/>
<circle clip-path="url(#clip6503)" style="fill:#000000; stroke:none; fill-opacity:1" cx="1871.09" cy="1399.39" r="18"/>
<circle clip-path="url(#clip6503)" style="fill:#e26f46; stroke:none; fill-opacity:1" cx="1871.09" cy="1399.39" r="14"/>
<circle clip-path="url(#clip6503)" style="fill:#000000; stroke:none; fill-opacity:1" cx="1948.97" cy="1399.44" r="18"/>
<circle clip-path="url(#clip6503)" style="fill:#e26f46; stroke:none; fill-opacity:1" cx="1948.97" cy="1399.44" r="14"/>
<circle clip-path="url(#clip6503)" style="fill:#000000; stroke:none; fill-opacity:1" cx="2026.86" cy="1399.47" r="18"/>
<circle clip-path="url(#clip6503)" style="fill:#e26f46; stroke:none; fill-opacity:1" cx="2026.86" cy="1399.47" r="14"/>
<circle clip-path="url(#clip6503)" style="fill:#000000; stroke:none; fill-opacity:1" cx="2104.74" cy="1399.49" r="18"/>
<circle clip-path="url(#clip6503)" style="fill:#e26f46; stroke:none; fill-opacity:1" cx="2104.74" cy="1399.49" r="14"/>
<circle clip-path="url(#clip6503)" style="fill:#000000; stroke:none; fill-opacity:1" cx="2182.63" cy="1399.51" r="18"/>
<circle clip-path="url(#clip6503)" style="fill:#e26f46; stroke:none; fill-opacity:1" cx="2182.63" cy="1399.51" r="14"/>
<circle clip-path="url(#clip6503)" style="fill:#000000; stroke:none; fill-opacity:1" cx="2260.51" cy="1399.52" r="18"/>
<circle clip-path="url(#clip6503)" style="fill:#e26f46; stroke:none; fill-opacity:1" cx="2260.51" cy="1399.52" r="14"/>
<polyline clip-path="url(#clip6503)" style="stroke:#3da44d; stroke-width:4; stroke-opacity:1; fill:none" points="
  235.525,1399.52 237.552,1082.64 239.579,826.153 241.606,622.342 243.633,464.283 245.66,345.77 247.687,261.261 249.714,205.808 251.741,175.013 253.768,164.97 
  255.795,172.223 257.822,193.724 259.849,226.791 261.876,269.075 263.903,318.525 265.93,373.359 267.957,432.04 269.984,493.242 272.011,555.838 274.038,618.869 
  276.065,681.533 278.092,743.163 280.119,803.212 282.146,861.239 284.173,916.897 286.2,969.921 288.227,1020.12 290.254,1067.35 292.281,1111.54 294.308,1152.65 
  296.335,1190.69 298.362,1225.69 300.389,1257.72 302.416,1286.86 304.443,1313.21 306.47,1336.88 308.497,1358.02 310.524,1376.74 312.551,1393.2 314.578,1407.52 
  316.605,1419.87 318.632,1430.38 320.659,1439.19 322.686,1446.44 324.713,1452.28 326.74,1456.82 328.767,1460.19 330.794,1462.52 332.821,1463.92 334.848,1464.49 
  336.875,1464.34 338.902,1463.55 340.929,1462.23 342.956,1460.45 344.983,1458.28 347.01,1455.8 349.037,1453.06 351.064,1450.13 353.091,1447.06 355.119,1443.89 
  357.146,1440.67 359.173,1437.43 361.2,1434.21 363.227,1431.03 365.254,1427.91 367.281,1424.89 369.308,1421.97 371.335,1419.18 373.362,1416.51 375.389,1413.99 
  377.416,1411.61 379.443,1409.39 381.47,1407.32 383.497,1405.41 385.524,1403.66 387.551,1402.05 389.578,1400.6 391.605,1399.3 393.632,1398.14 395.659,1397.11 
  397.686,1396.22 399.713,1395.45 401.74,1394.8 403.767,1394.26 405.794,1393.82 407.821,1393.48 409.848,1393.23 411.875,1393.06 413.902,1392.96 415.929,1392.93 
  417.956,1392.96 419.983,1393.05 422.01,1393.18 424.037,1393.36 426.064,1393.57 428.091,1393.81 430.118,1394.07 432.145,1394.36 434.172,1394.66 436.199,1394.98 
  438.226,1395.3 440.253,1395.63 442.28,1395.96 444.307,1396.28 446.334,1396.61 448.361,1396.92 450.388,1397.23 452.415,1397.53 454.442,1397.82 456.469,1398.09 
  458.496,1398.35 460.523,1398.6 462.55,1398.83 464.577,1399.04 466.604,1399.24 468.631,1399.42 470.658,1399.59 472.685,1399.74 474.712,1399.87 476.739,1399.99 
  478.766,1400.09 480.793,1400.18 482.82,1400.26 484.847,1400.32 486.874,1400.37 488.901,1400.41 490.928,1400.44 492.955,1400.45 494.982,1400.46 497.009,1400.46 
  499.036,1400.45 501.063,1400.43 503.09,1400.41 505.117,1400.38 507.144,1400.35 509.171,1400.31 511.198,1400.27 513.225,1400.22 515.253,1400.17 517.28,1400.12 
  519.307,1400.07 521.334,1400.02 523.361,1399.97 525.388,1399.91 527.415,1399.86 529.442,1399.81 531.469,1399.76 533.496,1399.71 535.523,1399.66 537.55,1399.62 
  539.577,1399.58 541.604,1399.53 543.631,1399.5 545.658,1399.46 547.685,1399.43 549.712,1399.39 551.739,1399.37 553.766,1399.34 555.793,1399.32 557.82,1399.29 
  559.847,1399.28 561.874,1399.26 563.901,1399.25 565.928,1399.24 567.955,1399.23 569.982,1399.22 572.009,1399.21 574.036,1399.21 576.063,1399.21 578.09,1399.21 
  580.117,1399.21 582.144,1399.21 584.171,1399.22 586.198,1399.22 588.225,1399.23 590.252,1399.24 592.279,1399.25 594.306,1399.25 596.333,1399.26 598.36,1399.27 
  600.387,1399.28 602.414,1399.29 604.441,1399.3 606.468,1399.31 608.495,1399.32 610.522,1399.33 612.549,1399.34 614.576,1399.35 616.603,1399.36 618.63,1399.37 
  620.657,1399.38 622.684,1399.39 624.711,1399.39 626.738,1399.4 628.765,1399.41 630.792,1399.41 632.819,1399.42 634.846,1399.42 636.873,1399.42 638.9,1399.43 
  640.927,1399.43 642.954,1399.43 644.981,1399.43 647.008,1399.43 649.035,1399.43 651.062,1399.43 653.089,1399.43 655.116,1399.43 657.143,1399.43 659.17,1399.43 
  661.197,1399.42 663.224,1399.42 665.251,1399.42 667.278,1399.41 669.305,1399.41 671.332,1399.41 673.359,1399.4 675.386,1399.4 677.414,1399.39 679.441,1399.39 
  681.468,1399.38 683.495,1399.38 685.522,1399.37 687.549,1399.37 689.576,1399.36 691.603,1399.36 693.63,1399.36 695.657,1399.35 697.684,1399.35 699.711,1399.34 
  701.738,1399.34 703.765,1399.33 705.792,1399.33 707.819,1399.32 709.846,1399.32 711.873,1399.32 713.9,1399.31 715.927,1399.31 717.954,1399.31 719.981,1399.3 
  722.008,1399.3 724.035,1399.3 726.062,1399.29 728.089,1399.29 730.116,1399.29 732.143,1399.29 734.17,1399.28 736.197,1399.28 738.224,1399.28 740.251,1399.28 
  742.278,1399.28 744.305,1399.27 746.332,1399.27 748.359,1399.27 750.386,1399.27 752.413,1399.27 754.44,1399.27 756.467,1399.27 758.494,1399.26 760.521,1399.26 
  762.548,1399.26 764.575,1399.26 766.602,1399.26 768.629,1399.26 770.656,1399.26 772.683,1399.26 774.71,1399.25 776.737,1399.25 778.764,1399.25 780.791,1399.25 
  782.818,1399.25 784.845,1399.25 786.872,1399.24 788.899,1399.24 790.926,1399.24 792.953,1399.24 794.98,1399.24 797.007,1399.23 799.034,1399.23 801.061,1399.23 
  803.088,1399.23 805.115,1399.22 807.142,1399.22 809.169,1399.22 811.196,1399.21 813.223,1399.21 815.25,1399.21 817.277,1399.21 819.304,1399.2 821.331,1399.2 
  823.358,1399.2 825.385,1399.19 827.412,1399.19 829.439,1399.18 831.466,1399.18 833.493,1399.18 835.52,1399.17 837.547,1399.17 839.575,1399.16 841.602,1399.16 
  843.629,1399.16 845.656,1399.15 847.683,1399.15 849.71,1399.14 851.737,1399.14 853.764,1399.13 855.791,1399.13 857.818,1399.13 859.845,1399.12 861.872,1399.12 
  863.899,1399.11 865.926,1399.11 867.953,1399.1 869.98,1399.1 872.007,1399.09 874.034,1399.09 876.061,1399.08 878.088,1399.08 880.115,1399.08 882.142,1399.07 
  884.169,1399.07 886.196,1399.06 888.223,1399.06 890.25,1399.05 892.277,1399.05 894.304,1399.04 896.331,1399.04 898.358,1399.03 900.385,1399.03 902.412,1399.02 
  904.439,1399.02 906.466,1399.01 908.493,1399.01 910.52,1399 912.547,1399 914.574,1398.99 916.601,1398.99 918.628,1398.98 920.655,1398.98 922.682,1398.97 
  924.709,1398.96 926.736,1398.96 928.763,1398.95 930.79,1398.95 932.817,1398.94 934.844,1398.94 936.871,1398.93 938.898,1398.92 940.925,1398.92 942.952,1398.91 
  944.979,1398.91 947.006,1398.9 949.033,1398.89 951.06,1398.89 953.087,1398.88 955.114,1398.87 957.141,1398.87 959.168,1398.86 961.195,1398.85 963.222,1398.84 
  965.249,1398.84 967.276,1398.83 969.303,1398.82 971.33,1398.81 973.357,1398.81 975.384,1398.8 977.411,1398.79 979.438,1398.78 981.465,1398.78 983.492,1398.77 
  985.519,1398.76 987.546,1398.75 989.573,1398.74 991.6,1398.73 993.627,1398.72 995.654,1398.72 997.681,1398.71 999.708,1398.7 1001.74,1398.69 1003.76,1398.68 
  1005.79,1398.67 1007.82,1398.66 1009.84,1398.65 1011.87,1398.64 1013.9,1398.63 1015.92,1398.62 1017.95,1398.61 1019.98,1398.6 1022.01,1398.59 1024.03,1398.58 
  1026.06,1398.57 1028.09,1398.56 1030.11,1398.55 1032.14,1398.54 1034.17,1398.53 1036.19,1398.52 1038.22,1398.5 1040.25,1398.49 1042.28,1398.48 1044.3,1398.47 
  1046.33,1398.46 1048.36,1398.45 1050.38,1398.44 1052.41,1398.42 1054.44,1398.41 1056.46,1398.4 1058.49,1398.39 1060.52,1398.38 1062.55,1398.36 1064.57,1398.35 
  1066.6,1398.34 1068.63,1398.33 1070.65,1398.31 1072.68,1398.3 1074.71,1398.29 1076.73,1398.27 1078.76,1398.26 1080.79,1398.25 1082.82,1398.23 1084.84,1398.22 
  1086.87,1398.21 1088.9,1398.19 1090.92,1398.18 1092.95,1398.17 1094.98,1398.15 1097.01,1398.14 1099.03,1398.12 1101.06,1398.11 1103.09,1398.1 1105.11,1398.08 
  1107.14,1398.07 1109.17,1398.05 1111.19,1398.04 1113.22,1398.02 1115.25,1398.01 1117.28,1397.99 1119.3,1397.98 1121.33,1397.96 1123.36,1397.95 1125.38,1397.93 
  1127.41,1397.92 1129.44,1397.91 1131.46,1397.89 1133.49,1397.88 1135.52,1397.86 1137.55,1397.85 1139.57,1397.83 1141.6,1397.82 1143.63,1397.8 1145.65,1397.79 
  1147.68,1397.77 1149.71,1397.76 1151.73,1397.74 1153.76,1397.73 1155.79,1397.71 1157.82,1397.7 1159.84,1397.68 1161.87,1397.67 1163.9,1397.66 1165.92,1397.64 
  1167.95,1397.63 1169.98,1397.61 1172,1397.6 1174.03,1397.59 1176.06,1397.58 1178.09,1397.56 1180.11,1397.55 1182.14,1397.54 1184.17,1397.53 1186.19,1397.51 
  1188.22,1397.5 1190.25,1397.49 1192.27,1397.48 1194.3,1397.47 1196.33,1397.46 1198.36,1397.45 1200.38,1397.44 1202.41,1397.43 1204.44,1397.42 1206.46,1397.41 
  1208.49,1397.4 1210.52,1397.39 1212.54,1397.39 1214.57,1397.38 1216.6,1397.37 1218.63,1397.37 1220.65,1397.36 1222.68,1397.35 1224.71,1397.35 1226.73,1397.34 
  1228.76,1397.34 1230.79,1397.33 1232.81,1397.33 1234.84,1397.33 1236.87,1397.33 1238.9,1397.32 1240.92,1397.32 1242.95,1397.32 1244.98,1397.32 1247,1397.32 
  1249.03,1397.32 1251.06,1397.32 1253.09,1397.32 1255.11,1397.32 1257.14,1397.32 1259.17,1397.33 1261.19,1397.33 1263.22,1397.33 1265.25,1397.33 1267.27,1397.34 
  1269.3,1397.34 1271.33,1397.35 1273.36,1397.35 1275.38,1397.36 1277.41,1397.37 1279.44,1397.37 1281.46,1397.38 1283.49,1397.39 1285.52,1397.39 1287.54,1397.4 
  1289.57,1397.41 1291.6,1397.42 1293.63,1397.43 1295.65,1397.44 1297.68,1397.45 1299.71,1397.46 1301.73,1397.47 1303.76,1397.48 1305.79,1397.49 1307.81,1397.5 
  1309.84,1397.51 1311.87,1397.53 1313.9,1397.54 1315.92,1397.55 1317.95,1397.56 1319.98,1397.58 1322,1397.59 1324.03,1397.6 1326.06,1397.61 1328.08,1397.63 
  1330.11,1397.64 1332.14,1397.66 1334.17,1397.67 1336.19,1397.68 1338.22,1397.7 1340.25,1397.71 1342.27,1397.73 1344.3,1397.74 1346.33,1397.76 1348.35,1397.77 
  1350.38,1397.79 1352.41,1397.8 1354.44,1397.82 1356.46,1397.83 1358.49,1397.85 1360.52,1397.86 1362.54,1397.88 1364.57,1397.89 1366.6,1397.91 1368.62,1397.92 
  1370.65,1397.93 1372.68,1397.95 1374.71,1397.96 1376.73,1397.98 1378.76,1397.99 1380.79,1398.01 1382.81,1398.02 1384.84,1398.04 1386.87,1398.05 1388.89,1398.07 
  1390.92,1398.08 1392.95,1398.1 1394.98,1398.11 1397,1398.12 1399.03,1398.14 1401.06,1398.15 1403.08,1398.17 1405.11,1398.18 1407.14,1398.19 1409.17,1398.21 
  1411.19,1398.22 1413.22,1398.23 1415.25,1398.25 1417.27,1398.26 1419.3,1398.27 1421.33,1398.29 1423.35,1398.3 1425.38,1398.31 1427.41,1398.33 1429.44,1398.34 
  1431.46,1398.35 1433.49,1398.36 1435.52,1398.38 1437.54,1398.39 1439.57,1398.4 1441.6,1398.41 1443.62,1398.42 1445.65,1398.44 1447.68,1398.45 1449.71,1398.46 
  1451.73,1398.47 1453.76,1398.48 1455.79,1398.49 1457.81,1398.5 1459.84,1398.52 1461.87,1398.53 1463.89,1398.54 1465.92,1398.55 1467.95,1398.56 1469.98,1398.57 
  1472,1398.58 1474.03,1398.59 1476.06,1398.6 1478.08,1398.61 1480.11,1398.62 1482.14,1398.63 1484.16,1398.64 1486.19,1398.65 1488.22,1398.66 1490.25,1398.67 
  1492.27,1398.68 1494.3,1398.69 1496.33,1398.7 1498.35,1398.71 1500.38,1398.72 1502.41,1398.72 1504.43,1398.73 1506.46,1398.74 1508.49,1398.75 1510.52,1398.76 
  1512.54,1398.77 1514.57,1398.78 1516.6,1398.78 1518.62,1398.79 1520.65,1398.8 1522.68,1398.81 1524.7,1398.81 1526.73,1398.82 1528.76,1398.83 1530.79,1398.84 
  1532.81,1398.84 1534.84,1398.85 1536.87,1398.86 1538.89,1398.87 1540.92,1398.87 1542.95,1398.88 1544.97,1398.89 1547,1398.89 1549.03,1398.9 1551.06,1398.91 
  1553.08,1398.91 1555.11,1398.92 1557.14,1398.92 1559.16,1398.93 1561.19,1398.94 1563.22,1398.94 1565.24,1398.95 1567.27,1398.95 1569.3,1398.96 1571.33,1398.96 
  1573.35,1398.97 1575.38,1398.98 1577.41,1398.98 1579.43,1398.99 1581.46,1398.99 1583.49,1399 1585.52,1399 1587.54,1399.01 1589.57,1399.01 1591.6,1399.02 
  1593.62,1399.02 1595.65,1399.03 1597.68,1399.03 1599.7,1399.04 1601.73,1399.04 1603.76,1399.05 1605.79,1399.05 1607.81,1399.06 1609.84,1399.06 1611.87,1399.07 
  1613.89,1399.07 1615.92,1399.08 1617.95,1399.08 1619.97,1399.08 1622,1399.09 1624.03,1399.09 1626.06,1399.1 1628.08,1399.1 1630.11,1399.11 1632.14,1399.11 
  1634.16,1399.12 1636.19,1399.12 1638.22,1399.13 1640.24,1399.13 1642.27,1399.13 1644.3,1399.14 1646.33,1399.14 1648.35,1399.15 1650.38,1399.15 1652.41,1399.16 
  1654.43,1399.16 1656.46,1399.16 1658.49,1399.17 1660.51,1399.17 1662.54,1399.18 1664.57,1399.18 1666.6,1399.18 1668.62,1399.19 1670.65,1399.19 1672.68,1399.2 
  1674.7,1399.2 1676.73,1399.2 1678.76,1399.21 1680.78,1399.21 1682.81,1399.21 1684.84,1399.21 1686.87,1399.22 1688.89,1399.22 1690.92,1399.22 1692.95,1399.23 
  1694.97,1399.23 1697,1399.23 1699.03,1399.23 1701.05,1399.24 1703.08,1399.24 1705.11,1399.24 1707.14,1399.24 1709.16,1399.24 1711.19,1399.25 1713.22,1399.25 
  1715.24,1399.25 1717.27,1399.25 1719.3,1399.25 1721.32,1399.25 1723.35,1399.26 1725.38,1399.26 1727.41,1399.26 1729.43,1399.26 1731.46,1399.26 1733.49,1399.26 
  1735.51,1399.26 1737.54,1399.26 1739.57,1399.27 1741.6,1399.27 1743.62,1399.27 1745.65,1399.27 1747.68,1399.27 1749.7,1399.27 1751.73,1399.27 1753.76,1399.28 
  1755.78,1399.28 1757.81,1399.28 1759.84,1399.28 1761.87,1399.28 1763.89,1399.29 1765.92,1399.29 1767.95,1399.29 1769.97,1399.29 1772,1399.3 1774.03,1399.3 
  1776.05,1399.3 1778.08,1399.31 1780.11,1399.31 1782.14,1399.31 1784.16,1399.32 1786.19,1399.32 1788.22,1399.32 1790.24,1399.33 1792.27,1399.33 1794.3,1399.34 
  1796.32,1399.34 1798.35,1399.35 1800.38,1399.35 1802.41,1399.36 1804.43,1399.36 1806.46,1399.36 1808.49,1399.37 1810.51,1399.37 1812.54,1399.38 1814.57,1399.38 
  1816.59,1399.39 1818.62,1399.39 1820.65,1399.4 1822.68,1399.4 1824.7,1399.41 1826.73,1399.41 1828.76,1399.41 1830.78,1399.42 1832.81,1399.42 1834.84,1399.42 
  1836.86,1399.43 1838.89,1399.43 1840.92,1399.43 1842.95,1399.43 1844.97,1399.43 1847,1399.43 1849.03,1399.43 1851.05,1399.43 1853.08,1399.43 1855.11,1399.43 
  1857.13,1399.43 1859.16,1399.42 1861.19,1399.42 1863.22,1399.42 1865.24,1399.41 1867.27,1399.41 1869.3,1399.4 1871.32,1399.39 1873.35,1399.39 1875.38,1399.38 
  1877.4,1399.37 1879.43,1399.36 1881.46,1399.35 1883.49,1399.34 1885.51,1399.33 1887.54,1399.32 1889.57,1399.31 1891.59,1399.3 1893.62,1399.29 1895.65,1399.28 
  1897.68,1399.27 1899.7,1399.26 1901.73,1399.25 1903.76,1399.25 1905.78,1399.24 1907.81,1399.23 1909.84,1399.22 1911.86,1399.22 1913.89,1399.21 1915.92,1399.21 
  1917.95,1399.21 1919.97,1399.21 1922,1399.21 1924.03,1399.21 1926.05,1399.22 1928.08,1399.23 1930.11,1399.24 1932.13,1399.25 1934.16,1399.26 1936.19,1399.28 
  1938.22,1399.29 1940.24,1399.32 1942.27,1399.34 1944.3,1399.37 1946.32,1399.39 1948.35,1399.43 1950.38,1399.46 1952.4,1399.5 1954.43,1399.53 1956.46,1399.58 
  1958.49,1399.62 1960.51,1399.66 1962.54,1399.71 1964.57,1399.76 1966.59,1399.81 1968.62,1399.86 1970.65,1399.91 1972.67,1399.97 1974.7,1400.02 1976.73,1400.07 
  1978.76,1400.12 1980.78,1400.17 1982.81,1400.22 1984.84,1400.27 1986.86,1400.31 1988.89,1400.35 1990.92,1400.38 1992.94,1400.41 1994.97,1400.43 1997,1400.45 
  1999.03,1400.46 2001.05,1400.46 2003.08,1400.45 2005.11,1400.44 2007.13,1400.41 2009.16,1400.37 2011.19,1400.32 2013.21,1400.26 2015.24,1400.18 2017.27,1400.09 
  2019.3,1399.99 2021.32,1399.87 2023.35,1399.74 2025.38,1399.59 2027.4,1399.42 2029.43,1399.24 2031.46,1399.04 2033.48,1398.83 2035.51,1398.6 2037.54,1398.35 
  2039.57,1398.09 2041.59,1397.82 2043.62,1397.53 2045.65,1397.23 2047.67,1396.92 2049.7,1396.61 2051.73,1396.28 2053.76,1395.96 2055.78,1395.63 2057.81,1395.3 
  2059.84,1394.98 2061.86,1394.66 2063.89,1394.36 2065.92,1394.07 2067.94,1393.81 2069.97,1393.57 2072,1393.36 2074.03,1393.18 2076.05,1393.05 2078.08,1392.96 
  2080.11,1392.93 2082.13,1392.96 2084.16,1393.06 2086.19,1393.23 2088.21,1393.48 2090.24,1393.82 2092.27,1394.26 2094.3,1394.8 2096.32,1395.45 2098.35,1396.22 
  2100.38,1397.11 2102.4,1398.14 2104.43,1399.3 2106.46,1400.6 2108.48,1402.05 2110.51,1403.66 2112.54,1405.41 2114.57,1407.32 2116.59,1409.39 2118.62,1411.61 
  2120.65,1413.99 2122.67,1416.51 2124.7,1419.18 2126.73,1421.97 2128.75,1424.89 2130.78,1427.91 2132.81,1431.03 2134.84,1434.21 2136.86,1437.43 2138.89,1440.67 
  2140.92,1443.89 2142.94,1447.06 2144.97,1450.13 2147,1453.06 2149.02,1455.8 2151.05,1458.28 2153.08,1460.45 2155.11,1462.23 2157.13,1463.55 2159.16,1464.34 
  2161.19,1464.49 2163.21,1463.92 2165.24,1462.52 2167.27,1460.19 2169.29,1456.82 2171.32,1452.28 2173.35,1446.44 2175.38,1439.19 2177.4,1430.38 2179.43,1419.87 
  2181.46,1407.52 2183.48,1393.2 2185.51,1376.74 2187.54,1358.02 2189.56,1336.88 2191.59,1313.21 2193.62,1286.86 2195.65,1257.72 2197.67,1225.69 2199.7,1190.69 
  2201.73,1152.65 2203.75,1111.54 2205.78,1067.35 2207.81,1020.12 2209.83,969.921 2211.86,916.897 2213.89,861.239 2215.92,803.212 2217.94,743.163 2219.97,681.534 
  2222,618.87 2224.02,555.838 2226.05,493.243 2228.08,432.04 2230.11,373.36 2232.13,318.525 2234.16,269.075 2236.19,226.792 2238.21,193.725 2240.24,172.224 
  2242.27,164.97 2244.29,175.013 2246.32,205.809 2248.35,261.261 2250.38,345.771 2252.4,464.283 2254.43,622.343 2256.46,826.153 2258.48,1082.64 2260.51,1399.52 
  
  "/>
<polygon clip-path="url(#clip6501)" points="
1685.51,451.424 2249.26,451.424 2249.26,209.504 1685.51,209.504 
  " fill="#ffffff" fill-rule="evenodd" fill-opacity="1"/>
<polyline clip-path="url(#clip6501)" style="stroke:#000000; stroke-width:4; stroke-opacity:1; fill:none" points="
  1685.51,451.424 2249.26,451.424 2249.26,209.504 1685.51,209.504 1685.51,451.424 
  "/>
<polyline clip-path="url(#clip6501)" style="stroke:#009af9; stroke-width:4; stroke-opacity:1; fill:none" points="
  1709.51,269.984 1853.51,269.984 
  "/>
<g clip-path="url(#clip6501)">
<text style="fill:#000000; fill-opacity:1; font-family:Arial,Helvetica Neue,Helvetica,sans-serif; font-size:48px; text-anchor:start;" transform="rotate(0, 1877.51, 287.484)" x="1877.51" y="287.484">Runge function</text>
</g>
<circle clip-path="url(#clip6501)" style="fill:#000000; stroke:none; fill-opacity:1" cx="1793.51" cy="330.464" r="25"/>
<circle clip-path="url(#clip6501)" style="fill:#e26f46; stroke:none; fill-opacity:1" cx="1793.51" cy="330.464" r="21"/>
<g clip-path="url(#clip6501)">
<text style="fill:#000000; fill-opacity:1; font-family:Arial,Helvetica Neue,Helvetica,sans-serif; font-size:48px; text-anchor:start;" transform="rotate(0, 1877.51, 347.964)" x="1877.51" y="347.964">Nodes</text>
</g>
<polyline clip-path="url(#clip6501)" style="stroke:#3da44d; stroke-width:4; stroke-opacity:1; fill:none" points="
  1709.51,390.944 1853.51,390.944 
  "/>
<g clip-path="url(#clip6501)">
<text style="fill:#000000; fill-opacity:1; font-family:Arial,Helvetica Neue,Helvetica,sans-serif; font-size:48px; text-anchor:start;" transform="rotate(0, 1877.51, 408.444)" x="1877.51" y="408.444">Intepolation</text>
</g>
</svg>
