<?xml version="1.0" encoding="utf-8"?>
<svg xmlns="http://www.w3.org/2000/svg" xmlns:xlink="http://www.w3.org/1999/xlink" width="600" height="400" viewBox="0 0 2400 1600">
<defs>
  <clipPath id="clip9300">
    <rect x="0" y="0" width="2000" height="2000"/>
  </clipPath>
</defs>
<defs>
  <clipPath id="clip9301">
    <rect x="0" y="0" width="2400" height="1600"/>
  </clipPath>
</defs>
<polygon clip-path="url(#clip9301)" points="
0,1600 2400,1600 2400,0 0,0 
  " fill="#ffffff" fill-rule="evenodd" fill-opacity="1"/>
<defs>
  <clipPath id="clip9302">
    <rect x="480" y="0" width="1681" height="1600"/>
  </clipPath>
</defs>
<polygon clip-path="url(#clip9301)" points="
188.156,1503.47 2321.26,1503.47 2321.26,125.984 188.156,125.984 
  " fill="#ffffff" fill-rule="evenodd" fill-opacity="1"/>
<defs>
  <clipPath id="clip9303">
    <rect x="188" y="125" width="2134" height="1378"/>
  </clipPath>
</defs>
<polyline clip-path="url(#clip9303)" style="stroke:#000000; stroke-width:2; stroke-opacity:0.1; fill:none" points="
  248.527,1503.47 248.527,125.984 
  "/>
<polyline clip-path="url(#clip9303)" style="stroke:#000000; stroke-width:2; stroke-opacity:0.1; fill:none" points="
  751.618,1503.47 751.618,125.984 
  "/>
<polyline clip-path="url(#clip9303)" style="stroke:#000000; stroke-width:2; stroke-opacity:0.1; fill:none" points="
  1254.71,1503.47 1254.71,125.984 
  "/>
<polyline clip-path="url(#clip9303)" style="stroke:#000000; stroke-width:2; stroke-opacity:0.1; fill:none" points="
  1757.8,1503.47 1757.8,125.984 
  "/>
<polyline clip-path="url(#clip9303)" style="stroke:#000000; stroke-width:2; stroke-opacity:0.1; fill:none" points="
  2260.89,1503.47 2260.89,125.984 
  "/>
<polyline clip-path="url(#clip9303)" style="stroke:#000000; stroke-width:2; stroke-opacity:0.1; fill:none" points="
  188.156,1415.46 2321.26,1415.46 
  "/>
<polyline clip-path="url(#clip9303)" style="stroke:#000000; stroke-width:2; stroke-opacity:0.1; fill:none" points="
  188.156,1102.83 2321.26,1102.83 
  "/>
<polyline clip-path="url(#clip9303)" style="stroke:#000000; stroke-width:2; stroke-opacity:0.1; fill:none" points="
  188.156,790.201 2321.26,790.201 
  "/>
<polyline clip-path="url(#clip9303)" style="stroke:#000000; stroke-width:2; stroke-opacity:0.1; fill:none" points="
  188.156,477.57 2321.26,477.57 
  "/>
<polyline clip-path="url(#clip9303)" style="stroke:#000000; stroke-width:2; stroke-opacity:0.1; fill:none" points="
  188.156,164.939 2321.26,164.939 
  "/>
<polyline clip-path="url(#clip9301)" style="stroke:#000000; stroke-width:4; stroke-opacity:1; fill:none" points="
  188.156,1503.47 2321.26,1503.47 
  "/>
<polyline clip-path="url(#clip9301)" style="stroke:#000000; stroke-width:4; stroke-opacity:1; fill:none" points="
  188.156,1503.47 188.156,125.984 
  "/>
<polyline clip-path="url(#clip9301)" style="stroke:#000000; stroke-width:4; stroke-opacity:1; fill:none" points="
  248.527,1503.47 248.527,1482.81 
  "/>
<polyline clip-path="url(#clip9301)" style="stroke:#000000; stroke-width:4; stroke-opacity:1; fill:none" points="
  751.618,1503.47 751.618,1482.81 
  "/>
<polyline clip-path="url(#clip9301)" style="stroke:#000000; stroke-width:4; stroke-opacity:1; fill:none" points="
  1254.71,1503.47 1254.71,1482.81 
  "/>
<polyline clip-path="url(#clip9301)" style="stroke:#000000; stroke-width:4; stroke-opacity:1; fill:none" points="
  1757.8,1503.47 1757.8,1482.81 
  "/>
<polyline clip-path="url(#clip9301)" style="stroke:#000000; stroke-width:4; stroke-opacity:1; fill:none" points="
  2260.89,1503.47 2260.89,1482.81 
  "/>
<polyline clip-path="url(#clip9301)" style="stroke:#000000; stroke-width:4; stroke-opacity:1; fill:none" points="
  188.156,1415.46 220.153,1415.46 
  "/>
<polyline clip-path="url(#clip9301)" style="stroke:#000000; stroke-width:4; stroke-opacity:1; fill:none" points="
  188.156,1102.83 220.153,1102.83 
  "/>
<polyline clip-path="url(#clip9301)" style="stroke:#000000; stroke-width:4; stroke-opacity:1; fill:none" points="
  188.156,790.201 220.153,790.201 
  "/>
<polyline clip-path="url(#clip9301)" style="stroke:#000000; stroke-width:4; stroke-opacity:1; fill:none" points="
  188.156,477.57 220.153,477.57 
  "/>
<polyline clip-path="url(#clip9301)" style="stroke:#000000; stroke-width:4; stroke-opacity:1; fill:none" points="
  188.156,164.939 220.153,164.939 
  "/>
<g clip-path="url(#clip9301)">
<text style="fill:#000000; fill-opacity:1; font-family:Arial,Helvetica Neue,Helvetica,sans-serif; font-size:48px; text-anchor:middle;" transform="rotate(0, 248.527, 1557.47)" x="248.527" y="1557.47">-1.0</text>
</g>
<g clip-path="url(#clip9301)">
<text style="fill:#000000; fill-opacity:1; font-family:Arial,Helvetica Neue,Helvetica,sans-serif; font-size:48px; text-anchor:middle;" transform="rotate(0, 751.618, 1557.47)" x="751.618" y="1557.47">-0.5</text>
</g>
<g clip-path="url(#clip9301)">
<text style="fill:#000000; fill-opacity:1; font-family:Arial,Helvetica Neue,Helvetica,sans-serif; font-size:48px; text-anchor:middle;" transform="rotate(0, 1254.71, 1557.47)" x="1254.71" y="1557.47">0.0</text>
</g>
<g clip-path="url(#clip9301)">
<text style="fill:#000000; fill-opacity:1; font-family:Arial,Helvetica Neue,Helvetica,sans-serif; font-size:48px; text-anchor:middle;" transform="rotate(0, 1757.8, 1557.47)" x="1757.8" y="1557.47">0.5</text>
</g>
<g clip-path="url(#clip9301)">
<text style="fill:#000000; fill-opacity:1; font-family:Arial,Helvetica Neue,Helvetica,sans-serif; font-size:48px; text-anchor:middle;" transform="rotate(0, 2260.89, 1557.47)" x="2260.89" y="1557.47">1.0</text>
</g>
<g clip-path="url(#clip9301)">
<text style="fill:#000000; fill-opacity:1; font-family:Arial,Helvetica Neue,Helvetica,sans-serif; font-size:48px; text-anchor:end;" transform="rotate(0, 164.156, 1432.96)" x="164.156" y="1432.96">0.00</text>
</g>
<g clip-path="url(#clip9301)">
<text style="fill:#000000; fill-opacity:1; font-family:Arial,Helvetica Neue,Helvetica,sans-serif; font-size:48px; text-anchor:end;" transform="rotate(0, 164.156, 1120.33)" x="164.156" y="1120.33">0.25</text>
</g>
<g clip-path="url(#clip9301)">
<text style="fill:#000000; fill-opacity:1; font-family:Arial,Helvetica Neue,Helvetica,sans-serif; font-size:48px; text-anchor:end;" transform="rotate(0, 164.156, 807.701)" x="164.156" y="807.701">0.50</text>
</g>
<g clip-path="url(#clip9301)">
<text style="fill:#000000; fill-opacity:1; font-family:Arial,Helvetica Neue,Helvetica,sans-serif; font-size:48px; text-anchor:end;" transform="rotate(0, 164.156, 495.07)" x="164.156" y="495.07">0.75</text>
</g>
<g clip-path="url(#clip9301)">
<text style="fill:#000000; fill-opacity:1; font-family:Arial,Helvetica Neue,Helvetica,sans-serif; font-size:48px; text-anchor:end;" transform="rotate(0, 164.156, 182.439)" x="164.156" y="182.439">1.00</text>
</g>
<g clip-path="url(#clip9301)">
<text style="fill:#000000; fill-opacity:1; font-family:Arial,Helvetica Neue,Helvetica,sans-serif; font-size:84px; text-anchor:middle;" transform="rotate(0, 1254.71, 73.2)" x="1254.71" y="73.2">Runge&apos;s phenomenon (Nodes = 12)</text>
</g>
<polyline clip-path="url(#clip9303)" style="stroke:#009af9; stroke-width:4; stroke-opacity:1; fill:none" points="
  248.527,1367.37 250.542,1367.18 252.556,1366.99 254.57,1366.81 256.585,1366.62 258.599,1366.43 260.613,1366.24 262.628,1366.04 264.642,1365.85 266.657,1365.66 
  268.671,1365.46 270.685,1365.26 272.7,1365.07 274.714,1364.87 276.728,1364.67 278.743,1364.47 280.757,1364.26 282.772,1364.06 284.786,1363.85 286.8,1363.65 
  288.815,1363.44 290.829,1363.23 292.844,1363.02 294.858,1362.81 296.872,1362.6 298.887,1362.39 300.901,1362.17 302.915,1361.95 304.93,1361.74 306.944,1361.52 
  308.959,1361.3 310.973,1361.08 312.987,1360.85 315.002,1360.63 317.016,1360.4 319.03,1360.18 321.045,1359.95 323.059,1359.72 325.074,1359.49 327.088,1359.26 
  329.102,1359.02 331.117,1358.79 333.131,1358.55 335.145,1358.31 337.16,1358.07 339.174,1357.83 341.189,1357.59 343.203,1357.34 345.217,1357.1 347.232,1356.85 
  349.246,1356.6 351.26,1356.35 353.275,1356.1 355.289,1355.85 357.304,1355.59 359.318,1355.34 361.332,1355.08 363.347,1354.82 365.361,1354.56 367.375,1354.29 
  369.39,1354.03 371.404,1353.76 373.419,1353.49 375.433,1353.22 377.447,1352.95 379.462,1352.68 381.476,1352.4 383.49,1352.12 385.505,1351.84 387.519,1351.56 
  389.534,1351.28 391.548,1351 393.562,1350.71 395.577,1350.42 397.591,1350.13 399.605,1349.84 401.62,1349.55 403.634,1349.25 405.649,1348.95 407.663,1348.65 
  409.677,1348.35 411.692,1348.05 413.706,1347.74 415.72,1347.43 417.735,1347.12 419.749,1346.81 421.764,1346.5 423.778,1346.18 425.792,1345.86 427.807,1345.54 
  429.821,1345.22 431.835,1344.89 433.85,1344.57 435.864,1344.24 437.879,1343.91 439.893,1343.57 441.907,1343.24 443.922,1342.9 445.936,1342.56 447.95,1342.21 
  449.965,1341.87 451.979,1341.52 453.994,1341.17 456.008,1340.82 458.022,1340.46 460.037,1340.1 462.051,1339.74 464.065,1339.38 466.08,1339.02 468.094,1338.65 
  470.109,1338.28 472.123,1337.9 474.137,1337.53 476.152,1337.15 478.166,1336.77 480.18,1336.38 482.195,1336 484.209,1335.61 486.224,1335.22 488.238,1334.82 
  490.252,1334.42 492.267,1334.02 494.281,1333.62 496.295,1333.21 498.31,1332.8 500.324,1332.39 502.339,1331.97 504.353,1331.55 506.367,1331.13 508.382,1330.71 
  510.396,1330.28 512.411,1329.85 514.425,1329.41 516.439,1328.98 518.454,1328.54 520.468,1328.09 522.482,1327.64 524.497,1327.19 526.511,1326.74 528.526,1326.28 
  530.54,1325.82 532.554,1325.35 534.569,1324.89 536.583,1324.41 538.597,1323.94 540.612,1323.46 542.626,1322.98 544.641,1322.49 546.655,1322 548.669,1321.51 
  550.684,1321.01 552.698,1320.51 554.712,1320 556.727,1319.49 558.741,1318.98 560.756,1318.46 562.77,1317.94 564.784,1317.41 566.799,1316.88 568.813,1316.35 
  570.827,1315.81 572.842,1315.27 574.856,1314.72 576.871,1314.17 578.885,1313.62 580.899,1313.06 582.914,1312.49 584.928,1311.92 586.942,1311.35 588.957,1310.77 
  590.971,1310.19 592.986,1309.6 595,1309.01 597.014,1308.41 599.029,1307.81 601.043,1307.2 603.057,1306.59 605.072,1305.97 607.086,1305.35 609.101,1304.72 
  611.115,1304.09 613.129,1303.45 615.144,1302.81 617.158,1302.16 619.172,1301.51 621.187,1300.85 623.201,1300.19 625.216,1299.51 627.23,1298.84 629.244,1298.16 
  631.259,1297.47 633.273,1296.78 635.287,1296.08 637.302,1295.37 639.316,1294.66 641.331,1293.94 643.345,1293.22 645.359,1292.49 647.374,1291.75 649.388,1291.01 
  651.402,1290.26 653.417,1289.5 655.431,1288.74 657.446,1287.97 659.46,1287.2 661.474,1286.42 663.489,1285.63 665.503,1284.83 667.517,1284.03 669.532,1283.22 
  671.546,1282.4 673.561,1281.57 675.575,1280.74 677.589,1279.9 679.604,1279.05 681.618,1278.2 683.632,1277.33 685.647,1276.46 687.661,1275.59 689.676,1274.7 
  691.69,1273.8 693.704,1272.9 695.719,1271.99 697.733,1271.07 699.747,1270.14 701.762,1269.21 703.776,1268.26 705.791,1267.31 707.805,1266.34 709.819,1265.37 
  711.834,1264.39 713.848,1263.4 715.862,1262.4 717.877,1261.39 719.891,1260.37 721.906,1259.34 723.92,1258.31 725.934,1257.26 727.949,1256.2 729.963,1255.13 
  731.978,1254.05 733.992,1252.96 736.006,1251.87 738.021,1250.76 740.035,1249.64 742.049,1248.5 744.064,1247.36 746.078,1246.21 748.093,1245.04 750.107,1243.87 
  752.121,1242.68 754.136,1241.48 756.15,1240.27 758.164,1239.04 760.179,1237.81 762.193,1236.56 764.208,1235.3 766.222,1234.03 768.236,1232.74 770.251,1231.44 
  772.265,1230.13 774.279,1228.81 776.294,1227.47 778.308,1226.12 780.323,1224.75 782.337,1223.37 784.351,1221.98 786.366,1220.57 788.38,1219.15 790.394,1217.71 
  792.409,1216.26 794.423,1214.79 796.438,1213.31 798.452,1211.81 800.466,1210.3 802.481,1208.77 804.495,1207.22 806.509,1205.66 808.524,1204.09 810.538,1202.49 
  812.553,1200.88 814.567,1199.25 816.581,1197.61 818.596,1195.94 820.61,1194.26 822.624,1192.56 824.639,1190.85 826.653,1189.11 828.668,1187.36 830.682,1185.58 
  832.696,1183.79 834.711,1181.98 836.725,1180.15 838.739,1178.3 840.754,1176.43 842.768,1174.53 844.783,1172.62 846.797,1170.69 848.811,1168.73 850.826,1166.75 
  852.84,1164.76 854.854,1162.74 856.869,1160.69 858.883,1158.63 860.898,1156.54 862.912,1154.43 864.926,1152.29 866.941,1150.13 868.955,1147.95 870.969,1145.74 
  872.984,1143.5 874.998,1141.25 877.013,1138.96 879.027,1136.65 881.041,1134.31 883.056,1131.95 885.07,1129.56 887.084,1127.14 889.099,1124.7 891.113,1122.23 
  893.128,1119.72 895.142,1117.19 897.156,1114.63 899.171,1112.05 901.185,1109.43 903.199,1106.78 905.214,1104.1 907.228,1101.39 909.243,1098.64 911.257,1095.87 
  913.271,1093.06 915.286,1090.22 917.3,1087.35 919.314,1084.44 921.329,1081.5 923.343,1078.53 925.358,1075.52 927.372,1072.47 929.386,1069.39 931.401,1066.27 
  933.415,1063.12 935.429,1059.92 937.444,1056.69 939.458,1053.43 941.473,1050.12 943.487,1046.77 945.501,1043.39 947.516,1039.96 949.53,1036.5 951.545,1032.99 
  953.559,1029.44 955.573,1025.85 957.588,1022.21 959.602,1018.54 961.616,1014.82 963.631,1011.05 965.645,1007.24 967.66,1003.39 969.674,999.486 971.688,995.539 
  973.703,991.546 975.717,987.504 977.731,983.415 979.746,979.278 981.76,975.092 983.775,970.856 985.789,966.57 987.803,962.234 989.818,957.846 991.832,953.407 
  993.846,948.916 995.861,944.373 997.875,939.776 999.89,935.126 1001.9,930.422 1003.92,925.663 1005.93,920.848 1007.95,915.979 1009.96,911.053 1011.98,906.071 
  1013.99,901.031 1016,895.935 1018.02,890.78 1020.03,885.567 1022.05,880.296 1024.06,874.965 1026.08,869.575 1028.09,864.124 1030.11,858.614 1032.12,853.043 
  1034.13,847.411 1036.15,841.718 1038.16,835.964 1040.18,830.148 1042.19,824.27 1044.21,818.33 1046.22,812.327 1048.23,806.262 1050.25,800.135 1052.26,793.945 
  1054.28,787.692 1056.29,781.377 1058.31,774.999 1060.32,768.559 1062.34,762.056 1064.35,755.491 1066.36,748.864 1068.38,742.175 1070.39,735.424 1072.41,728.613 
  1074.42,721.741 1076.44,714.808 1078.45,707.816 1080.46,700.765 1082.48,693.655 1084.49,686.488 1086.51,679.264 1088.52,671.983 1090.54,664.648 1092.55,657.258 
  1094.57,649.816 1096.58,642.322 1098.59,634.777 1100.61,627.184 1102.62,619.542 1104.64,611.855 1106.65,604.123 1108.67,596.348 1110.68,588.533 1112.69,580.679 
  1114.71,572.787 1116.72,564.862 1118.74,556.903 1120.75,548.915 1122.77,540.9 1124.78,532.859 1126.8,524.797 1128.81,516.715 1130.82,508.617 1132.84,500.506 
  1134.85,492.386 1136.87,484.258 1138.88,476.128 1140.9,467.999 1142.91,459.874 1144.92,451.757 1146.94,443.652 1148.95,435.564 1150.97,427.497 1152.98,419.454 
  1155,411.442 1157.01,403.463 1159.03,395.523 1161.04,387.627 1163.05,379.78 1165.07,371.987 1167.08,364.252 1169.1,356.582 1171.11,348.981 1173.13,341.455 
  1175.14,334.01 1177.15,326.651 1179.17,319.383 1181.18,312.213 1183.2,305.146 1185.21,298.189 1187.23,291.345 1189.24,284.623 1191.26,278.027 1193.27,271.563 
  1195.28,265.237 1197.3,259.056 1199.31,253.024 1201.33,247.148 1203.34,241.433 1205.36,235.885 1207.37,230.509 1209.38,225.311 1211.4,220.296 1213.41,215.469 
  1215.43,210.836 1217.44,206.402 1219.46,202.17 1221.47,198.146 1223.49,194.335 1225.5,190.74 1227.51,187.365 1229.53,184.215 1231.54,181.293 1233.56,178.602 
  1235.57,176.146 1237.59,173.927 1239.6,171.947 1241.61,170.21 1243.63,168.717 1245.64,167.471 1247.66,166.472 1249.67,165.721 1251.69,165.22 1253.7,164.97 
  1255.72,164.97 1257.73,165.22 1259.74,165.721 1261.76,166.472 1263.77,167.471 1265.79,168.717 1267.8,170.21 1269.82,171.947 1271.83,173.927 1273.84,176.146 
  1275.86,178.602 1277.87,181.293 1279.89,184.215 1281.9,187.365 1283.92,190.74 1285.93,194.335 1287.95,198.146 1289.96,202.17 1291.97,206.402 1293.99,210.836 
  1296,215.469 1298.02,220.296 1300.03,225.311 1302.05,230.509 1304.06,235.885 1306.07,241.433 1308.09,247.148 1310.1,253.024 1312.12,259.056 1314.13,265.237 
  1316.15,271.563 1318.16,278.027 1320.18,284.623 1322.19,291.345 1324.2,298.189 1326.22,305.146 1328.23,312.213 1330.25,319.383 1332.26,326.651 1334.28,334.01 
  1336.29,341.455 1338.3,348.981 1340.32,356.582 1342.33,364.252 1344.35,371.987 1346.36,379.78 1348.38,387.627 1350.39,395.523 1352.41,403.463 1354.42,411.442 
  1356.43,419.454 1358.45,427.497 1360.46,435.564 1362.48,443.652 1364.49,451.757 1366.51,459.874 1368.52,467.999 1370.53,476.128 1372.55,484.258 1374.56,492.386 
  1376.58,500.506 1378.59,508.617 1380.61,516.715 1382.62,524.797 1384.64,532.859 1386.65,540.9 1388.66,548.915 1390.68,556.903 1392.69,564.862 1394.71,572.787 
  1396.72,580.679 1398.74,588.533 1400.75,596.348 1402.76,604.123 1404.78,611.855 1406.79,619.542 1408.81,627.184 1410.82,634.777 1412.84,642.322 1414.85,649.816 
  1416.87,657.258 1418.88,664.648 1420.89,671.983 1422.91,679.264 1424.92,686.488 1426.94,693.655 1428.95,700.765 1430.97,707.816 1432.98,714.808 1434.99,721.741 
  1437.01,728.613 1439.02,735.424 1441.04,742.175 1443.05,748.864 1445.07,755.491 1447.08,762.056 1449.1,768.559 1451.11,774.999 1453.12,781.377 1455.14,787.692 
  1457.15,793.945 1459.17,800.135 1461.18,806.262 1463.2,812.327 1465.21,818.33 1467.22,824.27 1469.24,830.148 1471.25,835.964 1473.27,841.718 1475.28,847.411 
  1477.3,853.043 1479.31,858.614 1481.33,864.124 1483.34,869.575 1485.35,874.965 1487.37,880.296 1489.38,885.567 1491.4,890.78 1493.41,895.935 1495.43,901.031 
  1497.44,906.071 1499.45,911.053 1501.47,915.979 1503.48,920.848 1505.5,925.663 1507.51,930.422 1509.53,935.126 1511.54,939.776 1513.56,944.373 1515.57,948.916 
  1517.58,953.407 1519.6,957.846 1521.61,962.234 1523.63,966.57 1525.64,970.856 1527.66,975.092 1529.67,979.278 1531.68,983.415 1533.7,987.504 1535.71,991.546 
  1537.73,995.539 1539.74,999.486 1541.76,1003.39 1543.77,1007.24 1545.79,1011.05 1547.8,1014.82 1549.81,1018.54 1551.83,1022.21 1553.84,1025.85 1555.86,1029.44 
  1557.87,1032.99 1559.89,1036.5 1561.9,1039.96 1563.91,1043.39 1565.93,1046.77 1567.94,1050.12 1569.96,1053.43 1571.97,1056.69 1573.99,1059.92 1576,1063.12 
  1578.02,1066.27 1580.03,1069.39 1582.04,1072.47 1584.06,1075.52 1586.07,1078.53 1588.09,1081.5 1590.1,1084.44 1592.12,1087.35 1594.13,1090.22 1596.14,1093.06 
  1598.16,1095.87 1600.17,1098.64 1602.19,1101.39 1604.2,1104.1 1606.22,1106.78 1608.23,1109.43 1610.25,1112.05 1612.26,1114.63 1614.27,1117.19 1616.29,1119.72 
  1618.3,1122.23 1620.32,1124.7 1622.33,1127.14 1624.35,1129.56 1626.36,1131.95 1628.37,1134.31 1630.39,1136.65 1632.4,1138.96 1634.42,1141.25 1636.43,1143.5 
  1638.45,1145.74 1640.46,1147.95 1642.48,1150.13 1644.49,1152.29 1646.5,1154.43 1648.52,1156.54 1650.53,1158.63 1652.55,1160.69 1654.56,1162.74 1656.58,1164.76 
  1658.59,1166.75 1660.6,1168.73 1662.62,1170.69 1664.63,1172.62 1666.65,1174.53 1668.66,1176.43 1670.68,1178.3 1672.69,1180.15 1674.71,1181.98 1676.72,1183.79 
  1678.73,1185.58 1680.75,1187.36 1682.76,1189.11 1684.78,1190.85 1686.79,1192.56 1688.81,1194.26 1690.82,1195.94 1692.83,1197.61 1694.85,1199.25 1696.86,1200.88 
  1698.88,1202.49 1700.89,1204.09 1702.91,1205.66 1704.92,1207.22 1706.94,1208.77 1708.95,1210.3 1710.96,1211.81 1712.98,1213.31 1714.99,1214.79 1717.01,1216.26 
  1719.02,1217.71 1721.04,1219.15 1723.05,1220.57 1725.06,1221.98 1727.08,1223.37 1729.09,1224.75 1731.11,1226.12 1733.12,1227.47 1735.14,1228.81 1737.15,1230.13 
  1739.17,1231.44 1741.18,1232.74 1743.19,1234.03 1745.21,1235.3 1747.22,1236.56 1749.24,1237.81 1751.25,1239.04 1753.27,1240.27 1755.28,1241.48 1757.29,1242.68 
  1759.31,1243.87 1761.32,1245.04 1763.34,1246.21 1765.35,1247.36 1767.37,1248.5 1769.38,1249.64 1771.4,1250.76 1773.41,1251.87 1775.42,1252.96 1777.44,1254.05 
  1779.45,1255.13 1781.47,1256.2 1783.48,1257.26 1785.5,1258.31 1787.51,1259.34 1789.52,1260.37 1791.54,1261.39 1793.55,1262.4 1795.57,1263.4 1797.58,1264.39 
  1799.6,1265.37 1801.61,1266.34 1803.63,1267.31 1805.64,1268.26 1807.65,1269.21 1809.67,1270.14 1811.68,1271.07 1813.7,1271.99 1815.71,1272.9 1817.73,1273.8 
  1819.74,1274.7 1821.75,1275.59 1823.77,1276.46 1825.78,1277.33 1827.8,1278.2 1829.81,1279.05 1831.83,1279.9 1833.84,1280.74 1835.86,1281.57 1837.87,1282.4 
  1839.88,1283.22 1841.9,1284.03 1843.91,1284.83 1845.93,1285.63 1847.94,1286.42 1849.96,1287.2 1851.97,1287.97 1853.99,1288.74 1856,1289.5 1858.01,1290.26 
  1860.03,1291.01 1862.04,1291.75 1864.06,1292.49 1866.07,1293.22 1868.09,1293.94 1870.1,1294.66 1872.11,1295.37 1874.13,1296.08 1876.14,1296.78 1878.16,1297.47 
  1880.17,1298.16 1882.19,1298.84 1884.2,1299.51 1886.22,1300.19 1888.23,1300.85 1890.24,1301.51 1892.26,1302.16 1894.27,1302.81 1896.29,1303.45 1898.3,1304.09 
  1900.32,1304.72 1902.33,1305.35 1904.34,1305.97 1906.36,1306.59 1908.37,1307.2 1910.39,1307.81 1912.4,1308.41 1914.42,1309.01 1916.43,1309.6 1918.45,1310.19 
  1920.46,1310.77 1922.47,1311.35 1924.49,1311.92 1926.5,1312.49 1928.52,1313.06 1930.53,1313.62 1932.55,1314.17 1934.56,1314.72 1936.57,1315.27 1938.59,1315.81 
  1940.6,1316.35 1942.62,1316.88 1944.63,1317.41 1946.65,1317.94 1948.66,1318.46 1950.68,1318.98 1952.69,1319.49 1954.7,1320 1956.72,1320.51 1958.73,1321.01 
  1960.75,1321.51 1962.76,1322 1964.78,1322.49 1966.79,1322.98 1968.8,1323.46 1970.82,1323.94 1972.83,1324.41 1974.85,1324.89 1976.86,1325.35 1978.88,1325.82 
  1980.89,1326.28 1982.91,1326.74 1984.92,1327.19 1986.93,1327.64 1988.95,1328.09 1990.96,1328.54 1992.98,1328.98 1994.99,1329.41 1997.01,1329.85 1999.02,1330.28 
  2001.03,1330.71 2003.05,1331.13 2005.06,1331.55 2007.08,1331.97 2009.09,1332.39 2011.11,1332.8 2013.12,1333.21 2015.14,1333.62 2017.15,1334.02 2019.16,1334.42 
  2021.18,1334.82 2023.19,1335.22 2025.21,1335.61 2027.22,1336 2029.24,1336.38 2031.25,1336.77 2033.26,1337.15 2035.28,1337.53 2037.29,1337.9 2039.31,1338.28 
  2041.32,1338.65 2043.34,1339.02 2045.35,1339.38 2047.37,1339.74 2049.38,1340.1 2051.39,1340.46 2053.41,1340.82 2055.42,1341.17 2057.44,1341.52 2059.45,1341.87 
  2061.47,1342.21 2063.48,1342.56 2065.49,1342.9 2067.51,1343.24 2069.52,1343.57 2071.54,1343.91 2073.55,1344.24 2075.57,1344.57 2077.58,1344.89 2079.6,1345.22 
  2081.61,1345.54 2083.62,1345.86 2085.64,1346.18 2087.65,1346.5 2089.67,1346.81 2091.68,1347.12 2093.7,1347.43 2095.71,1347.74 2097.72,1348.05 2099.74,1348.35 
  2101.75,1348.65 2103.77,1348.95 2105.78,1349.25 2107.8,1349.55 2109.81,1349.84 2111.83,1350.13 2113.84,1350.42 2115.85,1350.71 2117.87,1351 2119.88,1351.28 
  2121.9,1351.56 2123.91,1351.84 2125.93,1352.12 2127.94,1352.4 2129.95,1352.68 2131.97,1352.95 2133.98,1353.22 2136,1353.49 2138.01,1353.76 2140.03,1354.03 
  2142.04,1354.29 2144.06,1354.56 2146.07,1354.82 2148.08,1355.08 2150.1,1355.34 2152.11,1355.59 2154.13,1355.85 2156.14,1356.1 2158.16,1356.35 2160.17,1356.6 
  2162.18,1356.85 2164.2,1357.1 2166.21,1357.34 2168.23,1357.59 2170.24,1357.83 2172.26,1358.07 2174.27,1358.31 2176.29,1358.55 2178.3,1358.79 2180.31,1359.02 
  2182.33,1359.26 2184.34,1359.49 2186.36,1359.72 2188.37,1359.95 2190.39,1360.18 2192.4,1360.4 2194.41,1360.63 2196.43,1360.85 2198.44,1361.08 2200.46,1361.3 
  2202.47,1361.52 2204.49,1361.74 2206.5,1361.95 2208.52,1362.17 2210.53,1362.39 2212.54,1362.6 2214.56,1362.81 2216.57,1363.02 2218.59,1363.23 2220.6,1363.44 
  2222.62,1363.65 2224.63,1363.85 2226.64,1364.06 2228.66,1364.26 2230.67,1364.47 2232.69,1364.67 2234.7,1364.87 2236.72,1365.07 2238.73,1365.26 2240.75,1365.46 
  2242.76,1365.66 2244.77,1365.85 2246.79,1366.04 2248.8,1366.24 2250.82,1366.43 2252.83,1366.62 2254.85,1366.81 2256.86,1366.99 2258.87,1367.18 2260.89,1367.37 
  
  "/>
<circle clip-path="url(#clip9303)" style="fill:#000000; stroke:none; fill-opacity:1" cx="248.527" cy="1367.37" r="18"/>
<circle clip-path="url(#clip9303)" style="fill:#e26f46; stroke:none; fill-opacity:1" cx="248.527" cy="1367.37" r="14"/>
<circle clip-path="url(#clip9303)" style="fill:#000000; stroke:none; fill-opacity:1" cx="431.469" cy="1344.95" r="18"/>
<circle clip-path="url(#clip9303)" style="fill:#e26f46; stroke:none; fill-opacity:1" cx="431.469" cy="1344.95" r="14"/>
<circle clip-path="url(#clip9303)" style="fill:#000000; stroke:none; fill-opacity:1" cx="614.411" cy="1303.05" r="18"/>
<circle clip-path="url(#clip9303)" style="fill:#e26f46; stroke:none; fill-opacity:1" cx="614.411" cy="1303.05" r="14"/>
<circle clip-path="url(#clip9303)" style="fill:#000000; stroke:none; fill-opacity:1" cx="797.353" cy="1212.63" r="18"/>
<circle clip-path="url(#clip9303)" style="fill:#e26f46; stroke:none; fill-opacity:1" cx="797.353" cy="1212.63" r="14"/>
<circle clip-path="url(#clip9303)" style="fill:#000000; stroke:none; fill-opacity:1" cx="980.295" cy="978.141" r="18"/>
<circle clip-path="url(#clip9303)" style="fill:#e26f46; stroke:none; fill-opacity:1" cx="980.295" cy="978.141" r="14"/>
<circle clip-path="url(#clip9303)" style="fill:#000000; stroke:none; fill-opacity:1" cx="1163.24" cy="379.069" r="18"/>
<circle clip-path="url(#clip9303)" style="fill:#e26f46; stroke:none; fill-opacity:1" cx="1163.24" cy="379.069" r="14"/>
<circle clip-path="url(#clip9303)" style="fill:#000000; stroke:none; fill-opacity:1" cx="1346.18" cy="379.069" r="18"/>
<circle clip-path="url(#clip9303)" style="fill:#e26f46; stroke:none; fill-opacity:1" cx="1346.18" cy="379.069" r="14"/>
<circle clip-path="url(#clip9303)" style="fill:#000000; stroke:none; fill-opacity:1" cx="1529.12" cy="978.141" r="18"/>
<circle clip-path="url(#clip9303)" style="fill:#e26f46; stroke:none; fill-opacity:1" cx="1529.12" cy="978.141" r="14"/>
<circle clip-path="url(#clip9303)" style="fill:#000000; stroke:none; fill-opacity:1" cx="1712.06" cy="1212.63" r="18"/>
<circle clip-path="url(#clip9303)" style="fill:#e26f46; stroke:none; fill-opacity:1" cx="1712.06" cy="1212.63" r="14"/>
<circle clip-path="url(#clip9303)" style="fill:#000000; stroke:none; fill-opacity:1" cx="1895.01" cy="1303.05" r="18"/>
<circle clip-path="url(#clip9303)" style="fill:#e26f46; stroke:none; fill-opacity:1" cx="1895.01" cy="1303.05" r="14"/>
<circle clip-path="url(#clip9303)" style="fill:#000000; stroke:none; fill-opacity:1" cx="2077.95" cy="1344.95" r="18"/>
<circle clip-path="url(#clip9303)" style="fill:#e26f46; stroke:none; fill-opacity:1" cx="2077.95" cy="1344.95" r="14"/>
<circle clip-path="url(#clip9303)" style="fill:#000000; stroke:none; fill-opacity:1" cx="2260.89" cy="1367.37" r="18"/>
<circle clip-path="url(#clip9303)" style="fill:#e26f46; stroke:none; fill-opacity:1" cx="2260.89" cy="1367.37" r="14"/>
<polyline clip-path="url(#clip9303)" style="stroke:#3da44d; stroke-width:4; stroke-opacity:1; fill:none" points="
  248.527,1367.37 250.542,1307.24 252.556,1250.63 254.57,1197.39 256.585,1147.42 258.599,1100.59 260.613,1056.8 262.628,1015.94 264.642,977.891 266.657,942.555 
  268.671,909.829 270.685,879.614 272.7,851.813 274.714,826.331 276.728,803.077 278.743,781.962 280.757,762.898 282.772,745.801 284.786,730.588 286.8,717.18 
  288.815,705.498 290.829,695.466 292.844,687.012 294.858,680.062 296.872,674.549 298.887,670.404 300.901,667.562 302.915,665.959 304.93,665.534 306.944,666.226 
  308.959,667.977 310.973,670.731 312.987,674.434 315.002,679.032 317.016,684.474 319.03,690.71 321.045,697.693 323.059,705.375 325.074,713.712 327.088,722.66 
  329.102,732.178 331.117,742.223 333.131,752.758 335.145,763.744 337.16,775.144 339.174,786.924 341.189,799.049 343.203,811.486 345.217,824.204 347.232,837.172 
  349.246,850.361 351.26,863.743 353.275,877.291 355.289,890.979 357.304,904.782 359.318,918.675 361.332,932.637 363.347,946.645 365.361,960.677 367.375,974.715 
  369.39,988.738 371.404,1002.73 373.419,1016.67 375.433,1030.54 377.447,1044.34 379.462,1058.03 381.476,1071.61 383.49,1085.07 385.505,1098.39 387.519,1111.56 
  389.534,1124.56 391.548,1137.4 393.562,1150.05 395.577,1162.51 397.591,1174.76 399.605,1186.81 401.62,1198.65 403.634,1210.25 405.649,1221.63 407.663,1232.77 
  409.677,1243.67 411.692,1254.32 413.706,1264.71 415.72,1274.85 417.735,1284.73 419.749,1294.35 421.764,1303.7 423.778,1312.78 425.792,1321.59 427.807,1330.13 
  429.821,1338.4 431.835,1346.39 433.85,1354.1 435.864,1361.54 437.879,1368.7 439.893,1375.58 441.907,1382.19 443.922,1388.53 445.936,1394.59 447.95,1400.38 
  449.965,1405.89 451.979,1411.14 453.994,1416.13 456.008,1420.84 458.022,1425.3 460.037,1429.49 462.051,1433.43 464.065,1437.12 466.08,1440.55 468.094,1443.74 
  470.109,1446.68 472.123,1449.38 474.137,1451.85 476.152,1454.08 478.166,1456.08 480.18,1457.86 482.195,1459.42 484.209,1460.76 486.224,1461.88 488.238,1462.8 
  490.252,1463.52 492.267,1464.03 494.281,1464.36 496.295,1464.49 498.31,1464.44 500.324,1464.2 502.339,1463.79 504.353,1463.21 506.367,1462.47 508.382,1461.56 
  510.396,1460.5 512.411,1459.28 514.425,1457.92 516.439,1456.42 518.454,1454.78 520.468,1453.01 522.482,1451.11 524.497,1449.09 526.511,1446.95 528.526,1444.7 
  530.54,1442.34 532.554,1439.87 534.569,1437.31 536.583,1434.66 538.597,1431.92 540.612,1429.09 542.626,1426.18 544.641,1423.2 546.655,1420.14 548.669,1417.02 
  550.684,1413.84 552.698,1410.6 554.712,1407.31 556.727,1403.96 558.741,1400.57 560.756,1397.14 562.77,1393.68 564.784,1390.18 566.799,1386.65 568.813,1383.09 
  570.827,1379.52 572.842,1375.92 574.856,1372.31 576.871,1368.69 578.885,1365.06 580.899,1361.43 582.914,1357.8 584.928,1354.16 586.942,1350.54 588.957,1346.92 
  590.971,1343.31 592.986,1339.72 595,1336.14 597.014,1332.59 599.029,1329.05 601.043,1325.54 603.057,1322.06 605.072,1318.61 607.086,1315.18 609.101,1311.8 
  611.115,1308.45 613.129,1305.13 615.144,1301.86 617.158,1298.63 619.172,1295.44 621.187,1292.3 623.201,1289.21 625.216,1286.16 627.23,1283.17 629.244,1280.22 
  631.259,1277.33 633.273,1274.5 635.287,1271.72 637.302,1268.99 639.316,1266.32 641.331,1263.71 643.345,1261.16 645.359,1258.67 647.374,1256.24 649.388,1253.87 
  651.402,1251.57 653.417,1249.32 655.431,1247.14 657.446,1245.02 659.46,1242.96 661.474,1240.97 663.489,1239.04 665.503,1237.17 667.517,1235.37 669.532,1233.63 
  671.546,1231.95 673.561,1230.34 675.575,1228.79 677.589,1227.3 679.604,1225.87 681.618,1224.51 683.632,1223.2 685.647,1221.96 687.661,1220.77 689.676,1219.65 
  691.69,1218.58 693.704,1217.57 695.719,1216.62 697.733,1215.72 699.747,1214.88 701.762,1214.1 703.776,1213.36 705.791,1212.68 707.805,1212.05 709.819,1211.47 
  711.834,1210.93 713.848,1210.45 715.862,1210.01 717.877,1209.61 719.891,1209.26 721.906,1208.95 723.92,1208.69 725.934,1208.46 727.949,1208.27 729.963,1208.11 
  731.978,1207.99 733.992,1207.91 736.006,1207.85 738.021,1207.83 740.035,1207.83 742.049,1207.86 744.064,1207.92 746.078,1208 748.093,1208.1 750.107,1208.22 
  752.121,1208.36 754.136,1208.52 756.15,1208.69 758.164,1208.88 760.179,1209.08 762.193,1209.28 764.208,1209.5 766.222,1209.72 768.236,1209.95 770.251,1210.18 
  772.265,1210.41 774.279,1210.64 776.294,1210.86 778.308,1211.09 780.323,1211.3 782.337,1211.51 784.351,1211.71 786.366,1211.9 788.38,1212.07 790.394,1212.23 
  792.409,1212.37 794.423,1212.49 796.438,1212.59 798.452,1212.67 800.466,1212.73 802.481,1212.76 804.495,1212.76 806.509,1212.73 808.524,1212.68 810.538,1212.59 
  812.553,1212.47 814.567,1212.31 816.581,1212.11 818.596,1211.88 820.61,1211.6 822.624,1211.29 824.639,1210.93 826.653,1210.52 828.668,1210.07 830.682,1209.57 
  832.696,1209.02 834.711,1208.42 836.725,1207.77 838.739,1207.07 840.754,1206.31 842.768,1205.5 844.783,1204.62 846.797,1203.69 848.811,1202.7 850.826,1201.65 
  852.84,1200.54 854.854,1199.36 856.869,1198.12 858.883,1196.82 860.898,1195.44 862.912,1194 864.926,1192.5 866.941,1190.92 868.955,1189.27 870.969,1187.55 
  872.984,1185.76 874.998,1183.9 877.013,1181.97 879.027,1179.96 881.041,1177.87 883.056,1175.71 885.07,1173.47 887.084,1171.16 889.099,1168.77 891.113,1166.3 
  893.128,1163.76 895.142,1161.13 897.156,1158.43 899.171,1155.65 901.185,1152.79 903.199,1149.84 905.214,1146.82 907.228,1143.72 909.243,1140.54 911.257,1137.27 
  913.271,1133.93 915.286,1130.5 917.3,1126.99 919.314,1123.41 921.329,1119.74 923.343,1115.99 925.358,1112.16 927.372,1108.25 929.386,1104.26 931.401,1100.19 
  933.415,1096.04 935.429,1091.81 937.444,1087.5 939.458,1083.11 941.473,1078.65 943.487,1074.11 945.501,1069.48 947.516,1064.79 949.53,1060.01 951.545,1055.16 
  953.559,1050.24 955.573,1045.24 957.588,1040.17 959.602,1035.02 961.616,1029.81 963.631,1024.52 965.645,1019.16 967.66,1013.73 969.674,1008.23 971.688,1002.66 
  973.703,997.031 975.717,991.332 977.731,985.569 979.746,979.741 981.76,973.851 983.775,967.899 985.789,961.887 987.803,955.815 989.818,949.686 991.832,943.499 
  993.846,937.256 995.861,930.959 997.875,924.609 999.89,918.208 1001.9,911.755 1003.92,905.254 1005.93,898.705 1007.95,892.11 1009.96,885.47 1011.98,878.787 
  1013.99,872.061 1016,865.296 1018.02,858.491 1020.03,851.65 1022.05,844.773 1024.06,837.861 1026.08,830.917 1028.09,823.943 1030.11,816.939 1032.12,809.907 
  1034.13,802.85 1036.15,795.768 1038.16,788.664 1040.18,781.539 1042.19,774.395 1044.21,767.233 1046.22,760.056 1048.23,752.866 1050.25,745.663 1052.26,738.45 
  1054.28,731.229 1056.29,724.001 1058.31,716.768 1060.32,709.532 1062.34,702.295 1064.35,695.059 1066.36,687.826 1068.38,680.596 1070.39,673.373 1072.41,666.158 
  1074.42,658.953 1076.44,651.76 1078.45,644.581 1080.46,637.417 1082.48,630.27 1084.49,623.143 1086.51,616.037 1088.52,608.954 1090.54,601.895 1092.55,594.864 
  1094.57,587.861 1096.58,580.888 1098.59,573.948 1100.61,567.042 1102.62,560.172 1104.64,553.34 1106.65,546.547 1108.67,539.796 1110.68,533.088 1112.69,526.425 
  1114.71,519.809 1116.72,513.242 1118.74,506.725 1120.75,500.26 1122.77,493.849 1124.78,487.494 1126.8,481.196 1128.81,474.957 1130.82,468.779 1132.84,462.663 
  1134.85,456.612 1136.87,450.626 1138.88,444.708 1140.9,438.859 1142.91,433.08 1144.92,427.374 1146.94,421.741 1148.95,416.184 1150.97,410.704 1152.98,405.302 
  1155,399.98 1157.01,394.739 1159.03,389.581 1161.04,384.507 1163.05,379.519 1165.07,374.617 1167.08,369.804 1169.1,365.081 1171.11,360.449 1173.13,355.909 
  1175.14,351.462 1177.15,347.11 1179.17,342.854 1181.18,338.695 1183.2,334.635 1185.21,330.674 1187.23,326.813 1189.24,323.054 1191.26,319.398 1193.27,315.845 
  1195.28,312.397 1197.3,309.054 1199.31,305.819 1201.33,302.69 1203.34,299.67 1205.36,296.759 1207.37,293.958 1209.38,291.268 1211.4,288.689 1213.41,286.222 
  1215.43,283.869 1217.44,281.629 1219.46,279.503 1221.47,277.492 1223.49,275.596 1225.5,273.816 1227.51,272.153 1229.53,270.606 1231.54,269.177 1233.56,267.866 
  1235.57,266.672 1237.59,265.597 1239.6,264.641 1241.61,263.803 1243.63,263.085 1245.64,262.486 1247.66,262.007 1249.67,261.647 1251.69,261.408 1253.7,261.288 
  1255.72,261.288 1257.73,261.408 1259.74,261.647 1261.76,262.007 1263.77,262.486 1265.79,263.085 1267.8,263.803 1269.82,264.641 1271.83,265.597 1273.84,266.672 
  1275.86,267.866 1277.87,269.177 1279.89,270.606 1281.9,272.153 1283.92,273.816 1285.93,275.596 1287.95,277.492 1289.96,279.503 1291.97,281.629 1293.99,283.869 
  1296,286.222 1298.02,288.689 1300.03,291.268 1302.05,293.958 1304.06,296.759 1306.07,299.67 1308.09,302.69 1310.1,305.819 1312.12,309.054 1314.13,312.397 
  1316.15,315.845 1318.16,319.398 1320.18,323.054 1322.19,326.813 1324.2,330.674 1326.22,334.635 1328.23,338.695 1330.25,342.854 1332.26,347.11 1334.28,351.462 
  1336.29,355.909 1338.3,360.449 1340.32,365.081 1342.33,369.804 1344.35,374.617 1346.36,379.519 1348.38,384.507 1350.39,389.581 1352.41,394.739 1354.42,399.98 
  1356.43,405.302 1358.45,410.704 1360.46,416.184 1362.48,421.741 1364.49,427.374 1366.51,433.08 1368.52,438.859 1370.53,444.708 1372.55,450.626 1374.56,456.612 
  1376.58,462.663 1378.59,468.779 1380.61,474.957 1382.62,481.196 1384.64,487.494 1386.65,493.849 1388.66,500.26 1390.68,506.725 1392.69,513.242 1394.71,519.809 
  1396.72,526.425 1398.74,533.088 1400.75,539.796 1402.76,546.547 1404.78,553.34 1406.79,560.172 1408.81,567.042 1410.82,573.948 1412.84,580.888 1414.85,587.861 
  1416.87,594.864 1418.88,601.895 1420.89,608.954 1422.91,616.037 1424.92,623.143 1426.94,630.27 1428.95,637.417 1430.97,644.581 1432.98,651.76 1434.99,658.953 
  1437.01,666.158 1439.02,673.373 1441.04,680.596 1443.05,687.826 1445.07,695.059 1447.08,702.295 1449.1,709.532 1451.11,716.768 1453.12,724.001 1455.14,731.229 
  1457.15,738.45 1459.17,745.663 1461.18,752.866 1463.2,760.056 1465.21,767.233 1467.22,774.395 1469.24,781.539 1471.25,788.664 1473.27,795.768 1475.28,802.85 
  1477.3,809.907 1479.31,816.939 1481.33,823.943 1483.34,830.917 1485.35,837.861 1487.37,844.773 1489.38,851.65 1491.4,858.491 1493.41,865.296 1495.43,872.061 
  1497.44,878.787 1499.45,885.47 1501.47,892.11 1503.48,898.705 1505.5,905.254 1507.51,911.755 1509.53,918.208 1511.54,924.609 1513.56,930.959 1515.57,937.256 
  1517.58,943.499 1519.6,949.686 1521.61,955.815 1523.63,961.887 1525.64,967.899 1527.66,973.851 1529.67,979.741 1531.68,985.569 1533.7,991.332 1535.71,997.031 
  1537.73,1002.66 1539.74,1008.23 1541.76,1013.73 1543.77,1019.16 1545.79,1024.52 1547.8,1029.81 1549.81,1035.02 1551.83,1040.17 1553.84,1045.24 1555.86,1050.24 
  1557.87,1055.16 1559.89,1060.01 1561.9,1064.79 1563.91,1069.48 1565.93,1074.11 1567.94,1078.65 1569.96,1083.11 1571.97,1087.5 1573.99,1091.81 1576,1096.04 
  1578.02,1100.19 1580.03,1104.26 1582.04,1108.25 1584.06,1112.16 1586.07,1115.99 1588.09,1119.74 1590.1,1123.41 1592.12,1126.99 1594.13,1130.5 1596.14,1133.93 
  1598.16,1137.27 1600.17,1140.54 1602.19,1143.72 1604.2,1146.82 1606.22,1149.84 1608.23,1152.79 1610.25,1155.65 1612.26,1158.43 1614.27,1161.13 1616.29,1163.76 
  1618.3,1166.3 1620.32,1168.77 1622.33,1171.16 1624.35,1173.47 1626.36,1175.71 1628.37,1177.87 1630.39,1179.96 1632.4,1181.97 1634.42,1183.9 1636.43,1185.76 
  1638.45,1187.55 1640.46,1189.27 1642.48,1190.92 1644.49,1192.5 1646.5,1194 1648.52,1195.44 1650.53,1196.82 1652.55,1198.12 1654.56,1199.36 1656.58,1200.54 
  1658.59,1201.65 1660.6,1202.7 1662.62,1203.69 1664.63,1204.62 1666.65,1205.5 1668.66,1206.31 1670.68,1207.07 1672.69,1207.77 1674.71,1208.42 1676.72,1209.02 
  1678.73,1209.57 1680.75,1210.07 1682.76,1210.52 1684.78,1210.93 1686.79,1211.29 1688.81,1211.6 1690.82,1211.88 1692.83,1212.11 1694.85,1212.31 1696.86,1212.47 
  1698.88,1212.59 1700.89,1212.68 1702.91,1212.73 1704.92,1212.76 1706.94,1212.76 1708.95,1212.73 1710.96,1212.67 1712.98,1212.59 1714.99,1212.49 1717.01,1212.37 
  1719.02,1212.23 1721.04,1212.07 1723.05,1211.9 1725.06,1211.71 1727.08,1211.51 1729.09,1211.3 1731.11,1211.09 1733.12,1210.86 1735.14,1210.64 1737.15,1210.41 
  1739.17,1210.18 1741.18,1209.95 1743.19,1209.72 1745.21,1209.5 1747.22,1209.28 1749.24,1209.08 1751.25,1208.88 1753.27,1208.69 1755.28,1208.52 1757.29,1208.36 
  1759.31,1208.22 1761.32,1208.1 1763.34,1208 1765.35,1207.92 1767.37,1207.86 1769.38,1207.83 1771.4,1207.83 1773.41,1207.85 1775.42,1207.91 1777.44,1207.99 
  1779.45,1208.11 1781.47,1208.27 1783.48,1208.46 1785.5,1208.69 1787.51,1208.95 1789.52,1209.26 1791.54,1209.61 1793.55,1210.01 1795.57,1210.45 1797.58,1210.93 
  1799.6,1211.47 1801.61,1212.05 1803.63,1212.68 1805.64,1213.36 1807.65,1214.1 1809.67,1214.88 1811.68,1215.72 1813.7,1216.62 1815.71,1217.57 1817.73,1218.58 
  1819.74,1219.65 1821.75,1220.77 1823.77,1221.96 1825.78,1223.2 1827.8,1224.51 1829.81,1225.87 1831.83,1227.3 1833.84,1228.79 1835.86,1230.34 1837.87,1231.95 
  1839.88,1233.63 1841.9,1235.37 1843.91,1237.17 1845.93,1239.04 1847.94,1240.97 1849.96,1242.96 1851.97,1245.02 1853.99,1247.14 1856,1249.32 1858.01,1251.57 
  1860.03,1253.87 1862.04,1256.24 1864.06,1258.67 1866.07,1261.16 1868.09,1263.71 1870.1,1266.32 1872.11,1268.99 1874.13,1271.72 1876.14,1274.5 1878.16,1277.33 
  1880.17,1280.22 1882.19,1283.17 1884.2,1286.16 1886.22,1289.21 1888.23,1292.3 1890.24,1295.44 1892.26,1298.63 1894.27,1301.86 1896.29,1305.13 1898.3,1308.45 
  1900.32,1311.8 1902.33,1315.18 1904.34,1318.61 1906.36,1322.06 1908.37,1325.54 1910.39,1329.05 1912.4,1332.59 1914.42,1336.14 1916.43,1339.72 1918.45,1343.31 
  1920.46,1346.92 1922.47,1350.54 1924.49,1354.16 1926.5,1357.8 1928.52,1361.43 1930.53,1365.06 1932.55,1368.69 1934.56,1372.31 1936.57,1375.92 1938.59,1379.52 
  1940.6,1383.09 1942.62,1386.65 1944.63,1390.18 1946.65,1393.68 1948.66,1397.14 1950.68,1400.57 1952.69,1403.96 1954.7,1407.31 1956.72,1410.6 1958.73,1413.84 
  1960.75,1417.02 1962.76,1420.14 1964.78,1423.2 1966.79,1426.18 1968.8,1429.09 1970.82,1431.92 1972.83,1434.66 1974.85,1437.31 1976.86,1439.87 1978.88,1442.34 
  1980.89,1444.7 1982.91,1446.95 1984.92,1449.09 1986.93,1451.11 1988.95,1453.01 1990.96,1454.78 1992.98,1456.42 1994.99,1457.92 1997.01,1459.28 1999.02,1460.5 
  2001.03,1461.56 2003.05,1462.47 2005.06,1463.21 2007.08,1463.79 2009.09,1464.2 2011.11,1464.44 2013.12,1464.49 2015.14,1464.36 2017.15,1464.03 2019.16,1463.52 
  2021.18,1462.8 2023.19,1461.88 2025.21,1460.76 2027.22,1459.42 2029.24,1457.86 2031.25,1456.08 2033.26,1454.08 2035.28,1451.85 2037.29,1449.38 2039.31,1446.68 
  2041.32,1443.74 2043.34,1440.55 2045.35,1437.12 2047.37,1433.43 2049.38,1429.49 2051.39,1425.3 2053.41,1420.84 2055.42,1416.13 2057.44,1411.14 2059.45,1405.89 
  2061.47,1400.38 2063.48,1394.59 2065.49,1388.53 2067.51,1382.19 2069.52,1375.58 2071.54,1368.7 2073.55,1361.54 2075.57,1354.1 2077.58,1346.39 2079.6,1338.4 
  2081.61,1330.13 2083.62,1321.59 2085.64,1312.78 2087.65,1303.7 2089.67,1294.35 2091.68,1284.73 2093.7,1274.85 2095.71,1264.71 2097.72,1254.32 2099.74,1243.67 
  2101.75,1232.77 2103.77,1221.63 2105.78,1210.25 2107.8,1198.65 2109.81,1186.81 2111.83,1174.76 2113.84,1162.51 2115.85,1150.05 2117.87,1137.4 2119.88,1124.56 
  2121.9,1111.56 2123.91,1098.39 2125.93,1085.07 2127.94,1071.61 2129.95,1058.03 2131.97,1044.34 2133.98,1030.54 2136,1016.67 2138.01,1002.73 2140.03,988.738 
  2142.04,974.715 2144.06,960.677 2146.07,946.645 2148.08,932.637 2150.1,918.675 2152.11,904.782 2154.13,890.979 2156.14,877.291 2158.16,863.743 2160.17,850.361 
  2162.18,837.172 2164.2,824.204 2166.21,811.486 2168.23,799.049 2170.24,786.924 2172.26,775.144 2174.27,763.744 2176.29,752.758 2178.3,742.223 2180.31,732.178 
  2182.33,722.66 2184.34,713.712 2186.36,705.375 2188.37,697.693 2190.39,690.71 2192.4,684.474 2194.41,679.032 2196.43,674.434 2198.44,670.731 2200.46,667.977 
  2202.47,666.226 2204.49,665.534 2206.5,665.959 2208.52,667.562 2210.53,670.404 2212.54,674.549 2214.56,680.062 2216.57,687.012 2218.59,695.466 2220.6,705.498 
  2222.62,717.18 2224.63,730.588 2226.64,745.801 2228.66,762.898 2230.67,781.962 2232.69,803.077 2234.7,826.331 2236.72,851.813 2238.73,879.614 2240.75,909.829 
  2242.76,942.555 2244.77,977.891 2246.79,1015.94 2248.8,1056.8 2250.82,1100.59 2252.83,1147.42 2254.85,1197.39 2256.86,1250.63 2258.87,1307.24 2260.89,1367.37 
  
  "/>
<polygon clip-path="url(#clip9301)" points="
1685.51,451.424 2249.26,451.424 2249.26,209.504 1685.51,209.504 
  " fill="#ffffff" fill-rule="evenodd" fill-opacity="1"/>
<polyline clip-path="url(#clip9301)" style="stroke:#000000; stroke-width:4; stroke-opacity:1; fill:none" points="
  1685.51,451.424 2249.26,451.424 2249.26,209.504 1685.51,209.504 1685.51,451.424 
  "/>
<polyline clip-path="url(#clip9301)" style="stroke:#009af9; stroke-width:4; stroke-opacity:1; fill:none" points="
  1709.51,269.984 1853.51,269.984 
  "/>
<g clip-path="url(#clip9301)">
<text style="fill:#000000; fill-opacity:1; font-family:Arial,Helvetica Neue,Helvetica,sans-serif; font-size:48px; text-anchor:start;" transform="rotate(0, 1877.51, 287.484)" x="1877.51" y="287.484">Runge function</text>
</g>
<circle clip-path="url(#clip9301)" style="fill:#000000; stroke:none; fill-opacity:1" cx="1793.51" cy="330.464" r="25"/>
<circle clip-path="url(#clip9301)" style="fill:#e26f46; stroke:none; fill-opacity:1" cx="1793.51" cy="330.464" r="21"/>
<g clip-path="url(#clip9301)">
<text style="fill:#000000; fill-opacity:1; font-family:Arial,Helvetica Neue,Helvetica,sans-serif; font-size:48px; text-anchor:start;" transform="rotate(0, 1877.51, 347.964)" x="1877.51" y="347.964">Nodes</text>
</g>
<polyline clip-path="url(#clip9301)" style="stroke:#3da44d; stroke-width:4; stroke-opacity:1; fill:none" points="
  1709.51,390.944 1853.51,390.944 
  "/>
<g clip-path="url(#clip9301)">
<text style="fill:#000000; fill-opacity:1; font-family:Arial,Helvetica Neue,Helvetica,sans-serif; font-size:48px; text-anchor:start;" transform="rotate(0, 1877.51, 408.444)" x="1877.51" y="408.444">Intepolation</text>
</g>
</svg>
