<?xml version="1.0" encoding="utf-8"?>
<svg xmlns="http://www.w3.org/2000/svg" xmlns:xlink="http://www.w3.org/1999/xlink" width="600" height="400" viewBox="0 0 2400 1600">
<defs>
  <clipPath id="clip6900">
    <rect x="0" y="0" width="2000" height="2000"/>
  </clipPath>
</defs>
<defs>
  <clipPath id="clip6901">
    <rect x="0" y="0" width="2400" height="1600"/>
  </clipPath>
</defs>
<polygon clip-path="url(#clip6901)" points="
0,1600 2400,1600 2400,0 0,0 
  " fill="#ffffff" fill-rule="evenodd" fill-opacity="1"/>
<defs>
  <clipPath id="clip6902">
    <rect x="480" y="0" width="1681" height="1600"/>
  </clipPath>
</defs>
<polygon clip-path="url(#clip6901)" points="
229.648,1503.47 2321.26,1503.47 2321.26,125.984 229.648,125.984 
  " fill="#ffffff" fill-rule="evenodd" fill-opacity="1"/>
<defs>
  <clipPath id="clip6903">
    <rect x="229" y="125" width="2093" height="1378"/>
  </clipPath>
</defs>
<polyline clip-path="url(#clip6903)" style="stroke:#000000; stroke-width:2; stroke-opacity:0.1; fill:none" points="
  288.844,1503.47 288.844,125.984 
  "/>
<polyline clip-path="url(#clip6903)" style="stroke:#000000; stroke-width:2; stroke-opacity:0.1; fill:none" points="
  782.149,1503.47 782.149,125.984 
  "/>
<polyline clip-path="url(#clip6903)" style="stroke:#000000; stroke-width:2; stroke-opacity:0.1; fill:none" points="
  1275.45,1503.47 1275.45,125.984 
  "/>
<polyline clip-path="url(#clip6903)" style="stroke:#000000; stroke-width:2; stroke-opacity:0.1; fill:none" points="
  1768.76,1503.47 1768.76,125.984 
  "/>
<polyline clip-path="url(#clip6903)" style="stroke:#000000; stroke-width:2; stroke-opacity:0.1; fill:none" points="
  2262.06,1503.47 2262.06,125.984 
  "/>
<polyline clip-path="url(#clip6903)" style="stroke:#000000; stroke-width:2; stroke-opacity:0.1; fill:none" points="
  229.648,1321.22 2321.26,1321.22 
  "/>
<polyline clip-path="url(#clip6903)" style="stroke:#000000; stroke-width:2; stroke-opacity:0.1; fill:none" points="
  229.648,1047.16 2321.26,1047.16 
  "/>
<polyline clip-path="url(#clip6903)" style="stroke:#000000; stroke-width:2; stroke-opacity:0.1; fill:none" points="
  229.648,773.106 2321.26,773.106 
  "/>
<polyline clip-path="url(#clip6903)" style="stroke:#000000; stroke-width:2; stroke-opacity:0.1; fill:none" points="
  229.648,499.05 2321.26,499.05 
  "/>
<polyline clip-path="url(#clip6903)" style="stroke:#000000; stroke-width:2; stroke-opacity:0.1; fill:none" points="
  229.648,224.994 2321.26,224.994 
  "/>
<polyline clip-path="url(#clip6901)" style="stroke:#000000; stroke-width:4; stroke-opacity:1; fill:none" points="
  229.648,1503.47 2321.26,1503.47 
  "/>
<polyline clip-path="url(#clip6901)" style="stroke:#000000; stroke-width:4; stroke-opacity:1; fill:none" points="
  229.648,1503.47 229.648,125.984 
  "/>
<polyline clip-path="url(#clip6901)" style="stroke:#000000; stroke-width:4; stroke-opacity:1; fill:none" points="
  288.844,1503.47 288.844,1482.81 
  "/>
<polyline clip-path="url(#clip6901)" style="stroke:#000000; stroke-width:4; stroke-opacity:1; fill:none" points="
  782.149,1503.47 782.149,1482.81 
  "/>
<polyline clip-path="url(#clip6901)" style="stroke:#000000; stroke-width:4; stroke-opacity:1; fill:none" points="
  1275.45,1503.47 1275.45,1482.81 
  "/>
<polyline clip-path="url(#clip6901)" style="stroke:#000000; stroke-width:4; stroke-opacity:1; fill:none" points="
  1768.76,1503.47 1768.76,1482.81 
  "/>
<polyline clip-path="url(#clip6901)" style="stroke:#000000; stroke-width:4; stroke-opacity:1; fill:none" points="
  2262.06,1503.47 2262.06,1482.81 
  "/>
<polyline clip-path="url(#clip6901)" style="stroke:#000000; stroke-width:4; stroke-opacity:1; fill:none" points="
  229.648,1321.22 261.022,1321.22 
  "/>
<polyline clip-path="url(#clip6901)" style="stroke:#000000; stroke-width:4; stroke-opacity:1; fill:none" points="
  229.648,1047.16 261.022,1047.16 
  "/>
<polyline clip-path="url(#clip6901)" style="stroke:#000000; stroke-width:4; stroke-opacity:1; fill:none" points="
  229.648,773.106 261.022,773.106 
  "/>
<polyline clip-path="url(#clip6901)" style="stroke:#000000; stroke-width:4; stroke-opacity:1; fill:none" points="
  229.648,499.05 261.022,499.05 
  "/>
<polyline clip-path="url(#clip6901)" style="stroke:#000000; stroke-width:4; stroke-opacity:1; fill:none" points="
  229.648,224.994 261.022,224.994 
  "/>
<g clip-path="url(#clip6901)">
<text style="fill:#000000; fill-opacity:1; font-family:Arial,Helvetica Neue,Helvetica,sans-serif; font-size:48px; text-anchor:middle;" transform="rotate(0, 288.844, 1557.47)" x="288.844" y="1557.47">-1.0</text>
</g>
<g clip-path="url(#clip6901)">
<text style="fill:#000000; fill-opacity:1; font-family:Arial,Helvetica Neue,Helvetica,sans-serif; font-size:48px; text-anchor:middle;" transform="rotate(0, 782.149, 1557.47)" x="782.149" y="1557.47">-0.5</text>
</g>
<g clip-path="url(#clip6901)">
<text style="fill:#000000; fill-opacity:1; font-family:Arial,Helvetica Neue,Helvetica,sans-serif; font-size:48px; text-anchor:middle;" transform="rotate(0, 1275.45, 1557.47)" x="1275.45" y="1557.47">0.0</text>
</g>
<g clip-path="url(#clip6901)">
<text style="fill:#000000; fill-opacity:1; font-family:Arial,Helvetica Neue,Helvetica,sans-serif; font-size:48px; text-anchor:middle;" transform="rotate(0, 1768.76, 1557.47)" x="1768.76" y="1557.47">0.5</text>
</g>
<g clip-path="url(#clip6901)">
<text style="fill:#000000; fill-opacity:1; font-family:Arial,Helvetica Neue,Helvetica,sans-serif; font-size:48px; text-anchor:middle;" transform="rotate(0, 2262.06, 1557.47)" x="2262.06" y="1557.47">1.0</text>
</g>
<g clip-path="url(#clip6901)">
<text style="fill:#000000; fill-opacity:1; font-family:Arial,Helvetica Neue,Helvetica,sans-serif; font-size:48px; text-anchor:end;" transform="rotate(0, 205.648, 1338.72)" x="205.648" y="1338.72">-1000</text>
</g>
<g clip-path="url(#clip6901)">
<text style="fill:#000000; fill-opacity:1; font-family:Arial,Helvetica Neue,Helvetica,sans-serif; font-size:48px; text-anchor:end;" transform="rotate(0, 205.648, 1064.66)" x="205.648" y="1064.66">-750</text>
</g>
<g clip-path="url(#clip6901)">
<text style="fill:#000000; fill-opacity:1; font-family:Arial,Helvetica Neue,Helvetica,sans-serif; font-size:48px; text-anchor:end;" transform="rotate(0, 205.648, 790.606)" x="205.648" y="790.606">-500</text>
</g>
<g clip-path="url(#clip6901)">
<text style="fill:#000000; fill-opacity:1; font-family:Arial,Helvetica Neue,Helvetica,sans-serif; font-size:48px; text-anchor:end;" transform="rotate(0, 205.648, 516.55)" x="205.648" y="516.55">-250</text>
</g>
<g clip-path="url(#clip6901)">
<text style="fill:#000000; fill-opacity:1; font-family:Arial,Helvetica Neue,Helvetica,sans-serif; font-size:48px; text-anchor:end;" transform="rotate(0, 205.648, 242.494)" x="205.648" y="242.494">0</text>
</g>
<g clip-path="url(#clip6901)">
<text style="fill:#000000; fill-opacity:1; font-family:Arial,Helvetica Neue,Helvetica,sans-serif; font-size:84px; text-anchor:middle;" transform="rotate(0, 1275.45, 73.2)" x="1275.45" y="73.2">Runge&apos;s phenomenon (Nodes = 29)</text>
</g>
<polyline clip-path="url(#clip6903)" style="stroke:#009af9; stroke-width:4; stroke-opacity:1; fill:none" points="
  288.844,224.951 290.819,224.951 292.795,224.951 294.77,224.951 296.745,224.951 298.72,224.951 300.695,224.95 302.671,224.95 304.646,224.95 306.621,224.95 
  308.596,224.95 310.571,224.95 312.547,224.949 314.522,224.949 316.497,224.949 318.472,224.949 320.447,224.949 322.423,224.949 324.398,224.948 326.373,224.948 
  328.348,224.948 330.323,224.948 332.298,224.948 334.274,224.947 336.249,224.947 338.224,224.947 340.199,224.947 342.174,224.947 344.15,224.947 346.125,224.946 
  348.1,224.946 350.075,224.946 352.05,224.946 354.026,224.946 356.001,224.945 357.976,224.945 359.951,224.945 361.926,224.945 363.902,224.945 365.877,224.944 
  367.852,224.944 369.827,224.944 371.802,224.944 373.778,224.944 375.753,224.943 377.728,224.943 379.703,224.943 381.678,224.943 383.654,224.942 385.629,224.942 
  387.604,224.942 389.579,224.942 391.554,224.942 393.529,224.941 395.505,224.941 397.48,224.941 399.455,224.941 401.43,224.94 403.405,224.94 405.381,224.94 
  407.356,224.94 409.331,224.94 411.306,224.939 413.281,224.939 415.257,224.939 417.232,224.939 419.207,224.938 421.182,224.938 423.157,224.938 425.133,224.938 
  427.108,224.937 429.083,224.937 431.058,224.937 433.033,224.937 435.009,224.936 436.984,224.936 438.959,224.936 440.934,224.936 442.909,224.935 444.885,224.935 
  446.86,224.935 448.835,224.935 450.81,224.934 452.785,224.934 454.761,224.934 456.736,224.933 458.711,224.933 460.686,224.933 462.661,224.933 464.636,224.932 
  466.612,224.932 468.587,224.932 470.562,224.931 472.537,224.931 474.512,224.931 476.488,224.931 478.463,224.93 480.438,224.93 482.413,224.93 484.388,224.929 
  486.364,224.929 488.339,224.929 490.314,224.929 492.289,224.928 494.264,224.928 496.24,224.928 498.215,224.927 500.19,224.927 502.165,224.927 504.14,224.926 
  506.116,224.926 508.091,224.926 510.066,224.925 512.041,224.925 514.016,224.925 515.992,224.924 517.967,224.924 519.942,224.924 521.917,224.923 523.892,224.923 
  525.868,224.923 527.843,224.922 529.818,224.922 531.793,224.922 533.768,224.921 535.743,224.921 537.719,224.92 539.694,224.92 541.669,224.92 543.644,224.919 
  545.619,224.919 547.595,224.919 549.57,224.918 551.545,224.918 553.52,224.917 555.495,224.917 557.471,224.917 559.446,224.916 561.421,224.916 563.396,224.915 
  565.371,224.915 567.347,224.915 569.322,224.914 571.297,224.914 573.272,224.913 575.247,224.913 577.223,224.913 579.198,224.912 581.173,224.912 583.148,224.911 
  585.123,224.911 587.099,224.91 589.074,224.91 591.049,224.91 593.024,224.909 594.999,224.909 596.975,224.908 598.95,224.908 600.925,224.907 602.9,224.907 
  604.875,224.906 606.85,224.906 608.826,224.905 610.801,224.905 612.776,224.904 614.751,224.904 616.726,224.903 618.702,224.903 620.677,224.902 622.652,224.902 
  624.627,224.901 626.602,224.901 628.578,224.9 630.553,224.9 632.528,224.899 634.503,224.899 636.478,224.898 638.454,224.898 640.429,224.897 642.404,224.897 
  644.379,224.896 646.354,224.895 648.33,224.895 650.305,224.894 652.28,224.894 654.255,224.893 656.23,224.893 658.206,224.892 660.181,224.891 662.156,224.891 
  664.131,224.89 666.106,224.89 668.082,224.889 670.057,224.888 672.032,224.888 674.007,224.887 675.982,224.886 677.957,224.886 679.933,224.885 681.908,224.885 
  683.883,224.884 685.858,224.883 687.833,224.883 689.809,224.882 691.784,224.881 693.759,224.881 695.734,224.88 697.709,224.879 699.685,224.878 701.66,224.878 
  703.635,224.877 705.61,224.876 707.585,224.876 709.561,224.875 711.536,224.874 713.511,224.873 715.486,224.873 717.461,224.872 719.437,224.871 721.412,224.87 
  723.387,224.869 725.362,224.869 727.337,224.868 729.313,224.867 731.288,224.866 733.263,224.865 735.238,224.865 737.213,224.864 739.188,224.863 741.164,224.862 
  743.139,224.861 745.114,224.86 747.089,224.859 749.064,224.859 751.04,224.858 753.015,224.857 754.99,224.856 756.965,224.855 758.94,224.854 760.916,224.853 
  762.891,224.852 764.866,224.851 766.841,224.85 768.816,224.849 770.792,224.848 772.767,224.847 774.742,224.846 776.717,224.845 778.692,224.844 780.668,224.843 
  782.643,224.842 784.618,224.841 786.593,224.84 788.568,224.839 790.544,224.838 792.519,224.837 794.494,224.836 796.469,224.835 798.444,224.833 800.42,224.832 
  802.395,224.831 804.37,224.83 806.345,224.829 808.32,224.828 810.295,224.826 812.271,224.825 814.246,224.824 816.221,224.823 818.196,224.822 820.171,224.82 
  822.147,224.819 824.122,224.818 826.097,224.816 828.072,224.815 830.047,224.814 832.023,224.812 833.998,224.811 835.973,224.81 837.948,224.808 839.923,224.807 
  841.899,224.806 843.874,224.804 845.849,224.803 847.824,224.801 849.799,224.8 851.775,224.798 853.75,224.797 855.725,224.795 857.7,224.794 859.675,224.792 
  861.651,224.791 863.626,224.789 865.601,224.787 867.576,224.786 869.551,224.784 871.527,224.782 873.502,224.781 875.477,224.779 877.452,224.777 879.427,224.776 
  881.402,224.774 883.378,224.772 885.353,224.77 887.328,224.768 889.303,224.767 891.278,224.765 893.254,224.763 895.229,224.761 897.204,224.759 899.179,224.757 
  901.154,224.755 903.13,224.753 905.105,224.751 907.08,224.749 909.055,224.747 911.03,224.745 913.006,224.743 914.981,224.741 916.956,224.739 918.931,224.737 
  920.906,224.734 922.882,224.732 924.857,224.73 926.832,224.728 928.807,224.725 930.782,224.723 932.758,224.721 934.733,224.718 936.708,224.716 938.683,224.713 
  940.658,224.711 942.634,224.709 944.609,224.706 946.584,224.703 948.559,224.701 950.534,224.698 952.509,224.696 954.485,224.693 956.46,224.69 958.435,224.688 
  960.41,224.685 962.385,224.682 964.361,224.679 966.336,224.676 968.311,224.673 970.286,224.67 972.261,224.667 974.237,224.664 976.212,224.661 978.187,224.658 
  980.162,224.655 982.137,224.652 984.113,224.649 986.088,224.646 988.063,224.642 990.038,224.639 992.013,224.636 993.989,224.632 995.964,224.629 997.939,224.626 
  999.914,224.622 1001.89,224.618 1003.86,224.615 1005.84,224.611 1007.81,224.608 1009.79,224.604 1011.77,224.6 1013.74,224.596 1015.72,224.592 1017.69,224.589 
  1019.67,224.585 1021.64,224.581 1023.62,224.577 1025.59,224.573 1027.57,224.568 1029.54,224.564 1031.52,224.56 1033.49,224.556 1035.47,224.551 1037.44,224.547 
  1039.42,224.543 1041.39,224.538 1043.37,224.534 1045.34,224.529 1047.32,224.524 1049.29,224.52 1051.27,224.515 1053.24,224.51 1055.22,224.505 1057.19,224.501 
  1059.17,224.496 1061.15,224.491 1063.12,224.486 1065.1,224.481 1067.07,224.475 1069.05,224.47 1071.02,224.465 1073,224.46 1074.97,224.454 1076.95,224.449 
  1078.92,224.443 1080.9,224.438 1082.87,224.432 1084.85,224.427 1086.82,224.421 1088.8,224.415 1090.77,224.409 1092.75,224.403 1094.72,224.397 1096.7,224.392 
  1098.67,224.386 1100.65,224.379 1102.62,224.373 1104.6,224.367 1106.57,224.361 1108.55,224.355 1110.53,224.348 1112.5,224.342 1114.48,224.335 1116.45,224.329 
  1118.43,224.322 1120.4,224.316 1122.38,224.309 1124.35,224.303 1126.33,224.296 1128.3,224.289 1130.28,224.282 1132.25,224.276 1134.23,224.269 1136.2,224.262 
  1138.18,224.255 1140.15,224.248 1142.13,224.241 1144.1,224.234 1146.08,224.227 1148.05,224.22 1150.03,224.213 1152,224.206 1153.98,224.199 1155.95,224.192 
  1157.93,224.184 1159.9,224.177 1161.88,224.17 1163.86,224.163 1165.83,224.156 1167.81,224.149 1169.78,224.142 1171.76,224.135 1173.73,224.128 1175.71,224.121 
  1177.68,224.113 1179.66,224.106 1181.63,224.1 1183.61,224.093 1185.58,224.086 1187.56,224.079 1189.53,224.072 1191.51,224.065 1193.48,224.059 1195.46,224.052 
  1197.43,224.046 1199.41,224.039 1201.38,224.033 1203.36,224.027 1205.33,224.02 1207.31,224.014 1209.28,224.008 1211.26,224.002 1213.24,223.997 1215.21,223.991 
  1217.19,223.985 1219.16,223.98 1221.14,223.975 1223.11,223.969 1225.09,223.964 1227.06,223.96 1229.04,223.955 1231.01,223.95 1232.99,223.946 1234.96,223.942 
  1236.94,223.938 1238.91,223.934 1240.89,223.93 1242.86,223.927 1244.84,223.923 1246.81,223.92 1248.79,223.917 1250.76,223.914 1252.74,223.912 1254.71,223.909 
  1256.69,223.907 1258.66,223.905 1260.64,223.904 1262.61,223.902 1264.59,223.901 1266.57,223.9 1268.54,223.899 1270.52,223.898 1272.49,223.898 1274.47,223.897 
  1276.44,223.897 1278.42,223.898 1280.39,223.898 1282.37,223.899 1284.34,223.9 1286.32,223.901 1288.29,223.902 1290.27,223.904 1292.24,223.905 1294.22,223.907 
  1296.19,223.909 1298.17,223.912 1300.14,223.914 1302.12,223.917 1304.09,223.92 1306.07,223.923 1308.04,223.927 1310.02,223.93 1311.99,223.934 1313.97,223.938 
  1315.95,223.942 1317.92,223.946 1319.9,223.95 1321.87,223.955 1323.85,223.96 1325.82,223.964 1327.8,223.969 1329.77,223.975 1331.75,223.98 1333.72,223.985 
  1335.7,223.991 1337.67,223.997 1339.65,224.002 1341.62,224.008 1343.6,224.014 1345.57,224.02 1347.55,224.027 1349.52,224.033 1351.5,224.039 1353.47,224.046 
  1355.45,224.052 1357.42,224.059 1359.4,224.065 1361.37,224.072 1363.35,224.079 1365.33,224.086 1367.3,224.093 1369.28,224.1 1371.25,224.106 1373.23,224.113 
  1375.2,224.121 1377.18,224.128 1379.15,224.135 1381.13,224.142 1383.1,224.149 1385.08,224.156 1387.05,224.163 1389.03,224.17 1391,224.177 1392.98,224.184 
  1394.95,224.192 1396.93,224.199 1398.9,224.206 1400.88,224.213 1402.85,224.22 1404.83,224.227 1406.8,224.234 1408.78,224.241 1410.75,224.248 1412.73,224.255 
  1414.7,224.262 1416.68,224.269 1418.66,224.276 1420.63,224.282 1422.61,224.289 1424.58,224.296 1426.56,224.303 1428.53,224.309 1430.51,224.316 1432.48,224.322 
  1434.46,224.329 1436.43,224.335 1438.41,224.342 1440.38,224.348 1442.36,224.355 1444.33,224.361 1446.31,224.367 1448.28,224.373 1450.26,224.379 1452.23,224.386 
  1454.21,224.392 1456.18,224.397 1458.16,224.403 1460.13,224.409 1462.11,224.415 1464.08,224.421 1466.06,224.427 1468.04,224.432 1470.01,224.438 1471.99,224.443 
  1473.96,224.449 1475.94,224.454 1477.91,224.46 1479.89,224.465 1481.86,224.47 1483.84,224.475 1485.81,224.481 1487.79,224.486 1489.76,224.491 1491.74,224.496 
  1493.71,224.501 1495.69,224.505 1497.66,224.51 1499.64,224.515 1501.61,224.52 1503.59,224.524 1505.56,224.529 1507.54,224.534 1509.51,224.538 1511.49,224.543 
  1513.46,224.547 1515.44,224.551 1517.42,224.556 1519.39,224.56 1521.37,224.564 1523.34,224.568 1525.32,224.573 1527.29,224.577 1529.27,224.581 1531.24,224.585 
  1533.22,224.589 1535.19,224.592 1537.17,224.596 1539.14,224.6 1541.12,224.604 1543.09,224.608 1545.07,224.611 1547.04,224.615 1549.02,224.618 1550.99,224.622 
  1552.97,224.626 1554.94,224.629 1556.92,224.632 1558.89,224.636 1560.87,224.639 1562.84,224.642 1564.82,224.646 1566.79,224.649 1568.77,224.652 1570.75,224.655 
  1572.72,224.658 1574.7,224.661 1576.67,224.664 1578.65,224.667 1580.62,224.67 1582.6,224.673 1584.57,224.676 1586.55,224.679 1588.52,224.682 1590.5,224.685 
  1592.47,224.688 1594.45,224.69 1596.42,224.693 1598.4,224.696 1600.37,224.698 1602.35,224.701 1604.32,224.703 1606.3,224.706 1608.27,224.709 1610.25,224.711 
  1612.22,224.713 1614.2,224.716 1616.17,224.718 1618.15,224.721 1620.13,224.723 1622.1,224.725 1624.08,224.728 1626.05,224.73 1628.03,224.732 1630,224.734 
  1631.98,224.737 1633.95,224.739 1635.93,224.741 1637.9,224.743 1639.88,224.745 1641.85,224.747 1643.83,224.749 1645.8,224.751 1647.78,224.753 1649.75,224.755 
  1651.73,224.757 1653.7,224.759 1655.68,224.761 1657.65,224.763 1659.63,224.765 1661.6,224.767 1663.58,224.768 1665.55,224.77 1667.53,224.772 1669.5,224.774 
  1671.48,224.776 1673.46,224.777 1675.43,224.779 1677.41,224.781 1679.38,224.782 1681.36,224.784 1683.33,224.786 1685.31,224.787 1687.28,224.789 1689.26,224.791 
  1691.23,224.792 1693.21,224.794 1695.18,224.795 1697.16,224.797 1699.13,224.798 1701.11,224.8 1703.08,224.801 1705.06,224.803 1707.03,224.804 1709.01,224.806 
  1710.98,224.807 1712.96,224.808 1714.93,224.81 1716.91,224.811 1718.88,224.812 1720.86,224.814 1722.84,224.815 1724.81,224.816 1726.79,224.818 1728.76,224.819 
  1730.74,224.82 1732.71,224.822 1734.69,224.823 1736.66,224.824 1738.64,224.825 1740.61,224.826 1742.59,224.828 1744.56,224.829 1746.54,224.83 1748.51,224.831 
  1750.49,224.832 1752.46,224.833 1754.44,224.835 1756.41,224.836 1758.39,224.837 1760.36,224.838 1762.34,224.839 1764.31,224.84 1766.29,224.841 1768.26,224.842 
  1770.24,224.843 1772.22,224.844 1774.19,224.845 1776.17,224.846 1778.14,224.847 1780.12,224.848 1782.09,224.849 1784.07,224.85 1786.04,224.851 1788.02,224.852 
  1789.99,224.853 1791.97,224.854 1793.94,224.855 1795.92,224.856 1797.89,224.857 1799.87,224.858 1801.84,224.859 1803.82,224.859 1805.79,224.86 1807.77,224.861 
  1809.74,224.862 1811.72,224.863 1813.69,224.864 1815.67,224.865 1817.64,224.865 1819.62,224.866 1821.59,224.867 1823.57,224.868 1825.55,224.869 1827.52,224.869 
  1829.5,224.87 1831.47,224.871 1833.45,224.872 1835.42,224.873 1837.4,224.873 1839.37,224.874 1841.35,224.875 1843.32,224.876 1845.3,224.876 1847.27,224.877 
  1849.25,224.878 1851.22,224.878 1853.2,224.879 1855.17,224.88 1857.15,224.881 1859.12,224.881 1861.1,224.882 1863.07,224.883 1865.05,224.883 1867.02,224.884 
  1869,224.885 1870.97,224.885 1872.95,224.886 1874.93,224.886 1876.9,224.887 1878.88,224.888 1880.85,224.888 1882.83,224.889 1884.8,224.89 1886.78,224.89 
  1888.75,224.891 1890.73,224.891 1892.7,224.892 1894.68,224.893 1896.65,224.893 1898.63,224.894 1900.6,224.894 1902.58,224.895 1904.55,224.895 1906.53,224.896 
  1908.5,224.897 1910.48,224.897 1912.45,224.898 1914.43,224.898 1916.4,224.899 1918.38,224.899 1920.35,224.9 1922.33,224.9 1924.31,224.901 1926.28,224.901 
  1928.26,224.902 1930.23,224.902 1932.21,224.903 1934.18,224.903 1936.16,224.904 1938.13,224.904 1940.11,224.905 1942.08,224.905 1944.06,224.906 1946.03,224.906 
  1948.01,224.907 1949.98,224.907 1951.96,224.908 1953.93,224.908 1955.91,224.909 1957.88,224.909 1959.86,224.91 1961.83,224.91 1963.81,224.91 1965.78,224.911 
  1967.76,224.911 1969.73,224.912 1971.71,224.912 1973.68,224.913 1975.66,224.913 1977.64,224.913 1979.61,224.914 1981.59,224.914 1983.56,224.915 1985.54,224.915 
  1987.51,224.915 1989.49,224.916 1991.46,224.916 1993.44,224.917 1995.41,224.917 1997.39,224.917 1999.36,224.918 2001.34,224.918 2003.31,224.919 2005.29,224.919 
  2007.26,224.919 2009.24,224.92 2011.21,224.92 2013.19,224.92 2015.16,224.921 2017.14,224.921 2019.11,224.922 2021.09,224.922 2023.06,224.922 2025.04,224.923 
  2027.02,224.923 2028.99,224.923 2030.97,224.924 2032.94,224.924 2034.92,224.924 2036.89,224.925 2038.87,224.925 2040.84,224.925 2042.82,224.926 2044.79,224.926 
  2046.77,224.926 2048.74,224.927 2050.72,224.927 2052.69,224.927 2054.67,224.928 2056.64,224.928 2058.62,224.928 2060.59,224.929 2062.57,224.929 2064.54,224.929 
  2066.52,224.929 2068.49,224.93 2070.47,224.93 2072.44,224.93 2074.42,224.931 2076.4,224.931 2078.37,224.931 2080.35,224.931 2082.32,224.932 2084.3,224.932 
  2086.27,224.932 2088.25,224.933 2090.22,224.933 2092.2,224.933 2094.17,224.933 2096.15,224.934 2098.12,224.934 2100.1,224.934 2102.07,224.935 2104.05,224.935 
  2106.02,224.935 2108,224.935 2109.97,224.936 2111.95,224.936 2113.92,224.936 2115.9,224.936 2117.87,224.937 2119.85,224.937 2121.82,224.937 2123.8,224.937 
  2125.77,224.938 2127.75,224.938 2129.73,224.938 2131.7,224.938 2133.68,224.939 2135.65,224.939 2137.63,224.939 2139.6,224.939 2141.58,224.94 2143.55,224.94 
  2145.53,224.94 2147.5,224.94 2149.48,224.94 2151.45,224.941 2153.43,224.941 2155.4,224.941 2157.38,224.941 2159.35,224.942 2161.33,224.942 2163.3,224.942 
  2165.28,224.942 2167.25,224.942 2169.23,224.943 2171.2,224.943 2173.18,224.943 2175.15,224.943 2177.13,224.944 2179.11,224.944 2181.08,224.944 2183.06,224.944 
  2185.03,224.944 2187.01,224.945 2188.98,224.945 2190.96,224.945 2192.93,224.945 2194.91,224.945 2196.88,224.946 2198.86,224.946 2200.83,224.946 2202.81,224.946 
  2204.78,224.946 2206.76,224.947 2208.73,224.947 2210.71,224.947 2212.68,224.947 2214.66,224.947 2216.63,224.947 2218.61,224.948 2220.58,224.948 2222.56,224.948 
  2224.53,224.948 2226.51,224.948 2228.48,224.949 2230.46,224.949 2232.44,224.949 2234.41,224.949 2236.39,224.949 2238.36,224.949 2240.34,224.95 2242.31,224.95 
  2244.29,224.95 2246.26,224.95 2248.24,224.95 2250.21,224.95 2252.19,224.951 2254.16,224.951 2256.14,224.951 2258.11,224.951 2260.09,224.951 2262.06,224.951 
  
  "/>
<circle clip-path="url(#clip6903)" style="fill:#000000; stroke:none; fill-opacity:1" cx="288.844" cy="224.951" r="18"/>
<circle clip-path="url(#clip6903)" style="fill:#e26f46; stroke:none; fill-opacity:1" cx="288.844" cy="224.951" r="14"/>
<circle clip-path="url(#clip6903)" style="fill:#000000; stroke:none; fill-opacity:1" cx="359.316" cy="224.945" r="18"/>
<circle clip-path="url(#clip6903)" style="fill:#e26f46; stroke:none; fill-opacity:1" cx="359.316" cy="224.945" r="14"/>
<circle clip-path="url(#clip6903)" style="fill:#000000; stroke:none; fill-opacity:1" cx="429.788" cy="224.937" r="18"/>
<circle clip-path="url(#clip6903)" style="fill:#e26f46; stroke:none; fill-opacity:1" cx="429.788" cy="224.937" r="14"/>
<circle clip-path="url(#clip6903)" style="fill:#000000; stroke:none; fill-opacity:1" cx="500.261" cy="224.927" r="18"/>
<circle clip-path="url(#clip6903)" style="fill:#e26f46; stroke:none; fill-opacity:1" cx="500.261" cy="224.927" r="14"/>
<circle clip-path="url(#clip6903)" style="fill:#000000; stroke:none; fill-opacity:1" cx="570.733" cy="224.914" r="18"/>
<circle clip-path="url(#clip6903)" style="fill:#e26f46; stroke:none; fill-opacity:1" cx="570.733" cy="224.914" r="14"/>
<circle clip-path="url(#clip6903)" style="fill:#000000; stroke:none; fill-opacity:1" cx="641.205" cy="224.897" r="18"/>
<circle clip-path="url(#clip6903)" style="fill:#e26f46; stroke:none; fill-opacity:1" cx="641.205" cy="224.897" r="14"/>
<circle clip-path="url(#clip6903)" style="fill:#000000; stroke:none; fill-opacity:1" cx="711.677" cy="224.874" r="18"/>
<circle clip-path="url(#clip6903)" style="fill:#e26f46; stroke:none; fill-opacity:1" cx="711.677" cy="224.874" r="14"/>
<circle clip-path="url(#clip6903)" style="fill:#000000; stroke:none; fill-opacity:1" cx="782.149" cy="224.842" r="18"/>
<circle clip-path="url(#clip6903)" style="fill:#e26f46; stroke:none; fill-opacity:1" cx="782.149" cy="224.842" r="14"/>
<circle clip-path="url(#clip6903)" style="fill:#000000; stroke:none; fill-opacity:1" cx="852.621" cy="224.798" r="18"/>
<circle clip-path="url(#clip6903)" style="fill:#e26f46; stroke:none; fill-opacity:1" cx="852.621" cy="224.798" r="14"/>
<circle clip-path="url(#clip6903)" style="fill:#000000; stroke:none; fill-opacity:1" cx="923.093" cy="224.732" r="18"/>
<circle clip-path="url(#clip6903)" style="fill:#e26f46; stroke:none; fill-opacity:1" cx="923.093" cy="224.732" r="14"/>
<circle clip-path="url(#clip6903)" style="fill:#000000; stroke:none; fill-opacity:1" cx="993.565" cy="224.633" r="18"/>
<circle clip-path="url(#clip6903)" style="fill:#e26f46; stroke:none; fill-opacity:1" cx="993.565" cy="224.633" r="14"/>
<circle clip-path="url(#clip6903)" style="fill:#000000; stroke:none; fill-opacity:1" cx="1064.04" cy="224.483" r="18"/>
<circle clip-path="url(#clip6903)" style="fill:#e26f46; stroke:none; fill-opacity:1" cx="1064.04" cy="224.483" r="14"/>
<circle clip-path="url(#clip6903)" style="fill:#000000; stroke:none; fill-opacity:1" cx="1134.51" cy="224.268" r="18"/>
<circle clip-path="url(#clip6903)" style="fill:#e26f46; stroke:none; fill-opacity:1" cx="1134.51" cy="224.268" r="14"/>
<circle clip-path="url(#clip6903)" style="fill:#000000; stroke:none; fill-opacity:1" cx="1204.98" cy="224.021" r="18"/>
<circle clip-path="url(#clip6903)" style="fill:#e26f46; stroke:none; fill-opacity:1" cx="1204.98" cy="224.021" r="14"/>
<circle clip-path="url(#clip6903)" style="fill:#000000; stroke:none; fill-opacity:1" cx="1275.45" cy="223.897" r="18"/>
<circle clip-path="url(#clip6903)" style="fill:#e26f46; stroke:none; fill-opacity:1" cx="1275.45" cy="223.897" r="14"/>
<circle clip-path="url(#clip6903)" style="fill:#000000; stroke:none; fill-opacity:1" cx="1345.93" cy="224.021" r="18"/>
<circle clip-path="url(#clip6903)" style="fill:#e26f46; stroke:none; fill-opacity:1" cx="1345.93" cy="224.021" r="14"/>
<circle clip-path="url(#clip6903)" style="fill:#000000; stroke:none; fill-opacity:1" cx="1416.4" cy="224.268" r="18"/>
<circle clip-path="url(#clip6903)" style="fill:#e26f46; stroke:none; fill-opacity:1" cx="1416.4" cy="224.268" r="14"/>
<circle clip-path="url(#clip6903)" style="fill:#000000; stroke:none; fill-opacity:1" cx="1486.87" cy="224.483" r="18"/>
<circle clip-path="url(#clip6903)" style="fill:#e26f46; stroke:none; fill-opacity:1" cx="1486.87" cy="224.483" r="14"/>
<circle clip-path="url(#clip6903)" style="fill:#000000; stroke:none; fill-opacity:1" cx="1557.34" cy="224.633" r="18"/>
<circle clip-path="url(#clip6903)" style="fill:#e26f46; stroke:none; fill-opacity:1" cx="1557.34" cy="224.633" r="14"/>
<circle clip-path="url(#clip6903)" style="fill:#000000; stroke:none; fill-opacity:1" cx="1627.81" cy="224.732" r="18"/>
<circle clip-path="url(#clip6903)" style="fill:#e26f46; stroke:none; fill-opacity:1" cx="1627.81" cy="224.732" r="14"/>
<circle clip-path="url(#clip6903)" style="fill:#000000; stroke:none; fill-opacity:1" cx="1698.29" cy="224.798" r="18"/>
<circle clip-path="url(#clip6903)" style="fill:#e26f46; stroke:none; fill-opacity:1" cx="1698.29" cy="224.798" r="14"/>
<circle clip-path="url(#clip6903)" style="fill:#000000; stroke:none; fill-opacity:1" cx="1768.76" cy="224.842" r="18"/>
<circle clip-path="url(#clip6903)" style="fill:#e26f46; stroke:none; fill-opacity:1" cx="1768.76" cy="224.842" r="14"/>
<circle clip-path="url(#clip6903)" style="fill:#000000; stroke:none; fill-opacity:1" cx="1839.23" cy="224.874" r="18"/>
<circle clip-path="url(#clip6903)" style="fill:#e26f46; stroke:none; fill-opacity:1" cx="1839.23" cy="224.874" r="14"/>
<circle clip-path="url(#clip6903)" style="fill:#000000; stroke:none; fill-opacity:1" cx="1909.7" cy="224.897" r="18"/>
<circle clip-path="url(#clip6903)" style="fill:#e26f46; stroke:none; fill-opacity:1" cx="1909.7" cy="224.897" r="14"/>
<circle clip-path="url(#clip6903)" style="fill:#000000; stroke:none; fill-opacity:1" cx="1980.17" cy="224.914" r="18"/>
<circle clip-path="url(#clip6903)" style="fill:#e26f46; stroke:none; fill-opacity:1" cx="1980.17" cy="224.914" r="14"/>
<circle clip-path="url(#clip6903)" style="fill:#000000; stroke:none; fill-opacity:1" cx="2050.65" cy="224.927" r="18"/>
<circle clip-path="url(#clip6903)" style="fill:#e26f46; stroke:none; fill-opacity:1" cx="2050.65" cy="224.927" r="14"/>
<circle clip-path="url(#clip6903)" style="fill:#000000; stroke:none; fill-opacity:1" cx="2121.12" cy="224.937" r="18"/>
<circle clip-path="url(#clip6903)" style="fill:#e26f46; stroke:none; fill-opacity:1" cx="2121.12" cy="224.937" r="14"/>
<circle clip-path="url(#clip6903)" style="fill:#000000; stroke:none; fill-opacity:1" cx="2191.59" cy="224.945" r="18"/>
<circle clip-path="url(#clip6903)" style="fill:#e26f46; stroke:none; fill-opacity:1" cx="2191.59" cy="224.945" r="14"/>
<circle clip-path="url(#clip6903)" style="fill:#000000; stroke:none; fill-opacity:1" cx="2262.06" cy="224.951" r="18"/>
<circle clip-path="url(#clip6903)" style="fill:#e26f46; stroke:none; fill-opacity:1" cx="2262.06" cy="224.951" r="14"/>
<polyline clip-path="url(#clip6903)" style="stroke:#3da44d; stroke-width:4; stroke-opacity:1; fill:none" points="
  288.844,224.951 290.819,570.691 292.795,844.29 294.77,1055.89 296.745,1214.5 298.72,1328.05 300.695,1403.58 302.671,1447.25 304.646,1464.49 306.621,1460.02 
  308.596,1437.98 310.571,1401.94 312.547,1355 314.522,1299.82 316.497,1238.67 318.472,1173.5 320.447,1105.92 322.423,1037.32 324.398,968.814 326.373,901.332 
  328.348,835.62 330.323,772.27 332.298,711.734 334.274,654.352 336.249,600.362 338.224,549.917 340.199,503.097 342.174,459.925 344.15,420.37 346.125,384.362 
  348.1,351.798 350.075,322.547 352.05,296.461 354.026,273.374 356.001,253.112 357.976,235.491 359.951,220.328 361.926,207.435 363.902,196.629 365.877,187.73 
  367.852,180.561 369.827,174.954 371.802,170.747 373.778,167.786 375.753,165.925 377.728,165.029 379.703,164.97 381.678,165.629 383.654,166.898 385.629,168.677 
  387.604,170.873 389.579,173.404 391.554,176.195 393.529,179.178 395.505,182.293 397.48,185.488 399.455,188.716 401.43,191.936 403.405,195.114 405.381,198.219 
  407.356,201.228 409.331,204.12 411.306,206.879 413.281,209.49 415.257,211.947 417.232,214.24 419.207,216.367 421.182,218.326 423.157,220.117 425.133,221.742 
  427.108,223.204 429.083,224.508 431.058,225.661 433.033,226.667 435.009,227.535 436.984,228.273 438.959,228.888 440.934,229.389 442.909,229.785 444.885,230.083 
  446.86,230.293 448.835,230.422 450.81,230.479 452.785,230.471 454.761,230.407 456.736,230.293 458.711,230.137 460.686,229.944 462.661,229.721 464.636,229.473 
  466.612,229.206 468.587,228.925 470.562,228.633 472.537,228.336 474.512,228.036 476.488,227.737 478.463,227.442 480.438,227.153 482.413,226.872 484.388,226.601 
  486.364,226.342 488.339,226.096 490.314,225.864 492.289,225.647 494.264,225.444 496.24,225.258 498.215,225.087 500.19,224.932 502.165,224.793 504.14,224.669 
  506.116,224.56 508.091,224.465 510.066,224.384 512.041,224.316 514.016,224.261 515.992,224.218 517.967,224.185 519.942,224.163 521.917,224.15 523.892,224.146 
  525.868,224.15 527.843,224.16 529.818,224.177 531.793,224.2 533.768,224.226 535.743,224.257 537.719,224.292 539.694,224.329 541.669,224.368 543.644,224.409 
  545.619,224.45 547.595,224.492 549.57,224.535 551.545,224.577 553.52,224.618 555.495,224.659 557.471,224.698 559.446,224.736 561.421,224.772 563.396,224.806 
  565.371,224.838 567.347,224.868 569.322,224.895 571.297,224.921 573.272,224.944 575.247,224.965 577.223,224.984 579.198,225 581.173,225.014 583.148,225.026 
  585.123,225.036 587.099,225.044 589.074,225.05 591.049,225.054 593.024,225.057 594.999,225.057 596.975,225.057 598.95,225.055 600.925,225.052 602.9,225.048 
  604.875,225.043 606.85,225.037 608.826,225.03 610.801,225.023 612.776,225.015 614.751,225.007 616.726,224.998 618.702,224.989 620.677,224.981 622.652,224.972 
  624.627,224.963 626.602,224.954 628.578,224.945 630.553,224.937 632.528,224.929 634.503,224.921 636.478,224.913 638.454,224.906 640.429,224.899 642.404,224.893 
  644.379,224.887 646.354,224.882 648.33,224.877 650.305,224.873 652.28,224.869 654.255,224.865 656.23,224.862 658.206,224.859 660.181,224.857 662.156,224.855 
  664.131,224.854 666.106,224.853 668.082,224.852 670.057,224.852 672.032,224.851 674.007,224.852 675.982,224.852 677.957,224.853 679.933,224.853 681.908,224.854 
  683.883,224.855 685.858,224.857 687.833,224.858 689.809,224.859 691.784,224.861 693.759,224.862 695.734,224.864 697.709,224.865 699.685,224.867 701.66,224.868 
  703.635,224.869 705.61,224.871 707.585,224.872 709.561,224.873 711.536,224.874 713.511,224.875 715.486,224.876 717.461,224.876 719.437,224.877 721.412,224.877 
  723.387,224.877 725.362,224.877 727.337,224.877 729.313,224.877 731.288,224.877 733.263,224.876 735.238,224.876 737.213,224.875 739.188,224.874 741.164,224.874 
  743.139,224.873 745.114,224.871 747.089,224.87 749.064,224.869 751.04,224.868 753.015,224.866 754.99,224.865 756.965,224.863 758.94,224.862 760.916,224.86 
  762.891,224.859 764.866,224.857 766.841,224.855 768.816,224.854 770.792,224.852 772.767,224.85 774.742,224.849 776.717,224.847 778.692,224.845 780.668,224.844 
  782.643,224.842 784.618,224.84 786.593,224.839 788.568,224.837 790.544,224.836 792.519,224.834 794.494,224.833 796.469,224.831 798.444,224.83 800.42,224.829 
  802.395,224.827 804.37,224.826 806.345,224.825 808.32,224.823 810.295,224.822 812.271,224.821 814.246,224.82 816.221,224.819 818.196,224.817 820.171,224.816 
  822.147,224.815 824.122,224.814 826.097,224.813 828.072,224.812 830.047,224.811 832.023,224.81 833.998,224.809 835.973,224.807 837.948,224.806 839.923,224.805 
  841.899,224.804 843.874,224.803 845.849,224.802 847.824,224.801 849.799,224.799 851.775,224.798 853.75,224.797 855.725,224.796 857.7,224.794 859.675,224.793 
  861.651,224.792 863.626,224.79 865.601,224.789 867.576,224.787 869.551,224.786 871.527,224.784 873.502,224.783 875.477,224.781 877.452,224.779 879.427,224.778 
  881.402,224.776 883.378,224.774 885.353,224.772 887.328,224.77 889.303,224.769 891.278,224.767 893.254,224.765 895.229,224.763 897.204,224.761 899.179,224.759 
  901.154,224.757 903.13,224.755 905.105,224.752 907.08,224.75 909.055,224.748 911.03,224.746 913.006,224.744 914.981,224.741 916.956,224.739 918.931,224.737 
  920.906,224.735 922.882,224.732 924.857,224.73 926.832,224.727 928.807,224.725 930.782,224.723 932.758,224.72 934.733,224.718 936.708,224.715 938.683,224.713 
  940.658,224.71 942.634,224.708 944.609,224.705 946.584,224.702 948.559,224.7 950.534,224.697 952.509,224.695 954.485,224.692 956.46,224.689 958.435,224.686 
  960.41,224.684 962.385,224.681 964.361,224.678 966.336,224.675 968.311,224.672 970.286,224.67 972.261,224.667 974.237,224.664 976.212,224.661 978.187,224.658 
  980.162,224.655 982.137,224.652 984.113,224.649 986.088,224.645 988.063,224.642 990.038,224.639 992.013,224.636 993.989,224.632 995.964,224.629 997.939,224.626 
  999.914,224.622 1001.89,224.619 1003.86,224.615 1005.84,224.612 1007.81,224.608 1009.79,224.604 1011.77,224.601 1013.74,224.597 1015.72,224.593 1017.69,224.589 
  1019.67,224.585 1021.64,224.581 1023.62,224.577 1025.59,224.573 1027.57,224.569 1029.54,224.565 1031.52,224.561 1033.49,224.556 1035.47,224.552 1037.44,224.548 
  1039.42,224.543 1041.39,224.539 1043.37,224.534 1045.34,224.53 1047.32,224.525 1049.29,224.52 1051.27,224.515 1053.24,224.511 1055.22,224.506 1057.19,224.501 
  1059.17,224.496 1061.15,224.491 1063.12,224.486 1065.1,224.481 1067.07,224.475 1069.05,224.47 1071.02,224.465 1073,224.459 1074.97,224.454 1076.95,224.449 
  1078.92,224.443 1080.9,224.437 1082.87,224.432 1084.85,224.426 1086.82,224.42 1088.8,224.415 1090.77,224.409 1092.75,224.403 1094.72,224.397 1096.7,224.391 
  1098.67,224.385 1100.65,224.379 1102.62,224.373 1104.6,224.367 1106.57,224.36 1108.55,224.354 1110.53,224.348 1112.5,224.342 1114.48,224.335 1116.45,224.329 
  1118.43,224.322 1120.4,224.316 1122.38,224.309 1124.35,224.302 1126.33,224.296 1128.3,224.289 1130.28,224.282 1132.25,224.276 1134.23,224.269 1136.2,224.262 
  1138.18,224.255 1140.15,224.248 1142.13,224.241 1144.1,224.234 1146.08,224.227 1148.05,224.22 1150.03,224.213 1152,224.206 1153.98,224.199 1155.95,224.192 
  1157.93,224.185 1159.9,224.178 1161.88,224.17 1163.86,224.163 1165.83,224.156 1167.81,224.149 1169.78,224.142 1171.76,224.135 1173.73,224.128 1175.71,224.121 
  1177.68,224.114 1179.66,224.107 1181.63,224.1 1183.61,224.093 1185.58,224.086 1187.56,224.079 1189.53,224.072 1191.51,224.066 1193.48,224.059 1195.46,224.052 
  1197.43,224.046 1199.41,224.039 1201.38,224.033 1203.36,224.027 1205.33,224.02 1207.31,224.014 1209.28,224.008 1211.26,224.002 1213.24,223.996 1215.21,223.991 
  1217.19,223.985 1219.16,223.98 1221.14,223.975 1223.11,223.969 1225.09,223.964 1227.06,223.959 1229.04,223.955 1231.01,223.95 1232.99,223.946 1234.96,223.942 
  1236.94,223.938 1238.91,223.934 1240.89,223.93 1242.86,223.926 1244.84,223.923 1246.81,223.92 1248.79,223.917 1250.76,223.914 1252.74,223.912 1254.71,223.909 
  1256.69,223.907 1258.66,223.905 1260.64,223.904 1262.61,223.902 1264.59,223.901 1266.57,223.9 1268.54,223.899 1270.52,223.898 1272.49,223.898 1274.47,223.897 
  1276.44,223.897 1278.42,223.898 1280.39,223.898 1282.37,223.899 1284.34,223.9 1286.32,223.901 1288.29,223.902 1290.27,223.904 1292.24,223.905 1294.22,223.907 
  1296.19,223.909 1298.17,223.912 1300.14,223.914 1302.12,223.917 1304.09,223.92 1306.07,223.923 1308.04,223.926 1310.02,223.93 1311.99,223.934 1313.97,223.938 
  1315.95,223.942 1317.92,223.946 1319.9,223.95 1321.87,223.955 1323.85,223.959 1325.82,223.964 1327.8,223.969 1329.77,223.975 1331.75,223.98 1333.72,223.985 
  1335.7,223.991 1337.67,223.996 1339.65,224.002 1341.62,224.008 1343.6,224.014 1345.57,224.02 1347.55,224.027 1349.52,224.033 1351.5,224.039 1353.47,224.046 
  1355.45,224.052 1357.42,224.059 1359.4,224.066 1361.37,224.072 1363.35,224.079 1365.33,224.086 1367.3,224.093 1369.28,224.1 1371.25,224.107 1373.23,224.114 
  1375.2,224.121 1377.18,224.128 1379.15,224.135 1381.13,224.142 1383.1,224.149 1385.08,224.156 1387.05,224.163 1389.03,224.17 1391,224.178 1392.98,224.185 
  1394.95,224.192 1396.93,224.199 1398.9,224.206 1400.88,224.213 1402.85,224.22 1404.83,224.227 1406.8,224.234 1408.78,224.241 1410.75,224.248 1412.73,224.255 
  1414.7,224.262 1416.68,224.269 1418.66,224.276 1420.63,224.282 1422.61,224.289 1424.58,224.296 1426.56,224.302 1428.53,224.309 1430.51,224.316 1432.48,224.322 
  1434.46,224.329 1436.43,224.335 1438.41,224.342 1440.38,224.348 1442.36,224.354 1444.33,224.36 1446.31,224.367 1448.28,224.373 1450.26,224.379 1452.23,224.385 
  1454.21,224.391 1456.18,224.397 1458.16,224.403 1460.13,224.409 1462.11,224.415 1464.08,224.42 1466.06,224.426 1468.04,224.432 1470.01,224.437 1471.99,224.443 
  1473.96,224.449 1475.94,224.454 1477.91,224.459 1479.89,224.465 1481.86,224.47 1483.84,224.475 1485.81,224.481 1487.79,224.486 1489.76,224.491 1491.74,224.496 
  1493.71,224.501 1495.69,224.506 1497.66,224.511 1499.64,224.515 1501.61,224.52 1503.59,224.525 1505.56,224.53 1507.54,224.534 1509.51,224.539 1511.49,224.543 
  1513.46,224.548 1515.44,224.552 1517.42,224.556 1519.39,224.561 1521.37,224.565 1523.34,224.569 1525.32,224.573 1527.29,224.577 1529.27,224.581 1531.24,224.585 
  1533.22,224.589 1535.19,224.593 1537.17,224.597 1539.14,224.601 1541.12,224.604 1543.09,224.608 1545.07,224.612 1547.04,224.615 1549.02,224.619 1550.99,224.622 
  1552.97,224.626 1554.94,224.629 1556.92,224.632 1558.89,224.636 1560.87,224.639 1562.84,224.642 1564.82,224.645 1566.79,224.649 1568.77,224.652 1570.75,224.655 
  1572.72,224.658 1574.7,224.661 1576.67,224.664 1578.65,224.667 1580.62,224.67 1582.6,224.672 1584.57,224.675 1586.55,224.678 1588.52,224.681 1590.5,224.684 
  1592.47,224.686 1594.45,224.689 1596.42,224.692 1598.4,224.695 1600.37,224.697 1602.35,224.7 1604.32,224.702 1606.3,224.705 1608.27,224.708 1610.25,224.71 
  1612.22,224.713 1614.2,224.715 1616.17,224.718 1618.15,224.72 1620.13,224.723 1622.1,224.725 1624.08,224.727 1626.05,224.73 1628.03,224.732 1630,224.735 
  1631.98,224.737 1633.95,224.739 1635.93,224.741 1637.9,224.744 1639.88,224.746 1641.85,224.748 1643.83,224.75 1645.8,224.752 1647.78,224.755 1649.75,224.757 
  1651.73,224.759 1653.7,224.761 1655.68,224.763 1657.65,224.765 1659.63,224.767 1661.6,224.769 1663.58,224.77 1665.55,224.772 1667.53,224.774 1669.5,224.776 
  1671.48,224.778 1673.46,224.779 1675.43,224.781 1677.41,224.783 1679.38,224.784 1681.36,224.786 1683.33,224.787 1685.31,224.789 1687.28,224.79 1689.26,224.792 
  1691.23,224.793 1693.21,224.794 1695.18,224.796 1697.16,224.797 1699.13,224.798 1701.11,224.799 1703.08,224.801 1705.06,224.802 1707.03,224.803 1709.01,224.804 
  1710.98,224.805 1712.96,224.806 1714.93,224.807 1716.91,224.809 1718.88,224.81 1720.86,224.811 1722.84,224.812 1724.81,224.813 1726.79,224.814 1728.76,224.815 
  1730.74,224.816 1732.71,224.817 1734.69,224.819 1736.66,224.82 1738.64,224.821 1740.61,224.822 1742.59,224.823 1744.56,224.825 1746.54,224.826 1748.51,224.827 
  1750.49,224.829 1752.46,224.83 1754.44,224.831 1756.41,224.833 1758.39,224.834 1760.36,224.836 1762.34,224.837 1764.31,224.839 1766.29,224.84 1768.26,224.842 
  1770.24,224.844 1772.22,224.845 1774.19,224.847 1776.17,224.849 1778.14,224.85 1780.12,224.852 1782.09,224.854 1784.07,224.855 1786.04,224.857 1788.02,224.859 
  1789.99,224.86 1791.97,224.862 1793.94,224.863 1795.92,224.865 1797.89,224.866 1799.87,224.868 1801.84,224.869 1803.82,224.87 1805.79,224.871 1807.77,224.873 
  1809.74,224.874 1811.72,224.874 1813.69,224.875 1815.67,224.876 1817.64,224.876 1819.62,224.877 1821.59,224.877 1823.57,224.877 1825.55,224.877 1827.52,224.877 
  1829.5,224.877 1831.47,224.877 1833.45,224.876 1835.42,224.876 1837.4,224.875 1839.37,224.874 1841.35,224.873 1843.32,224.872 1845.3,224.871 1847.27,224.869 
  1849.25,224.868 1851.22,224.867 1853.2,224.865 1855.17,224.864 1857.15,224.862 1859.12,224.861 1861.1,224.859 1863.07,224.858 1865.05,224.857 1867.02,224.855 
  1869,224.854 1870.97,224.853 1872.95,224.853 1874.93,224.852 1876.9,224.852 1878.88,224.851 1880.85,224.852 1882.83,224.852 1884.8,224.853 1886.78,224.854 
  1888.75,224.855 1890.73,224.857 1892.7,224.859 1894.68,224.862 1896.65,224.865 1898.63,224.869 1900.6,224.873 1902.58,224.877 1904.55,224.882 1906.53,224.887 
  1908.5,224.893 1910.48,224.899 1912.45,224.906 1914.43,224.913 1916.4,224.921 1918.38,224.929 1920.35,224.937 1922.33,224.945 1924.31,224.954 1926.28,224.963 
  1928.26,224.972 1930.23,224.981 1932.21,224.989 1934.18,224.998 1936.16,225.007 1938.13,225.015 1940.11,225.023 1942.08,225.03 1944.06,225.037 1946.03,225.043 
  1948.01,225.048 1949.98,225.052 1951.96,225.055 1953.93,225.057 1955.91,225.057 1957.88,225.057 1959.86,225.054 1961.83,225.05 1963.81,225.044 1965.78,225.036 
  1967.76,225.026 1969.73,225.014 1971.71,225 1973.68,224.984 1975.66,224.965 1977.64,224.944 1979.61,224.921 1981.59,224.895 1983.56,224.868 1985.54,224.838 
  1987.51,224.806 1989.49,224.772 1991.46,224.736 1993.44,224.698 1995.41,224.659 1997.39,224.618 1999.36,224.577 2001.34,224.535 2003.31,224.492 2005.29,224.45 
  2007.26,224.409 2009.24,224.368 2011.21,224.329 2013.19,224.292 2015.16,224.257 2017.14,224.226 2019.11,224.2 2021.09,224.177 2023.06,224.16 2025.04,224.15 
  2027.02,224.146 2028.99,224.15 2030.97,224.163 2032.94,224.185 2034.92,224.218 2036.89,224.261 2038.87,224.316 2040.84,224.384 2042.82,224.465 2044.79,224.56 
  2046.77,224.669 2048.74,224.793 2050.72,224.932 2052.69,225.087 2054.67,225.258 2056.64,225.444 2058.62,225.647 2060.59,225.864 2062.57,226.096 2064.54,226.342 
  2066.52,226.601 2068.49,226.872 2070.47,227.153 2072.44,227.442 2074.42,227.737 2076.4,228.036 2078.37,228.336 2080.35,228.633 2082.32,228.925 2084.3,229.206 
  2086.27,229.473 2088.25,229.721 2090.22,229.944 2092.2,230.136 2094.17,230.293 2096.15,230.407 2098.12,230.471 2100.1,230.479 2102.07,230.422 2104.05,230.292 
  2106.02,230.083 2108,229.785 2109.97,229.389 2111.95,228.888 2113.92,228.273 2115.9,227.535 2117.87,226.667 2119.85,225.661 2121.82,224.508 2123.8,223.204 
  2125.77,221.742 2127.75,220.117 2129.73,218.326 2131.7,216.367 2133.68,214.24 2135.65,211.947 2137.63,209.491 2139.6,206.879 2141.58,204.121 2143.55,201.229 
  2145.53,198.22 2147.5,195.114 2149.48,191.936 2151.45,188.716 2153.43,185.489 2155.4,182.294 2157.38,179.178 2159.35,176.195 2161.33,173.405 2163.3,170.874 
  2165.28,168.678 2167.25,166.899 2169.23,165.63 2171.2,164.971 2173.18,165.03 2175.15,165.926 2177.13,167.787 2179.11,170.748 2181.08,174.955 2183.06,180.562 
  2185.03,187.731 2187.01,196.63 2188.98,207.435 2190.96,220.328 2192.93,235.491 2194.91,253.111 2196.88,273.374 2198.86,296.46 2200.83,322.546 2202.81,351.796 
  2204.78,384.36 2206.76,420.367 2208.73,459.922 2210.71,503.094 2212.68,549.912 2214.66,600.357 2216.63,654.346 2218.61,711.728 2220.58,772.262 2222.56,835.612 
  2224.53,901.323 2226.51,968.804 2228.48,1037.31 2230.46,1105.91 2232.44,1173.48 2234.41,1238.66 2236.39,1299.8 2238.36,1354.98 2240.34,1401.92 2242.31,1437.96 
  2244.29,1460.01 2246.26,1464.47 2248.24,1447.24 2250.21,1403.57 2252.19,1328.04 2254.16,1214.49 2256.14,1055.88 2258.11,844.282 2260.09,570.686 2262.06,224.951 
  
  "/>
<polygon clip-path="url(#clip6901)" points="
1685.51,451.424 2249.26,451.424 2249.26,209.504 1685.51,209.504 
  " fill="#ffffff" fill-rule="evenodd" fill-opacity="1"/>
<polyline clip-path="url(#clip6901)" style="stroke:#000000; stroke-width:4; stroke-opacity:1; fill:none" points="
  1685.51,451.424 2249.26,451.424 2249.26,209.504 1685.51,209.504 1685.51,451.424 
  "/>
<polyline clip-path="url(#clip6901)" style="stroke:#009af9; stroke-width:4; stroke-opacity:1; fill:none" points="
  1709.51,269.984 1853.51,269.984 
  "/>
<g clip-path="url(#clip6901)">
<text style="fill:#000000; fill-opacity:1; font-family:Arial,Helvetica Neue,Helvetica,sans-serif; font-size:48px; text-anchor:start;" transform="rotate(0, 1877.51, 287.484)" x="1877.51" y="287.484">Runge function</text>
</g>
<circle clip-path="url(#clip6901)" style="fill:#000000; stroke:none; fill-opacity:1" cx="1793.51" cy="330.464" r="25"/>
<circle clip-path="url(#clip6901)" style="fill:#e26f46; stroke:none; fill-opacity:1" cx="1793.51" cy="330.464" r="21"/>
<g clip-path="url(#clip6901)">
<text style="fill:#000000; fill-opacity:1; font-family:Arial,Helvetica Neue,Helvetica,sans-serif; font-size:48px; text-anchor:start;" transform="rotate(0, 1877.51, 347.964)" x="1877.51" y="347.964">Nodes</text>
</g>
<polyline clip-path="url(#clip6901)" style="stroke:#3da44d; stroke-width:4; stroke-opacity:1; fill:none" points="
  1709.51,390.944 1853.51,390.944 
  "/>
<g clip-path="url(#clip6901)">
<text style="fill:#000000; fill-opacity:1; font-family:Arial,Helvetica Neue,Helvetica,sans-serif; font-size:48px; text-anchor:start;" transform="rotate(0, 1877.51, 408.444)" x="1877.51" y="408.444">Intepolation</text>
</g>
</svg>
