<?xml version="1.0" encoding="utf-8"?>
<svg xmlns="http://www.w3.org/2000/svg" xmlns:xlink="http://www.w3.org/1999/xlink" width="600" height="400" viewBox="0 0 2400 1600">
<defs>
  <clipPath id="clip7500">
    <rect x="0" y="0" width="2000" height="2000"/>
  </clipPath>
</defs>
<defs>
  <clipPath id="clip7501">
    <rect x="0" y="0" width="2400" height="1600"/>
  </clipPath>
</defs>
<polygon clip-path="url(#clip7501)" points="
0,1600 2400,1600 2400,0 0,0 
  " fill="#ffffff" fill-rule="evenodd" fill-opacity="1"/>
<defs>
  <clipPath id="clip7502">
    <rect x="480" y="0" width="1681" height="1600"/>
  </clipPath>
</defs>
<polygon clip-path="url(#clip7501)" points="
161.394,1503.47 2321.26,1503.47 2321.26,125.984 161.394,125.984 
  " fill="#ffffff" fill-rule="evenodd" fill-opacity="1"/>
<defs>
  <clipPath id="clip7503">
    <rect x="161" y="125" width="2161" height="1378"/>
  </clipPath>
</defs>
<polyline clip-path="url(#clip7503)" style="stroke:#000000; stroke-width:2; stroke-opacity:0.1; fill:none" points="
  222.522,1503.47 222.522,125.984 
  "/>
<polyline clip-path="url(#clip7503)" style="stroke:#000000; stroke-width:2; stroke-opacity:0.1; fill:none" points="
  731.925,1503.47 731.925,125.984 
  "/>
<polyline clip-path="url(#clip7503)" style="stroke:#000000; stroke-width:2; stroke-opacity:0.1; fill:none" points="
  1241.33,1503.47 1241.33,125.984 
  "/>
<polyline clip-path="url(#clip7503)" style="stroke:#000000; stroke-width:2; stroke-opacity:0.1; fill:none" points="
  1750.73,1503.47 1750.73,125.984 
  "/>
<polyline clip-path="url(#clip7503)" style="stroke:#000000; stroke-width:2; stroke-opacity:0.1; fill:none" points="
  2260.13,1503.47 2260.13,125.984 
  "/>
<polyline clip-path="url(#clip7503)" style="stroke:#000000; stroke-width:2; stroke-opacity:0.1; fill:none" points="
  161.394,1246.17 2321.26,1246.17 
  "/>
<polyline clip-path="url(#clip7503)" style="stroke:#000000; stroke-width:2; stroke-opacity:0.1; fill:none" points="
  161.394,975.87 2321.26,975.87 
  "/>
<polyline clip-path="url(#clip7503)" style="stroke:#000000; stroke-width:2; stroke-opacity:0.1; fill:none" points="
  161.394,705.57 2321.26,705.57 
  "/>
<polyline clip-path="url(#clip7503)" style="stroke:#000000; stroke-width:2; stroke-opacity:0.1; fill:none" points="
  161.394,435.27 2321.26,435.27 
  "/>
<polyline clip-path="url(#clip7503)" style="stroke:#000000; stroke-width:2; stroke-opacity:0.1; fill:none" points="
  161.394,164.97 2321.26,164.97 
  "/>
<polyline clip-path="url(#clip7501)" style="stroke:#000000; stroke-width:4; stroke-opacity:1; fill:none" points="
  161.394,1503.47 2321.26,1503.47 
  "/>
<polyline clip-path="url(#clip7501)" style="stroke:#000000; stroke-width:4; stroke-opacity:1; fill:none" points="
  161.394,1503.47 161.394,125.984 
  "/>
<polyline clip-path="url(#clip7501)" style="stroke:#000000; stroke-width:4; stroke-opacity:1; fill:none" points="
  222.522,1503.47 222.522,1482.81 
  "/>
<polyline clip-path="url(#clip7501)" style="stroke:#000000; stroke-width:4; stroke-opacity:1; fill:none" points="
  731.925,1503.47 731.925,1482.81 
  "/>
<polyline clip-path="url(#clip7501)" style="stroke:#000000; stroke-width:4; stroke-opacity:1; fill:none" points="
  1241.33,1503.47 1241.33,1482.81 
  "/>
<polyline clip-path="url(#clip7501)" style="stroke:#000000; stroke-width:4; stroke-opacity:1; fill:none" points="
  1750.73,1503.47 1750.73,1482.81 
  "/>
<polyline clip-path="url(#clip7501)" style="stroke:#000000; stroke-width:4; stroke-opacity:1; fill:none" points="
  2260.13,1503.47 2260.13,1482.81 
  "/>
<polyline clip-path="url(#clip7501)" style="stroke:#000000; stroke-width:4; stroke-opacity:1; fill:none" points="
  161.394,1246.17 193.792,1246.17 
  "/>
<polyline clip-path="url(#clip7501)" style="stroke:#000000; stroke-width:4; stroke-opacity:1; fill:none" points="
  161.394,975.87 193.792,975.87 
  "/>
<polyline clip-path="url(#clip7501)" style="stroke:#000000; stroke-width:4; stroke-opacity:1; fill:none" points="
  161.394,705.57 193.792,705.57 
  "/>
<polyline clip-path="url(#clip7501)" style="stroke:#000000; stroke-width:4; stroke-opacity:1; fill:none" points="
  161.394,435.27 193.792,435.27 
  "/>
<polyline clip-path="url(#clip7501)" style="stroke:#000000; stroke-width:4; stroke-opacity:1; fill:none" points="
  161.394,164.97 193.792,164.97 
  "/>
<g clip-path="url(#clip7501)">
<text style="fill:#000000; fill-opacity:1; font-family:Arial,Helvetica Neue,Helvetica,sans-serif; font-size:48px; text-anchor:middle;" transform="rotate(0, 222.522, 1557.47)" x="222.522" y="1557.47">-1.0</text>
</g>
<g clip-path="url(#clip7501)">
<text style="fill:#000000; fill-opacity:1; font-family:Arial,Helvetica Neue,Helvetica,sans-serif; font-size:48px; text-anchor:middle;" transform="rotate(0, 731.925, 1557.47)" x="731.925" y="1557.47">-0.5</text>
</g>
<g clip-path="url(#clip7501)">
<text style="fill:#000000; fill-opacity:1; font-family:Arial,Helvetica Neue,Helvetica,sans-serif; font-size:48px; text-anchor:middle;" transform="rotate(0, 1241.33, 1557.47)" x="1241.33" y="1557.47">0.0</text>
</g>
<g clip-path="url(#clip7501)">
<text style="fill:#000000; fill-opacity:1; font-family:Arial,Helvetica Neue,Helvetica,sans-serif; font-size:48px; text-anchor:middle;" transform="rotate(0, 1750.73, 1557.47)" x="1750.73" y="1557.47">0.5</text>
</g>
<g clip-path="url(#clip7501)">
<text style="fill:#000000; fill-opacity:1; font-family:Arial,Helvetica Neue,Helvetica,sans-serif; font-size:48px; text-anchor:middle;" transform="rotate(0, 2260.13, 1557.47)" x="2260.13" y="1557.47">1.0</text>
</g>
<g clip-path="url(#clip7501)">
<text style="fill:#000000; fill-opacity:1; font-family:Arial,Helvetica Neue,Helvetica,sans-serif; font-size:48px; text-anchor:end;" transform="rotate(0, 137.394, 1263.67)" x="137.394" y="1263.67">0.2</text>
</g>
<g clip-path="url(#clip7501)">
<text style="fill:#000000; fill-opacity:1; font-family:Arial,Helvetica Neue,Helvetica,sans-serif; font-size:48px; text-anchor:end;" transform="rotate(0, 137.394, 993.37)" x="137.394" y="993.37">0.4</text>
</g>
<g clip-path="url(#clip7501)">
<text style="fill:#000000; fill-opacity:1; font-family:Arial,Helvetica Neue,Helvetica,sans-serif; font-size:48px; text-anchor:end;" transform="rotate(0, 137.394, 723.07)" x="137.394" y="723.07">0.6</text>
</g>
<g clip-path="url(#clip7501)">
<text style="fill:#000000; fill-opacity:1; font-family:Arial,Helvetica Neue,Helvetica,sans-serif; font-size:48px; text-anchor:end;" transform="rotate(0, 137.394, 452.77)" x="137.394" y="452.77">0.8</text>
</g>
<g clip-path="url(#clip7501)">
<text style="fill:#000000; fill-opacity:1; font-family:Arial,Helvetica Neue,Helvetica,sans-serif; font-size:48px; text-anchor:end;" transform="rotate(0, 137.394, 182.47)" x="137.394" y="182.47">1.0</text>
</g>
<g clip-path="url(#clip7501)">
<text style="fill:#000000; fill-opacity:1; font-family:Arial,Helvetica Neue,Helvetica,sans-serif; font-size:84px; text-anchor:middle;" transform="rotate(0, 1241.33, 73.2)" x="1241.33" y="73.2">Runge&apos;s phenomenon (Nodes = 3)</text>
</g>
<polyline clip-path="url(#clip7503)" style="stroke:#009af9; stroke-width:4; stroke-opacity:1; fill:none" points="
  222.522,1464.49 224.562,1464.29 226.602,1464.09 228.641,1463.88 230.681,1463.68 232.721,1463.47 234.76,1463.27 236.8,1463.06 238.84,1462.85 240.879,1462.64 
  242.919,1462.43 244.958,1462.22 246.998,1462 249.038,1461.79 251.077,1461.57 253.117,1461.35 255.157,1461.14 257.196,1460.91 259.236,1460.69 261.276,1460.47 
  263.315,1460.25 265.355,1460.02 267.395,1459.79 269.434,1459.57 271.474,1459.34 273.514,1459.11 275.553,1458.87 277.593,1458.64 279.632,1458.41 281.672,1458.17 
  283.712,1457.93 285.751,1457.69 287.791,1457.45 289.831,1457.21 291.87,1456.97 293.91,1456.72 295.95,1456.47 297.989,1456.23 300.029,1455.98 302.069,1455.72 
  304.108,1455.47 306.148,1455.22 308.188,1454.96 310.227,1454.7 312.267,1454.44 314.307,1454.18 316.346,1453.92 318.386,1453.66 320.425,1453.39 322.465,1453.13 
  324.505,1452.86 326.544,1452.59 328.584,1452.31 330.624,1452.04 332.663,1451.76 334.703,1451.49 336.743,1451.21 338.782,1450.93 340.822,1450.64 342.862,1450.36 
  344.901,1450.07 346.941,1449.78 348.981,1449.49 351.02,1449.2 353.06,1448.91 355.099,1448.61 357.139,1448.32 359.179,1448.02 361.218,1447.71 363.258,1447.41 
  365.298,1447.11 367.337,1446.8 369.377,1446.49 371.417,1446.18 373.456,1445.86 375.496,1445.55 377.536,1445.23 379.575,1444.91 381.615,1444.59 383.655,1444.26 
  385.694,1443.94 387.734,1443.61 389.774,1443.28 391.813,1442.95 393.853,1442.61 395.892,1442.27 397.932,1441.94 399.972,1441.59 402.011,1441.25 404.051,1440.9 
  406.091,1440.55 408.13,1440.2 410.17,1439.85 412.21,1439.49 414.249,1439.14 416.289,1438.77 418.329,1438.41 420.368,1438.05 422.408,1437.68 424.448,1437.31 
  426.487,1436.93 428.527,1436.56 430.567,1436.18 432.606,1435.8 434.646,1435.41 436.685,1435.03 438.725,1434.64 440.765,1434.24 442.804,1433.85 444.844,1433.45 
  446.884,1433.05 448.923,1432.65 450.963,1432.24 453.003,1431.83 455.042,1431.42 457.082,1431.01 459.122,1430.59 461.161,1430.17 463.201,1429.74 465.241,1429.32 
  467.28,1428.89 469.32,1428.45 471.359,1428.02 473.399,1427.58 475.439,1427.13 477.478,1426.69 479.518,1426.24 481.558,1425.79 483.597,1425.33 485.637,1424.87 
  487.677,1424.41 489.716,1423.94 491.756,1423.47 493.796,1423 495.835,1422.52 497.875,1422.04 499.915,1421.56 501.954,1421.07 503.994,1420.58 506.034,1420.09 
  508.073,1419.59 510.113,1419.09 512.152,1418.58 514.192,1418.07 516.232,1417.56 518.271,1417.04 520.311,1416.52 522.351,1415.99 524.39,1415.46 526.43,1414.93 
  528.47,1414.39 530.509,1413.85 532.549,1413.3 534.589,1412.75 536.628,1412.2 538.668,1411.64 540.708,1411.07 542.747,1410.5 544.787,1409.93 546.826,1409.35 
  548.866,1408.77 550.906,1408.19 552.945,1407.6 554.985,1407 557.025,1406.4 559.064,1405.79 561.104,1405.18 563.144,1404.57 565.183,1403.95 567.223,1403.33 
  569.263,1402.7 571.302,1402.06 573.342,1401.42 575.382,1400.77 577.421,1400.12 579.461,1399.47 581.501,1398.81 583.54,1398.14 585.58,1397.47 587.619,1396.79 
  589.659,1396.11 591.699,1395.42 593.738,1394.72 595.778,1394.02 597.818,1393.31 599.857,1392.6 601.897,1391.88 603.937,1391.16 605.976,1390.43 608.016,1389.69 
  610.056,1388.95 612.095,1388.2 614.135,1387.44 616.175,1386.68 618.214,1385.91 620.254,1385.14 622.294,1384.35 624.333,1383.57 626.373,1382.77 628.412,1381.97 
  630.452,1381.16 632.492,1380.34 634.531,1379.52 636.571,1378.69 638.611,1377.85 640.65,1377 642.69,1376.15 644.73,1375.29 646.769,1374.42 648.809,1373.54 
  650.849,1372.66 652.888,1371.77 654.928,1370.87 656.968,1369.96 659.007,1369.04 661.047,1368.12 663.086,1367.19 665.126,1366.25 667.166,1365.3 669.205,1364.34 
  671.245,1363.37 673.285,1362.4 675.324,1361.41 677.364,1360.42 679.404,1359.41 681.443,1358.4 683.483,1357.38 685.523,1356.35 687.562,1355.31 689.602,1354.26 
  691.642,1353.2 693.681,1352.13 695.721,1351.05 697.761,1349.96 699.8,1348.86 701.84,1347.74 703.879,1346.62 705.919,1345.49 707.959,1344.35 709.998,1343.19 
  712.038,1342.03 714.078,1340.85 716.117,1339.66 718.157,1338.46 720.197,1337.25 722.236,1336.03 724.276,1334.79 726.316,1333.55 728.355,1332.29 730.395,1331.02 
  732.435,1329.73 734.474,1328.44 736.514,1327.13 738.553,1325.81 740.593,1324.47 742.633,1323.12 744.672,1321.76 746.712,1320.38 748.752,1318.99 750.791,1317.59 
  752.831,1316.17 754.871,1314.74 756.91,1313.3 758.95,1311.83 760.99,1310.36 763.029,1308.87 765.069,1307.36 767.109,1305.84 769.148,1304.3 771.188,1302.75 
  773.228,1301.18 775.267,1299.59 777.307,1297.99 779.346,1296.37 781.386,1294.74 783.426,1293.09 785.465,1291.42 787.505,1289.73 789.545,1288.02 791.584,1286.3 
  793.624,1284.56 795.664,1282.8 797.703,1281.02 799.743,1279.22 801.783,1277.41 803.822,1275.57 805.862,1273.72 807.902,1271.84 809.941,1269.94 811.981,1268.03 
  814.02,1266.09 816.06,1264.13 818.1,1262.15 820.139,1260.15 822.179,1258.13 824.219,1256.09 826.258,1254.02 828.298,1251.93 830.338,1249.82 832.377,1247.68 
  834.417,1245.52 836.457,1243.34 838.496,1241.13 840.536,1238.9 842.576,1236.64 844.615,1234.36 846.655,1232.05 848.695,1229.71 850.734,1227.35 852.774,1224.97 
  854.813,1222.55 856.853,1220.11 858.893,1217.64 860.932,1215.14 862.972,1212.62 865.012,1210.07 867.051,1207.48 869.091,1204.87 871.131,1202.23 873.17,1199.55 
  875.21,1196.85 877.25,1194.12 879.289,1191.35 881.329,1188.55 883.369,1185.72 885.408,1182.86 887.448,1179.96 889.488,1177.03 891.527,1174.07 893.567,1171.07 
  895.606,1168.04 897.646,1164.97 899.686,1161.86 901.725,1158.72 903.765,1155.54 905.805,1152.33 907.844,1149.07 909.884,1145.78 911.924,1142.45 913.963,1139.08 
  916.003,1135.67 918.043,1132.22 920.082,1128.73 922.122,1125.2 924.162,1121.63 926.201,1118.01 928.241,1114.35 930.28,1110.65 932.32,1106.9 934.36,1103.11 
  936.399,1099.28 938.439,1095.39 940.479,1091.47 942.518,1087.49 944.558,1083.47 946.598,1079.4 948.637,1075.29 950.677,1071.12 952.717,1066.9 954.756,1062.64 
  956.796,1058.32 958.836,1053.95 960.875,1049.54 962.915,1045.06 964.955,1040.54 966.994,1035.96 969.034,1031.33 971.073,1026.64 973.113,1021.9 975.153,1017.1 
  977.192,1012.25 979.232,1007.34 981.272,1002.37 983.311,997.347 985.351,992.263 987.391,987.12 989.43,981.917 991.47,976.654 993.51,971.33 995.549,965.946 
  997.589,960.5 999.629,954.991 1001.67,949.421 1003.71,943.787 1005.75,938.089 1007.79,932.328 1009.83,926.503 1011.87,920.612 1013.91,914.657 1015.95,908.636 
  1017.99,902.55 1020.03,896.397 1022.06,890.178 1024.1,883.892 1026.14,877.54 1028.18,871.12 1030.22,864.633 1032.26,858.078 1034.3,851.456 1036.34,844.766 
  1038.38,838.009 1040.42,831.184 1042.46,824.291 1044.5,817.33 1046.54,810.302 1048.58,803.207 1050.62,796.045 1052.66,788.816 1054.7,781.52 1056.74,774.159 
  1058.78,766.732 1060.82,759.24 1062.86,751.683 1064.9,744.062 1066.94,736.378 1068.98,728.632 1071.02,720.825 1073.06,712.957 1075.1,705.029 1077.14,697.043 
  1079.17,688.999 1081.21,680.9 1083.25,672.746 1085.29,664.539 1087.33,656.281 1089.37,647.973 1091.41,639.617 1093.45,631.214 1095.49,622.768 1097.53,614.279 
  1099.57,605.751 1101.61,597.185 1103.65,588.584 1105.69,579.951 1107.73,571.289 1109.77,562.599 1111.81,553.885 1113.85,545.151 1115.89,536.399 1117.93,527.634 
  1119.97,518.857 1122.01,510.074 1124.05,501.287 1126.09,492.501 1128.13,483.72 1130.17,474.948 1132.21,466.189 1134.25,457.448 1136.29,448.729 1138.32,440.037 
  1140.36,431.377 1142.4,422.754 1144.44,414.174 1146.48,405.64 1148.52,397.159 1150.56,388.737 1152.6,380.378 1154.64,372.088 1156.68,363.873 1158.72,355.74 
  1160.76,347.693 1162.8,339.74 1164.84,331.886 1166.88,324.137 1168.92,316.499 1170.96,308.979 1173,301.584 1175.04,294.318 1177.08,287.189 1179.12,280.204 
  1181.16,273.368 1183.2,266.687 1185.24,260.168 1187.28,253.817 1189.32,247.641 1191.36,241.644 1193.4,235.835 1195.43,230.217 1197.47,224.797 1199.51,219.581 
  1201.55,214.574 1203.59,209.781 1205.63,205.208 1207.67,200.859 1209.71,196.74 1211.75,192.855 1213.79,189.208 1215.83,185.803 1217.87,182.645 1219.91,179.737 
  1221.95,177.082 1223.99,174.684 1226.03,172.545 1228.07,170.667 1230.11,169.054 1232.15,167.707 1234.19,166.627 1236.23,165.816 1238.27,165.274 1240.31,165.004 
  1242.35,165.004 1244.39,165.274 1246.43,165.816 1248.47,166.627 1250.51,167.707 1252.55,169.054 1254.58,170.667 1256.62,172.545 1258.66,174.684 1260.7,177.082 
  1262.74,179.737 1264.78,182.645 1266.82,185.803 1268.86,189.208 1270.9,192.855 1272.94,196.74 1274.98,200.859 1277.02,205.208 1279.06,209.781 1281.1,214.574 
  1283.14,219.581 1285.18,224.797 1287.22,230.217 1289.26,235.835 1291.3,241.644 1293.34,247.641 1295.38,253.817 1297.42,260.168 1299.46,266.687 1301.5,273.368 
  1303.54,280.204 1305.58,287.189 1307.62,294.318 1309.66,301.584 1311.69,308.979 1313.73,316.499 1315.77,324.137 1317.81,331.886 1319.85,339.74 1321.89,347.693 
  1323.93,355.74 1325.97,363.873 1328.01,372.088 1330.05,380.378 1332.09,388.737 1334.13,397.159 1336.17,405.64 1338.21,414.174 1340.25,422.754 1342.29,431.377 
  1344.33,440.037 1346.37,448.729 1348.41,457.448 1350.45,466.189 1352.49,474.948 1354.53,483.72 1356.57,492.501 1358.61,501.287 1360.65,510.074 1362.69,518.857 
  1364.73,527.634 1366.77,536.399 1368.8,545.151 1370.84,553.885 1372.88,562.599 1374.92,571.289 1376.96,579.951 1379,588.584 1381.04,597.185 1383.08,605.751 
  1385.12,614.279 1387.16,622.768 1389.2,631.214 1391.24,639.617 1393.28,647.973 1395.32,656.281 1397.36,664.539 1399.4,672.746 1401.44,680.9 1403.48,688.999 
  1405.52,697.043 1407.56,705.029 1409.6,712.957 1411.64,720.825 1413.68,728.632 1415.72,736.378 1417.76,744.062 1419.8,751.683 1421.84,759.24 1423.88,766.732 
  1425.92,774.159 1427.95,781.52 1429.99,788.816 1432.03,796.045 1434.07,803.207 1436.11,810.302 1438.15,817.33 1440.19,824.291 1442.23,831.184 1444.27,838.009 
  1446.31,844.766 1448.35,851.456 1450.39,858.078 1452.43,864.633 1454.47,871.12 1456.51,877.54 1458.55,883.892 1460.59,890.178 1462.63,896.397 1464.67,902.55 
  1466.71,908.636 1468.75,914.657 1470.79,920.612 1472.83,926.503 1474.87,932.328 1476.91,938.089 1478.95,943.787 1480.99,949.421 1483.03,954.991 1485.06,960.5 
  1487.1,965.946 1489.14,971.33 1491.18,976.654 1493.22,981.917 1495.26,987.12 1497.3,992.263 1499.34,997.347 1501.38,1002.37 1503.42,1007.34 1505.46,1012.25 
  1507.5,1017.1 1509.54,1021.9 1511.58,1026.64 1513.62,1031.33 1515.66,1035.96 1517.7,1040.54 1519.74,1045.06 1521.78,1049.54 1523.82,1053.95 1525.86,1058.32 
  1527.9,1062.64 1529.94,1066.9 1531.98,1071.12 1534.02,1075.29 1536.06,1079.4 1538.1,1083.47 1540.14,1087.49 1542.18,1091.47 1544.21,1095.39 1546.25,1099.28 
  1548.29,1103.11 1550.33,1106.9 1552.37,1110.65 1554.41,1114.35 1556.45,1118.01 1558.49,1121.63 1560.53,1125.2 1562.57,1128.73 1564.61,1132.22 1566.65,1135.67 
  1568.69,1139.08 1570.73,1142.45 1572.77,1145.78 1574.81,1149.07 1576.85,1152.33 1578.89,1155.54 1580.93,1158.72 1582.97,1161.86 1585.01,1164.97 1587.05,1168.04 
  1589.09,1171.07 1591.13,1174.07 1593.17,1177.03 1595.21,1179.96 1597.25,1182.86 1599.29,1185.72 1601.32,1188.55 1603.36,1191.35 1605.4,1194.12 1607.44,1196.85 
  1609.48,1199.55 1611.52,1202.23 1613.56,1204.87 1615.6,1207.48 1617.64,1210.07 1619.68,1212.62 1621.72,1215.14 1623.76,1217.64 1625.8,1220.11 1627.84,1222.55 
  1629.88,1224.97 1631.92,1227.35 1633.96,1229.71 1636,1232.05 1638.04,1234.36 1640.08,1236.64 1642.12,1238.9 1644.16,1241.13 1646.2,1243.34 1648.24,1245.52 
  1650.28,1247.68 1652.32,1249.82 1654.36,1251.93 1656.4,1254.02 1658.44,1256.09 1660.47,1258.13 1662.51,1260.15 1664.55,1262.15 1666.59,1264.13 1668.63,1266.09 
  1670.67,1268.03 1672.71,1269.94 1674.75,1271.84 1676.79,1273.72 1678.83,1275.57 1680.87,1277.41 1682.91,1279.22 1684.95,1281.02 1686.99,1282.8 1689.03,1284.56 
  1691.07,1286.3 1693.11,1288.02 1695.15,1289.73 1697.19,1291.42 1699.23,1293.09 1701.27,1294.74 1703.31,1296.37 1705.35,1297.99 1707.39,1299.59 1709.43,1301.18 
  1711.47,1302.75 1713.51,1304.3 1715.55,1305.84 1717.58,1307.36 1719.62,1308.87 1721.66,1310.36 1723.7,1311.83 1725.74,1313.3 1727.78,1314.74 1729.82,1316.17 
  1731.86,1317.59 1733.9,1318.99 1735.94,1320.38 1737.98,1321.76 1740.02,1323.12 1742.06,1324.47 1744.1,1325.81 1746.14,1327.13 1748.18,1328.44 1750.22,1329.73 
  1752.26,1331.02 1754.3,1332.29 1756.34,1333.55 1758.38,1334.79 1760.42,1336.03 1762.46,1337.25 1764.5,1338.46 1766.54,1339.66 1768.58,1340.85 1770.62,1342.03 
  1772.66,1343.19 1774.7,1344.35 1776.73,1345.49 1778.77,1346.62 1780.81,1347.74 1782.85,1348.86 1784.89,1349.96 1786.93,1351.05 1788.97,1352.13 1791.01,1353.2 
  1793.05,1354.26 1795.09,1355.31 1797.13,1356.35 1799.17,1357.38 1801.21,1358.4 1803.25,1359.41 1805.29,1360.42 1807.33,1361.41 1809.37,1362.4 1811.41,1363.37 
  1813.45,1364.34 1815.49,1365.3 1817.53,1366.25 1819.57,1367.19 1821.61,1368.12 1823.65,1369.04 1825.69,1369.96 1827.73,1370.87 1829.77,1371.77 1831.81,1372.66 
  1833.84,1373.54 1835.88,1374.42 1837.92,1375.29 1839.96,1376.15 1842,1377 1844.04,1377.85 1846.08,1378.69 1848.12,1379.52 1850.16,1380.34 1852.2,1381.16 
  1854.24,1381.97 1856.28,1382.77 1858.32,1383.57 1860.36,1384.35 1862.4,1385.14 1864.44,1385.91 1866.48,1386.68 1868.52,1387.44 1870.56,1388.2 1872.6,1388.95 
  1874.64,1389.69 1876.68,1390.43 1878.72,1391.16 1880.76,1391.88 1882.8,1392.6 1884.84,1393.31 1886.88,1394.02 1888.92,1394.72 1890.96,1395.42 1892.99,1396.11 
  1895.03,1396.79 1897.07,1397.47 1899.11,1398.14 1901.15,1398.81 1903.19,1399.47 1905.23,1400.12 1907.27,1400.77 1909.31,1401.42 1911.35,1402.06 1913.39,1402.7 
  1915.43,1403.33 1917.47,1403.95 1919.51,1404.57 1921.55,1405.18 1923.59,1405.79 1925.63,1406.4 1927.67,1407 1929.71,1407.6 1931.75,1408.19 1933.79,1408.77 
  1935.83,1409.35 1937.87,1409.93 1939.91,1410.5 1941.95,1411.07 1943.99,1411.64 1946.03,1412.2 1948.07,1412.75 1950.1,1413.3 1952.14,1413.85 1954.18,1414.39 
  1956.22,1414.93 1958.26,1415.46 1960.3,1415.99 1962.34,1416.52 1964.38,1417.04 1966.42,1417.56 1968.46,1418.07 1970.5,1418.58 1972.54,1419.09 1974.58,1419.59 
  1976.62,1420.09 1978.66,1420.58 1980.7,1421.07 1982.74,1421.56 1984.78,1422.04 1986.82,1422.52 1988.86,1423 1990.9,1423.47 1992.94,1423.94 1994.98,1424.41 
  1997.02,1424.87 1999.06,1425.33 2001.1,1425.79 2003.14,1426.24 2005.18,1426.69 2007.22,1427.13 2009.25,1427.58 2011.29,1428.02 2013.33,1428.45 2015.37,1428.89 
  2017.41,1429.32 2019.45,1429.74 2021.49,1430.17 2023.53,1430.59 2025.57,1431.01 2027.61,1431.42 2029.65,1431.83 2031.69,1432.24 2033.73,1432.65 2035.77,1433.05 
  2037.81,1433.45 2039.85,1433.85 2041.89,1434.24 2043.93,1434.64 2045.97,1435.03 2048.01,1435.41 2050.05,1435.8 2052.09,1436.18 2054.13,1436.56 2056.17,1436.93 
  2058.21,1437.31 2060.25,1437.68 2062.29,1438.05 2064.33,1438.41 2066.36,1438.77 2068.4,1439.14 2070.44,1439.49 2072.48,1439.85 2074.52,1440.2 2076.56,1440.55 
  2078.6,1440.9 2080.64,1441.25 2082.68,1441.59 2084.72,1441.94 2086.76,1442.27 2088.8,1442.61 2090.84,1442.95 2092.88,1443.28 2094.92,1443.61 2096.96,1443.94 
  2099,1444.26 2101.04,1444.59 2103.08,1444.91 2105.12,1445.23 2107.16,1445.55 2109.2,1445.86 2111.24,1446.18 2113.28,1446.49 2115.32,1446.8 2117.36,1447.11 
  2119.4,1447.41 2121.44,1447.71 2123.48,1448.02 2125.51,1448.32 2127.55,1448.61 2129.59,1448.91 2131.63,1449.2 2133.67,1449.49 2135.71,1449.78 2137.75,1450.07 
  2139.79,1450.36 2141.83,1450.64 2143.87,1450.93 2145.91,1451.21 2147.95,1451.49 2149.99,1451.76 2152.03,1452.04 2154.07,1452.31 2156.11,1452.59 2158.15,1452.86 
  2160.19,1453.13 2162.23,1453.39 2164.27,1453.66 2166.31,1453.92 2168.35,1454.18 2170.39,1454.44 2172.43,1454.7 2174.47,1454.96 2176.51,1455.22 2178.55,1455.47 
  2180.59,1455.72 2182.62,1455.98 2184.66,1456.23 2186.7,1456.47 2188.74,1456.72 2190.78,1456.97 2192.82,1457.21 2194.86,1457.45 2196.9,1457.69 2198.94,1457.93 
  2200.98,1458.17 2203.02,1458.41 2205.06,1458.64 2207.1,1458.87 2209.14,1459.11 2211.18,1459.34 2213.22,1459.57 2215.26,1459.79 2217.3,1460.02 2219.34,1460.25 
  2221.38,1460.47 2223.42,1460.69 2225.46,1460.91 2227.5,1461.14 2229.54,1461.35 2231.58,1461.57 2233.62,1461.79 2235.66,1462 2237.7,1462.22 2239.74,1462.43 
  2241.77,1462.64 2243.81,1462.85 2245.85,1463.06 2247.89,1463.27 2249.93,1463.47 2251.97,1463.68 2254.01,1463.88 2256.05,1464.09 2258.09,1464.29 2260.13,1464.49 
  
  "/>
<circle clip-path="url(#clip7503)" style="fill:#000000; stroke:none; fill-opacity:1" cx="222.522" cy="1464.49" r="18"/>
<circle clip-path="url(#clip7503)" style="fill:#e26f46; stroke:none; fill-opacity:1" cx="222.522" cy="1464.49" r="14"/>
<circle clip-path="url(#clip7503)" style="fill:#000000; stroke:none; fill-opacity:1" cx="1241.33" cy="164.97" r="18"/>
<circle clip-path="url(#clip7503)" style="fill:#e26f46; stroke:none; fill-opacity:1" cx="1241.33" cy="164.97" r="14"/>
<circle clip-path="url(#clip7503)" style="fill:#000000; stroke:none; fill-opacity:1" cx="2260.13" cy="1464.49" r="18"/>
<circle clip-path="url(#clip7503)" style="fill:#e26f46; stroke:none; fill-opacity:1" cx="2260.13" cy="1464.49" r="14"/>
<polyline clip-path="url(#clip7503)" style="stroke:#3da44d; stroke-width:4; stroke-opacity:1; fill:none" points="
  222.522,1464.49 224.562,1459.29 226.602,1454.1 228.641,1448.93 230.681,1443.76 232.721,1438.6 234.76,1433.46 236.8,1428.32 238.84,1423.2 240.879,1418.08 
  242.919,1412.98 244.958,1407.88 246.998,1402.8 249.038,1397.73 251.077,1392.66 253.117,1387.61 255.157,1382.57 257.196,1377.54 259.236,1372.52 261.276,1367.51 
  263.315,1362.51 265.355,1357.52 267.395,1352.54 269.434,1347.57 271.474,1342.61 273.514,1337.66 275.553,1332.72 277.593,1327.8 279.632,1322.88 281.672,1317.97 
  283.712,1313.08 285.751,1308.19 287.791,1303.32 289.831,1298.45 291.87,1293.6 293.91,1288.75 295.95,1283.92 297.989,1279.1 300.029,1274.29 302.069,1269.48 
  304.108,1264.69 306.148,1259.91 308.188,1255.14 310.227,1250.38 312.267,1245.63 314.307,1240.89 316.346,1236.16 318.386,1231.44 320.425,1226.73 322.465,1222.03 
  324.505,1217.35 326.544,1212.67 328.584,1208 330.624,1203.35 332.663,1198.7 334.703,1194.06 336.743,1189.44 338.782,1184.82 340.822,1180.22 342.862,1175.63 
  344.901,1171.04 346.941,1166.47 348.981,1161.91 351.02,1157.35 353.06,1152.81 355.099,1148.28 357.139,1143.76 359.179,1139.25 361.218,1134.75 363.258,1130.26 
  365.298,1125.78 367.337,1121.31 369.377,1116.85 371.417,1112.41 373.456,1107.97 375.496,1103.54 377.536,1099.12 379.575,1094.72 381.615,1090.32 383.655,1085.94 
  385.694,1081.56 387.734,1077.2 389.774,1072.84 391.813,1068.5 393.853,1064.16 395.892,1059.84 397.932,1055.53 399.972,1051.23 402.011,1046.93 404.051,1042.65 
  406.091,1038.38 408.13,1034.12 410.17,1029.87 412.21,1025.63 414.249,1021.4 416.289,1017.18 418.329,1012.98 420.368,1008.78 422.408,1004.59 424.448,1000.41 
  426.487,996.246 428.527,992.09 430.567,987.944 432.606,983.808 434.646,979.683 436.685,975.568 438.725,971.464 440.765,967.37 442.804,963.287 444.844,959.214 
  446.884,955.151 448.923,951.099 450.963,947.057 453.003,943.026 455.042,939.005 457.082,934.994 459.122,930.994 461.161,927.004 463.201,923.025 465.241,919.056 
  467.28,915.098 469.32,911.15 471.359,907.212 473.399,903.285 475.439,899.368 477.478,895.462 479.518,891.566 481.558,887.68 483.597,883.805 485.637,879.94 
  487.677,876.086 489.716,872.242 491.756,868.409 493.796,864.586 495.835,860.773 497.875,856.971 499.915,853.179 501.954,849.398 503.994,845.627 506.034,841.866 
  508.073,838.116 510.113,834.377 512.152,830.647 514.192,826.928 516.232,823.22 518.271,819.522 520.311,815.834 522.351,812.157 524.39,808.49 526.43,804.834 
  528.47,801.188 530.509,797.553 532.549,793.927 534.589,790.313 536.628,786.708 538.668,783.115 540.708,779.531 542.747,775.958 544.787,772.396 546.826,768.843 
  548.866,765.302 550.906,761.77 552.945,758.249 554.985,754.739 557.025,751.239 559.064,747.749 561.104,744.27 563.144,740.801 565.183,737.342 567.223,733.894 
  569.263,730.457 571.302,727.03 573.342,723.613 575.382,720.206 577.421,716.811 579.461,713.425 581.501,710.05 583.54,706.685 585.58,703.331 587.619,699.987 
  589.659,696.654 591.699,693.331 593.738,690.018 595.778,686.716 597.818,683.424 599.857,680.143 601.897,676.872 603.937,673.611 605.976,670.361 608.016,667.122 
  610.056,663.892 612.095,660.673 614.135,657.465 616.175,654.267 618.214,651.079 620.254,647.902 622.294,644.735 624.333,641.579 626.373,638.433 628.412,635.298 
  630.452,632.173 632.492,629.058 634.531,625.954 636.571,622.86 638.611,619.776 640.65,616.703 642.69,613.641 644.73,610.589 646.769,607.547 648.809,604.516 
  650.849,601.495 652.888,598.484 654.928,595.484 656.968,592.494 659.007,589.515 661.047,586.546 663.086,583.588 665.126,580.64 667.166,577.702 669.205,574.775 
  671.245,571.858 673.285,568.952 675.324,566.056 677.364,563.171 679.404,560.295 681.443,557.431 683.483,554.577 685.523,551.733 687.562,548.899 689.602,546.076 
  691.642,543.264 693.681,540.462 695.721,537.67 697.761,534.888 699.8,532.118 701.84,529.357 703.879,526.607 705.919,523.867 707.959,521.138 709.998,518.419 
  712.038,515.711 714.078,513.013 716.117,510.325 718.157,507.648 720.197,504.981 722.236,502.325 724.276,499.679 726.316,497.044 728.355,494.418 730.395,491.804 
  732.435,489.2 734.474,486.606 736.514,484.022 738.553,481.449 740.593,478.887 742.633,476.335 744.672,473.793 746.712,471.262 748.752,468.741 750.791,466.23 
  752.831,463.73 754.871,461.24 756.91,458.761 758.95,456.292 760.99,453.834 763.029,451.386 765.069,448.948 767.109,446.521 769.148,444.104 771.188,441.698 
  773.228,439.302 775.267,436.917 777.307,434.542 779.346,432.177 781.386,429.823 783.426,427.479 785.465,425.146 787.505,422.823 789.545,420.51 791.584,418.208 
  793.624,415.916 795.664,413.635 797.703,411.364 799.743,409.103 801.783,406.853 803.822,404.614 805.862,402.384 807.902,400.166 809.941,397.957 811.981,395.759 
  814.02,393.572 816.06,391.395 818.1,389.228 820.139,387.072 822.179,384.926 824.219,382.79 826.258,380.665 828.298,378.55 830.338,376.446 832.377,374.352 
  834.417,372.269 836.457,370.196 838.496,368.133 840.536,366.081 842.576,364.04 844.615,362.008 846.655,359.987 848.695,357.977 850.734,355.977 852.774,353.987 
  854.813,352.008 856.853,350.039 858.893,348.081 860.932,346.133 862.972,344.195 865.012,342.268 867.051,340.351 869.091,338.445 871.131,336.549 873.17,334.664 
  875.21,332.789 877.25,330.924 879.289,329.07 881.329,327.226 883.369,325.393 885.408,323.57 887.448,321.757 889.488,319.955 891.527,318.163 893.567,316.382 
  895.606,314.611 897.646,312.851 899.686,311.101 901.725,309.361 903.765,307.632 905.805,305.913 907.844,304.204 909.884,302.506 911.924,300.819 913.963,299.142 
  916.003,297.475 918.043,295.819 920.082,294.173 922.122,292.537 924.162,290.912 926.201,289.298 928.241,287.694 930.28,286.1 932.32,284.516 934.36,282.943 
  936.399,281.381 938.439,279.829 940.479,278.287 942.518,276.756 944.558,275.235 946.598,273.724 948.637,272.224 950.677,270.735 952.717,269.256 954.756,267.787 
  956.796,266.328 958.836,264.88 960.875,263.443 962.915,262.016 964.955,260.599 966.994,259.193 969.034,257.797 971.073,256.411 973.113,255.036 975.153,253.672 
  977.192,252.317 979.232,250.974 981.272,249.64 983.311,248.317 985.351,247.005 987.391,245.703 989.43,244.411 991.47,243.13 993.51,241.859 995.549,240.598 
  997.589,239.348 999.629,238.109 1001.67,236.88 1003.71,235.661 1005.75,234.452 1007.79,233.254 1009.83,232.067 1011.87,230.89 1013.91,229.723 1015.95,228.567 
  1017.99,227.421 1020.03,226.285 1022.06,225.16 1024.1,224.046 1026.14,222.942 1028.18,221.848 1030.22,220.764 1032.26,219.692 1034.3,218.629 1036.34,217.577 
  1038.38,216.535 1040.42,215.504 1042.46,214.483 1044.5,213.473 1046.54,212.473 1048.58,211.483 1050.62,210.504 1052.66,209.535 1054.7,208.577 1056.74,207.629 
  1058.78,206.691 1060.82,205.764 1062.86,204.847 1064.9,203.941 1066.94,203.045 1068.98,202.16 1071.02,201.285 1073.06,200.42 1075.1,199.566 1077.14,198.722 
  1079.17,197.889 1081.21,197.066 1083.25,196.253 1085.29,195.451 1087.33,194.66 1089.37,193.878 1091.41,193.107 1093.45,192.347 1095.49,191.597 1097.53,190.857 
  1099.57,190.128 1101.61,189.409 1103.65,188.701 1105.69,188.003 1107.73,187.316 1109.77,186.638 1111.81,185.972 1113.85,185.315 1115.89,184.67 1117.93,184.034 
  1119.97,183.409 1122.01,182.795 1124.05,182.19 1126.09,181.597 1128.13,181.013 1130.17,180.44 1132.21,179.878 1134.25,179.326 1136.29,178.784 1138.32,178.253 
  1140.36,177.732 1142.4,177.221 1144.44,176.721 1146.48,176.232 1148.52,175.753 1150.56,175.284 1152.6,174.826 1154.64,174.378 1156.68,173.94 1158.72,173.513 
  1160.76,173.096 1162.8,172.69 1164.84,172.294 1166.88,171.909 1168.92,171.534 1170.96,171.169 1173,170.815 1175.04,170.471 1177.08,170.138 1179.12,169.815 
  1181.16,169.503 1183.2,169.2 1185.24,168.909 1187.28,168.627 1189.32,168.357 1191.36,168.096 1193.4,167.846 1195.43,167.607 1197.47,167.377 1199.51,167.159 
  1201.55,166.95 1203.59,166.752 1205.63,166.565 1207.67,166.388 1209.71,166.221 1211.75,166.065 1213.79,165.919 1215.83,165.784 1217.87,165.659 1219.91,165.544 
  1221.95,165.44 1223.99,165.346 1226.03,165.263 1228.07,165.19 1230.11,165.127 1232.15,165.075 1234.19,165.034 1236.23,165.002 1238.27,164.982 1240.31,164.971 
  1242.35,164.971 1244.39,164.982 1246.43,165.002 1248.47,165.034 1250.51,165.075 1252.55,165.127 1254.58,165.19 1256.62,165.263 1258.66,165.346 1260.7,165.44 
  1262.74,165.544 1264.78,165.659 1266.82,165.784 1268.86,165.919 1270.9,166.065 1272.94,166.221 1274.98,166.388 1277.02,166.565 1279.06,166.752 1281.1,166.95 
  1283.14,167.159 1285.18,167.377 1287.22,167.607 1289.26,167.846 1291.3,168.096 1293.34,168.357 1295.38,168.627 1297.42,168.909 1299.46,169.2 1301.5,169.503 
  1303.54,169.815 1305.58,170.138 1307.62,170.471 1309.66,170.815 1311.69,171.169 1313.73,171.534 1315.77,171.909 1317.81,172.294 1319.85,172.69 1321.89,173.096 
  1323.93,173.513 1325.97,173.94 1328.01,174.378 1330.05,174.826 1332.09,175.284 1334.13,175.753 1336.17,176.232 1338.21,176.721 1340.25,177.221 1342.29,177.732 
  1344.33,178.253 1346.37,178.784 1348.41,179.326 1350.45,179.878 1352.49,180.44 1354.53,181.013 1356.57,181.597 1358.61,182.19 1360.65,182.795 1362.69,183.409 
  1364.73,184.034 1366.77,184.67 1368.8,185.315 1370.84,185.972 1372.88,186.638 1374.92,187.316 1376.96,188.003 1379,188.701 1381.04,189.409 1383.08,190.128 
  1385.12,190.857 1387.16,191.597 1389.2,192.347 1391.24,193.107 1393.28,193.878 1395.32,194.66 1397.36,195.451 1399.4,196.253 1401.44,197.066 1403.48,197.889 
  1405.52,198.722 1407.56,199.566 1409.6,200.42 1411.64,201.285 1413.68,202.16 1415.72,203.045 1417.76,203.941 1419.8,204.847 1421.84,205.764 1423.88,206.691 
  1425.92,207.629 1427.95,208.577 1429.99,209.535 1432.03,210.504 1434.07,211.483 1436.11,212.473 1438.15,213.473 1440.19,214.483 1442.23,215.504 1444.27,216.535 
  1446.31,217.577 1448.35,218.629 1450.39,219.692 1452.43,220.764 1454.47,221.848 1456.51,222.942 1458.55,224.046 1460.59,225.16 1462.63,226.285 1464.67,227.421 
  1466.71,228.567 1468.75,229.723 1470.79,230.89 1472.83,232.067 1474.87,233.254 1476.91,234.452 1478.95,235.661 1480.99,236.88 1483.03,238.109 1485.06,239.348 
  1487.1,240.598 1489.14,241.859 1491.18,243.13 1493.22,244.411 1495.26,245.703 1497.3,247.005 1499.34,248.317 1501.38,249.64 1503.42,250.974 1505.46,252.317 
  1507.5,253.672 1509.54,255.036 1511.58,256.411 1513.62,257.797 1515.66,259.193 1517.7,260.599 1519.74,262.016 1521.78,263.443 1523.82,264.88 1525.86,266.328 
  1527.9,267.787 1529.94,269.256 1531.98,270.735 1534.02,272.224 1536.06,273.724 1538.1,275.235 1540.14,276.756 1542.18,278.287 1544.21,279.829 1546.25,281.381 
  1548.29,282.943 1550.33,284.516 1552.37,286.1 1554.41,287.694 1556.45,289.298 1558.49,290.912 1560.53,292.537 1562.57,294.173 1564.61,295.819 1566.65,297.475 
  1568.69,299.142 1570.73,300.819 1572.77,302.506 1574.81,304.204 1576.85,305.913 1578.89,307.632 1580.93,309.361 1582.97,311.101 1585.01,312.851 1587.05,314.611 
  1589.09,316.382 1591.13,318.163 1593.17,319.955 1595.21,321.757 1597.25,323.57 1599.29,325.393 1601.32,327.226 1603.36,329.07 1605.4,330.924 1607.44,332.789 
  1609.48,334.664 1611.52,336.549 1613.56,338.445 1615.6,340.351 1617.64,342.268 1619.68,344.195 1621.72,346.133 1623.76,348.081 1625.8,350.039 1627.84,352.008 
  1629.88,353.987 1631.92,355.977 1633.96,357.977 1636,359.987 1638.04,362.008 1640.08,364.04 1642.12,366.081 1644.16,368.133 1646.2,370.196 1648.24,372.269 
  1650.28,374.352 1652.32,376.446 1654.36,378.55 1656.4,380.665 1658.44,382.79 1660.47,384.926 1662.51,387.072 1664.55,389.228 1666.59,391.395 1668.63,393.572 
  1670.67,395.759 1672.71,397.957 1674.75,400.166 1676.79,402.384 1678.83,404.614 1680.87,406.853 1682.91,409.103 1684.95,411.364 1686.99,413.635 1689.03,415.916 
  1691.07,418.208 1693.11,420.51 1695.15,422.823 1697.19,425.146 1699.23,427.479 1701.27,429.823 1703.31,432.177 1705.35,434.542 1707.39,436.917 1709.43,439.302 
  1711.47,441.698 1713.51,444.104 1715.55,446.521 1717.58,448.948 1719.62,451.386 1721.66,453.834 1723.7,456.292 1725.74,458.761 1727.78,461.24 1729.82,463.73 
  1731.86,466.23 1733.9,468.741 1735.94,471.262 1737.98,473.793 1740.02,476.335 1742.06,478.887 1744.1,481.449 1746.14,484.022 1748.18,486.606 1750.22,489.2 
  1752.26,491.804 1754.3,494.418 1756.34,497.044 1758.38,499.679 1760.42,502.325 1762.46,504.981 1764.5,507.648 1766.54,510.325 1768.58,513.013 1770.62,515.711 
  1772.66,518.419 1774.7,521.138 1776.73,523.867 1778.77,526.607 1780.81,529.357 1782.85,532.118 1784.89,534.888 1786.93,537.67 1788.97,540.462 1791.01,543.264 
  1793.05,546.076 1795.09,548.899 1797.13,551.733 1799.17,554.577 1801.21,557.431 1803.25,560.295 1805.29,563.171 1807.33,566.056 1809.37,568.952 1811.41,571.858 
  1813.45,574.775 1815.49,577.702 1817.53,580.64 1819.57,583.588 1821.61,586.546 1823.65,589.515 1825.69,592.494 1827.73,595.484 1829.77,598.484 1831.81,601.495 
  1833.84,604.516 1835.88,607.547 1837.92,610.589 1839.96,613.641 1842,616.703 1844.04,619.776 1846.08,622.86 1848.12,625.954 1850.16,629.058 1852.2,632.173 
  1854.24,635.298 1856.28,638.433 1858.32,641.579 1860.36,644.735 1862.4,647.902 1864.44,651.079 1866.48,654.267 1868.52,657.465 1870.56,660.673 1872.6,663.892 
  1874.64,667.122 1876.68,670.361 1878.72,673.611 1880.76,676.872 1882.8,680.143 1884.84,683.424 1886.88,686.716 1888.92,690.018 1890.96,693.331 1892.99,696.654 
  1895.03,699.987 1897.07,703.331 1899.11,706.685 1901.15,710.05 1903.19,713.425 1905.23,716.811 1907.27,720.206 1909.31,723.613 1911.35,727.03 1913.39,730.457 
  1915.43,733.894 1917.47,737.342 1919.51,740.801 1921.55,744.27 1923.59,747.749 1925.63,751.239 1927.67,754.739 1929.71,758.249 1931.75,761.77 1933.79,765.302 
  1935.83,768.843 1937.87,772.396 1939.91,775.958 1941.95,779.531 1943.99,783.115 1946.03,786.708 1948.07,790.313 1950.1,793.927 1952.14,797.553 1954.18,801.188 
  1956.22,804.834 1958.26,808.49 1960.3,812.157 1962.34,815.834 1964.38,819.522 1966.42,823.22 1968.46,826.928 1970.5,830.647 1972.54,834.377 1974.58,838.116 
  1976.62,841.866 1978.66,845.627 1980.7,849.398 1982.74,853.179 1984.78,856.971 1986.82,860.773 1988.86,864.586 1990.9,868.409 1992.94,872.242 1994.98,876.086 
  1997.02,879.94 1999.06,883.805 2001.1,887.68 2003.14,891.566 2005.18,895.462 2007.22,899.368 2009.25,903.285 2011.29,907.212 2013.33,911.15 2015.37,915.098 
  2017.41,919.056 2019.45,923.025 2021.49,927.004 2023.53,930.994 2025.57,934.994 2027.61,939.005 2029.65,943.026 2031.69,947.057 2033.73,951.099 2035.77,955.151 
  2037.81,959.214 2039.85,963.287 2041.89,967.37 2043.93,971.464 2045.97,975.568 2048.01,979.683 2050.05,983.808 2052.09,987.944 2054.13,992.09 2056.17,996.246 
  2058.21,1000.41 2060.25,1004.59 2062.29,1008.78 2064.33,1012.98 2066.36,1017.18 2068.4,1021.4 2070.44,1025.63 2072.48,1029.87 2074.52,1034.12 2076.56,1038.38 
  2078.6,1042.65 2080.64,1046.93 2082.68,1051.23 2084.72,1055.53 2086.76,1059.84 2088.8,1064.16 2090.84,1068.5 2092.88,1072.84 2094.92,1077.2 2096.96,1081.56 
  2099,1085.94 2101.04,1090.32 2103.08,1094.72 2105.12,1099.12 2107.16,1103.54 2109.2,1107.97 2111.24,1112.41 2113.28,1116.85 2115.32,1121.31 2117.36,1125.78 
  2119.4,1130.26 2121.44,1134.75 2123.48,1139.25 2125.51,1143.76 2127.55,1148.28 2129.59,1152.81 2131.63,1157.35 2133.67,1161.91 2135.71,1166.47 2137.75,1171.04 
  2139.79,1175.63 2141.83,1180.22 2143.87,1184.82 2145.91,1189.44 2147.95,1194.06 2149.99,1198.7 2152.03,1203.35 2154.07,1208 2156.11,1212.67 2158.15,1217.35 
  2160.19,1222.03 2162.23,1226.73 2164.27,1231.44 2166.31,1236.16 2168.35,1240.89 2170.39,1245.63 2172.43,1250.38 2174.47,1255.14 2176.51,1259.91 2178.55,1264.69 
  2180.59,1269.48 2182.62,1274.29 2184.66,1279.1 2186.7,1283.92 2188.74,1288.75 2190.78,1293.6 2192.82,1298.45 2194.86,1303.32 2196.9,1308.19 2198.94,1313.08 
  2200.98,1317.97 2203.02,1322.88 2205.06,1327.8 2207.1,1332.72 2209.14,1337.66 2211.18,1342.61 2213.22,1347.57 2215.26,1352.54 2217.3,1357.52 2219.34,1362.51 
  2221.38,1367.51 2223.42,1372.52 2225.46,1377.54 2227.5,1382.57 2229.54,1387.61 2231.58,1392.66 2233.62,1397.73 2235.66,1402.8 2237.7,1407.88 2239.74,1412.98 
  2241.77,1418.08 2243.81,1423.2 2245.85,1428.32 2247.89,1433.46 2249.93,1438.6 2251.97,1443.76 2254.01,1448.93 2256.05,1454.1 2258.09,1459.29 2260.13,1464.49 
  
  "/>
<polygon clip-path="url(#clip7501)" points="
1685.51,451.424 2249.26,451.424 2249.26,209.504 1685.51,209.504 
  " fill="#ffffff" fill-rule="evenodd" fill-opacity="1"/>
<polyline clip-path="url(#clip7501)" style="stroke:#000000; stroke-width:4; stroke-opacity:1; fill:none" points="
  1685.51,451.424 2249.26,451.424 2249.26,209.504 1685.51,209.504 1685.51,451.424 
  "/>
<polyline clip-path="url(#clip7501)" style="stroke:#009af9; stroke-width:4; stroke-opacity:1; fill:none" points="
  1709.51,269.984 1853.51,269.984 
  "/>
<g clip-path="url(#clip7501)">
<text style="fill:#000000; fill-opacity:1; font-family:Arial,Helvetica Neue,Helvetica,sans-serif; font-size:48px; text-anchor:start;" transform="rotate(0, 1877.51, 287.484)" x="1877.51" y="287.484">Runge function</text>
</g>
<circle clip-path="url(#clip7501)" style="fill:#000000; stroke:none; fill-opacity:1" cx="1793.51" cy="330.464" r="25"/>
<circle clip-path="url(#clip7501)" style="fill:#e26f46; stroke:none; fill-opacity:1" cx="1793.51" cy="330.464" r="21"/>
<g clip-path="url(#clip7501)">
<text style="fill:#000000; fill-opacity:1; font-family:Arial,Helvetica Neue,Helvetica,sans-serif; font-size:48px; text-anchor:start;" transform="rotate(0, 1877.51, 347.964)" x="1877.51" y="347.964">Nodes</text>
</g>
<polyline clip-path="url(#clip7501)" style="stroke:#3da44d; stroke-width:4; stroke-opacity:1; fill:none" points="
  1709.51,390.944 1853.51,390.944 
  "/>
<g clip-path="url(#clip7501)">
<text style="fill:#000000; fill-opacity:1; font-family:Arial,Helvetica Neue,Helvetica,sans-serif; font-size:48px; text-anchor:start;" transform="rotate(0, 1877.51, 408.444)" x="1877.51" y="408.444">Intepolation</text>
</g>
</svg>
