<?xml version="1.0" encoding="utf-8"?>
<svg xmlns="http://www.w3.org/2000/svg" xmlns:xlink="http://www.w3.org/1999/xlink" width="600" height="400" viewBox="0 0 2400 1600">
<defs>
  <clipPath id="clip7300">
    <rect x="0" y="0" width="2000" height="2000"/>
  </clipPath>
</defs>
<defs>
  <clipPath id="clip7301">
    <rect x="0" y="0" width="2400" height="1600"/>
  </clipPath>
</defs>
<polygon clip-path="url(#clip7301)" points="
0,1600 2400,1600 2400,0 0,0 
  " fill="#ffffff" fill-rule="evenodd" fill-opacity="1"/>
<defs>
  <clipPath id="clip7302">
    <rect x="480" y="0" width="1681" height="1600"/>
  </clipPath>
</defs>
<polygon clip-path="url(#clip7301)" points="
161.394,1503.47 2321.26,1503.47 2321.26,125.984 161.394,125.984 
  " fill="#ffffff" fill-rule="evenodd" fill-opacity="1"/>
<defs>
  <clipPath id="clip7303">
    <rect x="161" y="125" width="2161" height="1378"/>
  </clipPath>
</defs>
<polyline clip-path="url(#clip7303)" style="stroke:#000000; stroke-width:2; stroke-opacity:0.1; fill:none" points="
  222.522,1503.47 222.522,125.984 
  "/>
<polyline clip-path="url(#clip7303)" style="stroke:#000000; stroke-width:2; stroke-opacity:0.1; fill:none" points="
  731.925,1503.47 731.925,125.984 
  "/>
<polyline clip-path="url(#clip7303)" style="stroke:#000000; stroke-width:2; stroke-opacity:0.1; fill:none" points="
  1241.33,1503.47 1241.33,125.984 
  "/>
<polyline clip-path="url(#clip7303)" style="stroke:#000000; stroke-width:2; stroke-opacity:0.1; fill:none" points="
  1750.73,1503.47 1750.73,125.984 
  "/>
<polyline clip-path="url(#clip7303)" style="stroke:#000000; stroke-width:2; stroke-opacity:0.1; fill:none" points="
  2260.13,1503.47 2260.13,125.984 
  "/>
<polyline clip-path="url(#clip7303)" style="stroke:#000000; stroke-width:2; stroke-opacity:0.1; fill:none" points="
  161.394,1246.16 2321.26,1246.16 
  "/>
<polyline clip-path="url(#clip7303)" style="stroke:#000000; stroke-width:2; stroke-opacity:0.1; fill:none" points="
  161.394,975.857 2321.26,975.857 
  "/>
<polyline clip-path="url(#clip7303)" style="stroke:#000000; stroke-width:2; stroke-opacity:0.1; fill:none" points="
  161.394,705.55 2321.26,705.55 
  "/>
<polyline clip-path="url(#clip7303)" style="stroke:#000000; stroke-width:2; stroke-opacity:0.1; fill:none" points="
  161.394,435.243 2321.26,435.243 
  "/>
<polyline clip-path="url(#clip7303)" style="stroke:#000000; stroke-width:2; stroke-opacity:0.1; fill:none" points="
  161.394,164.936 2321.26,164.936 
  "/>
<polyline clip-path="url(#clip7301)" style="stroke:#000000; stroke-width:4; stroke-opacity:1; fill:none" points="
  161.394,1503.47 2321.26,1503.47 
  "/>
<polyline clip-path="url(#clip7301)" style="stroke:#000000; stroke-width:4; stroke-opacity:1; fill:none" points="
  161.394,1503.47 161.394,125.984 
  "/>
<polyline clip-path="url(#clip7301)" style="stroke:#000000; stroke-width:4; stroke-opacity:1; fill:none" points="
  222.522,1503.47 222.522,1482.81 
  "/>
<polyline clip-path="url(#clip7301)" style="stroke:#000000; stroke-width:4; stroke-opacity:1; fill:none" points="
  731.925,1503.47 731.925,1482.81 
  "/>
<polyline clip-path="url(#clip7301)" style="stroke:#000000; stroke-width:4; stroke-opacity:1; fill:none" points="
  1241.33,1503.47 1241.33,1482.81 
  "/>
<polyline clip-path="url(#clip7301)" style="stroke:#000000; stroke-width:4; stroke-opacity:1; fill:none" points="
  1750.73,1503.47 1750.73,1482.81 
  "/>
<polyline clip-path="url(#clip7301)" style="stroke:#000000; stroke-width:4; stroke-opacity:1; fill:none" points="
  2260.13,1503.47 2260.13,1482.81 
  "/>
<polyline clip-path="url(#clip7301)" style="stroke:#000000; stroke-width:4; stroke-opacity:1; fill:none" points="
  161.394,1246.16 193.792,1246.16 
  "/>
<polyline clip-path="url(#clip7301)" style="stroke:#000000; stroke-width:4; stroke-opacity:1; fill:none" points="
  161.394,975.857 193.792,975.857 
  "/>
<polyline clip-path="url(#clip7301)" style="stroke:#000000; stroke-width:4; stroke-opacity:1; fill:none" points="
  161.394,705.55 193.792,705.55 
  "/>
<polyline clip-path="url(#clip7301)" style="stroke:#000000; stroke-width:4; stroke-opacity:1; fill:none" points="
  161.394,435.243 193.792,435.243 
  "/>
<polyline clip-path="url(#clip7301)" style="stroke:#000000; stroke-width:4; stroke-opacity:1; fill:none" points="
  161.394,164.936 193.792,164.936 
  "/>
<g clip-path="url(#clip7301)">
<text style="fill:#000000; fill-opacity:1; font-family:Arial,Helvetica Neue,Helvetica,sans-serif; font-size:48px; text-anchor:middle;" transform="rotate(0, 222.522, 1557.47)" x="222.522" y="1557.47">-1.0</text>
</g>
<g clip-path="url(#clip7301)">
<text style="fill:#000000; fill-opacity:1; font-family:Arial,Helvetica Neue,Helvetica,sans-serif; font-size:48px; text-anchor:middle;" transform="rotate(0, 731.925, 1557.47)" x="731.925" y="1557.47">-0.5</text>
</g>
<g clip-path="url(#clip7301)">
<text style="fill:#000000; fill-opacity:1; font-family:Arial,Helvetica Neue,Helvetica,sans-serif; font-size:48px; text-anchor:middle;" transform="rotate(0, 1241.33, 1557.47)" x="1241.33" y="1557.47">0.0</text>
</g>
<g clip-path="url(#clip7301)">
<text style="fill:#000000; fill-opacity:1; font-family:Arial,Helvetica Neue,Helvetica,sans-serif; font-size:48px; text-anchor:middle;" transform="rotate(0, 1750.73, 1557.47)" x="1750.73" y="1557.47">0.5</text>
</g>
<g clip-path="url(#clip7301)">
<text style="fill:#000000; fill-opacity:1; font-family:Arial,Helvetica Neue,Helvetica,sans-serif; font-size:48px; text-anchor:middle;" transform="rotate(0, 2260.13, 1557.47)" x="2260.13" y="1557.47">1.0</text>
</g>
<g clip-path="url(#clip7301)">
<text style="fill:#000000; fill-opacity:1; font-family:Arial,Helvetica Neue,Helvetica,sans-serif; font-size:48px; text-anchor:end;" transform="rotate(0, 137.394, 1263.66)" x="137.394" y="1263.66">0.2</text>
</g>
<g clip-path="url(#clip7301)">
<text style="fill:#000000; fill-opacity:1; font-family:Arial,Helvetica Neue,Helvetica,sans-serif; font-size:48px; text-anchor:end;" transform="rotate(0, 137.394, 993.357)" x="137.394" y="993.357">0.4</text>
</g>
<g clip-path="url(#clip7301)">
<text style="fill:#000000; fill-opacity:1; font-family:Arial,Helvetica Neue,Helvetica,sans-serif; font-size:48px; text-anchor:end;" transform="rotate(0, 137.394, 723.05)" x="137.394" y="723.05">0.6</text>
</g>
<g clip-path="url(#clip7301)">
<text style="fill:#000000; fill-opacity:1; font-family:Arial,Helvetica Neue,Helvetica,sans-serif; font-size:48px; text-anchor:end;" transform="rotate(0, 137.394, 452.743)" x="137.394" y="452.743">0.8</text>
</g>
<g clip-path="url(#clip7301)">
<text style="fill:#000000; fill-opacity:1; font-family:Arial,Helvetica Neue,Helvetica,sans-serif; font-size:48px; text-anchor:end;" transform="rotate(0, 137.394, 182.436)" x="137.394" y="182.436">1.0</text>
</g>
<g clip-path="url(#clip7301)">
<text style="fill:#000000; fill-opacity:1; font-family:Arial,Helvetica Neue,Helvetica,sans-serif; font-size:84px; text-anchor:middle;" transform="rotate(0, 1241.33, 73.2)" x="1241.33" y="73.2">Runge&apos;s phenomenon (Nodes = 2)</text>
</g>
<polyline clip-path="url(#clip7303)" style="stroke:#009af9; stroke-width:4; stroke-opacity:1; fill:none" points="
  222.522,1464.49 224.562,1464.29 226.602,1464.09 228.641,1463.88 230.681,1463.68 232.721,1463.47 234.76,1463.27 236.8,1463.06 238.84,1462.85 240.879,1462.64 
  242.919,1462.43 244.958,1462.22 246.998,1462 249.038,1461.79 251.077,1461.57 253.117,1461.35 255.157,1461.14 257.196,1460.91 259.236,1460.69 261.276,1460.47 
  263.315,1460.25 265.355,1460.02 267.395,1459.79 269.434,1459.57 271.474,1459.34 273.514,1459.11 275.553,1458.87 277.593,1458.64 279.632,1458.41 281.672,1458.17 
  283.712,1457.93 285.751,1457.69 287.791,1457.45 289.831,1457.21 291.87,1456.96 293.91,1456.72 295.95,1456.47 297.989,1456.22 300.029,1455.98 302.069,1455.72 
  304.108,1455.47 306.148,1455.22 308.188,1454.96 310.227,1454.7 312.267,1454.44 314.307,1454.18 316.346,1453.92 318.386,1453.66 320.425,1453.39 322.465,1453.13 
  324.505,1452.86 326.544,1452.59 328.584,1452.31 330.624,1452.04 332.663,1451.76 334.703,1451.49 336.743,1451.21 338.782,1450.93 340.822,1450.64 342.862,1450.36 
  344.901,1450.07 346.941,1449.78 348.981,1449.49 351.02,1449.2 353.06,1448.91 355.099,1448.61 357.139,1448.31 359.179,1448.02 361.218,1447.71 363.258,1447.41 
  365.298,1447.1 367.337,1446.8 369.377,1446.49 371.417,1446.18 373.456,1445.86 375.496,1445.55 377.536,1445.23 379.575,1444.91 381.615,1444.59 383.655,1444.26 
  385.694,1443.94 387.734,1443.61 389.774,1443.28 391.813,1442.95 393.853,1442.61 395.892,1442.27 397.932,1441.93 399.972,1441.59 402.011,1441.25 404.051,1440.9 
  406.091,1440.55 408.13,1440.2 410.17,1439.85 412.21,1439.49 414.249,1439.13 416.289,1438.77 418.329,1438.41 420.368,1438.04 422.408,1437.68 424.448,1437.31 
  426.487,1436.93 428.527,1436.56 430.567,1436.18 432.606,1435.8 434.646,1435.41 436.685,1435.03 438.725,1434.64 440.765,1434.24 442.804,1433.85 444.844,1433.45 
  446.884,1433.05 448.923,1432.65 450.963,1432.24 453.003,1431.83 455.042,1431.42 457.082,1431 459.122,1430.59 461.161,1430.17 463.201,1429.74 465.241,1429.31 
  467.28,1428.88 469.32,1428.45 471.359,1428.02 473.399,1427.58 475.439,1427.13 477.478,1426.69 479.518,1426.24 481.558,1425.79 483.597,1425.33 485.637,1424.87 
  487.677,1424.41 489.716,1423.94 491.756,1423.47 493.796,1423 495.835,1422.52 497.875,1422.04 499.915,1421.56 501.954,1421.07 503.994,1420.58 506.034,1420.08 
  508.073,1419.59 510.113,1419.08 512.152,1418.58 514.192,1418.07 516.232,1417.55 518.271,1417.04 520.311,1416.51 522.351,1415.99 524.39,1415.46 526.43,1414.93 
  528.47,1414.39 530.509,1413.85 532.549,1413.3 534.589,1412.75 536.628,1412.19 538.668,1411.63 540.708,1411.07 542.747,1410.5 544.787,1409.93 546.826,1409.35 
  548.866,1408.77 550.906,1408.19 552.945,1407.59 554.985,1407 557.025,1406.4 559.064,1405.79 561.104,1405.18 563.144,1404.57 565.183,1403.95 567.223,1403.32 
  569.263,1402.69 571.302,1402.06 573.342,1401.42 575.382,1400.77 577.421,1400.12 579.461,1399.47 581.501,1398.81 583.54,1398.14 585.58,1397.47 587.619,1396.79 
  589.659,1396.1 591.699,1395.42 593.738,1394.72 595.778,1394.02 597.818,1393.31 599.857,1392.6 601.897,1391.88 603.937,1391.16 605.976,1390.43 608.016,1389.69 
  610.056,1388.95 612.095,1388.2 614.135,1387.44 616.175,1386.68 618.214,1385.91 620.254,1385.13 622.294,1384.35 624.333,1383.56 626.373,1382.77 628.412,1381.96 
  630.452,1381.16 632.492,1380.34 634.531,1379.51 636.571,1378.68 638.611,1377.85 640.65,1377 642.69,1376.15 644.73,1375.29 646.769,1374.42 648.809,1373.54 
  650.849,1372.66 652.888,1371.77 654.928,1370.87 656.968,1369.96 659.007,1369.04 661.047,1368.12 663.086,1367.19 665.126,1366.24 667.166,1365.29 669.205,1364.34 
  671.245,1363.37 673.285,1362.39 675.324,1361.41 677.364,1360.41 679.404,1359.41 681.443,1358.4 683.483,1357.38 685.523,1356.35 687.562,1355.31 689.602,1354.25 
  691.642,1353.19 693.681,1352.12 695.721,1351.04 697.761,1349.95 699.8,1348.85 701.84,1347.74 703.879,1346.62 705.919,1345.49 707.959,1344.34 709.998,1343.19 
  712.038,1342.02 714.078,1340.85 716.117,1339.66 718.157,1338.46 720.197,1337.25 722.236,1336.03 724.276,1334.79 726.316,1333.54 728.355,1332.29 730.395,1331.01 
  732.435,1329.73 734.474,1328.43 736.514,1327.12 738.553,1325.8 740.593,1324.47 742.633,1323.12 744.672,1321.76 746.712,1320.38 748.752,1318.99 750.791,1317.59 
  752.831,1316.17 754.871,1314.74 756.91,1313.29 758.95,1311.83 760.99,1310.35 763.029,1308.86 765.069,1307.36 767.109,1305.84 769.148,1304.3 771.188,1302.74 
  773.228,1301.18 775.267,1299.59 777.307,1297.99 779.346,1296.37 781.386,1294.73 783.426,1293.08 785.465,1291.41 787.505,1289.72 789.545,1288.02 791.584,1286.3 
  793.624,1284.55 795.664,1282.79 797.703,1281.02 799.743,1279.22 801.783,1277.4 803.822,1275.57 805.862,1273.71 807.902,1271.83 809.941,1269.94 811.981,1268.02 
  814.02,1266.09 816.06,1264.13 818.1,1262.15 820.139,1260.15 822.179,1258.12 824.219,1256.08 826.258,1254.01 828.298,1251.92 830.338,1249.81 832.377,1247.67 
  834.417,1245.51 836.457,1243.33 838.496,1241.12 840.536,1238.89 842.576,1236.63 844.615,1234.35 846.655,1232.04 848.695,1229.71 850.734,1227.35 852.774,1224.96 
  854.813,1222.55 856.853,1220.1 858.893,1217.64 860.932,1215.14 862.972,1212.61 865.012,1210.06 867.051,1207.48 869.091,1204.86 871.131,1202.22 873.17,1199.55 
  875.21,1196.84 877.25,1194.11 879.289,1191.34 881.329,1188.55 883.369,1185.71 885.408,1182.85 887.448,1179.95 889.488,1177.02 891.527,1174.06 893.567,1171.06 
  895.606,1168.03 897.646,1164.96 899.686,1161.85 901.725,1158.71 903.765,1155.53 905.805,1152.32 907.844,1149.06 909.884,1145.77 911.924,1142.44 913.963,1139.07 
  916.003,1135.66 918.043,1132.21 920.082,1128.72 922.122,1125.19 924.162,1121.62 926.201,1118 928.241,1114.34 930.28,1110.64 932.32,1106.89 934.36,1103.1 
  936.399,1099.27 938.439,1095.39 940.479,1091.46 942.518,1087.48 944.558,1083.46 946.598,1079.39 948.637,1075.28 950.677,1071.11 952.717,1066.89 954.756,1062.63 
  956.796,1058.31 958.836,1053.94 960.875,1049.52 962.915,1045.05 964.955,1040.53 966.994,1035.95 969.034,1031.32 971.073,1026.63 973.113,1021.89 975.153,1017.09 
  977.192,1012.24 979.232,1007.33 981.272,1002.36 983.311,997.335 985.351,992.251 987.391,987.107 989.43,981.904 991.47,976.641 993.51,971.318 995.549,965.933 
  997.589,960.486 999.629,954.978 1001.67,949.407 1003.71,943.773 1005.75,938.076 1007.79,932.314 1009.83,926.489 1011.87,920.598 1013.91,914.643 1015.95,908.622 
  1017.99,902.535 1020.03,896.382 1022.06,890.163 1024.1,883.877 1026.14,877.524 1028.18,871.104 1030.22,864.617 1032.26,858.062 1034.3,851.44 1036.34,844.75 
  1038.38,837.992 1040.42,831.167 1042.46,824.274 1044.5,817.313 1046.54,810.285 1048.58,803.19 1050.62,796.027 1052.66,788.798 1054.7,781.503 1056.74,774.141 
  1058.78,766.714 1060.82,759.221 1062.86,751.664 1064.9,744.043 1066.94,736.359 1068.98,728.613 1071.02,720.805 1073.06,712.937 1075.1,705.009 1077.14,697.023 
  1079.17,688.979 1081.21,680.88 1083.25,672.726 1085.29,664.519 1087.33,656.26 1089.37,647.952 1091.41,639.595 1093.45,631.193 1095.49,622.746 1097.53,614.257 
  1099.57,605.729 1101.61,597.163 1103.65,588.562 1105.69,579.928 1107.73,571.265 1109.77,562.575 1111.81,553.862 1113.85,545.127 1115.89,536.375 1117.93,527.609 
  1119.97,518.832 1122.01,510.049 1124.05,501.262 1126.09,492.476 1128.13,483.694 1130.17,474.922 1132.21,466.163 1134.25,457.421 1136.29,448.702 1138.32,440.01 
  1140.36,431.35 1142.4,422.727 1144.44,414.146 1146.48,405.613 1148.52,397.131 1150.56,388.709 1152.6,380.349 1154.64,372.059 1156.68,363.845 1158.72,355.711 
  1160.76,347.664 1162.8,339.711 1164.84,331.856 1166.88,324.107 1168.92,316.469 1170.96,308.949 1173,301.553 1175.04,294.288 1177.08,287.159 1179.12,280.173 
  1181.16,273.336 1183.2,266.656 1185.24,260.137 1187.28,253.786 1189.32,247.609 1191.36,241.613 1193.4,235.803 1195.43,230.185 1197.47,224.765 1199.51,219.548 
  1201.55,214.541 1203.59,209.748 1205.63,205.175 1207.67,200.826 1209.71,196.707 1211.75,192.821 1213.79,189.174 1215.83,185.77 1217.87,182.612 1219.91,179.703 
  1221.95,177.048 1223.99,174.65 1226.03,172.511 1228.07,170.634 1230.11,169.02 1232.15,167.673 1234.19,166.593 1236.23,165.782 1238.27,165.241 1240.31,164.97 
  1242.35,164.97 1244.39,165.241 1246.43,165.782 1248.47,166.593 1250.51,167.673 1252.55,169.02 1254.58,170.634 1256.62,172.511 1258.66,174.65 1260.7,177.048 
  1262.74,179.703 1264.78,182.612 1266.82,185.77 1268.86,189.174 1270.9,192.821 1272.94,196.707 1274.98,200.826 1277.02,205.175 1279.06,209.748 1281.1,214.541 
  1283.14,219.548 1285.18,224.765 1287.22,230.185 1289.26,235.803 1291.3,241.613 1293.34,247.609 1295.38,253.786 1297.42,260.137 1299.46,266.656 1301.5,273.336 
  1303.54,280.173 1305.58,287.159 1307.62,294.288 1309.66,301.553 1311.69,308.949 1313.73,316.469 1315.77,324.107 1317.81,331.856 1319.85,339.711 1321.89,347.664 
  1323.93,355.711 1325.97,363.845 1328.01,372.059 1330.05,380.349 1332.09,388.709 1334.13,397.131 1336.17,405.613 1338.21,414.146 1340.25,422.727 1342.29,431.35 
  1344.33,440.01 1346.37,448.702 1348.41,457.421 1350.45,466.163 1352.49,474.922 1354.53,483.694 1356.57,492.476 1358.61,501.262 1360.65,510.049 1362.69,518.832 
  1364.73,527.609 1366.77,536.375 1368.8,545.127 1370.84,553.862 1372.88,562.575 1374.92,571.265 1376.96,579.928 1379,588.562 1381.04,597.163 1383.08,605.729 
  1385.12,614.257 1387.16,622.746 1389.2,631.193 1391.24,639.595 1393.28,647.952 1395.32,656.26 1397.36,664.519 1399.4,672.726 1401.44,680.88 1403.48,688.979 
  1405.52,697.023 1407.56,705.009 1409.6,712.937 1411.64,720.805 1413.68,728.613 1415.72,736.359 1417.76,744.043 1419.8,751.664 1421.84,759.221 1423.88,766.714 
  1425.92,774.141 1427.95,781.503 1429.99,788.798 1432.03,796.027 1434.07,803.19 1436.11,810.285 1438.15,817.313 1440.19,824.274 1442.23,831.167 1444.27,837.992 
  1446.31,844.75 1448.35,851.44 1450.39,858.062 1452.43,864.617 1454.47,871.104 1456.51,877.524 1458.55,883.877 1460.59,890.163 1462.63,896.382 1464.67,902.535 
  1466.71,908.622 1468.75,914.643 1470.79,920.598 1472.83,926.489 1474.87,932.314 1476.91,938.076 1478.95,943.773 1480.99,949.407 1483.03,954.978 1485.06,960.486 
  1487.1,965.933 1489.14,971.318 1491.18,976.641 1493.22,981.904 1495.26,987.107 1497.3,992.251 1499.34,997.335 1501.38,1002.36 1503.42,1007.33 1505.46,1012.24 
  1507.5,1017.09 1509.54,1021.89 1511.58,1026.63 1513.62,1031.32 1515.66,1035.95 1517.7,1040.53 1519.74,1045.05 1521.78,1049.52 1523.82,1053.94 1525.86,1058.31 
  1527.9,1062.63 1529.94,1066.89 1531.98,1071.11 1534.02,1075.28 1536.06,1079.39 1538.1,1083.46 1540.14,1087.48 1542.18,1091.46 1544.21,1095.39 1546.25,1099.27 
  1548.29,1103.1 1550.33,1106.89 1552.37,1110.64 1554.41,1114.34 1556.45,1118 1558.49,1121.62 1560.53,1125.19 1562.57,1128.72 1564.61,1132.21 1566.65,1135.66 
  1568.69,1139.07 1570.73,1142.44 1572.77,1145.77 1574.81,1149.06 1576.85,1152.32 1578.89,1155.53 1580.93,1158.71 1582.97,1161.85 1585.01,1164.96 1587.05,1168.03 
  1589.09,1171.06 1591.13,1174.06 1593.17,1177.02 1595.21,1179.95 1597.25,1182.85 1599.29,1185.71 1601.32,1188.55 1603.36,1191.34 1605.4,1194.11 1607.44,1196.84 
  1609.48,1199.55 1611.52,1202.22 1613.56,1204.86 1615.6,1207.48 1617.64,1210.06 1619.68,1212.61 1621.72,1215.14 1623.76,1217.64 1625.8,1220.1 1627.84,1222.55 
  1629.88,1224.96 1631.92,1227.35 1633.96,1229.71 1636,1232.04 1638.04,1234.35 1640.08,1236.63 1642.12,1238.89 1644.16,1241.12 1646.2,1243.33 1648.24,1245.51 
  1650.28,1247.67 1652.32,1249.81 1654.36,1251.92 1656.4,1254.01 1658.44,1256.08 1660.47,1258.12 1662.51,1260.15 1664.55,1262.15 1666.59,1264.13 1668.63,1266.09 
  1670.67,1268.02 1672.71,1269.94 1674.75,1271.83 1676.79,1273.71 1678.83,1275.57 1680.87,1277.4 1682.91,1279.22 1684.95,1281.02 1686.99,1282.79 1689.03,1284.55 
  1691.07,1286.3 1693.11,1288.02 1695.15,1289.72 1697.19,1291.41 1699.23,1293.08 1701.27,1294.73 1703.31,1296.37 1705.35,1297.99 1707.39,1299.59 1709.43,1301.18 
  1711.47,1302.74 1713.51,1304.3 1715.55,1305.84 1717.58,1307.36 1719.62,1308.86 1721.66,1310.35 1723.7,1311.83 1725.74,1313.29 1727.78,1314.74 1729.82,1316.17 
  1731.86,1317.59 1733.9,1318.99 1735.94,1320.38 1737.98,1321.76 1740.02,1323.12 1742.06,1324.47 1744.1,1325.8 1746.14,1327.12 1748.18,1328.43 1750.22,1329.73 
  1752.26,1331.01 1754.3,1332.29 1756.34,1333.54 1758.38,1334.79 1760.42,1336.03 1762.46,1337.25 1764.5,1338.46 1766.54,1339.66 1768.58,1340.85 1770.62,1342.02 
  1772.66,1343.19 1774.7,1344.34 1776.73,1345.49 1778.77,1346.62 1780.81,1347.74 1782.85,1348.85 1784.89,1349.95 1786.93,1351.04 1788.97,1352.12 1791.01,1353.19 
  1793.05,1354.25 1795.09,1355.31 1797.13,1356.35 1799.17,1357.38 1801.21,1358.4 1803.25,1359.41 1805.29,1360.41 1807.33,1361.41 1809.37,1362.39 1811.41,1363.37 
  1813.45,1364.34 1815.49,1365.29 1817.53,1366.24 1819.57,1367.19 1821.61,1368.12 1823.65,1369.04 1825.69,1369.96 1827.73,1370.87 1829.77,1371.77 1831.81,1372.66 
  1833.84,1373.54 1835.88,1374.42 1837.92,1375.29 1839.96,1376.15 1842,1377 1844.04,1377.85 1846.08,1378.68 1848.12,1379.51 1850.16,1380.34 1852.2,1381.16 
  1854.24,1381.96 1856.28,1382.77 1858.32,1383.56 1860.36,1384.35 1862.4,1385.13 1864.44,1385.91 1866.48,1386.68 1868.52,1387.44 1870.56,1388.2 1872.6,1388.95 
  1874.64,1389.69 1876.68,1390.43 1878.72,1391.16 1880.76,1391.88 1882.8,1392.6 1884.84,1393.31 1886.88,1394.02 1888.92,1394.72 1890.96,1395.42 1892.99,1396.1 
  1895.03,1396.79 1897.07,1397.47 1899.11,1398.14 1901.15,1398.81 1903.19,1399.47 1905.23,1400.12 1907.27,1400.77 1909.31,1401.42 1911.35,1402.06 1913.39,1402.69 
  1915.43,1403.32 1917.47,1403.95 1919.51,1404.57 1921.55,1405.18 1923.59,1405.79 1925.63,1406.4 1927.67,1407 1929.71,1407.59 1931.75,1408.19 1933.79,1408.77 
  1935.83,1409.35 1937.87,1409.93 1939.91,1410.5 1941.95,1411.07 1943.99,1411.63 1946.03,1412.19 1948.07,1412.75 1950.1,1413.3 1952.14,1413.85 1954.18,1414.39 
  1956.22,1414.93 1958.26,1415.46 1960.3,1415.99 1962.34,1416.51 1964.38,1417.04 1966.42,1417.55 1968.46,1418.07 1970.5,1418.58 1972.54,1419.08 1974.58,1419.59 
  1976.62,1420.08 1978.66,1420.58 1980.7,1421.07 1982.74,1421.56 1984.78,1422.04 1986.82,1422.52 1988.86,1423 1990.9,1423.47 1992.94,1423.94 1994.98,1424.41 
  1997.02,1424.87 1999.06,1425.33 2001.1,1425.79 2003.14,1426.24 2005.18,1426.69 2007.22,1427.13 2009.25,1427.58 2011.29,1428.02 2013.33,1428.45 2015.37,1428.88 
  2017.41,1429.31 2019.45,1429.74 2021.49,1430.17 2023.53,1430.59 2025.57,1431 2027.61,1431.42 2029.65,1431.83 2031.69,1432.24 2033.73,1432.65 2035.77,1433.05 
  2037.81,1433.45 2039.85,1433.85 2041.89,1434.24 2043.93,1434.64 2045.97,1435.03 2048.01,1435.41 2050.05,1435.8 2052.09,1436.18 2054.13,1436.56 2056.17,1436.93 
  2058.21,1437.31 2060.25,1437.68 2062.29,1438.04 2064.33,1438.41 2066.36,1438.77 2068.4,1439.13 2070.44,1439.49 2072.48,1439.85 2074.52,1440.2 2076.56,1440.55 
  2078.6,1440.9 2080.64,1441.25 2082.68,1441.59 2084.72,1441.93 2086.76,1442.27 2088.8,1442.61 2090.84,1442.95 2092.88,1443.28 2094.92,1443.61 2096.96,1443.94 
  2099,1444.26 2101.04,1444.59 2103.08,1444.91 2105.12,1445.23 2107.16,1445.55 2109.2,1445.86 2111.24,1446.18 2113.28,1446.49 2115.32,1446.8 2117.36,1447.1 
  2119.4,1447.41 2121.44,1447.71 2123.48,1448.02 2125.51,1448.31 2127.55,1448.61 2129.59,1448.91 2131.63,1449.2 2133.67,1449.49 2135.71,1449.78 2137.75,1450.07 
  2139.79,1450.36 2141.83,1450.64 2143.87,1450.93 2145.91,1451.21 2147.95,1451.49 2149.99,1451.76 2152.03,1452.04 2154.07,1452.31 2156.11,1452.59 2158.15,1452.86 
  2160.19,1453.13 2162.23,1453.39 2164.27,1453.66 2166.31,1453.92 2168.35,1454.18 2170.39,1454.44 2172.43,1454.7 2174.47,1454.96 2176.51,1455.22 2178.55,1455.47 
  2180.59,1455.72 2182.62,1455.98 2184.66,1456.22 2186.7,1456.47 2188.74,1456.72 2190.78,1456.96 2192.82,1457.21 2194.86,1457.45 2196.9,1457.69 2198.94,1457.93 
  2200.98,1458.17 2203.02,1458.41 2205.06,1458.64 2207.1,1458.87 2209.14,1459.11 2211.18,1459.34 2213.22,1459.57 2215.26,1459.79 2217.3,1460.02 2219.34,1460.25 
  2221.38,1460.47 2223.42,1460.69 2225.46,1460.91 2227.5,1461.14 2229.54,1461.35 2231.58,1461.57 2233.62,1461.79 2235.66,1462 2237.7,1462.22 2239.74,1462.43 
  2241.77,1462.64 2243.81,1462.85 2245.85,1463.06 2247.89,1463.27 2249.93,1463.47 2251.97,1463.68 2254.01,1463.88 2256.05,1464.09 2258.09,1464.29 2260.13,1464.49 
  
  "/>
<circle clip-path="url(#clip7303)" style="fill:#000000; stroke:none; fill-opacity:1" cx="222.522" cy="1464.49" r="18"/>
<circle clip-path="url(#clip7303)" style="fill:#e26f46; stroke:none; fill-opacity:1" cx="222.522" cy="1464.49" r="14"/>
<circle clip-path="url(#clip7303)" style="fill:#000000; stroke:none; fill-opacity:1" cx="2260.13" cy="1464.49" r="18"/>
<circle clip-path="url(#clip7303)" style="fill:#e26f46; stroke:none; fill-opacity:1" cx="2260.13" cy="1464.49" r="14"/>
<polyline clip-path="url(#clip7303)" style="stroke:#3da44d; stroke-width:4; stroke-opacity:1; fill:none" points="
  222.522,1464.49 224.562,1464.49 226.602,1464.49 228.641,1464.49 230.681,1464.49 232.721,1464.49 234.76,1464.49 236.8,1464.49 238.84,1464.49 240.879,1464.49 
  242.919,1464.49 244.958,1464.49 246.998,1464.49 249.038,1464.49 251.077,1464.49 253.117,1464.49 255.157,1464.49 257.196,1464.49 259.236,1464.49 261.276,1464.49 
  263.315,1464.49 265.355,1464.49 267.395,1464.49 269.434,1464.49 271.474,1464.49 273.514,1464.49 275.553,1464.49 277.593,1464.49 279.632,1464.49 281.672,1464.49 
  283.712,1464.49 285.751,1464.49 287.791,1464.49 289.831,1464.49 291.87,1464.49 293.91,1464.49 295.95,1464.49 297.989,1464.49 300.029,1464.49 302.069,1464.49 
  304.108,1464.49 306.148,1464.49 308.188,1464.49 310.227,1464.49 312.267,1464.49 314.307,1464.49 316.346,1464.49 318.386,1464.49 320.425,1464.49 322.465,1464.49 
  324.505,1464.49 326.544,1464.49 328.584,1464.49 330.624,1464.49 332.663,1464.49 334.703,1464.49 336.743,1464.49 338.782,1464.49 340.822,1464.49 342.862,1464.49 
  344.901,1464.49 346.941,1464.49 348.981,1464.49 351.02,1464.49 353.06,1464.49 355.099,1464.49 357.139,1464.49 359.179,1464.49 361.218,1464.49 363.258,1464.49 
  365.298,1464.49 367.337,1464.49 369.377,1464.49 371.417,1464.49 373.456,1464.49 375.496,1464.49 377.536,1464.49 379.575,1464.49 381.615,1464.49 383.655,1464.49 
  385.694,1464.49 387.734,1464.49 389.774,1464.49 391.813,1464.49 393.853,1464.49 395.892,1464.49 397.932,1464.49 399.972,1464.49 402.011,1464.49 404.051,1464.49 
  406.091,1464.49 408.13,1464.49 410.17,1464.49 412.21,1464.49 414.249,1464.49 416.289,1464.49 418.329,1464.49 420.368,1464.49 422.408,1464.49 424.448,1464.49 
  426.487,1464.49 428.527,1464.49 430.567,1464.49 432.606,1464.49 434.646,1464.49 436.685,1464.49 438.725,1464.49 440.765,1464.49 442.804,1464.49 444.844,1464.49 
  446.884,1464.49 448.923,1464.49 450.963,1464.49 453.003,1464.49 455.042,1464.49 457.082,1464.49 459.122,1464.49 461.161,1464.49 463.201,1464.49 465.241,1464.49 
  467.28,1464.49 469.32,1464.49 471.359,1464.49 473.399,1464.49 475.439,1464.49 477.478,1464.49 479.518,1464.49 481.558,1464.49 483.597,1464.49 485.637,1464.49 
  487.677,1464.49 489.716,1464.49 491.756,1464.49 493.796,1464.49 495.835,1464.49 497.875,1464.49 499.915,1464.49 501.954,1464.49 503.994,1464.49 506.034,1464.49 
  508.073,1464.49 510.113,1464.49 512.152,1464.49 514.192,1464.49 516.232,1464.49 518.271,1464.49 520.311,1464.49 522.351,1464.49 524.39,1464.49 526.43,1464.49 
  528.47,1464.49 530.509,1464.49 532.549,1464.49 534.589,1464.49 536.628,1464.49 538.668,1464.49 540.708,1464.49 542.747,1464.49 544.787,1464.49 546.826,1464.49 
  548.866,1464.49 550.906,1464.49 552.945,1464.49 554.985,1464.49 557.025,1464.49 559.064,1464.49 561.104,1464.49 563.144,1464.49 565.183,1464.49 567.223,1464.49 
  569.263,1464.49 571.302,1464.49 573.342,1464.49 575.382,1464.49 577.421,1464.49 579.461,1464.49 581.501,1464.49 583.54,1464.49 585.58,1464.49 587.619,1464.49 
  589.659,1464.49 591.699,1464.49 593.738,1464.49 595.778,1464.49 597.818,1464.49 599.857,1464.49 601.897,1464.49 603.937,1464.49 605.976,1464.49 608.016,1464.49 
  610.056,1464.49 612.095,1464.49 614.135,1464.49 616.175,1464.49 618.214,1464.49 620.254,1464.49 622.294,1464.49 624.333,1464.49 626.373,1464.49 628.412,1464.49 
  630.452,1464.49 632.492,1464.49 634.531,1464.49 636.571,1464.49 638.611,1464.49 640.65,1464.49 642.69,1464.49 644.73,1464.49 646.769,1464.49 648.809,1464.49 
  650.849,1464.49 652.888,1464.49 654.928,1464.49 656.968,1464.49 659.007,1464.49 661.047,1464.49 663.086,1464.49 665.126,1464.49 667.166,1464.49 669.205,1464.49 
  671.245,1464.49 673.285,1464.49 675.324,1464.49 677.364,1464.49 679.404,1464.49 681.443,1464.49 683.483,1464.49 685.523,1464.49 687.562,1464.49 689.602,1464.49 
  691.642,1464.49 693.681,1464.49 695.721,1464.49 697.761,1464.49 699.8,1464.49 701.84,1464.49 703.879,1464.49 705.919,1464.49 707.959,1464.49 709.998,1464.49 
  712.038,1464.49 714.078,1464.49 716.117,1464.49 718.157,1464.49 720.197,1464.49 722.236,1464.49 724.276,1464.49 726.316,1464.49 728.355,1464.49 730.395,1464.49 
  732.435,1464.49 734.474,1464.49 736.514,1464.49 738.553,1464.49 740.593,1464.49 742.633,1464.49 744.672,1464.49 746.712,1464.49 748.752,1464.49 750.791,1464.49 
  752.831,1464.49 754.871,1464.49 756.91,1464.49 758.95,1464.49 760.99,1464.49 763.029,1464.49 765.069,1464.49 767.109,1464.49 769.148,1464.49 771.188,1464.49 
  773.228,1464.49 775.267,1464.49 777.307,1464.49 779.346,1464.49 781.386,1464.49 783.426,1464.49 785.465,1464.49 787.505,1464.49 789.545,1464.49 791.584,1464.49 
  793.624,1464.49 795.664,1464.49 797.703,1464.49 799.743,1464.49 801.783,1464.49 803.822,1464.49 805.862,1464.49 807.902,1464.49 809.941,1464.49 811.981,1464.49 
  814.02,1464.49 816.06,1464.49 818.1,1464.49 820.139,1464.49 822.179,1464.49 824.219,1464.49 826.258,1464.49 828.298,1464.49 830.338,1464.49 832.377,1464.49 
  834.417,1464.49 836.457,1464.49 838.496,1464.49 840.536,1464.49 842.576,1464.49 844.615,1464.49 846.655,1464.49 848.695,1464.49 850.734,1464.49 852.774,1464.49 
  854.813,1464.49 856.853,1464.49 858.893,1464.49 860.932,1464.49 862.972,1464.49 865.012,1464.49 867.051,1464.49 869.091,1464.49 871.131,1464.49 873.17,1464.49 
  875.21,1464.49 877.25,1464.49 879.289,1464.49 881.329,1464.49 883.369,1464.49 885.408,1464.49 887.448,1464.49 889.488,1464.49 891.527,1464.49 893.567,1464.49 
  895.606,1464.49 897.646,1464.49 899.686,1464.49 901.725,1464.49 903.765,1464.49 905.805,1464.49 907.844,1464.49 909.884,1464.49 911.924,1464.49 913.963,1464.49 
  916.003,1464.49 918.043,1464.49 920.082,1464.49 922.122,1464.49 924.162,1464.49 926.201,1464.49 928.241,1464.49 930.28,1464.49 932.32,1464.49 934.36,1464.49 
  936.399,1464.49 938.439,1464.49 940.479,1464.49 942.518,1464.49 944.558,1464.49 946.598,1464.49 948.637,1464.49 950.677,1464.49 952.717,1464.49 954.756,1464.49 
  956.796,1464.49 958.836,1464.49 960.875,1464.49 962.915,1464.49 964.955,1464.49 966.994,1464.49 969.034,1464.49 971.073,1464.49 973.113,1464.49 975.153,1464.49 
  977.192,1464.49 979.232,1464.49 981.272,1464.49 983.311,1464.49 985.351,1464.49 987.391,1464.49 989.43,1464.49 991.47,1464.49 993.51,1464.49 995.549,1464.49 
  997.589,1464.49 999.629,1464.49 1001.67,1464.49 1003.71,1464.49 1005.75,1464.49 1007.79,1464.49 1009.83,1464.49 1011.87,1464.49 1013.91,1464.49 1015.95,1464.49 
  1017.99,1464.49 1020.03,1464.49 1022.06,1464.49 1024.1,1464.49 1026.14,1464.49 1028.18,1464.49 1030.22,1464.49 1032.26,1464.49 1034.3,1464.49 1036.34,1464.49 
  1038.38,1464.49 1040.42,1464.49 1042.46,1464.49 1044.5,1464.49 1046.54,1464.49 1048.58,1464.49 1050.62,1464.49 1052.66,1464.49 1054.7,1464.49 1056.74,1464.49 
  1058.78,1464.49 1060.82,1464.49 1062.86,1464.49 1064.9,1464.49 1066.94,1464.49 1068.98,1464.49 1071.02,1464.49 1073.06,1464.49 1075.1,1464.49 1077.14,1464.49 
  1079.17,1464.49 1081.21,1464.49 1083.25,1464.49 1085.29,1464.49 1087.33,1464.49 1089.37,1464.49 1091.41,1464.49 1093.45,1464.49 1095.49,1464.49 1097.53,1464.49 
  1099.57,1464.49 1101.61,1464.49 1103.65,1464.49 1105.69,1464.49 1107.73,1464.49 1109.77,1464.49 1111.81,1464.49 1113.85,1464.49 1115.89,1464.49 1117.93,1464.49 
  1119.97,1464.49 1122.01,1464.49 1124.05,1464.49 1126.09,1464.49 1128.13,1464.49 1130.17,1464.49 1132.21,1464.49 1134.25,1464.49 1136.29,1464.49 1138.32,1464.49 
  1140.36,1464.49 1142.4,1464.49 1144.44,1464.49 1146.48,1464.49 1148.52,1464.49 1150.56,1464.49 1152.6,1464.49 1154.64,1464.49 1156.68,1464.49 1158.72,1464.49 
  1160.76,1464.49 1162.8,1464.49 1164.84,1464.49 1166.88,1464.49 1168.92,1464.49 1170.96,1464.49 1173,1464.49 1175.04,1464.49 1177.08,1464.49 1179.12,1464.49 
  1181.16,1464.49 1183.2,1464.49 1185.24,1464.49 1187.28,1464.49 1189.32,1464.49 1191.36,1464.49 1193.4,1464.49 1195.43,1464.49 1197.47,1464.49 1199.51,1464.49 
  1201.55,1464.49 1203.59,1464.49 1205.63,1464.49 1207.67,1464.49 1209.71,1464.49 1211.75,1464.49 1213.79,1464.49 1215.83,1464.49 1217.87,1464.49 1219.91,1464.49 
  1221.95,1464.49 1223.99,1464.49 1226.03,1464.49 1228.07,1464.49 1230.11,1464.49 1232.15,1464.49 1234.19,1464.49 1236.23,1464.49 1238.27,1464.49 1240.31,1464.49 
  1242.35,1464.49 1244.39,1464.49 1246.43,1464.49 1248.47,1464.49 1250.51,1464.49 1252.55,1464.49 1254.58,1464.49 1256.62,1464.49 1258.66,1464.49 1260.7,1464.49 
  1262.74,1464.49 1264.78,1464.49 1266.82,1464.49 1268.86,1464.49 1270.9,1464.49 1272.94,1464.49 1274.98,1464.49 1277.02,1464.49 1279.06,1464.49 1281.1,1464.49 
  1283.14,1464.49 1285.18,1464.49 1287.22,1464.49 1289.26,1464.49 1291.3,1464.49 1293.34,1464.49 1295.38,1464.49 1297.42,1464.49 1299.46,1464.49 1301.5,1464.49 
  1303.54,1464.49 1305.58,1464.49 1307.62,1464.49 1309.66,1464.49 1311.69,1464.49 1313.73,1464.49 1315.77,1464.49 1317.81,1464.49 1319.85,1464.49 1321.89,1464.49 
  1323.93,1464.49 1325.97,1464.49 1328.01,1464.49 1330.05,1464.49 1332.09,1464.49 1334.13,1464.49 1336.17,1464.49 1338.21,1464.49 1340.25,1464.49 1342.29,1464.49 
  1344.33,1464.49 1346.37,1464.49 1348.41,1464.49 1350.45,1464.49 1352.49,1464.49 1354.53,1464.49 1356.57,1464.49 1358.61,1464.49 1360.65,1464.49 1362.69,1464.49 
  1364.73,1464.49 1366.77,1464.49 1368.8,1464.49 1370.84,1464.49 1372.88,1464.49 1374.92,1464.49 1376.96,1464.49 1379,1464.49 1381.04,1464.49 1383.08,1464.49 
  1385.12,1464.49 1387.16,1464.49 1389.2,1464.49 1391.24,1464.49 1393.28,1464.49 1395.32,1464.49 1397.36,1464.49 1399.4,1464.49 1401.44,1464.49 1403.48,1464.49 
  1405.52,1464.49 1407.56,1464.49 1409.6,1464.49 1411.64,1464.49 1413.68,1464.49 1415.72,1464.49 1417.76,1464.49 1419.8,1464.49 1421.84,1464.49 1423.88,1464.49 
  1425.92,1464.49 1427.95,1464.49 1429.99,1464.49 1432.03,1464.49 1434.07,1464.49 1436.11,1464.49 1438.15,1464.49 1440.19,1464.49 1442.23,1464.49 1444.27,1464.49 
  1446.31,1464.49 1448.35,1464.49 1450.39,1464.49 1452.43,1464.49 1454.47,1464.49 1456.51,1464.49 1458.55,1464.49 1460.59,1464.49 1462.63,1464.49 1464.67,1464.49 
  1466.71,1464.49 1468.75,1464.49 1470.79,1464.49 1472.83,1464.49 1474.87,1464.49 1476.91,1464.49 1478.95,1464.49 1480.99,1464.49 1483.03,1464.49 1485.06,1464.49 
  1487.1,1464.49 1489.14,1464.49 1491.18,1464.49 1493.22,1464.49 1495.26,1464.49 1497.3,1464.49 1499.34,1464.49 1501.38,1464.49 1503.42,1464.49 1505.46,1464.49 
  1507.5,1464.49 1509.54,1464.49 1511.58,1464.49 1513.62,1464.49 1515.66,1464.49 1517.7,1464.49 1519.74,1464.49 1521.78,1464.49 1523.82,1464.49 1525.86,1464.49 
  1527.9,1464.49 1529.94,1464.49 1531.98,1464.49 1534.02,1464.49 1536.06,1464.49 1538.1,1464.49 1540.14,1464.49 1542.18,1464.49 1544.21,1464.49 1546.25,1464.49 
  1548.29,1464.49 1550.33,1464.49 1552.37,1464.49 1554.41,1464.49 1556.45,1464.49 1558.49,1464.49 1560.53,1464.49 1562.57,1464.49 1564.61,1464.49 1566.65,1464.49 
  1568.69,1464.49 1570.73,1464.49 1572.77,1464.49 1574.81,1464.49 1576.85,1464.49 1578.89,1464.49 1580.93,1464.49 1582.97,1464.49 1585.01,1464.49 1587.05,1464.49 
  1589.09,1464.49 1591.13,1464.49 1593.17,1464.49 1595.21,1464.49 1597.25,1464.49 1599.29,1464.49 1601.32,1464.49 1603.36,1464.49 1605.4,1464.49 1607.44,1464.49 
  1609.48,1464.49 1611.52,1464.49 1613.56,1464.49 1615.6,1464.49 1617.64,1464.49 1619.68,1464.49 1621.72,1464.49 1623.76,1464.49 1625.8,1464.49 1627.84,1464.49 
  1629.88,1464.49 1631.92,1464.49 1633.96,1464.49 1636,1464.49 1638.04,1464.49 1640.08,1464.49 1642.12,1464.49 1644.16,1464.49 1646.2,1464.49 1648.24,1464.49 
  1650.28,1464.49 1652.32,1464.49 1654.36,1464.49 1656.4,1464.49 1658.44,1464.49 1660.47,1464.49 1662.51,1464.49 1664.55,1464.49 1666.59,1464.49 1668.63,1464.49 
  1670.67,1464.49 1672.71,1464.49 1674.75,1464.49 1676.79,1464.49 1678.83,1464.49 1680.87,1464.49 1682.91,1464.49 1684.95,1464.49 1686.99,1464.49 1689.03,1464.49 
  1691.07,1464.49 1693.11,1464.49 1695.15,1464.49 1697.19,1464.49 1699.23,1464.49 1701.27,1464.49 1703.31,1464.49 1705.35,1464.49 1707.39,1464.49 1709.43,1464.49 
  1711.47,1464.49 1713.51,1464.49 1715.55,1464.49 1717.58,1464.49 1719.62,1464.49 1721.66,1464.49 1723.7,1464.49 1725.74,1464.49 1727.78,1464.49 1729.82,1464.49 
  1731.86,1464.49 1733.9,1464.49 1735.94,1464.49 1737.98,1464.49 1740.02,1464.49 1742.06,1464.49 1744.1,1464.49 1746.14,1464.49 1748.18,1464.49 1750.22,1464.49 
  1752.26,1464.49 1754.3,1464.49 1756.34,1464.49 1758.38,1464.49 1760.42,1464.49 1762.46,1464.49 1764.5,1464.49 1766.54,1464.49 1768.58,1464.49 1770.62,1464.49 
  1772.66,1464.49 1774.7,1464.49 1776.73,1464.49 1778.77,1464.49 1780.81,1464.49 1782.85,1464.49 1784.89,1464.49 1786.93,1464.49 1788.97,1464.49 1791.01,1464.49 
  1793.05,1464.49 1795.09,1464.49 1797.13,1464.49 1799.17,1464.49 1801.21,1464.49 1803.25,1464.49 1805.29,1464.49 1807.33,1464.49 1809.37,1464.49 1811.41,1464.49 
  1813.45,1464.49 1815.49,1464.49 1817.53,1464.49 1819.57,1464.49 1821.61,1464.49 1823.65,1464.49 1825.69,1464.49 1827.73,1464.49 1829.77,1464.49 1831.81,1464.49 
  1833.84,1464.49 1835.88,1464.49 1837.92,1464.49 1839.96,1464.49 1842,1464.49 1844.04,1464.49 1846.08,1464.49 1848.12,1464.49 1850.16,1464.49 1852.2,1464.49 
  1854.24,1464.49 1856.28,1464.49 1858.32,1464.49 1860.36,1464.49 1862.4,1464.49 1864.44,1464.49 1866.48,1464.49 1868.52,1464.49 1870.56,1464.49 1872.6,1464.49 
  1874.64,1464.49 1876.68,1464.49 1878.72,1464.49 1880.76,1464.49 1882.8,1464.49 1884.84,1464.49 1886.88,1464.49 1888.92,1464.49 1890.96,1464.49 1892.99,1464.49 
  1895.03,1464.49 1897.07,1464.49 1899.11,1464.49 1901.15,1464.49 1903.19,1464.49 1905.23,1464.49 1907.27,1464.49 1909.31,1464.49 1911.35,1464.49 1913.39,1464.49 
  1915.43,1464.49 1917.47,1464.49 1919.51,1464.49 1921.55,1464.49 1923.59,1464.49 1925.63,1464.49 1927.67,1464.49 1929.71,1464.49 1931.75,1464.49 1933.79,1464.49 
  1935.83,1464.49 1937.87,1464.49 1939.91,1464.49 1941.95,1464.49 1943.99,1464.49 1946.03,1464.49 1948.07,1464.49 1950.1,1464.49 1952.14,1464.49 1954.18,1464.49 
  1956.22,1464.49 1958.26,1464.49 1960.3,1464.49 1962.34,1464.49 1964.38,1464.49 1966.42,1464.49 1968.46,1464.49 1970.5,1464.49 1972.54,1464.49 1974.58,1464.49 
  1976.62,1464.49 1978.66,1464.49 1980.7,1464.49 1982.74,1464.49 1984.78,1464.49 1986.82,1464.49 1988.86,1464.49 1990.9,1464.49 1992.94,1464.49 1994.98,1464.49 
  1997.02,1464.49 1999.06,1464.49 2001.1,1464.49 2003.14,1464.49 2005.18,1464.49 2007.22,1464.49 2009.25,1464.49 2011.29,1464.49 2013.33,1464.49 2015.37,1464.49 
  2017.41,1464.49 2019.45,1464.49 2021.49,1464.49 2023.53,1464.49 2025.57,1464.49 2027.61,1464.49 2029.65,1464.49 2031.69,1464.49 2033.73,1464.49 2035.77,1464.49 
  2037.81,1464.49 2039.85,1464.49 2041.89,1464.49 2043.93,1464.49 2045.97,1464.49 2048.01,1464.49 2050.05,1464.49 2052.09,1464.49 2054.13,1464.49 2056.17,1464.49 
  2058.21,1464.49 2060.25,1464.49 2062.29,1464.49 2064.33,1464.49 2066.36,1464.49 2068.4,1464.49 2070.44,1464.49 2072.48,1464.49 2074.52,1464.49 2076.56,1464.49 
  2078.6,1464.49 2080.64,1464.49 2082.68,1464.49 2084.72,1464.49 2086.76,1464.49 2088.8,1464.49 2090.84,1464.49 2092.88,1464.49 2094.92,1464.49 2096.96,1464.49 
  2099,1464.49 2101.04,1464.49 2103.08,1464.49 2105.12,1464.49 2107.16,1464.49 2109.2,1464.49 2111.24,1464.49 2113.28,1464.49 2115.32,1464.49 2117.36,1464.49 
  2119.4,1464.49 2121.44,1464.49 2123.48,1464.49 2125.51,1464.49 2127.55,1464.49 2129.59,1464.49 2131.63,1464.49 2133.67,1464.49 2135.71,1464.49 2137.75,1464.49 
  2139.79,1464.49 2141.83,1464.49 2143.87,1464.49 2145.91,1464.49 2147.95,1464.49 2149.99,1464.49 2152.03,1464.49 2154.07,1464.49 2156.11,1464.49 2158.15,1464.49 
  2160.19,1464.49 2162.23,1464.49 2164.27,1464.49 2166.31,1464.49 2168.35,1464.49 2170.39,1464.49 2172.43,1464.49 2174.47,1464.49 2176.51,1464.49 2178.55,1464.49 
  2180.59,1464.49 2182.62,1464.49 2184.66,1464.49 2186.7,1464.49 2188.74,1464.49 2190.78,1464.49 2192.82,1464.49 2194.86,1464.49 2196.9,1464.49 2198.94,1464.49 
  2200.98,1464.49 2203.02,1464.49 2205.06,1464.49 2207.1,1464.49 2209.14,1464.49 2211.18,1464.49 2213.22,1464.49 2215.26,1464.49 2217.3,1464.49 2219.34,1464.49 
  2221.38,1464.49 2223.42,1464.49 2225.46,1464.49 2227.5,1464.49 2229.54,1464.49 2231.58,1464.49 2233.62,1464.49 2235.66,1464.49 2237.7,1464.49 2239.74,1464.49 
  2241.77,1464.49 2243.81,1464.49 2245.85,1464.49 2247.89,1464.49 2249.93,1464.49 2251.97,1464.49 2254.01,1464.49 2256.05,1464.49 2258.09,1464.49 2260.13,1464.49 
  
  "/>
<polygon clip-path="url(#clip7301)" points="
1685.51,451.424 2249.26,451.424 2249.26,209.504 1685.51,209.504 
  " fill="#ffffff" fill-rule="evenodd" fill-opacity="1"/>
<polyline clip-path="url(#clip7301)" style="stroke:#000000; stroke-width:4; stroke-opacity:1; fill:none" points="
  1685.51,451.424 2249.26,451.424 2249.26,209.504 1685.51,209.504 1685.51,451.424 
  "/>
<polyline clip-path="url(#clip7301)" style="stroke:#009af9; stroke-width:4; stroke-opacity:1; fill:none" points="
  1709.51,269.984 1853.51,269.984 
  "/>
<g clip-path="url(#clip7301)">
<text style="fill:#000000; fill-opacity:1; font-family:Arial,Helvetica Neue,Helvetica,sans-serif; font-size:48px; text-anchor:start;" transform="rotate(0, 1877.51, 287.484)" x="1877.51" y="287.484">Runge function</text>
</g>
<circle clip-path="url(#clip7301)" style="fill:#000000; stroke:none; fill-opacity:1" cx="1793.51" cy="330.464" r="25"/>
<circle clip-path="url(#clip7301)" style="fill:#e26f46; stroke:none; fill-opacity:1" cx="1793.51" cy="330.464" r="21"/>
<g clip-path="url(#clip7301)">
<text style="fill:#000000; fill-opacity:1; font-family:Arial,Helvetica Neue,Helvetica,sans-serif; font-size:48px; text-anchor:start;" transform="rotate(0, 1877.51, 347.964)" x="1877.51" y="347.964">Nodes</text>
</g>
<polyline clip-path="url(#clip7301)" style="stroke:#3da44d; stroke-width:4; stroke-opacity:1; fill:none" points="
  1709.51,390.944 1853.51,390.944 
  "/>
<g clip-path="url(#clip7301)">
<text style="fill:#000000; fill-opacity:1; font-family:Arial,Helvetica Neue,Helvetica,sans-serif; font-size:48px; text-anchor:start;" transform="rotate(0, 1877.51, 408.444)" x="1877.51" y="408.444">Intepolation</text>
</g>
</svg>
