<?xml version="1.0" encoding="utf-8"?>
<svg xmlns="http://www.w3.org/2000/svg" xmlns:xlink="http://www.w3.org/1999/xlink" width="600" height="400" viewBox="0 0 2400 1600">
<defs>
  <clipPath id="clip0500">
    <rect x="0" y="0" width="2000" height="2000"/>
  </clipPath>
</defs>
<defs>
  <clipPath id="clip0501">
    <rect x="0" y="0" width="2400" height="1600"/>
  </clipPath>
</defs>
<polygon clip-path="url(#clip0501)" points="
0,1600 2400,1600 2400,0 0,0 
  " fill="#ffffff" fill-rule="evenodd" fill-opacity="1"/>
<defs>
  <clipPath id="clip0502">
    <rect x="480" y="0" width="1681" height="1600"/>
  </clipPath>
</defs>
<polygon clip-path="url(#clip0501)" points="
149.361,1503.47 2321.26,1503.47 2321.26,125.984 149.361,125.984 
  " fill="#ffffff" fill-rule="evenodd" fill-opacity="1"/>
<defs>
  <clipPath id="clip0503">
    <rect x="149" y="125" width="2173" height="1378"/>
  </clipPath>
</defs>
<polyline clip-path="url(#clip0503)" style="stroke:#000000; stroke-width:2; stroke-opacity:0.1; fill:none" points="
  210.829,1503.47 210.829,125.984 
  "/>
<polyline clip-path="url(#clip0503)" style="stroke:#000000; stroke-width:2; stroke-opacity:0.1; fill:none" points="
  723.07,1503.47 723.07,125.984 
  "/>
<polyline clip-path="url(#clip0503)" style="stroke:#000000; stroke-width:2; stroke-opacity:0.1; fill:none" points="
  1235.31,1503.47 1235.31,125.984 
  "/>
<polyline clip-path="url(#clip0503)" style="stroke:#000000; stroke-width:2; stroke-opacity:0.1; fill:none" points="
  1747.55,1503.47 1747.55,125.984 
  "/>
<polyline clip-path="url(#clip0503)" style="stroke:#000000; stroke-width:2; stroke-opacity:0.1; fill:none" points="
  2259.79,1503.47 2259.79,125.984 
  "/>
<polyline clip-path="url(#clip0503)" style="stroke:#000000; stroke-width:2; stroke-opacity:0.1; fill:none" points="
  149.361,1418.75 2321.26,1418.75 
  "/>
<polyline clip-path="url(#clip0503)" style="stroke:#000000; stroke-width:2; stroke-opacity:0.1; fill:none" points="
  149.361,1167.99 2321.26,1167.99 
  "/>
<polyline clip-path="url(#clip0503)" style="stroke:#000000; stroke-width:2; stroke-opacity:0.1; fill:none" points="
  149.361,917.234 2321.26,917.234 
  "/>
<polyline clip-path="url(#clip0503)" style="stroke:#000000; stroke-width:2; stroke-opacity:0.1; fill:none" points="
  149.361,666.477 2321.26,666.477 
  "/>
<polyline clip-path="url(#clip0503)" style="stroke:#000000; stroke-width:2; stroke-opacity:0.1; fill:none" points="
  149.361,415.72 2321.26,415.72 
  "/>
<polyline clip-path="url(#clip0503)" style="stroke:#000000; stroke-width:2; stroke-opacity:0.1; fill:none" points="
  149.361,164.964 2321.26,164.964 
  "/>
<polyline clip-path="url(#clip0501)" style="stroke:#000000; stroke-width:4; stroke-opacity:1; fill:none" points="
  149.361,1503.47 2321.26,1503.47 
  "/>
<polyline clip-path="url(#clip0501)" style="stroke:#000000; stroke-width:4; stroke-opacity:1; fill:none" points="
  149.361,1503.47 149.361,125.984 
  "/>
<polyline clip-path="url(#clip0501)" style="stroke:#000000; stroke-width:4; stroke-opacity:1; fill:none" points="
  210.829,1503.47 210.829,1482.81 
  "/>
<polyline clip-path="url(#clip0501)" style="stroke:#000000; stroke-width:4; stroke-opacity:1; fill:none" points="
  723.07,1503.47 723.07,1482.81 
  "/>
<polyline clip-path="url(#clip0501)" style="stroke:#000000; stroke-width:4; stroke-opacity:1; fill:none" points="
  1235.31,1503.47 1235.31,1482.81 
  "/>
<polyline clip-path="url(#clip0501)" style="stroke:#000000; stroke-width:4; stroke-opacity:1; fill:none" points="
  1747.55,1503.47 1747.55,1482.81 
  "/>
<polyline clip-path="url(#clip0501)" style="stroke:#000000; stroke-width:4; stroke-opacity:1; fill:none" points="
  2259.79,1503.47 2259.79,1482.81 
  "/>
<polyline clip-path="url(#clip0501)" style="stroke:#000000; stroke-width:4; stroke-opacity:1; fill:none" points="
  149.361,1418.75 181.939,1418.75 
  "/>
<polyline clip-path="url(#clip0501)" style="stroke:#000000; stroke-width:4; stroke-opacity:1; fill:none" points="
  149.361,1167.99 181.939,1167.99 
  "/>
<polyline clip-path="url(#clip0501)" style="stroke:#000000; stroke-width:4; stroke-opacity:1; fill:none" points="
  149.361,917.234 181.939,917.234 
  "/>
<polyline clip-path="url(#clip0501)" style="stroke:#000000; stroke-width:4; stroke-opacity:1; fill:none" points="
  149.361,666.477 181.939,666.477 
  "/>
<polyline clip-path="url(#clip0501)" style="stroke:#000000; stroke-width:4; stroke-opacity:1; fill:none" points="
  149.361,415.72 181.939,415.72 
  "/>
<polyline clip-path="url(#clip0501)" style="stroke:#000000; stroke-width:4; stroke-opacity:1; fill:none" points="
  149.361,164.964 181.939,164.964 
  "/>
<g clip-path="url(#clip0501)">
<text style="fill:#000000; fill-opacity:1; font-family:Arial,Helvetica Neue,Helvetica,sans-serif; font-size:48px; text-anchor:middle;" transform="rotate(0, 210.829, 1557.47)" x="210.829" y="1557.47">-1.0</text>
</g>
<g clip-path="url(#clip0501)">
<text style="fill:#000000; fill-opacity:1; font-family:Arial,Helvetica Neue,Helvetica,sans-serif; font-size:48px; text-anchor:middle;" transform="rotate(0, 723.07, 1557.47)" x="723.07" y="1557.47">-0.5</text>
</g>
<g clip-path="url(#clip0501)">
<text style="fill:#000000; fill-opacity:1; font-family:Arial,Helvetica Neue,Helvetica,sans-serif; font-size:48px; text-anchor:middle;" transform="rotate(0, 1235.31, 1557.47)" x="1235.31" y="1557.47">0.0</text>
</g>
<g clip-path="url(#clip0501)">
<text style="fill:#000000; fill-opacity:1; font-family:Arial,Helvetica Neue,Helvetica,sans-serif; font-size:48px; text-anchor:middle;" transform="rotate(0, 1747.55, 1557.47)" x="1747.55" y="1557.47">0.5</text>
</g>
<g clip-path="url(#clip0501)">
<text style="fill:#000000; fill-opacity:1; font-family:Arial,Helvetica Neue,Helvetica,sans-serif; font-size:48px; text-anchor:middle;" transform="rotate(0, 2259.79, 1557.47)" x="2259.79" y="1557.47">1.0</text>
</g>
<g clip-path="url(#clip0501)">
<text style="fill:#000000; fill-opacity:1; font-family:Arial,Helvetica Neue,Helvetica,sans-serif; font-size:48px; text-anchor:end;" transform="rotate(0, 125.361, 1436.25)" x="125.361" y="1436.25">-4</text>
</g>
<g clip-path="url(#clip0501)">
<text style="fill:#000000; fill-opacity:1; font-family:Arial,Helvetica Neue,Helvetica,sans-serif; font-size:48px; text-anchor:end;" transform="rotate(0, 125.361, 1185.49)" x="125.361" y="1185.49">-3</text>
</g>
<g clip-path="url(#clip0501)">
<text style="fill:#000000; fill-opacity:1; font-family:Arial,Helvetica Neue,Helvetica,sans-serif; font-size:48px; text-anchor:end;" transform="rotate(0, 125.361, 934.734)" x="125.361" y="934.734">-2</text>
</g>
<g clip-path="url(#clip0501)">
<text style="fill:#000000; fill-opacity:1; font-family:Arial,Helvetica Neue,Helvetica,sans-serif; font-size:48px; text-anchor:end;" transform="rotate(0, 125.361, 683.977)" x="125.361" y="683.977">-1</text>
</g>
<g clip-path="url(#clip0501)">
<text style="fill:#000000; fill-opacity:1; font-family:Arial,Helvetica Neue,Helvetica,sans-serif; font-size:48px; text-anchor:end;" transform="rotate(0, 125.361, 433.22)" x="125.361" y="433.22">0</text>
</g>
<g clip-path="url(#clip0501)">
<text style="fill:#000000; fill-opacity:1; font-family:Arial,Helvetica Neue,Helvetica,sans-serif; font-size:48px; text-anchor:end;" transform="rotate(0, 125.361, 182.464)" x="125.361" y="182.464">1</text>
</g>
<g clip-path="url(#clip0501)">
<text style="fill:#000000; fill-opacity:1; font-family:Arial,Helvetica Neue,Helvetica,sans-serif; font-size:84px; text-anchor:middle;" transform="rotate(0, 1235.31, 73.2)" x="1235.31" y="73.2">Runge&apos;s phenomenon (Nodes = 18)</text>
</g>
<polyline clip-path="url(#clip0503)" style="stroke:#009af9; stroke-width:4; stroke-opacity:1; fill:none" points="
  210.829,406.076 212.88,406.039 214.931,406.001 216.982,405.963 219.034,405.926 221.085,405.888 223.136,405.849 225.187,405.811 227.238,405.772 229.289,405.733 
  231.34,405.694 233.391,405.654 235.442,405.615 237.493,405.575 239.544,405.535 241.595,405.494 243.646,405.454 245.697,405.413 247.748,405.372 249.799,405.33 
  251.85,405.289 253.901,405.247 255.952,405.205 258.003,405.162 260.054,405.12 262.105,405.077 264.156,405.034 266.207,404.991 268.258,404.947 270.309,404.903 
  272.36,404.859 274.411,404.815 276.462,404.77 278.513,404.725 280.564,404.68 282.615,404.634 284.666,404.589 286.717,404.543 288.768,404.496 290.819,404.45 
  292.87,404.403 294.921,404.356 296.972,404.308 299.023,404.26 301.074,404.212 303.125,404.164 305.176,404.115 307.227,404.066 309.278,404.017 311.329,403.967 
  313.38,403.918 315.431,403.867 317.482,403.817 319.533,403.766 321.584,403.715 323.635,403.663 325.686,403.612 327.737,403.559 329.788,403.507 331.839,403.454 
  333.89,403.401 335.941,403.348 337.992,403.294 340.043,403.24 342.094,403.185 344.145,403.13 346.196,403.075 348.247,403.019 350.298,402.963 352.349,402.907 
  354.4,402.85 356.451,402.793 358.502,402.736 360.553,402.678 362.604,402.62 364.655,402.561 366.706,402.503 368.757,402.443 370.808,402.383 372.859,402.323 
  374.91,402.263 376.961,402.202 379.012,402.141 381.064,402.079 383.115,402.017 385.166,401.954 387.217,401.891 389.268,401.828 391.319,401.764 393.37,401.7 
  395.421,401.635 397.472,401.57 399.523,401.504 401.574,401.438 403.625,401.372 405.676,401.305 407.727,401.237 409.778,401.169 411.829,401.101 413.88,401.032 
  415.931,400.963 417.982,400.893 420.033,400.823 422.084,400.752 424.135,400.681 426.186,400.609 428.237,400.537 430.288,400.464 432.339,400.391 434.39,400.317 
  436.441,400.243 438.492,400.168 440.543,400.093 442.594,400.017 444.645,399.94 446.696,399.863 448.747,399.786 450.798,399.708 452.849,399.629 454.9,399.55 
  456.951,399.47 459.002,399.39 461.053,399.309 463.104,399.227 465.155,399.145 467.206,399.062 469.257,398.979 471.308,398.895 473.359,398.81 475.41,398.725 
  477.461,398.639 479.512,398.553 481.563,398.466 483.614,398.378 485.665,398.289 487.716,398.2 489.767,398.111 491.818,398.02 493.869,397.929 495.92,397.837 
  497.971,397.745 500.022,397.652 502.073,397.558 504.124,397.463 506.175,397.368 508.226,397.272 510.277,397.175 512.328,397.077 514.379,396.979 516.43,396.88 
  518.481,396.78 520.532,396.68 522.583,396.578 524.634,396.476 526.685,396.373 528.736,396.269 530.787,396.165 532.838,396.059 534.889,395.953 536.94,395.846 
  538.991,395.738 541.042,395.63 543.093,395.52 545.145,395.409 547.196,395.298 549.247,395.186 551.298,395.073 553.349,394.958 555.4,394.843 557.451,394.728 
  559.502,394.611 561.553,394.493 563.604,394.374 565.655,394.254 567.706,394.134 569.757,394.012 571.808,393.889 573.859,393.765 575.91,393.641 577.961,393.515 
  580.012,393.388 582.063,393.26 584.114,393.131 586.165,393.001 588.216,392.87 590.267,392.738 592.318,392.605 594.369,392.47 596.42,392.335 598.471,392.198 
  600.522,392.06 602.573,391.921 604.624,391.781 606.675,391.639 608.726,391.497 610.777,391.353 612.828,391.208 614.879,391.061 616.93,390.914 618.981,390.765 
  621.032,390.615 623.083,390.463 625.134,390.31 627.185,390.156 629.236,390 631.287,389.844 633.338,389.685 635.389,389.526 637.44,389.364 639.491,389.202 
  641.542,389.038 643.593,388.872 645.644,388.705 647.695,388.537 649.746,388.367 651.797,388.196 653.848,388.023 655.899,387.848 657.95,387.672 660.001,387.494 
  662.052,387.315 664.103,387.134 666.154,386.951 668.205,386.766 670.256,386.58 672.307,386.392 674.358,386.203 676.409,386.012 678.46,385.818 680.511,385.624 
  682.562,385.427 684.613,385.228 686.664,385.028 688.715,384.825 690.766,384.621 692.817,384.415 694.868,384.207 696.919,383.997 698.97,383.785 701.021,383.57 
  703.072,383.354 705.123,383.136 707.174,382.916 709.226,382.693 711.277,382.468 713.328,382.241 715.379,382.012 717.43,381.781 719.481,381.547 721.532,381.312 
  723.583,381.073 725.634,380.833 727.685,380.59 729.736,380.345 731.787,380.097 733.838,379.847 735.889,379.594 737.94,379.339 739.991,379.081 742.042,378.821 
  744.093,378.557 746.144,378.292 748.195,378.023 750.246,377.752 752.297,377.479 754.348,377.202 756.399,376.922 758.45,376.64 760.501,376.355 762.552,376.067 
  764.603,375.775 766.654,375.481 768.705,375.184 770.756,374.884 772.807,374.58 774.858,374.274 776.909,373.964 778.96,373.651 781.011,373.335 783.062,373.015 
  785.113,372.692 787.164,372.365 789.215,372.035 791.266,371.702 793.317,371.365 795.368,371.024 797.419,370.68 799.47,370.332 801.521,369.98 803.572,369.624 
  805.623,369.265 807.674,368.902 809.725,368.535 811.776,368.163 813.827,367.788 815.878,367.409 817.929,367.025 819.98,366.637 822.031,366.245 824.082,365.849 
  826.133,365.448 828.184,365.043 830.235,364.633 832.286,364.219 834.337,363.8 836.388,363.377 838.439,362.949 840.49,362.516 842.541,362.078 844.592,361.635 
  846.643,361.187 848.694,360.734 850.745,360.276 852.796,359.813 854.847,359.344 856.898,358.87 858.949,358.391 861,357.906 863.051,357.416 865.102,356.92 
  867.153,356.418 869.204,355.911 871.255,355.398 873.307,354.879 875.358,354.354 877.409,353.822 879.46,353.285 881.511,352.741 883.562,352.191 885.613,351.635 
  887.664,351.072 889.715,350.503 891.766,349.926 893.817,349.344 895.868,348.754 897.919,348.157 899.97,347.554 902.021,346.943 904.072,346.325 906.123,345.7 
  908.174,345.067 910.225,344.427 912.276,343.779 914.327,343.124 916.378,342.461 918.429,341.79 920.48,341.111 922.531,340.424 924.582,339.729 926.633,339.026 
  928.684,338.314 930.735,337.594 932.786,336.866 934.837,336.128 936.888,335.382 938.939,334.627 940.99,333.863 943.041,333.09 945.092,332.308 947.143,331.517 
  949.194,330.716 951.245,329.905 953.296,329.086 955.347,328.256 957.398,327.416 959.449,326.567 961.5,325.708 963.551,324.838 965.602,323.958 967.653,323.068 
  969.704,322.168 971.755,321.257 973.806,320.335 975.857,319.402 977.908,318.459 979.959,317.505 982.01,316.54 984.061,315.563 986.112,314.575 988.163,313.576 
  990.214,312.566 992.265,311.544 994.316,310.51 996.367,309.465 998.418,308.408 1000.47,307.339 1002.52,306.258 1004.57,305.165 1006.62,304.06 1008.67,302.943 
  1010.72,301.814 1012.78,300.672 1014.83,299.518 1016.88,298.352 1018.93,297.173 1020.98,295.982 1023.03,294.779 1025.08,293.563 1027.13,292.334 1029.18,291.093 
  1031.23,289.839 1033.29,288.573 1035.34,287.294 1037.39,286.002 1039.44,284.698 1041.49,283.382 1043.54,282.053 1045.59,280.712 1047.64,279.358 1049.69,277.992 
  1051.74,276.614 1053.8,275.224 1055.85,273.822 1057.9,272.408 1059.95,270.982 1062,269.545 1064.05,268.097 1066.1,266.637 1068.15,265.166 1070.2,263.684 
  1072.25,262.192 1074.31,260.689 1076.36,259.176 1078.41,257.653 1080.46,256.121 1082.51,254.58 1084.56,253.029 1086.61,251.47 1088.66,249.903 1090.71,248.328 
  1092.76,246.746 1094.82,245.157 1096.87,243.561 1098.92,241.959 1100.97,240.352 1103.02,238.739 1105.07,237.123 1107.12,235.502 1109.17,233.878 1111.22,232.252 
  1113.27,230.624 1115.33,228.994 1117.38,227.364 1119.43,225.734 1121.48,224.104 1123.53,222.477 1125.58,220.852 1127.63,219.23 1129.68,217.612 1131.73,215.999 
  1133.79,214.393 1135.84,212.793 1137.89,211.201 1139.94,209.617 1141.99,208.044 1144.04,206.481 1146.09,204.93 1148.14,203.392 1150.19,201.868 1152.24,200.359 
  1154.3,198.866 1156.35,197.39 1158.4,195.933 1160.45,194.495 1162.5,193.078 1164.55,191.683 1166.6,190.311 1168.65,188.963 1170.7,187.64 1172.75,186.344 
  1174.81,185.076 1176.86,183.836 1178.91,182.627 1180.96,181.448 1183.01,180.302 1185.06,179.19 1187.11,178.112 1189.16,177.069 1191.21,176.064 1193.26,175.096 
  1195.32,174.167 1197.37,173.278 1199.42,172.429 1201.47,171.622 1203.52,170.858 1205.57,170.137 1207.62,169.461 1209.67,168.829 1211.72,168.243 1213.77,167.703 
  1215.83,167.211 1217.88,166.766 1219.93,166.369 1221.98,166.021 1224.03,165.721 1226.08,165.471 1228.13,165.271 1230.18,165.12 1232.23,165.02 1234.28,164.97 
  1236.34,164.97 1238.39,165.02 1240.44,165.12 1242.49,165.271 1244.54,165.471 1246.59,165.721 1248.64,166.021 1250.69,166.369 1252.74,166.766 1254.79,167.211 
  1256.85,167.703 1258.9,168.243 1260.95,168.829 1263,169.461 1265.05,170.137 1267.1,170.858 1269.15,171.622 1271.2,172.429 1273.25,173.278 1275.3,174.167 
  1277.36,175.096 1279.41,176.064 1281.46,177.069 1283.51,178.112 1285.56,179.19 1287.61,180.302 1289.66,181.448 1291.71,182.627 1293.76,183.836 1295.82,185.076 
  1297.87,186.344 1299.92,187.64 1301.97,188.963 1304.02,190.311 1306.07,191.683 1308.12,193.078 1310.17,194.495 1312.22,195.933 1314.27,197.39 1316.33,198.866 
  1318.38,200.359 1320.43,201.868 1322.48,203.392 1324.53,204.93 1326.58,206.481 1328.63,208.044 1330.68,209.617 1332.73,211.201 1334.78,212.793 1336.84,214.393 
  1338.89,215.999 1340.94,217.612 1342.99,219.23 1345.04,220.852 1347.09,222.477 1349.14,224.104 1351.19,225.734 1353.24,227.364 1355.29,228.994 1357.35,230.624 
  1359.4,232.252 1361.45,233.878 1363.5,235.502 1365.55,237.123 1367.6,238.739 1369.65,240.352 1371.7,241.959 1373.75,243.561 1375.8,245.157 1377.86,246.746 
  1379.91,248.328 1381.96,249.903 1384.01,251.47 1386.06,253.029 1388.11,254.58 1390.16,256.121 1392.21,257.653 1394.26,259.176 1396.31,260.689 1398.37,262.192 
  1400.42,263.684 1402.47,265.166 1404.52,266.637 1406.57,268.097 1408.62,269.545 1410.67,270.982 1412.72,272.408 1414.77,273.822 1416.82,275.224 1418.88,276.614 
  1420.93,277.992 1422.98,279.358 1425.03,280.712 1427.08,282.053 1429.13,283.382 1431.18,284.698 1433.23,286.002 1435.28,287.294 1437.33,288.573 1439.39,289.839 
  1441.44,291.093 1443.49,292.334 1445.54,293.563 1447.59,294.779 1449.64,295.982 1451.69,297.173 1453.74,298.352 1455.79,299.518 1457.85,300.672 1459.9,301.814 
  1461.95,302.943 1464,304.06 1466.05,305.165 1468.1,306.258 1470.15,307.339 1472.2,308.408 1474.25,309.465 1476.3,310.51 1478.36,311.544 1480.41,312.566 
  1482.46,313.576 1484.51,314.575 1486.56,315.563 1488.61,316.54 1490.66,317.505 1492.71,318.459 1494.76,319.402 1496.81,320.335 1498.87,321.257 1500.92,322.168 
  1502.97,323.068 1505.02,323.958 1507.07,324.838 1509.12,325.708 1511.17,326.567 1513.22,327.416 1515.27,328.256 1517.32,329.086 1519.38,329.905 1521.43,330.716 
  1523.48,331.517 1525.53,332.308 1527.58,333.09 1529.63,333.863 1531.68,334.627 1533.73,335.382 1535.78,336.128 1537.83,336.866 1539.89,337.594 1541.94,338.314 
  1543.99,339.026 1546.04,339.729 1548.09,340.424 1550.14,341.111 1552.19,341.79 1554.24,342.461 1556.29,343.124 1558.34,343.779 1560.4,344.427 1562.45,345.067 
  1564.5,345.7 1566.55,346.325 1568.6,346.943 1570.65,347.554 1572.7,348.157 1574.75,348.754 1576.8,349.344 1578.85,349.926 1580.91,350.503 1582.96,351.072 
  1585.01,351.635 1587.06,352.191 1589.11,352.741 1591.16,353.285 1593.21,353.822 1595.26,354.354 1597.31,354.879 1599.36,355.398 1601.42,355.911 1603.47,356.418 
  1605.52,356.92 1607.57,357.416 1609.62,357.906 1611.67,358.391 1613.72,358.87 1615.77,359.344 1617.82,359.813 1619.88,360.276 1621.93,360.734 1623.98,361.187 
  1626.03,361.635 1628.08,362.078 1630.13,362.516 1632.18,362.949 1634.23,363.377 1636.28,363.8 1638.33,364.219 1640.39,364.633 1642.44,365.043 1644.49,365.448 
  1646.54,365.849 1648.59,366.245 1650.64,366.637 1652.69,367.025 1654.74,367.409 1656.79,367.788 1658.84,368.163 1660.9,368.535 1662.95,368.902 1665,369.265 
  1667.05,369.624 1669.1,369.98 1671.15,370.332 1673.2,370.68 1675.25,371.024 1677.3,371.365 1679.35,371.702 1681.41,372.035 1683.46,372.365 1685.51,372.692 
  1687.56,373.015 1689.61,373.335 1691.66,373.651 1693.71,373.964 1695.76,374.274 1697.81,374.58 1699.86,374.884 1701.92,375.184 1703.97,375.481 1706.02,375.775 
  1708.07,376.067 1710.12,376.355 1712.17,376.64 1714.22,376.922 1716.27,377.202 1718.32,377.479 1720.37,377.752 1722.43,378.023 1724.48,378.292 1726.53,378.557 
  1728.58,378.821 1730.63,379.081 1732.68,379.339 1734.73,379.594 1736.78,379.847 1738.83,380.097 1740.88,380.345 1742.94,380.59 1744.99,380.833 1747.04,381.073 
  1749.09,381.312 1751.14,381.547 1753.19,381.781 1755.24,382.012 1757.29,382.241 1759.34,382.468 1761.39,382.693 1763.45,382.916 1765.5,383.136 1767.55,383.354 
  1769.6,383.57 1771.65,383.785 1773.7,383.997 1775.75,384.207 1777.8,384.415 1779.85,384.621 1781.91,384.825 1783.96,385.028 1786.01,385.228 1788.06,385.427 
  1790.11,385.624 1792.16,385.818 1794.21,386.012 1796.26,386.203 1798.31,386.392 1800.36,386.58 1802.42,386.766 1804.47,386.951 1806.52,387.134 1808.57,387.315 
  1810.62,387.494 1812.67,387.672 1814.72,387.848 1816.77,388.023 1818.82,388.196 1820.87,388.367 1822.93,388.537 1824.98,388.705 1827.03,388.872 1829.08,389.038 
  1831.13,389.202 1833.18,389.364 1835.23,389.526 1837.28,389.685 1839.33,389.844 1841.38,390 1843.44,390.156 1845.49,390.31 1847.54,390.463 1849.59,390.615 
  1851.64,390.765 1853.69,390.914 1855.74,391.061 1857.79,391.208 1859.84,391.353 1861.89,391.497 1863.95,391.639 1866,391.781 1868.05,391.921 1870.1,392.06 
  1872.15,392.198 1874.2,392.335 1876.25,392.47 1878.3,392.605 1880.35,392.738 1882.4,392.87 1884.46,393.001 1886.51,393.131 1888.56,393.26 1890.61,393.388 
  1892.66,393.515 1894.71,393.641 1896.76,393.765 1898.81,393.889 1900.86,394.012 1902.91,394.134 1904.97,394.254 1907.02,394.374 1909.07,394.493 1911.12,394.611 
  1913.17,394.728 1915.22,394.843 1917.27,394.958 1919.32,395.073 1921.37,395.186 1923.42,395.298 1925.48,395.409 1927.53,395.52 1929.58,395.63 1931.63,395.738 
  1933.68,395.846 1935.73,395.953 1937.78,396.059 1939.83,396.165 1941.88,396.269 1943.94,396.373 1945.99,396.476 1948.04,396.578 1950.09,396.68 1952.14,396.78 
  1954.19,396.88 1956.24,396.979 1958.29,397.077 1960.34,397.175 1962.39,397.272 1964.45,397.368 1966.5,397.463 1968.55,397.558 1970.6,397.652 1972.65,397.745 
  1974.7,397.837 1976.75,397.929 1978.8,398.02 1980.85,398.111 1982.9,398.2 1984.96,398.289 1987.01,398.378 1989.06,398.466 1991.11,398.553 1993.16,398.639 
  1995.21,398.725 1997.26,398.81 1999.31,398.895 2001.36,398.979 2003.41,399.062 2005.47,399.145 2007.52,399.227 2009.57,399.309 2011.62,399.39 2013.67,399.47 
  2015.72,399.55 2017.77,399.629 2019.82,399.708 2021.87,399.786 2023.92,399.863 2025.98,399.94 2028.03,400.017 2030.08,400.093 2032.13,400.168 2034.18,400.243 
  2036.23,400.317 2038.28,400.391 2040.33,400.464 2042.38,400.537 2044.43,400.609 2046.49,400.681 2048.54,400.752 2050.59,400.823 2052.64,400.893 2054.69,400.963 
  2056.74,401.032 2058.79,401.101 2060.84,401.169 2062.89,401.237 2064.94,401.305 2067,401.372 2069.05,401.438 2071.1,401.504 2073.15,401.57 2075.2,401.635 
  2077.25,401.7 2079.3,401.764 2081.35,401.828 2083.4,401.891 2085.45,401.954 2087.51,402.017 2089.56,402.079 2091.61,402.141 2093.66,402.202 2095.71,402.263 
  2097.76,402.323 2099.81,402.383 2101.86,402.443 2103.91,402.503 2105.97,402.561 2108.02,402.62 2110.07,402.678 2112.12,402.736 2114.17,402.793 2116.22,402.85 
  2118.27,402.907 2120.32,402.963 2122.37,403.019 2124.42,403.075 2126.48,403.13 2128.53,403.185 2130.58,403.24 2132.63,403.294 2134.68,403.348 2136.73,403.401 
  2138.78,403.454 2140.83,403.507 2142.88,403.559 2144.93,403.612 2146.99,403.663 2149.04,403.715 2151.09,403.766 2153.14,403.817 2155.19,403.867 2157.24,403.918 
  2159.29,403.967 2161.34,404.017 2163.39,404.066 2165.44,404.115 2167.5,404.164 2169.55,404.212 2171.6,404.26 2173.65,404.308 2175.7,404.356 2177.75,404.403 
  2179.8,404.45 2181.85,404.496 2183.9,404.543 2185.95,404.589 2188.01,404.634 2190.06,404.68 2192.11,404.725 2194.16,404.77 2196.21,404.815 2198.26,404.859 
  2200.31,404.903 2202.36,404.947 2204.41,404.991 2206.46,405.034 2208.52,405.077 2210.57,405.12 2212.62,405.162 2214.67,405.205 2216.72,405.247 2218.77,405.289 
  2220.82,405.33 2222.87,405.372 2224.92,405.413 2226.97,405.454 2229.03,405.494 2231.08,405.535 2233.13,405.575 2235.18,405.615 2237.23,405.654 2239.28,405.694 
  2241.33,405.733 2243.38,405.772 2245.43,405.811 2247.48,405.849 2249.54,405.888 2251.59,405.926 2253.64,405.963 2255.69,406.001 2257.74,406.039 2259.79,406.076 
  
  "/>
<circle clip-path="url(#clip0503)" style="fill:#000000; stroke:none; fill-opacity:1" cx="210.829" cy="406.076" r="18"/>
<circle clip-path="url(#clip0503)" style="fill:#e26f46; stroke:none; fill-opacity:1" cx="210.829" cy="406.076" r="14"/>
<circle clip-path="url(#clip0503)" style="fill:#000000; stroke:none; fill-opacity:1" cx="331.357" cy="403.467" r="18"/>
<circle clip-path="url(#clip0503)" style="fill:#e26f46; stroke:none; fill-opacity:1" cx="331.357" cy="403.467" r="14"/>
<circle clip-path="url(#clip0503)" style="fill:#000000; stroke:none; fill-opacity:1" cx="451.884" cy="399.666" r="18"/>
<circle clip-path="url(#clip0503)" style="fill:#e26f46; stroke:none; fill-opacity:1" cx="451.884" cy="399.666" r="14"/>
<circle clip-path="url(#clip0503)" style="fill:#000000; stroke:none; fill-opacity:1" cx="572.411" cy="393.853" r="18"/>
<circle clip-path="url(#clip0503)" style="fill:#e26f46; stroke:none; fill-opacity:1" cx="572.411" cy="393.853" r="14"/>
<circle clip-path="url(#clip0503)" style="fill:#000000; stroke:none; fill-opacity:1" cx="692.938" cy="384.403" r="18"/>
<circle clip-path="url(#clip0503)" style="fill:#e26f46; stroke:none; fill-opacity:1" cx="692.938" cy="384.403" r="14"/>
<circle clip-path="url(#clip0503)" style="fill:#000000; stroke:none; fill-opacity:1" cx="813.465" cy="367.855" r="18"/>
<circle clip-path="url(#clip0503)" style="fill:#e26f46; stroke:none; fill-opacity:1" cx="813.465" cy="367.855" r="14"/>
<circle clip-path="url(#clip0503)" style="fill:#000000; stroke:none; fill-opacity:1" cx="933.992" cy="336.433" r="18"/>
<circle clip-path="url(#clip0503)" style="fill:#e26f46; stroke:none; fill-opacity:1" cx="933.992" cy="336.433" r="14"/>
<circle clip-path="url(#clip0503)" style="fill:#000000; stroke:none; fill-opacity:1" cx="1054.52" cy="274.731" r="18"/>
<circle clip-path="url(#clip0503)" style="fill:#e26f46; stroke:none; fill-opacity:1" cx="1054.52" cy="274.731" r="14"/>
<circle clip-path="url(#clip0503)" style="fill:#000000; stroke:none; fill-opacity:1" cx="1175.05" cy="184.928" r="18"/>
<circle clip-path="url(#clip0503)" style="fill:#e26f46; stroke:none; fill-opacity:1" cx="1175.05" cy="184.928" r="14"/>
<circle clip-path="url(#clip0503)" style="fill:#000000; stroke:none; fill-opacity:1" cx="1295.57" cy="184.928" r="18"/>
<circle clip-path="url(#clip0503)" style="fill:#e26f46; stroke:none; fill-opacity:1" cx="1295.57" cy="184.928" r="14"/>
<circle clip-path="url(#clip0503)" style="fill:#000000; stroke:none; fill-opacity:1" cx="1416.1" cy="274.731" r="18"/>
<circle clip-path="url(#clip0503)" style="fill:#e26f46; stroke:none; fill-opacity:1" cx="1416.1" cy="274.731" r="14"/>
<circle clip-path="url(#clip0503)" style="fill:#000000; stroke:none; fill-opacity:1" cx="1536.63" cy="336.433" r="18"/>
<circle clip-path="url(#clip0503)" style="fill:#e26f46; stroke:none; fill-opacity:1" cx="1536.63" cy="336.433" r="14"/>
<circle clip-path="url(#clip0503)" style="fill:#000000; stroke:none; fill-opacity:1" cx="1657.16" cy="367.855" r="18"/>
<circle clip-path="url(#clip0503)" style="fill:#e26f46; stroke:none; fill-opacity:1" cx="1657.16" cy="367.855" r="14"/>
<circle clip-path="url(#clip0503)" style="fill:#000000; stroke:none; fill-opacity:1" cx="1777.68" cy="384.403" r="18"/>
<circle clip-path="url(#clip0503)" style="fill:#e26f46; stroke:none; fill-opacity:1" cx="1777.68" cy="384.403" r="14"/>
<circle clip-path="url(#clip0503)" style="fill:#000000; stroke:none; fill-opacity:1" cx="1898.21" cy="393.853" r="18"/>
<circle clip-path="url(#clip0503)" style="fill:#e26f46; stroke:none; fill-opacity:1" cx="1898.21" cy="393.853" r="14"/>
<circle clip-path="url(#clip0503)" style="fill:#000000; stroke:none; fill-opacity:1" cx="2018.74" cy="399.666" r="18"/>
<circle clip-path="url(#clip0503)" style="fill:#e26f46; stroke:none; fill-opacity:1" cx="2018.74" cy="399.666" r="14"/>
<circle clip-path="url(#clip0503)" style="fill:#000000; stroke:none; fill-opacity:1" cx="2139.26" cy="403.467" r="18"/>
<circle clip-path="url(#clip0503)" style="fill:#e26f46; stroke:none; fill-opacity:1" cx="2139.26" cy="403.467" r="14"/>
<circle clip-path="url(#clip0503)" style="fill:#000000; stroke:none; fill-opacity:1" cx="2259.79" cy="406.076" r="18"/>
<circle clip-path="url(#clip0503)" style="fill:#e26f46; stroke:none; fill-opacity:1" cx="2259.79" cy="406.076" r="14"/>
<polyline clip-path="url(#clip0503)" style="stroke:#3da44d; stroke-width:4; stroke-opacity:1; fill:none" points="
  210.829,406.076 212.88,566.877 214.931,710.35 216.982,837.688 219.034,950.022 221.085,1048.42 223.136,1133.91 225.187,1207.42 227.238,1269.89 229.289,1322.15 
  231.34,1365.01 233.391,1399.24 235.442,1425.55 237.493,1444.61 239.544,1457.07 241.595,1463.5 243.646,1464.49 245.697,1460.54 247.748,1452.16 249.799,1439.81 
  251.85,1423.9 253.901,1404.86 255.952,1383.04 258.003,1358.81 260.054,1332.49 262.105,1304.38 264.156,1274.76 266.207,1243.89 268.258,1212.01 270.309,1179.34 
  272.36,1146.09 274.411,1112.44 276.462,1078.57 278.513,1044.63 280.564,1010.76 282.615,977.093 284.666,943.749 286.717,910.831 288.768,878.434 290.819,846.643 
  292.87,815.531 294.921,785.164 296.972,755.6 299.023,726.888 301.074,699.07 303.125,672.181 305.176,646.251 307.227,621.302 309.278,597.351 311.329,574.412 
  313.38,552.491 315.431,531.593 317.482,511.717 319.533,492.859 321.584,475.012 323.635,458.166 325.686,442.307 327.737,427.421 329.788,413.489 331.839,400.491 
  333.89,388.408 335.941,377.216 337.992,366.89 340.043,357.406 342.094,348.737 344.145,340.856 346.196,333.735 348.247,327.347 350.298,321.661 352.349,316.651 
  354.4,312.285 356.451,308.536 358.502,305.373 360.553,302.769 362.604,300.694 364.655,299.119 366.706,298.017 368.757,297.36 370.808,297.12 372.859,297.271 
  374.91,297.786 376.961,298.64 379.012,299.807 381.064,301.264 383.115,302.987 385.166,304.953 387.217,307.139 389.268,309.525 391.319,312.089 393.37,314.812 
  395.421,317.675 397.472,320.659 399.523,323.747 401.574,326.922 403.625,330.167 405.676,333.469 407.727,336.812 409.778,340.182 411.829,343.568 413.88,346.956 
  415.931,350.335 417.982,353.695 420.033,357.026 422.084,360.317 424.135,363.561 426.186,366.75 428.237,369.876 430.288,372.932 432.339,375.913 434.39,378.812 
  436.441,381.625 438.492,384.348 440.543,386.975 442.594,389.505 444.645,391.934 446.696,394.259 448.747,396.479 450.798,398.592 452.849,400.596 454.9,402.491 
  456.951,404.276 459.002,405.952 461.053,407.518 463.104,408.975 465.155,410.323 467.206,411.565 469.257,412.7 471.308,413.731 473.359,414.66 475.41,415.488 
  477.461,416.218 479.512,416.851 481.563,417.391 483.614,417.84 485.665,418.2 487.716,418.475 489.767,418.668 491.818,418.781 493.869,418.818 495.92,418.782 
  497.971,418.676 500.022,418.503 502.073,418.267 504.124,417.971 506.175,417.618 508.226,417.212 510.277,416.755 512.328,416.252 514.379,415.705 516.43,415.118 
  518.481,414.494 520.532,413.836 522.583,413.146 524.634,412.429 526.685,411.687 528.736,410.923 530.787,410.14 532.838,409.34 534.889,408.527 536.94,407.702 
  538.991,406.869 541.042,406.03 543.093,405.187 545.145,404.342 547.196,403.497 549.247,402.656 551.298,401.818 553.349,400.988 555.4,400.165 557.451,399.352 
  559.502,398.551 561.553,397.762 563.604,396.988 565.655,396.229 567.706,395.487 569.757,394.762 571.808,394.057 573.859,393.371 575.91,392.705 577.961,392.061 
  580.012,391.439 582.063,390.839 584.114,390.262 586.165,389.708 588.216,389.177 590.267,388.671 592.318,388.188 594.369,387.73 596.42,387.295 598.471,386.885 
  600.522,386.498 602.573,386.135 604.624,385.795 606.675,385.479 608.726,385.185 610.777,384.914 612.828,384.665 614.879,384.437 616.93,384.23 618.981,384.043 
  621.032,383.876 623.083,383.729 625.134,383.599 627.185,383.488 629.236,383.393 631.287,383.314 633.338,383.251 635.389,383.203 637.44,383.168 639.491,383.147 
  641.542,383.137 643.593,383.139 645.644,383.151 647.695,383.173 649.746,383.204 651.797,383.242 653.848,383.287 655.899,383.339 657.95,383.396 660.001,383.457 
  662.052,383.522 664.103,383.59 666.154,383.659 668.205,383.73 670.256,383.801 672.307,383.872 674.358,383.941 676.409,384.009 678.46,384.074 680.511,384.136 
  682.562,384.194 684.613,384.247 686.664,384.295 688.715,384.337 690.766,384.373 692.817,384.401 694.868,384.423 696.919,384.436 698.97,384.44 701.021,384.436 
  703.072,384.422 705.123,384.399 707.174,384.366 709.226,384.322 711.277,384.267 713.328,384.201 715.379,384.124 717.43,384.036 719.481,383.935 721.532,383.823 
  723.583,383.699 725.634,383.563 727.685,383.414 729.736,383.253 731.787,383.08 733.838,382.894 735.889,382.696 737.94,382.485 739.991,382.263 742.042,382.028 
  744.093,381.78 746.144,381.521 748.195,381.25 750.246,380.967 752.297,380.673 754.348,380.367 756.399,380.05 758.45,379.722 760.501,379.383 762.552,379.034 
  764.603,378.674 766.654,378.304 768.705,377.925 770.756,377.536 772.807,377.139 774.858,376.732 776.909,376.317 778.96,375.893 781.011,375.462 783.062,375.023 
  785.113,374.577 787.164,374.124 789.215,373.665 791.266,373.199 793.317,372.728 795.368,372.251 797.419,371.769 799.47,371.282 801.521,370.79 803.572,370.295 
  805.623,369.795 807.674,369.292 809.725,368.786 811.776,368.276 813.827,367.764 815.878,367.25 817.929,366.733 819.98,366.215 822.031,365.695 824.082,365.173 
  826.133,364.651 828.184,364.127 830.235,363.603 832.286,363.079 834.337,362.554 836.388,362.029 838.439,361.504 840.49,360.979 842.541,360.454 844.592,359.93 
  846.643,359.406 848.694,358.883 850.745,358.36 852.796,357.838 854.847,357.317 856.898,356.796 858.949,356.276 861,355.757 863.051,355.238 865.102,354.72 
  867.153,354.203 869.204,353.686 871.255,353.169 873.307,352.653 875.358,352.136 877.409,351.62 879.46,351.104 881.511,350.587 883.562,350.07 885.613,349.551 
  887.664,349.032 889.715,348.512 891.766,347.991 893.817,347.468 895.868,346.942 897.919,346.415 899.97,345.885 902.021,345.353 904.072,344.817 906.123,344.278 
  908.174,343.735 910.225,343.188 912.276,342.636 914.327,342.08 916.378,341.519 918.429,340.952 920.48,340.38 922.531,339.801 924.582,339.215 926.633,338.623 
  928.684,338.023 930.735,337.415 932.786,336.799 934.837,336.175 936.888,335.541 938.939,334.898 940.99,334.246 943.041,333.583 945.092,332.91 947.143,332.226 
  949.194,331.53 951.245,330.823 953.296,330.104 955.347,329.372 957.398,328.628 959.449,327.87 961.5,327.099 963.551,326.314 965.602,325.515 967.653,324.702 
  969.704,323.873 971.755,323.03 973.806,322.171 975.857,321.296 977.908,320.406 979.959,319.499 982.01,318.576 984.061,317.636 986.112,316.68 988.163,315.706 
  990.214,314.715 992.265,313.706 994.316,312.68 996.367,311.637 998.418,310.575 1000.47,309.496 1002.52,308.398 1004.57,307.283 1006.62,306.149 1008.67,304.997 
  1010.72,303.827 1012.78,302.639 1014.83,301.433 1016.88,300.209 1018.93,298.967 1020.98,297.707 1023.03,296.429 1025.08,295.133 1027.13,293.82 1029.18,292.49 
  1031.23,291.143 1033.29,289.778 1035.34,288.398 1037.39,287 1039.44,285.587 1041.49,284.158 1043.54,282.713 1045.59,281.253 1047.64,279.778 1049.69,278.289 
  1051.74,276.786 1053.8,275.269 1055.85,273.739 1057.9,272.197 1059.95,270.642 1062,269.075 1064.05,267.497 1066.1,265.909 1068.15,264.31 1070.2,262.702 
  1072.25,261.085 1074.31,259.459 1076.36,257.826 1078.41,256.186 1080.46,254.539 1082.51,252.886 1084.56,251.228 1086.61,249.566 1088.66,247.9 1090.71,246.231 
  1092.76,244.56 1094.82,242.887 1096.87,241.213 1098.92,239.54 1100.97,237.867 1103.02,236.196 1105.07,234.527 1107.12,232.861 1109.17,231.199 1111.22,229.542 
  1113.27,227.89 1115.33,226.245 1117.38,224.607 1119.43,222.978 1121.48,221.357 1123.53,219.746 1125.58,218.145 1127.63,216.556 1129.68,214.979 1131.73,213.415 
  1133.79,211.865 1135.84,210.33 1137.89,208.811 1139.94,207.308 1141.99,205.823 1144.04,204.355 1146.09,202.907 1148.14,201.478 1150.19,200.07 1152.24,198.683 
  1154.3,197.318 1156.35,195.976 1158.4,194.658 1160.45,193.365 1162.5,192.096 1164.55,190.854 1166.6,189.638 1168.65,188.45 1170.7,187.289 1172.75,186.158 
  1174.81,185.056 1176.86,183.984 1178.91,182.943 1180.96,181.933 1183.01,180.955 1185.06,180.01 1187.11,179.098 1189.16,178.22 1191.21,177.376 1193.26,176.566 
  1195.32,175.792 1197.37,175.054 1199.42,174.352 1201.47,173.686 1203.52,173.057 1205.57,172.466 1207.62,171.912 1209.67,171.397 1211.72,170.92 1213.77,170.482 
  1215.83,170.082 1217.88,169.722 1219.93,169.401 1221.98,169.12 1224.03,168.879 1226.08,168.678 1228.13,168.517 1230.18,168.396 1232.23,168.315 1234.28,168.275 
  1236.34,168.275 1238.39,168.315 1240.44,168.396 1242.49,168.517 1244.54,168.678 1246.59,168.879 1248.64,169.12 1250.69,169.401 1252.74,169.722 1254.79,170.082 
  1256.85,170.482 1258.9,170.92 1260.95,171.397 1263,171.912 1265.05,172.466 1267.1,173.057 1269.15,173.686 1271.2,174.352 1273.25,175.054 1275.3,175.792 
  1277.36,176.566 1279.41,177.376 1281.46,178.22 1283.51,179.098 1285.56,180.01 1287.61,180.955 1289.66,181.933 1291.71,182.943 1293.76,183.984 1295.82,185.056 
  1297.87,186.158 1299.92,187.289 1301.97,188.45 1304.02,189.638 1306.07,190.854 1308.12,192.096 1310.17,193.365 1312.22,194.658 1314.27,195.976 1316.33,197.318 
  1318.38,198.683 1320.43,200.07 1322.48,201.478 1324.53,202.907 1326.58,204.355 1328.63,205.823 1330.68,207.308 1332.73,208.811 1334.78,210.33 1336.84,211.865 
  1338.89,213.415 1340.94,214.979 1342.99,216.556 1345.04,218.145 1347.09,219.746 1349.14,221.357 1351.19,222.978 1353.24,224.607 1355.29,226.245 1357.35,227.89 
  1359.4,229.542 1361.45,231.199 1363.5,232.861 1365.55,234.527 1367.6,236.196 1369.65,237.867 1371.7,239.54 1373.75,241.213 1375.8,242.887 1377.86,244.56 
  1379.91,246.231 1381.96,247.9 1384.01,249.566 1386.06,251.228 1388.11,252.886 1390.16,254.539 1392.21,256.186 1394.26,257.826 1396.31,259.459 1398.37,261.085 
  1400.42,262.702 1402.47,264.31 1404.52,265.909 1406.57,267.497 1408.62,269.075 1410.67,270.642 1412.72,272.197 1414.77,273.739 1416.82,275.269 1418.88,276.786 
  1420.93,278.289 1422.98,279.778 1425.03,281.253 1427.08,282.713 1429.13,284.158 1431.18,285.587 1433.23,287 1435.28,288.398 1437.33,289.778 1439.39,291.143 
  1441.44,292.49 1443.49,293.82 1445.54,295.133 1447.59,296.429 1449.64,297.707 1451.69,298.967 1453.74,300.209 1455.79,301.433 1457.85,302.639 1459.9,303.827 
  1461.95,304.997 1464,306.149 1466.05,307.283 1468.1,308.398 1470.15,309.496 1472.2,310.575 1474.25,311.637 1476.3,312.68 1478.36,313.706 1480.41,314.715 
  1482.46,315.706 1484.51,316.68 1486.56,317.636 1488.61,318.576 1490.66,319.499 1492.71,320.406 1494.76,321.296 1496.81,322.171 1498.87,323.03 1500.92,323.873 
  1502.97,324.702 1505.02,325.515 1507.07,326.314 1509.12,327.099 1511.17,327.87 1513.22,328.628 1515.27,329.372 1517.32,330.104 1519.38,330.823 1521.43,331.53 
  1523.48,332.226 1525.53,332.91 1527.58,333.583 1529.63,334.246 1531.68,334.898 1533.73,335.541 1535.78,336.175 1537.83,336.799 1539.89,337.415 1541.94,338.023 
  1543.99,338.623 1546.04,339.215 1548.09,339.801 1550.14,340.38 1552.19,340.952 1554.24,341.519 1556.29,342.08 1558.34,342.636 1560.4,343.188 1562.45,343.735 
  1564.5,344.278 1566.55,344.817 1568.6,345.353 1570.65,345.885 1572.7,346.415 1574.75,346.942 1576.8,347.468 1578.85,347.991 1580.91,348.512 1582.96,349.032 
  1585.01,349.551 1587.06,350.07 1589.11,350.587 1591.16,351.104 1593.21,351.62 1595.26,352.136 1597.31,352.653 1599.36,353.169 1601.42,353.686 1603.47,354.203 
  1605.52,354.72 1607.57,355.238 1609.62,355.757 1611.67,356.276 1613.72,356.796 1615.77,357.317 1617.82,357.838 1619.88,358.36 1621.93,358.883 1623.98,359.406 
  1626.03,359.93 1628.08,360.454 1630.13,360.979 1632.18,361.504 1634.23,362.029 1636.28,362.554 1638.33,363.079 1640.39,363.603 1642.44,364.127 1644.49,364.651 
  1646.54,365.173 1648.59,365.695 1650.64,366.215 1652.69,366.733 1654.74,367.25 1656.79,367.764 1658.84,368.276 1660.9,368.786 1662.95,369.292 1665,369.795 
  1667.05,370.295 1669.1,370.79 1671.15,371.282 1673.2,371.769 1675.25,372.251 1677.3,372.728 1679.35,373.199 1681.41,373.665 1683.46,374.124 1685.51,374.577 
  1687.56,375.023 1689.61,375.462 1691.66,375.893 1693.71,376.317 1695.76,376.732 1697.81,377.139 1699.86,377.536 1701.92,377.925 1703.97,378.304 1706.02,378.674 
  1708.07,379.034 1710.12,379.383 1712.17,379.722 1714.22,380.05 1716.27,380.367 1718.32,380.673 1720.37,380.967 1722.43,381.25 1724.48,381.521 1726.53,381.78 
  1728.58,382.028 1730.63,382.263 1732.68,382.485 1734.73,382.696 1736.78,382.894 1738.83,383.08 1740.88,383.253 1742.94,383.414 1744.99,383.563 1747.04,383.699 
  1749.09,383.823 1751.14,383.935 1753.19,384.036 1755.24,384.124 1757.29,384.201 1759.34,384.267 1761.39,384.322 1763.45,384.366 1765.5,384.399 1767.55,384.422 
  1769.6,384.436 1771.65,384.44 1773.7,384.436 1775.75,384.423 1777.8,384.401 1779.85,384.373 1781.91,384.337 1783.96,384.295 1786.01,384.247 1788.06,384.194 
  1790.11,384.136 1792.16,384.074 1794.21,384.009 1796.26,383.941 1798.31,383.872 1800.36,383.801 1802.42,383.73 1804.47,383.659 1806.52,383.59 1808.57,383.522 
  1810.62,383.457 1812.67,383.396 1814.72,383.339 1816.77,383.287 1818.82,383.242 1820.87,383.204 1822.93,383.173 1824.98,383.151 1827.03,383.139 1829.08,383.137 
  1831.13,383.147 1833.18,383.168 1835.23,383.203 1837.28,383.251 1839.33,383.314 1841.38,383.393 1843.44,383.488 1845.49,383.599 1847.54,383.729 1849.59,383.876 
  1851.64,384.043 1853.69,384.23 1855.74,384.437 1857.79,384.665 1859.84,384.914 1861.89,385.185 1863.95,385.479 1866,385.795 1868.05,386.135 1870.1,386.498 
  1872.15,386.885 1874.2,387.295 1876.25,387.73 1878.3,388.188 1880.35,388.671 1882.4,389.177 1884.46,389.708 1886.51,390.262 1888.56,390.839 1890.61,391.439 
  1892.66,392.061 1894.71,392.705 1896.76,393.371 1898.81,394.057 1900.86,394.762 1902.91,395.487 1904.97,396.229 1907.02,396.988 1909.07,397.762 1911.12,398.551 
  1913.17,399.352 1915.22,400.165 1917.27,400.988 1919.32,401.818 1921.37,402.656 1923.42,403.497 1925.48,404.342 1927.53,405.187 1929.58,406.03 1931.63,406.869 
  1933.68,407.702 1935.73,408.527 1937.78,409.34 1939.83,410.14 1941.88,410.923 1943.94,411.687 1945.99,412.429 1948.04,413.146 1950.09,413.836 1952.14,414.494 
  1954.19,415.118 1956.24,415.705 1958.29,416.252 1960.34,416.755 1962.39,417.212 1964.45,417.618 1966.5,417.971 1968.55,418.267 1970.6,418.503 1972.65,418.676 
  1974.7,418.782 1976.75,418.818 1978.8,418.781 1980.85,418.668 1982.9,418.475 1984.96,418.2 1987.01,417.84 1989.06,417.391 1991.11,416.851 1993.16,416.218 
  1995.21,415.488 1997.26,414.66 1999.31,413.731 2001.36,412.7 2003.41,411.565 2005.47,410.323 2007.52,408.975 2009.57,407.518 2011.62,405.952 2013.67,404.276 
  2015.72,402.491 2017.77,400.596 2019.82,398.592 2021.87,396.479 2023.92,394.259 2025.98,391.934 2028.03,389.505 2030.08,386.975 2032.13,384.348 2034.18,381.625 
  2036.23,378.812 2038.28,375.913 2040.33,372.932 2042.38,369.876 2044.43,366.75 2046.49,363.561 2048.54,360.317 2050.59,357.026 2052.64,353.695 2054.69,350.335 
  2056.74,346.956 2058.79,343.568 2060.84,340.182 2062.89,336.812 2064.94,333.469 2067,330.167 2069.05,326.922 2071.1,323.747 2073.15,320.659 2075.2,317.675 
  2077.25,314.812 2079.3,312.089 2081.35,309.525 2083.4,307.139 2085.45,304.953 2087.51,302.987 2089.56,301.264 2091.61,299.807 2093.66,298.64 2095.71,297.786 
  2097.76,297.271 2099.81,297.12 2101.86,297.36 2103.91,298.017 2105.97,299.119 2108.02,300.694 2110.07,302.769 2112.12,305.373 2114.17,308.536 2116.22,312.285 
  2118.27,316.651 2120.32,321.661 2122.37,327.347 2124.42,333.735 2126.48,340.856 2128.53,348.737 2130.58,357.406 2132.63,366.89 2134.68,377.216 2136.73,388.408 
  2138.78,400.491 2140.83,413.489 2142.88,427.421 2144.93,442.307 2146.99,458.166 2149.04,475.012 2151.09,492.859 2153.14,511.717 2155.19,531.593 2157.24,552.491 
  2159.29,574.412 2161.34,597.351 2163.39,621.302 2165.44,646.251 2167.5,672.181 2169.55,699.07 2171.6,726.888 2173.65,755.6 2175.7,785.164 2177.75,815.531 
  2179.8,846.643 2181.85,878.434 2183.9,910.831 2185.95,943.749 2188.01,977.093 2190.06,1010.76 2192.11,1044.63 2194.16,1078.57 2196.21,1112.44 2198.26,1146.09 
  2200.31,1179.34 2202.36,1212.01 2204.41,1243.89 2206.46,1274.76 2208.52,1304.38 2210.57,1332.49 2212.62,1358.81 2214.67,1383.04 2216.72,1404.86 2218.77,1423.9 
  2220.82,1439.81 2222.87,1452.16 2224.92,1460.54 2226.97,1464.49 2229.03,1463.5 2231.08,1457.07 2233.13,1444.61 2235.18,1425.55 2237.23,1399.24 2239.28,1365.01 
  2241.33,1322.15 2243.38,1269.89 2245.43,1207.42 2247.48,1133.91 2249.54,1048.42 2251.59,950.022 2253.64,837.688 2255.69,710.35 2257.74,566.877 2259.79,406.076 
  
  "/>
<polygon clip-path="url(#clip0501)" points="
1685.51,451.424 2249.26,451.424 2249.26,209.504 1685.51,209.504 
  " fill="#ffffff" fill-rule="evenodd" fill-opacity="1"/>
<polyline clip-path="url(#clip0501)" style="stroke:#000000; stroke-width:4; stroke-opacity:1; fill:none" points="
  1685.51,451.424 2249.26,451.424 2249.26,209.504 1685.51,209.504 1685.51,451.424 
  "/>
<polyline clip-path="url(#clip0501)" style="stroke:#009af9; stroke-width:4; stroke-opacity:1; fill:none" points="
  1709.51,269.984 1853.51,269.984 
  "/>
<g clip-path="url(#clip0501)">
<text style="fill:#000000; fill-opacity:1; font-family:Arial,Helvetica Neue,Helvetica,sans-serif; font-size:48px; text-anchor:start;" transform="rotate(0, 1877.51, 287.484)" x="1877.51" y="287.484">Runge function</text>
</g>
<circle clip-path="url(#clip0501)" style="fill:#000000; stroke:none; fill-opacity:1" cx="1793.51" cy="330.464" r="25"/>
<circle clip-path="url(#clip0501)" style="fill:#e26f46; stroke:none; fill-opacity:1" cx="1793.51" cy="330.464" r="21"/>
<g clip-path="url(#clip0501)">
<text style="fill:#000000; fill-opacity:1; font-family:Arial,Helvetica Neue,Helvetica,sans-serif; font-size:48px; text-anchor:start;" transform="rotate(0, 1877.51, 347.964)" x="1877.51" y="347.964">Nodes</text>
</g>
<polyline clip-path="url(#clip0501)" style="stroke:#3da44d; stroke-width:4; stroke-opacity:1; fill:none" points="
  1709.51,390.944 1853.51,390.944 
  "/>
<g clip-path="url(#clip0501)">
<text style="fill:#000000; fill-opacity:1; font-family:Arial,Helvetica Neue,Helvetica,sans-serif; font-size:48px; text-anchor:start;" transform="rotate(0, 1877.51, 408.444)" x="1877.51" y="408.444">Intepolation</text>
</g>
</svg>
