<?xml version="1.0" encoding="utf-8"?>
<svg xmlns="http://www.w3.org/2000/svg" xmlns:xlink="http://www.w3.org/1999/xlink" width="600" height="400" viewBox="0 0 2400 1600">
<defs>
  <clipPath id="clip9700">
    <rect x="0" y="0" width="2000" height="2000"/>
  </clipPath>
</defs>
<defs>
  <clipPath id="clip9701">
    <rect x="0" y="0" width="2400" height="1600"/>
  </clipPath>
</defs>
<polygon clip-path="url(#clip9701)" points="
0,1600 2400,1600 2400,0 0,0 
  " fill="#ffffff" fill-rule="evenodd" fill-opacity="1"/>
<defs>
  <clipPath id="clip9702">
    <rect x="480" y="0" width="1681" height="1600"/>
  </clipPath>
</defs>
<polygon clip-path="url(#clip9701)" points="
189.504,1503.47 2321.26,1503.47 2321.26,125.984 189.504,125.984 
  " fill="#ffffff" fill-rule="evenodd" fill-opacity="1"/>
<defs>
  <clipPath id="clip9703">
    <rect x="189" y="125" width="2133" height="1378"/>
  </clipPath>
</defs>
<polyline clip-path="url(#clip9703)" style="stroke:#000000; stroke-width:2; stroke-opacity:0.1; fill:none" points="
  249.837,1503.47 249.837,125.984 
  "/>
<polyline clip-path="url(#clip9703)" style="stroke:#000000; stroke-width:2; stroke-opacity:0.1; fill:none" points="
  752.609,1503.47 752.609,125.984 
  "/>
<polyline clip-path="url(#clip9703)" style="stroke:#000000; stroke-width:2; stroke-opacity:0.1; fill:none" points="
  1255.38,1503.47 1255.38,125.984 
  "/>
<polyline clip-path="url(#clip9703)" style="stroke:#000000; stroke-width:2; stroke-opacity:0.1; fill:none" points="
  1758.15,1503.47 1758.15,125.984 
  "/>
<polyline clip-path="url(#clip9703)" style="stroke:#000000; stroke-width:2; stroke-opacity:0.1; fill:none" points="
  2260.93,1503.47 2260.93,125.984 
  "/>
<polyline clip-path="url(#clip9703)" style="stroke:#000000; stroke-width:2; stroke-opacity:0.1; fill:none" points="
  189.504,1446.47 2321.26,1446.47 
  "/>
<polyline clip-path="url(#clip9703)" style="stroke:#000000; stroke-width:2; stroke-opacity:0.1; fill:none" points="
  189.504,1126.09 2321.26,1126.09 
  "/>
<polyline clip-path="url(#clip9703)" style="stroke:#000000; stroke-width:2; stroke-opacity:0.1; fill:none" points="
  189.504,805.713 2321.26,805.713 
  "/>
<polyline clip-path="url(#clip9703)" style="stroke:#000000; stroke-width:2; stroke-opacity:0.1; fill:none" points="
  189.504,485.333 2321.26,485.333 
  "/>
<polyline clip-path="url(#clip9703)" style="stroke:#000000; stroke-width:2; stroke-opacity:0.1; fill:none" points="
  189.504,164.954 2321.26,164.954 
  "/>
<polyline clip-path="url(#clip9701)" style="stroke:#000000; stroke-width:4; stroke-opacity:1; fill:none" points="
  189.504,1503.47 2321.26,1503.47 
  "/>
<polyline clip-path="url(#clip9701)" style="stroke:#000000; stroke-width:4; stroke-opacity:1; fill:none" points="
  189.504,1503.47 189.504,125.984 
  "/>
<polyline clip-path="url(#clip9701)" style="stroke:#000000; stroke-width:4; stroke-opacity:1; fill:none" points="
  249.837,1503.47 249.837,1482.81 
  "/>
<polyline clip-path="url(#clip9701)" style="stroke:#000000; stroke-width:4; stroke-opacity:1; fill:none" points="
  752.609,1503.47 752.609,1482.81 
  "/>
<polyline clip-path="url(#clip9701)" style="stroke:#000000; stroke-width:4; stroke-opacity:1; fill:none" points="
  1255.38,1503.47 1255.38,1482.81 
  "/>
<polyline clip-path="url(#clip9701)" style="stroke:#000000; stroke-width:4; stroke-opacity:1; fill:none" points="
  1758.15,1503.47 1758.15,1482.81 
  "/>
<polyline clip-path="url(#clip9701)" style="stroke:#000000; stroke-width:4; stroke-opacity:1; fill:none" points="
  2260.93,1503.47 2260.93,1482.81 
  "/>
<polyline clip-path="url(#clip9701)" style="stroke:#000000; stroke-width:4; stroke-opacity:1; fill:none" points="
  189.504,1446.47 221.48,1446.47 
  "/>
<polyline clip-path="url(#clip9701)" style="stroke:#000000; stroke-width:4; stroke-opacity:1; fill:none" points="
  189.504,1126.09 221.48,1126.09 
  "/>
<polyline clip-path="url(#clip9701)" style="stroke:#000000; stroke-width:4; stroke-opacity:1; fill:none" points="
  189.504,805.713 221.48,805.713 
  "/>
<polyline clip-path="url(#clip9701)" style="stroke:#000000; stroke-width:4; stroke-opacity:1; fill:none" points="
  189.504,485.333 221.48,485.333 
  "/>
<polyline clip-path="url(#clip9701)" style="stroke:#000000; stroke-width:4; stroke-opacity:1; fill:none" points="
  189.504,164.954 221.48,164.954 
  "/>
<g clip-path="url(#clip9701)">
<text style="fill:#000000; fill-opacity:1; font-family:Arial,Helvetica Neue,Helvetica,sans-serif; font-size:48px; text-anchor:middle;" transform="rotate(0, 249.837, 1557.47)" x="249.837" y="1557.47">-1.0</text>
</g>
<g clip-path="url(#clip9701)">
<text style="fill:#000000; fill-opacity:1; font-family:Arial,Helvetica Neue,Helvetica,sans-serif; font-size:48px; text-anchor:middle;" transform="rotate(0, 752.609, 1557.47)" x="752.609" y="1557.47">-0.5</text>
</g>
<g clip-path="url(#clip9701)">
<text style="fill:#000000; fill-opacity:1; font-family:Arial,Helvetica Neue,Helvetica,sans-serif; font-size:48px; text-anchor:middle;" transform="rotate(0, 1255.38, 1557.47)" x="1255.38" y="1557.47">0.0</text>
</g>
<g clip-path="url(#clip9701)">
<text style="fill:#000000; fill-opacity:1; font-family:Arial,Helvetica Neue,Helvetica,sans-serif; font-size:48px; text-anchor:middle;" transform="rotate(0, 1758.15, 1557.47)" x="1758.15" y="1557.47">0.5</text>
</g>
<g clip-path="url(#clip9701)">
<text style="fill:#000000; fill-opacity:1; font-family:Arial,Helvetica Neue,Helvetica,sans-serif; font-size:48px; text-anchor:middle;" transform="rotate(0, 2260.93, 1557.47)" x="2260.93" y="1557.47">1.0</text>
</g>
<g clip-path="url(#clip9701)">
<text style="fill:#000000; fill-opacity:1; font-family:Arial,Helvetica Neue,Helvetica,sans-serif; font-size:48px; text-anchor:end;" transform="rotate(0, 165.504, 1463.97)" x="165.504" y="1463.97">-1.0</text>
</g>
<g clip-path="url(#clip9701)">
<text style="fill:#000000; fill-opacity:1; font-family:Arial,Helvetica Neue,Helvetica,sans-serif; font-size:48px; text-anchor:end;" transform="rotate(0, 165.504, 1143.59)" x="165.504" y="1143.59">-0.5</text>
</g>
<g clip-path="url(#clip9701)">
<text style="fill:#000000; fill-opacity:1; font-family:Arial,Helvetica Neue,Helvetica,sans-serif; font-size:48px; text-anchor:end;" transform="rotate(0, 165.504, 823.213)" x="165.504" y="823.213">0.0</text>
</g>
<g clip-path="url(#clip9701)">
<text style="fill:#000000; fill-opacity:1; font-family:Arial,Helvetica Neue,Helvetica,sans-serif; font-size:48px; text-anchor:end;" transform="rotate(0, 165.504, 502.833)" x="165.504" y="502.833">0.5</text>
</g>
<g clip-path="url(#clip9701)">
<text style="fill:#000000; fill-opacity:1; font-family:Arial,Helvetica Neue,Helvetica,sans-serif; font-size:48px; text-anchor:end;" transform="rotate(0, 165.504, 182.454)" x="165.504" y="182.454">1.0</text>
</g>
<g clip-path="url(#clip9701)">
<text style="fill:#000000; fill-opacity:1; font-family:Arial,Helvetica Neue,Helvetica,sans-serif; font-size:84px; text-anchor:middle;" transform="rotate(0, 1255.38, 73.2)" x="1255.38" y="73.2">Runge&apos;s phenomenon (Nodes = 14)</text>
</g>
<polyline clip-path="url(#clip9703)" style="stroke:#009af9; stroke-width:4; stroke-opacity:1; fill:none" points="
  249.837,781.069 251.85,780.973 253.863,780.878 255.876,780.781 257.889,780.685 259.902,780.587 261.915,780.489 263.929,780.391 265.942,780.292 267.955,780.192 
  269.968,780.092 271.981,779.991 273.994,779.89 276.007,779.788 278.02,779.685 280.033,779.582 282.046,779.478 284.06,779.374 286.073,779.269 288.086,779.163 
  290.099,779.057 292.112,778.95 294.125,778.843 296.138,778.735 298.151,778.626 300.164,778.516 302.178,778.406 304.191,778.296 306.204,778.184 308.217,778.072 
  310.23,777.959 312.243,777.846 314.256,777.732 316.269,777.617 318.282,777.501 320.295,777.385 322.309,777.268 324.322,777.15 326.335,777.032 328.348,776.913 
  330.361,776.793 332.374,776.673 334.387,776.551 336.4,776.429 338.413,776.306 340.426,776.183 342.44,776.059 344.453,775.933 346.466,775.808 348.479,775.681 
  350.492,775.553 352.505,775.425 354.518,775.296 356.531,775.166 358.544,775.035 360.558,774.904 362.571,774.771 364.584,774.638 366.597,774.504 368.61,774.369 
  370.623,774.233 372.636,774.097 374.649,773.959 376.662,773.821 378.675,773.682 380.689,773.541 382.702,773.4 384.715,773.258 386.728,773.115 388.741,772.971 
  390.754,772.827 392.767,772.681 394.78,772.534 396.793,772.387 398.806,772.238 400.82,772.088 402.833,771.938 404.846,771.786 406.859,771.633 408.872,771.48 
  410.885,771.325 412.898,771.17 414.911,771.013 416.924,770.855 418.938,770.696 420.951,770.536 422.964,770.375 424.977,770.213 426.99,770.05 429.003,769.886 
  431.016,769.721 433.029,769.554 435.042,769.387 437.055,769.218 439.069,769.048 441.082,768.877 443.095,768.705 445.108,768.531 447.121,768.357 449.134,768.181 
  451.147,768.004 453.16,767.825 455.173,767.646 457.186,767.465 459.2,767.283 461.213,767.1 463.226,766.915 465.239,766.729 467.252,766.542 469.265,766.353 
  471.278,766.164 473.291,765.972 475.304,765.78 477.318,765.586 479.331,765.39 481.344,765.194 483.357,764.996 485.37,764.796 487.383,764.595 489.396,764.393 
  491.409,764.189 493.422,763.983 495.435,763.776 497.449,763.568 499.462,763.358 501.475,763.147 503.488,762.934 505.501,762.719 507.514,762.503 509.527,762.285 
  511.54,762.066 513.553,761.845 515.566,761.622 517.58,761.398 519.593,761.172 521.606,760.944 523.619,760.715 525.632,760.484 527.645,760.251 529.658,760.017 
  531.671,759.78 533.684,759.542 535.698,759.302 537.711,759.06 539.724,758.817 541.737,758.571 543.75,758.324 545.763,758.075 547.776,757.824 549.789,757.571 
  551.802,757.316 553.815,757.059 555.829,756.8 557.842,756.538 559.855,756.275 561.868,756.01 563.881,755.743 565.894,755.474 567.907,755.202 569.92,754.929 
  571.933,754.653 573.946,754.375 575.96,754.095 577.973,753.813 579.986,753.528 581.999,753.241 584.012,752.952 586.025,752.66 588.038,752.366 590.051,752.07 
  592.064,751.772 594.078,751.471 596.091,751.167 598.104,750.861 600.117,750.553 602.13,750.241 604.143,749.928 606.156,749.612 608.169,749.293 610.182,748.972 
  612.195,748.648 614.209,748.321 616.222,747.991 618.235,747.659 620.248,747.324 622.261,746.986 624.274,746.646 626.287,746.302 628.3,745.956 630.313,745.606 
  632.326,745.254 634.34,744.899 636.353,744.54 638.366,744.179 640.379,743.814 642.392,743.447 644.405,743.076 646.418,742.702 648.431,742.325 650.444,741.944 
  652.458,741.56 654.471,741.173 656.484,740.782 658.497,740.388 660.51,739.991 662.523,739.59 664.536,739.186 666.549,738.777 668.562,738.366 670.575,737.95 
  672.589,737.531 674.602,737.109 676.615,736.682 678.628,736.252 680.641,735.817 682.654,735.379 684.667,734.937 686.68,734.491 688.693,734.041 690.706,733.586 
  692.72,733.128 694.733,732.665 696.746,732.198 698.759,731.727 700.772,731.251 702.785,730.772 704.798,730.287 706.811,729.798 708.824,729.305 710.838,728.807 
  712.851,728.304 714.864,727.797 716.877,727.284 718.89,726.767 720.903,726.245 722.916,725.719 724.929,725.187 726.942,724.65 728.955,724.108 730.969,723.56 
  732.982,723.008 734.995,722.45 737.008,721.887 739.021,721.318 741.034,720.744 743.047,720.164 745.06,719.579 747.073,718.988 749.086,718.391 751.1,717.788 
  753.113,717.18 755.126,716.565 757.139,715.944 759.152,715.318 761.165,714.685 763.178,714.045 765.191,713.399 767.204,712.747 769.218,712.088 771.231,711.423 
  773.244,710.751 775.257,710.072 777.27,709.386 779.283,708.693 781.296,707.994 783.309,707.287 785.322,706.573 787.335,705.851 789.349,705.122 791.362,704.386 
  793.375,703.642 795.388,702.89 797.401,702.131 799.414,701.363 801.427,700.588 803.44,699.805 805.453,699.013 807.466,698.213 809.48,697.405 811.493,696.588 
  813.506,695.762 815.519,694.928 817.532,694.085 819.545,693.232 821.558,692.371 823.571,691.501 825.584,690.621 827.598,689.732 829.611,688.833 831.624,687.924 
  833.637,687.006 835.65,686.078 837.663,685.139 839.676,684.191 841.689,683.232 843.702,682.262 845.715,681.282 847.729,680.291 849.742,679.29 851.755,678.277 
  853.768,677.253 855.781,676.218 857.794,675.171 859.807,674.112 861.82,673.042 863.833,671.96 865.846,670.865 867.86,669.759 869.873,668.64 871.886,667.508 
  873.899,666.364 875.912,665.206 877.925,664.036 879.938,662.852 881.951,661.655 883.964,660.444 885.978,659.219 887.991,657.981 890.004,656.728 892.017,655.461 
  894.03,654.179 896.043,652.882 898.056,651.571 900.069,650.244 902.082,648.902 904.095,647.545 906.109,646.172 908.122,644.782 910.135,643.377 912.148,641.955 
  914.161,640.517 916.174,639.062 918.187,637.59 920.2,636.1 922.213,634.594 924.226,633.069 926.24,631.527 928.253,629.966 930.266,628.387 932.279,626.789 
  934.292,625.173 936.305,623.537 938.318,621.882 940.331,620.208 942.344,618.514 944.358,616.799 946.371,615.065 948.384,613.309 950.397,611.533 952.41,609.736 
  954.423,607.917 956.436,606.077 958.449,604.215 960.462,602.331 962.475,600.425 964.489,598.496 966.502,596.544 968.515,594.568 970.528,592.57 972.541,590.547 
  974.554,588.501 976.567,586.43 978.58,584.335 980.593,582.215 982.606,580.07 984.62,577.9 986.633,575.704 988.646,573.482 990.659,571.234 992.672,568.959 
  994.685,566.658 996.698,564.33 998.711,561.975 1000.72,559.592 1002.74,557.181 1004.75,554.743 1006.76,552.276 1008.78,549.781 1010.79,547.257 1012.8,544.704 
  1014.82,542.122 1016.83,539.511 1018.84,536.869 1020.86,534.198 1022.87,531.497 1024.88,528.766 1026.89,526.004 1028.91,523.211 1030.92,520.388 1032.93,517.533 
  1034.95,514.648 1036.96,511.731 1038.97,508.782 1040.99,505.802 1043,502.79 1045.01,499.746 1047.03,496.671 1049.04,493.563 1051.05,490.424 1053.07,487.252 
  1055.08,484.048 1057.09,480.812 1059.1,477.544 1061.12,474.244 1063.13,470.912 1065.14,467.548 1067.16,464.153 1069.17,460.725 1071.18,457.266 1073.2,453.776 
  1075.21,450.255 1077.22,446.703 1079.24,443.12 1081.25,439.507 1083.26,435.864 1085.27,432.192 1087.29,428.49 1089.3,424.76 1091.31,421.001 1093.33,417.215 
  1095.34,413.401 1097.35,409.561 1099.37,405.696 1101.38,401.805 1103.39,397.889 1105.41,393.95 1107.42,389.988 1109.43,386.005 1111.45,382 1113.46,377.976 
  1115.47,373.932 1117.48,369.871 1119.5,365.794 1121.51,361.701 1123.52,357.593 1125.54,353.474 1127.55,349.342 1129.56,345.201 1131.58,341.052 1133.59,336.896 
  1135.6,332.735 1137.62,328.571 1139.63,324.405 1141.64,320.24 1143.65,316.076 1145.67,311.917 1147.68,307.765 1149.69,303.62 1151.71,299.487 1153.72,295.366 
  1155.73,291.26 1157.75,287.172 1159.76,283.104 1161.77,279.058 1163.79,275.037 1165.8,271.044 1167.81,267.081 1169.83,263.15 1171.84,259.256 1173.85,255.4 
  1175.86,251.585 1177.88,247.814 1179.89,244.09 1181.9,240.416 1183.92,236.795 1185.93,233.23 1187.94,229.724 1189.96,226.279 1191.97,222.899 1193.98,219.587 
  1196,216.346 1198.01,213.179 1200.02,210.088 1202.03,207.077 1204.05,204.149 1206.06,201.306 1208.07,198.551 1210.09,195.888 1212.1,193.318 1214.11,190.845 
  1216.13,188.471 1218.14,186.199 1220.15,184.031 1222.17,181.969 1224.18,180.016 1226.19,178.174 1228.21,176.445 1230.22,174.831 1232.23,173.334 1234.24,171.955 
  1236.26,170.696 1238.27,169.559 1240.28,168.545 1242.3,167.655 1244.31,166.89 1246.32,166.251 1248.34,165.739 1250.35,165.355 1252.36,165.098 1254.38,164.97 
  1256.39,164.97 1258.4,165.098 1260.41,165.355 1262.43,165.739 1264.44,166.251 1266.45,166.89 1268.47,167.655 1270.48,168.545 1272.49,169.559 1274.51,170.696 
  1276.52,171.955 1278.53,173.334 1280.55,174.831 1282.56,176.445 1284.57,178.174 1286.59,180.016 1288.6,181.969 1290.61,184.031 1292.62,186.199 1294.64,188.471 
  1296.65,190.845 1298.66,193.318 1300.68,195.888 1302.69,198.551 1304.7,201.306 1306.72,204.149 1308.73,207.077 1310.74,210.088 1312.76,213.179 1314.77,216.346 
  1316.78,219.587 1318.79,222.899 1320.81,226.279 1322.82,229.724 1324.83,233.23 1326.85,236.795 1328.86,240.416 1330.87,244.09 1332.89,247.814 1334.9,251.585 
  1336.91,255.4 1338.93,259.256 1340.94,263.15 1342.95,267.081 1344.97,271.044 1346.98,275.037 1348.99,279.058 1351,283.104 1353.02,287.172 1355.03,291.26 
  1357.04,295.366 1359.06,299.487 1361.07,303.62 1363.08,307.765 1365.1,311.917 1367.11,316.076 1369.12,320.24 1371.14,324.405 1373.15,328.571 1375.16,332.735 
  1377.17,336.896 1379.19,341.052 1381.2,345.201 1383.21,349.342 1385.23,353.474 1387.24,357.593 1389.25,361.701 1391.27,365.794 1393.28,369.871 1395.29,373.932 
  1397.31,377.976 1399.32,382 1401.33,386.005 1403.35,389.988 1405.36,393.95 1407.37,397.889 1409.38,401.805 1411.4,405.696 1413.41,409.561 1415.42,413.401 
  1417.44,417.215 1419.45,421.001 1421.46,424.76 1423.48,428.49 1425.49,432.192 1427.5,435.864 1429.52,439.507 1431.53,443.12 1433.54,446.703 1435.55,450.255 
  1437.57,453.776 1439.58,457.266 1441.59,460.725 1443.61,464.153 1445.62,467.548 1447.63,470.912 1449.65,474.244 1451.66,477.544 1453.67,480.812 1455.69,484.048 
  1457.7,487.252 1459.71,490.424 1461.73,493.563 1463.74,496.671 1465.75,499.746 1467.76,502.79 1469.78,505.802 1471.79,508.782 1473.8,511.731 1475.82,514.648 
  1477.83,517.533 1479.84,520.388 1481.86,523.211 1483.87,526.004 1485.88,528.766 1487.9,531.497 1489.91,534.198 1491.92,536.869 1493.93,539.511 1495.95,542.122 
  1497.96,544.704 1499.97,547.257 1501.99,549.781 1504,552.276 1506.01,554.743 1508.03,557.181 1510.04,559.592 1512.05,561.975 1514.07,564.33 1516.08,566.658 
  1518.09,568.959 1520.11,571.234 1522.12,573.482 1524.13,575.704 1526.14,577.9 1528.16,580.07 1530.17,582.215 1532.18,584.335 1534.2,586.43 1536.21,588.501 
  1538.22,590.547 1540.24,592.57 1542.25,594.568 1544.26,596.544 1546.28,598.496 1548.29,600.425 1550.3,602.331 1552.31,604.215 1554.33,606.077 1556.34,607.917 
  1558.35,609.736 1560.37,611.533 1562.38,613.309 1564.39,615.065 1566.41,616.799 1568.42,618.514 1570.43,620.208 1572.45,621.882 1574.46,623.537 1576.47,625.173 
  1578.49,626.789 1580.5,628.387 1582.51,629.966 1584.52,631.527 1586.54,633.069 1588.55,634.594 1590.56,636.1 1592.58,637.59 1594.59,639.062 1596.6,640.517 
  1598.62,641.955 1600.63,643.377 1602.64,644.782 1604.66,646.172 1606.67,647.545 1608.68,648.902 1610.69,650.244 1612.71,651.571 1614.72,652.882 1616.73,654.179 
  1618.75,655.461 1620.76,656.728 1622.77,657.981 1624.79,659.219 1626.8,660.444 1628.81,661.655 1630.83,662.852 1632.84,664.036 1634.85,665.206 1636.87,666.364 
  1638.88,667.508 1640.89,668.64 1642.9,669.759 1644.92,670.865 1646.93,671.96 1648.94,673.042 1650.96,674.112 1652.97,675.171 1654.98,676.218 1657,677.253 
  1659.01,678.277 1661.02,679.29 1663.04,680.291 1665.05,681.282 1667.06,682.262 1669.07,683.232 1671.09,684.191 1673.1,685.139 1675.11,686.078 1677.13,687.006 
  1679.14,687.924 1681.15,688.833 1683.17,689.732 1685.18,690.621 1687.19,691.501 1689.21,692.371 1691.22,693.232 1693.23,694.085 1695.25,694.928 1697.26,695.762 
  1699.27,696.588 1701.28,697.405 1703.3,698.213 1705.31,699.013 1707.32,699.805 1709.34,700.588 1711.35,701.363 1713.36,702.131 1715.38,702.89 1717.39,703.642 
  1719.4,704.386 1721.42,705.122 1723.43,705.851 1725.44,706.573 1727.45,707.287 1729.47,707.994 1731.48,708.693 1733.49,709.386 1735.51,710.072 1737.52,710.751 
  1739.53,711.423 1741.55,712.088 1743.56,712.747 1745.57,713.399 1747.59,714.045 1749.6,714.685 1751.61,715.318 1753.63,715.944 1755.64,716.565 1757.65,717.18 
  1759.66,717.788 1761.68,718.391 1763.69,718.988 1765.7,719.579 1767.72,720.164 1769.73,720.744 1771.74,721.318 1773.76,721.887 1775.77,722.45 1777.78,723.008 
  1779.8,723.56 1781.81,724.108 1783.82,724.65 1785.83,725.187 1787.85,725.719 1789.86,726.245 1791.87,726.767 1793.89,727.284 1795.9,727.797 1797.91,728.304 
  1799.93,728.807 1801.94,729.305 1803.95,729.798 1805.97,730.287 1807.98,730.772 1809.99,731.251 1812.01,731.727 1814.02,732.198 1816.03,732.665 1818.04,733.128 
  1820.06,733.586 1822.07,734.041 1824.08,734.491 1826.1,734.937 1828.11,735.379 1830.12,735.817 1832.14,736.252 1834.15,736.682 1836.16,737.109 1838.18,737.531 
  1840.19,737.95 1842.2,738.366 1844.21,738.777 1846.23,739.186 1848.24,739.59 1850.25,739.991 1852.27,740.388 1854.28,740.782 1856.29,741.173 1858.31,741.56 
  1860.32,741.944 1862.33,742.325 1864.35,742.702 1866.36,743.076 1868.37,743.447 1870.39,743.814 1872.4,744.179 1874.41,744.54 1876.42,744.899 1878.44,745.254 
  1880.45,745.606 1882.46,745.956 1884.48,746.302 1886.49,746.646 1888.5,746.986 1890.52,747.324 1892.53,747.659 1894.54,747.991 1896.56,748.321 1898.57,748.648 
  1900.58,748.972 1902.59,749.293 1904.61,749.612 1906.62,749.928 1908.63,750.241 1910.65,750.553 1912.66,750.861 1914.67,751.167 1916.69,751.471 1918.7,751.772 
  1920.71,752.07 1922.73,752.366 1924.74,752.66 1926.75,752.952 1928.77,753.241 1930.78,753.528 1932.79,753.813 1934.8,754.095 1936.82,754.375 1938.83,754.653 
  1940.84,754.929 1942.86,755.202 1944.87,755.474 1946.88,755.743 1948.9,756.01 1950.91,756.275 1952.92,756.538 1954.94,756.8 1956.95,757.059 1958.96,757.316 
  1960.97,757.571 1962.99,757.824 1965,758.075 1967.01,758.324 1969.03,758.571 1971.04,758.817 1973.05,759.06 1975.07,759.302 1977.08,759.542 1979.09,759.78 
  1981.11,760.017 1983.12,760.251 1985.13,760.484 1987.15,760.715 1989.16,760.944 1991.17,761.172 1993.18,761.398 1995.2,761.622 1997.21,761.845 1999.22,762.066 
  2001.24,762.285 2003.25,762.503 2005.26,762.719 2007.28,762.934 2009.29,763.147 2011.3,763.358 2013.32,763.568 2015.33,763.776 2017.34,763.983 2019.35,764.189 
  2021.37,764.393 2023.38,764.595 2025.39,764.796 2027.41,764.996 2029.42,765.194 2031.43,765.39 2033.45,765.586 2035.46,765.78 2037.47,765.972 2039.49,766.164 
  2041.5,766.353 2043.51,766.542 2045.53,766.729 2047.54,766.915 2049.55,767.1 2051.56,767.283 2053.58,767.465 2055.59,767.646 2057.6,767.825 2059.62,768.004 
  2061.63,768.181 2063.64,768.357 2065.66,768.531 2067.67,768.705 2069.68,768.877 2071.7,769.048 2073.71,769.218 2075.72,769.387 2077.73,769.554 2079.75,769.721 
  2081.76,769.886 2083.77,770.05 2085.79,770.213 2087.8,770.375 2089.81,770.536 2091.83,770.696 2093.84,770.855 2095.85,771.013 2097.87,771.17 2099.88,771.325 
  2101.89,771.48 2103.91,771.633 2105.92,771.786 2107.93,771.938 2109.94,772.088 2111.96,772.238 2113.97,772.387 2115.98,772.534 2118,772.681 2120.01,772.827 
  2122.02,772.971 2124.04,773.115 2126.05,773.258 2128.06,773.4 2130.08,773.541 2132.09,773.682 2134.1,773.821 2136.11,773.959 2138.13,774.097 2140.14,774.233 
  2142.15,774.369 2144.17,774.504 2146.18,774.638 2148.19,774.771 2150.21,774.904 2152.22,775.035 2154.23,775.166 2156.25,775.296 2158.26,775.425 2160.27,775.553 
  2162.29,775.681 2164.3,775.808 2166.31,775.933 2168.32,776.059 2170.34,776.183 2172.35,776.306 2174.36,776.429 2176.38,776.551 2178.39,776.673 2180.4,776.793 
  2182.42,776.913 2184.43,777.032 2186.44,777.15 2188.46,777.268 2190.47,777.385 2192.48,777.501 2194.49,777.617 2196.51,777.732 2198.52,777.846 2200.53,777.959 
  2202.55,778.072 2204.56,778.184 2206.57,778.296 2208.59,778.406 2210.6,778.516 2212.61,778.626 2214.63,778.735 2216.64,778.843 2218.65,778.95 2220.67,779.057 
  2222.68,779.163 2224.69,779.269 2226.7,779.374 2228.72,779.478 2230.73,779.582 2232.74,779.685 2234.76,779.788 2236.77,779.89 2238.78,779.991 2240.8,780.092 
  2242.81,780.192 2244.82,780.292 2246.84,780.391 2248.85,780.489 2250.86,780.587 2252.87,780.685 2254.89,780.781 2256.9,780.878 2258.91,780.973 2260.93,781.069 
  
  "/>
<circle clip-path="url(#clip9703)" style="fill:#000000; stroke:none; fill-opacity:1" cx="249.837" cy="781.069" r="18"/>
<circle clip-path="url(#clip9703)" style="fill:#e26f46; stroke:none; fill-opacity:1" cx="249.837" cy="781.069" r="14"/>
<circle clip-path="url(#clip9703)" style="fill:#000000; stroke:none; fill-opacity:1" cx="404.536" cy="771.809" r="18"/>
<circle clip-path="url(#clip9703)" style="fill:#e26f46; stroke:none; fill-opacity:1" cx="404.536" cy="771.809" r="14"/>
<circle clip-path="url(#clip9703)" style="fill:#000000; stroke:none; fill-opacity:1" cx="559.235" cy="756.357" r="18"/>
<circle clip-path="url(#clip9703)" style="fill:#e26f46; stroke:none; fill-opacity:1" cx="559.235" cy="756.357" r="14"/>
<circle clip-path="url(#clip9703)" style="fill:#000000; stroke:none; fill-opacity:1" cx="713.935" cy="728.031" r="18"/>
<circle clip-path="url(#clip9703)" style="fill:#e26f46; stroke:none; fill-opacity:1" cx="713.935" cy="728.031" r="14"/>
<circle clip-path="url(#clip9703)" style="fill:#000000; stroke:none; fill-opacity:1" cx="868.634" cy="669.33" r="18"/>
<circle clip-path="url(#clip9703)" style="fill:#e26f46; stroke:none; fill-opacity:1" cx="868.634" cy="669.33" r="14"/>
<circle clip-path="url(#clip9703)" style="fill:#000000; stroke:none; fill-opacity:1" cx="1023.33" cy="530.87" r="18"/>
<circle clip-path="url(#clip9703)" style="fill:#e26f46; stroke:none; fill-opacity:1" cx="1023.33" cy="530.87" r="14"/>
<circle clip-path="url(#clip9703)" style="fill:#000000; stroke:none; fill-opacity:1" cx="1178.03" cy="247.526" r="18"/>
<circle clip-path="url(#clip9703)" style="fill:#e26f46; stroke:none; fill-opacity:1" cx="1178.03" cy="247.526" r="14"/>
<circle clip-path="url(#clip9703)" style="fill:#000000; stroke:none; fill-opacity:1" cx="1332.73" cy="247.526" r="18"/>
<circle clip-path="url(#clip9703)" style="fill:#e26f46; stroke:none; fill-opacity:1" cx="1332.73" cy="247.526" r="14"/>
<circle clip-path="url(#clip9703)" style="fill:#000000; stroke:none; fill-opacity:1" cx="1487.43" cy="530.87" r="18"/>
<circle clip-path="url(#clip9703)" style="fill:#e26f46; stroke:none; fill-opacity:1" cx="1487.43" cy="530.87" r="14"/>
<circle clip-path="url(#clip9703)" style="fill:#000000; stroke:none; fill-opacity:1" cx="1642.13" cy="669.33" r="18"/>
<circle clip-path="url(#clip9703)" style="fill:#e26f46; stroke:none; fill-opacity:1" cx="1642.13" cy="669.33" r="14"/>
<circle clip-path="url(#clip9703)" style="fill:#000000; stroke:none; fill-opacity:1" cx="1796.83" cy="728.031" r="18"/>
<circle clip-path="url(#clip9703)" style="fill:#e26f46; stroke:none; fill-opacity:1" cx="1796.83" cy="728.031" r="14"/>
<circle clip-path="url(#clip9703)" style="fill:#000000; stroke:none; fill-opacity:1" cx="1951.53" cy="756.357" r="18"/>
<circle clip-path="url(#clip9703)" style="fill:#e26f46; stroke:none; fill-opacity:1" cx="1951.53" cy="756.357" r="14"/>
<circle clip-path="url(#clip9703)" style="fill:#000000; stroke:none; fill-opacity:1" cx="2106.23" cy="771.809" r="18"/>
<circle clip-path="url(#clip9703)" style="fill:#e26f46; stroke:none; fill-opacity:1" cx="2106.23" cy="771.809" r="14"/>
<circle clip-path="url(#clip9703)" style="fill:#000000; stroke:none; fill-opacity:1" cx="2260.93" cy="781.069" r="18"/>
<circle clip-path="url(#clip9703)" style="fill:#e26f46; stroke:none; fill-opacity:1" cx="2260.93" cy="781.069" r="14"/>
<polyline clip-path="url(#clip9703)" style="stroke:#3da44d; stroke-width:4; stroke-opacity:1; fill:none" points="
  249.837,781.069 251.85,854.799 253.863,923.035 255.876,986.025 257.889,1044.01 259.902,1097.24 261.915,1145.92 263.929,1190.28 265.942,1230.53 267.955,1266.88 
  269.968,1299.52 271.981,1328.63 273.994,1354.42 276.007,1377.04 278.02,1396.67 280.033,1413.48 282.046,1427.61 284.06,1439.23 286.073,1448.48 288.086,1455.5 
  290.099,1460.42 292.112,1463.38 294.125,1464.49 296.138,1463.88 298.151,1461.66 300.164,1457.95 302.178,1452.84 304.191,1446.44 306.204,1438.85 308.217,1430.15 
  310.23,1420.44 312.243,1409.8 314.256,1398.32 316.269,1386.06 318.282,1373.11 320.295,1359.52 322.309,1345.38 324.322,1330.75 326.335,1315.67 328.348,1300.22 
  330.361,1284.45 332.374,1268.4 334.387,1252.13 336.4,1235.69 338.413,1219.11 340.426,1202.44 342.44,1185.73 344.453,1168.99 346.466,1152.28 348.479,1135.62 
  350.492,1119.05 352.505,1102.59 354.518,1086.26 356.531,1070.1 358.544,1054.13 360.558,1038.37 362.571,1022.83 364.584,1007.55 366.597,992.521 368.61,977.776 
  370.623,963.324 372.636,949.178 374.649,935.349 376.662,921.847 378.675,908.682 380.689,895.862 382.702,883.394 384.715,871.283 386.728,859.536 388.741,848.155 
  390.754,837.144 392.767,826.505 394.78,816.241 396.793,806.352 398.806,796.839 400.82,787.7 402.833,778.935 404.846,770.542 406.859,762.52 408.872,754.864 
  410.885,747.572 412.898,740.641 414.911,734.065 416.924,727.841 418.938,721.964 420.951,716.428 422.964,711.227 424.977,706.357 426.99,701.81 429.003,697.58 
  431.016,693.661 433.029,690.046 435.042,686.727 437.055,683.697 439.069,680.95 441.082,678.477 443.095,676.271 445.108,674.324 447.121,672.628 449.134,671.176 
  451.147,669.959 453.16,668.97 455.173,668.2 457.186,667.642 459.2,667.288 461.213,667.129 463.226,667.158 465.239,667.366 467.252,667.747 469.265,668.291 
  471.278,668.991 473.291,669.84 475.304,670.83 477.318,671.953 479.331,673.202 481.344,674.569 483.357,676.047 485.37,677.63 487.383,679.31 489.396,681.08 
  491.409,682.933 493.422,684.863 495.435,686.864 497.449,688.928 499.462,691.05 501.475,693.224 503.488,695.443 505.501,697.702 507.514,699.995 509.527,702.317 
  511.54,704.663 513.553,707.026 515.566,709.403 517.58,711.789 519.593,714.177 521.606,716.565 523.619,718.948 525.632,721.322 527.645,723.681 529.658,726.023 
  531.671,728.344 533.684,730.641 535.698,732.909 537.711,735.145 539.724,737.347 541.737,739.511 543.75,741.635 545.763,743.715 547.776,745.75 549.789,747.737 
  551.802,749.674 553.815,751.558 555.829,753.388 557.842,755.162 559.855,756.878 561.868,758.535 563.881,760.131 565.894,761.665 567.907,763.136 569.92,764.542 
  571.933,765.883 573.946,767.159 575.96,768.368 577.973,769.509 579.986,770.583 581.999,771.589 584.012,772.526 586.025,773.395 588.038,774.196 590.051,774.928 
  592.064,775.592 594.078,776.187 596.091,776.715 598.104,777.176 600.117,777.57 602.13,777.897 604.143,778.159 606.156,778.355 608.169,778.487 610.182,778.556 
  612.195,778.562 614.209,778.507 616.222,778.391 618.235,778.216 620.248,777.982 622.261,777.691 624.274,777.344 626.287,776.942 628.3,776.487 630.313,775.979 
  632.326,775.421 634.34,774.813 636.353,774.157 638.366,773.455 640.379,772.707 642.392,771.916 644.405,771.083 646.418,770.21 648.431,769.297 650.444,768.347 
  652.458,767.361 654.471,766.341 656.484,765.288 658.497,764.204 660.51,763.091 662.523,761.95 664.536,760.782 666.549,759.59 668.562,758.374 670.575,757.137 
  672.589,755.879 674.602,754.603 676.615,753.31 678.628,752.002 680.641,750.68 682.654,749.345 684.667,747.999 686.68,746.644 688.693,745.28 690.706,743.91 
  692.72,742.534 694.733,741.154 696.746,739.771 698.759,738.387 700.772,737.003 702.785,735.62 704.798,734.239 706.811,732.862 708.824,731.489 710.838,730.121 
  712.851,728.761 714.864,727.408 716.877,726.064 718.89,724.73 720.903,723.406 722.916,722.094 724.929,720.794 726.942,719.508 728.955,718.235 730.969,716.977 
  732.982,715.734 734.995,714.508 737.008,713.298 739.021,712.105 741.034,710.931 743.047,709.774 745.06,708.636 747.073,707.517 749.086,706.418 751.1,705.338 
  753.113,704.279 755.126,703.24 757.139,702.221 759.152,701.223 761.165,700.246 763.178,699.29 765.191,698.355 767.204,697.442 769.218,696.549 771.231,695.677 
  773.244,694.826 775.257,693.996 777.27,693.186 779.283,692.397 781.296,691.627 783.309,690.878 785.322,690.148 787.335,689.438 789.349,688.746 791.362,688.073 
  793.375,687.417 795.388,686.779 797.401,686.159 799.414,685.554 801.427,684.966 803.44,684.393 805.453,683.835 807.466,683.291 809.48,682.76 811.493,682.242 
  813.506,681.736 815.519,681.241 817.532,680.757 819.545,680.283 821.558,679.818 823.571,679.361 825.584,678.911 827.598,678.468 829.611,678.03 831.624,677.597 
  833.637,677.168 835.65,676.742 837.663,676.318 839.676,675.894 841.689,675.471 843.702,675.047 845.715,674.621 847.729,674.193 849.742,673.76 851.755,673.323 
  853.768,672.88 855.781,672.43 857.794,671.972 859.807,671.505 861.82,671.029 863.833,670.542 865.846,670.043 867.86,669.53 869.873,669.004 871.886,668.464 
  873.899,667.907 875.912,667.333 877.925,666.741 879.938,666.131 881.951,665.501 883.964,664.849 885.978,664.176 887.991,663.48 890.004,662.761 892.017,662.016 
  894.03,661.246 896.043,660.45 898.056,659.626 900.069,658.774 902.082,657.893 904.095,656.981 906.109,656.039 908.122,655.065 910.135,654.059 912.148,653.019 
  914.161,651.945 916.174,650.837 918.187,649.693 920.2,648.512 922.213,647.295 924.226,646.04 926.24,644.747 928.253,643.415 930.266,642.044 932.279,640.632 
  934.292,639.18 936.305,637.687 938.318,636.153 940.331,634.576 942.344,632.957 944.358,631.294 946.371,629.589 948.384,627.839 950.397,626.046 952.41,624.208 
  954.423,622.326 956.436,620.399 958.449,618.426 960.462,616.408 962.475,614.345 964.489,612.236 966.502,610.081 968.515,607.881 970.528,605.634 972.541,603.342 
  974.554,601.004 976.567,598.62 978.58,596.19 980.593,593.714 982.606,591.193 984.62,588.626 986.633,586.014 988.646,583.357 990.659,580.655 992.672,577.909 
  994.685,575.119 996.698,572.284 998.711,569.406 1000.72,566.485 1002.74,563.522 1004.75,560.516 1006.76,557.468 1008.78,554.379 1010.79,551.249 1012.8,548.08 
  1014.82,544.87 1016.83,541.622 1018.84,538.336 1020.86,535.011 1022.87,531.65 1024.88,528.253 1026.89,524.821 1028.91,521.353 1030.92,517.852 1032.93,514.318 
  1034.95,510.752 1036.96,507.155 1038.97,503.527 1040.99,499.87 1043,496.185 1045.01,492.471 1047.03,488.732 1049.04,484.967 1051.05,481.177 1053.07,477.364 
  1055.08,473.529 1057.09,469.673 1059.1,465.796 1061.12,461.901 1063.13,457.988 1065.14,454.058 1067.16,450.112 1069.17,446.153 1071.18,442.18 1073.2,438.196 
  1075.21,434.201 1077.22,430.196 1079.24,426.184 1081.25,422.165 1083.26,418.14 1085.27,414.112 1087.29,410.08 1089.3,406.047 1091.31,402.014 1093.33,397.982 
  1095.34,393.952 1097.35,389.926 1099.37,385.906 1101.38,381.892 1103.39,377.886 1105.41,373.889 1107.42,369.904 1109.43,365.93 1111.45,361.97 1113.46,358.024 
  1115.47,354.095 1117.48,350.184 1119.5,346.291 1121.51,342.419 1123.52,338.569 1125.54,334.742 1127.55,330.94 1129.56,327.163 1131.58,323.414 1133.59,319.694 
  1135.6,316.003 1137.62,312.344 1139.63,308.718 1141.64,305.125 1143.65,301.568 1145.67,298.048 1147.68,294.566 1149.69,291.122 1151.71,287.72 1153.72,284.359 
  1155.73,281.042 1157.75,277.768 1159.76,274.541 1161.77,271.36 1163.79,268.227 1165.8,265.143 1167.81,262.109 1169.83,259.127 1171.84,256.198 1173.85,253.322 
  1175.86,250.501 1177.88,247.736 1179.89,245.028 1181.9,242.378 1183.92,239.787 1185.93,237.256 1187.94,234.786 1189.96,232.377 1191.97,230.032 1193.98,227.75 
  1196,225.533 1198.01,223.382 1200.02,221.297 1202.03,219.279 1204.05,217.329 1206.06,215.447 1208.07,213.635 1210.09,211.893 1212.1,210.222 1214.11,208.622 
  1216.13,207.094 1218.14,205.639 1220.15,204.258 1222.17,202.949 1224.18,201.716 1226.19,200.557 1228.21,199.473 1230.22,198.465 1232.23,197.532 1234.24,196.677 
  1236.26,195.898 1238.27,195.196 1240.28,194.571 1242.3,194.024 1244.31,193.554 1246.32,193.163 1248.34,192.85 1250.35,192.614 1252.36,192.458 1254.38,192.379 
  1256.39,192.379 1258.4,192.458 1260.41,192.614 1262.43,192.85 1264.44,193.163 1266.45,193.554 1268.47,194.024 1270.48,194.571 1272.49,195.196 1274.51,195.898 
  1276.52,196.677 1278.53,197.532 1280.55,198.465 1282.56,199.473 1284.57,200.557 1286.59,201.716 1288.6,202.949 1290.61,204.258 1292.62,205.639 1294.64,207.094 
  1296.65,208.622 1298.66,210.222 1300.68,211.893 1302.69,213.635 1304.7,215.447 1306.72,217.329 1308.73,219.279 1310.74,221.297 1312.76,223.382 1314.77,225.533 
  1316.78,227.75 1318.79,230.032 1320.81,232.377 1322.82,234.786 1324.83,237.256 1326.85,239.787 1328.86,242.378 1330.87,245.028 1332.89,247.736 1334.9,250.501 
  1336.91,253.322 1338.93,256.198 1340.94,259.127 1342.95,262.109 1344.97,265.143 1346.98,268.227 1348.99,271.36 1351,274.541 1353.02,277.768 1355.03,281.042 
  1357.04,284.359 1359.06,287.72 1361.07,291.122 1363.08,294.566 1365.1,298.048 1367.11,301.568 1369.12,305.125 1371.14,308.718 1373.15,312.344 1375.16,316.003 
  1377.17,319.694 1379.19,323.414 1381.2,327.163 1383.21,330.94 1385.23,334.742 1387.24,338.569 1389.25,342.419 1391.27,346.291 1393.28,350.184 1395.29,354.095 
  1397.31,358.024 1399.32,361.97 1401.33,365.93 1403.35,369.904 1405.36,373.889 1407.37,377.886 1409.38,381.892 1411.4,385.906 1413.41,389.926 1415.42,393.952 
  1417.44,397.982 1419.45,402.014 1421.46,406.047 1423.48,410.08 1425.49,414.112 1427.5,418.14 1429.52,422.165 1431.53,426.184 1433.54,430.196 1435.55,434.201 
  1437.57,438.196 1439.58,442.18 1441.59,446.153 1443.61,450.112 1445.62,454.058 1447.63,457.988 1449.65,461.901 1451.66,465.796 1453.67,469.673 1455.69,473.529 
  1457.7,477.364 1459.71,481.177 1461.73,484.967 1463.74,488.732 1465.75,492.471 1467.76,496.185 1469.78,499.87 1471.79,503.527 1473.8,507.155 1475.82,510.752 
  1477.83,514.318 1479.84,517.852 1481.86,521.353 1483.87,524.821 1485.88,528.253 1487.9,531.65 1489.91,535.011 1491.92,538.336 1493.93,541.622 1495.95,544.87 
  1497.96,548.08 1499.97,551.249 1501.99,554.379 1504,557.468 1506.01,560.516 1508.03,563.522 1510.04,566.485 1512.05,569.406 1514.07,572.284 1516.08,575.119 
  1518.09,577.909 1520.11,580.655 1522.12,583.357 1524.13,586.014 1526.14,588.626 1528.16,591.193 1530.17,593.714 1532.18,596.19 1534.2,598.62 1536.21,601.004 
  1538.22,603.342 1540.24,605.634 1542.25,607.881 1544.26,610.081 1546.28,612.236 1548.29,614.345 1550.3,616.408 1552.31,618.426 1554.33,620.399 1556.34,622.326 
  1558.35,624.208 1560.37,626.046 1562.38,627.839 1564.39,629.589 1566.41,631.294 1568.42,632.957 1570.43,634.576 1572.45,636.153 1574.46,637.687 1576.47,639.18 
  1578.49,640.632 1580.5,642.044 1582.51,643.415 1584.52,644.747 1586.54,646.04 1588.55,647.295 1590.56,648.512 1592.58,649.693 1594.59,650.837 1596.6,651.945 
  1598.62,653.019 1600.63,654.059 1602.64,655.065 1604.66,656.039 1606.67,656.981 1608.68,657.893 1610.69,658.774 1612.71,659.626 1614.72,660.45 1616.73,661.246 
  1618.75,662.016 1620.76,662.761 1622.77,663.48 1624.79,664.176 1626.8,664.849 1628.81,665.501 1630.83,666.131 1632.84,666.741 1634.85,667.333 1636.87,667.907 
  1638.88,668.464 1640.89,669.004 1642.9,669.53 1644.92,670.043 1646.93,670.542 1648.94,671.029 1650.96,671.505 1652.97,671.972 1654.98,672.43 1657,672.88 
  1659.01,673.323 1661.02,673.76 1663.04,674.193 1665.05,674.621 1667.06,675.047 1669.07,675.471 1671.09,675.894 1673.1,676.318 1675.11,676.742 1677.13,677.168 
  1679.14,677.597 1681.15,678.03 1683.17,678.468 1685.18,678.911 1687.19,679.361 1689.21,679.818 1691.22,680.283 1693.23,680.757 1695.25,681.241 1697.26,681.736 
  1699.27,682.242 1701.28,682.76 1703.3,683.291 1705.31,683.835 1707.32,684.393 1709.34,684.966 1711.35,685.554 1713.36,686.159 1715.38,686.779 1717.39,687.417 
  1719.4,688.073 1721.42,688.746 1723.43,689.438 1725.44,690.148 1727.45,690.878 1729.47,691.627 1731.48,692.397 1733.49,693.186 1735.51,693.996 1737.52,694.826 
  1739.53,695.677 1741.55,696.549 1743.56,697.442 1745.57,698.355 1747.59,699.29 1749.6,700.246 1751.61,701.223 1753.63,702.221 1755.64,703.24 1757.65,704.279 
  1759.66,705.338 1761.68,706.418 1763.69,707.517 1765.7,708.636 1767.72,709.774 1769.73,710.931 1771.74,712.105 1773.76,713.298 1775.77,714.508 1777.78,715.734 
  1779.8,716.977 1781.81,718.235 1783.82,719.508 1785.83,720.794 1787.85,722.094 1789.86,723.406 1791.87,724.73 1793.89,726.064 1795.9,727.408 1797.91,728.761 
  1799.93,730.121 1801.94,731.489 1803.95,732.862 1805.97,734.239 1807.98,735.62 1809.99,737.003 1812.01,738.387 1814.02,739.771 1816.03,741.154 1818.04,742.534 
  1820.06,743.91 1822.07,745.28 1824.08,746.644 1826.1,747.999 1828.11,749.345 1830.12,750.68 1832.14,752.002 1834.15,753.31 1836.16,754.603 1838.18,755.879 
  1840.19,757.137 1842.2,758.374 1844.21,759.59 1846.23,760.782 1848.24,761.95 1850.25,763.091 1852.27,764.204 1854.28,765.288 1856.29,766.341 1858.31,767.361 
  1860.32,768.347 1862.33,769.297 1864.35,770.21 1866.36,771.083 1868.37,771.916 1870.39,772.707 1872.4,773.455 1874.41,774.157 1876.42,774.813 1878.44,775.421 
  1880.45,775.979 1882.46,776.487 1884.48,776.942 1886.49,777.344 1888.5,777.691 1890.52,777.982 1892.53,778.216 1894.54,778.391 1896.56,778.507 1898.57,778.562 
  1900.58,778.556 1902.59,778.487 1904.61,778.355 1906.62,778.159 1908.63,777.897 1910.65,777.57 1912.66,777.176 1914.67,776.715 1916.69,776.187 1918.7,775.592 
  1920.71,774.928 1922.73,774.196 1924.74,773.395 1926.75,772.526 1928.77,771.589 1930.78,770.583 1932.79,769.509 1934.8,768.368 1936.82,767.159 1938.83,765.883 
  1940.84,764.542 1942.86,763.136 1944.87,761.665 1946.88,760.131 1948.9,758.535 1950.91,756.878 1952.92,755.162 1954.94,753.388 1956.95,751.558 1958.96,749.674 
  1960.97,747.737 1962.99,745.75 1965,743.715 1967.01,741.635 1969.03,739.511 1971.04,737.347 1973.05,735.145 1975.07,732.909 1977.08,730.641 1979.09,728.344 
  1981.11,726.023 1983.12,723.681 1985.13,721.322 1987.15,718.948 1989.16,716.565 1991.17,714.177 1993.18,711.789 1995.2,709.403 1997.21,707.026 1999.22,704.663 
  2001.24,702.317 2003.25,699.995 2005.26,697.702 2007.28,695.443 2009.29,693.224 2011.3,691.05 2013.32,688.928 2015.33,686.864 2017.34,684.863 2019.35,682.933 
  2021.37,681.08 2023.38,679.31 2025.39,677.63 2027.41,676.047 2029.42,674.569 2031.43,673.202 2033.45,671.953 2035.46,670.83 2037.47,669.84 2039.49,668.991 
  2041.5,668.291 2043.51,667.747 2045.53,667.366 2047.54,667.158 2049.55,667.129 2051.56,667.288 2053.58,667.642 2055.59,668.2 2057.6,668.97 2059.62,669.959 
  2061.63,671.176 2063.64,672.628 2065.66,674.324 2067.67,676.271 2069.68,678.477 2071.7,680.95 2073.71,683.697 2075.72,686.727 2077.73,690.046 2079.75,693.661 
  2081.76,697.58 2083.77,701.81 2085.79,706.357 2087.8,711.227 2089.81,716.428 2091.83,721.964 2093.84,727.841 2095.85,734.065 2097.87,740.641 2099.88,747.572 
  2101.89,754.864 2103.91,762.52 2105.92,770.542 2107.93,778.935 2109.94,787.7 2111.96,796.839 2113.97,806.352 2115.98,816.241 2118,826.505 2120.01,837.144 
  2122.02,848.155 2124.04,859.536 2126.05,871.283 2128.06,883.394 2130.08,895.862 2132.09,908.682 2134.1,921.847 2136.11,935.349 2138.13,949.178 2140.14,963.324 
  2142.15,977.776 2144.17,992.521 2146.18,1007.55 2148.19,1022.83 2150.21,1038.37 2152.22,1054.13 2154.23,1070.1 2156.25,1086.26 2158.26,1102.59 2160.27,1119.05 
  2162.29,1135.62 2164.3,1152.28 2166.31,1168.99 2168.32,1185.73 2170.34,1202.44 2172.35,1219.11 2174.36,1235.69 2176.38,1252.13 2178.39,1268.4 2180.4,1284.45 
  2182.42,1300.22 2184.43,1315.67 2186.44,1330.75 2188.46,1345.38 2190.47,1359.52 2192.48,1373.11 2194.49,1386.06 2196.51,1398.32 2198.52,1409.8 2200.53,1420.44 
  2202.55,1430.15 2204.56,1438.85 2206.57,1446.44 2208.59,1452.84 2210.6,1457.95 2212.61,1461.66 2214.63,1463.88 2216.64,1464.49 2218.65,1463.38 2220.67,1460.42 
  2222.68,1455.5 2224.69,1448.48 2226.7,1439.23 2228.72,1427.61 2230.73,1413.48 2232.74,1396.67 2234.76,1377.04 2236.77,1354.42 2238.78,1328.63 2240.8,1299.52 
  2242.81,1266.88 2244.82,1230.53 2246.84,1190.28 2248.85,1145.92 2250.86,1097.24 2252.87,1044.01 2254.89,986.025 2256.9,923.035 2258.91,854.799 2260.93,781.069 
  
  "/>
<polygon clip-path="url(#clip9701)" points="
1685.51,451.424 2249.26,451.424 2249.26,209.504 1685.51,209.504 
  " fill="#ffffff" fill-rule="evenodd" fill-opacity="1"/>
<polyline clip-path="url(#clip9701)" style="stroke:#000000; stroke-width:4; stroke-opacity:1; fill:none" points="
  1685.51,451.424 2249.26,451.424 2249.26,209.504 1685.51,209.504 1685.51,451.424 
  "/>
<polyline clip-path="url(#clip9701)" style="stroke:#009af9; stroke-width:4; stroke-opacity:1; fill:none" points="
  1709.51,269.984 1853.51,269.984 
  "/>
<g clip-path="url(#clip9701)">
<text style="fill:#000000; fill-opacity:1; font-family:Arial,Helvetica Neue,Helvetica,sans-serif; font-size:48px; text-anchor:start;" transform="rotate(0, 1877.51, 287.484)" x="1877.51" y="287.484">Runge function</text>
</g>
<circle clip-path="url(#clip9701)" style="fill:#000000; stroke:none; fill-opacity:1" cx="1793.51" cy="330.464" r="25"/>
<circle clip-path="url(#clip9701)" style="fill:#e26f46; stroke:none; fill-opacity:1" cx="1793.51" cy="330.464" r="21"/>
<g clip-path="url(#clip9701)">
<text style="fill:#000000; fill-opacity:1; font-family:Arial,Helvetica Neue,Helvetica,sans-serif; font-size:48px; text-anchor:start;" transform="rotate(0, 1877.51, 347.964)" x="1877.51" y="347.964">Nodes</text>
</g>
<polyline clip-path="url(#clip9701)" style="stroke:#3da44d; stroke-width:4; stroke-opacity:1; fill:none" points="
  1709.51,390.944 1853.51,390.944 
  "/>
<g clip-path="url(#clip9701)">
<text style="fill:#000000; fill-opacity:1; font-family:Arial,Helvetica Neue,Helvetica,sans-serif; font-size:48px; text-anchor:start;" transform="rotate(0, 1877.51, 408.444)" x="1877.51" y="408.444">Intepolation</text>
</g>
</svg>
