<?xml version="1.0" encoding="utf-8"?>
<svg xmlns="http://www.w3.org/2000/svg" xmlns:xlink="http://www.w3.org/1999/xlink" width="600" height="400" viewBox="0 0 2400 1600">
<defs>
  <clipPath id="clip6100">
    <rect x="0" y="0" width="2000" height="2000"/>
  </clipPath>
</defs>
<defs>
  <clipPath id="clip6101">
    <rect x="0" y="0" width="2400" height="1600"/>
  </clipPath>
</defs>
<polygon clip-path="url(#clip6101)" points="
0,1600 2400,1600 2400,0 0,0 
  " fill="#ffffff" fill-rule="evenodd" fill-opacity="1"/>
<defs>
  <clipPath id="clip6102">
    <rect x="480" y="0" width="1681" height="1600"/>
  </clipPath>
</defs>
<polygon clip-path="url(#clip6101)" points="
202.885,1503.47 2321.26,1503.47 2321.26,125.984 202.885,125.984 
  " fill="#ffffff" fill-rule="evenodd" fill-opacity="1"/>
<defs>
  <clipPath id="clip6103">
    <rect x="202" y="125" width="2119" height="1378"/>
  </clipPath>
</defs>
<polyline clip-path="url(#clip6103)" style="stroke:#000000; stroke-width:2; stroke-opacity:0.1; fill:none" points="
  262.839,1503.47 262.839,125.984 
  "/>
<polyline clip-path="url(#clip6103)" style="stroke:#000000; stroke-width:2; stroke-opacity:0.1; fill:none" points="
  762.456,1503.47 762.456,125.984 
  "/>
<polyline clip-path="url(#clip6103)" style="stroke:#000000; stroke-width:2; stroke-opacity:0.1; fill:none" points="
  1262.07,1503.47 1262.07,125.984 
  "/>
<polyline clip-path="url(#clip6103)" style="stroke:#000000; stroke-width:2; stroke-opacity:0.1; fill:none" points="
  1761.69,1503.47 1761.69,125.984 
  "/>
<polyline clip-path="url(#clip6103)" style="stroke:#000000; stroke-width:2; stroke-opacity:0.1; fill:none" points="
  2261.31,1503.47 2261.31,125.984 
  "/>
<polyline clip-path="url(#clip6103)" style="stroke:#000000; stroke-width:2; stroke-opacity:0.1; fill:none" points="
  202.885,1430.23 2321.26,1430.23 
  "/>
<polyline clip-path="url(#clip6103)" style="stroke:#000000; stroke-width:2; stroke-opacity:0.1; fill:none" points="
  202.885,1191.39 2321.26,1191.39 
  "/>
<polyline clip-path="url(#clip6103)" style="stroke:#000000; stroke-width:2; stroke-opacity:0.1; fill:none" points="
  202.885,952.56 2321.26,952.56 
  "/>
<polyline clip-path="url(#clip6103)" style="stroke:#000000; stroke-width:2; stroke-opacity:0.1; fill:none" points="
  202.885,713.727 2321.26,713.727 
  "/>
<polyline clip-path="url(#clip6103)" style="stroke:#000000; stroke-width:2; stroke-opacity:0.1; fill:none" points="
  202.885,474.893 2321.26,474.893 
  "/>
<polyline clip-path="url(#clip6103)" style="stroke:#000000; stroke-width:2; stroke-opacity:0.1; fill:none" points="
  202.885,236.059 2321.26,236.059 
  "/>
<polyline clip-path="url(#clip6101)" style="stroke:#000000; stroke-width:4; stroke-opacity:1; fill:none" points="
  202.885,1503.47 2321.26,1503.47 
  "/>
<polyline clip-path="url(#clip6101)" style="stroke:#000000; stroke-width:4; stroke-opacity:1; fill:none" points="
  202.885,1503.47 202.885,125.984 
  "/>
<polyline clip-path="url(#clip6101)" style="stroke:#000000; stroke-width:4; stroke-opacity:1; fill:none" points="
  262.839,1503.47 262.839,1482.81 
  "/>
<polyline clip-path="url(#clip6101)" style="stroke:#000000; stroke-width:4; stroke-opacity:1; fill:none" points="
  762.456,1503.47 762.456,1482.81 
  "/>
<polyline clip-path="url(#clip6101)" style="stroke:#000000; stroke-width:4; stroke-opacity:1; fill:none" points="
  1262.07,1503.47 1262.07,1482.81 
  "/>
<polyline clip-path="url(#clip6101)" style="stroke:#000000; stroke-width:4; stroke-opacity:1; fill:none" points="
  1761.69,1503.47 1761.69,1482.81 
  "/>
<polyline clip-path="url(#clip6101)" style="stroke:#000000; stroke-width:4; stroke-opacity:1; fill:none" points="
  2261.31,1503.47 2261.31,1482.81 
  "/>
<polyline clip-path="url(#clip6101)" style="stroke:#000000; stroke-width:4; stroke-opacity:1; fill:none" points="
  202.885,1430.23 234.661,1430.23 
  "/>
<polyline clip-path="url(#clip6101)" style="stroke:#000000; stroke-width:4; stroke-opacity:1; fill:none" points="
  202.885,1191.39 234.661,1191.39 
  "/>
<polyline clip-path="url(#clip6101)" style="stroke:#000000; stroke-width:4; stroke-opacity:1; fill:none" points="
  202.885,952.56 234.661,952.56 
  "/>
<polyline clip-path="url(#clip6101)" style="stroke:#000000; stroke-width:4; stroke-opacity:1; fill:none" points="
  202.885,713.727 234.661,713.727 
  "/>
<polyline clip-path="url(#clip6101)" style="stroke:#000000; stroke-width:4; stroke-opacity:1; fill:none" points="
  202.885,474.893 234.661,474.893 
  "/>
<polyline clip-path="url(#clip6101)" style="stroke:#000000; stroke-width:4; stroke-opacity:1; fill:none" points="
  202.885,236.059 234.661,236.059 
  "/>
<g clip-path="url(#clip6101)">
<text style="fill:#000000; fill-opacity:1; font-family:Arial,Helvetica Neue,Helvetica,sans-serif; font-size:48px; text-anchor:middle;" transform="rotate(0, 262.839, 1557.47)" x="262.839" y="1557.47">-1.0</text>
</g>
<g clip-path="url(#clip6101)">
<text style="fill:#000000; fill-opacity:1; font-family:Arial,Helvetica Neue,Helvetica,sans-serif; font-size:48px; text-anchor:middle;" transform="rotate(0, 762.456, 1557.47)" x="762.456" y="1557.47">-0.5</text>
</g>
<g clip-path="url(#clip6101)">
<text style="fill:#000000; fill-opacity:1; font-family:Arial,Helvetica Neue,Helvetica,sans-serif; font-size:48px; text-anchor:middle;" transform="rotate(0, 1262.07, 1557.47)" x="1262.07" y="1557.47">0.0</text>
</g>
<g clip-path="url(#clip6101)">
<text style="fill:#000000; fill-opacity:1; font-family:Arial,Helvetica Neue,Helvetica,sans-serif; font-size:48px; text-anchor:middle;" transform="rotate(0, 1761.69, 1557.47)" x="1761.69" y="1557.47">0.5</text>
</g>
<g clip-path="url(#clip6101)">
<text style="fill:#000000; fill-opacity:1; font-family:Arial,Helvetica Neue,Helvetica,sans-serif; font-size:48px; text-anchor:middle;" transform="rotate(0, 2261.31, 1557.47)" x="2261.31" y="1557.47">1.0</text>
</g>
<g clip-path="url(#clip6101)">
<text style="fill:#000000; fill-opacity:1; font-family:Arial,Helvetica Neue,Helvetica,sans-serif; font-size:48px; text-anchor:end;" transform="rotate(0, 178.885, 1447.73)" x="178.885" y="1447.73">-250</text>
</g>
<g clip-path="url(#clip6101)">
<text style="fill:#000000; fill-opacity:1; font-family:Arial,Helvetica Neue,Helvetica,sans-serif; font-size:48px; text-anchor:end;" transform="rotate(0, 178.885, 1208.89)" x="178.885" y="1208.89">-200</text>
</g>
<g clip-path="url(#clip6101)">
<text style="fill:#000000; fill-opacity:1; font-family:Arial,Helvetica Neue,Helvetica,sans-serif; font-size:48px; text-anchor:end;" transform="rotate(0, 178.885, 970.06)" x="178.885" y="970.06">-150</text>
</g>
<g clip-path="url(#clip6101)">
<text style="fill:#000000; fill-opacity:1; font-family:Arial,Helvetica Neue,Helvetica,sans-serif; font-size:48px; text-anchor:end;" transform="rotate(0, 178.885, 731.227)" x="178.885" y="731.227">-100</text>
</g>
<g clip-path="url(#clip6101)">
<text style="fill:#000000; fill-opacity:1; font-family:Arial,Helvetica Neue,Helvetica,sans-serif; font-size:48px; text-anchor:end;" transform="rotate(0, 178.885, 492.393)" x="178.885" y="492.393">-50</text>
</g>
<g clip-path="url(#clip6101)">
<text style="fill:#000000; fill-opacity:1; font-family:Arial,Helvetica Neue,Helvetica,sans-serif; font-size:48px; text-anchor:end;" transform="rotate(0, 178.885, 253.559)" x="178.885" y="253.559">0</text>
</g>
<g clip-path="url(#clip6101)">
<text style="fill:#000000; fill-opacity:1; font-family:Arial,Helvetica Neue,Helvetica,sans-serif; font-size:84px; text-anchor:middle;" transform="rotate(0, 1262.07, 73.2)" x="1262.07" y="73.2">Runge&apos;s phenomenon (Nodes = 25)</text>
</g>
<polyline clip-path="url(#clip6103)" style="stroke:#009af9; stroke-width:4; stroke-opacity:1; fill:none" points="
  262.839,235.875 264.84,235.874 266.84,235.874 268.841,235.873 270.841,235.872 272.842,235.871 274.842,235.871 276.843,235.87 278.843,235.869 280.843,235.869 
  282.844,235.868 284.844,235.867 286.845,235.866 288.845,235.866 290.846,235.865 292.846,235.864 294.847,235.863 296.847,235.862 298.848,235.862 300.848,235.861 
  302.849,235.86 304.849,235.859 306.85,235.858 308.85,235.858 310.85,235.857 312.851,235.856 314.851,235.855 316.852,235.854 318.852,235.854 320.853,235.853 
  322.853,235.852 324.854,235.851 326.854,235.85 328.855,235.849 330.855,235.848 332.856,235.848 334.856,235.847 336.857,235.846 338.857,235.845 340.858,235.844 
  342.858,235.843 344.858,235.842 346.859,235.841 348.859,235.84 350.86,235.84 352.86,235.839 354.861,235.838 356.861,235.837 358.862,235.836 360.862,235.835 
  362.863,235.834 364.863,235.833 366.864,235.832 368.864,235.831 370.865,235.83 372.865,235.829 374.865,235.828 376.866,235.827 378.866,235.826 380.867,235.825 
  382.867,235.824 384.868,235.823 386.868,235.822 388.869,235.821 390.869,235.82 392.87,235.819 394.87,235.818 396.871,235.817 398.871,235.816 400.872,235.815 
  402.872,235.814 404.872,235.813 406.873,235.811 408.873,235.81 410.874,235.809 412.874,235.808 414.875,235.807 416.875,235.806 418.876,235.805 420.876,235.804 
  422.877,235.802 424.877,235.801 426.878,235.8 428.878,235.799 430.879,235.798 432.879,235.797 434.879,235.795 436.88,235.794 438.88,235.793 440.881,235.792 
  442.881,235.79 444.882,235.789 446.882,235.788 448.883,235.787 450.883,235.785 452.884,235.784 454.884,235.783 456.885,235.782 458.885,235.78 460.886,235.779 
  462.886,235.778 464.886,235.776 466.887,235.775 468.887,235.774 470.888,235.772 472.888,235.771 474.889,235.77 476.889,235.768 478.89,235.767 480.89,235.765 
  482.891,235.764 484.891,235.763 486.892,235.761 488.892,235.76 490.893,235.758 492.893,235.757 494.893,235.755 496.894,235.754 498.894,235.752 500.895,235.751 
  502.895,235.749 504.896,235.748 506.896,235.746 508.897,235.745 510.897,235.743 512.898,235.741 514.898,235.74 516.899,235.738 518.899,235.737 520.9,235.735 
  522.9,235.733 524.9,235.732 526.901,235.73 528.901,235.728 530.902,235.727 532.902,235.725 534.903,235.723 536.903,235.722 538.904,235.72 540.904,235.718 
  542.905,235.716 544.905,235.715 546.906,235.713 548.906,235.711 550.907,235.709 552.907,235.707 554.907,235.706 556.908,235.704 558.908,235.702 560.909,235.7 
  562.909,235.698 564.91,235.696 566.91,235.694 568.911,235.692 570.911,235.69 572.912,235.688 574.912,235.686 576.913,235.684 578.913,235.682 580.914,235.68 
  582.914,235.678 584.914,235.676 586.915,235.674 588.915,235.672 590.916,235.67 592.916,235.668 594.917,235.665 596.917,235.663 598.918,235.661 600.918,235.659 
  602.919,235.657 604.919,235.654 606.92,235.652 608.92,235.65 610.921,235.648 612.921,235.645 614.921,235.643 616.922,235.641 618.922,235.638 620.923,235.636 
  622.923,235.633 624.924,235.631 626.924,235.628 628.925,235.626 630.925,235.624 632.926,235.621 634.926,235.618 636.927,235.616 638.927,235.613 640.928,235.611 
  642.928,235.608 644.928,235.605 646.929,235.603 648.929,235.6 650.93,235.597 652.93,235.595 654.931,235.592 656.931,235.589 658.932,235.586 660.932,235.583 
  662.933,235.581 664.933,235.578 666.934,235.575 668.934,235.572 670.935,235.569 672.935,235.566 674.935,235.563 676.936,235.56 678.936,235.557 680.937,235.554 
  682.937,235.551 684.938,235.547 686.938,235.544 688.939,235.541 690.939,235.538 692.94,235.534 694.94,235.531 696.941,235.528 698.941,235.524 700.942,235.521 
  702.942,235.518 704.943,235.514 706.943,235.511 708.943,235.507 710.944,235.504 712.944,235.5 714.945,235.497 716.945,235.493 718.946,235.489 720.946,235.485 
  722.947,235.482 724.947,235.478 726.948,235.474 728.948,235.47 730.949,235.466 732.949,235.462 734.95,235.458 736.95,235.454 738.95,235.45 740.951,235.446 
  742.951,235.442 744.952,235.438 746.952,235.434 748.953,235.43 750.953,235.425 752.954,235.421 754.954,235.417 756.955,235.412 758.955,235.408 760.956,235.403 
  762.956,235.399 764.957,235.394 766.957,235.39 768.957,235.385 770.958,235.38 772.958,235.375 774.959,235.371 776.959,235.366 778.96,235.361 780.96,235.356 
  782.961,235.351 784.961,235.346 786.962,235.341 788.962,235.336 790.963,235.33 792.963,235.325 794.964,235.32 796.964,235.314 798.964,235.309 800.965,235.303 
  802.965,235.298 804.966,235.292 806.966,235.287 808.967,235.281 810.967,235.275 812.968,235.269 814.968,235.263 816.969,235.257 818.969,235.251 820.97,235.245 
  822.97,235.239 824.971,235.233 826.971,235.227 828.971,235.22 830.972,235.214 832.972,235.207 834.973,235.201 836.973,235.194 838.974,235.187 840.974,235.181 
  842.975,235.174 844.975,235.167 846.976,235.16 848.976,235.153 850.977,235.146 852.977,235.139 854.978,235.131 856.978,235.124 858.978,235.116 860.979,235.109 
  862.979,235.101 864.98,235.093 866.98,235.086 868.981,235.078 870.981,235.07 872.982,235.062 874.982,235.054 876.983,235.045 878.983,235.037 880.984,235.029 
  882.984,235.02 884.985,235.011 886.985,235.003 888.985,234.994 890.986,234.985 892.986,234.976 894.987,234.967 896.987,234.957 898.988,234.948 900.988,234.939 
  902.989,234.929 904.989,234.919 906.99,234.91 908.99,234.9 910.991,234.89 912.991,234.88 914.992,234.869 916.992,234.859 918.992,234.849 920.993,234.838 
  922.993,234.827 924.994,234.816 926.994,234.805 928.995,234.794 930.995,234.783 932.996,234.772 934.996,234.76 936.997,234.749 938.997,234.737 940.998,234.725 
  942.998,234.713 944.999,234.701 946.999,234.688 948.999,234.676 951,234.663 953,234.65 955.001,234.638 957.001,234.624 959.002,234.611 961.002,234.598 
  963.003,234.584 965.003,234.571 967.004,234.557 969.004,234.543 971.005,234.528 973.005,234.514 975.006,234.499 977.006,234.485 979.006,234.47 981.007,234.455 
  983.007,234.44 985.008,234.424 987.008,234.408 989.009,234.393 991.009,234.377 993.01,234.361 995.01,234.344 997.011,234.328 999.011,234.311 1001.01,234.294 
  1003.01,234.277 1005.01,234.259 1007.01,234.242 1009.01,234.224 1011.01,234.206 1013.01,234.188 1015.01,234.169 1017.02,234.151 1019.02,234.132 1021.02,234.113 
  1023.02,234.094 1025.02,234.074 1027.02,234.055 1029.02,234.035 1031.02,234.015 1033.02,233.994 1035.02,233.974 1037.02,233.953 1039.02,233.932 1041.02,233.91 
  1043.02,233.889 1045.02,233.867 1047.02,233.845 1049.02,233.823 1051.02,233.801 1053.02,233.778 1055.02,233.755 1057.02,233.732 1059.03,233.708 1061.03,233.685 
  1063.03,233.661 1065.03,233.637 1067.03,233.612 1069.03,233.588 1071.03,233.563 1073.03,233.538 1075.03,233.513 1077.03,233.487 1079.03,233.461 1081.03,233.435 
  1083.03,233.409 1085.03,233.382 1087.03,233.356 1089.03,233.329 1091.03,233.302 1093.03,233.274 1095.03,233.247 1097.03,233.219 1099.03,233.191 1101.03,233.163 
  1103.04,233.134 1105.04,233.106 1107.04,233.077 1109.04,233.048 1111.04,233.019 1113.04,232.989 1115.04,232.96 1117.04,232.93 1119.04,232.9 1121.04,232.87 
  1123.04,232.84 1125.04,232.81 1127.04,232.779 1129.04,232.749 1131.04,232.718 1133.04,232.687 1135.04,232.657 1137.04,232.626 1139.04,232.595 1141.04,232.564 
  1143.04,232.533 1145.05,232.502 1147.05,232.471 1149.05,232.44 1151.05,232.409 1153.05,232.378 1155.05,232.347 1157.05,232.316 1159.05,232.285 1161.05,232.254 
  1163.05,232.224 1165.05,232.193 1167.05,232.163 1169.05,232.133 1171.05,232.103 1173.05,232.073 1175.05,232.043 1177.05,232.014 1179.05,231.985 1181.05,231.956 
  1183.05,231.928 1185.05,231.9 1187.06,231.872 1189.06,231.845 1191.06,231.818 1193.06,231.791 1195.06,231.765 1197.06,231.739 1199.06,231.714 1201.06,231.689 
  1203.06,231.665 1205.06,231.642 1207.06,231.619 1209.06,231.596 1211.06,231.574 1213.06,231.553 1215.06,231.533 1217.06,231.513 1219.06,231.494 1221.06,231.475 
  1223.06,231.457 1225.06,231.44 1227.06,231.424 1229.06,231.409 1231.07,231.394 1233.07,231.381 1235.07,231.368 1237.07,231.356 1239.07,231.345 1241.07,231.334 
  1243.07,231.325 1245.07,231.316 1247.07,231.309 1249.07,231.302 1251.07,231.297 1253.07,231.292 1255.07,231.288 1257.07,231.285 1259.07,231.283 1261.07,231.282 
  1263.07,231.282 1265.07,231.283 1267.07,231.285 1269.07,231.288 1271.07,231.292 1273.08,231.297 1275.08,231.302 1277.08,231.309 1279.08,231.316 1281.08,231.325 
  1283.08,231.334 1285.08,231.345 1287.08,231.356 1289.08,231.368 1291.08,231.381 1293.08,231.394 1295.08,231.409 1297.08,231.424 1299.08,231.44 1301.08,231.457 
  1303.08,231.475 1305.08,231.494 1307.08,231.513 1309.08,231.533 1311.08,231.553 1313.08,231.574 1315.08,231.596 1317.09,231.619 1319.09,231.642 1321.09,231.665 
  1323.09,231.689 1325.09,231.714 1327.09,231.739 1329.09,231.765 1331.09,231.791 1333.09,231.818 1335.09,231.845 1337.09,231.872 1339.09,231.9 1341.09,231.928 
  1343.09,231.956 1345.09,231.985 1347.09,232.014 1349.09,232.043 1351.09,232.073 1353.09,232.103 1355.09,232.133 1357.09,232.163 1359.1,232.193 1361.1,232.224 
  1363.1,232.254 1365.1,232.285 1367.1,232.316 1369.1,232.347 1371.1,232.378 1373.1,232.409 1375.1,232.44 1377.1,232.471 1379.1,232.502 1381.1,232.533 
  1383.1,232.564 1385.1,232.595 1387.1,232.626 1389.1,232.657 1391.1,232.687 1393.1,232.718 1395.1,232.749 1397.1,232.779 1399.1,232.81 1401.11,232.84 
  1403.11,232.87 1405.11,232.9 1407.11,232.93 1409.11,232.96 1411.11,232.989 1413.11,233.019 1415.11,233.048 1417.11,233.077 1419.11,233.106 1421.11,233.134 
  1423.11,233.163 1425.11,233.191 1427.11,233.219 1429.11,233.247 1431.11,233.274 1433.11,233.302 1435.11,233.329 1437.11,233.356 1439.11,233.382 1441.11,233.409 
  1443.11,233.435 1445.12,233.461 1447.12,233.487 1449.12,233.513 1451.12,233.538 1453.12,233.563 1455.12,233.588 1457.12,233.612 1459.12,233.637 1461.12,233.661 
  1463.12,233.685 1465.12,233.708 1467.12,233.732 1469.12,233.755 1471.12,233.778 1473.12,233.801 1475.12,233.823 1477.12,233.845 1479.12,233.867 1481.12,233.889 
  1483.12,233.91 1485.12,233.932 1487.13,233.953 1489.13,233.974 1491.13,233.994 1493.13,234.015 1495.13,234.035 1497.13,234.055 1499.13,234.074 1501.13,234.094 
  1503.13,234.113 1505.13,234.132 1507.13,234.151 1509.13,234.169 1511.13,234.188 1513.13,234.206 1515.13,234.224 1517.13,234.242 1519.13,234.259 1521.13,234.277 
  1523.13,234.294 1525.13,234.311 1527.13,234.328 1529.13,234.344 1531.14,234.361 1533.14,234.377 1535.14,234.393 1537.14,234.408 1539.14,234.424 1541.14,234.44 
  1543.14,234.455 1545.14,234.47 1547.14,234.485 1549.14,234.499 1551.14,234.514 1553.14,234.528 1555.14,234.543 1557.14,234.557 1559.14,234.571 1561.14,234.584 
  1563.14,234.598 1565.14,234.611 1567.14,234.624 1569.14,234.638 1571.14,234.65 1573.15,234.663 1575.15,234.676 1577.15,234.688 1579.15,234.701 1581.15,234.713 
  1583.15,234.725 1585.15,234.737 1587.15,234.749 1589.15,234.76 1591.15,234.772 1593.15,234.783 1595.15,234.794 1597.15,234.805 1599.15,234.816 1601.15,234.827 
  1603.15,234.838 1605.15,234.849 1607.15,234.859 1609.15,234.869 1611.15,234.88 1613.15,234.89 1615.15,234.9 1617.16,234.91 1619.16,234.919 1621.16,234.929 
  1623.16,234.939 1625.16,234.948 1627.16,234.957 1629.16,234.967 1631.16,234.976 1633.16,234.985 1635.16,234.994 1637.16,235.003 1639.16,235.011 1641.16,235.02 
  1643.16,235.029 1645.16,235.037 1647.16,235.045 1649.16,235.054 1651.16,235.062 1653.16,235.07 1655.16,235.078 1657.16,235.086 1659.17,235.093 1661.17,235.101 
  1663.17,235.109 1665.17,235.116 1667.17,235.124 1669.17,235.131 1671.17,235.139 1673.17,235.146 1675.17,235.153 1677.17,235.16 1679.17,235.167 1681.17,235.174 
  1683.17,235.181 1685.17,235.187 1687.17,235.194 1689.17,235.201 1691.17,235.207 1693.17,235.214 1695.17,235.22 1697.17,235.227 1699.17,235.233 1701.18,235.239 
  1703.18,235.245 1705.18,235.251 1707.18,235.257 1709.18,235.263 1711.18,235.269 1713.18,235.275 1715.18,235.281 1717.18,235.287 1719.18,235.292 1721.18,235.298 
  1723.18,235.303 1725.18,235.309 1727.18,235.314 1729.18,235.32 1731.18,235.325 1733.18,235.33 1735.18,235.336 1737.18,235.341 1739.18,235.346 1741.18,235.351 
  1743.18,235.356 1745.19,235.361 1747.19,235.366 1749.19,235.371 1751.19,235.375 1753.19,235.38 1755.19,235.385 1757.19,235.39 1759.19,235.394 1761.19,235.399 
  1763.19,235.403 1765.19,235.408 1767.19,235.412 1769.19,235.417 1771.19,235.421 1773.19,235.425 1775.19,235.43 1777.19,235.434 1779.19,235.438 1781.19,235.442 
  1783.19,235.446 1785.19,235.45 1787.2,235.454 1789.2,235.458 1791.2,235.462 1793.2,235.466 1795.2,235.47 1797.2,235.474 1799.2,235.478 1801.2,235.482 
  1803.2,235.485 1805.2,235.489 1807.2,235.493 1809.2,235.497 1811.2,235.5 1813.2,235.504 1815.2,235.507 1817.2,235.511 1819.2,235.514 1821.2,235.518 
  1823.2,235.521 1825.2,235.524 1827.2,235.528 1829.2,235.531 1831.21,235.534 1833.21,235.538 1835.21,235.541 1837.21,235.544 1839.21,235.547 1841.21,235.551 
  1843.21,235.554 1845.21,235.557 1847.21,235.56 1849.21,235.563 1851.21,235.566 1853.21,235.569 1855.21,235.572 1857.21,235.575 1859.21,235.578 1861.21,235.581 
  1863.21,235.583 1865.21,235.586 1867.21,235.589 1869.21,235.592 1871.21,235.595 1873.22,235.597 1875.22,235.6 1877.22,235.603 1879.22,235.605 1881.22,235.608 
  1883.22,235.611 1885.22,235.613 1887.22,235.616 1889.22,235.618 1891.22,235.621 1893.22,235.624 1895.22,235.626 1897.22,235.628 1899.22,235.631 1901.22,235.633 
  1903.22,235.636 1905.22,235.638 1907.22,235.641 1909.22,235.643 1911.22,235.645 1913.22,235.648 1915.23,235.65 1917.23,235.652 1919.23,235.654 1921.23,235.657 
  1923.23,235.659 1925.23,235.661 1927.23,235.663 1929.23,235.665 1931.23,235.668 1933.23,235.67 1935.23,235.672 1937.23,235.674 1939.23,235.676 1941.23,235.678 
  1943.23,235.68 1945.23,235.682 1947.23,235.684 1949.23,235.686 1951.23,235.688 1953.23,235.69 1955.23,235.692 1957.23,235.694 1959.24,235.696 1961.24,235.698 
  1963.24,235.7 1965.24,235.702 1967.24,235.704 1969.24,235.706 1971.24,235.707 1973.24,235.709 1975.24,235.711 1977.24,235.713 1979.24,235.715 1981.24,235.716 
  1983.24,235.718 1985.24,235.72 1987.24,235.722 1989.24,235.723 1991.24,235.725 1993.24,235.727 1995.24,235.728 1997.24,235.73 1999.24,235.732 2001.25,235.733 
  2003.25,235.735 2005.25,235.737 2007.25,235.738 2009.25,235.74 2011.25,235.741 2013.25,235.743 2015.25,235.745 2017.25,235.746 2019.25,235.748 2021.25,235.749 
  2023.25,235.751 2025.25,235.752 2027.25,235.754 2029.25,235.755 2031.25,235.757 2033.25,235.758 2035.25,235.76 2037.25,235.761 2039.25,235.763 2041.25,235.764 
  2043.25,235.765 2045.26,235.767 2047.26,235.768 2049.26,235.77 2051.26,235.771 2053.26,235.772 2055.26,235.774 2057.26,235.775 2059.26,235.776 2061.26,235.778 
  2063.26,235.779 2065.26,235.78 2067.26,235.782 2069.26,235.783 2071.26,235.784 2073.26,235.785 2075.26,235.787 2077.26,235.788 2079.26,235.789 2081.26,235.79 
  2083.26,235.792 2085.26,235.793 2087.27,235.794 2089.27,235.795 2091.27,235.797 2093.27,235.798 2095.27,235.799 2097.27,235.8 2099.27,235.801 2101.27,235.802 
  2103.27,235.804 2105.27,235.805 2107.27,235.806 2109.27,235.807 2111.27,235.808 2113.27,235.809 2115.27,235.81 2117.27,235.811 2119.27,235.813 2121.27,235.814 
  2123.27,235.815 2125.27,235.816 2127.27,235.817 2129.28,235.818 2131.28,235.819 2133.28,235.82 2135.28,235.821 2137.28,235.822 2139.28,235.823 2141.28,235.824 
  2143.28,235.825 2145.28,235.826 2147.28,235.827 2149.28,235.828 2151.28,235.829 2153.28,235.83 2155.28,235.831 2157.28,235.832 2159.28,235.833 2161.28,235.834 
  2163.28,235.835 2165.28,235.836 2167.28,235.837 2169.28,235.838 2171.28,235.839 2173.29,235.84 2175.29,235.84 2177.29,235.841 2179.29,235.842 2181.29,235.843 
  2183.29,235.844 2185.29,235.845 2187.29,235.846 2189.29,235.847 2191.29,235.848 2193.29,235.848 2195.29,235.849 2197.29,235.85 2199.29,235.851 2201.29,235.852 
  2203.29,235.853 2205.29,235.854 2207.29,235.854 2209.29,235.855 2211.29,235.856 2213.29,235.857 2215.3,235.858 2217.3,235.858 2219.3,235.859 2221.3,235.86 
  2223.3,235.861 2225.3,235.862 2227.3,235.862 2229.3,235.863 2231.3,235.864 2233.3,235.865 2235.3,235.866 2237.3,235.866 2239.3,235.867 2241.3,235.868 
  2243.3,235.869 2245.3,235.869 2247.3,235.87 2249.3,235.871 2251.3,235.871 2253.3,235.872 2255.3,235.873 2257.3,235.874 2259.31,235.874 2261.31,235.875 
  
  "/>
<circle clip-path="url(#clip6103)" style="fill:#000000; stroke:none; fill-opacity:1" cx="262.839" cy="235.875" r="18"/>
<circle clip-path="url(#clip6103)" style="fill:#e26f46; stroke:none; fill-opacity:1" cx="262.839" cy="235.875" r="14"/>
<circle clip-path="url(#clip6103)" style="fill:#000000; stroke:none; fill-opacity:1" cx="346.109" cy="235.842" r="18"/>
<circle clip-path="url(#clip6103)" style="fill:#e26f46; stroke:none; fill-opacity:1" cx="346.109" cy="235.842" r="14"/>
<circle clip-path="url(#clip6103)" style="fill:#000000; stroke:none; fill-opacity:1" cx="429.378" cy="235.799" r="18"/>
<circle clip-path="url(#clip6103)" style="fill:#e26f46; stroke:none; fill-opacity:1" cx="429.378" cy="235.799" r="14"/>
<circle clip-path="url(#clip6103)" style="fill:#000000; stroke:none; fill-opacity:1" cx="512.648" cy="235.742" r="18"/>
<circle clip-path="url(#clip6103)" style="fill:#e26f46; stroke:none; fill-opacity:1" cx="512.648" cy="235.742" r="14"/>
<circle clip-path="url(#clip6103)" style="fill:#000000; stroke:none; fill-opacity:1" cx="595.917" cy="235.664" r="18"/>
<circle clip-path="url(#clip6103)" style="fill:#e26f46; stroke:none; fill-opacity:1" cx="595.917" cy="235.664" r="14"/>
<circle clip-path="url(#clip6103)" style="fill:#000000; stroke:none; fill-opacity:1" cx="679.186" cy="235.556" r="18"/>
<circle clip-path="url(#clip6103)" style="fill:#e26f46; stroke:none; fill-opacity:1" cx="679.186" cy="235.556" r="14"/>
<circle clip-path="url(#clip6103)" style="fill:#000000; stroke:none; fill-opacity:1" cx="762.456" cy="235.4" r="18"/>
<circle clip-path="url(#clip6103)" style="fill:#e26f46; stroke:none; fill-opacity:1" cx="762.456" cy="235.4" r="14"/>
<circle clip-path="url(#clip6103)" style="fill:#000000; stroke:none; fill-opacity:1" cx="845.725" cy="235.164" r="18"/>
<circle clip-path="url(#clip6103)" style="fill:#e26f46; stroke:none; fill-opacity:1" cx="845.725" cy="235.164" r="14"/>
<circle clip-path="url(#clip6103)" style="fill:#000000; stroke:none; fill-opacity:1" cx="928.995" cy="234.794" r="18"/>
<circle clip-path="url(#clip6103)" style="fill:#e26f46; stroke:none; fill-opacity:1" cx="928.995" cy="234.794" r="14"/>
<circle clip-path="url(#clip6103)" style="fill:#000000; stroke:none; fill-opacity:1" cx="1012.26" cy="234.195" r="18"/>
<circle clip-path="url(#clip6103)" style="fill:#e26f46; stroke:none; fill-opacity:1" cx="1012.26" cy="234.195" r="14"/>
<circle clip-path="url(#clip6103)" style="fill:#000000; stroke:none; fill-opacity:1" cx="1095.53" cy="233.24" r="18"/>
<circle clip-path="url(#clip6103)" style="fill:#e26f46; stroke:none; fill-opacity:1" cx="1095.53" cy="233.24" r="14"/>
<circle clip-path="url(#clip6103)" style="fill:#000000; stroke:none; fill-opacity:1" cx="1178.8" cy="231.989" r="18"/>
<circle clip-path="url(#clip6103)" style="fill:#e26f46; stroke:none; fill-opacity:1" cx="1178.8" cy="231.989" r="14"/>
<circle clip-path="url(#clip6103)" style="fill:#000000; stroke:none; fill-opacity:1" cx="1262.07" cy="231.282" r="18"/>
<circle clip-path="url(#clip6103)" style="fill:#e26f46; stroke:none; fill-opacity:1" cx="1262.07" cy="231.282" r="14"/>
<circle clip-path="url(#clip6103)" style="fill:#000000; stroke:none; fill-opacity:1" cx="1345.34" cy="231.989" r="18"/>
<circle clip-path="url(#clip6103)" style="fill:#e26f46; stroke:none; fill-opacity:1" cx="1345.34" cy="231.989" r="14"/>
<circle clip-path="url(#clip6103)" style="fill:#000000; stroke:none; fill-opacity:1" cx="1428.61" cy="233.24" r="18"/>
<circle clip-path="url(#clip6103)" style="fill:#e26f46; stroke:none; fill-opacity:1" cx="1428.61" cy="233.24" r="14"/>
<circle clip-path="url(#clip6103)" style="fill:#000000; stroke:none; fill-opacity:1" cx="1511.88" cy="234.195" r="18"/>
<circle clip-path="url(#clip6103)" style="fill:#e26f46; stroke:none; fill-opacity:1" cx="1511.88" cy="234.195" r="14"/>
<circle clip-path="url(#clip6103)" style="fill:#000000; stroke:none; fill-opacity:1" cx="1595.15" cy="234.794" r="18"/>
<circle clip-path="url(#clip6103)" style="fill:#e26f46; stroke:none; fill-opacity:1" cx="1595.15" cy="234.794" r="14"/>
<circle clip-path="url(#clip6103)" style="fill:#000000; stroke:none; fill-opacity:1" cx="1678.42" cy="235.164" r="18"/>
<circle clip-path="url(#clip6103)" style="fill:#e26f46; stroke:none; fill-opacity:1" cx="1678.42" cy="235.164" r="14"/>
<circle clip-path="url(#clip6103)" style="fill:#000000; stroke:none; fill-opacity:1" cx="1761.69" cy="235.4" r="18"/>
<circle clip-path="url(#clip6103)" style="fill:#e26f46; stroke:none; fill-opacity:1" cx="1761.69" cy="235.4" r="14"/>
<circle clip-path="url(#clip6103)" style="fill:#000000; stroke:none; fill-opacity:1" cx="1844.96" cy="235.556" r="18"/>
<circle clip-path="url(#clip6103)" style="fill:#e26f46; stroke:none; fill-opacity:1" cx="1844.96" cy="235.556" r="14"/>
<circle clip-path="url(#clip6103)" style="fill:#000000; stroke:none; fill-opacity:1" cx="1928.23" cy="235.664" r="18"/>
<circle clip-path="url(#clip6103)" style="fill:#e26f46; stroke:none; fill-opacity:1" cx="1928.23" cy="235.664" r="14"/>
<circle clip-path="url(#clip6103)" style="fill:#000000; stroke:none; fill-opacity:1" cx="2011.5" cy="235.742" r="18"/>
<circle clip-path="url(#clip6103)" style="fill:#e26f46; stroke:none; fill-opacity:1" cx="2011.5" cy="235.742" r="14"/>
<circle clip-path="url(#clip6103)" style="fill:#000000; stroke:none; fill-opacity:1" cx="2094.77" cy="235.799" r="18"/>
<circle clip-path="url(#clip6103)" style="fill:#e26f46; stroke:none; fill-opacity:1" cx="2094.77" cy="235.799" r="14"/>
<circle clip-path="url(#clip6103)" style="fill:#000000; stroke:none; fill-opacity:1" cx="2178.04" cy="235.842" r="18"/>
<circle clip-path="url(#clip6103)" style="fill:#e26f46; stroke:none; fill-opacity:1" cx="2178.04" cy="235.842" r="14"/>
<circle clip-path="url(#clip6103)" style="fill:#000000; stroke:none; fill-opacity:1" cx="2261.31" cy="235.875" r="18"/>
<circle clip-path="url(#clip6103)" style="fill:#e26f46; stroke:none; fill-opacity:1" cx="2261.31" cy="235.875" r="14"/>
<polyline clip-path="url(#clip6103)" style="stroke:#3da44d; stroke-width:4; stroke-opacity:1; fill:none" points="
  262.839,235.875 264.84,523.938 266.84,762.262 268.841,956.571 270.841,1112.06 272.842,1233.45 274.842,1325.01 276.843,1390.58 278.843,1433.65 280.843,1457.35 
  282.844,1464.49 284.844,1457.59 286.845,1438.89 288.845,1410.42 290.846,1373.94 292.846,1331.05 294.847,1283.14 296.847,1231.43 298.848,1177 300.848,1120.78 
  302.849,1063.59 304.849,1006.12 306.85,948.971 308.85,892.638 310.85,837.547 312.851,784.046 314.851,732.419 316.852,682.89 318.852,635.632 320.853,590.775 
  322.853,548.406 324.854,508.579 326.854,471.318 328.855,436.621 330.855,404.462 332.856,374.798 334.856,347.57 336.857,322.704 338.857,300.118 340.858,279.719 
  342.858,261.409 344.858,245.084 346.859,230.638 348.859,217.961 350.86,206.945 352.86,197.48 354.861,189.456 356.861,182.767 358.862,177.309 360.862,172.98 
  362.863,169.682 364.863,167.321 366.864,165.805 368.864,165.049 370.865,164.97 372.865,165.491 374.865,166.538 376.866,168.044 378.866,169.943 380.867,172.177 
  382.867,174.689 384.868,177.428 386.868,180.348 388.869,183.406 390.869,186.562 392.87,189.78 394.87,193.029 396.871,196.28 398.871,199.507 400.872,202.688 
  402.872,205.804 404.872,208.837 406.873,211.772 408.873,214.598 410.874,217.304 412.874,219.883 414.875,222.327 416.875,224.632 418.876,226.795 420.876,228.815 
  422.877,230.69 424.877,232.421 426.878,234.009 428.878,235.458 430.879,236.77 432.879,237.949 434.879,238.999 436.88,239.925 438.88,240.733 440.881,241.427 
  442.881,242.015 444.882,242.501 446.882,242.893 448.883,243.195 450.883,243.415 452.884,243.558 454.884,243.631 456.885,243.639 458.885,243.589 460.886,243.487 
  462.886,243.337 464.886,243.145 466.887,242.916 468.887,242.656 470.888,242.369 472.888,242.059 474.889,241.73 476.889,241.387 478.89,241.033 480.89,240.671 
  482.891,240.305 484.891,239.938 486.892,239.572 488.892,239.209 490.893,238.852 492.893,238.503 494.893,238.163 496.894,237.835 498.894,237.518 500.895,237.215 
  502.895,236.926 504.896,236.652 506.896,236.394 508.897,236.152 510.897,235.926 512.898,235.716 514.898,235.524 516.899,235.348 518.899,235.188 520.9,235.044 
  522.9,234.916 524.9,234.804 526.901,234.706 528.901,234.622 530.902,234.553 532.902,234.496 534.903,234.452 536.903,234.42 538.904,234.399 540.904,234.388 
  542.905,234.387 544.905,234.394 546.906,234.41 548.906,234.433 550.907,234.463 552.907,234.499 554.907,234.54 556.908,234.586 558.908,234.636 560.909,234.689 
  562.909,234.746 564.91,234.804 566.91,234.864 568.911,234.925 570.911,234.986 572.912,235.048 574.912,235.11 576.913,235.171 578.913,235.231 580.914,235.29 
  582.914,235.347 584.914,235.402 586.915,235.456 588.915,235.506 590.916,235.555 592.916,235.601 594.917,235.644 596.917,235.684 598.918,235.721 600.918,235.756 
  602.919,235.787 604.919,235.815 606.92,235.841 608.92,235.863 610.921,235.882 612.921,235.899 614.921,235.913 616.922,235.924 618.922,235.932 620.923,235.937 
  622.923,235.941 624.924,235.942 626.924,235.94 628.925,235.937 630.925,235.932 632.926,235.925 634.926,235.916 636.927,235.906 638.927,235.894 640.928,235.881 
  642.928,235.867 644.928,235.852 646.929,235.837 648.929,235.82 650.93,235.803 652.93,235.785 654.931,235.767 656.931,235.749 658.932,235.731 660.932,235.712 
  662.933,235.694 664.933,235.676 666.934,235.658 668.934,235.64 670.935,235.623 672.935,235.606 674.935,235.589 676.936,235.574 678.936,235.558 680.937,235.544 
  682.937,235.53 684.938,235.516 686.938,235.504 688.939,235.492 690.939,235.48 692.94,235.47 694.94,235.46 696.941,235.451 698.941,235.443 700.942,235.436 
  702.942,235.429 704.943,235.423 706.943,235.417 708.943,235.412 710.944,235.408 712.944,235.404 714.945,235.401 716.945,235.399 718.946,235.397 720.946,235.395 
  722.947,235.394 724.947,235.393 726.948,235.392 728.948,235.392 730.949,235.392 732.949,235.392 734.95,235.393 736.95,235.393 738.95,235.394 740.951,235.395 
  742.951,235.396 744.952,235.396 746.952,235.397 748.953,235.398 750.953,235.399 752.954,235.399 754.954,235.4 756.955,235.4 758.955,235.4 760.956,235.4 
  762.956,235.4 764.957,235.399 766.957,235.399 768.957,235.397 770.958,235.396 772.958,235.395 774.959,235.393 776.959,235.39 778.96,235.388 780.96,235.385 
  782.961,235.382 784.961,235.379 786.962,235.375 788.962,235.371 790.963,235.366 792.963,235.362 794.964,235.357 796.964,235.352 798.964,235.346 800.965,235.34 
  802.965,235.334 804.966,235.328 806.966,235.321 808.967,235.315 810.967,235.308 812.968,235.3 814.968,235.293 816.969,235.285 818.969,235.278 820.97,235.27 
  822.97,235.262 824.971,235.254 826.971,235.245 828.971,235.237 830.972,235.229 832.972,235.22 834.973,235.211 836.973,235.203 838.974,235.194 840.974,235.185 
  842.975,235.176 844.975,235.168 846.976,235.159 848.976,235.15 850.977,235.141 852.977,235.132 854.978,235.123 856.978,235.115 858.978,235.106 860.979,235.097 
  862.979,235.088 864.98,235.08 866.98,235.071 868.981,235.062 870.981,235.054 872.982,235.045 874.982,235.036 876.983,235.028 878.983,235.019 880.984,235.011 
  882.984,235.002 884.985,234.994 886.985,234.985 888.985,234.977 890.986,234.968 892.986,234.959 894.987,234.951 896.987,234.942 898.988,234.934 900.988,234.925 
  902.989,234.916 904.989,234.907 906.99,234.899 908.99,234.89 910.991,234.881 912.991,234.871 914.992,234.862 916.992,234.853 918.992,234.843 920.993,234.834 
  922.993,234.824 924.994,234.814 926.994,234.804 928.995,234.794 930.995,234.784 932.996,234.774 934.996,234.763 936.997,234.752 938.997,234.741 940.998,234.73 
  942.998,234.719 944.999,234.707 946.999,234.696 948.999,234.684 951,234.672 953,234.659 955.001,234.647 957.001,234.634 959.002,234.621 961.002,234.608 
  963.003,234.594 965.003,234.581 967.004,234.567 969.004,234.553 971.005,234.539 973.005,234.524 975.006,234.509 977.006,234.494 979.006,234.479 981.007,234.464 
  983.007,234.448 985.008,234.432 987.008,234.416 989.009,234.4 991.009,234.383 993.01,234.366 995.01,234.349 997.011,234.332 999.011,234.315 1001.01,234.297 
  1003.01,234.28 1005.01,234.262 1007.01,234.243 1009.01,234.225 1011.01,234.206 1013.01,234.188 1015.01,234.169 1017.02,234.149 1019.02,234.13 1021.02,234.111 
  1023.02,234.091 1025.02,234.071 1027.02,234.051 1029.02,234.03 1031.02,234.01 1033.02,233.989 1035.02,233.968 1037.02,233.947 1039.02,233.926 1041.02,233.904 
  1043.02,233.883 1045.02,233.861 1047.02,233.839 1049.02,233.816 1051.02,233.794 1053.02,233.771 1055.02,233.748 1057.02,233.725 1059.03,233.702 1061.03,233.679 
  1063.03,233.655 1065.03,233.631 1067.03,233.607 1069.03,233.583 1071.03,233.558 1073.03,233.533 1075.03,233.508 1077.03,233.483 1079.03,233.458 1081.03,233.432 
  1083.03,233.406 1085.03,233.38 1087.03,233.354 1089.03,233.327 1091.03,233.301 1093.03,233.274 1095.03,233.247 1097.03,233.219 1099.03,233.192 1101.03,233.164 
  1103.04,233.136 1105.04,233.107 1107.04,233.079 1109.04,233.05 1111.04,233.021 1113.04,232.992 1115.04,232.963 1117.04,232.934 1119.04,232.904 1121.04,232.874 
  1123.04,232.844 1125.04,232.814 1127.04,232.784 1129.04,232.753 1131.04,232.723 1133.04,232.692 1135.04,232.661 1137.04,232.63 1139.04,232.599 1141.04,232.568 
  1143.04,232.537 1145.05,232.506 1147.05,232.475 1149.05,232.443 1151.05,232.412 1153.05,232.381 1155.05,232.35 1157.05,232.319 1159.05,232.288 1161.05,232.257 
  1163.05,232.226 1165.05,232.195 1167.05,232.164 1169.05,232.134 1171.05,232.104 1173.05,232.074 1175.05,232.044 1177.05,232.014 1179.05,231.985 1181.05,231.956 
  1183.05,231.927 1185.05,231.899 1187.06,231.871 1189.06,231.844 1191.06,231.816 1193.06,231.79 1195.06,231.763 1197.06,231.738 1199.06,231.712 1201.06,231.688 
  1203.06,231.663 1205.06,231.64 1207.06,231.617 1209.06,231.594 1211.06,231.572 1213.06,231.551 1215.06,231.531 1217.06,231.511 1219.06,231.492 1221.06,231.474 
  1223.06,231.456 1225.06,231.439 1227.06,231.423 1229.06,231.408 1231.07,231.393 1233.07,231.38 1235.07,231.367 1237.07,231.355 1239.07,231.344 1241.07,231.334 
  1243.07,231.324 1245.07,231.316 1247.07,231.309 1249.07,231.302 1251.07,231.296 1253.07,231.292 1255.07,231.288 1257.07,231.285 1259.07,231.283 1261.07,231.282 
  1263.07,231.282 1265.07,231.283 1267.07,231.285 1269.07,231.288 1271.07,231.292 1273.08,231.296 1275.08,231.302 1277.08,231.309 1279.08,231.316 1281.08,231.324 
  1283.08,231.334 1285.08,231.344 1287.08,231.355 1289.08,231.367 1291.08,231.38 1293.08,231.393 1295.08,231.408 1297.08,231.423 1299.08,231.439 1301.08,231.456 
  1303.08,231.474 1305.08,231.492 1307.08,231.511 1309.08,231.531 1311.08,231.551 1313.08,231.572 1315.08,231.594 1317.09,231.617 1319.09,231.64 1321.09,231.663 
  1323.09,231.688 1325.09,231.712 1327.09,231.738 1329.09,231.763 1331.09,231.79 1333.09,231.816 1335.09,231.844 1337.09,231.871 1339.09,231.899 1341.09,231.927 
  1343.09,231.956 1345.09,231.985 1347.09,232.014 1349.09,232.044 1351.09,232.074 1353.09,232.104 1355.09,232.134 1357.09,232.164 1359.1,232.195 1361.1,232.226 
  1363.1,232.257 1365.1,232.288 1367.1,232.319 1369.1,232.35 1371.1,232.381 1373.1,232.412 1375.1,232.443 1377.1,232.475 1379.1,232.506 1381.1,232.537 
  1383.1,232.568 1385.1,232.599 1387.1,232.63 1389.1,232.661 1391.1,232.692 1393.1,232.723 1395.1,232.753 1397.1,232.784 1399.1,232.814 1401.11,232.844 
  1403.11,232.874 1405.11,232.904 1407.11,232.934 1409.11,232.963 1411.11,232.992 1413.11,233.021 1415.11,233.05 1417.11,233.079 1419.11,233.107 1421.11,233.136 
  1423.11,233.164 1425.11,233.192 1427.11,233.219 1429.11,233.247 1431.11,233.274 1433.11,233.301 1435.11,233.327 1437.11,233.354 1439.11,233.38 1441.11,233.406 
  1443.11,233.432 1445.12,233.458 1447.12,233.483 1449.12,233.508 1451.12,233.533 1453.12,233.558 1455.12,233.583 1457.12,233.607 1459.12,233.631 1461.12,233.655 
  1463.12,233.679 1465.12,233.702 1467.12,233.725 1469.12,233.748 1471.12,233.771 1473.12,233.794 1475.12,233.816 1477.12,233.839 1479.12,233.861 1481.12,233.883 
  1483.12,233.904 1485.12,233.926 1487.13,233.947 1489.13,233.968 1491.13,233.989 1493.13,234.01 1495.13,234.03 1497.13,234.051 1499.13,234.071 1501.13,234.091 
  1503.13,234.111 1505.13,234.13 1507.13,234.149 1509.13,234.169 1511.13,234.188 1513.13,234.206 1515.13,234.225 1517.13,234.243 1519.13,234.262 1521.13,234.28 
  1523.13,234.297 1525.13,234.315 1527.13,234.332 1529.13,234.349 1531.14,234.366 1533.14,234.383 1535.14,234.4 1537.14,234.416 1539.14,234.432 1541.14,234.448 
  1543.14,234.464 1545.14,234.479 1547.14,234.494 1549.14,234.509 1551.14,234.524 1553.14,234.539 1555.14,234.553 1557.14,234.567 1559.14,234.581 1561.14,234.594 
  1563.14,234.608 1565.14,234.621 1567.14,234.634 1569.14,234.647 1571.14,234.659 1573.15,234.672 1575.15,234.684 1577.15,234.696 1579.15,234.707 1581.15,234.719 
  1583.15,234.73 1585.15,234.741 1587.15,234.752 1589.15,234.763 1591.15,234.774 1593.15,234.784 1595.15,234.794 1597.15,234.804 1599.15,234.814 1601.15,234.824 
  1603.15,234.834 1605.15,234.843 1607.15,234.853 1609.15,234.862 1611.15,234.871 1613.15,234.881 1615.15,234.89 1617.16,234.899 1619.16,234.907 1621.16,234.916 
  1623.16,234.925 1625.16,234.934 1627.16,234.942 1629.16,234.951 1631.16,234.959 1633.16,234.968 1635.16,234.977 1637.16,234.985 1639.16,234.994 1641.16,235.002 
  1643.16,235.011 1645.16,235.019 1647.16,235.028 1649.16,235.036 1651.16,235.045 1653.16,235.054 1655.16,235.062 1657.16,235.071 1659.17,235.08 1661.17,235.088 
  1663.17,235.097 1665.17,235.106 1667.17,235.115 1669.17,235.123 1671.17,235.132 1673.17,235.141 1675.17,235.15 1677.17,235.159 1679.17,235.168 1681.17,235.176 
  1683.17,235.185 1685.17,235.194 1687.17,235.203 1689.17,235.211 1691.17,235.22 1693.17,235.229 1695.17,235.237 1697.17,235.245 1699.17,235.254 1701.18,235.262 
  1703.18,235.27 1705.18,235.278 1707.18,235.285 1709.18,235.293 1711.18,235.3 1713.18,235.308 1715.18,235.315 1717.18,235.321 1719.18,235.328 1721.18,235.334 
  1723.18,235.34 1725.18,235.346 1727.18,235.352 1729.18,235.357 1731.18,235.362 1733.18,235.366 1735.18,235.371 1737.18,235.375 1739.18,235.379 1741.18,235.382 
  1743.18,235.385 1745.19,235.388 1747.19,235.39 1749.19,235.393 1751.19,235.395 1753.19,235.396 1755.19,235.397 1757.19,235.399 1759.19,235.399 1761.19,235.4 
  1763.19,235.4 1765.19,235.4 1767.19,235.4 1769.19,235.4 1771.19,235.399 1773.19,235.399 1775.19,235.398 1777.19,235.397 1779.19,235.396 1781.19,235.396 
  1783.19,235.395 1785.19,235.394 1787.2,235.393 1789.2,235.393 1791.2,235.392 1793.2,235.392 1795.2,235.392 1797.2,235.392 1799.2,235.393 1801.2,235.394 
  1803.2,235.395 1805.2,235.397 1807.2,235.399 1809.2,235.401 1811.2,235.404 1813.2,235.408 1815.2,235.412 1817.2,235.417 1819.2,235.423 1821.2,235.429 
  1823.2,235.436 1825.2,235.443 1827.2,235.451 1829.2,235.46 1831.21,235.47 1833.21,235.48 1835.21,235.492 1837.21,235.504 1839.21,235.516 1841.21,235.53 
  1843.21,235.544 1845.21,235.558 1847.21,235.574 1849.21,235.589 1851.21,235.606 1853.21,235.623 1855.21,235.64 1857.21,235.658 1859.21,235.676 1861.21,235.694 
  1863.21,235.712 1865.21,235.731 1867.21,235.749 1869.21,235.767 1871.21,235.785 1873.22,235.803 1875.22,235.82 1877.22,235.837 1879.22,235.852 1881.22,235.867 
  1883.22,235.881 1885.22,235.894 1887.22,235.906 1889.22,235.916 1891.22,235.925 1893.22,235.932 1895.22,235.937 1897.22,235.94 1899.22,235.942 1901.22,235.941 
  1903.22,235.937 1905.22,235.932 1907.22,235.924 1909.22,235.913 1911.22,235.899 1913.22,235.882 1915.23,235.863 1917.23,235.841 1919.23,235.815 1921.23,235.787 
  1923.23,235.756 1925.23,235.721 1927.23,235.684 1929.23,235.644 1931.23,235.601 1933.23,235.555 1935.23,235.506 1937.23,235.456 1939.23,235.402 1941.23,235.347 
  1943.23,235.29 1945.23,235.231 1947.23,235.171 1949.23,235.11 1951.23,235.048 1953.23,234.986 1955.23,234.925 1957.23,234.864 1959.24,234.804 1961.24,234.746 
  1963.24,234.689 1965.24,234.636 1967.24,234.586 1969.24,234.54 1971.24,234.499 1973.24,234.463 1975.24,234.433 1977.24,234.41 1979.24,234.394 1981.24,234.387 
  1983.24,234.388 1985.24,234.399 1987.24,234.42 1989.24,234.452 1991.24,234.496 1993.24,234.553 1995.24,234.622 1997.24,234.706 1999.24,234.804 2001.25,234.916 
  2003.25,235.044 2005.25,235.188 2007.25,235.348 2009.25,235.524 2011.25,235.716 2013.25,235.926 2015.25,236.152 2017.25,236.394 2019.25,236.652 2021.25,236.926 
  2023.25,237.215 2025.25,237.518 2027.25,237.835 2029.25,238.163 2031.25,238.503 2033.25,238.852 2035.25,239.209 2037.25,239.572 2039.25,239.938 2041.25,240.305 
  2043.25,240.671 2045.26,241.033 2047.26,241.387 2049.26,241.73 2051.26,242.059 2053.26,242.369 2055.26,242.656 2057.26,242.916 2059.26,243.145 2061.26,243.337 
  2063.26,243.487 2065.26,243.589 2067.26,243.639 2069.26,243.631 2071.26,243.558 2073.26,243.415 2075.26,243.195 2077.26,242.893 2079.26,242.501 2081.26,242.015 
  2083.26,241.427 2085.26,240.733 2087.27,239.925 2089.27,238.999 2091.27,237.949 2093.27,236.77 2095.27,235.458 2097.27,234.009 2099.27,232.421 2101.27,230.69 
  2103.27,228.815 2105.27,226.795 2107.27,224.632 2109.27,222.327 2111.27,219.883 2113.27,217.304 2115.27,214.598 2117.27,211.772 2119.27,208.837 2121.27,205.804 
  2123.27,202.688 2125.27,199.507 2127.27,196.28 2129.28,193.029 2131.28,189.78 2133.28,186.562 2135.28,183.406 2137.28,180.348 2139.28,177.428 2141.28,174.689 
  2143.28,172.177 2145.28,169.943 2147.28,168.044 2149.28,166.538 2151.28,165.491 2153.28,164.97 2155.28,165.049 2157.28,165.805 2159.28,167.321 2161.28,169.682 
  2163.28,172.98 2165.28,177.309 2167.28,182.767 2169.28,189.456 2171.28,197.48 2173.29,206.945 2175.29,217.961 2177.29,230.638 2179.29,245.084 2181.29,261.409 
  2183.29,279.719 2185.29,300.118 2187.29,322.704 2189.29,347.57 2191.29,374.798 2193.29,404.462 2195.29,436.621 2197.29,471.318 2199.29,508.579 2201.29,548.406 
  2203.29,590.775 2205.29,635.632 2207.29,682.89 2209.29,732.419 2211.29,784.046 2213.29,837.547 2215.3,892.638 2217.3,948.971 2219.3,1006.12 2221.3,1063.59 
  2223.3,1120.78 2225.3,1177 2227.3,1231.43 2229.3,1283.14 2231.3,1331.05 2233.3,1373.94 2235.3,1410.42 2237.3,1438.89 2239.3,1457.59 2241.3,1464.49 
  2243.3,1457.35 2245.3,1433.65 2247.3,1390.58 2249.3,1325.01 2251.3,1233.45 2253.3,1112.06 2255.3,956.571 2257.3,762.262 2259.31,523.938 2261.31,235.875 
  
  "/>
<polygon clip-path="url(#clip6101)" points="
1685.51,451.424 2249.26,451.424 2249.26,209.504 1685.51,209.504 
  " fill="#ffffff" fill-rule="evenodd" fill-opacity="1"/>
<polyline clip-path="url(#clip6101)" style="stroke:#000000; stroke-width:4; stroke-opacity:1; fill:none" points="
  1685.51,451.424 2249.26,451.424 2249.26,209.504 1685.51,209.504 1685.51,451.424 
  "/>
<polyline clip-path="url(#clip6101)" style="stroke:#009af9; stroke-width:4; stroke-opacity:1; fill:none" points="
  1709.51,269.984 1853.51,269.984 
  "/>
<g clip-path="url(#clip6101)">
<text style="fill:#000000; fill-opacity:1; font-family:Arial,Helvetica Neue,Helvetica,sans-serif; font-size:48px; text-anchor:start;" transform="rotate(0, 1877.51, 287.484)" x="1877.51" y="287.484">Runge function</text>
</g>
<circle clip-path="url(#clip6101)" style="fill:#000000; stroke:none; fill-opacity:1" cx="1793.51" cy="330.464" r="25"/>
<circle clip-path="url(#clip6101)" style="fill:#e26f46; stroke:none; fill-opacity:1" cx="1793.51" cy="330.464" r="21"/>
<g clip-path="url(#clip6101)">
<text style="fill:#000000; fill-opacity:1; font-family:Arial,Helvetica Neue,Helvetica,sans-serif; font-size:48px; text-anchor:start;" transform="rotate(0, 1877.51, 347.964)" x="1877.51" y="347.964">Nodes</text>
</g>
<polyline clip-path="url(#clip6101)" style="stroke:#3da44d; stroke-width:4; stroke-opacity:1; fill:none" points="
  1709.51,390.944 1853.51,390.944 
  "/>
<g clip-path="url(#clip6101)">
<text style="fill:#000000; fill-opacity:1; font-family:Arial,Helvetica Neue,Helvetica,sans-serif; font-size:48px; text-anchor:start;" transform="rotate(0, 1877.51, 408.444)" x="1877.51" y="408.444">Intepolation</text>
</g>
</svg>
