<?xml version="1.0" encoding="utf-8"?>
<svg xmlns="http://www.w3.org/2000/svg" xmlns:xlink="http://www.w3.org/1999/xlink" width="600" height="400" viewBox="0 0 2400 1600">
<defs>
  <clipPath id="clip8900">
    <rect x="0" y="0" width="2000" height="2000"/>
  </clipPath>
</defs>
<defs>
  <clipPath id="clip8901">
    <rect x="0" y="0" width="2400" height="1600"/>
  </clipPath>
</defs>
<polygon clip-path="url(#clip8901)" points="
0,1600 2400,1600 2400,0 0,0 
  " fill="#ffffff" fill-rule="evenodd" fill-opacity="1"/>
<defs>
  <clipPath id="clip8902">
    <rect x="480" y="0" width="1681" height="1600"/>
  </clipPath>
</defs>
<polygon clip-path="url(#clip8901)" points="
161.394,1503.47 2321.26,1503.47 2321.26,125.984 161.394,125.984 
  " fill="#ffffff" fill-rule="evenodd" fill-opacity="1"/>
<defs>
  <clipPath id="clip8903">
    <rect x="161" y="125" width="2161" height="1378"/>
  </clipPath>
</defs>
<polyline clip-path="url(#clip8903)" style="stroke:#000000; stroke-width:2; stroke-opacity:0.1; fill:none" points="
  222.522,1503.47 222.522,125.984 
  "/>
<polyline clip-path="url(#clip8903)" style="stroke:#000000; stroke-width:2; stroke-opacity:0.1; fill:none" points="
  731.925,1503.47 731.925,125.984 
  "/>
<polyline clip-path="url(#clip8903)" style="stroke:#000000; stroke-width:2; stroke-opacity:0.1; fill:none" points="
  1241.33,1503.47 1241.33,125.984 
  "/>
<polyline clip-path="url(#clip8903)" style="stroke:#000000; stroke-width:2; stroke-opacity:0.1; fill:none" points="
  1750.73,1503.47 1750.73,125.984 
  "/>
<polyline clip-path="url(#clip8903)" style="stroke:#000000; stroke-width:2; stroke-opacity:0.1; fill:none" points="
  2260.13,1503.47 2260.13,125.984 
  "/>
<polyline clip-path="url(#clip8903)" style="stroke:#000000; stroke-width:2; stroke-opacity:0.1; fill:none" points="
  161.394,1199.7 2321.26,1199.7 
  "/>
<polyline clip-path="url(#clip8903)" style="stroke:#000000; stroke-width:2; stroke-opacity:0.1; fill:none" points="
  161.394,889.275 2321.26,889.275 
  "/>
<polyline clip-path="url(#clip8903)" style="stroke:#000000; stroke-width:2; stroke-opacity:0.1; fill:none" points="
  161.394,578.847 2321.26,578.847 
  "/>
<polyline clip-path="url(#clip8903)" style="stroke:#000000; stroke-width:2; stroke-opacity:0.1; fill:none" points="
  161.394,268.42 2321.26,268.42 
  "/>
<polyline clip-path="url(#clip8901)" style="stroke:#000000; stroke-width:4; stroke-opacity:1; fill:none" points="
  161.394,1503.47 2321.26,1503.47 
  "/>
<polyline clip-path="url(#clip8901)" style="stroke:#000000; stroke-width:4; stroke-opacity:1; fill:none" points="
  161.394,1503.47 161.394,125.984 
  "/>
<polyline clip-path="url(#clip8901)" style="stroke:#000000; stroke-width:4; stroke-opacity:1; fill:none" points="
  222.522,1503.47 222.522,1482.81 
  "/>
<polyline clip-path="url(#clip8901)" style="stroke:#000000; stroke-width:4; stroke-opacity:1; fill:none" points="
  731.925,1503.47 731.925,1482.81 
  "/>
<polyline clip-path="url(#clip8901)" style="stroke:#000000; stroke-width:4; stroke-opacity:1; fill:none" points="
  1241.33,1503.47 1241.33,1482.81 
  "/>
<polyline clip-path="url(#clip8901)" style="stroke:#000000; stroke-width:4; stroke-opacity:1; fill:none" points="
  1750.73,1503.47 1750.73,1482.81 
  "/>
<polyline clip-path="url(#clip8901)" style="stroke:#000000; stroke-width:4; stroke-opacity:1; fill:none" points="
  2260.13,1503.47 2260.13,1482.81 
  "/>
<polyline clip-path="url(#clip8901)" style="stroke:#000000; stroke-width:4; stroke-opacity:1; fill:none" points="
  161.394,1199.7 193.792,1199.7 
  "/>
<polyline clip-path="url(#clip8901)" style="stroke:#000000; stroke-width:4; stroke-opacity:1; fill:none" points="
  161.394,889.275 193.792,889.275 
  "/>
<polyline clip-path="url(#clip8901)" style="stroke:#000000; stroke-width:4; stroke-opacity:1; fill:none" points="
  161.394,578.847 193.792,578.847 
  "/>
<polyline clip-path="url(#clip8901)" style="stroke:#000000; stroke-width:4; stroke-opacity:1; fill:none" points="
  161.394,268.42 193.792,268.42 
  "/>
<g clip-path="url(#clip8901)">
<text style="fill:#000000; fill-opacity:1; font-family:Arial,Helvetica Neue,Helvetica,sans-serif; font-size:48px; text-anchor:middle;" transform="rotate(0, 222.522, 1557.47)" x="222.522" y="1557.47">-1.0</text>
</g>
<g clip-path="url(#clip8901)">
<text style="fill:#000000; fill-opacity:1; font-family:Arial,Helvetica Neue,Helvetica,sans-serif; font-size:48px; text-anchor:middle;" transform="rotate(0, 731.925, 1557.47)" x="731.925" y="1557.47">-0.5</text>
</g>
<g clip-path="url(#clip8901)">
<text style="fill:#000000; fill-opacity:1; font-family:Arial,Helvetica Neue,Helvetica,sans-serif; font-size:48px; text-anchor:middle;" transform="rotate(0, 1241.33, 1557.47)" x="1241.33" y="1557.47">0.0</text>
</g>
<g clip-path="url(#clip8901)">
<text style="fill:#000000; fill-opacity:1; font-family:Arial,Helvetica Neue,Helvetica,sans-serif; font-size:48px; text-anchor:middle;" transform="rotate(0, 1750.73, 1557.47)" x="1750.73" y="1557.47">0.5</text>
</g>
<g clip-path="url(#clip8901)">
<text style="fill:#000000; fill-opacity:1; font-family:Arial,Helvetica Neue,Helvetica,sans-serif; font-size:48px; text-anchor:middle;" transform="rotate(0, 2260.13, 1557.47)" x="2260.13" y="1557.47">1.0</text>
</g>
<g clip-path="url(#clip8901)">
<text style="fill:#000000; fill-opacity:1; font-family:Arial,Helvetica Neue,Helvetica,sans-serif; font-size:48px; text-anchor:end;" transform="rotate(0, 137.394, 1217.2)" x="137.394" y="1217.2">0.0</text>
</g>
<g clip-path="url(#clip8901)">
<text style="fill:#000000; fill-opacity:1; font-family:Arial,Helvetica Neue,Helvetica,sans-serif; font-size:48px; text-anchor:end;" transform="rotate(0, 137.394, 906.775)" x="137.394" y="906.775">0.3</text>
</g>
<g clip-path="url(#clip8901)">
<text style="fill:#000000; fill-opacity:1; font-family:Arial,Helvetica Neue,Helvetica,sans-serif; font-size:48px; text-anchor:end;" transform="rotate(0, 137.394, 596.347)" x="137.394" y="596.347">0.6</text>
</g>
<g clip-path="url(#clip8901)">
<text style="fill:#000000; fill-opacity:1; font-family:Arial,Helvetica Neue,Helvetica,sans-serif; font-size:48px; text-anchor:end;" transform="rotate(0, 137.394, 285.92)" x="137.394" y="285.92">0.9</text>
</g>
<g clip-path="url(#clip8901)">
<text style="fill:#000000; fill-opacity:1; font-family:Arial,Helvetica Neue,Helvetica,sans-serif; font-size:84px; text-anchor:middle;" transform="rotate(0, 1241.33, 73.2)" x="1241.33" y="73.2">Runge&apos;s phenomenon (Nodes = 10)</text>
</g>
<polyline clip-path="url(#clip8903)" style="stroke:#009af9; stroke-width:4; stroke-opacity:1; fill:none" points="
  222.522,1159.9 224.562,1159.75 226.602,1159.6 228.641,1159.44 230.681,1159.28 232.721,1159.13 234.76,1158.97 236.8,1158.81 238.84,1158.65 240.879,1158.49 
  242.919,1158.33 244.958,1158.16 246.998,1158 249.038,1157.84 251.077,1157.67 253.117,1157.5 255.157,1157.34 257.196,1157.17 259.236,1157 261.276,1156.83 
  263.315,1156.66 265.355,1156.48 267.395,1156.31 269.434,1156.14 271.474,1155.96 273.514,1155.78 275.553,1155.61 277.593,1155.43 279.632,1155.25 281.672,1155.07 
  283.712,1154.88 285.751,1154.7 287.791,1154.52 289.831,1154.33 291.87,1154.14 293.91,1153.96 295.95,1153.77 297.989,1153.58 300.029,1153.39 302.069,1153.19 
  304.108,1153 306.148,1152.81 308.188,1152.61 310.227,1152.41 312.267,1152.21 314.307,1152.01 316.346,1151.81 318.386,1151.61 320.425,1151.41 322.465,1151.2 
  324.505,1151 326.544,1150.79 328.584,1150.58 330.624,1150.37 332.663,1150.16 334.703,1149.95 336.743,1149.74 338.782,1149.52 340.822,1149.3 342.862,1149.09 
  344.901,1148.87 346.941,1148.65 348.981,1148.42 351.02,1148.2 353.06,1147.98 355.099,1147.75 357.139,1147.52 359.179,1147.29 361.218,1147.06 363.258,1146.83 
  365.298,1146.59 367.337,1146.36 369.377,1146.12 371.417,1145.88 373.456,1145.64 375.496,1145.4 377.536,1145.16 379.575,1144.91 381.615,1144.67 383.655,1144.42 
  385.694,1144.17 387.734,1143.92 389.774,1143.67 391.813,1143.41 393.853,1143.15 395.892,1142.9 397.932,1142.64 399.972,1142.37 402.011,1142.11 404.051,1141.85 
  406.091,1141.58 408.13,1141.31 410.17,1141.04 412.21,1140.77 414.249,1140.49 416.289,1140.22 418.329,1139.94 420.368,1139.66 422.408,1139.38 424.448,1139.09 
  426.487,1138.81 428.527,1138.52 430.567,1138.23 432.606,1137.94 434.646,1137.64 436.685,1137.35 438.725,1137.05 440.765,1136.75 442.804,1136.45 444.844,1136.14 
  446.884,1135.83 448.923,1135.53 450.963,1135.21 453.003,1134.9 455.042,1134.59 457.082,1134.27 459.122,1133.95 461.161,1133.63 463.201,1133.3 465.241,1132.97 
  467.28,1132.65 469.32,1132.31 471.359,1131.98 473.399,1131.64 475.439,1131.3 477.478,1130.96 479.518,1130.62 481.558,1130.27 483.597,1129.92 485.637,1129.57 
  487.677,1129.22 489.716,1128.86 491.756,1128.5 493.796,1128.14 495.835,1127.77 497.875,1127.41 499.915,1127.04 501.954,1126.66 503.994,1126.29 506.034,1125.91 
  508.073,1125.53 510.113,1125.14 512.152,1124.75 514.192,1124.36 516.232,1123.97 518.271,1123.57 520.311,1123.17 522.351,1122.77 524.39,1122.37 526.43,1121.96 
  528.47,1121.55 530.509,1121.13 532.549,1120.71 534.589,1120.29 536.628,1119.87 538.668,1119.44 540.708,1119.01 542.747,1118.57 544.787,1118.13 546.826,1117.69 
  548.866,1117.25 550.906,1116.8 552.945,1116.34 554.985,1115.89 557.025,1115.43 559.064,1114.97 561.104,1114.5 563.144,1114.03 565.183,1113.55 567.223,1113.08 
  569.263,1112.59 571.302,1112.11 573.342,1111.62 575.382,1111.12 577.421,1110.62 579.461,1110.12 581.501,1109.62 583.54,1109.1 585.58,1108.59 587.619,1108.07 
  589.659,1107.55 591.699,1107.02 593.738,1106.49 595.778,1105.95 597.818,1105.41 599.857,1104.87 601.897,1104.31 603.937,1103.76 605.976,1103.2 608.016,1102.64 
  610.056,1102.07 612.095,1101.49 614.135,1100.91 616.175,1100.33 618.214,1099.74 620.254,1099.15 622.294,1098.55 624.333,1097.95 626.373,1097.34 628.412,1096.72 
  630.452,1096.1 632.492,1095.48 634.531,1094.85 636.571,1094.21 638.611,1093.57 640.65,1092.92 642.69,1092.27 644.73,1091.61 646.769,1090.94 648.809,1090.27 
  650.849,1089.6 652.888,1088.91 654.928,1088.22 656.968,1087.53 659.007,1086.83 661.047,1086.12 663.086,1085.41 665.126,1084.69 667.166,1083.96 669.205,1083.23 
  671.245,1082.49 673.285,1081.74 675.324,1080.98 677.364,1080.22 679.404,1079.46 681.443,1078.68 683.483,1077.9 685.523,1077.11 687.562,1076.31 689.602,1075.51 
  691.642,1074.7 693.681,1073.88 695.721,1073.05 697.761,1072.21 699.8,1071.37 701.84,1070.52 703.879,1069.66 705.919,1068.79 707.959,1067.92 709.998,1067.03 
  712.038,1066.14 714.078,1065.24 716.117,1064.33 718.157,1063.41 720.197,1062.49 722.236,1061.55 724.276,1060.61 726.316,1059.65 728.355,1058.69 730.395,1057.71 
  732.435,1056.73 734.474,1055.74 736.514,1054.74 738.553,1053.72 740.593,1052.7 742.633,1051.67 744.672,1050.63 746.712,1049.57 748.752,1048.51 750.791,1047.43 
  752.831,1046.35 754.871,1045.25 756.91,1044.14 758.95,1043.03 760.99,1041.9 763.029,1040.75 765.069,1039.6 767.109,1038.44 769.148,1037.26 771.188,1036.07 
  773.228,1034.87 775.267,1033.65 777.307,1032.43 779.346,1031.19 781.386,1029.94 783.426,1028.67 785.465,1027.39 787.505,1026.1 789.545,1024.8 791.584,1023.48 
  793.624,1022.14 795.664,1020.8 797.703,1019.43 799.743,1018.06 801.783,1016.67 803.822,1015.26 805.862,1013.84 807.902,1012.4 809.941,1010.95 811.981,1009.49 
  814.02,1008 816.06,1006.5 818.1,1004.99 820.139,1003.46 822.179,1001.91 824.219,1000.34 826.258,998.76 828.298,997.16 830.338,995.542 832.377,993.907 
  834.417,992.253 836.457,990.581 838.496,988.89 840.536,987.181 842.576,985.453 844.615,983.705 846.655,981.938 848.695,980.151 850.734,978.344 852.774,976.516 
  854.813,974.668 856.853,972.799 858.893,970.909 860.932,968.997 862.972,967.064 865.012,965.108 867.051,963.131 869.091,961.13 871.131,959.107 873.17,957.061 
  875.21,954.991 877.25,952.897 879.289,950.779 881.329,948.637 883.369,946.47 885.408,944.278 887.448,942.06 889.488,939.817 891.527,937.547 893.567,935.251 
  895.606,932.928 897.646,930.579 899.686,928.201 901.725,925.796 903.765,923.363 905.805,920.901 907.844,918.41 909.884,915.889 911.924,913.34 913.963,910.76 
  916.003,908.149 918.043,905.508 920.082,902.835 922.122,900.131 924.162,897.395 926.201,894.627 928.241,891.825 930.28,888.991 932.32,886.123 934.36,883.22 
  936.399,880.284 938.439,877.312 940.479,874.305 942.518,871.262 944.558,868.184 946.598,865.068 948.637,861.916 950.677,858.726 952.717,855.499 954.756,852.233 
  956.796,848.928 958.836,845.584 960.875,842.2 962.915,838.777 964.955,835.313 966.994,831.808 969.034,828.262 971.073,824.673 973.113,821.043 975.153,817.37 
  977.192,813.654 979.232,809.894 981.272,806.091 983.311,802.243 985.351,798.35 987.391,794.412 989.43,790.429 991.47,786.399 993.51,782.324 995.549,778.201 
  997.589,774.031 999.629,769.814 1001.67,765.549 1003.71,761.235 1005.75,756.873 1007.79,752.462 1009.83,748.002 1011.87,743.492 1013.91,738.932 1015.95,734.323 
  1017.99,729.663 1020.03,724.952 1022.06,720.19 1024.1,715.378 1026.14,710.514 1028.18,705.599 1030.22,700.632 1032.26,695.613 1034.3,690.543 1036.34,685.421 
  1038.38,680.248 1040.42,675.022 1042.46,669.745 1044.5,664.415 1046.54,659.035 1048.58,653.602 1050.62,648.119 1052.66,642.584 1054.7,636.998 1056.74,631.362 
  1058.78,625.675 1060.82,619.939 1062.86,614.153 1064.9,608.319 1066.94,602.436 1068.98,596.505 1071.02,590.527 1073.06,584.503 1075.1,578.433 1077.14,572.319 
  1079.17,566.16 1081.21,559.959 1083.25,553.717 1085.29,547.433 1087.33,541.11 1089.37,534.749 1091.41,528.351 1093.45,521.918 1095.49,515.451 1097.53,508.952 
  1099.57,502.422 1101.61,495.864 1103.65,489.279 1105.69,482.669 1107.73,476.037 1109.77,469.384 1111.81,462.712 1113.85,456.025 1115.89,449.324 1117.93,442.613 
  1119.97,435.893 1122.01,429.168 1124.05,422.441 1126.09,415.714 1128.13,408.991 1130.17,402.274 1132.21,395.568 1134.25,388.876 1136.29,382.2 1138.32,375.546 
  1140.36,368.915 1142.4,362.313 1144.44,355.744 1146.48,349.21 1148.52,342.717 1150.56,336.268 1152.6,329.868 1154.64,323.521 1156.68,317.232 1158.72,311.005 
  1160.76,304.844 1162.8,298.754 1164.84,292.741 1166.88,286.808 1168.92,280.96 1170.96,275.203 1173,269.54 1175.04,263.978 1177.08,258.52 1179.12,253.171 
  1181.16,247.937 1183.2,242.822 1185.24,237.831 1187.28,232.969 1189.32,228.24 1191.36,223.649 1193.4,219.201 1195.43,214.899 1197.47,210.75 1199.51,206.756 
  1201.55,202.922 1203.59,199.253 1205.63,195.752 1207.67,192.422 1209.71,189.268 1211.75,186.294 1213.79,183.501 1215.83,180.895 1217.87,178.477 1219.91,176.25 
  1221.95,174.217 1223.99,172.381 1226.03,170.743 1228.07,169.306 1230.11,168.071 1232.15,167.039 1234.19,166.212 1236.23,165.592 1238.27,165.177 1240.31,164.97 
  1242.35,164.97 1244.39,165.177 1246.43,165.592 1248.47,166.212 1250.51,167.039 1252.55,168.071 1254.58,169.306 1256.62,170.743 1258.66,172.381 1260.7,174.217 
  1262.74,176.25 1264.78,178.477 1266.82,180.895 1268.86,183.501 1270.9,186.294 1272.94,189.268 1274.98,192.422 1277.02,195.752 1279.06,199.253 1281.1,202.922 
  1283.14,206.756 1285.18,210.75 1287.22,214.899 1289.26,219.201 1291.3,223.649 1293.34,228.24 1295.38,232.969 1297.42,237.831 1299.46,242.822 1301.5,247.937 
  1303.54,253.171 1305.58,258.52 1307.62,263.978 1309.66,269.54 1311.69,275.203 1313.73,280.96 1315.77,286.808 1317.81,292.741 1319.85,298.754 1321.89,304.844 
  1323.93,311.005 1325.97,317.232 1328.01,323.521 1330.05,329.868 1332.09,336.268 1334.13,342.717 1336.17,349.21 1338.21,355.744 1340.25,362.313 1342.29,368.915 
  1344.33,375.546 1346.37,382.2 1348.41,388.876 1350.45,395.568 1352.49,402.274 1354.53,408.991 1356.57,415.714 1358.61,422.441 1360.65,429.168 1362.69,435.893 
  1364.73,442.613 1366.77,449.324 1368.8,456.025 1370.84,462.712 1372.88,469.384 1374.92,476.037 1376.96,482.669 1379,489.279 1381.04,495.864 1383.08,502.422 
  1385.12,508.952 1387.16,515.451 1389.2,521.918 1391.24,528.351 1393.28,534.749 1395.32,541.11 1397.36,547.433 1399.4,553.717 1401.44,559.959 1403.48,566.16 
  1405.52,572.319 1407.56,578.433 1409.6,584.503 1411.64,590.527 1413.68,596.505 1415.72,602.436 1417.76,608.319 1419.8,614.153 1421.84,619.939 1423.88,625.675 
  1425.92,631.362 1427.95,636.998 1429.99,642.584 1432.03,648.119 1434.07,653.602 1436.11,659.035 1438.15,664.415 1440.19,669.745 1442.23,675.022 1444.27,680.248 
  1446.31,685.421 1448.35,690.543 1450.39,695.613 1452.43,700.632 1454.47,705.599 1456.51,710.514 1458.55,715.378 1460.59,720.19 1462.63,724.952 1464.67,729.663 
  1466.71,734.323 1468.75,738.932 1470.79,743.492 1472.83,748.002 1474.87,752.462 1476.91,756.873 1478.95,761.235 1480.99,765.549 1483.03,769.814 1485.06,774.031 
  1487.1,778.201 1489.14,782.324 1491.18,786.399 1493.22,790.429 1495.26,794.412 1497.3,798.35 1499.34,802.243 1501.38,806.091 1503.42,809.894 1505.46,813.654 
  1507.5,817.37 1509.54,821.043 1511.58,824.673 1513.62,828.262 1515.66,831.808 1517.7,835.313 1519.74,838.777 1521.78,842.2 1523.82,845.584 1525.86,848.928 
  1527.9,852.233 1529.94,855.499 1531.98,858.726 1534.02,861.916 1536.06,865.068 1538.1,868.184 1540.14,871.262 1542.18,874.305 1544.21,877.312 1546.25,880.284 
  1548.29,883.22 1550.33,886.123 1552.37,888.991 1554.41,891.825 1556.45,894.627 1558.49,897.395 1560.53,900.131 1562.57,902.835 1564.61,905.508 1566.65,908.149 
  1568.69,910.76 1570.73,913.34 1572.77,915.889 1574.81,918.41 1576.85,920.901 1578.89,923.363 1580.93,925.796 1582.97,928.201 1585.01,930.579 1587.05,932.928 
  1589.09,935.251 1591.13,937.547 1593.17,939.817 1595.21,942.06 1597.25,944.278 1599.29,946.47 1601.32,948.637 1603.36,950.779 1605.4,952.897 1607.44,954.991 
  1609.48,957.061 1611.52,959.107 1613.56,961.13 1615.6,963.131 1617.64,965.108 1619.68,967.064 1621.72,968.997 1623.76,970.909 1625.8,972.799 1627.84,974.668 
  1629.88,976.516 1631.92,978.344 1633.96,980.151 1636,981.938 1638.04,983.705 1640.08,985.453 1642.12,987.181 1644.16,988.89 1646.2,990.581 1648.24,992.253 
  1650.28,993.907 1652.32,995.542 1654.36,997.16 1656.4,998.76 1658.44,1000.34 1660.47,1001.91 1662.51,1003.46 1664.55,1004.99 1666.59,1006.5 1668.63,1008 
  1670.67,1009.49 1672.71,1010.95 1674.75,1012.4 1676.79,1013.84 1678.83,1015.26 1680.87,1016.67 1682.91,1018.06 1684.95,1019.43 1686.99,1020.8 1689.03,1022.14 
  1691.07,1023.48 1693.11,1024.8 1695.15,1026.1 1697.19,1027.39 1699.23,1028.67 1701.27,1029.94 1703.31,1031.19 1705.35,1032.43 1707.39,1033.65 1709.43,1034.87 
  1711.47,1036.07 1713.51,1037.26 1715.55,1038.44 1717.58,1039.6 1719.62,1040.75 1721.66,1041.9 1723.7,1043.03 1725.74,1044.14 1727.78,1045.25 1729.82,1046.35 
  1731.86,1047.43 1733.9,1048.51 1735.94,1049.57 1737.98,1050.63 1740.02,1051.67 1742.06,1052.7 1744.1,1053.72 1746.14,1054.74 1748.18,1055.74 1750.22,1056.73 
  1752.26,1057.71 1754.3,1058.69 1756.34,1059.65 1758.38,1060.61 1760.42,1061.55 1762.46,1062.49 1764.5,1063.41 1766.54,1064.33 1768.58,1065.24 1770.62,1066.14 
  1772.66,1067.03 1774.7,1067.92 1776.73,1068.79 1778.77,1069.66 1780.81,1070.52 1782.85,1071.37 1784.89,1072.21 1786.93,1073.05 1788.97,1073.88 1791.01,1074.7 
  1793.05,1075.51 1795.09,1076.31 1797.13,1077.11 1799.17,1077.9 1801.21,1078.68 1803.25,1079.46 1805.29,1080.22 1807.33,1080.98 1809.37,1081.74 1811.41,1082.49 
  1813.45,1083.23 1815.49,1083.96 1817.53,1084.69 1819.57,1085.41 1821.61,1086.12 1823.65,1086.83 1825.69,1087.53 1827.73,1088.22 1829.77,1088.91 1831.81,1089.6 
  1833.84,1090.27 1835.88,1090.94 1837.92,1091.61 1839.96,1092.27 1842,1092.92 1844.04,1093.57 1846.08,1094.21 1848.12,1094.85 1850.16,1095.48 1852.2,1096.1 
  1854.24,1096.72 1856.28,1097.34 1858.32,1097.95 1860.36,1098.55 1862.4,1099.15 1864.44,1099.74 1866.48,1100.33 1868.52,1100.91 1870.56,1101.49 1872.6,1102.07 
  1874.64,1102.64 1876.68,1103.2 1878.72,1103.76 1880.76,1104.31 1882.8,1104.87 1884.84,1105.41 1886.88,1105.95 1888.92,1106.49 1890.96,1107.02 1892.99,1107.55 
  1895.03,1108.07 1897.07,1108.59 1899.11,1109.1 1901.15,1109.62 1903.19,1110.12 1905.23,1110.62 1907.27,1111.12 1909.31,1111.62 1911.35,1112.11 1913.39,1112.59 
  1915.43,1113.08 1917.47,1113.55 1919.51,1114.03 1921.55,1114.5 1923.59,1114.97 1925.63,1115.43 1927.67,1115.89 1929.71,1116.34 1931.75,1116.8 1933.79,1117.25 
  1935.83,1117.69 1937.87,1118.13 1939.91,1118.57 1941.95,1119.01 1943.99,1119.44 1946.03,1119.87 1948.07,1120.29 1950.1,1120.71 1952.14,1121.13 1954.18,1121.55 
  1956.22,1121.96 1958.26,1122.37 1960.3,1122.77 1962.34,1123.17 1964.38,1123.57 1966.42,1123.97 1968.46,1124.36 1970.5,1124.75 1972.54,1125.14 1974.58,1125.53 
  1976.62,1125.91 1978.66,1126.29 1980.7,1126.66 1982.74,1127.04 1984.78,1127.41 1986.82,1127.77 1988.86,1128.14 1990.9,1128.5 1992.94,1128.86 1994.98,1129.22 
  1997.02,1129.57 1999.06,1129.92 2001.1,1130.27 2003.14,1130.62 2005.18,1130.96 2007.22,1131.3 2009.25,1131.64 2011.29,1131.98 2013.33,1132.31 2015.37,1132.65 
  2017.41,1132.97 2019.45,1133.3 2021.49,1133.63 2023.53,1133.95 2025.57,1134.27 2027.61,1134.59 2029.65,1134.9 2031.69,1135.21 2033.73,1135.53 2035.77,1135.83 
  2037.81,1136.14 2039.85,1136.45 2041.89,1136.75 2043.93,1137.05 2045.97,1137.35 2048.01,1137.64 2050.05,1137.94 2052.09,1138.23 2054.13,1138.52 2056.17,1138.81 
  2058.21,1139.09 2060.25,1139.38 2062.29,1139.66 2064.33,1139.94 2066.36,1140.22 2068.4,1140.49 2070.44,1140.77 2072.48,1141.04 2074.52,1141.31 2076.56,1141.58 
  2078.6,1141.85 2080.64,1142.11 2082.68,1142.37 2084.72,1142.64 2086.76,1142.9 2088.8,1143.15 2090.84,1143.41 2092.88,1143.67 2094.92,1143.92 2096.96,1144.17 
  2099,1144.42 2101.04,1144.67 2103.08,1144.91 2105.12,1145.16 2107.16,1145.4 2109.2,1145.64 2111.24,1145.88 2113.28,1146.12 2115.32,1146.36 2117.36,1146.59 
  2119.4,1146.83 2121.44,1147.06 2123.48,1147.29 2125.51,1147.52 2127.55,1147.75 2129.59,1147.98 2131.63,1148.2 2133.67,1148.42 2135.71,1148.65 2137.75,1148.87 
  2139.79,1149.09 2141.83,1149.3 2143.87,1149.52 2145.91,1149.74 2147.95,1149.95 2149.99,1150.16 2152.03,1150.37 2154.07,1150.58 2156.11,1150.79 2158.15,1151 
  2160.19,1151.2 2162.23,1151.41 2164.27,1151.61 2166.31,1151.81 2168.35,1152.01 2170.39,1152.21 2172.43,1152.41 2174.47,1152.61 2176.51,1152.81 2178.55,1153 
  2180.59,1153.19 2182.62,1153.39 2184.66,1153.58 2186.7,1153.77 2188.74,1153.96 2190.78,1154.14 2192.82,1154.33 2194.86,1154.52 2196.9,1154.7 2198.94,1154.88 
  2200.98,1155.07 2203.02,1155.25 2205.06,1155.43 2207.1,1155.61 2209.14,1155.78 2211.18,1155.96 2213.22,1156.14 2215.26,1156.31 2217.3,1156.48 2219.34,1156.66 
  2221.38,1156.83 2223.42,1157 2225.46,1157.17 2227.5,1157.34 2229.54,1157.5 2231.58,1157.67 2233.62,1157.84 2235.66,1158 2237.7,1158.16 2239.74,1158.33 
  2241.77,1158.49 2243.81,1158.65 2245.85,1158.81 2247.89,1158.97 2249.93,1159.13 2251.97,1159.28 2254.01,1159.44 2256.05,1159.6 2258.09,1159.75 2260.13,1159.9 
  
  "/>
<circle clip-path="url(#clip8903)" style="fill:#000000; stroke:none; fill-opacity:1" cx="222.522" cy="1159.9" r="18"/>
<circle clip-path="url(#clip8903)" style="fill:#e26f46; stroke:none; fill-opacity:1" cx="222.522" cy="1159.9" r="14"/>
<circle clip-path="url(#clip8903)" style="fill:#000000; stroke:none; fill-opacity:1" cx="448.923" cy="1135.53" r="18"/>
<circle clip-path="url(#clip8903)" style="fill:#e26f46; stroke:none; fill-opacity:1" cx="448.923" cy="1135.53" r="14"/>
<circle clip-path="url(#clip8903)" style="fill:#000000; stroke:none; fill-opacity:1" cx="675.324" cy="1080.98" r="18"/>
<circle clip-path="url(#clip8903)" style="fill:#e26f46; stroke:none; fill-opacity:1" cx="675.324" cy="1080.98" r="14"/>
<circle clip-path="url(#clip8903)" style="fill:#000000; stroke:none; fill-opacity:1" cx="901.725" cy="925.796" r="18"/>
<circle clip-path="url(#clip8903)" style="fill:#e26f46; stroke:none; fill-opacity:1" cx="901.725" cy="925.796" r="14"/>
<circle clip-path="url(#clip8903)" style="fill:#000000; stroke:none; fill-opacity:1" cx="1128.13" cy="408.991" r="18"/>
<circle clip-path="url(#clip8903)" style="fill:#e26f46; stroke:none; fill-opacity:1" cx="1128.13" cy="408.991" r="14"/>
<circle clip-path="url(#clip8903)" style="fill:#000000; stroke:none; fill-opacity:1" cx="1354.53" cy="408.991" r="18"/>
<circle clip-path="url(#clip8903)" style="fill:#e26f46; stroke:none; fill-opacity:1" cx="1354.53" cy="408.991" r="14"/>
<circle clip-path="url(#clip8903)" style="fill:#000000; stroke:none; fill-opacity:1" cx="1580.93" cy="925.796" r="18"/>
<circle clip-path="url(#clip8903)" style="fill:#e26f46; stroke:none; fill-opacity:1" cx="1580.93" cy="925.796" r="14"/>
<circle clip-path="url(#clip8903)" style="fill:#000000; stroke:none; fill-opacity:1" cx="1807.33" cy="1080.98" r="18"/>
<circle clip-path="url(#clip8903)" style="fill:#e26f46; stroke:none; fill-opacity:1" cx="1807.33" cy="1080.98" r="14"/>
<circle clip-path="url(#clip8903)" style="fill:#000000; stroke:none; fill-opacity:1" cx="2033.73" cy="1135.53" r="18"/>
<circle clip-path="url(#clip8903)" style="fill:#e26f46; stroke:none; fill-opacity:1" cx="2033.73" cy="1135.53" r="14"/>
<circle clip-path="url(#clip8903)" style="fill:#000000; stroke:none; fill-opacity:1" cx="2260.13" cy="1159.9" r="18"/>
<circle clip-path="url(#clip8903)" style="fill:#e26f46; stroke:none; fill-opacity:1" cx="2260.13" cy="1159.9" r="14"/>
<polyline clip-path="url(#clip8903)" style="stroke:#3da44d; stroke-width:4; stroke-opacity:1; fill:none" points="
  222.522,1159.9 224.562,1179.96 226.602,1199.15 228.641,1217.49 230.681,1234.99 232.721,1251.68 234.76,1267.59 236.8,1282.72 238.84,1297.1 240.879,1310.75 
  242.919,1323.68 244.958,1335.92 246.998,1347.49 249.038,1358.39 251.077,1368.66 253.117,1378.3 255.157,1387.34 257.196,1395.78 259.236,1403.66 261.276,1410.97 
  263.315,1417.75 265.355,1424 267.395,1429.74 269.434,1434.98 271.474,1439.75 273.514,1444.05 275.553,1447.89 277.593,1451.3 279.632,1454.29 281.672,1456.87 
  283.712,1459.04 285.751,1460.84 287.791,1462.26 289.831,1463.33 291.87,1464.05 293.91,1464.43 295.95,1464.49 297.989,1464.24 300.029,1463.69 302.069,1462.85 
  304.108,1461.73 306.148,1460.35 308.188,1458.7 310.227,1456.82 312.267,1454.69 314.307,1452.34 316.346,1449.77 318.386,1446.99 320.425,1444.02 322.465,1440.85 
  324.505,1437.51 326.544,1433.99 328.584,1430.3 330.624,1426.47 332.663,1422.48 334.703,1418.35 336.743,1414.1 338.782,1409.71 340.822,1405.21 342.862,1400.6 
  344.901,1395.89 346.941,1391.08 348.981,1386.18 351.02,1381.19 353.06,1376.13 355.099,1371 357.139,1365.81 359.179,1360.55 361.218,1355.24 363.258,1349.89 
  365.298,1344.49 367.337,1339.05 369.377,1333.58 371.417,1328.09 373.456,1322.57 375.496,1317.03 377.536,1311.49 379.575,1305.93 381.615,1300.37 383.655,1294.81 
  385.694,1289.25 387.734,1283.7 389.774,1278.16 391.813,1272.63 393.853,1267.13 395.892,1261.65 397.932,1256.19 399.972,1250.76 402.011,1245.36 404.051,1240 
  406.091,1234.68 408.13,1229.39 410.17,1224.15 412.21,1218.95 414.249,1213.8 416.289,1208.71 418.329,1203.66 420.368,1198.67 422.408,1193.73 424.448,1188.86 
  426.487,1184.04 428.527,1179.29 430.567,1174.6 432.606,1169.98 434.646,1165.42 436.685,1160.94 438.725,1156.52 440.765,1152.17 442.804,1147.9 444.844,1143.7 
  446.884,1139.57 448.923,1135.53 450.963,1131.55 453.003,1127.66 455.042,1123.84 457.082,1120.1 459.122,1116.44 461.161,1112.87 463.201,1109.37 465.241,1105.95 
  467.28,1102.62 469.32,1099.36 471.359,1096.19 473.399,1093.1 475.439,1090.1 477.478,1087.17 479.518,1084.33 481.558,1081.57 483.597,1078.9 485.637,1076.3 
  487.677,1073.79 489.716,1071.36 491.756,1069.02 493.796,1066.75 495.835,1064.57 497.875,1062.46 499.915,1060.44 501.954,1058.5 503.994,1056.63 506.034,1054.85 
  508.073,1053.14 510.113,1051.51 512.152,1049.96 514.192,1048.49 516.232,1047.09 518.271,1045.76 520.311,1044.51 522.351,1043.34 524.39,1042.23 526.43,1041.2 
  528.47,1040.24 530.509,1039.35 532.549,1038.52 534.589,1037.77 536.628,1037.08 538.668,1036.46 540.708,1035.9 542.747,1035.41 544.787,1034.98 546.826,1034.61 
  548.866,1034.31 550.906,1034.06 552.945,1033.87 554.985,1033.74 557.025,1033.66 559.064,1033.64 561.104,1033.67 563.144,1033.76 565.183,1033.89 567.223,1034.08 
  569.263,1034.31 571.302,1034.59 573.342,1034.92 575.382,1035.29 577.421,1035.71 579.461,1036.17 581.501,1036.67 583.54,1037.21 585.58,1037.78 587.619,1038.4 
  589.659,1039.05 591.699,1039.73 593.738,1040.45 595.778,1041.2 597.818,1041.98 599.857,1042.79 601.897,1043.62 603.937,1044.49 605.976,1045.37 608.016,1046.28 
  610.056,1047.22 612.095,1048.17 614.135,1049.14 616.175,1050.14 618.214,1051.14 620.254,1052.17 622.294,1053.21 624.333,1054.26 626.373,1055.32 628.412,1056.39 
  630.452,1057.47 632.492,1058.56 634.531,1059.66 636.571,1060.76 638.611,1061.86 640.65,1062.97 642.69,1064.08 644.73,1065.19 646.769,1066.3 648.809,1067.4 
  650.849,1068.5 652.888,1069.6 654.928,1070.69 656.968,1071.77 659.007,1072.84 661.047,1073.91 663.086,1074.96 665.126,1076 667.166,1077.03 669.205,1078.04 
  671.245,1079.04 673.285,1080.02 675.324,1080.98 677.364,1081.93 679.404,1082.85 681.443,1083.76 683.483,1084.64 685.523,1085.5 687.562,1086.33 689.602,1087.14 
  691.642,1087.93 693.681,1088.68 695.721,1089.41 697.761,1090.11 699.8,1090.78 701.84,1091.42 703.879,1092.03 705.919,1092.6 707.959,1093.15 709.998,1093.65 
  712.038,1094.13 714.078,1094.56 716.117,1094.96 718.157,1095.33 720.197,1095.65 722.236,1095.94 724.276,1096.18 726.316,1096.39 728.355,1096.55 730.395,1096.67 
  732.435,1096.75 734.474,1096.79 736.514,1096.78 738.553,1096.73 740.593,1096.63 742.633,1096.49 744.672,1096.3 746.712,1096.07 748.752,1095.78 750.791,1095.45 
  752.831,1095.07 754.871,1094.65 756.91,1094.17 758.95,1093.64 760.99,1093.07 763.029,1092.44 765.069,1091.76 767.109,1091.04 769.148,1090.26 771.188,1089.42 
  773.228,1088.54 775.267,1087.6 777.307,1086.61 779.346,1085.57 781.386,1084.47 783.426,1083.32 785.465,1082.12 787.505,1080.86 789.545,1079.55 791.584,1078.19 
  793.624,1076.77 795.664,1075.29 797.703,1073.76 799.743,1072.18 801.783,1070.54 803.822,1068.85 805.862,1067.1 807.902,1065.29 809.941,1063.43 811.981,1061.52 
  814.02,1059.55 816.06,1057.53 818.1,1055.45 820.139,1053.32 822.179,1051.13 824.219,1048.89 826.258,1046.59 828.298,1044.24 830.338,1041.83 832.377,1039.37 
  834.417,1036.86 836.457,1034.29 838.496,1031.67 840.536,1029 842.576,1026.27 844.615,1023.49 846.655,1020.66 848.695,1017.78 850.734,1014.84 852.774,1011.86 
  854.813,1008.82 856.853,1005.73 858.893,1002.59 860.932,999.401 862.972,996.162 865.012,992.874 867.051,989.537 869.091,986.152 871.131,982.718 873.17,979.237 
  875.21,975.709 877.25,972.135 879.289,968.514 881.329,964.848 883.369,961.136 885.408,957.38 887.448,953.58 889.488,949.737 891.527,945.851 893.567,941.922 
  895.606,937.952 897.646,933.94 899.686,929.888 901.725,925.796 903.765,921.665 905.805,917.495 907.844,913.287 909.884,909.041 911.924,904.759 913.963,900.441 
  916.003,896.088 918.043,891.7 920.082,887.278 922.122,882.823 924.162,878.335 926.201,873.816 928.241,869.266 930.28,864.685 932.32,860.075 934.36,855.435 
  936.399,850.768 938.439,846.074 940.479,841.353 942.518,836.607 944.558,831.836 946.598,827.04 948.637,822.222 950.677,817.38 952.717,812.518 954.756,807.634 
  956.796,802.731 958.836,797.808 960.875,792.867 962.915,787.909 964.955,782.934 966.994,777.943 969.034,772.937 971.073,767.917 973.113,762.884 975.153,757.839 
  977.192,752.783 979.232,747.715 981.272,742.639 983.311,737.553 985.351,732.459 987.391,727.359 989.43,722.252 991.47,717.14 993.51,712.024 995.549,706.904 
  997.589,701.782 999.629,696.658 1001.67,691.534 1003.71,686.409 1005.75,681.286 1007.79,676.165 1009.83,671.046 1011.87,665.931 1013.91,660.821 1015.95,655.717 
  1017.99,650.619 1020.03,645.528 1022.06,640.446 1024.1,635.372 1026.14,630.309 1028.18,625.257 1030.22,620.217 1032.26,615.189 1034.3,610.175 1036.34,605.176 
  1038.38,600.192 1040.42,595.224 1042.46,590.274 1044.5,585.342 1046.54,580.429 1048.58,575.535 1050.62,570.662 1052.66,565.811 1054.7,560.982 1056.74,556.177 
  1058.78,551.396 1060.82,546.64 1062.86,541.909 1064.9,537.205 1066.94,532.529 1068.98,527.882 1071.02,523.263 1073.06,518.675 1075.1,514.117 1077.14,509.591 
  1079.17,505.098 1081.21,500.637 1083.25,496.211 1085.29,491.82 1087.33,487.465 1089.37,483.145 1091.41,478.864 1093.45,474.62 1095.49,470.414 1097.53,466.249 
  1099.57,462.123 1101.61,458.039 1103.65,453.996 1105.69,449.996 1107.73,446.038 1109.77,442.125 1111.81,438.256 1113.85,434.433 1115.89,430.655 1117.93,426.924 
  1119.97,423.24 1122.01,419.604 1124.05,416.017 1126.09,412.479 1128.13,408.991 1130.17,405.553 1132.21,402.167 1134.25,398.832 1136.29,395.549 1138.32,392.319 
  1140.36,389.143 1142.4,386.021 1144.44,382.953 1146.48,379.941 1148.52,376.984 1150.56,374.084 1152.6,371.24 1154.64,368.453 1156.68,365.724 1158.72,363.054 
  1160.76,360.442 1162.8,357.889 1164.84,355.396 1166.88,352.963 1168.92,350.59 1170.96,348.279 1173,346.029 1175.04,343.84 1177.08,341.714 1179.12,339.65 
  1181.16,337.649 1183.2,335.711 1185.24,333.837 1187.28,332.027 1189.32,330.281 1191.36,328.6 1193.4,326.984 1195.43,325.433 1197.47,323.947 1199.51,322.527 
  1201.55,321.172 1203.59,319.885 1205.63,318.663 1207.67,317.508 1209.71,316.42 1211.75,315.399 1213.79,314.446 1215.83,313.559 1217.87,312.741 1219.91,311.99 
  1221.95,311.306 1223.99,310.691 1226.03,310.144 1228.07,309.665 1230.11,309.254 1232.15,308.912 1234.19,308.638 1236.23,308.433 1238.27,308.296 1240.31,308.227 
  1242.35,308.227 1244.39,308.296 1246.43,308.433 1248.47,308.638 1250.51,308.912 1252.55,309.254 1254.58,309.665 1256.62,310.144 1258.66,310.691 1260.7,311.306 
  1262.74,311.99 1264.78,312.741 1266.82,313.559 1268.86,314.446 1270.9,315.399 1272.94,316.42 1274.98,317.508 1277.02,318.663 1279.06,319.885 1281.1,321.172 
  1283.14,322.527 1285.18,323.947 1287.22,325.433 1289.26,326.984 1291.3,328.6 1293.34,330.281 1295.38,332.027 1297.42,333.837 1299.46,335.711 1301.5,337.649 
  1303.54,339.65 1305.58,341.714 1307.62,343.84 1309.66,346.029 1311.69,348.279 1313.73,350.59 1315.77,352.963 1317.81,355.396 1319.85,357.889 1321.89,360.442 
  1323.93,363.054 1325.97,365.724 1328.01,368.453 1330.05,371.24 1332.09,374.084 1334.13,376.984 1336.17,379.941 1338.21,382.953 1340.25,386.021 1342.29,389.143 
  1344.33,392.319 1346.37,395.549 1348.41,398.832 1350.45,402.167 1352.49,405.553 1354.53,408.991 1356.57,412.479 1358.61,416.017 1360.65,419.604 1362.69,423.24 
  1364.73,426.924 1366.77,430.655 1368.8,434.433 1370.84,438.256 1372.88,442.125 1374.92,446.038 1376.96,449.996 1379,453.996 1381.04,458.039 1383.08,462.123 
  1385.12,466.249 1387.16,470.414 1389.2,474.62 1391.24,478.864 1393.28,483.145 1395.32,487.465 1397.36,491.82 1399.4,496.211 1401.44,500.637 1403.48,505.098 
  1405.52,509.591 1407.56,514.117 1409.6,518.675 1411.64,523.263 1413.68,527.882 1415.72,532.529 1417.76,537.205 1419.8,541.909 1421.84,546.64 1423.88,551.396 
  1425.92,556.177 1427.95,560.982 1429.99,565.811 1432.03,570.662 1434.07,575.535 1436.11,580.429 1438.15,585.342 1440.19,590.274 1442.23,595.224 1444.27,600.192 
  1446.31,605.176 1448.35,610.175 1450.39,615.189 1452.43,620.217 1454.47,625.257 1456.51,630.309 1458.55,635.372 1460.59,640.446 1462.63,645.528 1464.67,650.619 
  1466.71,655.717 1468.75,660.821 1470.79,665.931 1472.83,671.046 1474.87,676.165 1476.91,681.286 1478.95,686.409 1480.99,691.534 1483.03,696.658 1485.06,701.782 
  1487.1,706.904 1489.14,712.024 1491.18,717.14 1493.22,722.252 1495.26,727.359 1497.3,732.459 1499.34,737.553 1501.38,742.639 1503.42,747.715 1505.46,752.783 
  1507.5,757.839 1509.54,762.884 1511.58,767.917 1513.62,772.937 1515.66,777.943 1517.7,782.934 1519.74,787.909 1521.78,792.867 1523.82,797.808 1525.86,802.731 
  1527.9,807.634 1529.94,812.518 1531.98,817.38 1534.02,822.222 1536.06,827.04 1538.1,831.836 1540.14,836.607 1542.18,841.353 1544.21,846.074 1546.25,850.768 
  1548.29,855.435 1550.33,860.075 1552.37,864.685 1554.41,869.266 1556.45,873.816 1558.49,878.335 1560.53,882.823 1562.57,887.278 1564.61,891.7 1566.65,896.088 
  1568.69,900.441 1570.73,904.759 1572.77,909.041 1574.81,913.287 1576.85,917.495 1578.89,921.665 1580.93,925.796 1582.97,929.888 1585.01,933.94 1587.05,937.952 
  1589.09,941.922 1591.13,945.851 1593.17,949.737 1595.21,953.58 1597.25,957.38 1599.29,961.136 1601.32,964.848 1603.36,968.514 1605.4,972.135 1607.44,975.709 
  1609.48,979.237 1611.52,982.718 1613.56,986.152 1615.6,989.537 1617.64,992.874 1619.68,996.162 1621.72,999.401 1623.76,1002.59 1625.8,1005.73 1627.84,1008.82 
  1629.88,1011.86 1631.92,1014.84 1633.96,1017.78 1636,1020.66 1638.04,1023.49 1640.08,1026.27 1642.12,1029 1644.16,1031.67 1646.2,1034.29 1648.24,1036.86 
  1650.28,1039.37 1652.32,1041.83 1654.36,1044.24 1656.4,1046.59 1658.44,1048.89 1660.47,1051.13 1662.51,1053.32 1664.55,1055.45 1666.59,1057.53 1668.63,1059.55 
  1670.67,1061.52 1672.71,1063.43 1674.75,1065.29 1676.79,1067.1 1678.83,1068.85 1680.87,1070.54 1682.91,1072.18 1684.95,1073.76 1686.99,1075.29 1689.03,1076.77 
  1691.07,1078.19 1693.11,1079.55 1695.15,1080.86 1697.19,1082.12 1699.23,1083.32 1701.27,1084.47 1703.31,1085.57 1705.35,1086.61 1707.39,1087.6 1709.43,1088.54 
  1711.47,1089.42 1713.51,1090.26 1715.55,1091.04 1717.58,1091.76 1719.62,1092.44 1721.66,1093.07 1723.7,1093.64 1725.74,1094.17 1727.78,1094.65 1729.82,1095.07 
  1731.86,1095.45 1733.9,1095.78 1735.94,1096.07 1737.98,1096.3 1740.02,1096.49 1742.06,1096.63 1744.1,1096.73 1746.14,1096.78 1748.18,1096.79 1750.22,1096.75 
  1752.26,1096.67 1754.3,1096.55 1756.34,1096.39 1758.38,1096.18 1760.42,1095.94 1762.46,1095.65 1764.5,1095.33 1766.54,1094.96 1768.58,1094.56 1770.62,1094.13 
  1772.66,1093.65 1774.7,1093.15 1776.73,1092.6 1778.77,1092.03 1780.81,1091.42 1782.85,1090.78 1784.89,1090.11 1786.93,1089.41 1788.97,1088.68 1791.01,1087.93 
  1793.05,1087.14 1795.09,1086.33 1797.13,1085.5 1799.17,1084.64 1801.21,1083.76 1803.25,1082.85 1805.29,1081.93 1807.33,1080.98 1809.37,1080.02 1811.41,1079.04 
  1813.45,1078.04 1815.49,1077.03 1817.53,1076 1819.57,1074.96 1821.61,1073.91 1823.65,1072.84 1825.69,1071.77 1827.73,1070.69 1829.77,1069.6 1831.81,1068.5 
  1833.84,1067.4 1835.88,1066.3 1837.92,1065.19 1839.96,1064.08 1842,1062.97 1844.04,1061.86 1846.08,1060.76 1848.12,1059.66 1850.16,1058.56 1852.2,1057.47 
  1854.24,1056.39 1856.28,1055.32 1858.32,1054.26 1860.36,1053.21 1862.4,1052.17 1864.44,1051.14 1866.48,1050.14 1868.52,1049.14 1870.56,1048.17 1872.6,1047.22 
  1874.64,1046.28 1876.68,1045.37 1878.72,1044.49 1880.76,1043.62 1882.8,1042.79 1884.84,1041.98 1886.88,1041.2 1888.92,1040.45 1890.96,1039.73 1892.99,1039.05 
  1895.03,1038.4 1897.07,1037.78 1899.11,1037.21 1901.15,1036.67 1903.19,1036.17 1905.23,1035.71 1907.27,1035.29 1909.31,1034.92 1911.35,1034.59 1913.39,1034.31 
  1915.43,1034.08 1917.47,1033.89 1919.51,1033.76 1921.55,1033.67 1923.59,1033.64 1925.63,1033.66 1927.67,1033.74 1929.71,1033.87 1931.75,1034.06 1933.79,1034.31 
  1935.83,1034.61 1937.87,1034.98 1939.91,1035.41 1941.95,1035.9 1943.99,1036.46 1946.03,1037.08 1948.07,1037.77 1950.1,1038.52 1952.14,1039.35 1954.18,1040.24 
  1956.22,1041.2 1958.26,1042.23 1960.3,1043.34 1962.34,1044.51 1964.38,1045.76 1966.42,1047.09 1968.46,1048.49 1970.5,1049.96 1972.54,1051.51 1974.58,1053.14 
  1976.62,1054.85 1978.66,1056.63 1980.7,1058.5 1982.74,1060.44 1984.78,1062.46 1986.82,1064.57 1988.86,1066.75 1990.9,1069.02 1992.94,1071.36 1994.98,1073.79 
  1997.02,1076.3 1999.06,1078.9 2001.1,1081.57 2003.14,1084.33 2005.18,1087.17 2007.22,1090.1 2009.25,1093.1 2011.29,1096.19 2013.33,1099.36 2015.37,1102.62 
  2017.41,1105.95 2019.45,1109.37 2021.49,1112.87 2023.53,1116.44 2025.57,1120.1 2027.61,1123.84 2029.65,1127.66 2031.69,1131.55 2033.73,1135.53 2035.77,1139.57 
  2037.81,1143.7 2039.85,1147.9 2041.89,1152.17 2043.93,1156.52 2045.97,1160.94 2048.01,1165.42 2050.05,1169.98 2052.09,1174.6 2054.13,1179.29 2056.17,1184.04 
  2058.21,1188.86 2060.25,1193.73 2062.29,1198.67 2064.33,1203.66 2066.36,1208.71 2068.4,1213.8 2070.44,1218.95 2072.48,1224.15 2074.52,1229.39 2076.56,1234.68 
  2078.6,1240 2080.64,1245.36 2082.68,1250.76 2084.72,1256.19 2086.76,1261.65 2088.8,1267.13 2090.84,1272.63 2092.88,1278.16 2094.92,1283.7 2096.96,1289.25 
  2099,1294.81 2101.04,1300.37 2103.08,1305.93 2105.12,1311.49 2107.16,1317.03 2109.2,1322.57 2111.24,1328.09 2113.28,1333.58 2115.32,1339.05 2117.36,1344.49 
  2119.4,1349.89 2121.44,1355.24 2123.48,1360.55 2125.51,1365.81 2127.55,1371 2129.59,1376.13 2131.63,1381.19 2133.67,1386.18 2135.71,1391.08 2137.75,1395.89 
  2139.79,1400.6 2141.83,1405.21 2143.87,1409.71 2145.91,1414.1 2147.95,1418.35 2149.99,1422.48 2152.03,1426.47 2154.07,1430.3 2156.11,1433.99 2158.15,1437.51 
  2160.19,1440.85 2162.23,1444.02 2164.27,1446.99 2166.31,1449.77 2168.35,1452.34 2170.39,1454.69 2172.43,1456.82 2174.47,1458.7 2176.51,1460.35 2178.55,1461.73 
  2180.59,1462.85 2182.62,1463.69 2184.66,1464.24 2186.7,1464.49 2188.74,1464.43 2190.78,1464.05 2192.82,1463.33 2194.86,1462.26 2196.9,1460.84 2198.94,1459.04 
  2200.98,1456.87 2203.02,1454.29 2205.06,1451.3 2207.1,1447.89 2209.14,1444.05 2211.18,1439.75 2213.22,1434.98 2215.26,1429.74 2217.3,1424 2219.34,1417.75 
  2221.38,1410.97 2223.42,1403.66 2225.46,1395.78 2227.5,1387.34 2229.54,1378.3 2231.58,1368.66 2233.62,1358.39 2235.66,1347.49 2237.7,1335.92 2239.74,1323.68 
  2241.77,1310.75 2243.81,1297.1 2245.85,1282.72 2247.89,1267.59 2249.93,1251.68 2251.97,1234.99 2254.01,1217.49 2256.05,1199.15 2258.09,1179.96 2260.13,1159.9 
  
  "/>
<polygon clip-path="url(#clip8901)" points="
1685.51,451.424 2249.26,451.424 2249.26,209.504 1685.51,209.504 
  " fill="#ffffff" fill-rule="evenodd" fill-opacity="1"/>
<polyline clip-path="url(#clip8901)" style="stroke:#000000; stroke-width:4; stroke-opacity:1; fill:none" points="
  1685.51,451.424 2249.26,451.424 2249.26,209.504 1685.51,209.504 1685.51,451.424 
  "/>
<polyline clip-path="url(#clip8901)" style="stroke:#009af9; stroke-width:4; stroke-opacity:1; fill:none" points="
  1709.51,269.984 1853.51,269.984 
  "/>
<g clip-path="url(#clip8901)">
<text style="fill:#000000; fill-opacity:1; font-family:Arial,Helvetica Neue,Helvetica,sans-serif; font-size:48px; text-anchor:start;" transform="rotate(0, 1877.51, 287.484)" x="1877.51" y="287.484">Runge function</text>
</g>
<circle clip-path="url(#clip8901)" style="fill:#000000; stroke:none; fill-opacity:1" cx="1793.51" cy="330.464" r="25"/>
<circle clip-path="url(#clip8901)" style="fill:#e26f46; stroke:none; fill-opacity:1" cx="1793.51" cy="330.464" r="21"/>
<g clip-path="url(#clip8901)">
<text style="fill:#000000; fill-opacity:1; font-family:Arial,Helvetica Neue,Helvetica,sans-serif; font-size:48px; text-anchor:start;" transform="rotate(0, 1877.51, 347.964)" x="1877.51" y="347.964">Nodes</text>
</g>
<polyline clip-path="url(#clip8901)" style="stroke:#3da44d; stroke-width:4; stroke-opacity:1; fill:none" points="
  1709.51,390.944 1853.51,390.944 
  "/>
<g clip-path="url(#clip8901)">
<text style="fill:#000000; fill-opacity:1; font-family:Arial,Helvetica Neue,Helvetica,sans-serif; font-size:48px; text-anchor:start;" transform="rotate(0, 1877.51, 408.444)" x="1877.51" y="408.444">Intepolation</text>
</g>
</svg>
