<?xml version="1.0" encoding="utf-8"?>
<svg xmlns="http://www.w3.org/2000/svg" xmlns:xlink="http://www.w3.org/1999/xlink" width="600" height="400" viewBox="0 0 2400 1600">
<defs>
  <clipPath id="clip9100">
    <rect x="0" y="0" width="2000" height="2000"/>
  </clipPath>
</defs>
<defs>
  <clipPath id="clip9101">
    <rect x="0" y="0" width="2400" height="1600"/>
  </clipPath>
</defs>
<polygon clip-path="url(#clip9101)" points="
0,1600 2400,1600 2400,0 0,0 
  " fill="#ffffff" fill-rule="evenodd" fill-opacity="1"/>
<defs>
  <clipPath id="clip9102">
    <rect x="480" y="0" width="1681" height="1600"/>
  </clipPath>
</defs>
<polygon clip-path="url(#clip9101)" points="
161.394,1503.47 2321.26,1503.47 2321.26,125.984 161.394,125.984 
  " fill="#ffffff" fill-rule="evenodd" fill-opacity="1"/>
<defs>
  <clipPath id="clip9103">
    <rect x="161" y="125" width="2161" height="1378"/>
  </clipPath>
</defs>
<polyline clip-path="url(#clip9103)" style="stroke:#000000; stroke-width:2; stroke-opacity:0.1; fill:none" points="
  222.522,1503.47 222.522,125.984 
  "/>
<polyline clip-path="url(#clip9103)" style="stroke:#000000; stroke-width:2; stroke-opacity:0.1; fill:none" points="
  731.925,1503.47 731.925,125.984 
  "/>
<polyline clip-path="url(#clip9103)" style="stroke:#000000; stroke-width:2; stroke-opacity:0.1; fill:none" points="
  1241.33,1503.47 1241.33,125.984 
  "/>
<polyline clip-path="url(#clip9103)" style="stroke:#000000; stroke-width:2; stroke-opacity:0.1; fill:none" points="
  1750.73,1503.47 1750.73,125.984 
  "/>
<polyline clip-path="url(#clip9103)" style="stroke:#000000; stroke-width:2; stroke-opacity:0.1; fill:none" points="
  2260.13,1503.47 2260.13,125.984 
  "/>
<polyline clip-path="url(#clip9103)" style="stroke:#000000; stroke-width:2; stroke-opacity:0.1; fill:none" points="
  161.394,1313.68 2321.26,1313.68 
  "/>
<polyline clip-path="url(#clip9103)" style="stroke:#000000; stroke-width:2; stroke-opacity:0.1; fill:none" points="
  161.394,1020.48 2321.26,1020.48 
  "/>
<polyline clip-path="url(#clip9103)" style="stroke:#000000; stroke-width:2; stroke-opacity:0.1; fill:none" points="
  161.394,727.288 2321.26,727.288 
  "/>
<polyline clip-path="url(#clip9103)" style="stroke:#000000; stroke-width:2; stroke-opacity:0.1; fill:none" points="
  161.394,434.092 2321.26,434.092 
  "/>
<polyline clip-path="url(#clip9103)" style="stroke:#000000; stroke-width:2; stroke-opacity:0.1; fill:none" points="
  161.394,140.897 2321.26,140.897 
  "/>
<polyline clip-path="url(#clip9101)" style="stroke:#000000; stroke-width:4; stroke-opacity:1; fill:none" points="
  161.394,1503.47 2321.26,1503.47 
  "/>
<polyline clip-path="url(#clip9101)" style="stroke:#000000; stroke-width:4; stroke-opacity:1; fill:none" points="
  161.394,1503.47 161.394,125.984 
  "/>
<polyline clip-path="url(#clip9101)" style="stroke:#000000; stroke-width:4; stroke-opacity:1; fill:none" points="
  222.522,1503.47 222.522,1482.81 
  "/>
<polyline clip-path="url(#clip9101)" style="stroke:#000000; stroke-width:4; stroke-opacity:1; fill:none" points="
  731.925,1503.47 731.925,1482.81 
  "/>
<polyline clip-path="url(#clip9101)" style="stroke:#000000; stroke-width:4; stroke-opacity:1; fill:none" points="
  1241.33,1503.47 1241.33,1482.81 
  "/>
<polyline clip-path="url(#clip9101)" style="stroke:#000000; stroke-width:4; stroke-opacity:1; fill:none" points="
  1750.73,1503.47 1750.73,1482.81 
  "/>
<polyline clip-path="url(#clip9101)" style="stroke:#000000; stroke-width:4; stroke-opacity:1; fill:none" points="
  2260.13,1503.47 2260.13,1482.81 
  "/>
<polyline clip-path="url(#clip9101)" style="stroke:#000000; stroke-width:4; stroke-opacity:1; fill:none" points="
  161.394,1313.68 193.792,1313.68 
  "/>
<polyline clip-path="url(#clip9101)" style="stroke:#000000; stroke-width:4; stroke-opacity:1; fill:none" points="
  161.394,1020.48 193.792,1020.48 
  "/>
<polyline clip-path="url(#clip9101)" style="stroke:#000000; stroke-width:4; stroke-opacity:1; fill:none" points="
  161.394,727.288 193.792,727.288 
  "/>
<polyline clip-path="url(#clip9101)" style="stroke:#000000; stroke-width:4; stroke-opacity:1; fill:none" points="
  161.394,434.092 193.792,434.092 
  "/>
<polyline clip-path="url(#clip9101)" style="stroke:#000000; stroke-width:4; stroke-opacity:1; fill:none" points="
  161.394,140.897 193.792,140.897 
  "/>
<g clip-path="url(#clip9101)">
<text style="fill:#000000; fill-opacity:1; font-family:Arial,Helvetica Neue,Helvetica,sans-serif; font-size:48px; text-anchor:middle;" transform="rotate(0, 222.522, 1557.47)" x="222.522" y="1557.47">-1.0</text>
</g>
<g clip-path="url(#clip9101)">
<text style="fill:#000000; fill-opacity:1; font-family:Arial,Helvetica Neue,Helvetica,sans-serif; font-size:48px; text-anchor:middle;" transform="rotate(0, 731.925, 1557.47)" x="731.925" y="1557.47">-0.5</text>
</g>
<g clip-path="url(#clip9101)">
<text style="fill:#000000; fill-opacity:1; font-family:Arial,Helvetica Neue,Helvetica,sans-serif; font-size:48px; text-anchor:middle;" transform="rotate(0, 1241.33, 1557.47)" x="1241.33" y="1557.47">0.0</text>
</g>
<g clip-path="url(#clip9101)">
<text style="fill:#000000; fill-opacity:1; font-family:Arial,Helvetica Neue,Helvetica,sans-serif; font-size:48px; text-anchor:middle;" transform="rotate(0, 1750.73, 1557.47)" x="1750.73" y="1557.47">0.5</text>
</g>
<g clip-path="url(#clip9101)">
<text style="fill:#000000; fill-opacity:1; font-family:Arial,Helvetica Neue,Helvetica,sans-serif; font-size:48px; text-anchor:middle;" transform="rotate(0, 2260.13, 1557.47)" x="2260.13" y="1557.47">1.0</text>
</g>
<g clip-path="url(#clip9101)">
<text style="fill:#000000; fill-opacity:1; font-family:Arial,Helvetica Neue,Helvetica,sans-serif; font-size:48px; text-anchor:end;" transform="rotate(0, 137.394, 1331.18)" x="137.394" y="1331.18">0.0</text>
</g>
<g clip-path="url(#clip9101)">
<text style="fill:#000000; fill-opacity:1; font-family:Arial,Helvetica Neue,Helvetica,sans-serif; font-size:48px; text-anchor:end;" transform="rotate(0, 137.394, 1037.98)" x="137.394" y="1037.98">0.5</text>
</g>
<g clip-path="url(#clip9101)">
<text style="fill:#000000; fill-opacity:1; font-family:Arial,Helvetica Neue,Helvetica,sans-serif; font-size:48px; text-anchor:end;" transform="rotate(0, 137.394, 744.788)" x="137.394" y="744.788">1.0</text>
</g>
<g clip-path="url(#clip9101)">
<text style="fill:#000000; fill-opacity:1; font-family:Arial,Helvetica Neue,Helvetica,sans-serif; font-size:48px; text-anchor:end;" transform="rotate(0, 137.394, 451.592)" x="137.394" y="451.592">1.5</text>
</g>
<g clip-path="url(#clip9101)">
<text style="fill:#000000; fill-opacity:1; font-family:Arial,Helvetica Neue,Helvetica,sans-serif; font-size:48px; text-anchor:end;" transform="rotate(0, 137.394, 158.397)" x="137.394" y="158.397">2.0</text>
</g>
<g clip-path="url(#clip9101)">
<text style="fill:#000000; fill-opacity:1; font-family:Arial,Helvetica Neue,Helvetica,sans-serif; font-size:84px; text-anchor:middle;" transform="rotate(0, 1241.33, 73.2)" x="1241.33" y="73.2">Runge&apos;s phenomenon (Nodes = 11)</text>
</g>
<polyline clip-path="url(#clip9103)" style="stroke:#009af9; stroke-width:4; stroke-opacity:1; fill:none" points="
  222.522,1291.12 224.562,1291.04 226.602,1290.95 228.641,1290.86 230.681,1290.77 232.721,1290.68 234.76,1290.59 236.8,1290.5 238.84,1290.41 240.879,1290.32 
  242.919,1290.23 244.958,1290.14 246.998,1290.05 249.038,1289.95 251.077,1289.86 253.117,1289.76 255.157,1289.67 257.196,1289.57 259.236,1289.48 261.276,1289.38 
  263.315,1289.28 265.355,1289.19 267.395,1289.09 269.434,1288.99 271.474,1288.89 273.514,1288.79 275.553,1288.69 277.593,1288.59 279.632,1288.49 281.672,1288.38 
  283.712,1288.28 285.751,1288.18 287.791,1288.07 289.831,1287.97 291.87,1287.86 293.91,1287.75 295.95,1287.65 297.989,1287.54 300.029,1287.43 302.069,1287.32 
  304.108,1287.21 306.148,1287.1 308.188,1286.99 310.227,1286.88 312.267,1286.77 314.307,1286.65 316.346,1286.54 318.386,1286.43 320.425,1286.31 322.465,1286.19 
  324.505,1286.08 326.544,1285.96 328.584,1285.84 330.624,1285.72 332.663,1285.6 334.703,1285.48 336.743,1285.36 338.782,1285.24 340.822,1285.12 342.862,1284.99 
  344.901,1284.87 346.941,1284.74 348.981,1284.62 351.02,1284.49 353.06,1284.36 355.099,1284.24 357.139,1284.11 359.179,1283.98 361.218,1283.85 363.258,1283.71 
  365.298,1283.58 367.337,1283.45 369.377,1283.31 371.417,1283.18 373.456,1283.04 375.496,1282.91 377.536,1282.77 379.575,1282.63 381.615,1282.49 383.655,1282.35 
  385.694,1282.21 387.734,1282.07 389.774,1281.92 391.813,1281.78 393.853,1281.63 395.892,1281.49 397.932,1281.34 399.972,1281.19 402.011,1281.04 404.051,1280.89 
  406.091,1280.74 408.13,1280.59 410.17,1280.43 412.21,1280.28 414.249,1280.12 416.289,1279.97 418.329,1279.81 420.368,1279.65 422.408,1279.49 424.448,1279.33 
  426.487,1279.17 428.527,1279.01 430.567,1278.84 432.606,1278.68 434.646,1278.51 436.685,1278.34 438.725,1278.17 440.765,1278 442.804,1277.83 444.844,1277.66 
  446.884,1277.48 448.923,1277.31 450.963,1277.13 453.003,1276.96 455.042,1276.78 457.082,1276.6 459.122,1276.42 461.161,1276.23 463.201,1276.05 465.241,1275.86 
  467.28,1275.68 469.32,1275.49 471.359,1275.3 473.399,1275.11 475.439,1274.92 477.478,1274.72 479.518,1274.53 481.558,1274.33 483.597,1274.13 485.637,1273.94 
  487.677,1273.73 489.716,1273.53 491.756,1273.33 493.796,1273.12 495.835,1272.92 497.875,1272.71 499.915,1272.5 501.954,1272.29 503.994,1272.07 506.034,1271.86 
  508.073,1271.64 510.113,1271.42 512.152,1271.21 514.192,1270.98 516.232,1270.76 518.271,1270.54 520.311,1270.31 522.351,1270.08 524.39,1269.85 526.43,1269.62 
  528.47,1269.39 530.509,1269.15 532.549,1268.91 534.589,1268.68 536.628,1268.44 538.668,1268.19 540.708,1267.95 542.747,1267.7 544.787,1267.45 546.826,1267.2 
  548.866,1266.95 550.906,1266.7 552.945,1266.44 554.985,1266.18 557.025,1265.92 559.064,1265.66 561.104,1265.39 563.144,1265.13 565.183,1264.86 567.223,1264.59 
  569.263,1264.31 571.302,1264.04 573.342,1263.76 575.382,1263.48 577.421,1263.2 579.461,1262.91 581.501,1262.63 583.54,1262.34 585.58,1262.05 587.619,1261.75 
  589.659,1261.45 591.699,1261.16 593.738,1260.85 595.778,1260.55 597.818,1260.24 599.857,1259.93 601.897,1259.62 603.937,1259.31 605.976,1258.99 608.016,1258.67 
  610.056,1258.35 612.095,1258.02 614.135,1257.7 616.175,1257.37 618.214,1257.03 620.254,1256.7 622.294,1256.36 624.333,1256.01 626.373,1255.67 628.412,1255.32 
  630.452,1254.97 632.492,1254.61 634.531,1254.26 636.571,1253.9 638.611,1253.53 640.65,1253.17 642.69,1252.8 644.73,1252.42 646.769,1252.05 648.809,1251.67 
  650.849,1251.28 652.888,1250.89 654.928,1250.5 656.968,1250.11 659.007,1249.71 661.047,1249.31 663.086,1248.91 665.126,1248.5 667.166,1248.09 669.205,1247.67 
  671.245,1247.25 673.285,1246.83 675.324,1246.4 677.364,1245.97 679.404,1245.53 681.443,1245.1 683.483,1244.65 685.523,1244.2 687.562,1243.75 689.602,1243.3 
  691.642,1242.84 693.681,1242.37 695.721,1241.9 697.761,1241.43 699.8,1240.95 701.84,1240.47 703.879,1239.98 705.919,1239.49 707.959,1239 709.998,1238.5 
  712.038,1237.99 714.078,1237.48 716.117,1236.96 718.157,1236.44 720.197,1235.92 722.236,1235.39 724.276,1234.85 726.316,1234.31 728.355,1233.77 730.395,1233.21 
  732.435,1232.66 734.474,1232.09 736.514,1231.53 738.553,1230.95 740.593,1230.37 742.633,1229.79 744.672,1229.2 746.712,1228.6 748.752,1228 750.791,1227.39 
  752.831,1226.77 754.871,1226.15 756.91,1225.52 758.95,1224.89 760.99,1224.25 763.029,1223.6 765.069,1222.95 767.109,1222.29 769.148,1221.62 771.188,1220.95 
  773.228,1220.27 775.267,1219.58 777.307,1218.88 779.346,1218.18 781.386,1217.47 783.426,1216.76 785.465,1216.03 787.505,1215.3 789.545,1214.56 791.584,1213.81 
  793.624,1213.06 795.664,1212.29 797.703,1211.52 799.743,1210.74 801.783,1209.95 803.822,1209.16 805.862,1208.35 807.902,1207.54 809.941,1206.72 811.981,1205.88 
  814.02,1205.04 816.06,1204.19 818.1,1203.34 820.139,1202.47 822.179,1201.59 824.219,1200.7 826.258,1199.81 828.298,1198.9 830.338,1197.98 832.377,1197.06 
  834.417,1196.12 836.457,1195.17 838.496,1194.21 840.536,1193.24 842.576,1192.26 844.615,1191.27 846.655,1190.27 848.695,1189.26 850.734,1188.24 852.774,1187.2 
  854.813,1186.15 856.853,1185.09 858.893,1184.02 860.932,1182.94 862.972,1181.84 865.012,1180.74 867.051,1179.61 869.091,1178.48 871.131,1177.33 873.17,1176.17 
  875.21,1175 877.25,1173.82 879.289,1172.62 881.329,1171.4 883.369,1170.17 885.408,1168.93 887.448,1167.67 889.488,1166.4 891.527,1165.12 893.567,1163.82 
  895.606,1162.5 897.646,1161.17 899.686,1159.82 901.725,1158.46 903.765,1157.08 905.805,1155.68 907.844,1154.27 909.884,1152.84 911.924,1151.4 913.963,1149.94 
  916.003,1148.46 918.043,1146.96 920.082,1145.45 922.122,1143.91 924.162,1142.36 926.201,1140.79 928.241,1139.21 930.28,1137.6 932.32,1135.97 934.36,1134.33 
  936.399,1132.67 938.439,1130.98 940.479,1129.28 942.518,1127.55 944.558,1125.81 946.598,1124.04 948.637,1122.26 950.677,1120.45 952.717,1118.62 954.756,1116.77 
  956.796,1114.9 958.836,1113 960.875,1111.08 962.915,1109.14 964.955,1107.18 966.994,1105.19 969.034,1103.19 971.073,1101.15 973.113,1099.09 975.153,1097.01 
  977.192,1094.91 979.232,1092.78 981.272,1090.62 983.311,1088.44 985.351,1086.23 987.391,1084 989.43,1081.75 991.47,1079.46 993.51,1077.15 995.549,1074.82 
  997.589,1072.45 999.629,1070.06 1001.67,1067.65 1003.71,1065.2 1005.75,1062.73 1007.79,1060.23 1009.83,1057.7 1011.87,1055.15 1013.91,1052.56 1015.95,1049.95 
  1017.99,1047.31 1020.03,1044.64 1022.06,1041.94 1024.1,1039.21 1026.14,1036.46 1028.18,1033.67 1030.22,1030.86 1032.26,1028.01 1034.3,1025.14 1036.34,1022.24 
  1038.38,1019.31 1040.42,1016.35 1042.46,1013.35 1044.5,1010.33 1046.54,1007.29 1048.58,1004.21 1050.62,1001.1 1052.66,997.963 1054.7,994.797 1056.74,991.603 
  1058.78,988.381 1060.82,985.13 1062.86,981.851 1064.9,978.545 1066.94,975.211 1068.98,971.85 1071.02,968.463 1073.06,965.049 1075.1,961.609 1077.14,958.144 
  1079.17,954.654 1081.21,951.14 1083.25,947.602 1085.29,944.042 1087.33,940.458 1089.37,936.854 1091.41,933.228 1093.45,929.582 1095.49,925.918 1097.53,922.235 
  1099.57,918.534 1101.61,914.818 1103.65,911.086 1105.69,907.34 1107.73,903.582 1109.77,899.811 1111.81,896.031 1113.85,892.241 1115.89,888.444 1117.93,884.641 
  1119.97,880.833 1122.01,877.022 1124.05,873.209 1126.09,869.397 1128.13,865.587 1130.17,861.781 1132.21,857.981 1134.25,854.188 1136.29,850.405 1138.32,846.634 
  1140.36,842.877 1142.4,839.135 1144.44,835.412 1146.48,831.71 1148.52,828.03 1150.56,824.376 1152.6,820.749 1154.64,817.152 1156.68,813.588 1158.72,810.059 
  1160.76,806.568 1162.8,803.117 1164.84,799.709 1166.88,796.347 1168.92,793.033 1170.96,789.771 1173,786.562 1175.04,783.409 1177.08,780.316 1179.12,777.285 
  1181.16,774.319 1183.2,771.421 1185.24,768.592 1187.28,765.837 1189.32,763.157 1191.36,760.555 1193.4,758.034 1195.43,755.597 1197.47,753.245 1199.51,750.982 
  1201.55,748.81 1203.59,746.73 1205.63,744.746 1207.67,742.859 1209.71,741.072 1211.75,739.386 1213.79,737.804 1215.83,736.327 1217.87,734.956 1219.91,733.695 
  1221.95,732.543 1223.99,731.502 1226.03,730.574 1228.07,729.76 1230.11,729.06 1232.15,728.475 1234.19,728.006 1236.23,727.655 1238.27,727.42 1240.31,727.302 
  1242.35,727.302 1244.39,727.42 1246.43,727.655 1248.47,728.006 1250.51,728.475 1252.55,729.06 1254.58,729.76 1256.62,730.574 1258.66,731.502 1260.7,732.543 
  1262.74,733.695 1264.78,734.956 1266.82,736.327 1268.86,737.804 1270.9,739.386 1272.94,741.072 1274.98,742.859 1277.02,744.746 1279.06,746.73 1281.1,748.81 
  1283.14,750.982 1285.18,753.245 1287.22,755.597 1289.26,758.034 1291.3,760.555 1293.34,763.157 1295.38,765.837 1297.42,768.592 1299.46,771.421 1301.5,774.319 
  1303.54,777.285 1305.58,780.316 1307.62,783.409 1309.66,786.562 1311.69,789.771 1313.73,793.033 1315.77,796.347 1317.81,799.709 1319.85,803.117 1321.89,806.568 
  1323.93,810.059 1325.97,813.588 1328.01,817.152 1330.05,820.749 1332.09,824.376 1334.13,828.03 1336.17,831.71 1338.21,835.412 1340.25,839.135 1342.29,842.877 
  1344.33,846.634 1346.37,850.405 1348.41,854.188 1350.45,857.981 1352.49,861.781 1354.53,865.587 1356.57,869.397 1358.61,873.209 1360.65,877.022 1362.69,880.833 
  1364.73,884.641 1366.77,888.444 1368.8,892.241 1370.84,896.031 1372.88,899.811 1374.92,903.582 1376.96,907.34 1379,911.086 1381.04,914.818 1383.08,918.534 
  1385.12,922.235 1387.16,925.918 1389.2,929.582 1391.24,933.228 1393.28,936.854 1395.32,940.458 1397.36,944.042 1399.4,947.602 1401.44,951.14 1403.48,954.654 
  1405.52,958.144 1407.56,961.609 1409.6,965.049 1411.64,968.463 1413.68,971.85 1415.72,975.211 1417.76,978.545 1419.8,981.851 1421.84,985.13 1423.88,988.381 
  1425.92,991.603 1427.95,994.797 1429.99,997.963 1432.03,1001.1 1434.07,1004.21 1436.11,1007.29 1438.15,1010.33 1440.19,1013.35 1442.23,1016.35 1444.27,1019.31 
  1446.31,1022.24 1448.35,1025.14 1450.39,1028.01 1452.43,1030.86 1454.47,1033.67 1456.51,1036.46 1458.55,1039.21 1460.59,1041.94 1462.63,1044.64 1464.67,1047.31 
  1466.71,1049.95 1468.75,1052.56 1470.79,1055.15 1472.83,1057.7 1474.87,1060.23 1476.91,1062.73 1478.95,1065.2 1480.99,1067.65 1483.03,1070.06 1485.06,1072.45 
  1487.1,1074.82 1489.14,1077.15 1491.18,1079.46 1493.22,1081.75 1495.26,1084 1497.3,1086.23 1499.34,1088.44 1501.38,1090.62 1503.42,1092.78 1505.46,1094.91 
  1507.5,1097.01 1509.54,1099.09 1511.58,1101.15 1513.62,1103.19 1515.66,1105.19 1517.7,1107.18 1519.74,1109.14 1521.78,1111.08 1523.82,1113 1525.86,1114.9 
  1527.9,1116.77 1529.94,1118.62 1531.98,1120.45 1534.02,1122.26 1536.06,1124.04 1538.1,1125.81 1540.14,1127.55 1542.18,1129.28 1544.21,1130.98 1546.25,1132.67 
  1548.29,1134.33 1550.33,1135.97 1552.37,1137.6 1554.41,1139.21 1556.45,1140.79 1558.49,1142.36 1560.53,1143.91 1562.57,1145.45 1564.61,1146.96 1566.65,1148.46 
  1568.69,1149.94 1570.73,1151.4 1572.77,1152.84 1574.81,1154.27 1576.85,1155.68 1578.89,1157.08 1580.93,1158.46 1582.97,1159.82 1585.01,1161.17 1587.05,1162.5 
  1589.09,1163.82 1591.13,1165.12 1593.17,1166.4 1595.21,1167.67 1597.25,1168.93 1599.29,1170.17 1601.32,1171.4 1603.36,1172.62 1605.4,1173.82 1607.44,1175 
  1609.48,1176.17 1611.52,1177.33 1613.56,1178.48 1615.6,1179.61 1617.64,1180.74 1619.68,1181.84 1621.72,1182.94 1623.76,1184.02 1625.8,1185.09 1627.84,1186.15 
  1629.88,1187.2 1631.92,1188.24 1633.96,1189.26 1636,1190.27 1638.04,1191.27 1640.08,1192.26 1642.12,1193.24 1644.16,1194.21 1646.2,1195.17 1648.24,1196.12 
  1650.28,1197.06 1652.32,1197.98 1654.36,1198.9 1656.4,1199.81 1658.44,1200.7 1660.47,1201.59 1662.51,1202.47 1664.55,1203.34 1666.59,1204.19 1668.63,1205.04 
  1670.67,1205.88 1672.71,1206.72 1674.75,1207.54 1676.79,1208.35 1678.83,1209.16 1680.87,1209.95 1682.91,1210.74 1684.95,1211.52 1686.99,1212.29 1689.03,1213.06 
  1691.07,1213.81 1693.11,1214.56 1695.15,1215.3 1697.19,1216.03 1699.23,1216.76 1701.27,1217.47 1703.31,1218.18 1705.35,1218.88 1707.39,1219.58 1709.43,1220.27 
  1711.47,1220.95 1713.51,1221.62 1715.55,1222.29 1717.58,1222.95 1719.62,1223.6 1721.66,1224.25 1723.7,1224.89 1725.74,1225.52 1727.78,1226.15 1729.82,1226.77 
  1731.86,1227.39 1733.9,1228 1735.94,1228.6 1737.98,1229.2 1740.02,1229.79 1742.06,1230.37 1744.1,1230.95 1746.14,1231.53 1748.18,1232.09 1750.22,1232.66 
  1752.26,1233.21 1754.3,1233.77 1756.34,1234.31 1758.38,1234.85 1760.42,1235.39 1762.46,1235.92 1764.5,1236.44 1766.54,1236.96 1768.58,1237.48 1770.62,1237.99 
  1772.66,1238.5 1774.7,1239 1776.73,1239.49 1778.77,1239.98 1780.81,1240.47 1782.85,1240.95 1784.89,1241.43 1786.93,1241.9 1788.97,1242.37 1791.01,1242.84 
  1793.05,1243.3 1795.09,1243.75 1797.13,1244.2 1799.17,1244.65 1801.21,1245.1 1803.25,1245.53 1805.29,1245.97 1807.33,1246.4 1809.37,1246.83 1811.41,1247.25 
  1813.45,1247.67 1815.49,1248.09 1817.53,1248.5 1819.57,1248.91 1821.61,1249.31 1823.65,1249.71 1825.69,1250.11 1827.73,1250.5 1829.77,1250.89 1831.81,1251.28 
  1833.84,1251.67 1835.88,1252.05 1837.92,1252.42 1839.96,1252.8 1842,1253.17 1844.04,1253.53 1846.08,1253.9 1848.12,1254.26 1850.16,1254.61 1852.2,1254.97 
  1854.24,1255.32 1856.28,1255.67 1858.32,1256.01 1860.36,1256.36 1862.4,1256.7 1864.44,1257.03 1866.48,1257.37 1868.52,1257.7 1870.56,1258.02 1872.6,1258.35 
  1874.64,1258.67 1876.68,1258.99 1878.72,1259.31 1880.76,1259.62 1882.8,1259.93 1884.84,1260.24 1886.88,1260.55 1888.92,1260.85 1890.96,1261.16 1892.99,1261.45 
  1895.03,1261.75 1897.07,1262.05 1899.11,1262.34 1901.15,1262.63 1903.19,1262.91 1905.23,1263.2 1907.27,1263.48 1909.31,1263.76 1911.35,1264.04 1913.39,1264.31 
  1915.43,1264.59 1917.47,1264.86 1919.51,1265.13 1921.55,1265.39 1923.59,1265.66 1925.63,1265.92 1927.67,1266.18 1929.71,1266.44 1931.75,1266.7 1933.79,1266.95 
  1935.83,1267.2 1937.87,1267.45 1939.91,1267.7 1941.95,1267.95 1943.99,1268.19 1946.03,1268.44 1948.07,1268.68 1950.1,1268.91 1952.14,1269.15 1954.18,1269.39 
  1956.22,1269.62 1958.26,1269.85 1960.3,1270.08 1962.34,1270.31 1964.38,1270.54 1966.42,1270.76 1968.46,1270.98 1970.5,1271.21 1972.54,1271.42 1974.58,1271.64 
  1976.62,1271.86 1978.66,1272.07 1980.7,1272.29 1982.74,1272.5 1984.78,1272.71 1986.82,1272.92 1988.86,1273.12 1990.9,1273.33 1992.94,1273.53 1994.98,1273.73 
  1997.02,1273.94 1999.06,1274.13 2001.1,1274.33 2003.14,1274.53 2005.18,1274.72 2007.22,1274.92 2009.25,1275.11 2011.29,1275.3 2013.33,1275.49 2015.37,1275.68 
  2017.41,1275.86 2019.45,1276.05 2021.49,1276.23 2023.53,1276.42 2025.57,1276.6 2027.61,1276.78 2029.65,1276.96 2031.69,1277.13 2033.73,1277.31 2035.77,1277.48 
  2037.81,1277.66 2039.85,1277.83 2041.89,1278 2043.93,1278.17 2045.97,1278.34 2048.01,1278.51 2050.05,1278.68 2052.09,1278.84 2054.13,1279.01 2056.17,1279.17 
  2058.21,1279.33 2060.25,1279.49 2062.29,1279.65 2064.33,1279.81 2066.36,1279.97 2068.4,1280.12 2070.44,1280.28 2072.48,1280.43 2074.52,1280.59 2076.56,1280.74 
  2078.6,1280.89 2080.64,1281.04 2082.68,1281.19 2084.72,1281.34 2086.76,1281.49 2088.8,1281.63 2090.84,1281.78 2092.88,1281.92 2094.92,1282.07 2096.96,1282.21 
  2099,1282.35 2101.04,1282.49 2103.08,1282.63 2105.12,1282.77 2107.16,1282.91 2109.2,1283.04 2111.24,1283.18 2113.28,1283.31 2115.32,1283.45 2117.36,1283.58 
  2119.4,1283.71 2121.44,1283.85 2123.48,1283.98 2125.51,1284.11 2127.55,1284.24 2129.59,1284.36 2131.63,1284.49 2133.67,1284.62 2135.71,1284.74 2137.75,1284.87 
  2139.79,1284.99 2141.83,1285.12 2143.87,1285.24 2145.91,1285.36 2147.95,1285.48 2149.99,1285.6 2152.03,1285.72 2154.07,1285.84 2156.11,1285.96 2158.15,1286.08 
  2160.19,1286.19 2162.23,1286.31 2164.27,1286.43 2166.31,1286.54 2168.35,1286.65 2170.39,1286.77 2172.43,1286.88 2174.47,1286.99 2176.51,1287.1 2178.55,1287.21 
  2180.59,1287.32 2182.62,1287.43 2184.66,1287.54 2186.7,1287.65 2188.74,1287.75 2190.78,1287.86 2192.82,1287.97 2194.86,1288.07 2196.9,1288.18 2198.94,1288.28 
  2200.98,1288.38 2203.02,1288.49 2205.06,1288.59 2207.1,1288.69 2209.14,1288.79 2211.18,1288.89 2213.22,1288.99 2215.26,1289.09 2217.3,1289.19 2219.34,1289.28 
  2221.38,1289.38 2223.42,1289.48 2225.46,1289.57 2227.5,1289.67 2229.54,1289.76 2231.58,1289.86 2233.62,1289.95 2235.66,1290.05 2237.7,1290.14 2239.74,1290.23 
  2241.77,1290.32 2243.81,1290.41 2245.85,1290.5 2247.89,1290.59 2249.93,1290.68 2251.97,1290.77 2254.01,1290.86 2256.05,1290.95 2258.09,1291.04 2260.13,1291.12 
  
  "/>
<circle clip-path="url(#clip9103)" style="fill:#000000; stroke:none; fill-opacity:1" cx="222.522" cy="1291.12" r="18"/>
<circle clip-path="url(#clip9103)" style="fill:#e26f46; stroke:none; fill-opacity:1" cx="222.522" cy="1291.12" r="14"/>
<circle clip-path="url(#clip9103)" style="fill:#000000; stroke:none; fill-opacity:1" cx="426.283" cy="1279.18" r="18"/>
<circle clip-path="url(#clip9103)" style="fill:#e26f46; stroke:none; fill-opacity:1" cx="426.283" cy="1279.18" r="14"/>
<circle clip-path="url(#clip9103)" style="fill:#000000; stroke:none; fill-opacity:1" cx="630.044" cy="1255.04" r="18"/>
<circle clip-path="url(#clip9103)" style="fill:#e26f46; stroke:none; fill-opacity:1" cx="630.044" cy="1255.04" r="14"/>
<circle clip-path="url(#clip9103)" style="fill:#000000; stroke:none; fill-opacity:1" cx="833.805" cy="1196.4" r="18"/>
<circle clip-path="url(#clip9103)" style="fill:#e26f46; stroke:none; fill-opacity:1" cx="833.805" cy="1196.4" r="14"/>
<circle clip-path="url(#clip9103)" style="fill:#000000; stroke:none; fill-opacity:1" cx="1037.57" cy="1020.48" r="18"/>
<circle clip-path="url(#clip9103)" style="fill:#e26f46; stroke:none; fill-opacity:1" cx="1037.57" cy="1020.48" r="14"/>
<circle clip-path="url(#clip9103)" style="fill:#000000; stroke:none; fill-opacity:1" cx="1241.33" cy="727.288" r="18"/>
<circle clip-path="url(#clip9103)" style="fill:#e26f46; stroke:none; fill-opacity:1" cx="1241.33" cy="727.288" r="14"/>
<circle clip-path="url(#clip9103)" style="fill:#000000; stroke:none; fill-opacity:1" cx="1445.09" cy="1020.48" r="18"/>
<circle clip-path="url(#clip9103)" style="fill:#e26f46; stroke:none; fill-opacity:1" cx="1445.09" cy="1020.48" r="14"/>
<circle clip-path="url(#clip9103)" style="fill:#000000; stroke:none; fill-opacity:1" cx="1648.85" cy="1196.4" r="18"/>
<circle clip-path="url(#clip9103)" style="fill:#e26f46; stroke:none; fill-opacity:1" cx="1648.85" cy="1196.4" r="14"/>
<circle clip-path="url(#clip9103)" style="fill:#000000; stroke:none; fill-opacity:1" cx="1852.61" cy="1255.04" r="18"/>
<circle clip-path="url(#clip9103)" style="fill:#e26f46; stroke:none; fill-opacity:1" cx="1852.61" cy="1255.04" r="14"/>
<circle clip-path="url(#clip9103)" style="fill:#000000; stroke:none; fill-opacity:1" cx="2056.37" cy="1279.18" r="18"/>
<circle clip-path="url(#clip9103)" style="fill:#e26f46; stroke:none; fill-opacity:1" cx="2056.37" cy="1279.18" r="14"/>
<circle clip-path="url(#clip9103)" style="fill:#000000; stroke:none; fill-opacity:1" cx="2260.13" cy="1291.12" r="18"/>
<circle clip-path="url(#clip9103)" style="fill:#e26f46; stroke:none; fill-opacity:1" cx="2260.13" cy="1291.12" r="14"/>
<polyline clip-path="url(#clip9103)" style="stroke:#3da44d; stroke-width:4; stroke-opacity:1; fill:none" points="
  222.522,1291.12 224.562,1200.88 226.602,1115.56 228.641,1035.01 230.681,959.065 232.721,887.57 234.76,820.377 236.8,757.339 238.84,698.312 240.879,643.157 
  242.919,591.736 244.958,543.917 246.998,499.569 249.038,458.566 251.077,420.785 253.117,386.104 255.157,354.407 257.196,325.579 259.236,299.509 261.276,276.088 
  263.315,255.21 265.355,236.773 267.395,220.676 269.434,206.821 271.474,195.114 273.514,185.462 275.553,177.775 277.593,171.967 279.632,167.951 281.672,165.645 
  283.712,164.97 285.751,165.846 287.791,168.199 289.831,171.955 291.87,177.041 293.91,183.39 295.95,190.933 297.989,199.606 300.029,209.344 302.069,220.088 
  304.108,231.777 306.148,244.353 308.188,257.762 310.227,271.948 312.267,286.86 314.307,302.447 316.346,318.66 318.386,335.453 320.425,352.778 322.465,370.593 
  324.505,388.854 326.544,407.521 328.584,426.553 330.624,445.913 332.663,465.563 334.703,485.469 336.743,505.595 338.782,525.91 340.822,546.381 342.862,566.978 
  344.901,587.672 346.941,608.436 348.981,629.241 351.02,650.062 353.06,670.876 355.099,691.657 357.139,712.384 359.179,733.035 361.218,753.59 363.258,774.028 
  365.298,794.332 367.337,814.484 369.377,834.466 371.417,854.262 373.456,873.859 375.496,893.24 377.536,912.393 379.575,931.305 381.615,949.964 383.655,968.359 
  385.694,986.478 387.734,1004.31 389.774,1021.85 391.813,1039.09 393.853,1056.02 395.892,1072.63 397.932,1088.91 399.972,1104.87 402.011,1120.48 404.051,1135.76 
  406.091,1150.69 408.13,1165.27 410.17,1179.5 412.21,1193.37 414.249,1206.88 416.289,1220.03 418.329,1232.81 420.368,1245.23 422.408,1257.29 424.448,1268.98 
  426.487,1280.3 428.527,1291.26 430.567,1301.85 432.606,1312.07 434.646,1321.94 436.685,1331.44 438.725,1340.58 440.765,1349.36 442.804,1357.78 444.844,1365.85 
  446.884,1373.57 448.923,1380.95 450.963,1387.97 453.003,1394.66 455.042,1401.01 457.082,1407.02 459.122,1412.71 461.161,1418.06 463.201,1423.1 465.241,1427.82 
  467.28,1432.23 469.32,1436.33 471.359,1440.13 473.399,1443.63 475.439,1446.83 477.478,1449.75 479.518,1452.39 481.558,1454.75 483.597,1456.85 485.637,1458.67 
  487.677,1460.24 489.716,1461.55 491.756,1462.61 493.796,1463.43 495.835,1464.01 497.875,1464.36 499.915,1464.49 501.954,1464.4 503.994,1464.09 506.034,1463.58 
  508.073,1462.86 510.113,1461.95 512.152,1460.85 514.192,1459.57 516.232,1458.11 518.271,1456.48 520.311,1454.68 522.351,1452.72 524.39,1450.61 526.43,1448.35 
  528.47,1445.95 530.509,1443.41 532.549,1440.74 534.589,1437.94 536.628,1435.03 538.668,1432 540.708,1428.86 542.747,1425.62 544.787,1422.29 546.826,1418.86 
  548.866,1415.34 550.906,1411.74 552.945,1408.06 554.985,1404.32 557.025,1400.5 559.064,1396.63 561.104,1392.69 563.144,1388.71 565.183,1384.68 567.223,1380.6 
  569.263,1376.49 571.302,1372.35 573.342,1368.17 575.382,1363.97 577.421,1359.75 579.461,1355.51 581.501,1351.26 583.54,1347 585.58,1342.74 587.619,1338.47 
  589.659,1334.21 591.699,1329.95 593.738,1325.7 595.778,1321.47 597.818,1317.25 599.857,1313.05 601.897,1308.88 603.937,1304.73 605.976,1300.61 608.016,1296.52 
  610.056,1292.46 612.095,1288.44 614.135,1284.46 616.175,1280.53 618.214,1276.63 620.254,1272.79 622.294,1268.99 624.333,1265.24 626.373,1261.55 628.412,1257.91 
  630.452,1254.33 632.492,1250.8 634.531,1247.34 636.571,1243.94 638.611,1240.6 640.65,1237.33 642.69,1234.12 644.73,1230.98 646.769,1227.9 648.809,1224.9 
  650.849,1221.97 652.888,1219.11 654.928,1216.32 656.968,1213.6 659.007,1210.96 661.047,1208.39 663.086,1205.89 665.126,1203.47 667.166,1201.13 669.205,1198.86 
  671.245,1196.67 673.285,1194.56 675.324,1192.52 677.364,1190.55 679.404,1188.67 681.443,1186.86 683.483,1185.12 685.523,1183.46 687.562,1181.88 689.602,1180.37 
  691.642,1178.94 693.681,1177.58 695.721,1176.29 697.761,1175.08 699.8,1173.94 701.84,1172.87 703.879,1171.88 705.919,1170.95 707.959,1170.09 709.998,1169.3 
  712.038,1168.58 714.078,1167.93 716.117,1167.34 718.157,1166.82 720.197,1166.35 722.236,1165.96 724.276,1165.62 726.316,1165.34 728.355,1165.12 730.395,1164.96 
  732.435,1164.86 734.474,1164.81 736.514,1164.81 738.553,1164.87 740.593,1164.97 742.633,1165.13 744.672,1165.33 746.712,1165.58 748.752,1165.87 750.791,1166.21 
  752.831,1166.58 754.871,1167 756.91,1167.46 758.95,1167.95 760.99,1168.48 763.029,1169.04 765.069,1169.63 767.109,1170.25 769.148,1170.91 771.188,1171.58 
  773.228,1172.29 775.267,1173.01 777.307,1173.76 779.346,1174.53 781.386,1175.31 783.426,1176.12 785.465,1176.93 787.505,1177.76 789.545,1178.61 791.584,1179.46 
  793.624,1180.32 795.664,1181.18 797.703,1182.05 799.743,1182.92 801.783,1183.8 803.822,1184.67 805.862,1185.54 807.902,1186.41 809.941,1187.27 811.981,1188.13 
  814.02,1188.97 816.06,1189.81 818.1,1190.63 820.139,1191.44 822.179,1192.23 824.219,1193.01 826.258,1193.77 828.298,1194.51 830.338,1195.23 832.377,1195.93 
  834.417,1196.6 836.457,1197.25 838.496,1197.87 840.536,1198.46 842.576,1199.02 844.615,1199.55 846.655,1200.05 848.695,1200.51 850.734,1200.94 852.774,1201.33 
  854.813,1201.69 856.853,1202.01 858.893,1202.29 860.932,1202.52 862.972,1202.72 865.012,1202.87 867.051,1202.98 869.091,1203.04 871.131,1203.06 873.17,1203.03 
  875.21,1202.95 877.25,1202.82 879.289,1202.65 881.329,1202.42 883.369,1202.14 885.408,1201.81 887.448,1201.43 889.488,1200.99 891.527,1200.5 893.567,1199.95 
  895.606,1199.35 897.646,1198.69 899.686,1197.98 901.725,1197.21 903.765,1196.38 905.805,1195.49 907.844,1194.55 909.884,1193.54 911.924,1192.48 913.963,1191.36 
  916.003,1190.18 918.043,1188.94 920.082,1187.63 922.122,1186.27 924.162,1184.85 926.201,1183.37 928.241,1181.82 930.28,1180.22 932.32,1178.55 934.36,1176.83 
  936.399,1175.04 938.439,1173.19 940.479,1171.29 942.518,1169.32 944.558,1167.29 946.598,1165.21 948.637,1163.06 950.677,1160.86 952.717,1158.59 954.756,1156.27 
  956.796,1153.89 958.836,1151.45 960.875,1148.95 962.915,1146.4 964.955,1143.79 966.994,1141.13 969.034,1138.41 971.073,1135.63 973.113,1132.81 975.153,1129.93 
  977.192,1126.99 979.232,1124 981.272,1120.97 983.311,1117.88 985.351,1114.74 987.391,1111.56 989.43,1108.32 991.47,1105.04 993.51,1101.71 995.549,1098.34 
  997.589,1094.92 999.629,1091.46 1001.67,1087.96 1003.71,1084.41 1005.75,1080.83 1007.79,1077.2 1009.83,1073.54 1011.87,1069.84 1013.91,1066.1 1015.95,1062.33 
  1017.99,1058.52 1020.03,1054.68 1022.06,1050.81 1024.1,1046.91 1026.14,1042.98 1028.18,1039.02 1030.22,1035.03 1032.26,1031.02 1034.3,1026.99 1036.34,1022.93 
  1038.38,1018.85 1040.42,1014.75 1042.46,1010.63 1044.5,1006.49 1046.54,1002.34 1048.58,998.168 1050.62,993.985 1052.66,989.79 1054.7,985.584 1056.74,981.368 
  1058.78,977.144 1060.82,972.913 1062.86,968.676 1064.9,964.436 1066.94,960.193 1068.98,955.948 1071.02,951.704 1073.06,947.462 1075.1,943.222 1077.14,938.987 
  1079.17,934.758 1081.21,930.537 1083.25,926.323 1085.29,922.121 1087.33,917.929 1089.37,913.751 1091.41,909.587 1093.45,905.439 1095.49,901.308 1097.53,897.196 
  1099.57,893.104 1101.61,889.034 1103.65,884.986 1105.69,880.963 1107.73,876.965 1109.77,872.995 1111.81,869.053 1113.85,865.14 1115.89,861.259 1117.93,857.41 
  1119.97,853.595 1122.01,849.815 1124.05,846.071 1126.09,842.365 1128.13,838.698 1130.17,835.071 1132.21,831.486 1134.25,827.943 1136.29,824.445 1138.32,820.992 
  1140.36,817.585 1142.4,814.225 1144.44,810.915 1146.48,807.654 1148.52,804.445 1150.56,801.287 1152.6,798.183 1154.64,795.133 1156.68,792.139 1158.72,789.201 
  1160.76,786.321 1162.8,783.499 1164.84,780.737 1166.88,778.035 1168.92,775.394 1170.96,772.816 1173,770.301 1175.04,767.85 1177.08,765.465 1179.12,763.145 
  1181.16,760.891 1183.2,758.705 1185.24,756.587 1187.28,754.538 1189.32,752.559 1191.36,750.65 1193.4,748.812 1195.43,747.046 1197.47,745.352 1199.51,743.731 
  1201.55,742.184 1203.59,740.71 1205.63,739.311 1207.67,737.987 1209.71,736.738 1211.75,735.565 1213.79,734.469 1215.83,733.449 1217.87,732.506 1219.91,731.641 
  1221.95,730.853 1223.99,730.144 1226.03,729.512 1228.07,728.959 1230.11,728.485 1232.15,728.089 1234.19,727.773 1236.23,727.535 1238.27,727.377 1240.31,727.297 
  1242.35,727.297 1244.39,727.377 1246.43,727.535 1248.47,727.773 1250.51,728.089 1252.55,728.485 1254.58,728.959 1256.62,729.512 1258.66,730.144 1260.7,730.853 
  1262.74,731.641 1264.78,732.506 1266.82,733.449 1268.86,734.469 1270.9,735.565 1272.94,736.738 1274.98,737.987 1277.02,739.311 1279.06,740.71 1281.1,742.184 
  1283.14,743.731 1285.18,745.352 1287.22,747.046 1289.26,748.812 1291.3,750.65 1293.34,752.559 1295.38,754.538 1297.42,756.587 1299.46,758.705 1301.5,760.891 
  1303.54,763.145 1305.58,765.465 1307.62,767.85 1309.66,770.301 1311.69,772.816 1313.73,775.394 1315.77,778.035 1317.81,780.737 1319.85,783.499 1321.89,786.321 
  1323.93,789.201 1325.97,792.139 1328.01,795.133 1330.05,798.183 1332.09,801.287 1334.13,804.445 1336.17,807.654 1338.21,810.915 1340.25,814.225 1342.29,817.585 
  1344.33,820.992 1346.37,824.445 1348.41,827.943 1350.45,831.486 1352.49,835.071 1354.53,838.698 1356.57,842.365 1358.61,846.071 1360.65,849.815 1362.69,853.595 
  1364.73,857.41 1366.77,861.259 1368.8,865.14 1370.84,869.053 1372.88,872.995 1374.92,876.965 1376.96,880.963 1379,884.986 1381.04,889.034 1383.08,893.104 
  1385.12,897.196 1387.16,901.308 1389.2,905.439 1391.24,909.587 1393.28,913.751 1395.32,917.929 1397.36,922.121 1399.4,926.323 1401.44,930.537 1403.48,934.758 
  1405.52,938.987 1407.56,943.222 1409.6,947.462 1411.64,951.704 1413.68,955.948 1415.72,960.193 1417.76,964.436 1419.8,968.676 1421.84,972.913 1423.88,977.144 
  1425.92,981.368 1427.95,985.584 1429.99,989.79 1432.03,993.985 1434.07,998.168 1436.11,1002.34 1438.15,1006.49 1440.19,1010.63 1442.23,1014.75 1444.27,1018.85 
  1446.31,1022.93 1448.35,1026.99 1450.39,1031.02 1452.43,1035.03 1454.47,1039.02 1456.51,1042.98 1458.55,1046.91 1460.59,1050.81 1462.63,1054.68 1464.67,1058.52 
  1466.71,1062.33 1468.75,1066.1 1470.79,1069.84 1472.83,1073.54 1474.87,1077.2 1476.91,1080.83 1478.95,1084.41 1480.99,1087.96 1483.03,1091.46 1485.06,1094.92 
  1487.1,1098.34 1489.14,1101.71 1491.18,1105.04 1493.22,1108.32 1495.26,1111.56 1497.3,1114.74 1499.34,1117.88 1501.38,1120.97 1503.42,1124 1505.46,1126.99 
  1507.5,1129.93 1509.54,1132.81 1511.58,1135.63 1513.62,1138.41 1515.66,1141.13 1517.7,1143.79 1519.74,1146.4 1521.78,1148.95 1523.82,1151.45 1525.86,1153.89 
  1527.9,1156.27 1529.94,1158.59 1531.98,1160.86 1534.02,1163.06 1536.06,1165.21 1538.1,1167.29 1540.14,1169.32 1542.18,1171.29 1544.21,1173.19 1546.25,1175.04 
  1548.29,1176.83 1550.33,1178.55 1552.37,1180.22 1554.41,1181.82 1556.45,1183.37 1558.49,1184.85 1560.53,1186.27 1562.57,1187.63 1564.61,1188.94 1566.65,1190.18 
  1568.69,1191.36 1570.73,1192.48 1572.77,1193.54 1574.81,1194.55 1576.85,1195.49 1578.89,1196.38 1580.93,1197.21 1582.97,1197.98 1585.01,1198.69 1587.05,1199.35 
  1589.09,1199.95 1591.13,1200.5 1593.17,1200.99 1595.21,1201.43 1597.25,1201.81 1599.29,1202.14 1601.32,1202.42 1603.36,1202.65 1605.4,1202.82 1607.44,1202.95 
  1609.48,1203.03 1611.52,1203.06 1613.56,1203.04 1615.6,1202.98 1617.64,1202.87 1619.68,1202.72 1621.72,1202.52 1623.76,1202.29 1625.8,1202.01 1627.84,1201.69 
  1629.88,1201.33 1631.92,1200.94 1633.96,1200.51 1636,1200.05 1638.04,1199.55 1640.08,1199.02 1642.12,1198.46 1644.16,1197.87 1646.2,1197.25 1648.24,1196.6 
  1650.28,1195.93 1652.32,1195.23 1654.36,1194.51 1656.4,1193.77 1658.44,1193.01 1660.47,1192.23 1662.51,1191.44 1664.55,1190.63 1666.59,1189.81 1668.63,1188.97 
  1670.67,1188.13 1672.71,1187.27 1674.75,1186.41 1676.79,1185.54 1678.83,1184.67 1680.87,1183.8 1682.91,1182.92 1684.95,1182.05 1686.99,1181.18 1689.03,1180.32 
  1691.07,1179.46 1693.11,1178.61 1695.15,1177.76 1697.19,1176.93 1699.23,1176.12 1701.27,1175.31 1703.31,1174.53 1705.35,1173.76 1707.39,1173.01 1709.43,1172.29 
  1711.47,1171.58 1713.51,1170.91 1715.55,1170.25 1717.58,1169.63 1719.62,1169.04 1721.66,1168.48 1723.7,1167.95 1725.74,1167.46 1727.78,1167 1729.82,1166.58 
  1731.86,1166.21 1733.9,1165.87 1735.94,1165.58 1737.98,1165.33 1740.02,1165.13 1742.06,1164.97 1744.1,1164.87 1746.14,1164.81 1748.18,1164.81 1750.22,1164.86 
  1752.26,1164.96 1754.3,1165.12 1756.34,1165.34 1758.38,1165.62 1760.42,1165.96 1762.46,1166.35 1764.5,1166.82 1766.54,1167.34 1768.58,1167.93 1770.62,1168.58 
  1772.66,1169.3 1774.7,1170.09 1776.73,1170.95 1778.77,1171.88 1780.81,1172.87 1782.85,1173.94 1784.89,1175.08 1786.93,1176.29 1788.97,1177.58 1791.01,1178.94 
  1793.05,1180.37 1795.09,1181.88 1797.13,1183.46 1799.17,1185.12 1801.21,1186.86 1803.25,1188.67 1805.29,1190.55 1807.33,1192.52 1809.37,1194.56 1811.41,1196.67 
  1813.45,1198.86 1815.49,1201.13 1817.53,1203.47 1819.57,1205.89 1821.61,1208.39 1823.65,1210.96 1825.69,1213.6 1827.73,1216.32 1829.77,1219.11 1831.81,1221.97 
  1833.84,1224.9 1835.88,1227.9 1837.92,1230.98 1839.96,1234.12 1842,1237.33 1844.04,1240.6 1846.08,1243.94 1848.12,1247.34 1850.16,1250.8 1852.2,1254.33 
  1854.24,1257.91 1856.28,1261.55 1858.32,1265.24 1860.36,1268.99 1862.4,1272.79 1864.44,1276.63 1866.48,1280.53 1868.52,1284.46 1870.56,1288.44 1872.6,1292.46 
  1874.64,1296.52 1876.68,1300.61 1878.72,1304.73 1880.76,1308.88 1882.8,1313.05 1884.84,1317.25 1886.88,1321.47 1888.92,1325.7 1890.96,1329.95 1892.99,1334.21 
  1895.03,1338.47 1897.07,1342.74 1899.11,1347 1901.15,1351.26 1903.19,1355.51 1905.23,1359.75 1907.27,1363.97 1909.31,1368.17 1911.35,1372.35 1913.39,1376.49 
  1915.43,1380.6 1917.47,1384.68 1919.51,1388.71 1921.55,1392.69 1923.59,1396.63 1925.63,1400.5 1927.67,1404.32 1929.71,1408.06 1931.75,1411.74 1933.79,1415.34 
  1935.83,1418.86 1937.87,1422.29 1939.91,1425.62 1941.95,1428.86 1943.99,1432 1946.03,1435.03 1948.07,1437.94 1950.1,1440.74 1952.14,1443.41 1954.18,1445.95 
  1956.22,1448.35 1958.26,1450.61 1960.3,1452.72 1962.34,1454.68 1964.38,1456.48 1966.42,1458.11 1968.46,1459.57 1970.5,1460.85 1972.54,1461.95 1974.58,1462.86 
  1976.62,1463.58 1978.66,1464.09 1980.7,1464.4 1982.74,1464.49 1984.78,1464.36 1986.82,1464.01 1988.86,1463.43 1990.9,1462.61 1992.94,1461.55 1994.98,1460.24 
  1997.02,1458.67 1999.06,1456.85 2001.1,1454.75 2003.14,1452.39 2005.18,1449.75 2007.22,1446.83 2009.25,1443.63 2011.29,1440.13 2013.33,1436.33 2015.37,1432.23 
  2017.41,1427.82 2019.45,1423.1 2021.49,1418.06 2023.53,1412.71 2025.57,1407.02 2027.61,1401.01 2029.65,1394.66 2031.69,1387.97 2033.73,1380.95 2035.77,1373.57 
  2037.81,1365.85 2039.85,1357.78 2041.89,1349.36 2043.93,1340.58 2045.97,1331.44 2048.01,1321.94 2050.05,1312.07 2052.09,1301.85 2054.13,1291.26 2056.17,1280.3 
  2058.21,1268.98 2060.25,1257.29 2062.29,1245.23 2064.33,1232.81 2066.36,1220.03 2068.4,1206.88 2070.44,1193.37 2072.48,1179.5 2074.52,1165.27 2076.56,1150.69 
  2078.6,1135.76 2080.64,1120.48 2082.68,1104.87 2084.72,1088.91 2086.76,1072.63 2088.8,1056.02 2090.84,1039.09 2092.88,1021.85 2094.92,1004.31 2096.96,986.478 
  2099,968.359 2101.04,949.964 2103.08,931.305 2105.12,912.393 2107.16,893.24 2109.2,873.859 2111.24,854.262 2113.28,834.466 2115.32,814.484 2117.36,794.332 
  2119.4,774.028 2121.44,753.59 2123.48,733.035 2125.51,712.384 2127.55,691.657 2129.59,670.876 2131.63,650.062 2133.67,629.241 2135.71,608.436 2137.75,587.672 
  2139.79,566.978 2141.83,546.381 2143.87,525.91 2145.91,505.595 2147.95,485.469 2149.99,465.563 2152.03,445.913 2154.07,426.553 2156.11,407.521 2158.15,388.854 
  2160.19,370.593 2162.23,352.778 2164.27,335.453 2166.31,318.66 2168.35,302.447 2170.39,286.86 2172.43,271.948 2174.47,257.762 2176.51,244.353 2178.55,231.777 
  2180.59,220.088 2182.62,209.344 2184.66,199.606 2186.7,190.933 2188.74,183.39 2190.78,177.041 2192.82,171.955 2194.86,168.199 2196.9,165.846 2198.94,164.97 
  2200.98,165.645 2203.02,167.951 2205.06,171.967 2207.1,177.775 2209.14,185.462 2211.18,195.114 2213.22,206.821 2215.26,220.676 2217.3,236.773 2219.34,255.21 
  2221.38,276.088 2223.42,299.509 2225.46,325.579 2227.5,354.407 2229.54,386.104 2231.58,420.785 2233.62,458.566 2235.66,499.569 2237.7,543.917 2239.74,591.736 
  2241.77,643.157 2243.81,698.312 2245.85,757.339 2247.89,820.377 2249.93,887.57 2251.97,959.065 2254.01,1035.01 2256.05,1115.56 2258.09,1200.88 2260.13,1291.12 
  
  "/>
<polygon clip-path="url(#clip9101)" points="
1685.51,451.424 2249.26,451.424 2249.26,209.504 1685.51,209.504 
  " fill="#ffffff" fill-rule="evenodd" fill-opacity="1"/>
<polyline clip-path="url(#clip9101)" style="stroke:#000000; stroke-width:4; stroke-opacity:1; fill:none" points="
  1685.51,451.424 2249.26,451.424 2249.26,209.504 1685.51,209.504 1685.51,451.424 
  "/>
<polyline clip-path="url(#clip9101)" style="stroke:#009af9; stroke-width:4; stroke-opacity:1; fill:none" points="
  1709.51,269.984 1853.51,269.984 
  "/>
<g clip-path="url(#clip9101)">
<text style="fill:#000000; fill-opacity:1; font-family:Arial,Helvetica Neue,Helvetica,sans-serif; font-size:48px; text-anchor:start;" transform="rotate(0, 1877.51, 287.484)" x="1877.51" y="287.484">Runge function</text>
</g>
<circle clip-path="url(#clip9101)" style="fill:#000000; stroke:none; fill-opacity:1" cx="1793.51" cy="330.464" r="25"/>
<circle clip-path="url(#clip9101)" style="fill:#e26f46; stroke:none; fill-opacity:1" cx="1793.51" cy="330.464" r="21"/>
<g clip-path="url(#clip9101)">
<text style="fill:#000000; fill-opacity:1; font-family:Arial,Helvetica Neue,Helvetica,sans-serif; font-size:48px; text-anchor:start;" transform="rotate(0, 1877.51, 347.964)" x="1877.51" y="347.964">Nodes</text>
</g>
<polyline clip-path="url(#clip9101)" style="stroke:#3da44d; stroke-width:4; stroke-opacity:1; fill:none" points="
  1709.51,390.944 1853.51,390.944 
  "/>
<g clip-path="url(#clip9101)">
<text style="fill:#000000; fill-opacity:1; font-family:Arial,Helvetica Neue,Helvetica,sans-serif; font-size:48px; text-anchor:start;" transform="rotate(0, 1877.51, 408.444)" x="1877.51" y="408.444">Intepolation</text>
</g>
</svg>
