<?xml version="1.0" encoding="utf-8"?>
<svg xmlns="http://www.w3.org/2000/svg" xmlns:xlink="http://www.w3.org/1999/xlink" width="600" height="400" viewBox="0 0 2400 1600">
<defs>
  <clipPath id="clip0700">
    <rect x="0" y="0" width="2000" height="2000"/>
  </clipPath>
</defs>
<defs>
  <clipPath id="clip0701">
    <rect x="0" y="0" width="2400" height="1600"/>
  </clipPath>
</defs>
<polygon clip-path="url(#clip0701)" points="
0,1600 2400,1600 2400,0 0,0 
  " fill="#ffffff" fill-rule="evenodd" fill-opacity="1"/>
<defs>
  <clipPath id="clip0702">
    <rect x="480" y="0" width="1681" height="1600"/>
  </clipPath>
</defs>
<polygon clip-path="url(#clip0701)" points="
148.013,1503.47 2321.26,1503.47 2321.26,125.984 148.013,125.984 
  " fill="#ffffff" fill-rule="evenodd" fill-opacity="1"/>
<defs>
  <clipPath id="clip0703">
    <rect x="148" y="125" width="2174" height="1378"/>
  </clipPath>
</defs>
<polyline clip-path="url(#clip0703)" style="stroke:#000000; stroke-width:2; stroke-opacity:0.1; fill:none" points="
  209.52,1503.47 209.52,125.984 
  "/>
<polyline clip-path="url(#clip0703)" style="stroke:#000000; stroke-width:2; stroke-opacity:0.1; fill:none" points="
  722.078,1503.47 722.078,125.984 
  "/>
<polyline clip-path="url(#clip0703)" style="stroke:#000000; stroke-width:2; stroke-opacity:0.1; fill:none" points="
  1234.64,1503.47 1234.64,125.984 
  "/>
<polyline clip-path="url(#clip0703)" style="stroke:#000000; stroke-width:2; stroke-opacity:0.1; fill:none" points="
  1747.19,1503.47 1747.19,125.984 
  "/>
<polyline clip-path="url(#clip0703)" style="stroke:#000000; stroke-width:2; stroke-opacity:0.1; fill:none" points="
  2259.75,1503.47 2259.75,125.984 
  "/>
<polyline clip-path="url(#clip0703)" style="stroke:#000000; stroke-width:2; stroke-opacity:0.1; fill:none" points="
  148.013,1369.38 2321.26,1369.38 
  "/>
<polyline clip-path="url(#clip0703)" style="stroke:#000000; stroke-width:2; stroke-opacity:0.1; fill:none" points="
  148.013,957.29 2321.26,957.29 
  "/>
<polyline clip-path="url(#clip0703)" style="stroke:#000000; stroke-width:2; stroke-opacity:0.1; fill:none" points="
  148.013,545.199 2321.26,545.199 
  "/>
<polyline clip-path="url(#clip0703)" style="stroke:#000000; stroke-width:2; stroke-opacity:0.1; fill:none" points="
  148.013,133.108 2321.26,133.108 
  "/>
<polyline clip-path="url(#clip0701)" style="stroke:#000000; stroke-width:4; stroke-opacity:1; fill:none" points="
  148.013,1503.47 2321.26,1503.47 
  "/>
<polyline clip-path="url(#clip0701)" style="stroke:#000000; stroke-width:4; stroke-opacity:1; fill:none" points="
  148.013,1503.47 148.013,125.984 
  "/>
<polyline clip-path="url(#clip0701)" style="stroke:#000000; stroke-width:4; stroke-opacity:1; fill:none" points="
  209.52,1503.47 209.52,1482.81 
  "/>
<polyline clip-path="url(#clip0701)" style="stroke:#000000; stroke-width:4; stroke-opacity:1; fill:none" points="
  722.078,1503.47 722.078,1482.81 
  "/>
<polyline clip-path="url(#clip0701)" style="stroke:#000000; stroke-width:4; stroke-opacity:1; fill:none" points="
  1234.64,1503.47 1234.64,1482.81 
  "/>
<polyline clip-path="url(#clip0701)" style="stroke:#000000; stroke-width:4; stroke-opacity:1; fill:none" points="
  1747.19,1503.47 1747.19,1482.81 
  "/>
<polyline clip-path="url(#clip0701)" style="stroke:#000000; stroke-width:4; stroke-opacity:1; fill:none" points="
  2259.75,1503.47 2259.75,1482.81 
  "/>
<polyline clip-path="url(#clip0701)" style="stroke:#000000; stroke-width:4; stroke-opacity:1; fill:none" points="
  148.013,1369.38 180.612,1369.38 
  "/>
<polyline clip-path="url(#clip0701)" style="stroke:#000000; stroke-width:4; stroke-opacity:1; fill:none" points="
  148.013,957.29 180.612,957.29 
  "/>
<polyline clip-path="url(#clip0701)" style="stroke:#000000; stroke-width:4; stroke-opacity:1; fill:none" points="
  148.013,545.199 180.612,545.199 
  "/>
<polyline clip-path="url(#clip0701)" style="stroke:#000000; stroke-width:4; stroke-opacity:1; fill:none" points="
  148.013,133.108 180.612,133.108 
  "/>
<g clip-path="url(#clip0701)">
<text style="fill:#000000; fill-opacity:1; font-family:Arial,Helvetica Neue,Helvetica,sans-serif; font-size:48px; text-anchor:middle;" transform="rotate(0, 209.52, 1557.47)" x="209.52" y="1557.47">-1.0</text>
</g>
<g clip-path="url(#clip0701)">
<text style="fill:#000000; fill-opacity:1; font-family:Arial,Helvetica Neue,Helvetica,sans-serif; font-size:48px; text-anchor:middle;" transform="rotate(0, 722.078, 1557.47)" x="722.078" y="1557.47">-0.5</text>
</g>
<g clip-path="url(#clip0701)">
<text style="fill:#000000; fill-opacity:1; font-family:Arial,Helvetica Neue,Helvetica,sans-serif; font-size:48px; text-anchor:middle;" transform="rotate(0, 1234.64, 1557.47)" x="1234.64" y="1557.47">0.0</text>
</g>
<g clip-path="url(#clip0701)">
<text style="fill:#000000; fill-opacity:1; font-family:Arial,Helvetica Neue,Helvetica,sans-serif; font-size:48px; text-anchor:middle;" transform="rotate(0, 1747.19, 1557.47)" x="1747.19" y="1557.47">0.5</text>
</g>
<g clip-path="url(#clip0701)">
<text style="fill:#000000; fill-opacity:1; font-family:Arial,Helvetica Neue,Helvetica,sans-serif; font-size:48px; text-anchor:middle;" transform="rotate(0, 2259.75, 1557.47)" x="2259.75" y="1557.47">1.0</text>
</g>
<g clip-path="url(#clip0701)">
<text style="fill:#000000; fill-opacity:1; font-family:Arial,Helvetica Neue,Helvetica,sans-serif; font-size:48px; text-anchor:end;" transform="rotate(0, 124.013, 1386.88)" x="124.013" y="1386.88">0</text>
</g>
<g clip-path="url(#clip0701)">
<text style="fill:#000000; fill-opacity:1; font-family:Arial,Helvetica Neue,Helvetica,sans-serif; font-size:48px; text-anchor:end;" transform="rotate(0, 124.013, 974.79)" x="124.013" y="974.79">10</text>
</g>
<g clip-path="url(#clip0701)">
<text style="fill:#000000; fill-opacity:1; font-family:Arial,Helvetica Neue,Helvetica,sans-serif; font-size:48px; text-anchor:end;" transform="rotate(0, 124.013, 562.699)" x="124.013" y="562.699">20</text>
</g>
<g clip-path="url(#clip0701)">
<text style="fill:#000000; fill-opacity:1; font-family:Arial,Helvetica Neue,Helvetica,sans-serif; font-size:48px; text-anchor:end;" transform="rotate(0, 124.013, 150.608)" x="124.013" y="150.608">30</text>
</g>
<g clip-path="url(#clip0701)">
<text style="fill:#000000; fill-opacity:1; font-family:Arial,Helvetica Neue,Helvetica,sans-serif; font-size:84px; text-anchor:middle;" transform="rotate(0, 1234.64, 73.2)" x="1234.64" y="73.2">Runge&apos;s phenomenon (Nodes = 19)</text>
</g>
<polyline clip-path="url(#clip0703)" style="stroke:#009af9; stroke-width:4; stroke-opacity:1; fill:none" points="
  209.52,1367.8 211.572,1367.79 213.624,1367.78 215.677,1367.78 217.729,1367.77 219.781,1367.76 221.834,1367.76 223.886,1367.75 225.938,1367.75 227.99,1367.74 
  230.043,1367.73 232.095,1367.73 234.147,1367.72 236.2,1367.71 238.252,1367.71 240.304,1367.7 242.356,1367.69 244.409,1367.69 246.461,1367.68 248.513,1367.67 
  250.566,1367.67 252.618,1367.66 254.67,1367.65 256.722,1367.65 258.775,1367.64 260.827,1367.63 262.879,1367.62 264.932,1367.62 266.984,1367.61 269.036,1367.6 
  271.088,1367.6 273.141,1367.59 275.193,1367.58 277.245,1367.57 279.298,1367.57 281.35,1367.56 283.402,1367.55 285.454,1367.54 287.507,1367.54 289.559,1367.53 
  291.611,1367.52 293.664,1367.51 295.716,1367.5 297.768,1367.5 299.82,1367.49 301.873,1367.48 303.925,1367.47 305.977,1367.47 308.03,1367.46 310.082,1367.45 
  312.134,1367.44 314.186,1367.43 316.239,1367.42 318.291,1367.42 320.343,1367.41 322.396,1367.4 324.448,1367.39 326.5,1367.38 328.552,1367.37 330.605,1367.36 
  332.657,1367.36 334.709,1367.35 336.762,1367.34 338.814,1367.33 340.866,1367.32 342.918,1367.31 344.971,1367.3 347.023,1367.29 349.075,1367.28 351.128,1367.27 
  353.18,1367.27 355.232,1367.26 357.284,1367.25 359.337,1367.24 361.389,1367.23 363.441,1367.22 365.494,1367.21 367.546,1367.2 369.598,1367.19 371.65,1367.18 
  373.703,1367.17 375.755,1367.16 377.807,1367.15 379.86,1367.14 381.912,1367.13 383.964,1367.12 386.016,1367.11 388.069,1367.1 390.121,1367.09 392.173,1367.08 
  394.226,1367.07 396.278,1367.05 398.33,1367.04 400.382,1367.03 402.435,1367.02 404.487,1367.01 406.539,1367 408.592,1366.99 410.644,1366.98 412.696,1366.97 
  414.748,1366.96 416.801,1366.94 418.853,1366.93 420.905,1366.92 422.958,1366.91 425.01,1366.9 427.062,1366.89 429.114,1366.87 431.167,1366.86 433.219,1366.85 
  435.271,1366.84 437.324,1366.82 439.376,1366.81 441.428,1366.8 443.48,1366.79 445.533,1366.77 447.585,1366.76 449.637,1366.75 451.69,1366.74 453.742,1366.72 
  455.794,1366.71 457.846,1366.7 459.899,1366.68 461.951,1366.67 464.003,1366.66 466.056,1366.64 468.108,1366.63 470.16,1366.62 472.212,1366.6 474.265,1366.59 
  476.317,1366.57 478.369,1366.56 480.422,1366.54 482.474,1366.53 484.526,1366.52 486.578,1366.5 488.631,1366.49 490.683,1366.47 492.735,1366.46 494.788,1366.44 
  496.84,1366.43 498.892,1366.41 500.944,1366.4 502.997,1366.38 505.049,1366.36 507.101,1366.35 509.154,1366.33 511.206,1366.32 513.258,1366.3 515.31,1366.28 
  517.363,1366.27 519.415,1366.25 521.467,1366.23 523.52,1366.22 525.572,1366.2 527.624,1366.18 529.676,1366.17 531.729,1366.15 533.781,1366.13 535.833,1366.11 
  537.886,1366.1 539.938,1366.08 541.99,1366.06 544.042,1366.04 546.095,1366.02 548.147,1366.01 550.199,1365.99 552.252,1365.97 554.304,1365.95 556.356,1365.93 
  558.408,1365.91 560.461,1365.89 562.513,1365.87 564.565,1365.85 566.617,1365.83 568.67,1365.81 570.722,1365.79 572.774,1365.77 574.827,1365.75 576.879,1365.73 
  578.931,1365.71 580.983,1365.69 583.036,1365.67 585.088,1365.65 587.14,1365.63 589.193,1365.6 591.245,1365.58 593.297,1365.56 595.349,1365.54 597.402,1365.51 
  599.454,1365.49 601.506,1365.47 603.559,1365.45 605.611,1365.42 607.663,1365.4 609.715,1365.38 611.768,1365.35 613.82,1365.33 615.872,1365.3 617.925,1365.28 
  619.977,1365.25 622.029,1365.23 624.081,1365.2 626.134,1365.18 628.186,1365.15 630.238,1365.13 632.291,1365.1 634.343,1365.08 636.395,1365.05 638.447,1365.02 
  640.5,1365 642.552,1364.97 644.604,1364.94 646.657,1364.91 648.709,1364.89 650.761,1364.86 652.813,1364.83 654.866,1364.8 656.918,1364.77 658.97,1364.74 
  661.023,1364.71 663.075,1364.68 665.127,1364.65 667.179,1364.62 669.232,1364.59 671.284,1364.56 673.336,1364.53 675.389,1364.5 677.441,1364.47 679.493,1364.43 
  681.545,1364.4 683.598,1364.37 685.65,1364.34 687.702,1364.3 689.755,1364.27 691.807,1364.24 693.859,1364.2 695.911,1364.17 697.964,1364.13 700.016,1364.1 
  702.068,1364.06 704.121,1364.03 706.173,1363.99 708.225,1363.95 710.277,1363.92 712.33,1363.88 714.382,1363.84 716.434,1363.8 718.487,1363.76 720.539,1363.73 
  722.591,1363.69 724.643,1363.65 726.696,1363.61 728.748,1363.57 730.8,1363.53 732.853,1363.48 734.905,1363.44 736.957,1363.4 739.009,1363.36 741.062,1363.32 
  743.114,1363.27 745.166,1363.23 747.219,1363.19 749.271,1363.14 751.323,1363.1 753.375,1363.05 755.428,1363 757.48,1362.96 759.532,1362.91 761.585,1362.86 
  763.637,1362.82 765.689,1362.77 767.741,1362.72 769.794,1362.67 771.846,1362.62 773.898,1362.57 775.951,1362.52 778.003,1362.47 780.055,1362.41 782.107,1362.36 
  784.16,1362.31 786.212,1362.26 788.264,1362.2 790.317,1362.15 792.369,1362.09 794.421,1362.04 796.473,1361.98 798.526,1361.92 800.578,1361.86 802.63,1361.81 
  804.683,1361.75 806.735,1361.69 808.787,1361.63 810.839,1361.56 812.892,1361.5 814.944,1361.44 816.996,1361.38 819.049,1361.31 821.101,1361.25 823.153,1361.18 
  825.205,1361.12 827.258,1361.05 829.31,1360.98 831.362,1360.92 833.415,1360.85 835.467,1360.78 837.519,1360.71 839.571,1360.64 841.624,1360.56 843.676,1360.49 
  845.728,1360.42 847.781,1360.34 849.833,1360.27 851.885,1360.19 853.937,1360.12 855.99,1360.04 858.042,1359.96 860.094,1359.88 862.147,1359.8 864.199,1359.72 
  866.251,1359.63 868.303,1359.55 870.356,1359.47 872.408,1359.38 874.46,1359.3 876.513,1359.21 878.565,1359.12 880.617,1359.03 882.669,1358.94 884.722,1358.85 
  886.774,1358.76 888.826,1358.66 890.879,1358.57 892.931,1358.47 894.983,1358.38 897.035,1358.28 899.088,1358.18 901.14,1358.08 903.192,1357.98 905.245,1357.87 
  907.297,1357.77 909.349,1357.66 911.401,1357.56 913.454,1357.45 915.506,1357.34 917.558,1357.23 919.611,1357.12 921.663,1357.01 923.715,1356.89 925.767,1356.78 
  927.82,1356.66 929.872,1356.54 931.924,1356.42 933.977,1356.3 936.029,1356.18 938.081,1356.05 940.133,1355.93 942.186,1355.8 944.238,1355.67 946.29,1355.54 
  948.343,1355.41 950.395,1355.28 952.447,1355.14 954.499,1355.01 956.552,1354.87 958.604,1354.73 960.656,1354.59 962.709,1354.44 964.761,1354.3 966.813,1354.15 
  968.865,1354.01 970.918,1353.86 972.97,1353.7 975.022,1353.55 977.075,1353.4 979.127,1353.24 981.179,1353.08 983.231,1352.92 985.284,1352.76 987.336,1352.59 
  989.388,1352.43 991.441,1352.26 993.493,1352.09 995.545,1351.92 997.597,1351.74 999.65,1351.57 1001.7,1351.39 1003.75,1351.21 1005.81,1351.03 1007.86,1350.85 
  1009.91,1350.66 1011.96,1350.47 1014.02,1350.28 1016.07,1350.09 1018.12,1349.9 1020.17,1349.7 1022.22,1349.5 1024.28,1349.31 1026.33,1349.1 1028.38,1348.9 
  1030.43,1348.69 1032.49,1348.49 1034.54,1348.27 1036.59,1348.06 1038.64,1347.85 1040.7,1347.63 1042.75,1347.41 1044.8,1347.19 1046.85,1346.97 1048.9,1346.75 
  1050.96,1346.52 1053.01,1346.29 1055.06,1346.06 1057.11,1345.83 1059.17,1345.59 1061.22,1345.36 1063.27,1345.12 1065.32,1344.88 1067.38,1344.64 1069.43,1344.39 
  1071.48,1344.15 1073.53,1343.9 1075.58,1343.65 1077.64,1343.4 1079.69,1343.15 1081.74,1342.9 1083.79,1342.64 1085.85,1342.39 1087.9,1342.13 1089.95,1341.87 
  1092,1341.61 1094.05,1341.35 1096.11,1341.09 1098.16,1340.82 1100.21,1340.56 1102.26,1340.3 1104.32,1340.03 1106.37,1339.76 1108.42,1339.5 1110.47,1339.23 
  1112.53,1338.96 1114.58,1338.69 1116.63,1338.43 1118.68,1338.16 1120.73,1337.89 1122.79,1337.62 1124.84,1337.36 1126.89,1337.09 1128.94,1336.82 1131,1336.56 
  1133.05,1336.29 1135.1,1336.03 1137.15,1335.77 1139.21,1335.51 1141.26,1335.25 1143.31,1334.99 1145.36,1334.74 1147.41,1334.49 1149.47,1334.24 1151.52,1333.99 
  1153.57,1333.74 1155.62,1333.5 1157.68,1333.26 1159.73,1333.02 1161.78,1332.79 1163.83,1332.56 1165.88,1332.34 1167.94,1332.12 1169.99,1331.9 1172.04,1331.68 
  1174.09,1331.48 1176.15,1331.27 1178.2,1331.07 1180.25,1330.88 1182.3,1330.69 1184.36,1330.51 1186.41,1330.33 1188.46,1330.16 1190.51,1330 1192.56,1329.84 
  1194.62,1329.68 1196.67,1329.54 1198.72,1329.4 1200.77,1329.27 1202.83,1329.14 1204.88,1329.02 1206.93,1328.91 1208.98,1328.81 1211.04,1328.71 1213.09,1328.62 
  1215.14,1328.54 1217.19,1328.47 1219.24,1328.4 1221.3,1328.35 1223.35,1328.3 1225.4,1328.25 1227.45,1328.22 1229.51,1328.2 1231.56,1328.18 1233.61,1328.17 
  1235.66,1328.17 1237.71,1328.18 1239.77,1328.2 1241.82,1328.22 1243.87,1328.25 1245.92,1328.3 1247.98,1328.35 1250.03,1328.4 1252.08,1328.47 1254.13,1328.54 
  1256.19,1328.62 1258.24,1328.71 1260.29,1328.81 1262.34,1328.91 1264.39,1329.02 1266.45,1329.14 1268.5,1329.27 1270.55,1329.4 1272.6,1329.54 1274.66,1329.68 
  1276.71,1329.84 1278.76,1330 1280.81,1330.16 1282.87,1330.33 1284.92,1330.51 1286.97,1330.69 1289.02,1330.88 1291.07,1331.07 1293.13,1331.27 1295.18,1331.48 
  1297.23,1331.68 1299.28,1331.9 1301.34,1332.12 1303.39,1332.34 1305.44,1332.56 1307.49,1332.79 1309.54,1333.02 1311.6,1333.26 1313.65,1333.5 1315.7,1333.74 
  1317.75,1333.99 1319.81,1334.24 1321.86,1334.49 1323.91,1334.74 1325.96,1334.99 1328.02,1335.25 1330.07,1335.51 1332.12,1335.77 1334.17,1336.03 1336.22,1336.29 
  1338.28,1336.56 1340.33,1336.82 1342.38,1337.09 1344.43,1337.36 1346.49,1337.62 1348.54,1337.89 1350.59,1338.16 1352.64,1338.43 1354.7,1338.69 1356.75,1338.96 
  1358.8,1339.23 1360.85,1339.5 1362.9,1339.76 1364.96,1340.03 1367.01,1340.3 1369.06,1340.56 1371.11,1340.82 1373.17,1341.09 1375.22,1341.35 1377.27,1341.61 
  1379.32,1341.87 1381.37,1342.13 1383.43,1342.39 1385.48,1342.64 1387.53,1342.9 1389.58,1343.15 1391.64,1343.4 1393.69,1343.65 1395.74,1343.9 1397.79,1344.15 
  1399.85,1344.39 1401.9,1344.64 1403.95,1344.88 1406,1345.12 1408.05,1345.36 1410.11,1345.59 1412.16,1345.83 1414.21,1346.06 1416.26,1346.29 1418.32,1346.52 
  1420.37,1346.75 1422.42,1346.97 1424.47,1347.19 1426.53,1347.41 1428.58,1347.63 1430.63,1347.85 1432.68,1348.06 1434.73,1348.27 1436.79,1348.49 1438.84,1348.69 
  1440.89,1348.9 1442.94,1349.1 1445,1349.31 1447.05,1349.5 1449.1,1349.7 1451.15,1349.9 1453.2,1350.09 1455.26,1350.28 1457.31,1350.47 1459.36,1350.66 
  1461.41,1350.85 1463.47,1351.03 1465.52,1351.21 1467.57,1351.39 1469.62,1351.57 1471.68,1351.74 1473.73,1351.92 1475.78,1352.09 1477.83,1352.26 1479.88,1352.43 
  1481.94,1352.59 1483.99,1352.76 1486.04,1352.92 1488.09,1353.08 1490.15,1353.24 1492.2,1353.4 1494.25,1353.55 1496.3,1353.7 1498.36,1353.86 1500.41,1354.01 
  1502.46,1354.15 1504.51,1354.3 1506.56,1354.44 1508.62,1354.59 1510.67,1354.73 1512.72,1354.87 1514.77,1355.01 1516.83,1355.14 1518.88,1355.28 1520.93,1355.41 
  1522.98,1355.54 1525.03,1355.67 1527.09,1355.8 1529.14,1355.93 1531.19,1356.05 1533.24,1356.18 1535.3,1356.3 1537.35,1356.42 1539.4,1356.54 1541.45,1356.66 
  1543.51,1356.78 1545.56,1356.89 1547.61,1357.01 1549.66,1357.12 1551.71,1357.23 1553.77,1357.34 1555.82,1357.45 1557.87,1357.56 1559.92,1357.66 1561.98,1357.77 
  1564.03,1357.87 1566.08,1357.98 1568.13,1358.08 1570.18,1358.18 1572.24,1358.28 1574.29,1358.38 1576.34,1358.47 1578.39,1358.57 1580.45,1358.66 1582.5,1358.76 
  1584.55,1358.85 1586.6,1358.94 1588.66,1359.03 1590.71,1359.12 1592.76,1359.21 1594.81,1359.3 1596.86,1359.38 1598.92,1359.47 1600.97,1359.55 1603.02,1359.63 
  1605.07,1359.72 1607.13,1359.8 1609.18,1359.88 1611.23,1359.96 1613.28,1360.04 1615.34,1360.12 1617.39,1360.19 1619.44,1360.27 1621.49,1360.34 1623.54,1360.42 
  1625.6,1360.49 1627.65,1360.56 1629.7,1360.64 1631.75,1360.71 1633.81,1360.78 1635.86,1360.85 1637.91,1360.92 1639.96,1360.98 1642.01,1361.05 1644.07,1361.12 
  1646.12,1361.18 1648.17,1361.25 1650.22,1361.31 1652.28,1361.38 1654.33,1361.44 1656.38,1361.5 1658.43,1361.56 1660.49,1361.63 1662.54,1361.69 1664.59,1361.75 
  1666.64,1361.81 1668.69,1361.86 1670.75,1361.92 1672.8,1361.98 1674.85,1362.04 1676.9,1362.09 1678.96,1362.15 1681.01,1362.2 1683.06,1362.26 1685.11,1362.31 
  1687.17,1362.36 1689.22,1362.41 1691.27,1362.47 1693.32,1362.52 1695.37,1362.57 1697.43,1362.62 1699.48,1362.67 1701.53,1362.72 1703.58,1362.77 1705.64,1362.82 
  1707.69,1362.86 1709.74,1362.91 1711.79,1362.96 1713.84,1363 1715.9,1363.05 1717.95,1363.1 1720,1363.14 1722.05,1363.19 1724.11,1363.23 1726.16,1363.27 
  1728.21,1363.32 1730.26,1363.36 1732.32,1363.4 1734.37,1363.44 1736.42,1363.48 1738.47,1363.53 1740.52,1363.57 1742.58,1363.61 1744.63,1363.65 1746.68,1363.69 
  1748.73,1363.73 1750.79,1363.76 1752.84,1363.8 1754.89,1363.84 1756.94,1363.88 1759,1363.92 1761.05,1363.95 1763.1,1363.99 1765.15,1364.03 1767.2,1364.06 
  1769.26,1364.1 1771.31,1364.13 1773.36,1364.17 1775.41,1364.2 1777.47,1364.24 1779.52,1364.27 1781.57,1364.3 1783.62,1364.34 1785.67,1364.37 1787.73,1364.4 
  1789.78,1364.43 1791.83,1364.47 1793.88,1364.5 1795.94,1364.53 1797.99,1364.56 1800.04,1364.59 1802.09,1364.62 1804.15,1364.65 1806.2,1364.68 1808.25,1364.71 
  1810.3,1364.74 1812.35,1364.77 1814.41,1364.8 1816.46,1364.83 1818.51,1364.86 1820.56,1364.89 1822.62,1364.91 1824.67,1364.94 1826.72,1364.97 1828.77,1365 
  1830.83,1365.02 1832.88,1365.05 1834.93,1365.08 1836.98,1365.1 1839.03,1365.13 1841.09,1365.15 1843.14,1365.18 1845.19,1365.2 1847.24,1365.23 1849.3,1365.25 
  1851.35,1365.28 1853.4,1365.3 1855.45,1365.33 1857.5,1365.35 1859.56,1365.38 1861.61,1365.4 1863.66,1365.42 1865.71,1365.45 1867.77,1365.47 1869.82,1365.49 
  1871.87,1365.51 1873.92,1365.54 1875.98,1365.56 1878.03,1365.58 1880.08,1365.6 1882.13,1365.63 1884.18,1365.65 1886.24,1365.67 1888.29,1365.69 1890.34,1365.71 
  1892.39,1365.73 1894.45,1365.75 1896.5,1365.77 1898.55,1365.79 1900.6,1365.81 1902.66,1365.83 1904.71,1365.85 1906.76,1365.87 1908.81,1365.89 1910.86,1365.91 
  1912.92,1365.93 1914.97,1365.95 1917.02,1365.97 1919.07,1365.99 1921.13,1366.01 1923.18,1366.02 1925.23,1366.04 1927.28,1366.06 1929.33,1366.08 1931.39,1366.1 
  1933.44,1366.11 1935.49,1366.13 1937.54,1366.15 1939.6,1366.17 1941.65,1366.18 1943.7,1366.2 1945.75,1366.22 1947.81,1366.23 1949.86,1366.25 1951.91,1366.27 
  1953.96,1366.28 1956.01,1366.3 1958.07,1366.32 1960.12,1366.33 1962.17,1366.35 1964.22,1366.36 1966.28,1366.38 1968.33,1366.4 1970.38,1366.41 1972.43,1366.43 
  1974.49,1366.44 1976.54,1366.46 1978.59,1366.47 1980.64,1366.49 1982.69,1366.5 1984.75,1366.52 1986.8,1366.53 1988.85,1366.54 1990.9,1366.56 1992.96,1366.57 
  1995.01,1366.59 1997.06,1366.6 1999.11,1366.62 2001.16,1366.63 2003.22,1366.64 2005.27,1366.66 2007.32,1366.67 2009.37,1366.68 2011.43,1366.7 2013.48,1366.71 
  2015.53,1366.72 2017.58,1366.74 2019.64,1366.75 2021.69,1366.76 2023.74,1366.77 2025.79,1366.79 2027.84,1366.8 2029.9,1366.81 2031.95,1366.82 2034,1366.84 
  2036.05,1366.85 2038.11,1366.86 2040.16,1366.87 2042.21,1366.89 2044.26,1366.9 2046.32,1366.91 2048.37,1366.92 2050.42,1366.93 2052.47,1366.94 2054.52,1366.96 
  2056.58,1366.97 2058.63,1366.98 2060.68,1366.99 2062.73,1367 2064.79,1367.01 2066.84,1367.02 2068.89,1367.03 2070.94,1367.04 2072.99,1367.05 2075.05,1367.07 
  2077.1,1367.08 2079.15,1367.09 2081.2,1367.1 2083.26,1367.11 2085.31,1367.12 2087.36,1367.13 2089.41,1367.14 2091.47,1367.15 2093.52,1367.16 2095.57,1367.17 
  2097.62,1367.18 2099.67,1367.19 2101.73,1367.2 2103.78,1367.21 2105.83,1367.22 2107.88,1367.23 2109.94,1367.24 2111.99,1367.25 2114.04,1367.26 2116.09,1367.27 
  2118.15,1367.27 2120.2,1367.28 2122.25,1367.29 2124.3,1367.3 2126.35,1367.31 2128.41,1367.32 2130.46,1367.33 2132.51,1367.34 2134.56,1367.35 2136.62,1367.36 
  2138.67,1367.36 2140.72,1367.37 2142.77,1367.38 2144.82,1367.39 2146.88,1367.4 2148.93,1367.41 2150.98,1367.42 2153.03,1367.42 2155.09,1367.43 2157.14,1367.44 
  2159.19,1367.45 2161.24,1367.46 2163.3,1367.47 2165.35,1367.47 2167.4,1367.48 2169.45,1367.49 2171.5,1367.5 2173.56,1367.5 2175.61,1367.51 2177.66,1367.52 
  2179.71,1367.53 2181.77,1367.54 2183.82,1367.54 2185.87,1367.55 2187.92,1367.56 2189.98,1367.57 2192.03,1367.57 2194.08,1367.58 2196.13,1367.59 2198.18,1367.6 
  2200.24,1367.6 2202.29,1367.61 2204.34,1367.62 2206.39,1367.62 2208.45,1367.63 2210.5,1367.64 2212.55,1367.65 2214.6,1367.65 2216.65,1367.66 2218.71,1367.67 
  2220.76,1367.67 2222.81,1367.68 2224.86,1367.69 2226.92,1367.69 2228.97,1367.7 2231.02,1367.71 2233.07,1367.71 2235.13,1367.72 2237.18,1367.73 2239.23,1367.73 
  2241.28,1367.74 2243.33,1367.75 2245.39,1367.75 2247.44,1367.76 2249.49,1367.76 2251.54,1367.77 2253.6,1367.78 2255.65,1367.78 2257.7,1367.79 2259.75,1367.8 
  
  "/>
<circle clip-path="url(#clip0703)" style="fill:#000000; stroke:none; fill-opacity:1" cx="209.52" cy="1367.8" r="18"/>
<circle clip-path="url(#clip0703)" style="fill:#e26f46; stroke:none; fill-opacity:1" cx="209.52" cy="1367.8" r="14"/>
<circle clip-path="url(#clip0703)" style="fill:#000000; stroke:none; fill-opacity:1" cx="323.422" cy="1367.39" r="18"/>
<circle clip-path="url(#clip0703)" style="fill:#e26f46; stroke:none; fill-opacity:1" cx="323.422" cy="1367.39" r="14"/>
<circle clip-path="url(#clip0703)" style="fill:#000000; stroke:none; fill-opacity:1" cx="437.324" cy="1366.82" r="18"/>
<circle clip-path="url(#clip0703)" style="fill:#e26f46; stroke:none; fill-opacity:1" cx="437.324" cy="1366.82" r="14"/>
<circle clip-path="url(#clip0703)" style="fill:#000000; stroke:none; fill-opacity:1" cx="551.225" cy="1365.98" r="18"/>
<circle clip-path="url(#clip0703)" style="fill:#e26f46; stroke:none; fill-opacity:1" cx="551.225" cy="1365.98" r="14"/>
<circle clip-path="url(#clip0703)" style="fill:#000000; stroke:none; fill-opacity:1" cx="665.127" cy="1364.65" r="18"/>
<circle clip-path="url(#clip0703)" style="fill:#e26f46; stroke:none; fill-opacity:1" cx="665.127" cy="1364.65" r="14"/>
<circle clip-path="url(#clip0703)" style="fill:#000000; stroke:none; fill-opacity:1" cx="779.029" cy="1362.44" r="18"/>
<circle clip-path="url(#clip0703)" style="fill:#e26f46; stroke:none; fill-opacity:1" cx="779.029" cy="1362.44" r="14"/>
<circle clip-path="url(#clip0703)" style="fill:#000000; stroke:none; fill-opacity:1" cx="892.931" cy="1358.47" r="18"/>
<circle clip-path="url(#clip0703)" style="fill:#e26f46; stroke:none; fill-opacity:1" cx="892.931" cy="1358.47" r="14"/>
<circle clip-path="url(#clip0703)" style="fill:#000000; stroke:none; fill-opacity:1" cx="1006.83" cy="1350.94" r="18"/>
<circle clip-path="url(#clip0703)" style="fill:#e26f46; stroke:none; fill-opacity:1" cx="1006.83" cy="1350.94" r="14"/>
<circle clip-path="url(#clip0703)" style="fill:#000000; stroke:none; fill-opacity:1" cx="1120.73" cy="1337.89" r="18"/>
<circle clip-path="url(#clip0703)" style="fill:#e26f46; stroke:none; fill-opacity:1" cx="1120.73" cy="1337.89" r="14"/>
<circle clip-path="url(#clip0703)" style="fill:#000000; stroke:none; fill-opacity:1" cx="1234.64" cy="1328.17" r="18"/>
<circle clip-path="url(#clip0703)" style="fill:#e26f46; stroke:none; fill-opacity:1" cx="1234.64" cy="1328.17" r="14"/>
<circle clip-path="url(#clip0703)" style="fill:#000000; stroke:none; fill-opacity:1" cx="1348.54" cy="1337.89" r="18"/>
<circle clip-path="url(#clip0703)" style="fill:#e26f46; stroke:none; fill-opacity:1" cx="1348.54" cy="1337.89" r="14"/>
<circle clip-path="url(#clip0703)" style="fill:#000000; stroke:none; fill-opacity:1" cx="1462.44" cy="1350.94" r="18"/>
<circle clip-path="url(#clip0703)" style="fill:#e26f46; stroke:none; fill-opacity:1" cx="1462.44" cy="1350.94" r="14"/>
<circle clip-path="url(#clip0703)" style="fill:#000000; stroke:none; fill-opacity:1" cx="1576.34" cy="1358.47" r="18"/>
<circle clip-path="url(#clip0703)" style="fill:#e26f46; stroke:none; fill-opacity:1" cx="1576.34" cy="1358.47" r="14"/>
<circle clip-path="url(#clip0703)" style="fill:#000000; stroke:none; fill-opacity:1" cx="1690.24" cy="1362.44" r="18"/>
<circle clip-path="url(#clip0703)" style="fill:#e26f46; stroke:none; fill-opacity:1" cx="1690.24" cy="1362.44" r="14"/>
<circle clip-path="url(#clip0703)" style="fill:#000000; stroke:none; fill-opacity:1" cx="1804.15" cy="1364.65" r="18"/>
<circle clip-path="url(#clip0703)" style="fill:#e26f46; stroke:none; fill-opacity:1" cx="1804.15" cy="1364.65" r="14"/>
<circle clip-path="url(#clip0703)" style="fill:#000000; stroke:none; fill-opacity:1" cx="1918.05" cy="1365.98" r="18"/>
<circle clip-path="url(#clip0703)" style="fill:#e26f46; stroke:none; fill-opacity:1" cx="1918.05" cy="1365.98" r="14"/>
<circle clip-path="url(#clip0703)" style="fill:#000000; stroke:none; fill-opacity:1" cx="2031.95" cy="1366.82" r="18"/>
<circle clip-path="url(#clip0703)" style="fill:#e26f46; stroke:none; fill-opacity:1" cx="2031.95" cy="1366.82" r="14"/>
<circle clip-path="url(#clip0703)" style="fill:#000000; stroke:none; fill-opacity:1" cx="2145.85" cy="1367.39" r="18"/>
<circle clip-path="url(#clip0703)" style="fill:#e26f46; stroke:none; fill-opacity:1" cx="2145.85" cy="1367.39" r="14"/>
<circle clip-path="url(#clip0703)" style="fill:#000000; stroke:none; fill-opacity:1" cx="2259.75" cy="1367.8" r="18"/>
<circle clip-path="url(#clip0703)" style="fill:#e26f46; stroke:none; fill-opacity:1" cx="2259.75" cy="1367.8" r="14"/>
<polyline clip-path="url(#clip0703)" style="stroke:#3da44d; stroke-width:4; stroke-opacity:1; fill:none" points="
  209.52,1367.8 211.572,1166.29 213.624,988.981 215.677,833.976 217.729,699.502 219.781,583.895 221.834,485.593 223.886,403.133 225.938,335.144 227.99,280.346 
  230.043,237.539 232.095,205.607 234.147,183.505 236.2,170.261 238.252,164.97 240.304,166.79 242.356,174.939 244.409,188.693 246.461,207.38 248.513,230.379 
  250.566,257.116 252.618,287.063 254.67,319.732 256.722,354.676 258.775,391.485 260.827,429.784 262.879,469.231 264.932,509.513 266.984,550.349 269.036,591.481 
  271.088,632.678 273.141,673.734 275.193,714.462 277.245,754.698 279.298,794.294 281.35,833.123 283.402,871.071 285.454,908.043 287.507,943.954 289.559,978.734 
  291.611,1012.32 293.664,1044.68 295.716,1075.76 297.768,1105.54 299.82,1134 301.873,1161.12 303.925,1186.91 305.977,1211.36 308.03,1234.48 310.082,1256.28 
  312.134,1276.78 314.186,1296.01 316.239,1313.97 318.291,1330.71 320.343,1346.25 322.396,1360.63 324.448,1373.88 326.5,1386.04 328.552,1397.14 330.605,1407.22 
  332.657,1416.33 334.709,1424.51 336.762,1431.79 338.814,1438.21 340.866,1443.83 342.918,1448.67 344.971,1452.79 347.023,1456.22 349.075,1458.99 351.128,1461.16 
  353.18,1462.76 355.232,1463.82 357.284,1464.39 359.337,1464.49 361.389,1464.17 363.441,1463.45 365.494,1462.38 367.546,1460.97 369.598,1459.27 371.65,1457.3 
  373.703,1455.09 375.755,1452.66 377.807,1450.05 379.86,1447.27 381.912,1444.35 383.964,1441.31 386.016,1438.17 388.069,1434.95 390.121,1431.67 392.173,1428.35 
  394.226,1425 396.278,1421.64 398.33,1418.28 400.382,1414.93 402.435,1411.61 404.487,1408.33 406.539,1405.1 408.592,1401.93 410.644,1398.82 412.696,1395.78 
  414.748,1392.82 416.801,1389.95 418.853,1387.17 420.905,1384.49 422.958,1381.91 425.01,1379.43 427.062,1377.05 429.114,1374.79 431.167,1372.63 433.219,1370.58 
  435.271,1368.65 437.324,1366.82 439.376,1365.11 441.428,1363.51 443.48,1362.01 445.533,1360.63 447.585,1359.35 449.637,1358.18 451.69,1357.1 453.742,1356.13 
  455.794,1355.26 457.846,1354.48 459.899,1353.79 461.951,1353.19 464.003,1352.68 466.056,1352.25 468.108,1351.89 470.16,1351.62 472.212,1351.41 474.265,1351.28 
  476.317,1351.2 478.369,1351.19 480.422,1351.24 482.474,1351.34 484.526,1351.5 486.578,1351.7 488.631,1351.94 490.683,1352.22 492.735,1352.54 494.788,1352.9 
  496.84,1353.28 498.892,1353.7 500.944,1354.13 502.997,1354.59 505.049,1355.07 507.101,1355.56 509.154,1356.07 511.206,1356.58 513.258,1357.11 515.31,1357.64 
  517.363,1358.17 519.415,1358.71 521.467,1359.24 523.52,1359.78 525.572,1360.3 527.624,1360.83 529.676,1361.34 531.729,1361.85 533.781,1362.34 535.833,1362.82 
  537.886,1363.29 539.938,1363.75 541.99,1364.19 544.042,1364.62 546.095,1365.03 548.147,1365.42 550.199,1365.8 552.252,1366.15 554.304,1366.49 556.356,1366.81 
  558.408,1367.11 560.461,1367.39 562.513,1367.66 564.565,1367.9 566.617,1368.12 568.67,1368.32 570.722,1368.51 572.774,1368.67 574.827,1368.82 576.879,1368.95 
  578.931,1369.06 580.983,1369.15 583.036,1369.22 585.088,1369.28 587.14,1369.32 589.193,1369.35 591.245,1369.36 593.297,1369.35 595.349,1369.33 597.402,1369.3 
  599.454,1369.26 601.506,1369.2 603.559,1369.13 605.611,1369.05 607.663,1368.96 609.715,1368.86 611.768,1368.75 613.82,1368.63 615.872,1368.5 617.925,1368.37 
  619.977,1368.23 622.029,1368.08 624.081,1367.93 626.134,1367.78 628.186,1367.62 630.238,1367.46 632.291,1367.29 634.343,1367.12 636.395,1366.95 638.447,1366.78 
  640.5,1366.61 642.552,1366.44 644.604,1366.27 646.657,1366.1 648.709,1365.93 650.761,1365.76 652.813,1365.59 654.866,1365.43 656.918,1365.27 658.97,1365.11 
  661.023,1364.95 663.075,1364.8 665.127,1364.65 667.179,1364.51 669.232,1364.37 671.284,1364.23 673.336,1364.1 675.389,1363.97 677.441,1363.85 679.493,1363.74 
  681.545,1363.62 683.598,1363.52 685.65,1363.42 687.702,1363.32 689.755,1363.23 691.807,1363.14 693.859,1363.06 695.911,1362.98 697.964,1362.91 700.016,1362.85 
  702.068,1362.79 704.121,1362.73 706.173,1362.68 708.225,1362.63 710.277,1362.59 712.33,1362.55 714.382,1362.51 716.434,1362.48 718.487,1362.45 720.539,1362.43 
  722.591,1362.41 724.643,1362.39 726.696,1362.38 728.748,1362.37 730.8,1362.36 732.853,1362.35 734.905,1362.35 736.957,1362.35 739.009,1362.35 741.062,1362.35 
  743.114,1362.36 745.166,1362.36 747.219,1362.37 749.271,1362.37 751.323,1362.38 753.375,1362.39 755.428,1362.39 757.48,1362.4 759.532,1362.41 761.585,1362.42 
  763.637,1362.42 765.689,1362.43 767.741,1362.44 769.794,1362.44 771.846,1362.44 773.898,1362.44 775.951,1362.44 778.003,1362.44 780.055,1362.44 782.107,1362.43 
  784.16,1362.43 786.212,1362.42 788.264,1362.41 790.317,1362.39 792.369,1362.38 794.421,1362.36 796.473,1362.34 798.526,1362.31 800.578,1362.28 802.63,1362.26 
  804.683,1362.22 806.735,1362.19 808.787,1362.15 810.839,1362.11 812.892,1362.07 814.944,1362.02 816.996,1361.97 819.049,1361.92 821.101,1361.86 823.153,1361.8 
  825.205,1361.74 827.258,1361.68 829.31,1361.61 831.362,1361.54 833.415,1361.47 835.467,1361.4 837.519,1361.32 839.571,1361.24 841.624,1361.16 843.676,1361.07 
  845.728,1360.98 847.781,1360.89 849.833,1360.8 851.885,1360.71 853.937,1360.61 855.99,1360.51 858.042,1360.41 860.094,1360.31 862.147,1360.2 864.199,1360.1 
  866.251,1359.99 868.303,1359.88 870.356,1359.77 872.408,1359.66 874.46,1359.54 876.513,1359.43 878.565,1359.31 880.617,1359.2 882.669,1359.08 884.722,1358.96 
  886.774,1358.84 888.826,1358.72 890.879,1358.59 892.931,1358.47 894.983,1358.35 897.035,1358.23 899.088,1358.1 901.14,1357.98 903.192,1357.85 905.245,1357.73 
  907.297,1357.6 909.349,1357.47 911.401,1357.35 913.454,1357.22 915.506,1357.09 917.558,1356.97 919.611,1356.84 921.663,1356.71 923.715,1356.58 925.767,1356.46 
  927.82,1356.33 929.872,1356.2 931.924,1356.07 933.977,1355.94 936.029,1355.81 938.081,1355.68 940.133,1355.56 942.186,1355.43 944.238,1355.3 946.29,1355.17 
  948.343,1355.04 950.395,1354.91 952.447,1354.77 954.499,1354.64 956.552,1354.51 958.604,1354.38 960.656,1354.24 962.709,1354.11 964.761,1353.98 966.813,1353.84 
  968.865,1353.7 970.918,1353.57 972.97,1353.43 975.022,1353.29 977.075,1353.15 979.127,1353.01 981.179,1352.86 983.231,1352.72 985.284,1352.57 987.336,1352.43 
  989.388,1352.28 991.441,1352.13 993.493,1351.97 995.545,1351.82 997.597,1351.66 999.65,1351.51 1001.7,1351.35 1003.75,1351.19 1005.81,1351.02 1007.86,1350.86 
  1009.91,1350.69 1011.96,1350.52 1014.02,1350.34 1016.07,1350.17 1018.12,1349.99 1020.17,1349.81 1022.22,1349.63 1024.28,1349.44 1026.33,1349.25 1028.38,1349.06 
  1030.43,1348.87 1032.49,1348.67 1034.54,1348.47 1036.59,1348.27 1038.64,1348.06 1040.7,1347.85 1042.75,1347.64 1044.8,1347.43 1046.85,1347.21 1048.9,1346.99 
  1050.96,1346.77 1053.01,1346.54 1055.06,1346.31 1057.11,1346.08 1059.17,1345.85 1061.22,1345.61 1063.27,1345.37 1065.32,1345.13 1067.38,1344.89 1069.43,1344.64 
  1071.48,1344.39 1073.53,1344.14 1075.58,1343.88 1077.64,1343.63 1079.69,1343.37 1081.74,1343.11 1083.79,1342.84 1085.85,1342.58 1087.9,1342.31 1089.95,1342.04 
  1092,1341.77 1094.05,1341.5 1096.11,1341.23 1098.16,1340.95 1100.21,1340.68 1102.26,1340.4 1104.32,1340.12 1106.37,1339.84 1108.42,1339.57 1110.47,1339.29 
  1112.53,1339.01 1114.58,1338.73 1116.63,1338.45 1118.68,1338.17 1120.73,1337.89 1122.79,1337.61 1124.84,1337.33 1126.89,1337.06 1128.94,1336.78 1131,1336.51 
  1133.05,1336.24 1135.1,1335.96 1137.15,1335.7 1139.21,1335.43 1141.26,1335.16 1143.31,1334.9 1145.36,1334.64 1147.41,1334.38 1149.47,1334.13 1151.52,1333.88 
  1153.57,1333.63 1155.62,1333.38 1157.68,1333.14 1159.73,1332.9 1161.78,1332.67 1163.83,1332.44 1165.88,1332.22 1167.94,1332 1169.99,1331.78 1172.04,1331.57 
  1174.09,1331.36 1176.15,1331.16 1178.2,1330.97 1180.25,1330.78 1182.3,1330.59 1184.36,1330.42 1186.41,1330.24 1188.46,1330.08 1190.51,1329.92 1192.56,1329.76 
  1194.62,1329.61 1196.67,1329.47 1198.72,1329.34 1200.77,1329.21 1202.83,1329.09 1204.88,1328.98 1206.93,1328.87 1208.98,1328.77 1211.04,1328.68 1213.09,1328.6 
  1215.14,1328.52 1217.19,1328.45 1219.24,1328.39 1221.3,1328.34 1223.35,1328.29 1225.4,1328.25 1227.45,1328.22 1229.51,1328.2 1231.56,1328.18 1233.61,1328.17 
  1235.66,1328.17 1237.71,1328.18 1239.77,1328.2 1241.82,1328.22 1243.87,1328.25 1245.92,1328.29 1247.98,1328.34 1250.03,1328.39 1252.08,1328.45 1254.13,1328.52 
  1256.19,1328.6 1258.24,1328.68 1260.29,1328.77 1262.34,1328.87 1264.39,1328.98 1266.45,1329.09 1268.5,1329.21 1270.55,1329.34 1272.6,1329.47 1274.66,1329.61 
  1276.71,1329.76 1278.76,1329.92 1280.81,1330.08 1282.87,1330.24 1284.92,1330.42 1286.97,1330.59 1289.02,1330.78 1291.07,1330.97 1293.13,1331.16 1295.18,1331.36 
  1297.23,1331.57 1299.28,1331.78 1301.34,1332 1303.39,1332.22 1305.44,1332.44 1307.49,1332.67 1309.54,1332.9 1311.6,1333.14 1313.65,1333.38 1315.7,1333.63 
  1317.75,1333.88 1319.81,1334.13 1321.86,1334.38 1323.91,1334.64 1325.96,1334.9 1328.02,1335.16 1330.07,1335.43 1332.12,1335.7 1334.17,1335.96 1336.22,1336.24 
  1338.28,1336.51 1340.33,1336.78 1342.38,1337.06 1344.43,1337.33 1346.49,1337.61 1348.54,1337.89 1350.59,1338.17 1352.64,1338.45 1354.7,1338.73 1356.75,1339.01 
  1358.8,1339.29 1360.85,1339.57 1362.9,1339.84 1364.96,1340.12 1367.01,1340.4 1369.06,1340.68 1371.11,1340.95 1373.17,1341.23 1375.22,1341.5 1377.27,1341.77 
  1379.32,1342.04 1381.37,1342.31 1383.43,1342.58 1385.48,1342.84 1387.53,1343.11 1389.58,1343.37 1391.64,1343.63 1393.69,1343.88 1395.74,1344.14 1397.79,1344.39 
  1399.85,1344.64 1401.9,1344.89 1403.95,1345.13 1406,1345.37 1408.05,1345.61 1410.11,1345.85 1412.16,1346.08 1414.21,1346.31 1416.26,1346.54 1418.32,1346.77 
  1420.37,1346.99 1422.42,1347.21 1424.47,1347.43 1426.53,1347.64 1428.58,1347.85 1430.63,1348.06 1432.68,1348.27 1434.73,1348.47 1436.79,1348.67 1438.84,1348.87 
  1440.89,1349.06 1442.94,1349.25 1445,1349.44 1447.05,1349.63 1449.1,1349.81 1451.15,1349.99 1453.2,1350.17 1455.26,1350.34 1457.31,1350.52 1459.36,1350.69 
  1461.41,1350.86 1463.47,1351.02 1465.52,1351.19 1467.57,1351.35 1469.62,1351.51 1471.68,1351.66 1473.73,1351.82 1475.78,1351.97 1477.83,1352.13 1479.88,1352.28 
  1481.94,1352.43 1483.99,1352.57 1486.04,1352.72 1488.09,1352.86 1490.15,1353.01 1492.2,1353.15 1494.25,1353.29 1496.3,1353.43 1498.36,1353.57 1500.41,1353.7 
  1502.46,1353.84 1504.51,1353.98 1506.56,1354.11 1508.62,1354.24 1510.67,1354.38 1512.72,1354.51 1514.77,1354.64 1516.83,1354.77 1518.88,1354.91 1520.93,1355.04 
  1522.98,1355.17 1525.03,1355.3 1527.09,1355.43 1529.14,1355.56 1531.19,1355.68 1533.24,1355.81 1535.3,1355.94 1537.35,1356.07 1539.4,1356.2 1541.45,1356.33 
  1543.51,1356.46 1545.56,1356.58 1547.61,1356.71 1549.66,1356.84 1551.71,1356.97 1553.77,1357.09 1555.82,1357.22 1557.87,1357.35 1559.92,1357.47 1561.98,1357.6 
  1564.03,1357.73 1566.08,1357.85 1568.13,1357.98 1570.18,1358.1 1572.24,1358.23 1574.29,1358.35 1576.34,1358.47 1578.39,1358.59 1580.45,1358.72 1582.5,1358.84 
  1584.55,1358.96 1586.6,1359.08 1588.66,1359.2 1590.71,1359.31 1592.76,1359.43 1594.81,1359.54 1596.86,1359.66 1598.92,1359.77 1600.97,1359.88 1603.02,1359.99 
  1605.07,1360.1 1607.13,1360.2 1609.18,1360.31 1611.23,1360.41 1613.28,1360.51 1615.34,1360.61 1617.39,1360.71 1619.44,1360.8 1621.49,1360.89 1623.54,1360.98 
  1625.6,1361.07 1627.65,1361.16 1629.7,1361.24 1631.75,1361.32 1633.81,1361.4 1635.86,1361.47 1637.91,1361.54 1639.96,1361.61 1642.01,1361.68 1644.07,1361.74 
  1646.12,1361.8 1648.17,1361.86 1650.22,1361.92 1652.28,1361.97 1654.33,1362.02 1656.38,1362.07 1658.43,1362.11 1660.49,1362.15 1662.54,1362.19 1664.59,1362.22 
  1666.64,1362.26 1668.69,1362.28 1670.75,1362.31 1672.8,1362.34 1674.85,1362.36 1676.9,1362.38 1678.96,1362.39 1681.01,1362.41 1683.06,1362.42 1685.11,1362.43 
  1687.17,1362.43 1689.22,1362.44 1691.27,1362.44 1693.32,1362.44 1695.37,1362.44 1697.43,1362.44 1699.48,1362.44 1701.53,1362.44 1703.58,1362.43 1705.64,1362.42 
  1707.69,1362.42 1709.74,1362.41 1711.79,1362.4 1713.84,1362.39 1715.9,1362.39 1717.95,1362.38 1720,1362.37 1722.05,1362.37 1724.11,1362.36 1726.16,1362.36 
  1728.21,1362.35 1730.26,1362.35 1732.32,1362.35 1734.37,1362.35 1736.42,1362.35 1738.47,1362.36 1740.52,1362.37 1742.58,1362.38 1744.63,1362.39 1746.68,1362.41 
  1748.73,1362.43 1750.79,1362.45 1752.84,1362.48 1754.89,1362.51 1756.94,1362.55 1759,1362.59 1761.05,1362.63 1763.1,1362.68 1765.15,1362.73 1767.2,1362.79 
  1769.26,1362.85 1771.31,1362.91 1773.36,1362.98 1775.41,1363.06 1777.47,1363.14 1779.52,1363.23 1781.57,1363.32 1783.62,1363.42 1785.67,1363.52 1787.73,1363.62 
  1789.78,1363.74 1791.83,1363.85 1793.88,1363.97 1795.94,1364.1 1797.99,1364.23 1800.04,1364.37 1802.09,1364.51 1804.15,1364.65 1806.2,1364.8 1808.25,1364.95 
  1810.3,1365.11 1812.35,1365.27 1814.41,1365.43 1816.46,1365.59 1818.51,1365.76 1820.56,1365.93 1822.62,1366.1 1824.67,1366.27 1826.72,1366.44 1828.77,1366.61 
  1830.83,1366.78 1832.88,1366.95 1834.93,1367.12 1836.98,1367.29 1839.03,1367.46 1841.09,1367.62 1843.14,1367.78 1845.19,1367.93 1847.24,1368.08 1849.3,1368.23 
  1851.35,1368.37 1853.4,1368.5 1855.45,1368.63 1857.5,1368.75 1859.56,1368.86 1861.61,1368.96 1863.66,1369.05 1865.71,1369.13 1867.77,1369.2 1869.82,1369.26 
  1871.87,1369.3 1873.92,1369.33 1875.98,1369.35 1878.03,1369.36 1880.08,1369.35 1882.13,1369.32 1884.18,1369.28 1886.24,1369.22 1888.29,1369.15 1890.34,1369.06 
  1892.39,1368.95 1894.45,1368.82 1896.5,1368.67 1898.55,1368.51 1900.6,1368.32 1902.66,1368.12 1904.71,1367.9 1906.76,1367.66 1908.81,1367.39 1910.86,1367.11 
  1912.92,1366.81 1914.97,1366.49 1917.02,1366.15 1919.07,1365.8 1921.13,1365.42 1923.18,1365.03 1925.23,1364.62 1927.28,1364.19 1929.33,1363.75 1931.39,1363.29 
  1933.44,1362.82 1935.49,1362.34 1937.54,1361.85 1939.6,1361.34 1941.65,1360.83 1943.7,1360.3 1945.75,1359.78 1947.81,1359.24 1949.86,1358.71 1951.91,1358.17 
  1953.96,1357.64 1956.01,1357.11 1958.07,1356.58 1960.12,1356.07 1962.17,1355.56 1964.22,1355.07 1966.28,1354.59 1968.33,1354.13 1970.38,1353.7 1972.43,1353.28 
  1974.49,1352.9 1976.54,1352.54 1978.59,1352.22 1980.64,1351.94 1982.69,1351.7 1984.75,1351.5 1986.8,1351.34 1988.85,1351.24 1990.9,1351.19 1992.96,1351.2 
  1995.01,1351.28 1997.06,1351.41 1999.11,1351.62 2001.16,1351.89 2003.22,1352.25 2005.27,1352.68 2007.32,1353.19 2009.37,1353.79 2011.43,1354.48 2013.48,1355.26 
  2015.53,1356.13 2017.58,1357.1 2019.64,1358.18 2021.69,1359.35 2023.74,1360.63 2025.79,1362.01 2027.84,1363.51 2029.9,1365.11 2031.95,1366.82 2034,1368.65 
  2036.05,1370.58 2038.11,1372.63 2040.16,1374.79 2042.21,1377.05 2044.26,1379.43 2046.32,1381.91 2048.37,1384.49 2050.42,1387.17 2052.47,1389.95 2054.52,1392.82 
  2056.58,1395.78 2058.63,1398.82 2060.68,1401.93 2062.73,1405.1 2064.79,1408.33 2066.84,1411.61 2068.89,1414.93 2070.94,1418.28 2072.99,1421.64 2075.05,1425 
  2077.1,1428.35 2079.15,1431.67 2081.2,1434.95 2083.26,1438.17 2085.31,1441.31 2087.36,1444.35 2089.41,1447.27 2091.47,1450.05 2093.52,1452.66 2095.57,1455.09 
  2097.62,1457.3 2099.67,1459.27 2101.73,1460.97 2103.78,1462.38 2105.83,1463.45 2107.88,1464.17 2109.94,1464.49 2111.99,1464.39 2114.04,1463.82 2116.09,1462.76 
  2118.15,1461.16 2120.2,1458.99 2122.25,1456.22 2124.3,1452.79 2126.35,1448.67 2128.41,1443.83 2130.46,1438.21 2132.51,1431.79 2134.56,1424.51 2136.62,1416.33 
  2138.67,1407.22 2140.72,1397.14 2142.77,1386.04 2144.82,1373.88 2146.88,1360.63 2148.93,1346.25 2150.98,1330.71 2153.03,1313.97 2155.09,1296.01 2157.14,1276.78 
  2159.19,1256.28 2161.24,1234.48 2163.3,1211.36 2165.35,1186.91 2167.4,1161.12 2169.45,1134 2171.5,1105.54 2173.56,1075.76 2175.61,1044.68 2177.66,1012.32 
  2179.71,978.734 2181.77,943.954 2183.82,908.043 2185.87,871.071 2187.92,833.123 2189.98,794.294 2192.03,754.698 2194.08,714.462 2196.13,673.734 2198.18,632.678 
  2200.24,591.481 2202.29,550.349 2204.34,509.513 2206.39,469.231 2208.45,429.784 2210.5,391.485 2212.55,354.676 2214.6,319.732 2216.65,287.063 2218.71,257.116 
  2220.76,230.379 2222.81,207.38 2224.86,188.693 2226.92,174.939 2228.97,166.79 2231.02,164.97 2233.07,170.261 2235.13,183.505 2237.18,205.607 2239.23,237.539 
  2241.28,280.346 2243.33,335.144 2245.39,403.133 2247.44,485.593 2249.49,583.895 2251.54,699.502 2253.6,833.976 2255.65,988.981 2257.7,1166.29 2259.75,1367.8 
  
  "/>
<polygon clip-path="url(#clip0701)" points="
1685.51,451.424 2249.26,451.424 2249.26,209.504 1685.51,209.504 
  " fill="#ffffff" fill-rule="evenodd" fill-opacity="1"/>
<polyline clip-path="url(#clip0701)" style="stroke:#000000; stroke-width:4; stroke-opacity:1; fill:none" points="
  1685.51,451.424 2249.26,451.424 2249.26,209.504 1685.51,209.504 1685.51,451.424 
  "/>
<polyline clip-path="url(#clip0701)" style="stroke:#009af9; stroke-width:4; stroke-opacity:1; fill:none" points="
  1709.51,269.984 1853.51,269.984 
  "/>
<g clip-path="url(#clip0701)">
<text style="fill:#000000; fill-opacity:1; font-family:Arial,Helvetica Neue,Helvetica,sans-serif; font-size:48px; text-anchor:start;" transform="rotate(0, 1877.51, 287.484)" x="1877.51" y="287.484">Runge function</text>
</g>
<circle clip-path="url(#clip0701)" style="fill:#000000; stroke:none; fill-opacity:1" cx="1793.51" cy="330.464" r="25"/>
<circle clip-path="url(#clip0701)" style="fill:#e26f46; stroke:none; fill-opacity:1" cx="1793.51" cy="330.464" r="21"/>
<g clip-path="url(#clip0701)">
<text style="fill:#000000; fill-opacity:1; font-family:Arial,Helvetica Neue,Helvetica,sans-serif; font-size:48px; text-anchor:start;" transform="rotate(0, 1877.51, 347.964)" x="1877.51" y="347.964">Nodes</text>
</g>
<polyline clip-path="url(#clip0701)" style="stroke:#3da44d; stroke-width:4; stroke-opacity:1; fill:none" points="
  1709.51,390.944 1853.51,390.944 
  "/>
<g clip-path="url(#clip0701)">
<text style="fill:#000000; fill-opacity:1; font-family:Arial,Helvetica Neue,Helvetica,sans-serif; font-size:48px; text-anchor:start;" transform="rotate(0, 1877.51, 408.444)" x="1877.51" y="408.444">Intepolation</text>
</g>
</svg>
