<?xml version="1.0" encoding="utf-8"?>
<svg xmlns="http://www.w3.org/2000/svg" xmlns:xlink="http://www.w3.org/1999/xlink" width="600" height="400" viewBox="0 0 2400 1600">
<defs>
  <clipPath id="clip7900">
    <rect x="0" y="0" width="2000" height="2000"/>
  </clipPath>
</defs>
<defs>
  <clipPath id="clip7901">
    <rect x="0" y="0" width="2400" height="1600"/>
  </clipPath>
</defs>
<polygon clip-path="url(#clip7901)" points="
0,1600 2400,1600 2400,0 0,0 
  " fill="#ffffff" fill-rule="evenodd" fill-opacity="1"/>
<defs>
  <clipPath id="clip7902">
    <rect x="480" y="0" width="1681" height="1600"/>
  </clipPath>
</defs>
<polygon clip-path="url(#clip7901)" points="
216.266,1503.47 2321.26,1503.47 2321.26,125.984 216.266,125.984 
  " fill="#ffffff" fill-rule="evenodd" fill-opacity="1"/>
<defs>
  <clipPath id="clip7903">
    <rect x="216" y="125" width="2106" height="1378"/>
  </clipPath>
</defs>
<polyline clip-path="url(#clip7903)" style="stroke:#000000; stroke-width:2; stroke-opacity:0.1; fill:none" points="
  275.842,1503.47 275.842,125.984 
  "/>
<polyline clip-path="url(#clip7903)" style="stroke:#000000; stroke-width:2; stroke-opacity:0.1; fill:none" points="
  772.302,1503.47 772.302,125.984 
  "/>
<polyline clip-path="url(#clip7903)" style="stroke:#000000; stroke-width:2; stroke-opacity:0.1; fill:none" points="
  1268.76,1503.47 1268.76,125.984 
  "/>
<polyline clip-path="url(#clip7903)" style="stroke:#000000; stroke-width:2; stroke-opacity:0.1; fill:none" points="
  1765.22,1503.47 1765.22,125.984 
  "/>
<polyline clip-path="url(#clip7903)" style="stroke:#000000; stroke-width:2; stroke-opacity:0.1; fill:none" points="
  2261.68,1503.47 2261.68,125.984 
  "/>
<polyline clip-path="url(#clip7903)" style="stroke:#000000; stroke-width:2; stroke-opacity:0.1; fill:none" points="
  216.266,1342.59 2321.26,1342.59 
  "/>
<polyline clip-path="url(#clip7903)" style="stroke:#000000; stroke-width:2; stroke-opacity:0.1; fill:none" points="
  216.266,1107.07 2321.26,1107.07 
  "/>
<polyline clip-path="url(#clip7903)" style="stroke:#000000; stroke-width:2; stroke-opacity:0.1; fill:none" points="
  216.266,871.543 2321.26,871.543 
  "/>
<polyline clip-path="url(#clip7903)" style="stroke:#000000; stroke-width:2; stroke-opacity:0.1; fill:none" points="
  216.266,636.019 2321.26,636.019 
  "/>
<polyline clip-path="url(#clip7903)" style="stroke:#000000; stroke-width:2; stroke-opacity:0.1; fill:none" points="
  216.266,400.494 2321.26,400.494 
  "/>
<polyline clip-path="url(#clip7903)" style="stroke:#000000; stroke-width:2; stroke-opacity:0.1; fill:none" points="
  216.266,164.97 2321.26,164.97 
  "/>
<polyline clip-path="url(#clip7901)" style="stroke:#000000; stroke-width:4; stroke-opacity:1; fill:none" points="
  216.266,1503.47 2321.26,1503.47 
  "/>
<polyline clip-path="url(#clip7901)" style="stroke:#000000; stroke-width:4; stroke-opacity:1; fill:none" points="
  216.266,1503.47 216.266,125.984 
  "/>
<polyline clip-path="url(#clip7901)" style="stroke:#000000; stroke-width:4; stroke-opacity:1; fill:none" points="
  275.842,1503.47 275.842,1482.81 
  "/>
<polyline clip-path="url(#clip7901)" style="stroke:#000000; stroke-width:4; stroke-opacity:1; fill:none" points="
  772.302,1503.47 772.302,1482.81 
  "/>
<polyline clip-path="url(#clip7901)" style="stroke:#000000; stroke-width:4; stroke-opacity:1; fill:none" points="
  1268.76,1503.47 1268.76,1482.81 
  "/>
<polyline clip-path="url(#clip7901)" style="stroke:#000000; stroke-width:4; stroke-opacity:1; fill:none" points="
  1765.22,1503.47 1765.22,1482.81 
  "/>
<polyline clip-path="url(#clip7901)" style="stroke:#000000; stroke-width:4; stroke-opacity:1; fill:none" points="
  2261.68,1503.47 2261.68,1482.81 
  "/>
<polyline clip-path="url(#clip7901)" style="stroke:#000000; stroke-width:4; stroke-opacity:1; fill:none" points="
  216.266,1342.59 247.841,1342.59 
  "/>
<polyline clip-path="url(#clip7901)" style="stroke:#000000; stroke-width:4; stroke-opacity:1; fill:none" points="
  216.266,1107.07 247.841,1107.07 
  "/>
<polyline clip-path="url(#clip7901)" style="stroke:#000000; stroke-width:4; stroke-opacity:1; fill:none" points="
  216.266,871.543 247.841,871.543 
  "/>
<polyline clip-path="url(#clip7901)" style="stroke:#000000; stroke-width:4; stroke-opacity:1; fill:none" points="
  216.266,636.019 247.841,636.019 
  "/>
<polyline clip-path="url(#clip7901)" style="stroke:#000000; stroke-width:4; stroke-opacity:1; fill:none" points="
  216.266,400.494 247.841,400.494 
  "/>
<polyline clip-path="url(#clip7901)" style="stroke:#000000; stroke-width:4; stroke-opacity:1; fill:none" points="
  216.266,164.97 247.841,164.97 
  "/>
<g clip-path="url(#clip7901)">
<text style="fill:#000000; fill-opacity:1; font-family:Arial,Helvetica Neue,Helvetica,sans-serif; font-size:48px; text-anchor:middle;" transform="rotate(0, 275.842, 1557.47)" x="275.842" y="1557.47">-1.0</text>
</g>
<g clip-path="url(#clip7901)">
<text style="fill:#000000; fill-opacity:1; font-family:Arial,Helvetica Neue,Helvetica,sans-serif; font-size:48px; text-anchor:middle;" transform="rotate(0, 772.302, 1557.47)" x="772.302" y="1557.47">-0.5</text>
</g>
<g clip-path="url(#clip7901)">
<text style="fill:#000000; fill-opacity:1; font-family:Arial,Helvetica Neue,Helvetica,sans-serif; font-size:48px; text-anchor:middle;" transform="rotate(0, 1268.76, 1557.47)" x="1268.76" y="1557.47">0.0</text>
</g>
<g clip-path="url(#clip7901)">
<text style="fill:#000000; fill-opacity:1; font-family:Arial,Helvetica Neue,Helvetica,sans-serif; font-size:48px; text-anchor:middle;" transform="rotate(0, 1765.22, 1557.47)" x="1765.22" y="1557.47">0.5</text>
</g>
<g clip-path="url(#clip7901)">
<text style="fill:#000000; fill-opacity:1; font-family:Arial,Helvetica Neue,Helvetica,sans-serif; font-size:48px; text-anchor:middle;" transform="rotate(0, 2261.68, 1557.47)" x="2261.68" y="1557.47">1.0</text>
</g>
<g clip-path="url(#clip7901)">
<text style="fill:#000000; fill-opacity:1; font-family:Arial,Helvetica Neue,Helvetica,sans-serif; font-size:48px; text-anchor:end;" transform="rotate(0, 192.266, 1360.09)" x="192.266" y="1360.09">-0.25</text>
</g>
<g clip-path="url(#clip7901)">
<text style="fill:#000000; fill-opacity:1; font-family:Arial,Helvetica Neue,Helvetica,sans-serif; font-size:48px; text-anchor:end;" transform="rotate(0, 192.266, 1124.57)" x="192.266" y="1124.57">0.00</text>
</g>
<g clip-path="url(#clip7901)">
<text style="fill:#000000; fill-opacity:1; font-family:Arial,Helvetica Neue,Helvetica,sans-serif; font-size:48px; text-anchor:end;" transform="rotate(0, 192.266, 889.043)" x="192.266" y="889.043">0.25</text>
</g>
<g clip-path="url(#clip7901)">
<text style="fill:#000000; fill-opacity:1; font-family:Arial,Helvetica Neue,Helvetica,sans-serif; font-size:48px; text-anchor:end;" transform="rotate(0, 192.266, 653.519)" x="192.266" y="653.519">0.50</text>
</g>
<g clip-path="url(#clip7901)">
<text style="fill:#000000; fill-opacity:1; font-family:Arial,Helvetica Neue,Helvetica,sans-serif; font-size:48px; text-anchor:end;" transform="rotate(0, 192.266, 417.994)" x="192.266" y="417.994">0.75</text>
</g>
<g clip-path="url(#clip7901)">
<text style="fill:#000000; fill-opacity:1; font-family:Arial,Helvetica Neue,Helvetica,sans-serif; font-size:48px; text-anchor:end;" transform="rotate(0, 192.266, 182.47)" x="192.266" y="182.47">1.00</text>
</g>
<g clip-path="url(#clip7901)">
<text style="fill:#000000; fill-opacity:1; font-family:Arial,Helvetica Neue,Helvetica,sans-serif; font-size:84px; text-anchor:middle;" transform="rotate(0, 1268.76, 73.2)" x="1268.76" y="73.2">Runge&apos;s phenomenon (Nodes = 5)</text>
</g>
<polyline clip-path="url(#clip7903)" style="stroke:#009af9; stroke-width:4; stroke-opacity:1; fill:none" points="
  275.842,1070.83 277.83,1070.69 279.817,1070.55 281.805,1070.41 283.793,1070.27 285.781,1070.13 287.769,1069.98 289.757,1069.84 291.744,1069.69 293.732,1069.54 
  295.72,1069.4 297.708,1069.25 299.696,1069.1 301.684,1068.95 303.671,1068.8 305.659,1068.65 307.647,1068.49 309.635,1068.34 311.623,1068.19 313.611,1068.03 
  315.598,1067.88 317.586,1067.72 319.574,1067.56 321.562,1067.4 323.55,1067.24 325.538,1067.08 327.525,1066.92 329.513,1066.76 331.501,1066.59 333.489,1066.43 
  335.477,1066.26 337.464,1066.09 339.452,1065.93 341.44,1065.76 343.428,1065.59 345.416,1065.42 347.404,1065.25 349.391,1065.07 351.379,1064.9 353.367,1064.72 
  355.355,1064.55 357.343,1064.37 359.331,1064.19 361.318,1064.01 363.306,1063.83 365.294,1063.65 367.282,1063.47 369.27,1063.28 371.258,1063.1 373.245,1062.91 
  375.233,1062.72 377.221,1062.54 379.209,1062.35 381.197,1062.15 383.185,1061.96 385.172,1061.77 387.16,1061.57 389.148,1061.38 391.136,1061.18 393.124,1060.98 
  395.112,1060.78 397.099,1060.58 399.087,1060.38 401.075,1060.18 403.063,1059.97 405.051,1059.77 407.039,1059.56 409.026,1059.35 411.014,1059.14 413.002,1058.93 
  414.99,1058.72 416.978,1058.5 418.966,1058.29 420.953,1058.07 422.941,1057.85 424.929,1057.63 426.917,1057.41 428.905,1057.19 430.893,1056.96 432.88,1056.73 
  434.868,1056.51 436.856,1056.28 438.844,1056.05 440.832,1055.82 442.82,1055.58 444.807,1055.35 446.795,1055.11 448.783,1054.87 450.771,1054.63 452.759,1054.39 
  454.747,1054.15 456.734,1053.9 458.722,1053.66 460.71,1053.41 462.698,1053.16 464.686,1052.91 466.673,1052.65 468.661,1052.4 470.649,1052.14 472.637,1051.88 
  474.625,1051.62 476.613,1051.36 478.6,1051.1 480.588,1050.83 482.576,1050.56 484.564,1050.29 486.552,1050.02 488.54,1049.75 490.527,1049.47 492.515,1049.2 
  494.503,1048.92 496.491,1048.64 498.479,1048.35 500.467,1048.07 502.454,1047.78 504.442,1047.49 506.43,1047.2 508.418,1046.91 510.406,1046.61 512.394,1046.31 
  514.381,1046.01 516.369,1045.71 518.357,1045.41 520.345,1045.1 522.333,1044.79 524.321,1044.48 526.308,1044.17 528.296,1043.85 530.284,1043.54 532.272,1043.22 
  534.26,1042.89 536.248,1042.57 538.235,1042.24 540.223,1041.91 542.211,1041.58 544.199,1041.24 546.187,1040.91 548.175,1040.57 550.162,1040.23 552.15,1039.88 
  554.138,1039.53 556.126,1039.18 558.114,1038.83 560.102,1038.47 562.089,1038.12 564.077,1037.76 566.065,1037.39 568.053,1037.03 570.041,1036.66 572.029,1036.28 
  574.016,1035.91 576.004,1035.53 577.992,1035.15 579.98,1034.77 581.968,1034.38 583.955,1033.99 585.943,1033.6 587.931,1033.2 589.919,1032.8 591.907,1032.4 
  593.895,1031.99 595.882,1031.59 597.87,1031.17 599.858,1030.76 601.846,1030.34 603.834,1029.92 605.822,1029.49 607.809,1029.06 609.797,1028.63 611.785,1028.2 
  613.773,1027.76 615.761,1027.32 617.749,1026.87 619.736,1026.42 621.724,1025.97 623.712,1025.51 625.7,1025.05 627.688,1024.58 629.676,1024.11 631.663,1023.64 
  633.651,1023.16 635.639,1022.68 637.627,1022.2 639.615,1021.71 641.603,1021.22 643.59,1020.72 645.578,1020.22 647.566,1019.72 649.554,1019.21 651.542,1018.69 
  653.53,1018.18 655.517,1017.65 657.505,1017.13 659.493,1016.59 661.481,1016.06 663.469,1015.52 665.457,1014.97 667.444,1014.42 669.432,1013.87 671.42,1013.31 
  673.408,1012.74 675.396,1012.18 677.384,1011.6 679.371,1011.02 681.359,1010.44 683.347,1009.85 685.335,1009.25 687.323,1008.65 689.311,1008.05 691.298,1007.44 
  693.286,1006.82 695.274,1006.2 697.262,1005.57 699.25,1004.94 701.238,1004.3 703.225,1003.66 705.213,1003.01 707.201,1002.35 709.189,1001.69 711.177,1001.02 
  713.164,1000.35 715.152,999.666 717.14,998.98 719.128,998.287 721.116,997.588 723.104,996.882 725.091,996.17 727.079,995.451 729.067,994.726 731.055,993.993 
  733.043,993.254 735.031,992.508 737.018,991.755 739.006,990.995 740.994,990.227 742.982,989.453 744.97,988.671 746.958,987.881 748.945,987.084 750.933,986.28 
  752.921,985.467 754.909,984.647 756.897,983.819 758.885,982.983 760.872,982.139 762.86,981.287 764.848,980.426 766.836,979.557 768.824,978.679 770.812,977.793 
  772.799,976.898 774.787,975.995 776.775,975.082 778.763,974.16 780.751,973.23 782.739,972.29 784.726,971.34 786.714,970.381 788.702,969.413 790.69,968.434 
  792.678,967.446 794.666,966.448 796.653,965.44 798.641,964.421 800.629,963.392 802.617,962.353 804.605,961.303 806.593,960.242 808.58,959.171 810.568,958.088 
  812.556,956.994 814.544,955.889 816.532,954.772 818.52,953.644 820.507,952.504 822.495,951.352 824.483,950.188 826.471,949.012 828.459,947.823 830.446,946.622 
  832.434,945.408 834.422,944.182 836.41,942.942 838.398,941.689 840.386,940.423 842.373,939.143 844.361,937.849 846.349,936.542 848.337,935.22 850.325,933.885 
  852.313,932.534 854.3,931.169 856.288,929.79 858.276,928.395 860.264,926.985 862.252,925.56 864.24,924.119 866.227,922.662 868.215,921.189 870.203,919.7 
  872.191,918.195 874.179,916.672 876.167,915.133 878.154,913.577 880.142,912.003 882.13,910.412 884.118,908.803 886.106,907.176 888.094,905.531 890.081,903.867 
  892.069,902.184 894.057,900.483 896.045,898.762 898.033,897.021 900.021,895.261 902.008,893.481 903.996,891.68 905.984,889.859 907.972,888.017 909.96,886.154 
  911.948,884.269 913.935,882.363 915.923,880.435 917.911,878.484 919.899,876.511 921.887,874.515 923.875,872.496 925.862,870.454 927.85,868.387 929.838,866.297 
  931.826,864.182 933.814,862.043 935.802,859.878 937.789,857.689 939.777,855.473 941.765,853.232 943.753,850.964 945.741,848.669 947.729,846.348 949.716,843.999 
  951.704,841.622 953.692,839.217 955.68,836.784 957.668,834.322 959.655,831.831 961.643,829.311 963.631,826.76 965.619,824.179 967.607,821.568 969.595,818.926 
  971.582,816.252 973.57,813.546 975.558,810.809 977.546,808.039 979.534,805.236 981.522,802.399 983.509,799.529 985.497,796.625 987.485,793.686 989.473,790.713 
  991.461,787.704 993.449,784.66 995.436,781.579 997.424,778.462 999.412,775.308 1001.4,772.117 1003.39,768.888 1005.38,765.622 1007.36,762.316 1009.35,758.972 
  1011.34,755.589 1013.33,752.166 1015.31,748.703 1017.3,745.2 1019.29,741.656 1021.28,738.07 1023.27,734.444 1025.25,730.775 1027.24,727.064 1029.23,723.311 
  1031.22,719.514 1033.21,715.674 1035.19,711.791 1037.18,707.864 1039.17,703.893 1041.16,699.877 1043.14,695.816 1045.13,691.71 1047.12,687.559 1049.11,683.362 
  1051.1,679.119 1053.08,674.83 1055.07,670.495 1057.06,666.113 1059.05,661.685 1061.03,657.21 1063.02,652.688 1065.01,648.119 1067,643.503 1068.99,638.839 
  1070.97,634.129 1072.96,629.371 1074.95,624.566 1076.94,619.714 1078.93,614.815 1080.91,609.869 1082.9,604.877 1084.89,599.838 1086.88,594.752 1088.86,589.621 
  1090.85,584.443 1092.84,579.221 1094.83,573.953 1096.82,568.641 1098.8,563.285 1100.79,557.885 1102.78,552.443 1104.77,546.958 1106.75,541.432 1108.74,535.865 
  1110.73,530.258 1112.72,524.612 1114.71,518.928 1116.69,513.208 1118.68,507.451 1120.67,501.659 1122.66,495.835 1124.65,489.977 1126.63,484.09 1128.62,478.172 
  1130.61,472.228 1132.6,466.257 1134.58,460.261 1136.57,454.243 1138.56,448.205 1140.55,442.147 1142.54,436.073 1144.52,429.985 1146.51,423.884 1148.5,417.774 
  1150.49,411.656 1152.48,405.533 1154.46,399.408 1156.45,393.284 1158.44,387.163 1160.43,381.048 1162.41,374.942 1164.4,368.849 1166.39,362.771 1168.38,356.712 
  1170.37,350.676 1172.35,344.665 1174.34,338.684 1176.33,332.735 1178.32,326.823 1180.3,320.952 1182.29,315.125 1184.28,309.347 1186.27,303.621 1188.26,297.951 
  1190.24,292.342 1192.23,286.798 1194.22,281.323 1196.21,275.921 1198.2,270.597 1200.18,265.355 1202.17,260.2 1204.16,255.135 1206.15,250.166 1208.13,245.297 
  1210.12,240.531 1212.11,235.874 1214.1,231.33 1216.09,226.903 1218.07,222.598 1220.06,218.418 1222.05,214.368 1224.04,210.452 1226.02,206.674 1228.01,203.038 
  1230,199.547 1231.99,196.206 1233.98,193.019 1235.96,189.987 1237.95,187.116 1239.94,184.408 1241.93,181.865 1243.92,179.492 1245.9,177.291 1247.89,175.264 
  1249.88,173.413 1251.87,171.741 1253.85,170.25 1255.84,168.941 1257.83,167.817 1259.82,166.878 1261.81,166.125 1263.79,165.559 1265.78,165.182 1267.77,164.993 
  1269.76,164.993 1271.74,165.182 1273.73,165.559 1275.72,166.125 1277.71,166.878 1279.7,167.817 1281.68,168.941 1283.67,170.25 1285.66,171.741 1287.65,173.413 
  1289.64,175.264 1291.62,177.291 1293.61,179.492 1295.6,181.865 1297.59,184.408 1299.57,187.116 1301.56,189.987 1303.55,193.019 1305.54,196.206 1307.53,199.547 
  1309.51,203.038 1311.5,206.674 1313.49,210.452 1315.48,214.368 1317.47,218.418 1319.45,222.598 1321.44,226.903 1323.43,231.33 1325.42,235.874 1327.4,240.531 
  1329.39,245.297 1331.38,250.166 1333.37,255.135 1335.36,260.2 1337.34,265.355 1339.33,270.597 1341.32,275.921 1343.31,281.323 1345.29,286.798 1347.28,292.342 
  1349.27,297.951 1351.26,303.621 1353.25,309.347 1355.23,315.125 1357.22,320.952 1359.21,326.823 1361.2,332.735 1363.19,338.684 1365.17,344.665 1367.16,350.676 
  1369.15,356.712 1371.14,362.771 1373.12,368.849 1375.11,374.942 1377.1,381.048 1379.09,387.163 1381.08,393.284 1383.06,399.408 1385.05,405.533 1387.04,411.656 
  1389.03,417.774 1391.01,423.884 1393,429.985 1394.99,436.073 1396.98,442.147 1398.97,448.205 1400.95,454.243 1402.94,460.261 1404.93,466.257 1406.92,472.228 
  1408.91,478.172 1410.89,484.09 1412.88,489.977 1414.87,495.835 1416.86,501.659 1418.84,507.451 1420.83,513.208 1422.82,518.928 1424.81,524.612 1426.8,530.258 
  1428.78,535.865 1430.77,541.432 1432.76,546.958 1434.75,552.443 1436.73,557.885 1438.72,563.285 1440.71,568.641 1442.7,573.953 1444.69,579.221 1446.67,584.443 
  1448.66,589.621 1450.65,594.752 1452.64,599.838 1454.63,604.877 1456.61,609.869 1458.6,614.815 1460.59,619.714 1462.58,624.566 1464.56,629.371 1466.55,634.129 
  1468.54,638.839 1470.53,643.503 1472.52,648.119 1474.5,652.688 1476.49,657.21 1478.48,661.685 1480.47,666.113 1482.45,670.495 1484.44,674.83 1486.43,679.119 
  1488.42,683.362 1490.41,687.559 1492.39,691.71 1494.38,695.816 1496.37,699.877 1498.36,703.893 1500.35,707.864 1502.33,711.791 1504.32,715.674 1506.31,719.514 
  1508.3,723.311 1510.28,727.064 1512.27,730.775 1514.26,734.444 1516.25,738.07 1518.24,741.656 1520.22,745.2 1522.21,748.703 1524.2,752.166 1526.19,755.589 
  1528.18,758.972 1530.16,762.316 1532.15,765.622 1534.14,768.888 1536.13,772.117 1538.11,775.308 1540.1,778.462 1542.09,781.579 1544.08,784.66 1546.07,787.704 
  1548.05,790.713 1550.04,793.686 1552.03,796.625 1554.02,799.529 1556,802.399 1557.99,805.236 1559.98,808.039 1561.97,810.809 1563.96,813.546 1565.94,816.252 
  1567.93,818.926 1569.92,821.568 1571.91,824.179 1573.9,826.76 1575.88,829.311 1577.87,831.831 1579.86,834.322 1581.85,836.784 1583.83,839.217 1585.82,841.622 
  1587.81,843.999 1589.8,846.348 1591.79,848.669 1593.77,850.964 1595.76,853.232 1597.75,855.473 1599.74,857.689 1601.72,859.878 1603.71,862.043 1605.7,864.182 
  1607.69,866.297 1609.68,868.387 1611.66,870.454 1613.65,872.496 1615.64,874.515 1617.63,876.511 1619.62,878.484 1621.6,880.435 1623.59,882.363 1625.58,884.269 
  1627.57,886.154 1629.55,888.017 1631.54,889.859 1633.53,891.68 1635.52,893.481 1637.51,895.261 1639.49,897.021 1641.48,898.762 1643.47,900.483 1645.46,902.184 
  1647.44,903.867 1649.43,905.531 1651.42,907.176 1653.41,908.803 1655.4,910.412 1657.38,912.003 1659.37,913.577 1661.36,915.133 1663.35,916.672 1665.34,918.195 
  1667.32,919.7 1669.31,921.189 1671.3,922.662 1673.29,924.119 1675.27,925.56 1677.26,926.985 1679.25,928.395 1681.24,929.79 1683.23,931.169 1685.21,932.534 
  1687.2,933.885 1689.19,935.22 1691.18,936.542 1693.16,937.849 1695.15,939.143 1697.14,940.423 1699.13,941.689 1701.12,942.942 1703.1,944.182 1705.09,945.408 
  1707.08,946.622 1709.07,947.823 1711.06,949.012 1713.04,950.188 1715.03,951.352 1717.02,952.504 1719.01,953.644 1720.99,954.772 1722.98,955.889 1724.97,956.994 
  1726.96,958.088 1728.95,959.171 1730.93,960.242 1732.92,961.303 1734.91,962.353 1736.9,963.392 1738.89,964.421 1740.87,965.44 1742.86,966.448 1744.85,967.446 
  1746.84,968.434 1748.82,969.413 1750.81,970.381 1752.8,971.34 1754.79,972.29 1756.78,973.23 1758.76,974.16 1760.75,975.082 1762.74,975.995 1764.73,976.898 
  1766.71,977.793 1768.7,978.679 1770.69,979.557 1772.68,980.426 1774.67,981.287 1776.65,982.139 1778.64,982.983 1780.63,983.819 1782.62,984.647 1784.61,985.467 
  1786.59,986.28 1788.58,987.084 1790.57,987.881 1792.56,988.671 1794.54,989.453 1796.53,990.227 1798.52,990.995 1800.51,991.755 1802.5,992.508 1804.48,993.254 
  1806.47,993.993 1808.46,994.726 1810.45,995.451 1812.43,996.17 1814.42,996.882 1816.41,997.588 1818.4,998.287 1820.39,998.98 1822.37,999.666 1824.36,1000.35 
  1826.35,1001.02 1828.34,1001.69 1830.33,1002.35 1832.31,1003.01 1834.3,1003.66 1836.29,1004.3 1838.28,1004.94 1840.26,1005.57 1842.25,1006.2 1844.24,1006.82 
  1846.23,1007.44 1848.22,1008.05 1850.2,1008.65 1852.19,1009.25 1854.18,1009.85 1856.17,1010.44 1858.15,1011.02 1860.14,1011.6 1862.13,1012.18 1864.12,1012.74 
  1866.11,1013.31 1868.09,1013.87 1870.08,1014.42 1872.07,1014.97 1874.06,1015.52 1876.05,1016.06 1878.03,1016.59 1880.02,1017.13 1882.01,1017.65 1884,1018.18 
  1885.98,1018.69 1887.97,1019.21 1889.96,1019.72 1891.95,1020.22 1893.94,1020.72 1895.92,1021.22 1897.91,1021.71 1899.9,1022.2 1901.89,1022.68 1903.88,1023.16 
  1905.86,1023.64 1907.85,1024.11 1909.84,1024.58 1911.83,1025.05 1913.81,1025.51 1915.8,1025.97 1917.79,1026.42 1919.78,1026.87 1921.77,1027.32 1923.75,1027.76 
  1925.74,1028.2 1927.73,1028.63 1929.72,1029.06 1931.7,1029.49 1933.69,1029.92 1935.68,1030.34 1937.67,1030.76 1939.66,1031.17 1941.64,1031.59 1943.63,1031.99 
  1945.62,1032.4 1947.61,1032.8 1949.6,1033.2 1951.58,1033.6 1953.57,1033.99 1955.56,1034.38 1957.55,1034.77 1959.53,1035.15 1961.52,1035.53 1963.51,1035.91 
  1965.5,1036.28 1967.49,1036.66 1969.47,1037.03 1971.46,1037.39 1973.45,1037.76 1975.44,1038.12 1977.42,1038.47 1979.41,1038.83 1981.4,1039.18 1983.39,1039.53 
  1985.38,1039.88 1987.36,1040.23 1989.35,1040.57 1991.34,1040.91 1993.33,1041.24 1995.32,1041.58 1997.3,1041.91 1999.29,1042.24 2001.28,1042.57 2003.27,1042.89 
  2005.25,1043.22 2007.24,1043.54 2009.23,1043.85 2011.22,1044.17 2013.21,1044.48 2015.19,1044.79 2017.18,1045.1 2019.17,1045.41 2021.16,1045.71 2023.14,1046.01 
  2025.13,1046.31 2027.12,1046.61 2029.11,1046.91 2031.1,1047.2 2033.08,1047.49 2035.07,1047.78 2037.06,1048.07 2039.05,1048.35 2041.04,1048.64 2043.02,1048.92 
  2045.01,1049.2 2047,1049.47 2048.99,1049.75 2050.97,1050.02 2052.96,1050.29 2054.95,1050.56 2056.94,1050.83 2058.93,1051.1 2060.91,1051.36 2062.9,1051.62 
  2064.89,1051.88 2066.88,1052.14 2068.86,1052.4 2070.85,1052.65 2072.84,1052.91 2074.83,1053.16 2076.82,1053.41 2078.8,1053.66 2080.79,1053.9 2082.78,1054.15 
  2084.77,1054.39 2086.76,1054.63 2088.74,1054.87 2090.73,1055.11 2092.72,1055.35 2094.71,1055.58 2096.69,1055.82 2098.68,1056.05 2100.67,1056.28 2102.66,1056.51 
  2104.65,1056.73 2106.63,1056.96 2108.62,1057.19 2110.61,1057.41 2112.6,1057.63 2114.59,1057.85 2116.57,1058.07 2118.56,1058.29 2120.55,1058.5 2122.54,1058.72 
  2124.52,1058.93 2126.51,1059.14 2128.5,1059.35 2130.49,1059.56 2132.48,1059.77 2134.46,1059.97 2136.45,1060.18 2138.44,1060.38 2140.43,1060.58 2142.41,1060.78 
  2144.4,1060.98 2146.39,1061.18 2148.38,1061.38 2150.37,1061.57 2152.35,1061.77 2154.34,1061.96 2156.33,1062.15 2158.32,1062.35 2160.31,1062.54 2162.29,1062.72 
  2164.28,1062.91 2166.27,1063.1 2168.26,1063.28 2170.24,1063.47 2172.23,1063.65 2174.22,1063.83 2176.21,1064.01 2178.2,1064.19 2180.18,1064.37 2182.17,1064.55 
  2184.16,1064.72 2186.15,1064.9 2188.13,1065.07 2190.12,1065.25 2192.11,1065.42 2194.1,1065.59 2196.09,1065.76 2198.07,1065.93 2200.06,1066.09 2202.05,1066.26 
  2204.04,1066.43 2206.03,1066.59 2208.01,1066.76 2210,1066.92 2211.99,1067.08 2213.98,1067.24 2215.96,1067.4 2217.95,1067.56 2219.94,1067.72 2221.93,1067.88 
  2223.92,1068.03 2225.9,1068.19 2227.89,1068.34 2229.88,1068.49 2231.87,1068.65 2233.85,1068.8 2235.84,1068.95 2237.83,1069.1 2239.82,1069.25 2241.81,1069.4 
  2243.79,1069.54 2245.78,1069.69 2247.77,1069.84 2249.76,1069.98 2251.75,1070.13 2253.73,1070.27 2255.72,1070.41 2257.71,1070.55 2259.7,1070.69 2261.68,1070.83 
  
  "/>
<circle clip-path="url(#clip7903)" style="fill:#000000; stroke:none; fill-opacity:1" cx="275.842" cy="1070.83" r="18"/>
<circle clip-path="url(#clip7903)" style="fill:#e26f46; stroke:none; fill-opacity:1" cx="275.842" cy="1070.83" r="14"/>
<circle clip-path="url(#clip7903)" style="fill:#000000; stroke:none; fill-opacity:1" cx="772.302" cy="977.123" r="18"/>
<circle clip-path="url(#clip7903)" style="fill:#e26f46; stroke:none; fill-opacity:1" cx="772.302" cy="977.123" r="14"/>
<circle clip-path="url(#clip7903)" style="fill:#000000; stroke:none; fill-opacity:1" cx="1268.76" cy="164.97" r="18"/>
<circle clip-path="url(#clip7903)" style="fill:#e26f46; stroke:none; fill-opacity:1" cx="1268.76" cy="164.97" r="14"/>
<circle clip-path="url(#clip7903)" style="fill:#000000; stroke:none; fill-opacity:1" cx="1765.22" cy="977.123" r="18"/>
<circle clip-path="url(#clip7903)" style="fill:#e26f46; stroke:none; fill-opacity:1" cx="1765.22" cy="977.123" r="14"/>
<circle clip-path="url(#clip7903)" style="fill:#000000; stroke:none; fill-opacity:1" cx="2261.68" cy="1070.83" r="18"/>
<circle clip-path="url(#clip7903)" style="fill:#e26f46; stroke:none; fill-opacity:1" cx="2261.68" cy="1070.83" r="14"/>
<polyline clip-path="url(#clip7903)" style="stroke:#3da44d; stroke-width:4; stroke-opacity:1; fill:none" points="
  275.842,1070.83 277.83,1079.65 279.817,1088.36 281.805,1096.95 283.793,1105.42 285.781,1113.77 287.769,1122.01 289.757,1130.14 291.744,1138.15 293.732,1146.05 
  295.72,1153.84 297.708,1161.51 299.696,1169.07 301.684,1176.53 303.671,1183.87 305.659,1191.1 307.647,1198.23 309.635,1205.24 311.623,1212.15 313.611,1218.95 
  315.598,1225.64 317.586,1232.23 319.574,1238.71 321.562,1245.09 323.55,1251.36 325.538,1257.53 327.525,1263.59 329.513,1269.55 331.501,1275.41 333.489,1281.17 
  335.477,1286.83 337.464,1292.39 339.452,1297.85 341.44,1303.2 343.428,1308.46 345.416,1313.62 347.404,1318.69 349.391,1323.65 351.379,1328.52 353.367,1333.3 
  355.355,1337.98 357.343,1342.56 359.331,1347.05 361.318,1351.45 363.306,1355.75 365.294,1359.96 367.282,1364.08 369.27,1368.1 371.258,1372.04 373.245,1375.88 
  375.233,1379.64 377.221,1383.3 379.209,1386.88 381.197,1390.37 383.185,1393.77 385.172,1397.08 387.16,1400.31 389.148,1403.45 391.136,1406.5 393.124,1409.47 
  395.112,1412.36 397.099,1415.16 399.087,1417.88 401.075,1420.51 403.063,1423.07 405.051,1425.54 407.039,1427.93 409.026,1430.24 411.014,1432.46 413.002,1434.61 
  414.99,1436.68 416.978,1438.67 418.966,1440.58 420.953,1442.42 422.941,1444.17 424.929,1445.85 426.917,1447.46 428.905,1448.99 430.893,1450.44 432.88,1451.82 
  434.868,1453.12 436.856,1454.35 438.844,1455.51 440.832,1456.6 442.82,1457.61 444.807,1458.55 446.795,1459.42 448.783,1460.22 450.771,1460.95 452.759,1461.61 
  454.747,1462.2 456.734,1462.72 458.722,1463.17 460.71,1463.56 462.698,1463.88 464.686,1464.13 466.673,1464.31 468.661,1464.43 470.649,1464.49 472.637,1464.48 
  474.625,1464.4 476.613,1464.27 478.6,1464.06 480.588,1463.8 482.576,1463.47 484.564,1463.08 486.552,1462.63 488.54,1462.12 490.527,1461.55 492.515,1460.92 
  494.503,1460.23 496.491,1459.48 498.479,1458.67 500.467,1457.8 502.454,1456.88 504.442,1455.9 506.43,1454.86 508.418,1453.77 510.406,1452.61 512.394,1451.41 
  514.381,1450.15 516.369,1448.83 518.357,1447.46 520.345,1446.04 522.333,1444.57 524.321,1443.04 526.308,1441.46 528.296,1439.83 530.284,1438.14 532.272,1436.41 
  534.26,1434.62 536.248,1432.79 538.235,1430.91 540.223,1428.97 542.211,1426.99 544.199,1424.96 546.187,1422.89 548.175,1420.76 550.162,1418.59 552.15,1416.37 
  554.138,1414.11 556.126,1411.8 558.114,1409.45 560.102,1407.05 562.089,1404.6 564.077,1402.12 566.065,1399.59 568.053,1397.01 570.041,1394.4 572.029,1391.74 
  574.016,1389.04 576.004,1386.3 577.992,1383.52 579.98,1380.69 581.968,1377.83 583.955,1374.93 585.943,1371.99 587.931,1369.01 589.919,1365.99 591.907,1362.94 
  593.895,1359.84 595.882,1356.71 597.87,1353.55 599.858,1350.34 601.846,1347.1 603.834,1343.83 605.822,1340.52 607.809,1337.17 609.797,1333.8 611.785,1330.38 
  613.773,1326.94 615.761,1323.46 617.749,1319.95 619.736,1316.4 621.724,1312.83 623.712,1309.22 625.7,1305.58 627.688,1301.91 629.676,1298.21 631.663,1294.48 
  633.651,1290.72 635.639,1286.93 637.627,1283.12 639.615,1279.27 641.603,1275.4 643.59,1271.5 645.578,1267.57 647.566,1263.61 649.554,1259.63 651.542,1255.62 
  653.53,1251.59 655.517,1247.53 657.505,1243.45 659.493,1239.34 661.481,1235.2 663.469,1231.05 665.457,1226.87 667.444,1222.66 669.432,1218.44 671.42,1214.19 
  673.408,1209.92 675.396,1205.62 677.384,1201.31 679.371,1196.98 681.359,1192.62 683.347,1188.24 685.335,1183.85 687.323,1179.43 689.311,1175 691.298,1170.55 
  693.286,1166.07 695.274,1161.58 697.262,1157.08 699.25,1152.55 701.238,1148.01 703.225,1143.45 705.213,1138.87 707.201,1134.28 709.189,1129.67 711.177,1125.05 
  713.164,1120.41 715.152,1115.76 717.14,1111.09 719.128,1106.41 721.116,1101.72 723.104,1097.01 725.091,1092.29 727.079,1087.55 729.067,1082.8 731.055,1078.05 
  733.043,1073.28 735.031,1068.49 737.018,1063.7 739.006,1058.9 740.994,1054.08 742.982,1049.26 744.97,1044.42 746.958,1039.58 748.945,1034.73 750.933,1029.86 
  752.921,1024.99 754.909,1020.12 756.897,1015.23 758.885,1010.33 760.872,1005.43 762.86,1000.52 764.848,995.61 766.836,990.688 768.824,985.76 770.812,980.827 
  772.799,975.888 774.787,970.944 776.775,965.994 778.763,961.041 780.751,956.083 782.739,951.121 784.726,946.155 786.714,941.186 788.702,936.214 790.69,931.239 
  792.678,926.262 794.666,921.282 796.653,916.3 798.641,911.317 800.629,906.332 802.617,901.347 804.605,896.36 806.593,891.373 808.58,886.385 810.568,881.398 
  812.556,876.411 814.544,871.424 816.532,866.439 818.52,861.454 820.507,856.471 822.495,851.49 824.483,846.51 826.471,841.533 828.459,836.559 830.446,831.587 
  832.434,826.618 834.422,821.652 836.41,816.69 838.398,811.732 840.386,806.777 842.373,801.828 844.361,796.882 846.349,791.942 848.337,787.007 850.325,782.077 
  852.313,777.152 854.3,772.234 856.288,767.322 858.276,762.416 860.264,757.516 862.252,752.624 864.24,747.738 866.227,742.86 868.215,737.99 870.203,733.128 
  872.191,728.273 874.179,723.427 876.167,718.59 878.154,713.761 880.142,708.941 882.13,704.131 884.118,699.33 886.106,694.539 888.094,689.758 890.081,684.987 
  892.069,680.227 894.057,675.477 896.045,670.738 898.033,666.01 900.021,661.294 902.008,656.589 903.996,651.896 905.984,647.215 907.972,642.546 909.96,637.89 
  911.948,633.247 913.935,628.616 915.923,623.998 917.911,619.394 919.899,614.804 921.887,610.227 923.875,605.664 925.862,601.115 927.85,596.581 929.838,592.061 
  931.826,587.556 933.814,583.066 935.802,578.591 937.789,574.131 939.777,569.688 941.765,565.26 943.753,560.848 945.741,556.452 947.729,552.073 949.716,547.71 
  951.704,543.364 953.692,539.035 955.68,534.723 957.668,530.429 959.655,526.152 961.643,521.892 963.631,517.651 965.619,513.428 967.607,509.223 969.595,505.037 
  971.582,500.869 973.57,496.72 975.558,492.591 977.546,488.48 979.534,484.389 981.522,480.317 983.509,476.265 985.497,472.233 987.485,468.221 989.473,464.229 
  991.461,460.258 993.449,456.307 995.436,452.377 997.424,448.468 999.412,444.58 1001.4,440.713 1003.39,436.868 1005.38,433.044 1007.36,429.242 1009.35,425.462 
  1011.34,421.704 1013.33,417.968 1015.31,414.254 1017.3,410.563 1019.29,406.895 1021.28,403.249 1023.27,399.627 1025.25,396.027 1027.24,392.451 1029.23,388.898 
  1031.22,385.369 1033.21,381.863 1035.19,378.382 1037.18,374.924 1039.17,371.49 1041.16,368.081 1043.14,364.696 1045.13,361.336 1047.12,358 1049.11,354.689 
  1051.1,351.403 1053.08,348.142 1055.07,344.907 1057.06,341.696 1059.05,338.512 1061.03,335.352 1063.02,332.219 1065.01,329.111 1067,326.029 1068.99,322.974 
  1070.97,319.945 1072.96,316.942 1074.95,313.965 1076.94,311.015 1078.93,308.092 1080.91,305.195 1082.9,302.326 1084.89,299.483 1086.88,296.668 1088.86,293.88 
  1090.85,291.119 1092.84,288.386 1094.83,285.68 1096.82,283.002 1098.8,280.352 1100.79,277.729 1102.78,275.135 1104.77,272.569 1106.75,270.031 1108.74,267.521 
  1110.73,265.04 1112.72,262.587 1114.71,260.163 1116.69,257.767 1118.68,255.401 1120.67,253.063 1122.66,250.754 1124.65,248.474 1126.63,246.223 1128.62,244.002 
  1130.61,241.81 1132.6,239.647 1134.58,237.513 1136.57,235.41 1138.56,233.335 1140.55,231.291 1142.54,229.276 1144.52,227.292 1146.51,225.337 1148.5,223.412 
  1150.49,221.517 1152.48,219.653 1154.46,217.819 1156.45,216.015 1158.44,214.241 1160.43,212.498 1162.41,210.785 1164.4,209.103 1166.39,207.452 1168.38,205.831 
  1170.37,204.241 1172.35,202.682 1174.34,201.154 1176.33,199.656 1178.32,198.19 1180.3,196.755 1182.29,195.351 1184.28,193.978 1186.27,192.636 1188.26,191.326 
  1190.24,190.046 1192.23,188.799 1194.22,187.582 1196.21,186.397 1198.2,185.244 1200.18,184.122 1202.17,183.031 1204.16,181.973 1206.15,180.946 1208.13,179.95 
  1210.12,178.987 1212.11,178.055 1214.1,177.155 1216.09,176.287 1218.07,175.45 1220.06,174.646 1222.05,173.874 1224.04,173.133 1226.02,172.425 1228.01,171.748 
  1230,171.104 1231.99,170.491 1233.98,169.911 1235.96,169.363 1237.95,168.847 1239.94,168.363 1241.93,167.912 1243.92,167.492 1245.9,167.105 1247.89,166.75 
  1249.88,166.427 1251.87,166.136 1253.85,165.878 1255.84,165.652 1257.83,165.458 1259.82,165.297 1261.81,165.168 1263.79,165.071 1265.78,165.006 1267.77,164.974 
  1269.76,164.974 1271.74,165.006 1273.73,165.071 1275.72,165.168 1277.71,165.297 1279.7,165.458 1281.68,165.652 1283.67,165.878 1285.66,166.136 1287.65,166.427 
  1289.64,166.75 1291.62,167.105 1293.61,167.492 1295.6,167.912 1297.59,168.363 1299.57,168.847 1301.56,169.363 1303.55,169.911 1305.54,170.491 1307.53,171.104 
  1309.51,171.748 1311.5,172.425 1313.49,173.133 1315.48,173.874 1317.47,174.646 1319.45,175.45 1321.44,176.287 1323.43,177.155 1325.42,178.055 1327.4,178.987 
  1329.39,179.95 1331.38,180.946 1333.37,181.973 1335.36,183.031 1337.34,184.122 1339.33,185.244 1341.32,186.397 1343.31,187.582 1345.29,188.799 1347.28,190.046 
  1349.27,191.326 1351.26,192.636 1353.25,193.978 1355.23,195.351 1357.22,196.755 1359.21,198.19 1361.2,199.656 1363.19,201.154 1365.17,202.682 1367.16,204.241 
  1369.15,205.831 1371.14,207.452 1373.12,209.103 1375.11,210.785 1377.1,212.498 1379.09,214.241 1381.08,216.015 1383.06,217.819 1385.05,219.653 1387.04,221.517 
  1389.03,223.412 1391.01,225.337 1393,227.292 1394.99,229.276 1396.98,231.291 1398.97,233.335 1400.95,235.41 1402.94,237.513 1404.93,239.647 1406.92,241.81 
  1408.91,244.002 1410.89,246.223 1412.88,248.474 1414.87,250.754 1416.86,253.063 1418.84,255.401 1420.83,257.767 1422.82,260.163 1424.81,262.587 1426.8,265.04 
  1428.78,267.521 1430.77,270.031 1432.76,272.569 1434.75,275.135 1436.73,277.729 1438.72,280.352 1440.71,283.002 1442.7,285.68 1444.69,288.386 1446.67,291.119 
  1448.66,293.88 1450.65,296.668 1452.64,299.483 1454.63,302.326 1456.61,305.195 1458.6,308.092 1460.59,311.015 1462.58,313.965 1464.56,316.942 1466.55,319.945 
  1468.54,322.974 1470.53,326.029 1472.52,329.111 1474.5,332.219 1476.49,335.352 1478.48,338.512 1480.47,341.696 1482.45,344.907 1484.44,348.142 1486.43,351.403 
  1488.42,354.689 1490.41,358 1492.39,361.336 1494.38,364.696 1496.37,368.081 1498.36,371.49 1500.35,374.924 1502.33,378.382 1504.32,381.863 1506.31,385.369 
  1508.3,388.898 1510.28,392.451 1512.27,396.027 1514.26,399.627 1516.25,403.249 1518.24,406.895 1520.22,410.563 1522.21,414.254 1524.2,417.968 1526.19,421.704 
  1528.18,425.462 1530.16,429.242 1532.15,433.044 1534.14,436.868 1536.13,440.713 1538.11,444.58 1540.1,448.468 1542.09,452.377 1544.08,456.307 1546.07,460.258 
  1548.05,464.229 1550.04,468.221 1552.03,472.233 1554.02,476.265 1556,480.317 1557.99,484.389 1559.98,488.48 1561.97,492.591 1563.96,496.72 1565.94,500.869 
  1567.93,505.037 1569.92,509.223 1571.91,513.428 1573.9,517.651 1575.88,521.892 1577.87,526.152 1579.86,530.429 1581.85,534.723 1583.83,539.035 1585.82,543.364 
  1587.81,547.71 1589.8,552.073 1591.79,556.452 1593.77,560.848 1595.76,565.26 1597.75,569.688 1599.74,574.131 1601.72,578.591 1603.71,583.066 1605.7,587.556 
  1607.69,592.061 1609.68,596.581 1611.66,601.115 1613.65,605.664 1615.64,610.227 1617.63,614.804 1619.62,619.394 1621.6,623.998 1623.59,628.616 1625.58,633.247 
  1627.57,637.89 1629.55,642.546 1631.54,647.215 1633.53,651.896 1635.52,656.589 1637.51,661.294 1639.49,666.01 1641.48,670.738 1643.47,675.477 1645.46,680.227 
  1647.44,684.987 1649.43,689.758 1651.42,694.539 1653.41,699.33 1655.4,704.131 1657.38,708.941 1659.37,713.761 1661.36,718.59 1663.35,723.427 1665.34,728.273 
  1667.32,733.128 1669.31,737.99 1671.3,742.86 1673.29,747.738 1675.27,752.624 1677.26,757.516 1679.25,762.416 1681.24,767.322 1683.23,772.234 1685.21,777.152 
  1687.2,782.077 1689.19,787.007 1691.18,791.942 1693.16,796.882 1695.15,801.828 1697.14,806.777 1699.13,811.732 1701.12,816.69 1703.1,821.652 1705.09,826.618 
  1707.08,831.587 1709.07,836.559 1711.06,841.533 1713.04,846.51 1715.03,851.49 1717.02,856.471 1719.01,861.454 1720.99,866.439 1722.98,871.424 1724.97,876.411 
  1726.96,881.398 1728.95,886.385 1730.93,891.373 1732.92,896.36 1734.91,901.347 1736.9,906.332 1738.89,911.317 1740.87,916.3 1742.86,921.282 1744.85,926.262 
  1746.84,931.239 1748.82,936.214 1750.81,941.186 1752.8,946.155 1754.79,951.121 1756.78,956.083 1758.76,961.041 1760.75,965.994 1762.74,970.944 1764.73,975.888 
  1766.71,980.827 1768.7,985.76 1770.69,990.688 1772.68,995.61 1774.67,1000.52 1776.65,1005.43 1778.64,1010.33 1780.63,1015.23 1782.62,1020.12 1784.61,1024.99 
  1786.59,1029.86 1788.58,1034.73 1790.57,1039.58 1792.56,1044.42 1794.54,1049.26 1796.53,1054.08 1798.52,1058.9 1800.51,1063.7 1802.5,1068.49 1804.48,1073.28 
  1806.47,1078.05 1808.46,1082.8 1810.45,1087.55 1812.43,1092.29 1814.42,1097.01 1816.41,1101.72 1818.4,1106.41 1820.39,1111.09 1822.37,1115.76 1824.36,1120.41 
  1826.35,1125.05 1828.34,1129.67 1830.33,1134.28 1832.31,1138.87 1834.3,1143.45 1836.29,1148.01 1838.28,1152.55 1840.26,1157.08 1842.25,1161.58 1844.24,1166.07 
  1846.23,1170.55 1848.22,1175 1850.2,1179.43 1852.19,1183.85 1854.18,1188.24 1856.17,1192.62 1858.15,1196.98 1860.14,1201.31 1862.13,1205.62 1864.12,1209.92 
  1866.11,1214.19 1868.09,1218.44 1870.08,1222.66 1872.07,1226.87 1874.06,1231.05 1876.05,1235.2 1878.03,1239.34 1880.02,1243.45 1882.01,1247.53 1884,1251.59 
  1885.98,1255.62 1887.97,1259.63 1889.96,1263.61 1891.95,1267.57 1893.94,1271.5 1895.92,1275.4 1897.91,1279.27 1899.9,1283.12 1901.89,1286.93 1903.88,1290.72 
  1905.86,1294.48 1907.85,1298.21 1909.84,1301.91 1911.83,1305.58 1913.81,1309.22 1915.8,1312.83 1917.79,1316.4 1919.78,1319.95 1921.77,1323.46 1923.75,1326.94 
  1925.74,1330.38 1927.73,1333.8 1929.72,1337.17 1931.7,1340.52 1933.69,1343.83 1935.68,1347.1 1937.67,1350.34 1939.66,1353.55 1941.64,1356.71 1943.63,1359.84 
  1945.62,1362.94 1947.61,1365.99 1949.6,1369.01 1951.58,1371.99 1953.57,1374.93 1955.56,1377.83 1957.55,1380.69 1959.53,1383.52 1961.52,1386.3 1963.51,1389.04 
  1965.5,1391.74 1967.49,1394.4 1969.47,1397.01 1971.46,1399.59 1973.45,1402.12 1975.44,1404.6 1977.42,1407.05 1979.41,1409.45 1981.4,1411.8 1983.39,1414.11 
  1985.38,1416.37 1987.36,1418.59 1989.35,1420.76 1991.34,1422.89 1993.33,1424.96 1995.32,1426.99 1997.3,1428.97 1999.29,1430.91 2001.28,1432.79 2003.27,1434.62 
  2005.25,1436.41 2007.24,1438.14 2009.23,1439.83 2011.22,1441.46 2013.21,1443.04 2015.19,1444.57 2017.18,1446.04 2019.17,1447.46 2021.16,1448.83 2023.14,1450.15 
  2025.13,1451.41 2027.12,1452.61 2029.11,1453.77 2031.1,1454.86 2033.08,1455.9 2035.07,1456.88 2037.06,1457.8 2039.05,1458.67 2041.04,1459.48 2043.02,1460.23 
  2045.01,1460.92 2047,1461.55 2048.99,1462.12 2050.97,1462.63 2052.96,1463.08 2054.95,1463.47 2056.94,1463.8 2058.93,1464.06 2060.91,1464.27 2062.9,1464.4 
  2064.89,1464.48 2066.88,1464.49 2068.86,1464.43 2070.85,1464.31 2072.84,1464.13 2074.83,1463.88 2076.82,1463.56 2078.8,1463.17 2080.79,1462.72 2082.78,1462.2 
  2084.77,1461.61 2086.76,1460.95 2088.74,1460.22 2090.73,1459.42 2092.72,1458.55 2094.71,1457.61 2096.69,1456.6 2098.68,1455.51 2100.67,1454.35 2102.66,1453.12 
  2104.65,1451.82 2106.63,1450.44 2108.62,1448.99 2110.61,1447.46 2112.6,1445.85 2114.59,1444.17 2116.57,1442.42 2118.56,1440.58 2120.55,1438.67 2122.54,1436.68 
  2124.52,1434.61 2126.51,1432.46 2128.5,1430.24 2130.49,1427.93 2132.48,1425.54 2134.46,1423.07 2136.45,1420.51 2138.44,1417.88 2140.43,1415.16 2142.41,1412.36 
  2144.4,1409.47 2146.39,1406.5 2148.38,1403.45 2150.37,1400.31 2152.35,1397.08 2154.34,1393.77 2156.33,1390.37 2158.32,1386.88 2160.31,1383.3 2162.29,1379.64 
  2164.28,1375.88 2166.27,1372.04 2168.26,1368.1 2170.24,1364.08 2172.23,1359.96 2174.22,1355.75 2176.21,1351.45 2178.2,1347.05 2180.18,1342.56 2182.17,1337.98 
  2184.16,1333.3 2186.15,1328.52 2188.13,1323.65 2190.12,1318.69 2192.11,1313.62 2194.1,1308.46 2196.09,1303.2 2198.07,1297.85 2200.06,1292.39 2202.05,1286.83 
  2204.04,1281.17 2206.03,1275.41 2208.01,1269.55 2210,1263.59 2211.99,1257.53 2213.98,1251.36 2215.96,1245.09 2217.95,1238.71 2219.94,1232.23 2221.93,1225.64 
  2223.92,1218.95 2225.9,1212.15 2227.89,1205.24 2229.88,1198.23 2231.87,1191.1 2233.85,1183.87 2235.84,1176.53 2237.83,1169.07 2239.82,1161.51 2241.81,1153.84 
  2243.79,1146.05 2245.78,1138.15 2247.77,1130.14 2249.76,1122.01 2251.75,1113.77 2253.73,1105.42 2255.72,1096.95 2257.71,1088.36 2259.7,1079.65 2261.68,1070.83 
  
  "/>
<polygon clip-path="url(#clip7901)" points="
1685.51,451.424 2249.26,451.424 2249.26,209.504 1685.51,209.504 
  " fill="#ffffff" fill-rule="evenodd" fill-opacity="1"/>
<polyline clip-path="url(#clip7901)" style="stroke:#000000; stroke-width:4; stroke-opacity:1; fill:none" points="
  1685.51,451.424 2249.26,451.424 2249.26,209.504 1685.51,209.504 1685.51,451.424 
  "/>
<polyline clip-path="url(#clip7901)" style="stroke:#009af9; stroke-width:4; stroke-opacity:1; fill:none" points="
  1709.51,269.984 1853.51,269.984 
  "/>
<g clip-path="url(#clip7901)">
<text style="fill:#000000; fill-opacity:1; font-family:Arial,Helvetica Neue,Helvetica,sans-serif; font-size:48px; text-anchor:start;" transform="rotate(0, 1877.51, 287.484)" x="1877.51" y="287.484">Runge function</text>
</g>
<circle clip-path="url(#clip7901)" style="fill:#000000; stroke:none; fill-opacity:1" cx="1793.51" cy="330.464" r="25"/>
<circle clip-path="url(#clip7901)" style="fill:#e26f46; stroke:none; fill-opacity:1" cx="1793.51" cy="330.464" r="21"/>
<g clip-path="url(#clip7901)">
<text style="fill:#000000; fill-opacity:1; font-family:Arial,Helvetica Neue,Helvetica,sans-serif; font-size:48px; text-anchor:start;" transform="rotate(0, 1877.51, 347.964)" x="1877.51" y="347.964">Nodes</text>
</g>
<polyline clip-path="url(#clip7901)" style="stroke:#3da44d; stroke-width:4; stroke-opacity:1; fill:none" points="
  1709.51,390.944 1853.51,390.944 
  "/>
<g clip-path="url(#clip7901)">
<text style="fill:#000000; fill-opacity:1; font-family:Arial,Helvetica Neue,Helvetica,sans-serif; font-size:48px; text-anchor:start;" transform="rotate(0, 1877.51, 408.444)" x="1877.51" y="408.444">Intepolation</text>
</g>
</svg>
