<?xml version="1.0" encoding="utf-8"?>
<svg xmlns="http://www.w3.org/2000/svg" xmlns:xlink="http://www.w3.org/1999/xlink" width="600" height="400" viewBox="0 0 2400 1600">
<defs>
  <clipPath id="clip8100">
    <rect x="0" y="0" width="2000" height="2000"/>
  </clipPath>
</defs>
<defs>
  <clipPath id="clip8101">
    <rect x="0" y="0" width="2400" height="1600"/>
  </clipPath>
</defs>
<polygon clip-path="url(#clip8101)" points="
0,1600 2400,1600 2400,0 0,0 
  " fill="#ffffff" fill-rule="evenodd" fill-opacity="1"/>
<defs>
  <clipPath id="clip8102">
    <rect x="480" y="0" width="1681" height="1600"/>
  </clipPath>
</defs>
<polygon clip-path="url(#clip8101)" points="
188.156,1503.47 2321.26,1503.47 2321.26,125.984 188.156,125.984 
  " fill="#ffffff" fill-rule="evenodd" fill-opacity="1"/>
<defs>
  <clipPath id="clip8103">
    <rect x="188" y="125" width="2134" height="1378"/>
  </clipPath>
</defs>
<polyline clip-path="url(#clip8103)" style="stroke:#000000; stroke-width:2; stroke-opacity:0.1; fill:none" points="
  248.527,1503.47 248.527,125.984 
  "/>
<polyline clip-path="url(#clip8103)" style="stroke:#000000; stroke-width:2; stroke-opacity:0.1; fill:none" points="
  751.618,1503.47 751.618,125.984 
  "/>
<polyline clip-path="url(#clip8103)" style="stroke:#000000; stroke-width:2; stroke-opacity:0.1; fill:none" points="
  1254.71,1503.47 1254.71,125.984 
  "/>
<polyline clip-path="url(#clip8103)" style="stroke:#000000; stroke-width:2; stroke-opacity:0.1; fill:none" points="
  1757.8,1503.47 1757.8,125.984 
  "/>
<polyline clip-path="url(#clip8103)" style="stroke:#000000; stroke-width:2; stroke-opacity:0.1; fill:none" points="
  2260.89,1503.47 2260.89,125.984 
  "/>
<polyline clip-path="url(#clip8103)" style="stroke:#000000; stroke-width:2; stroke-opacity:0.1; fill:none" points="
  188.156,1395.84 2321.26,1395.84 
  "/>
<polyline clip-path="url(#clip8103)" style="stroke:#000000; stroke-width:2; stroke-opacity:0.1; fill:none" points="
  188.156,1088.12 2321.26,1088.12 
  "/>
<polyline clip-path="url(#clip8103)" style="stroke:#000000; stroke-width:2; stroke-opacity:0.1; fill:none" points="
  188.156,780.392 2321.26,780.392 
  "/>
<polyline clip-path="url(#clip8103)" style="stroke:#000000; stroke-width:2; stroke-opacity:0.1; fill:none" points="
  188.156,472.665 2321.26,472.665 
  "/>
<polyline clip-path="url(#clip8103)" style="stroke:#000000; stroke-width:2; stroke-opacity:0.1; fill:none" points="
  188.156,164.939 2321.26,164.939 
  "/>
<polyline clip-path="url(#clip8101)" style="stroke:#000000; stroke-width:4; stroke-opacity:1; fill:none" points="
  188.156,1503.47 2321.26,1503.47 
  "/>
<polyline clip-path="url(#clip8101)" style="stroke:#000000; stroke-width:4; stroke-opacity:1; fill:none" points="
  188.156,1503.47 188.156,125.984 
  "/>
<polyline clip-path="url(#clip8101)" style="stroke:#000000; stroke-width:4; stroke-opacity:1; fill:none" points="
  248.527,1503.47 248.527,1482.81 
  "/>
<polyline clip-path="url(#clip8101)" style="stroke:#000000; stroke-width:4; stroke-opacity:1; fill:none" points="
  751.618,1503.47 751.618,1482.81 
  "/>
<polyline clip-path="url(#clip8101)" style="stroke:#000000; stroke-width:4; stroke-opacity:1; fill:none" points="
  1254.71,1503.47 1254.71,1482.81 
  "/>
<polyline clip-path="url(#clip8101)" style="stroke:#000000; stroke-width:4; stroke-opacity:1; fill:none" points="
  1757.8,1503.47 1757.8,1482.81 
  "/>
<polyline clip-path="url(#clip8101)" style="stroke:#000000; stroke-width:4; stroke-opacity:1; fill:none" points="
  2260.89,1503.47 2260.89,1482.81 
  "/>
<polyline clip-path="url(#clip8101)" style="stroke:#000000; stroke-width:4; stroke-opacity:1; fill:none" points="
  188.156,1395.84 220.153,1395.84 
  "/>
<polyline clip-path="url(#clip8101)" style="stroke:#000000; stroke-width:4; stroke-opacity:1; fill:none" points="
  188.156,1088.12 220.153,1088.12 
  "/>
<polyline clip-path="url(#clip8101)" style="stroke:#000000; stroke-width:4; stroke-opacity:1; fill:none" points="
  188.156,780.392 220.153,780.392 
  "/>
<polyline clip-path="url(#clip8101)" style="stroke:#000000; stroke-width:4; stroke-opacity:1; fill:none" points="
  188.156,472.665 220.153,472.665 
  "/>
<polyline clip-path="url(#clip8101)" style="stroke:#000000; stroke-width:4; stroke-opacity:1; fill:none" points="
  188.156,164.939 220.153,164.939 
  "/>
<g clip-path="url(#clip8101)">
<text style="fill:#000000; fill-opacity:1; font-family:Arial,Helvetica Neue,Helvetica,sans-serif; font-size:48px; text-anchor:middle;" transform="rotate(0, 248.527, 1557.47)" x="248.527" y="1557.47">-1.0</text>
</g>
<g clip-path="url(#clip8101)">
<text style="fill:#000000; fill-opacity:1; font-family:Arial,Helvetica Neue,Helvetica,sans-serif; font-size:48px; text-anchor:middle;" transform="rotate(0, 751.618, 1557.47)" x="751.618" y="1557.47">-0.5</text>
</g>
<g clip-path="url(#clip8101)">
<text style="fill:#000000; fill-opacity:1; font-family:Arial,Helvetica Neue,Helvetica,sans-serif; font-size:48px; text-anchor:middle;" transform="rotate(0, 1254.71, 1557.47)" x="1254.71" y="1557.47">0.0</text>
</g>
<g clip-path="url(#clip8101)">
<text style="fill:#000000; fill-opacity:1; font-family:Arial,Helvetica Neue,Helvetica,sans-serif; font-size:48px; text-anchor:middle;" transform="rotate(0, 1757.8, 1557.47)" x="1757.8" y="1557.47">0.5</text>
</g>
<g clip-path="url(#clip8101)">
<text style="fill:#000000; fill-opacity:1; font-family:Arial,Helvetica Neue,Helvetica,sans-serif; font-size:48px; text-anchor:middle;" transform="rotate(0, 2260.89, 1557.47)" x="2260.89" y="1557.47">1.0</text>
</g>
<g clip-path="url(#clip8101)">
<text style="fill:#000000; fill-opacity:1; font-family:Arial,Helvetica Neue,Helvetica,sans-serif; font-size:48px; text-anchor:end;" transform="rotate(0, 164.156, 1413.34)" x="164.156" y="1413.34">0.00</text>
</g>
<g clip-path="url(#clip8101)">
<text style="fill:#000000; fill-opacity:1; font-family:Arial,Helvetica Neue,Helvetica,sans-serif; font-size:48px; text-anchor:end;" transform="rotate(0, 164.156, 1105.62)" x="164.156" y="1105.62">0.25</text>
</g>
<g clip-path="url(#clip8101)">
<text style="fill:#000000; fill-opacity:1; font-family:Arial,Helvetica Neue,Helvetica,sans-serif; font-size:48px; text-anchor:end;" transform="rotate(0, 164.156, 797.892)" x="164.156" y="797.892">0.50</text>
</g>
<g clip-path="url(#clip8101)">
<text style="fill:#000000; fill-opacity:1; font-family:Arial,Helvetica Neue,Helvetica,sans-serif; font-size:48px; text-anchor:end;" transform="rotate(0, 164.156, 490.165)" x="164.156" y="490.165">0.75</text>
</g>
<g clip-path="url(#clip8101)">
<text style="fill:#000000; fill-opacity:1; font-family:Arial,Helvetica Neue,Helvetica,sans-serif; font-size:48px; text-anchor:end;" transform="rotate(0, 164.156, 182.439)" x="164.156" y="182.439">1.00</text>
</g>
<g clip-path="url(#clip8101)">
<text style="fill:#000000; fill-opacity:1; font-family:Arial,Helvetica Neue,Helvetica,sans-serif; font-size:84px; text-anchor:middle;" transform="rotate(0, 1254.71, 73.2)" x="1254.71" y="73.2">Runge&apos;s phenomenon (Nodes = 6)</text>
</g>
<polyline clip-path="url(#clip8103)" style="stroke:#009af9; stroke-width:4; stroke-opacity:1; fill:none" points="
  248.527,1348.5 250.542,1348.32 252.556,1348.14 254.57,1347.95 256.585,1347.76 258.599,1347.58 260.613,1347.39 262.628,1347.2 264.642,1347.01 266.657,1346.82 
  268.671,1346.63 270.685,1346.43 272.7,1346.24 274.714,1346.04 276.728,1345.84 278.743,1345.65 280.757,1345.45 282.772,1345.25 284.786,1345.04 286.8,1344.84 
  288.815,1344.64 290.829,1344.43 292.844,1344.23 294.858,1344.02 296.872,1343.81 298.887,1343.6 300.901,1343.39 302.915,1343.17 304.93,1342.96 306.944,1342.75 
  308.959,1342.53 310.973,1342.31 312.987,1342.09 315.002,1341.87 317.016,1341.65 319.03,1341.43 321.045,1341.2 323.059,1340.98 325.074,1340.75 327.088,1340.52 
  329.102,1340.29 331.117,1340.06 333.131,1339.82 335.145,1339.59 337.16,1339.35 339.174,1339.12 341.189,1338.88 343.203,1338.64 345.217,1338.4 347.232,1338.15 
  349.246,1337.91 351.26,1337.66 353.275,1337.41 355.289,1337.16 357.304,1336.91 359.318,1336.66 361.332,1336.41 363.347,1336.15 365.361,1335.89 367.375,1335.63 
  369.39,1335.37 371.404,1335.11 373.419,1334.85 375.433,1334.58 377.447,1334.31 379.462,1334.04 381.476,1333.77 383.49,1333.5 385.505,1333.22 387.519,1332.95 
  389.534,1332.67 391.548,1332.39 393.562,1332.11 395.577,1331.82 397.591,1331.54 399.605,1331.25 401.62,1330.96 403.634,1330.67 405.649,1330.38 407.663,1330.08 
  409.677,1329.78 411.692,1329.49 413.706,1329.18 415.72,1328.88 417.735,1328.58 419.749,1328.27 421.764,1327.96 423.778,1327.65 425.792,1327.34 427.807,1327.02 
  429.821,1326.7 431.835,1326.38 433.85,1326.06 435.864,1325.74 437.879,1325.41 439.893,1325.08 441.907,1324.75 443.922,1324.42 445.936,1324.08 447.95,1323.74 
  449.965,1323.4 451.979,1323.06 453.994,1322.72 456.008,1322.37 458.022,1322.02 460.037,1321.67 462.051,1321.31 464.065,1320.96 466.08,1320.6 468.094,1320.23 
  470.109,1319.87 472.123,1319.5 474.137,1319.13 476.152,1318.76 478.166,1318.38 480.18,1318.01 482.195,1317.63 484.209,1317.24 486.224,1316.86 488.238,1316.47 
  490.252,1316.08 492.267,1315.68 494.281,1315.28 496.295,1314.88 498.31,1314.48 500.324,1314.07 502.339,1313.66 504.353,1313.25 506.367,1312.84 508.382,1312.42 
  510.396,1312 512.411,1311.57 514.425,1311.15 516.439,1310.71 518.454,1310.28 520.468,1309.84 522.482,1309.4 524.497,1308.96 526.511,1308.51 528.526,1308.06 
  530.54,1307.61 532.554,1307.15 534.569,1306.69 536.583,1306.22 538.597,1305.76 540.612,1305.28 542.626,1304.81 544.641,1304.33 546.655,1303.85 548.669,1303.36 
  550.684,1302.87 552.698,1302.38 554.712,1301.88 556.727,1301.38 558.741,1300.87 560.756,1300.36 562.77,1299.85 564.784,1299.33 566.799,1298.81 568.813,1298.29 
  570.827,1297.76 572.842,1297.22 574.856,1296.69 576.871,1296.14 578.885,1295.6 580.899,1295.05 582.914,1294.49 584.928,1293.93 586.942,1293.36 588.957,1292.8 
  590.971,1292.22 592.986,1291.64 595,1291.06 597.014,1290.47 599.029,1289.88 601.043,1289.28 603.057,1288.68 605.072,1288.07 607.086,1287.46 609.101,1286.84 
  611.115,1286.22 613.129,1285.59 615.144,1284.96 617.158,1284.32 619.172,1283.68 621.187,1283.03 623.201,1282.38 625.216,1281.72 627.23,1281.05 629.244,1280.38 
  631.259,1279.7 633.273,1279.02 635.287,1278.33 637.302,1277.64 639.316,1276.94 641.331,1276.23 643.345,1275.52 645.359,1274.8 647.374,1274.07 649.388,1273.34 
  651.402,1272.61 653.417,1271.86 655.431,1271.11 657.446,1270.35 659.46,1269.59 661.474,1268.82 663.489,1268.04 665.503,1267.26 667.517,1266.47 669.532,1265.67 
  671.546,1264.87 673.561,1264.05 675.575,1263.23 677.589,1262.41 679.604,1261.57 681.618,1260.73 683.632,1259.88 685.647,1259.03 687.661,1258.16 689.676,1257.29 
  691.69,1256.41 693.704,1255.52 695.719,1254.62 697.733,1253.72 699.747,1252.8 701.762,1251.88 703.776,1250.95 705.791,1250.01 707.805,1249.06 709.819,1248.11 
  711.834,1247.14 713.848,1246.17 715.862,1245.18 717.877,1244.19 719.891,1243.19 721.906,1242.17 723.92,1241.15 725.934,1240.12 727.949,1239.08 729.963,1238.03 
  731.978,1236.97 733.992,1235.9 736.006,1234.81 738.021,1233.72 740.035,1232.62 742.049,1231.5 744.064,1230.38 746.078,1229.24 748.093,1228.1 750.107,1226.94 
  752.121,1225.77 754.136,1224.59 756.15,1223.4 758.164,1222.19 760.179,1220.98 762.193,1219.75 764.208,1218.51 766.222,1217.26 768.236,1215.99 770.251,1214.71 
  772.265,1213.42 774.279,1212.12 776.294,1210.8 778.308,1209.47 780.323,1208.12 782.337,1206.77 784.351,1205.39 786.366,1204.01 788.38,1202.61 790.394,1201.19 
  792.409,1199.76 794.423,1198.32 796.438,1196.86 798.452,1195.39 800.466,1193.9 802.481,1192.39 804.495,1190.87 806.509,1189.34 808.524,1187.78 810.538,1186.21 
  812.553,1184.63 814.567,1183.02 816.581,1181.4 818.596,1179.77 820.61,1178.11 822.624,1176.44 824.639,1174.75 826.653,1173.04 828.668,1171.32 830.682,1169.57 
  832.696,1167.81 834.711,1166.02 836.725,1164.22 838.739,1162.4 840.754,1160.56 842.768,1158.69 844.783,1156.81 846.797,1154.91 848.811,1152.98 850.826,1151.04 
  852.84,1149.07 854.854,1147.08 856.869,1145.07 858.883,1143.04 860.898,1140.98 862.912,1138.9 864.926,1136.8 866.941,1134.67 868.955,1132.52 870.969,1130.35 
  872.984,1128.15 874.998,1125.93 877.013,1123.68 879.027,1121.41 881.041,1119.11 883.056,1116.78 885.07,1114.43 887.084,1112.05 889.099,1109.64 891.113,1107.21 
  893.128,1104.75 895.142,1102.25 897.156,1099.74 899.171,1097.19 901.185,1094.61 903.199,1092 905.214,1089.36 907.228,1086.69 909.243,1084 911.257,1081.26 
  913.271,1078.5 915.286,1075.71 917.3,1072.88 919.314,1070.02 921.329,1067.12 923.343,1064.19 925.358,1061.23 927.372,1058.23 929.386,1055.2 931.401,1052.13 
  933.415,1049.02 935.429,1045.88 937.444,1042.7 939.458,1039.49 941.473,1036.23 943.487,1032.94 945.501,1029.61 947.516,1026.23 949.53,1022.82 951.545,1019.37 
  953.559,1015.88 955.573,1012.34 957.588,1008.77 959.602,1005.15 961.616,1001.48 963.631,997.778 965.645,994.028 967.66,990.233 969.674,986.394 971.688,982.509 
  973.703,978.577 975.717,974.6 977.731,970.575 979.746,966.502 981.76,962.382 983.775,958.212 985.789,953.994 987.803,949.725 989.818,945.407 991.832,941.038 
  993.846,936.617 995.861,932.145 997.875,927.62 999.89,923.043 1001.9,918.412 1003.92,913.728 1005.93,908.99 1007.95,904.196 1009.96,899.348 1011.98,894.444 
  1013.99,889.483 1016,884.467 1018.02,879.393 1020.03,874.262 1022.05,869.073 1024.06,863.826 1026.08,858.52 1028.09,853.155 1030.11,847.732 1032.12,842.248 
  1034.13,836.705 1036.15,831.101 1038.16,825.437 1040.18,819.712 1042.19,813.926 1044.21,808.079 1046.22,802.171 1048.23,796.201 1050.25,790.17 1052.26,784.077 
  1054.28,777.923 1056.29,771.706 1058.31,765.429 1060.32,759.089 1062.34,752.688 1064.35,746.226 1066.36,739.703 1068.38,733.119 1070.39,726.475 1072.41,719.77 
  1074.42,713.006 1076.44,706.182 1078.45,699.299 1080.46,692.359 1082.48,685.361 1084.49,678.306 1086.51,671.195 1088.52,664.029 1090.54,656.808 1092.55,649.535 
  1094.57,642.209 1096.58,634.833 1098.59,627.407 1100.61,619.932 1102.62,612.41 1104.64,604.844 1106.65,597.233 1108.67,589.58 1110.68,581.888 1112.69,574.156 
  1114.71,566.389 1116.72,558.588 1118.74,550.754 1120.75,542.892 1122.77,535.002 1124.78,527.088 1126.8,519.152 1128.81,511.197 1130.82,503.226 1132.84,495.242 
  1134.85,487.249 1136.87,479.249 1138.88,471.247 1140.9,463.245 1142.91,455.247 1144.92,447.257 1146.94,439.28 1148.95,431.319 1150.97,423.378 1152.98,415.462 
  1155,407.575 1157.01,399.721 1159.03,391.906 1161.04,384.134 1163.05,376.41 1165.07,368.739 1167.08,361.126 1169.1,353.576 1171.11,346.094 1173.13,338.687 
  1175.14,331.358 1177.15,324.114 1179.17,316.961 1181.18,309.903 1183.2,302.947 1185.21,296.098 1187.23,289.363 1189.24,282.746 1191.26,276.253 1193.27,269.891 
  1195.28,263.664 1197.3,257.58 1199.31,251.643 1201.33,245.859 1203.34,240.233 1205.36,234.772 1207.37,229.48 1209.38,224.364 1211.4,219.428 1213.41,214.677 
  1215.43,210.117 1217.44,205.752 1219.46,201.586 1221.47,197.626 1223.49,193.874 1225.5,190.336 1227.51,187.014 1229.53,183.913 1231.54,181.037 1233.56,178.388 
  1235.57,175.97 1237.59,173.786 1239.6,171.838 1241.61,170.128 1243.63,168.659 1245.64,167.432 1247.66,166.448 1249.67,165.709 1251.69,165.216 1253.7,164.97 
  1255.72,164.97 1257.73,165.216 1259.74,165.709 1261.76,166.448 1263.77,167.432 1265.79,168.659 1267.8,170.128 1269.82,171.838 1271.83,173.786 1273.84,175.97 
  1275.86,178.388 1277.87,181.037 1279.89,183.913 1281.9,187.014 1283.92,190.336 1285.93,193.874 1287.95,197.626 1289.96,201.586 1291.97,205.752 1293.99,210.117 
  1296,214.677 1298.02,219.428 1300.03,224.364 1302.05,229.48 1304.06,234.772 1306.07,240.233 1308.09,245.859 1310.1,251.643 1312.12,257.58 1314.13,263.664 
  1316.15,269.891 1318.16,276.253 1320.18,282.746 1322.19,289.363 1324.2,296.098 1326.22,302.947 1328.23,309.903 1330.25,316.961 1332.26,324.114 1334.28,331.358 
  1336.29,338.687 1338.3,346.094 1340.32,353.576 1342.33,361.126 1344.35,368.739 1346.36,376.41 1348.38,384.134 1350.39,391.906 1352.41,399.721 1354.42,407.575 
  1356.43,415.462 1358.45,423.378 1360.46,431.319 1362.48,439.28 1364.49,447.257 1366.51,455.247 1368.52,463.245 1370.53,471.247 1372.55,479.249 1374.56,487.249 
  1376.58,495.242 1378.59,503.226 1380.61,511.197 1382.62,519.152 1384.64,527.088 1386.65,535.002 1388.66,542.892 1390.68,550.754 1392.69,558.588 1394.71,566.389 
  1396.72,574.156 1398.74,581.888 1400.75,589.58 1402.76,597.233 1404.78,604.844 1406.79,612.41 1408.81,619.932 1410.82,627.407 1412.84,634.833 1414.85,642.209 
  1416.87,649.535 1418.88,656.808 1420.89,664.029 1422.91,671.195 1424.92,678.306 1426.94,685.361 1428.95,692.359 1430.97,699.299 1432.98,706.182 1434.99,713.006 
  1437.01,719.77 1439.02,726.475 1441.04,733.119 1443.05,739.703 1445.07,746.226 1447.08,752.688 1449.1,759.089 1451.11,765.429 1453.12,771.706 1455.14,777.923 
  1457.15,784.077 1459.17,790.17 1461.18,796.201 1463.2,802.171 1465.21,808.079 1467.22,813.926 1469.24,819.712 1471.25,825.437 1473.27,831.101 1475.28,836.705 
  1477.3,842.248 1479.31,847.732 1481.33,853.155 1483.34,858.52 1485.35,863.826 1487.37,869.073 1489.38,874.262 1491.4,879.393 1493.41,884.467 1495.43,889.483 
  1497.44,894.444 1499.45,899.348 1501.47,904.196 1503.48,908.99 1505.5,913.728 1507.51,918.412 1509.53,923.043 1511.54,927.62 1513.56,932.145 1515.57,936.617 
  1517.58,941.038 1519.6,945.407 1521.61,949.725 1523.63,953.994 1525.64,958.212 1527.66,962.382 1529.67,966.502 1531.68,970.575 1533.7,974.6 1535.71,978.577 
  1537.73,982.509 1539.74,986.394 1541.76,990.233 1543.77,994.028 1545.79,997.778 1547.8,1001.48 1549.81,1005.15 1551.83,1008.77 1553.84,1012.34 1555.86,1015.88 
  1557.87,1019.37 1559.89,1022.82 1561.9,1026.23 1563.91,1029.61 1565.93,1032.94 1567.94,1036.23 1569.96,1039.49 1571.97,1042.7 1573.99,1045.88 1576,1049.02 
  1578.02,1052.13 1580.03,1055.2 1582.04,1058.23 1584.06,1061.23 1586.07,1064.19 1588.09,1067.12 1590.1,1070.02 1592.12,1072.88 1594.13,1075.71 1596.14,1078.5 
  1598.16,1081.26 1600.17,1084 1602.19,1086.69 1604.2,1089.36 1606.22,1092 1608.23,1094.61 1610.25,1097.19 1612.26,1099.74 1614.27,1102.25 1616.29,1104.75 
  1618.3,1107.21 1620.32,1109.64 1622.33,1112.05 1624.35,1114.43 1626.36,1116.78 1628.37,1119.11 1630.39,1121.41 1632.4,1123.68 1634.42,1125.93 1636.43,1128.15 
  1638.45,1130.35 1640.46,1132.52 1642.48,1134.67 1644.49,1136.8 1646.5,1138.9 1648.52,1140.98 1650.53,1143.04 1652.55,1145.07 1654.56,1147.08 1656.58,1149.07 
  1658.59,1151.04 1660.6,1152.98 1662.62,1154.91 1664.63,1156.81 1666.65,1158.69 1668.66,1160.56 1670.68,1162.4 1672.69,1164.22 1674.71,1166.02 1676.72,1167.81 
  1678.73,1169.57 1680.75,1171.32 1682.76,1173.04 1684.78,1174.75 1686.79,1176.44 1688.81,1178.11 1690.82,1179.77 1692.83,1181.4 1694.85,1183.02 1696.86,1184.63 
  1698.88,1186.21 1700.89,1187.78 1702.91,1189.34 1704.92,1190.87 1706.94,1192.39 1708.95,1193.9 1710.96,1195.39 1712.98,1196.86 1714.99,1198.32 1717.01,1199.76 
  1719.02,1201.19 1721.04,1202.61 1723.05,1204.01 1725.06,1205.39 1727.08,1206.77 1729.09,1208.12 1731.11,1209.47 1733.12,1210.8 1735.14,1212.12 1737.15,1213.42 
  1739.17,1214.71 1741.18,1215.99 1743.19,1217.26 1745.21,1218.51 1747.22,1219.75 1749.24,1220.98 1751.25,1222.19 1753.27,1223.4 1755.28,1224.59 1757.29,1225.77 
  1759.31,1226.94 1761.32,1228.1 1763.34,1229.24 1765.35,1230.38 1767.37,1231.5 1769.38,1232.62 1771.4,1233.72 1773.41,1234.81 1775.42,1235.9 1777.44,1236.97 
  1779.45,1238.03 1781.47,1239.08 1783.48,1240.12 1785.5,1241.15 1787.51,1242.17 1789.52,1243.19 1791.54,1244.19 1793.55,1245.18 1795.57,1246.17 1797.58,1247.14 
  1799.6,1248.11 1801.61,1249.06 1803.63,1250.01 1805.64,1250.95 1807.65,1251.88 1809.67,1252.8 1811.68,1253.72 1813.7,1254.62 1815.71,1255.52 1817.73,1256.41 
  1819.74,1257.29 1821.75,1258.16 1823.77,1259.03 1825.78,1259.88 1827.8,1260.73 1829.81,1261.57 1831.83,1262.41 1833.84,1263.23 1835.86,1264.05 1837.87,1264.87 
  1839.88,1265.67 1841.9,1266.47 1843.91,1267.26 1845.93,1268.04 1847.94,1268.82 1849.96,1269.59 1851.97,1270.35 1853.99,1271.11 1856,1271.86 1858.01,1272.61 
  1860.03,1273.34 1862.04,1274.07 1864.06,1274.8 1866.07,1275.52 1868.09,1276.23 1870.1,1276.94 1872.11,1277.64 1874.13,1278.33 1876.14,1279.02 1878.16,1279.7 
  1880.17,1280.38 1882.19,1281.05 1884.2,1281.72 1886.22,1282.38 1888.23,1283.03 1890.24,1283.68 1892.26,1284.32 1894.27,1284.96 1896.29,1285.59 1898.3,1286.22 
  1900.32,1286.84 1902.33,1287.46 1904.34,1288.07 1906.36,1288.68 1908.37,1289.28 1910.39,1289.88 1912.4,1290.47 1914.42,1291.06 1916.43,1291.64 1918.45,1292.22 
  1920.46,1292.8 1922.47,1293.36 1924.49,1293.93 1926.5,1294.49 1928.52,1295.05 1930.53,1295.6 1932.55,1296.14 1934.56,1296.69 1936.57,1297.22 1938.59,1297.76 
  1940.6,1298.29 1942.62,1298.81 1944.63,1299.33 1946.65,1299.85 1948.66,1300.36 1950.68,1300.87 1952.69,1301.38 1954.7,1301.88 1956.72,1302.38 1958.73,1302.87 
  1960.75,1303.36 1962.76,1303.85 1964.78,1304.33 1966.79,1304.81 1968.8,1305.28 1970.82,1305.76 1972.83,1306.22 1974.85,1306.69 1976.86,1307.15 1978.88,1307.61 
  1980.89,1308.06 1982.91,1308.51 1984.92,1308.96 1986.93,1309.4 1988.95,1309.84 1990.96,1310.28 1992.98,1310.71 1994.99,1311.15 1997.01,1311.57 1999.02,1312 
  2001.03,1312.42 2003.05,1312.84 2005.06,1313.25 2007.08,1313.66 2009.09,1314.07 2011.11,1314.48 2013.12,1314.88 2015.14,1315.28 2017.15,1315.68 2019.16,1316.08 
  2021.18,1316.47 2023.19,1316.86 2025.21,1317.24 2027.22,1317.63 2029.24,1318.01 2031.25,1318.38 2033.26,1318.76 2035.28,1319.13 2037.29,1319.5 2039.31,1319.87 
  2041.32,1320.23 2043.34,1320.6 2045.35,1320.96 2047.37,1321.31 2049.38,1321.67 2051.39,1322.02 2053.41,1322.37 2055.42,1322.72 2057.44,1323.06 2059.45,1323.4 
  2061.47,1323.74 2063.48,1324.08 2065.49,1324.42 2067.51,1324.75 2069.52,1325.08 2071.54,1325.41 2073.55,1325.74 2075.57,1326.06 2077.58,1326.38 2079.6,1326.7 
  2081.61,1327.02 2083.62,1327.34 2085.64,1327.65 2087.65,1327.96 2089.67,1328.27 2091.68,1328.58 2093.7,1328.88 2095.71,1329.18 2097.72,1329.49 2099.74,1329.78 
  2101.75,1330.08 2103.77,1330.38 2105.78,1330.67 2107.8,1330.96 2109.81,1331.25 2111.83,1331.54 2113.84,1331.82 2115.85,1332.11 2117.87,1332.39 2119.88,1332.67 
  2121.9,1332.95 2123.91,1333.22 2125.93,1333.5 2127.94,1333.77 2129.95,1334.04 2131.97,1334.31 2133.98,1334.58 2136,1334.85 2138.01,1335.11 2140.03,1335.37 
  2142.04,1335.63 2144.06,1335.89 2146.07,1336.15 2148.08,1336.41 2150.1,1336.66 2152.11,1336.91 2154.13,1337.16 2156.14,1337.41 2158.16,1337.66 2160.17,1337.91 
  2162.18,1338.15 2164.2,1338.4 2166.21,1338.64 2168.23,1338.88 2170.24,1339.12 2172.26,1339.35 2174.27,1339.59 2176.29,1339.82 2178.3,1340.06 2180.31,1340.29 
  2182.33,1340.52 2184.34,1340.75 2186.36,1340.98 2188.37,1341.2 2190.39,1341.43 2192.4,1341.65 2194.41,1341.87 2196.43,1342.09 2198.44,1342.31 2200.46,1342.53 
  2202.47,1342.75 2204.49,1342.96 2206.5,1343.17 2208.52,1343.39 2210.53,1343.6 2212.54,1343.81 2214.56,1344.02 2216.57,1344.23 2218.59,1344.43 2220.6,1344.64 
  2222.62,1344.84 2224.63,1345.04 2226.64,1345.25 2228.66,1345.45 2230.67,1345.65 2232.69,1345.84 2234.7,1346.04 2236.72,1346.24 2238.73,1346.43 2240.75,1346.63 
  2242.76,1346.82 2244.77,1347.01 2246.79,1347.2 2248.8,1347.39 2250.82,1347.58 2252.83,1347.76 2254.85,1347.95 2256.86,1348.14 2258.87,1348.32 2260.89,1348.5 
  
  "/>
<circle clip-path="url(#clip8103)" style="fill:#000000; stroke:none; fill-opacity:1" cx="248.527" cy="1348.5" r="18"/>
<circle clip-path="url(#clip8103)" style="fill:#e26f46; stroke:none; fill-opacity:1" cx="248.527" cy="1348.5" r="14"/>
<circle clip-path="url(#clip8103)" style="fill:#000000; stroke:none; fill-opacity:1" cx="651" cy="1272.75" r="18"/>
<circle clip-path="url(#clip8103)" style="fill:#e26f46; stroke:none; fill-opacity:1" cx="651" cy="1272.75" r="14"/>
<circle clip-path="url(#clip8103)" style="fill:#000000; stroke:none; fill-opacity:1" cx="1053.47" cy="780.392" r="18"/>
<circle clip-path="url(#clip8103)" style="fill:#e26f46; stroke:none; fill-opacity:1" cx="1053.47" cy="780.392" r="14"/>
<circle clip-path="url(#clip8103)" style="fill:#000000; stroke:none; fill-opacity:1" cx="1455.94" cy="780.392" r="18"/>
<circle clip-path="url(#clip8103)" style="fill:#e26f46; stroke:none; fill-opacity:1" cx="1455.94" cy="780.392" r="14"/>
<circle clip-path="url(#clip8103)" style="fill:#000000; stroke:none; fill-opacity:1" cx="1858.42" cy="1272.75" r="18"/>
<circle clip-path="url(#clip8103)" style="fill:#e26f46; stroke:none; fill-opacity:1" cx="1858.42" cy="1272.75" r="14"/>
<circle clip-path="url(#clip8103)" style="fill:#000000; stroke:none; fill-opacity:1" cx="2260.89" cy="1348.5" r="18"/>
<circle clip-path="url(#clip8103)" style="fill:#e26f46; stroke:none; fill-opacity:1" cx="2260.89" cy="1348.5" r="14"/>
<polyline clip-path="url(#clip8103)" style="stroke:#3da44d; stroke-width:4; stroke-opacity:1; fill:none" points="
  248.527,1348.5 250.542,1351.79 252.556,1355.03 254.57,1358.21 256.585,1361.34 258.599,1364.42 260.613,1367.44 262.628,1370.41 264.642,1373.33 266.657,1376.2 
  268.671,1379.02 270.685,1381.78 272.7,1384.5 274.714,1387.16 276.728,1389.77 278.743,1392.34 280.757,1394.85 282.772,1397.31 284.786,1399.73 286.8,1402.09 
  288.815,1404.41 290.829,1406.68 292.844,1408.9 294.858,1411.07 296.872,1413.19 298.887,1415.27 300.901,1417.3 302.915,1419.28 304.93,1421.22 306.944,1423.1 
  308.959,1424.95 310.973,1426.75 312.987,1428.5 315.002,1430.21 317.016,1431.87 319.03,1433.48 321.045,1435.06 323.059,1436.59 325.074,1438.07 327.088,1439.51 
  329.102,1440.91 331.117,1442.26 333.131,1443.58 335.145,1444.84 337.16,1446.07 339.174,1447.26 341.189,1448.4 343.203,1449.5 345.217,1450.56 347.232,1451.58 
  349.246,1452.56 351.26,1453.49 353.275,1454.39 355.289,1455.25 357.304,1456.06 359.318,1456.84 361.332,1457.58 363.347,1458.28 365.361,1458.94 367.375,1459.56 
  369.39,1460.15 371.404,1460.69 373.419,1461.2 375.433,1461.67 377.447,1462.1 379.462,1462.5 381.476,1462.86 383.49,1463.18 385.505,1463.47 387.519,1463.72 
  389.534,1463.94 391.548,1464.12 393.562,1464.26 395.577,1464.37 397.591,1464.44 399.605,1464.48 401.62,1464.49 403.634,1464.46 405.649,1464.4 407.663,1464.3 
  409.677,1464.17 411.692,1464.01 413.706,1463.81 415.72,1463.59 417.735,1463.33 419.749,1463.03 421.764,1462.71 423.778,1462.35 425.792,1461.97 427.807,1461.55 
  429.821,1461.1 431.835,1460.62 433.85,1460.11 435.864,1459.56 437.879,1458.99 439.893,1458.39 441.907,1457.76 443.922,1457.1 445.936,1456.41 447.95,1455.69 
  449.965,1454.95 451.979,1454.17 453.994,1453.37 456.008,1452.54 458.022,1451.68 460.037,1450.79 462.051,1449.88 464.065,1448.94 466.08,1447.97 468.094,1446.97 
  470.109,1445.95 472.123,1444.9 474.137,1443.83 476.152,1442.73 478.166,1441.61 480.18,1440.46 482.195,1439.28 484.209,1438.08 486.224,1436.86 488.238,1435.61 
  490.252,1434.34 492.267,1433.04 494.281,1431.72 496.295,1430.37 498.31,1429.01 500.324,1427.62 502.339,1426.2 504.353,1424.77 506.367,1423.31 508.382,1421.83 
  510.396,1420.32 512.411,1418.8 514.425,1417.25 516.439,1415.68 518.454,1414.09 520.468,1412.48 522.482,1410.85 524.497,1409.2 526.511,1407.53 528.526,1405.83 
  530.54,1404.12 532.554,1402.39 534.569,1400.64 536.583,1398.87 538.597,1397.08 540.612,1395.27 542.626,1393.44 544.641,1391.59 546.655,1389.73 548.669,1387.84 
  550.684,1385.94 552.698,1384.02 554.712,1382.09 556.727,1380.13 558.741,1378.16 560.756,1376.17 562.77,1374.17 564.784,1372.15 566.799,1370.11 568.813,1368.06 
  570.827,1365.99 572.842,1363.9 574.856,1361.8 576.871,1359.68 578.885,1357.55 580.899,1355.4 582.914,1353.24 584.928,1351.06 586.942,1348.87 588.957,1346.67 
  590.971,1344.45 592.986,1342.22 595,1339.97 597.014,1337.71 599.029,1335.44 601.043,1333.15 603.057,1330.85 605.072,1328.54 607.086,1326.21 609.101,1323.87 
  611.115,1321.52 613.129,1319.16 615.144,1316.79 617.158,1314.4 619.172,1312.01 621.187,1309.6 623.201,1307.18 625.216,1304.75 627.23,1302.31 629.244,1299.86 
  631.259,1297.4 633.273,1294.92 635.287,1292.44 637.302,1289.95 639.316,1287.45 641.331,1284.94 643.345,1282.42 645.359,1279.89 647.374,1277.35 649.388,1274.8 
  651.402,1272.24 653.417,1269.68 655.431,1267.1 657.446,1264.52 659.46,1261.93 661.474,1259.34 663.489,1256.73 665.503,1254.12 667.517,1251.5 669.532,1248.87 
  671.546,1246.24 673.561,1243.6 675.575,1240.95 677.589,1238.3 679.604,1235.64 681.618,1232.97 683.632,1230.3 685.647,1227.62 687.661,1224.93 689.676,1222.24 
  691.69,1219.55 693.704,1216.85 695.719,1214.14 697.733,1211.43 699.747,1208.72 701.762,1206 703.776,1203.28 705.791,1200.55 707.805,1197.82 709.819,1195.08 
  711.834,1192.34 713.848,1189.6 715.862,1186.85 717.877,1184.1 719.891,1181.35 721.906,1178.59 723.92,1175.83 725.934,1173.07 727.949,1170.31 729.963,1167.54 
  731.978,1164.77 733.992,1162 736.006,1159.22 738.021,1156.45 740.035,1153.67 742.049,1150.89 744.064,1148.11 746.078,1145.33 748.093,1142.55 750.107,1139.77 
  752.121,1136.98 754.136,1134.2 756.15,1131.41 758.164,1128.63 760.179,1125.84 762.193,1123.06 764.208,1120.27 766.222,1117.48 768.236,1114.7 770.251,1111.91 
  772.265,1109.13 774.279,1106.35 776.294,1103.56 778.308,1100.78 780.323,1098 782.337,1095.22 784.351,1092.44 786.366,1089.67 788.38,1086.89 790.394,1084.12 
  792.409,1081.35 794.423,1078.58 796.438,1075.81 798.452,1073.05 800.466,1070.29 802.481,1067.53 804.495,1064.77 806.509,1062.01 808.524,1059.26 810.538,1056.52 
  812.553,1053.77 814.567,1051.03 816.581,1048.29 818.596,1045.56 820.61,1042.83 822.624,1040.1 824.639,1037.38 826.653,1034.66 828.668,1031.94 830.682,1029.23 
  832.696,1026.53 834.711,1023.83 836.725,1021.13 838.739,1018.44 840.754,1015.75 842.768,1013.07 844.783,1010.39 846.797,1007.72 848.811,1005.05 850.826,1002.39 
  852.84,999.739 854.854,997.089 856.869,994.446 858.883,991.808 860.898,989.177 862.912,986.552 864.926,983.933 866.941,981.32 868.955,978.714 870.969,976.115 
  872.984,973.522 874.998,970.937 877.013,968.358 879.027,965.786 881.041,963.221 883.056,960.664 885.07,958.114 887.084,955.571 889.099,953.036 891.113,950.509 
  893.128,947.989 895.142,945.478 897.156,942.974 899.171,940.479 901.185,937.991 903.199,935.512 905.214,933.041 907.228,930.579 909.243,928.126 911.257,925.681 
  913.271,923.245 915.286,920.817 917.3,918.399 919.314,915.99 921.329,913.59 923.343,911.199 925.358,908.818 927.372,906.446 929.386,904.084 931.401,901.731 
  933.415,899.388 935.429,897.055 937.444,894.731 939.458,892.418 941.473,890.115 943.487,887.822 945.501,885.539 947.516,883.267 949.53,881.005 951.545,878.754 
  953.559,876.513 955.573,874.283 957.588,872.064 959.602,869.855 961.616,867.658 963.631,865.471 965.645,863.296 967.66,861.132 969.674,858.979 971.688,856.838 
  973.703,854.708 975.717,852.589 977.731,850.482 979.746,848.387 981.76,846.304 983.775,844.232 985.789,842.173 987.803,840.125 989.818,838.089 991.832,836.066 
  993.846,834.055 995.861,832.056 997.875,830.069 999.89,828.095 1001.9,826.134 1003.92,824.185 1005.93,822.248 1007.95,820.325 1009.96,818.414 1011.98,816.516 
  1013.99,814.631 1016,812.759 1018.02,810.9 1020.03,809.054 1022.05,807.222 1024.06,805.402 1026.08,803.596 1028.09,801.804 1030.11,800.025 1032.12,798.259 
  1034.13,796.507 1036.15,794.769 1038.16,793.044 1040.18,791.333 1042.19,789.636 1044.21,787.953 1046.22,786.284 1048.23,784.629 1050.25,782.988 1052.26,781.361 
  1054.28,779.748 1056.29,778.15 1058.31,776.566 1060.32,774.996 1062.34,773.441 1064.35,771.9 1066.36,770.374 1068.38,768.862 1070.39,767.365 1072.41,765.882 
  1074.42,764.415 1076.44,762.962 1078.45,761.524 1080.46,760.101 1082.48,758.692 1084.49,757.299 1086.51,755.921 1088.52,754.558 1090.54,753.21 1092.55,751.877 
  1094.57,750.56 1096.58,749.258 1098.59,747.971 1100.61,746.699 1102.62,745.443 1104.64,744.202 1106.65,742.977 1108.67,741.767 1110.68,740.573 1112.69,739.395 
  1114.71,738.232 1116.72,737.085 1118.74,735.954 1120.75,734.838 1122.77,733.738 1124.78,732.654 1126.8,731.586 1128.81,730.534 1130.82,729.498 1132.84,728.478 
  1134.85,727.474 1136.87,726.486 1138.88,725.514 1140.9,724.558 1142.91,723.618 1144.92,722.695 1146.94,721.788 1148.95,720.897 1150.97,720.022 1152.98,719.164 
  1155,718.322 1157.01,717.496 1159.03,716.687 1161.04,715.894 1163.05,715.118 1165.07,714.358 1167.08,713.615 1169.1,712.888 1171.11,712.178 1173.13,711.484 
  1175.14,710.807 1177.15,710.147 1179.17,709.503 1181.18,708.876 1183.2,708.266 1185.21,707.672 1187.23,707.095 1189.24,706.535 1191.26,705.991 1193.27,705.465 
  1195.28,704.955 1197.3,704.462 1199.31,703.986 1201.33,703.527 1203.34,703.085 1205.36,702.659 1207.37,702.251 1209.38,701.859 1211.4,701.484 1213.41,701.127 
  1215.43,700.786 1217.44,700.462 1219.46,700.155 1221.47,699.865 1223.49,699.592 1225.5,699.337 1227.51,699.098 1229.53,698.876 1231.54,698.671 1233.56,698.483 
  1235.57,698.313 1237.59,698.159 1239.6,698.023 1241.61,697.903 1243.63,697.801 1245.64,697.715 1247.66,697.647 1249.67,697.596 1251.69,697.562 1253.7,697.544 
  1255.72,697.544 1257.73,697.562 1259.74,697.596 1261.76,697.647 1263.77,697.715 1265.79,697.801 1267.8,697.903 1269.82,698.023 1271.83,698.159 1273.84,698.313 
  1275.86,698.483 1277.87,698.671 1279.89,698.876 1281.9,699.098 1283.92,699.337 1285.93,699.592 1287.95,699.865 1289.96,700.155 1291.97,700.462 1293.99,700.786 
  1296,701.127 1298.02,701.484 1300.03,701.859 1302.05,702.251 1304.06,702.659 1306.07,703.085 1308.09,703.527 1310.1,703.986 1312.12,704.462 1314.13,704.955 
  1316.15,705.465 1318.16,705.991 1320.18,706.535 1322.19,707.095 1324.2,707.672 1326.22,708.266 1328.23,708.876 1330.25,709.503 1332.26,710.147 1334.28,710.807 
  1336.29,711.484 1338.3,712.178 1340.32,712.888 1342.33,713.615 1344.35,714.358 1346.36,715.118 1348.38,715.894 1350.39,716.687 1352.41,717.496 1354.42,718.322 
  1356.43,719.164 1358.45,720.022 1360.46,720.897 1362.48,721.788 1364.49,722.695 1366.51,723.618 1368.52,724.558 1370.53,725.514 1372.55,726.486 1374.56,727.474 
  1376.58,728.478 1378.59,729.498 1380.61,730.534 1382.62,731.586 1384.64,732.654 1386.65,733.738 1388.66,734.838 1390.68,735.954 1392.69,737.085 1394.71,738.232 
  1396.72,739.395 1398.74,740.573 1400.75,741.767 1402.76,742.977 1404.78,744.202 1406.79,745.443 1408.81,746.699 1410.82,747.971 1412.84,749.258 1414.85,750.56 
  1416.87,751.877 1418.88,753.21 1420.89,754.558 1422.91,755.921 1424.92,757.299 1426.94,758.692 1428.95,760.101 1430.97,761.524 1432.98,762.962 1434.99,764.415 
  1437.01,765.882 1439.02,767.365 1441.04,768.862 1443.05,770.374 1445.07,771.9 1447.08,773.441 1449.1,774.996 1451.11,776.566 1453.12,778.15 1455.14,779.748 
  1457.15,781.361 1459.17,782.988 1461.18,784.629 1463.2,786.284 1465.21,787.953 1467.22,789.636 1469.24,791.333 1471.25,793.044 1473.27,794.769 1475.28,796.507 
  1477.3,798.259 1479.31,800.025 1481.33,801.804 1483.34,803.596 1485.35,805.402 1487.37,807.222 1489.38,809.054 1491.4,810.9 1493.41,812.759 1495.43,814.631 
  1497.44,816.516 1499.45,818.414 1501.47,820.325 1503.48,822.248 1505.5,824.185 1507.51,826.134 1509.53,828.095 1511.54,830.069 1513.56,832.056 1515.57,834.055 
  1517.58,836.066 1519.6,838.089 1521.61,840.125 1523.63,842.173 1525.64,844.232 1527.66,846.304 1529.67,848.387 1531.68,850.482 1533.7,852.589 1535.71,854.708 
  1537.73,856.838 1539.74,858.979 1541.76,861.132 1543.77,863.296 1545.79,865.471 1547.8,867.658 1549.81,869.855 1551.83,872.064 1553.84,874.283 1555.86,876.513 
  1557.87,878.754 1559.89,881.005 1561.9,883.267 1563.91,885.539 1565.93,887.822 1567.94,890.115 1569.96,892.418 1571.97,894.731 1573.99,897.055 1576,899.388 
  1578.02,901.731 1580.03,904.084 1582.04,906.446 1584.06,908.818 1586.07,911.199 1588.09,913.59 1590.1,915.99 1592.12,918.399 1594.13,920.817 1596.14,923.245 
  1598.16,925.681 1600.17,928.126 1602.19,930.579 1604.2,933.041 1606.22,935.512 1608.23,937.991 1610.25,940.479 1612.26,942.974 1614.27,945.478 1616.29,947.989 
  1618.3,950.509 1620.32,953.036 1622.33,955.571 1624.35,958.114 1626.36,960.664 1628.37,963.221 1630.39,965.786 1632.4,968.358 1634.42,970.937 1636.43,973.522 
  1638.45,976.115 1640.46,978.714 1642.48,981.32 1644.49,983.933 1646.5,986.552 1648.52,989.177 1650.53,991.808 1652.55,994.446 1654.56,997.089 1656.58,999.739 
  1658.59,1002.39 1660.6,1005.05 1662.62,1007.72 1664.63,1010.39 1666.65,1013.07 1668.66,1015.75 1670.68,1018.44 1672.69,1021.13 1674.71,1023.83 1676.72,1026.53 
  1678.73,1029.23 1680.75,1031.94 1682.76,1034.66 1684.78,1037.38 1686.79,1040.1 1688.81,1042.83 1690.82,1045.56 1692.83,1048.29 1694.85,1051.03 1696.86,1053.77 
  1698.88,1056.52 1700.89,1059.26 1702.91,1062.01 1704.92,1064.77 1706.94,1067.53 1708.95,1070.29 1710.96,1073.05 1712.98,1075.81 1714.99,1078.58 1717.01,1081.35 
  1719.02,1084.12 1721.04,1086.89 1723.05,1089.67 1725.06,1092.44 1727.08,1095.22 1729.09,1098 1731.11,1100.78 1733.12,1103.56 1735.14,1106.35 1737.15,1109.13 
  1739.17,1111.91 1741.18,1114.7 1743.19,1117.48 1745.21,1120.27 1747.22,1123.06 1749.24,1125.84 1751.25,1128.63 1753.27,1131.41 1755.28,1134.2 1757.29,1136.98 
  1759.31,1139.77 1761.32,1142.55 1763.34,1145.33 1765.35,1148.11 1767.37,1150.89 1769.38,1153.67 1771.4,1156.45 1773.41,1159.22 1775.42,1162 1777.44,1164.77 
  1779.45,1167.54 1781.47,1170.31 1783.48,1173.07 1785.5,1175.83 1787.51,1178.59 1789.52,1181.35 1791.54,1184.1 1793.55,1186.85 1795.57,1189.6 1797.58,1192.34 
  1799.6,1195.08 1801.61,1197.82 1803.63,1200.55 1805.64,1203.28 1807.65,1206 1809.67,1208.72 1811.68,1211.43 1813.7,1214.14 1815.71,1216.85 1817.73,1219.55 
  1819.74,1222.24 1821.75,1224.93 1823.77,1227.62 1825.78,1230.3 1827.8,1232.97 1829.81,1235.64 1831.83,1238.3 1833.84,1240.95 1835.86,1243.6 1837.87,1246.24 
  1839.88,1248.87 1841.9,1251.5 1843.91,1254.12 1845.93,1256.73 1847.94,1259.34 1849.96,1261.93 1851.97,1264.52 1853.99,1267.1 1856,1269.68 1858.01,1272.24 
  1860.03,1274.8 1862.04,1277.35 1864.06,1279.89 1866.07,1282.42 1868.09,1284.94 1870.1,1287.45 1872.11,1289.95 1874.13,1292.44 1876.14,1294.92 1878.16,1297.4 
  1880.17,1299.86 1882.19,1302.31 1884.2,1304.75 1886.22,1307.18 1888.23,1309.6 1890.24,1312.01 1892.26,1314.4 1894.27,1316.79 1896.29,1319.16 1898.3,1321.52 
  1900.32,1323.87 1902.33,1326.21 1904.34,1328.54 1906.36,1330.85 1908.37,1333.15 1910.39,1335.44 1912.4,1337.71 1914.42,1339.97 1916.43,1342.22 1918.45,1344.45 
  1920.46,1346.67 1922.47,1348.87 1924.49,1351.06 1926.5,1353.24 1928.52,1355.4 1930.53,1357.55 1932.55,1359.68 1934.56,1361.8 1936.57,1363.9 1938.59,1365.99 
  1940.6,1368.06 1942.62,1370.11 1944.63,1372.15 1946.65,1374.17 1948.66,1376.17 1950.68,1378.16 1952.69,1380.13 1954.7,1382.09 1956.72,1384.02 1958.73,1385.94 
  1960.75,1387.84 1962.76,1389.73 1964.78,1391.59 1966.79,1393.44 1968.8,1395.27 1970.82,1397.08 1972.83,1398.87 1974.85,1400.64 1976.86,1402.39 1978.88,1404.12 
  1980.89,1405.83 1982.91,1407.53 1984.92,1409.2 1986.93,1410.85 1988.95,1412.48 1990.96,1414.09 1992.98,1415.68 1994.99,1417.25 1997.01,1418.8 1999.02,1420.32 
  2001.03,1421.83 2003.05,1423.31 2005.06,1424.77 2007.08,1426.2 2009.09,1427.62 2011.11,1429.01 2013.12,1430.37 2015.14,1431.72 2017.15,1433.04 2019.16,1434.34 
  2021.18,1435.61 2023.19,1436.86 2025.21,1438.08 2027.22,1439.28 2029.24,1440.46 2031.25,1441.61 2033.26,1442.73 2035.28,1443.83 2037.29,1444.9 2039.31,1445.95 
  2041.32,1446.97 2043.34,1447.97 2045.35,1448.94 2047.37,1449.88 2049.38,1450.79 2051.39,1451.68 2053.41,1452.54 2055.42,1453.37 2057.44,1454.17 2059.45,1454.95 
  2061.47,1455.69 2063.48,1456.41 2065.49,1457.1 2067.51,1457.76 2069.52,1458.39 2071.54,1458.99 2073.55,1459.56 2075.57,1460.11 2077.58,1460.62 2079.6,1461.1 
  2081.61,1461.55 2083.62,1461.97 2085.64,1462.35 2087.65,1462.71 2089.67,1463.03 2091.68,1463.33 2093.7,1463.59 2095.71,1463.81 2097.72,1464.01 2099.74,1464.17 
  2101.75,1464.3 2103.77,1464.4 2105.78,1464.46 2107.8,1464.49 2109.81,1464.48 2111.83,1464.44 2113.84,1464.37 2115.85,1464.26 2117.87,1464.12 2119.88,1463.94 
  2121.9,1463.72 2123.91,1463.47 2125.93,1463.18 2127.94,1462.86 2129.95,1462.5 2131.97,1462.1 2133.98,1461.67 2136,1461.2 2138.01,1460.69 2140.03,1460.15 
  2142.04,1459.56 2144.06,1458.94 2146.07,1458.28 2148.08,1457.58 2150.1,1456.84 2152.11,1456.06 2154.13,1455.25 2156.14,1454.39 2158.16,1453.49 2160.17,1452.56 
  2162.18,1451.58 2164.2,1450.56 2166.21,1449.5 2168.23,1448.4 2170.24,1447.26 2172.26,1446.07 2174.27,1444.84 2176.29,1443.58 2178.3,1442.26 2180.31,1440.91 
  2182.33,1439.51 2184.34,1438.07 2186.36,1436.59 2188.37,1435.06 2190.39,1433.48 2192.4,1431.87 2194.41,1430.21 2196.43,1428.5 2198.44,1426.75 2200.46,1424.95 
  2202.47,1423.1 2204.49,1421.22 2206.5,1419.28 2208.52,1417.3 2210.53,1415.27 2212.54,1413.19 2214.56,1411.07 2216.57,1408.9 2218.59,1406.68 2220.6,1404.41 
  2222.62,1402.09 2224.63,1399.73 2226.64,1397.31 2228.66,1394.85 2230.67,1392.34 2232.69,1389.77 2234.7,1387.16 2236.72,1384.5 2238.73,1381.78 2240.75,1379.02 
  2242.76,1376.2 2244.77,1373.33 2246.79,1370.41 2248.8,1367.44 2250.82,1364.42 2252.83,1361.34 2254.85,1358.21 2256.86,1355.03 2258.87,1351.79 2260.89,1348.5 
  
  "/>
<polygon clip-path="url(#clip8101)" points="
1685.51,451.424 2249.26,451.424 2249.26,209.504 1685.51,209.504 
  " fill="#ffffff" fill-rule="evenodd" fill-opacity="1"/>
<polyline clip-path="url(#clip8101)" style="stroke:#000000; stroke-width:4; stroke-opacity:1; fill:none" points="
  1685.51,451.424 2249.26,451.424 2249.26,209.504 1685.51,209.504 1685.51,451.424 
  "/>
<polyline clip-path="url(#clip8101)" style="stroke:#009af9; stroke-width:4; stroke-opacity:1; fill:none" points="
  1709.51,269.984 1853.51,269.984 
  "/>
<g clip-path="url(#clip8101)">
<text style="fill:#000000; fill-opacity:1; font-family:Arial,Helvetica Neue,Helvetica,sans-serif; font-size:48px; text-anchor:start;" transform="rotate(0, 1877.51, 287.484)" x="1877.51" y="287.484">Runge function</text>
</g>
<circle clip-path="url(#clip8101)" style="fill:#000000; stroke:none; fill-opacity:1" cx="1793.51" cy="330.464" r="25"/>
<circle clip-path="url(#clip8101)" style="fill:#e26f46; stroke:none; fill-opacity:1" cx="1793.51" cy="330.464" r="21"/>
<g clip-path="url(#clip8101)">
<text style="fill:#000000; fill-opacity:1; font-family:Arial,Helvetica Neue,Helvetica,sans-serif; font-size:48px; text-anchor:start;" transform="rotate(0, 1877.51, 347.964)" x="1877.51" y="347.964">Nodes</text>
</g>
<polyline clip-path="url(#clip8101)" style="stroke:#3da44d; stroke-width:4; stroke-opacity:1; fill:none" points="
  1709.51,390.944 1853.51,390.944 
  "/>
<g clip-path="url(#clip8101)">
<text style="fill:#000000; fill-opacity:1; font-family:Arial,Helvetica Neue,Helvetica,sans-serif; font-size:48px; text-anchor:start;" transform="rotate(0, 1877.51, 408.444)" x="1877.51" y="408.444">Intepolation</text>
</g>
</svg>
