<?xml version="1.0" encoding="utf-8"?>
<svg xmlns="http://www.w3.org/2000/svg" xmlns:xlink="http://www.w3.org/1999/xlink" width="600" height="400" viewBox="0 0 2400 1600">
<defs>
  <clipPath id="clip5500">
    <rect x="0" y="0" width="2000" height="2000"/>
  </clipPath>
</defs>
<defs>
  <clipPath id="clip5501">
    <rect x="0" y="0" width="2400" height="1600"/>
  </clipPath>
</defs>
<polygon clip-path="url(#clip5501)" points="
0,1600 2400,1600 2400,0 0,0 
  " fill="#ffffff" fill-rule="evenodd" fill-opacity="1"/>
<defs>
  <clipPath id="clip5502">
    <rect x="480" y="0" width="1681" height="1600"/>
  </clipPath>
</defs>
<polygon clip-path="url(#clip5501)" points="
176.123,1503.47 2321.26,1503.47 2321.26,125.984 176.123,125.984 
  " fill="#ffffff" fill-rule="evenodd" fill-opacity="1"/>
<defs>
  <clipPath id="clip5503">
    <rect x="176" y="125" width="2146" height="1378"/>
  </clipPath>
</defs>
<polyline clip-path="url(#clip5503)" style="stroke:#000000; stroke-width:2; stroke-opacity:0.1; fill:none" points="
  236.834,1503.47 236.834,125.984 
  "/>
<polyline clip-path="url(#clip5503)" style="stroke:#000000; stroke-width:2; stroke-opacity:0.1; fill:none" points="
  742.763,1503.47 742.763,125.984 
  "/>
<polyline clip-path="url(#clip5503)" style="stroke:#000000; stroke-width:2; stroke-opacity:0.1; fill:none" points="
  1248.69,1503.47 1248.69,125.984 
  "/>
<polyline clip-path="url(#clip5503)" style="stroke:#000000; stroke-width:2; stroke-opacity:0.1; fill:none" points="
  1754.62,1503.47 1754.62,125.984 
  "/>
<polyline clip-path="url(#clip5503)" style="stroke:#000000; stroke-width:2; stroke-opacity:0.1; fill:none" points="
  2260.55,1503.47 2260.55,125.984 
  "/>
<polyline clip-path="url(#clip5503)" style="stroke:#000000; stroke-width:2; stroke-opacity:0.1; fill:none" points="
  176.123,1288.66 2321.26,1288.66 
  "/>
<polyline clip-path="url(#clip5503)" style="stroke:#000000; stroke-width:2; stroke-opacity:0.1; fill:none" points="
  176.123,945.465 2321.26,945.465 
  "/>
<polyline clip-path="url(#clip5503)" style="stroke:#000000; stroke-width:2; stroke-opacity:0.1; fill:none" points="
  176.123,602.274 2321.26,602.274 
  "/>
<polyline clip-path="url(#clip5503)" style="stroke:#000000; stroke-width:2; stroke-opacity:0.1; fill:none" points="
  176.123,259.083 2321.26,259.083 
  "/>
<polyline clip-path="url(#clip5501)" style="stroke:#000000; stroke-width:4; stroke-opacity:1; fill:none" points="
  176.123,1503.47 2321.26,1503.47 
  "/>
<polyline clip-path="url(#clip5501)" style="stroke:#000000; stroke-width:4; stroke-opacity:1; fill:none" points="
  176.123,1503.47 176.123,125.984 
  "/>
<polyline clip-path="url(#clip5501)" style="stroke:#000000; stroke-width:4; stroke-opacity:1; fill:none" points="
  236.834,1503.47 236.834,1482.81 
  "/>
<polyline clip-path="url(#clip5501)" style="stroke:#000000; stroke-width:4; stroke-opacity:1; fill:none" points="
  742.763,1503.47 742.763,1482.81 
  "/>
<polyline clip-path="url(#clip5501)" style="stroke:#000000; stroke-width:4; stroke-opacity:1; fill:none" points="
  1248.69,1503.47 1248.69,1482.81 
  "/>
<polyline clip-path="url(#clip5501)" style="stroke:#000000; stroke-width:4; stroke-opacity:1; fill:none" points="
  1754.62,1503.47 1754.62,1482.81 
  "/>
<polyline clip-path="url(#clip5501)" style="stroke:#000000; stroke-width:4; stroke-opacity:1; fill:none" points="
  2260.55,1503.47 2260.55,1482.81 
  "/>
<polyline clip-path="url(#clip5501)" style="stroke:#000000; stroke-width:4; stroke-opacity:1; fill:none" points="
  176.123,1288.66 208.3,1288.66 
  "/>
<polyline clip-path="url(#clip5501)" style="stroke:#000000; stroke-width:4; stroke-opacity:1; fill:none" points="
  176.123,945.465 208.3,945.465 
  "/>
<polyline clip-path="url(#clip5501)" style="stroke:#000000; stroke-width:4; stroke-opacity:1; fill:none" points="
  176.123,602.274 208.3,602.274 
  "/>
<polyline clip-path="url(#clip5501)" style="stroke:#000000; stroke-width:4; stroke-opacity:1; fill:none" points="
  176.123,259.083 208.3,259.083 
  "/>
<g clip-path="url(#clip5501)">
<text style="fill:#000000; fill-opacity:1; font-family:Arial,Helvetica Neue,Helvetica,sans-serif; font-size:48px; text-anchor:middle;" transform="rotate(0, 236.834, 1557.47)" x="236.834" y="1557.47">-1.0</text>
</g>
<g clip-path="url(#clip5501)">
<text style="fill:#000000; fill-opacity:1; font-family:Arial,Helvetica Neue,Helvetica,sans-serif; font-size:48px; text-anchor:middle;" transform="rotate(0, 742.763, 1557.47)" x="742.763" y="1557.47">-0.5</text>
</g>
<g clip-path="url(#clip5501)">
<text style="fill:#000000; fill-opacity:1; font-family:Arial,Helvetica Neue,Helvetica,sans-serif; font-size:48px; text-anchor:middle;" transform="rotate(0, 1248.69, 1557.47)" x="1248.69" y="1557.47">0.0</text>
</g>
<g clip-path="url(#clip5501)">
<text style="fill:#000000; fill-opacity:1; font-family:Arial,Helvetica Neue,Helvetica,sans-serif; font-size:48px; text-anchor:middle;" transform="rotate(0, 1754.62, 1557.47)" x="1754.62" y="1557.47">0.5</text>
</g>
<g clip-path="url(#clip5501)">
<text style="fill:#000000; fill-opacity:1; font-family:Arial,Helvetica Neue,Helvetica,sans-serif; font-size:48px; text-anchor:middle;" transform="rotate(0, 2260.55, 1557.47)" x="2260.55" y="1557.47">1.0</text>
</g>
<g clip-path="url(#clip5501)">
<text style="fill:#000000; fill-opacity:1; font-family:Arial,Helvetica Neue,Helvetica,sans-serif; font-size:48px; text-anchor:end;" transform="rotate(0, 152.123, 1306.16)" x="152.123" y="1306.16">-15</text>
</g>
<g clip-path="url(#clip5501)">
<text style="fill:#000000; fill-opacity:1; font-family:Arial,Helvetica Neue,Helvetica,sans-serif; font-size:48px; text-anchor:end;" transform="rotate(0, 152.123, 962.965)" x="152.123" y="962.965">-10</text>
</g>
<g clip-path="url(#clip5501)">
<text style="fill:#000000; fill-opacity:1; font-family:Arial,Helvetica Neue,Helvetica,sans-serif; font-size:48px; text-anchor:end;" transform="rotate(0, 152.123, 619.774)" x="152.123" y="619.774">-5</text>
</g>
<g clip-path="url(#clip5501)">
<text style="fill:#000000; fill-opacity:1; font-family:Arial,Helvetica Neue,Helvetica,sans-serif; font-size:48px; text-anchor:end;" transform="rotate(0, 152.123, 276.583)" x="152.123" y="276.583">0</text>
</g>
<g clip-path="url(#clip5501)">
<text style="fill:#000000; fill-opacity:1; font-family:Arial,Helvetica Neue,Helvetica,sans-serif; font-size:84px; text-anchor:middle;" transform="rotate(0, 1248.69, 73.2)" x="1248.69" y="73.2">Runge&apos;s phenomenon (Nodes = 22)</text>
</g>
<polyline clip-path="url(#clip5503)" style="stroke:#009af9; stroke-width:4; stroke-opacity:1; fill:none" points="
  236.834,256.443 238.86,256.433 240.886,256.422 242.912,256.412 244.937,256.402 246.963,256.391 248.989,256.381 251.015,256.37 253.04,256.36 255.066,256.349 
  257.092,256.338 259.118,256.327 261.143,256.317 263.169,256.306 265.195,256.295 267.22,256.284 269.246,256.273 271.272,256.261 273.298,256.25 275.323,256.239 
  277.349,256.227 279.375,256.216 281.401,256.204 283.426,256.193 285.452,256.181 287.478,256.169 289.504,256.158 291.529,256.146 293.555,256.134 295.581,256.122 
  297.607,256.11 299.632,256.098 301.658,256.085 303.684,256.073 305.71,256.061 307.735,256.048 309.761,256.036 311.787,256.023 313.812,256.01 315.838,255.998 
  317.864,255.985 319.89,255.972 321.915,255.959 323.941,255.946 325.967,255.933 327.993,255.92 330.018,255.906 332.044,255.893 334.07,255.879 336.096,255.866 
  338.121,255.852 340.147,255.838 342.173,255.825 344.199,255.811 346.224,255.797 348.25,255.783 350.276,255.768 352.302,255.754 354.327,255.74 356.353,255.725 
  358.379,255.711 360.405,255.696 362.43,255.681 364.456,255.667 366.482,255.652 368.507,255.637 370.533,255.621 372.559,255.606 374.585,255.591 376.61,255.576 
  378.636,255.56 380.662,255.544 382.688,255.529 384.713,255.513 386.739,255.497 388.765,255.481 390.791,255.465 392.816,255.449 394.842,255.432 396.868,255.416 
  398.894,255.399 400.919,255.382 402.945,255.366 404.971,255.349 406.997,255.332 409.022,255.315 411.048,255.297 413.074,255.28 415.099,255.263 417.125,255.245 
  419.151,255.227 421.177,255.209 423.202,255.192 425.228,255.173 427.254,255.155 429.28,255.137 431.305,255.118 433.331,255.1 435.357,255.081 437.383,255.062 
  439.408,255.043 441.434,255.024 443.46,255.005 445.486,254.986 447.511,254.966 449.537,254.947 451.563,254.927 453.589,254.907 455.614,254.887 457.64,254.867 
  459.666,254.846 461.691,254.826 463.717,254.805 465.743,254.784 467.769,254.763 469.794,254.742 471.82,254.721 473.846,254.7 475.872,254.678 477.897,254.657 
  479.923,254.635 481.949,254.613 483.975,254.591 486,254.568 488.026,254.546 490.052,254.523 492.078,254.5 494.103,254.477 496.129,254.454 498.155,254.431 
  500.181,254.407 502.206,254.384 504.232,254.36 506.258,254.336 508.284,254.312 510.309,254.287 512.335,254.263 514.361,254.238 516.386,254.213 518.412,254.188 
  520.438,254.162 522.464,254.137 524.489,254.111 526.515,254.085 528.541,254.059 530.567,254.033 532.592,254.006 534.618,253.98 536.644,253.953 538.67,253.926 
  540.695,253.898 542.721,253.871 544.747,253.843 546.773,253.815 548.798,253.787 550.824,253.759 552.85,253.73 554.876,253.701 556.901,253.672 558.927,253.643 
  560.953,253.613 562.978,253.583 565.004,253.553 567.03,253.523 569.056,253.493 571.081,253.462 573.107,253.431 575.133,253.4 577.159,253.368 579.184,253.337 
  581.21,253.305 583.236,253.272 585.262,253.24 587.287,253.207 589.313,253.174 591.339,253.141 593.365,253.107 595.39,253.073 597.416,253.039 599.442,253.005 
  601.468,252.97 603.493,252.935 605.519,252.9 607.545,252.864 609.57,252.828 611.596,252.792 613.622,252.755 615.648,252.719 617.673,252.682 619.699,252.644 
  621.725,252.606 623.751,252.568 625.776,252.53 627.802,252.491 629.828,252.452 631.854,252.413 633.879,252.373 635.905,252.333 637.931,252.293 639.957,252.252 
  641.982,252.211 644.008,252.169 646.034,252.127 648.06,252.085 650.085,252.043 652.111,252 654.137,251.956 656.163,251.913 658.188,251.869 660.214,251.824 
  662.24,251.779 664.265,251.734 666.291,251.688 668.317,251.642 670.343,251.596 672.368,251.549 674.394,251.501 676.42,251.453 678.446,251.405 680.471,251.357 
  682.497,251.307 684.523,251.258 686.549,251.208 688.574,251.157 690.6,251.106 692.626,251.055 694.652,251.003 696.677,250.951 698.703,250.898 700.729,250.845 
  702.755,250.791 704.78,250.736 706.806,250.682 708.832,250.626 710.857,250.57 712.883,250.514 714.909,250.457 716.935,250.399 718.96,250.341 720.986,250.283 
  723.012,250.223 725.038,250.164 727.063,250.103 729.089,250.042 731.115,249.981 733.141,249.919 735.166,249.856 737.192,249.793 739.218,249.729 741.244,249.664 
  743.269,249.599 745.295,249.533 747.321,249.467 749.347,249.4 751.372,249.332 753.398,249.263 755.424,249.194 757.449,249.124 759.475,249.054 761.501,248.982 
  763.527,248.91 765.552,248.838 767.578,248.764 769.604,248.69 771.63,248.615 773.655,248.539 775.681,248.463 777.707,248.386 779.733,248.308 781.758,248.229 
  783.784,248.149 785.81,248.068 787.836,247.987 789.861,247.905 791.887,247.822 793.913,247.738 795.939,247.653 797.964,247.567 799.99,247.481 802.016,247.393 
  804.042,247.305 806.067,247.215 808.093,247.125 810.119,247.034 812.144,246.942 814.17,246.848 816.196,246.754 818.222,246.659 820.247,246.563 822.273,246.465 
  824.299,246.367 826.325,246.267 828.35,246.167 830.376,246.065 832.402,245.963 834.428,245.859 836.453,245.754 838.479,245.648 840.505,245.54 842.531,245.432 
  844.556,245.322 846.582,245.211 848.608,245.099 850.634,244.986 852.659,244.871 854.685,244.755 856.711,244.638 858.736,244.519 860.762,244.399 862.788,244.278 
  864.814,244.156 866.839,244.032 868.865,243.906 870.891,243.78 872.917,243.651 874.942,243.522 876.968,243.39 878.994,243.258 881.02,243.123 883.045,242.988 
  885.071,242.85 887.097,242.712 889.123,242.571 891.148,242.429 893.174,242.285 895.2,242.14 897.226,241.993 899.251,241.844 901.277,241.693 903.303,241.541 
  905.329,241.387 907.354,241.231 909.38,241.073 911.406,240.914 913.431,240.752 915.457,240.589 917.483,240.424 919.509,240.257 921.534,240.088 923.56,239.916 
  925.586,239.743 927.612,239.568 929.637,239.391 931.663,239.211 933.689,239.03 935.715,238.846 937.74,238.661 939.766,238.472 941.792,238.282 943.818,238.09 
  945.843,237.895 947.869,237.698 949.895,237.498 951.921,237.297 953.946,237.092 955.972,236.886 957.998,236.677 960.023,236.465 962.049,236.251 964.075,236.034 
  966.101,235.815 968.126,235.593 970.152,235.369 972.178,235.142 974.204,234.912 976.229,234.679 978.255,234.444 980.281,234.206 982.307,233.965 984.332,233.722 
  986.358,233.475 988.384,233.226 990.41,232.974 992.435,232.718 994.461,232.46 996.487,232.199 998.513,231.935 1000.54,231.667 1002.56,231.397 1004.59,231.124 
  1006.62,230.847 1008.64,230.567 1010.67,230.284 1012.69,229.998 1014.72,229.709 1016.74,229.416 1018.77,229.12 1020.8,228.821 1022.82,228.519 1024.85,228.213 
  1026.87,227.904 1028.9,227.591 1030.92,227.276 1032.95,226.956 1034.98,226.634 1037,226.308 1039.03,225.978 1041.05,225.645 1043.08,225.309 1045.1,224.969 
  1047.13,224.626 1049.16,224.279 1051.18,223.929 1053.21,223.576 1055.23,223.219 1057.26,222.859 1059.28,222.495 1061.31,222.128 1063.34,221.757 1065.36,221.383 
  1067.39,221.006 1069.41,220.626 1071.44,220.242 1073.46,219.855 1075.49,219.465 1077.52,219.071 1079.54,218.675 1081.57,218.275 1083.59,217.872 1085.62,217.467 
  1087.65,217.058 1089.67,216.647 1091.7,216.233 1093.72,215.816 1095.75,215.397 1097.77,214.975 1099.8,214.55 1101.83,214.124 1103.85,213.695 1105.88,213.264 
  1107.9,212.83 1109.93,212.395 1111.95,211.959 1113.98,211.52 1116.01,211.08 1118.03,210.639 1120.06,210.196 1122.08,209.753 1124.11,209.308 1126.13,208.863 
  1128.16,208.417 1130.19,207.971 1132.21,207.525 1134.24,207.079 1136.26,206.633 1138.29,206.187 1140.31,205.743 1142.34,205.299 1144.37,204.856 1146.39,204.414 
  1148.42,203.975 1150.44,203.537 1152.47,203.101 1154.49,202.667 1156.52,202.237 1158.55,201.809 1160.57,201.384 1162.6,200.963 1164.62,200.546 1166.65,200.133 
  1168.67,199.725 1170.7,199.321 1172.73,198.922 1174.75,198.528 1176.78,198.14 1178.8,197.758 1180.83,197.383 1182.85,197.014 1184.88,196.652 1186.91,196.297 
  1188.93,195.95 1190.96,195.61 1192.98,195.279 1195.01,194.957 1197.04,194.643 1199.06,194.339 1201.09,194.044 1203.11,193.758 1205.14,193.483 1207.16,193.218 
  1209.19,192.964 1211.22,192.72 1213.24,192.488 1215.27,192.267 1217.29,192.058 1219.32,191.861 1221.34,191.676 1223.37,191.503 1225.4,191.342 1227.42,191.195 
  1229.45,191.06 1231.47,190.938 1233.5,190.829 1235.52,190.734 1237.55,190.652 1239.58,190.584 1241.6,190.529 1243.63,190.488 1245.65,190.46 1247.68,190.446 
  1249.7,190.446 1251.73,190.46 1253.76,190.488 1255.78,190.529 1257.81,190.584 1259.83,190.652 1261.86,190.734 1263.88,190.829 1265.91,190.938 1267.94,191.06 
  1269.96,191.195 1271.99,191.342 1274.01,191.503 1276.04,191.676 1278.06,191.861 1280.09,192.058 1282.12,192.267 1284.14,192.488 1286.17,192.72 1288.19,192.964 
  1290.22,193.218 1292.24,193.483 1294.27,193.758 1296.3,194.044 1298.32,194.339 1300.35,194.643 1302.37,194.957 1304.4,195.279 1306.42,195.61 1308.45,195.95 
  1310.48,196.297 1312.5,196.652 1314.53,197.014 1316.55,197.383 1318.58,197.758 1320.61,198.14 1322.63,198.528 1324.66,198.922 1326.68,199.321 1328.71,199.725 
  1330.73,200.133 1332.76,200.546 1334.79,200.963 1336.81,201.384 1338.84,201.809 1340.86,202.237 1342.89,202.667 1344.91,203.101 1346.94,203.537 1348.97,203.975 
  1350.99,204.414 1353.02,204.856 1355.04,205.299 1357.07,205.743 1359.09,206.187 1361.12,206.633 1363.15,207.079 1365.17,207.525 1367.2,207.971 1369.22,208.417 
  1371.25,208.863 1373.27,209.308 1375.3,209.753 1377.33,210.196 1379.35,210.639 1381.38,211.08 1383.4,211.52 1385.43,211.959 1387.45,212.395 1389.48,212.83 
  1391.51,213.264 1393.53,213.695 1395.56,214.124 1397.58,214.55 1399.61,214.975 1401.63,215.397 1403.66,215.816 1405.69,216.233 1407.71,216.647 1409.74,217.058 
  1411.76,217.467 1413.79,217.872 1415.81,218.275 1417.84,218.675 1419.87,219.071 1421.89,219.465 1423.92,219.855 1425.94,220.242 1427.97,220.626 1430,221.006 
  1432.02,221.383 1434.05,221.757 1436.07,222.128 1438.1,222.495 1440.12,222.859 1442.15,223.219 1444.18,223.576 1446.2,223.929 1448.23,224.279 1450.25,224.626 
  1452.28,224.969 1454.3,225.309 1456.33,225.645 1458.36,225.978 1460.38,226.308 1462.41,226.634 1464.43,226.956 1466.46,227.276 1468.48,227.591 1470.51,227.904 
  1472.54,228.213 1474.56,228.519 1476.59,228.821 1478.61,229.12 1480.64,229.416 1482.66,229.709 1484.69,229.998 1486.72,230.284 1488.74,230.567 1490.77,230.847 
  1492.79,231.124 1494.82,231.397 1496.84,231.667 1498.87,231.935 1500.9,232.199 1502.92,232.46 1504.95,232.718 1506.97,232.974 1509,233.226 1511.02,233.475 
  1513.05,233.722 1515.08,233.965 1517.1,234.206 1519.13,234.444 1521.15,234.679 1523.18,234.912 1525.2,235.142 1527.23,235.369 1529.26,235.593 1531.28,235.815 
  1533.31,236.034 1535.33,236.251 1537.36,236.465 1539.39,236.677 1541.41,236.886 1543.44,237.092 1545.46,237.297 1547.49,237.498 1549.51,237.698 1551.54,237.895 
  1553.57,238.09 1555.59,238.282 1557.62,238.472 1559.64,238.661 1561.67,238.846 1563.69,239.03 1565.72,239.211 1567.75,239.391 1569.77,239.568 1571.8,239.743 
  1573.82,239.916 1575.85,240.088 1577.87,240.257 1579.9,240.424 1581.93,240.589 1583.95,240.752 1585.98,240.914 1588,241.073 1590.03,241.231 1592.05,241.387 
  1594.08,241.541 1596.11,241.693 1598.13,241.844 1600.16,241.993 1602.18,242.14 1604.21,242.285 1606.23,242.429 1608.26,242.571 1610.29,242.712 1612.31,242.85 
  1614.34,242.988 1616.36,243.123 1618.39,243.258 1620.41,243.39 1622.44,243.522 1624.47,243.651 1626.49,243.78 1628.52,243.906 1630.54,244.032 1632.57,244.156 
  1634.59,244.278 1636.62,244.399 1638.65,244.519 1640.67,244.638 1642.7,244.755 1644.72,244.871 1646.75,244.986 1648.78,245.099 1650.8,245.211 1652.83,245.322 
  1654.85,245.432 1656.88,245.54 1658.9,245.648 1660.93,245.754 1662.96,245.859 1664.98,245.963 1667.01,246.065 1669.03,246.167 1671.06,246.267 1673.08,246.367 
  1675.11,246.465 1677.14,246.563 1679.16,246.659 1681.19,246.754 1683.21,246.848 1685.24,246.942 1687.26,247.034 1689.29,247.125 1691.32,247.215 1693.34,247.305 
  1695.37,247.393 1697.39,247.481 1699.42,247.567 1701.44,247.653 1703.47,247.738 1705.5,247.822 1707.52,247.905 1709.55,247.987 1711.57,248.068 1713.6,248.149 
  1715.62,248.229 1717.65,248.308 1719.68,248.386 1721.7,248.463 1723.73,248.539 1725.75,248.615 1727.78,248.69 1729.8,248.764 1731.83,248.838 1733.86,248.91 
  1735.88,248.982 1737.91,249.054 1739.93,249.124 1741.96,249.194 1743.98,249.263 1746.01,249.332 1748.04,249.4 1750.06,249.467 1752.09,249.533 1754.11,249.599 
  1756.14,249.664 1758.16,249.729 1760.19,249.793 1762.22,249.856 1764.24,249.919 1766.27,249.981 1768.29,250.042 1770.32,250.103 1772.35,250.164 1774.37,250.223 
  1776.4,250.283 1778.42,250.341 1780.45,250.399 1782.47,250.457 1784.5,250.514 1786.53,250.57 1788.55,250.626 1790.58,250.682 1792.6,250.736 1794.63,250.791 
  1796.65,250.845 1798.68,250.898 1800.71,250.951 1802.73,251.003 1804.76,251.055 1806.78,251.106 1808.81,251.157 1810.83,251.208 1812.86,251.258 1814.89,251.307 
  1816.91,251.357 1818.94,251.405 1820.96,251.453 1822.99,251.501 1825.01,251.549 1827.04,251.596 1829.07,251.642 1831.09,251.688 1833.12,251.734 1835.14,251.779 
  1837.17,251.824 1839.19,251.869 1841.22,251.913 1843.25,251.956 1845.27,252 1847.3,252.043 1849.32,252.085 1851.35,252.127 1853.37,252.169 1855.4,252.211 
  1857.43,252.252 1859.45,252.293 1861.48,252.333 1863.5,252.373 1865.53,252.413 1867.55,252.452 1869.58,252.491 1871.61,252.53 1873.63,252.568 1875.66,252.606 
  1877.68,252.644 1879.71,252.682 1881.74,252.719 1883.76,252.755 1885.79,252.792 1887.81,252.828 1889.84,252.864 1891.86,252.9 1893.89,252.935 1895.92,252.97 
  1897.94,253.005 1899.97,253.039 1901.99,253.073 1904.02,253.107 1906.04,253.141 1908.07,253.174 1910.1,253.207 1912.12,253.24 1914.15,253.272 1916.17,253.305 
  1918.2,253.337 1920.22,253.368 1922.25,253.4 1924.28,253.431 1926.3,253.462 1928.33,253.493 1930.35,253.523 1932.38,253.553 1934.4,253.583 1936.43,253.613 
  1938.46,253.643 1940.48,253.672 1942.51,253.701 1944.53,253.73 1946.56,253.759 1948.58,253.787 1950.61,253.815 1952.64,253.843 1954.66,253.871 1956.69,253.898 
  1958.71,253.926 1960.74,253.953 1962.76,253.98 1964.79,254.006 1966.82,254.033 1968.84,254.059 1970.87,254.085 1972.89,254.111 1974.92,254.137 1976.94,254.162 
  1978.97,254.188 1981,254.213 1983.02,254.238 1985.05,254.263 1987.07,254.287 1989.1,254.312 1991.13,254.336 1993.15,254.36 1995.18,254.384 1997.2,254.407 
  1999.23,254.431 2001.25,254.454 2003.28,254.477 2005.31,254.5 2007.33,254.523 2009.36,254.546 2011.38,254.568 2013.41,254.591 2015.43,254.613 2017.46,254.635 
  2019.49,254.657 2021.51,254.678 2023.54,254.7 2025.56,254.721 2027.59,254.742 2029.61,254.763 2031.64,254.784 2033.67,254.805 2035.69,254.826 2037.72,254.846 
  2039.74,254.867 2041.77,254.887 2043.79,254.907 2045.82,254.927 2047.85,254.947 2049.87,254.966 2051.9,254.986 2053.92,255.005 2055.95,255.024 2057.97,255.043 
  2060,255.062 2062.03,255.081 2064.05,255.1 2066.08,255.118 2068.1,255.137 2070.13,255.155 2072.15,255.173 2074.18,255.192 2076.21,255.209 2078.23,255.227 
  2080.26,255.245 2082.28,255.263 2084.31,255.28 2086.33,255.297 2088.36,255.315 2090.39,255.332 2092.41,255.349 2094.44,255.366 2096.46,255.382 2098.49,255.399 
  2100.51,255.416 2102.54,255.432 2104.57,255.449 2106.59,255.465 2108.62,255.481 2110.64,255.497 2112.67,255.513 2114.7,255.529 2116.72,255.544 2118.75,255.56 
  2120.77,255.576 2122.8,255.591 2124.82,255.606 2126.85,255.621 2128.88,255.637 2130.9,255.652 2132.93,255.667 2134.95,255.681 2136.98,255.696 2139,255.711 
  2141.03,255.725 2143.06,255.74 2145.08,255.754 2147.11,255.768 2149.13,255.783 2151.16,255.797 2153.18,255.811 2155.21,255.825 2157.24,255.838 2159.26,255.852 
  2161.29,255.866 2163.31,255.879 2165.34,255.893 2167.36,255.906 2169.39,255.92 2171.42,255.933 2173.44,255.946 2175.47,255.959 2177.49,255.972 2179.52,255.985 
  2181.54,255.998 2183.57,256.01 2185.6,256.023 2187.62,256.036 2189.65,256.048 2191.67,256.061 2193.7,256.073 2195.72,256.085 2197.75,256.098 2199.78,256.11 
  2201.8,256.122 2203.83,256.134 2205.85,256.146 2207.88,256.158 2209.9,256.169 2211.93,256.181 2213.96,256.193 2215.98,256.204 2218.01,256.216 2220.03,256.227 
  2222.06,256.239 2224.09,256.25 2226.11,256.261 2228.14,256.273 2230.16,256.284 2232.19,256.295 2234.21,256.306 2236.24,256.317 2238.27,256.327 2240.29,256.338 
  2242.32,256.349 2244.34,256.36 2246.37,256.37 2248.39,256.381 2250.42,256.391 2252.45,256.402 2254.47,256.412 2256.5,256.422 2258.52,256.433 2260.55,256.443 
  
  "/>
<circle clip-path="url(#clip5503)" style="fill:#000000; stroke:none; fill-opacity:1" cx="236.834" cy="256.443" r="18"/>
<circle clip-path="url(#clip5503)" style="fill:#e26f46; stroke:none; fill-opacity:1" cx="236.834" cy="256.443" r="14"/>
<circle clip-path="url(#clip5503)" style="fill:#000000; stroke:none; fill-opacity:1" cx="333.202" cy="255.885" r="18"/>
<circle clip-path="url(#clip5503)" style="fill:#e26f46; stroke:none; fill-opacity:1" cx="333.202" cy="255.885" r="14"/>
<circle clip-path="url(#clip5503)" style="fill:#000000; stroke:none; fill-opacity:1" cx="429.569" cy="255.134" r="18"/>
<circle clip-path="url(#clip5503)" style="fill:#e26f46; stroke:none; fill-opacity:1" cx="429.569" cy="255.134" r="14"/>
<circle clip-path="url(#clip5503)" style="fill:#000000; stroke:none; fill-opacity:1" cx="525.936" cy="254.093" r="18"/>
<circle clip-path="url(#clip5503)" style="fill:#e26f46; stroke:none; fill-opacity:1" cx="525.936" cy="254.093" r="14"/>
<circle clip-path="url(#clip5503)" style="fill:#000000; stroke:none; fill-opacity:1" cx="622.304" cy="252.596" r="18"/>
<circle clip-path="url(#clip5503)" style="fill:#e26f46; stroke:none; fill-opacity:1" cx="622.304" cy="252.596" r="14"/>
<circle clip-path="url(#clip5503)" style="fill:#000000; stroke:none; fill-opacity:1" cx="718.671" cy="250.35" r="18"/>
<circle clip-path="url(#clip5503)" style="fill:#e26f46; stroke:none; fill-opacity:1" cx="718.671" cy="250.35" r="14"/>
<circle clip-path="url(#clip5503)" style="fill:#000000; stroke:none; fill-opacity:1" cx="815.038" cy="246.808" r="18"/>
<circle clip-path="url(#clip5503)" style="fill:#e26f46; stroke:none; fill-opacity:1" cx="815.038" cy="246.808" r="14"/>
<circle clip-path="url(#clip5503)" style="fill:#000000; stroke:none; fill-opacity:1" cx="911.406" cy="240.914" r="18"/>
<circle clip-path="url(#clip5503)" style="fill:#e26f46; stroke:none; fill-opacity:1" cx="911.406" cy="240.914" r="14"/>
<circle clip-path="url(#clip5503)" style="fill:#000000; stroke:none; fill-opacity:1" cx="1007.77" cy="230.687" r="18"/>
<circle clip-path="url(#clip5503)" style="fill:#e26f46; stroke:none; fill-opacity:1" cx="1007.77" cy="230.687" r="14"/>
<circle clip-path="url(#clip5503)" style="fill:#000000; stroke:none; fill-opacity:1" cx="1104.14" cy="213.633" r="18"/>
<circle clip-path="url(#clip5503)" style="fill:#e26f46; stroke:none; fill-opacity:1" cx="1104.14" cy="213.633" r="14"/>
<circle clip-path="url(#clip5503)" style="fill:#000000; stroke:none; fill-opacity:1" cx="1200.51" cy="194.127" r="18"/>
<circle clip-path="url(#clip5503)" style="fill:#e26f46; stroke:none; fill-opacity:1" cx="1200.51" cy="194.127" r="14"/>
<circle clip-path="url(#clip5503)" style="fill:#000000; stroke:none; fill-opacity:1" cx="1296.88" cy="194.127" r="18"/>
<circle clip-path="url(#clip5503)" style="fill:#e26f46; stroke:none; fill-opacity:1" cx="1296.88" cy="194.127" r="14"/>
<circle clip-path="url(#clip5503)" style="fill:#000000; stroke:none; fill-opacity:1" cx="1393.24" cy="213.633" r="18"/>
<circle clip-path="url(#clip5503)" style="fill:#e26f46; stroke:none; fill-opacity:1" cx="1393.24" cy="213.633" r="14"/>
<circle clip-path="url(#clip5503)" style="fill:#000000; stroke:none; fill-opacity:1" cx="1489.61" cy="230.687" r="18"/>
<circle clip-path="url(#clip5503)" style="fill:#e26f46; stroke:none; fill-opacity:1" cx="1489.61" cy="230.687" r="14"/>
<circle clip-path="url(#clip5503)" style="fill:#000000; stroke:none; fill-opacity:1" cx="1585.98" cy="240.914" r="18"/>
<circle clip-path="url(#clip5503)" style="fill:#e26f46; stroke:none; fill-opacity:1" cx="1585.98" cy="240.914" r="14"/>
<circle clip-path="url(#clip5503)" style="fill:#000000; stroke:none; fill-opacity:1" cx="1682.34" cy="246.808" r="18"/>
<circle clip-path="url(#clip5503)" style="fill:#e26f46; stroke:none; fill-opacity:1" cx="1682.34" cy="246.808" r="14"/>
<circle clip-path="url(#clip5503)" style="fill:#000000; stroke:none; fill-opacity:1" cx="1778.71" cy="250.35" r="18"/>
<circle clip-path="url(#clip5503)" style="fill:#e26f46; stroke:none; fill-opacity:1" cx="1778.71" cy="250.35" r="14"/>
<circle clip-path="url(#clip5503)" style="fill:#000000; stroke:none; fill-opacity:1" cx="1875.08" cy="252.596" r="18"/>
<circle clip-path="url(#clip5503)" style="fill:#e26f46; stroke:none; fill-opacity:1" cx="1875.08" cy="252.596" r="14"/>
<circle clip-path="url(#clip5503)" style="fill:#000000; stroke:none; fill-opacity:1" cx="1971.45" cy="254.093" r="18"/>
<circle clip-path="url(#clip5503)" style="fill:#e26f46; stroke:none; fill-opacity:1" cx="1971.45" cy="254.093" r="14"/>
<circle clip-path="url(#clip5503)" style="fill:#000000; stroke:none; fill-opacity:1" cx="2067.81" cy="255.134" r="18"/>
<circle clip-path="url(#clip5503)" style="fill:#e26f46; stroke:none; fill-opacity:1" cx="2067.81" cy="255.134" r="14"/>
<circle clip-path="url(#clip5503)" style="fill:#000000; stroke:none; fill-opacity:1" cx="2164.18" cy="255.885" r="18"/>
<circle clip-path="url(#clip5503)" style="fill:#e26f46; stroke:none; fill-opacity:1" cx="2164.18" cy="255.885" r="14"/>
<circle clip-path="url(#clip5503)" style="fill:#000000; stroke:none; fill-opacity:1" cx="2260.55" cy="256.443" r="18"/>
<circle clip-path="url(#clip5503)" style="fill:#e26f46; stroke:none; fill-opacity:1" cx="2260.55" cy="256.443" r="14"/>
<polyline clip-path="url(#clip5503)" style="stroke:#3da44d; stroke-width:4; stroke-opacity:1; fill:none" points="
  236.834,256.443 238.86,493.964 240.886,697.664 242.912,870.695 244.937,1015.98 246.963,1136.23 248.989,1233.93 251.015,1311.42 253.04,1370.81 255.066,1414.07 
  257.092,1443.02 259.118,1459.32 261.143,1464.49 263.169,1459.93 265.195,1446.92 267.22,1426.62 269.246,1400.11 271.272,1368.34 273.298,1332.19 275.323,1292.47 
  277.349,1249.87 279.375,1205.06 281.401,1158.6 283.426,1111.02 285.452,1062.76 287.478,1014.25 289.504,965.844 291.529,917.849 293.555,870.543 295.581,824.165 
  297.607,778.916 299.632,734.968 301.658,692.466 303.684,651.525 305.71,612.241 307.735,574.686 309.761,538.914 311.787,504.962 313.812,472.851 315.838,442.588 
  317.864,414.17 319.89,387.581 321.915,362.796 323.941,339.783 325.967,318.501 327.993,298.905 330.018,280.943 332.044,264.56 334.07,249.698 336.096,236.293 
  338.121,224.284 340.147,213.604 342.173,204.186 344.199,195.965 346.224,188.873 348.25,182.843 350.276,177.81 352.302,173.707 354.327,170.472 356.353,168.04 
  358.379,166.352 360.405,165.348 362.43,164.97 364.456,165.163 366.482,165.874 368.507,167.051 370.533,168.646 372.559,170.613 374.585,172.906 376.61,175.484 
  378.636,178.307 380.662,181.338 382.688,184.541 384.713,187.885 386.739,191.337 388.765,194.87 390.791,198.458 392.816,202.075 394.842,205.7 396.868,209.311 
  398.894,212.891 400.919,216.422 402.945,219.89 404.971,223.28 406.997,226.58 409.022,229.781 411.048,232.873 413.074,235.848 415.099,238.699 417.125,241.421 
  419.151,244.011 421.177,246.463 423.202,248.777 425.228,250.951 427.254,252.984 429.28,254.875 431.305,256.627 433.331,258.241 435.357,259.718 437.383,261.061 
  439.408,262.273 441.434,263.357 443.46,264.318 445.486,265.159 447.511,265.885 449.537,266.5 451.563,267.009 453.589,267.417 455.614,267.73 457.64,267.952 
  459.666,268.088 461.691,268.144 463.717,268.125 465.743,268.037 467.769,267.883 469.794,267.671 471.82,267.404 473.846,267.087 475.872,266.726 477.897,266.325 
  479.923,265.888 481.949,265.421 483.975,264.927 486,264.41 488.026,263.874 490.052,263.324 492.078,262.761 494.103,262.191 496.129,261.616 498.155,261.039 
  500.181,260.462 502.206,259.889 504.232,259.322 506.258,258.763 508.284,258.214 510.309,257.677 512.335,257.154 514.361,256.646 516.386,256.155 518.412,255.681 
  520.438,255.226 522.464,254.791 524.489,254.376 526.515,253.982 528.541,253.61 530.567,253.26 532.592,252.932 534.618,252.626 536.644,252.342 538.67,252.08 
  540.695,251.84 542.721,251.622 544.747,251.425 546.773,251.249 548.798,251.093 550.824,250.957 552.85,250.84 554.876,250.742 556.901,250.662 558.927,250.598 
  560.953,250.551 562.978,250.519 565.004,250.502 567.03,250.498 569.056,250.507 571.081,250.529 573.107,250.561 575.133,250.604 577.159,250.655 579.184,250.716 
  581.21,250.784 583.236,250.858 585.262,250.939 587.287,251.025 589.313,251.114 591.339,251.208 593.365,251.304 595.39,251.402 597.416,251.501 599.442,251.601 
  601.468,251.701 603.493,251.8 605.519,251.898 607.545,251.994 609.57,252.087 611.596,252.178 613.622,252.266 615.648,252.35 617.673,252.43 619.699,252.505 
  621.725,252.576 623.751,252.642 625.776,252.703 627.802,252.758 629.828,252.807 631.854,252.851 633.879,252.889 635.905,252.92 637.931,252.946 639.957,252.965 
  641.982,252.979 644.008,252.986 646.034,252.987 648.06,252.982 650.085,252.971 652.111,252.954 654.137,252.931 656.163,252.903 658.188,252.869 660.214,252.83 
  662.24,252.785 664.265,252.736 666.291,252.682 668.317,252.623 670.343,252.56 672.368,252.493 674.394,252.422 676.42,252.347 678.446,252.269 680.471,252.187 
  682.497,252.103 684.523,252.016 686.549,251.926 688.574,251.834 690.6,251.74 692.626,251.644 694.652,251.547 696.677,251.448 698.703,251.349 700.729,251.248 
  702.755,251.147 704.78,251.045 706.806,250.943 708.832,250.841 710.857,250.739 712.883,250.638 714.909,250.536 716.935,250.435 718.96,250.335 720.986,250.236 
  723.012,250.138 725.038,250.04 727.063,249.944 729.089,249.849 731.115,249.756 733.141,249.664 735.166,249.573 737.192,249.484 739.218,249.396 741.244,249.31 
  743.269,249.225 745.295,249.142 747.321,249.061 749.347,248.981 751.372,248.902 753.398,248.825 755.424,248.75 757.449,248.676 759.475,248.603 761.501,248.532 
  763.527,248.462 765.552,248.393 767.578,248.325 769.604,248.259 771.63,248.193 773.655,248.128 775.681,248.063 777.707,248 779.733,247.937 781.758,247.874 
  783.784,247.812 785.81,247.75 787.836,247.688 789.861,247.626 791.887,247.563 793.913,247.501 795.939,247.438 797.964,247.375 799.99,247.311 802.016,247.247 
  804.042,247.181 806.067,247.115 808.093,247.048 810.119,246.98 812.144,246.91 814.17,246.839 816.196,246.767 818.222,246.693 820.247,246.617 822.273,246.54 
  824.299,246.461 826.325,246.38 828.35,246.297 830.376,246.213 832.402,246.126 834.428,246.037 836.453,245.946 838.479,245.852 840.505,245.757 842.531,245.659 
  844.556,245.558 846.582,245.456 848.608,245.35 850.634,245.243 852.659,245.133 854.685,245.02 856.711,244.905 858.736,244.788 860.762,244.668 862.788,244.545 
  864.814,244.42 866.839,244.293 868.865,244.163 870.891,244.031 872.917,243.896 874.942,243.759 876.968,243.619 878.994,243.477 881.02,243.333 883.045,243.186 
  885.071,243.037 887.097,242.886 889.123,242.733 891.148,242.578 893.174,242.42 895.2,242.26 897.226,242.099 899.251,241.935 901.277,241.77 903.303,241.602 
  905.329,241.433 907.354,241.262 909.38,241.089 911.406,240.914 913.431,240.737 915.457,240.559 917.483,240.379 919.509,240.198 921.534,240.015 923.56,239.831 
  925.586,239.644 927.612,239.457 929.637,239.268 931.663,239.077 933.689,238.885 935.715,238.691 937.74,238.497 939.766,238.3 941.792,238.102 943.818,237.903 
  945.843,237.702 947.869,237.5 949.895,237.296 951.921,237.091 953.946,236.885 955.972,236.676 957.998,236.467 960.023,236.255 962.049,236.042 964.075,235.828 
  966.101,235.611 968.126,235.393 970.152,235.173 972.178,234.952 974.204,234.728 976.229,234.502 978.255,234.275 980.281,234.045 982.307,233.813 984.332,233.579 
  986.358,233.343 988.384,233.105 990.41,232.864 992.435,232.62 994.461,232.374 996.487,232.125 998.513,231.874 1000.54,231.62 1002.56,231.362 1004.59,231.102 
  1006.62,230.839 1008.64,230.573 1010.67,230.304 1012.69,230.031 1014.72,229.755 1016.74,229.475 1018.77,229.192 1020.8,228.906 1022.82,228.615 1024.85,228.322 
  1026.87,228.024 1028.9,227.722 1030.92,227.417 1032.95,227.107 1034.98,226.794 1037,226.476 1039.03,226.155 1041.05,225.829 1043.08,225.499 1045.1,225.165 
  1047.13,224.826 1049.16,224.483 1051.18,224.136 1053.21,223.785 1055.23,223.429 1057.26,223.069 1059.28,222.705 1061.31,222.337 1063.34,221.964 1065.36,221.586 
  1067.39,221.205 1069.41,220.82 1071.44,220.43 1073.46,220.036 1075.49,219.638 1077.52,219.237 1079.54,218.831 1081.57,218.421 1083.59,218.008 1085.62,217.591 
  1087.65,217.171 1089.67,216.747 1091.7,216.32 1093.72,215.89 1095.75,215.457 1097.77,215.021 1099.8,214.582 1101.83,214.141 1103.85,213.697 1105.88,213.251 
  1107.9,212.803 1109.93,212.352 1111.95,211.901 1113.98,211.447 1116.01,210.993 1118.03,210.537 1120.06,210.081 1122.08,209.623 1124.11,209.166 1126.13,208.708 
  1128.16,208.25 1130.19,207.792 1132.21,207.335 1134.24,206.879 1136.26,206.424 1138.29,205.97 1140.31,205.518 1142.34,205.067 1144.37,204.619 1146.39,204.173 
  1148.42,203.73 1150.44,203.289 1152.47,202.852 1154.49,202.418 1156.52,201.988 1158.55,201.562 1160.57,201.141 1162.6,200.724 1164.62,200.312 1166.65,199.905 
  1168.67,199.503 1170.7,199.108 1172.73,198.718 1174.75,198.335 1176.78,197.958 1178.8,197.589 1180.83,197.226 1182.85,196.871 1184.88,196.523 1186.91,196.183 
  1188.93,195.852 1190.96,195.529 1192.98,195.215 1195.01,194.909 1197.04,194.613 1199.06,194.326 1201.09,194.049 1203.11,193.781 1205.14,193.524 1207.16,193.277 
  1209.19,193.04 1211.22,192.814 1213.24,192.599 1215.27,192.394 1217.29,192.201 1219.32,192.019 1221.34,191.849 1223.37,191.69 1225.4,191.543 1227.42,191.408 
  1229.45,191.284 1231.47,191.173 1233.5,191.074 1235.52,190.987 1237.55,190.912 1239.58,190.85 1241.6,190.8 1243.63,190.763 1245.65,190.738 1247.68,190.725 
  1249.7,190.725 1251.73,190.738 1253.76,190.763 1255.78,190.8 1257.81,190.85 1259.83,190.912 1261.86,190.987 1263.88,191.074 1265.91,191.173 1267.94,191.284 
  1269.96,191.408 1271.99,191.543 1274.01,191.69 1276.04,191.849 1278.06,192.019 1280.09,192.201 1282.12,192.394 1284.14,192.599 1286.17,192.814 1288.19,193.04 
  1290.22,193.277 1292.24,193.524 1294.27,193.781 1296.3,194.049 1298.32,194.326 1300.35,194.613 1302.37,194.909 1304.4,195.215 1306.42,195.529 1308.45,195.852 
  1310.48,196.183 1312.5,196.523 1314.53,196.871 1316.55,197.226 1318.58,197.589 1320.61,197.958 1322.63,198.335 1324.66,198.718 1326.68,199.108 1328.71,199.503 
  1330.73,199.905 1332.76,200.312 1334.79,200.724 1336.81,201.141 1338.84,201.562 1340.86,201.988 1342.89,202.418 1344.91,202.852 1346.94,203.289 1348.97,203.73 
  1350.99,204.173 1353.02,204.619 1355.04,205.067 1357.07,205.518 1359.09,205.97 1361.12,206.424 1363.15,206.879 1365.17,207.335 1367.2,207.792 1369.22,208.25 
  1371.25,208.708 1373.27,209.166 1375.3,209.623 1377.33,210.081 1379.35,210.537 1381.38,210.993 1383.4,211.447 1385.43,211.901 1387.45,212.352 1389.48,212.803 
  1391.51,213.251 1393.53,213.697 1395.56,214.141 1397.58,214.582 1399.61,215.021 1401.63,215.457 1403.66,215.89 1405.69,216.32 1407.71,216.747 1409.74,217.171 
  1411.76,217.591 1413.79,218.008 1415.81,218.421 1417.84,218.831 1419.87,219.237 1421.89,219.638 1423.92,220.036 1425.94,220.43 1427.97,220.82 1430,221.205 
  1432.02,221.586 1434.05,221.964 1436.07,222.337 1438.1,222.705 1440.12,223.069 1442.15,223.429 1444.18,223.785 1446.2,224.136 1448.23,224.483 1450.25,224.826 
  1452.28,225.165 1454.3,225.499 1456.33,225.829 1458.36,226.155 1460.38,226.476 1462.41,226.794 1464.43,227.107 1466.46,227.417 1468.48,227.722 1470.51,228.024 
  1472.54,228.322 1474.56,228.615 1476.59,228.906 1478.61,229.192 1480.64,229.475 1482.66,229.755 1484.69,230.031 1486.72,230.304 1488.74,230.573 1490.77,230.839 
  1492.79,231.102 1494.82,231.362 1496.84,231.62 1498.87,231.874 1500.9,232.125 1502.92,232.374 1504.95,232.62 1506.97,232.864 1509,233.105 1511.02,233.343 
  1513.05,233.579 1515.08,233.813 1517.1,234.045 1519.13,234.275 1521.15,234.502 1523.18,234.728 1525.2,234.952 1527.23,235.173 1529.26,235.393 1531.28,235.611 
  1533.31,235.828 1535.33,236.042 1537.36,236.255 1539.39,236.467 1541.41,236.676 1543.44,236.885 1545.46,237.091 1547.49,237.296 1549.51,237.5 1551.54,237.702 
  1553.57,237.903 1555.59,238.102 1557.62,238.3 1559.64,238.497 1561.67,238.691 1563.69,238.885 1565.72,239.077 1567.75,239.268 1569.77,239.457 1571.8,239.644 
  1573.82,239.831 1575.85,240.015 1577.87,240.198 1579.9,240.379 1581.93,240.559 1583.95,240.737 1585.98,240.914 1588,241.089 1590.03,241.262 1592.05,241.433 
  1594.08,241.602 1596.11,241.77 1598.13,241.935 1600.16,242.099 1602.18,242.26 1604.21,242.42 1606.23,242.578 1608.26,242.733 1610.29,242.886 1612.31,243.037 
  1614.34,243.186 1616.36,243.333 1618.39,243.477 1620.41,243.619 1622.44,243.759 1624.47,243.896 1626.49,244.031 1628.52,244.163 1630.54,244.293 1632.57,244.42 
  1634.59,244.545 1636.62,244.668 1638.65,244.788 1640.67,244.905 1642.7,245.02 1644.72,245.133 1646.75,245.243 1648.78,245.35 1650.8,245.456 1652.83,245.558 
  1654.85,245.659 1656.88,245.757 1658.9,245.852 1660.93,245.946 1662.96,246.037 1664.98,246.126 1667.01,246.213 1669.03,246.297 1671.06,246.38 1673.08,246.461 
  1675.11,246.54 1677.14,246.617 1679.16,246.693 1681.19,246.767 1683.21,246.839 1685.24,246.91 1687.26,246.98 1689.29,247.048 1691.32,247.115 1693.34,247.181 
  1695.37,247.247 1697.39,247.311 1699.42,247.375 1701.44,247.438 1703.47,247.501 1705.5,247.563 1707.52,247.626 1709.55,247.688 1711.57,247.75 1713.6,247.812 
  1715.62,247.874 1717.65,247.937 1719.68,248 1721.7,248.063 1723.73,248.128 1725.75,248.193 1727.78,248.259 1729.8,248.325 1731.83,248.393 1733.86,248.462 
  1735.88,248.532 1737.91,248.603 1739.93,248.676 1741.96,248.75 1743.98,248.825 1746.01,248.902 1748.04,248.981 1750.06,249.061 1752.09,249.142 1754.11,249.225 
  1756.14,249.31 1758.16,249.396 1760.19,249.484 1762.22,249.573 1764.24,249.664 1766.27,249.756 1768.29,249.849 1770.32,249.944 1772.35,250.04 1774.37,250.138 
  1776.4,250.236 1778.42,250.335 1780.45,250.435 1782.47,250.536 1784.5,250.638 1786.53,250.739 1788.55,250.841 1790.58,250.943 1792.6,251.045 1794.63,251.147 
  1796.65,251.248 1798.68,251.349 1800.71,251.448 1802.73,251.547 1804.76,251.644 1806.78,251.74 1808.81,251.834 1810.83,251.926 1812.86,252.016 1814.89,252.103 
  1816.91,252.187 1818.94,252.269 1820.96,252.347 1822.99,252.422 1825.01,252.493 1827.04,252.56 1829.07,252.623 1831.09,252.682 1833.12,252.736 1835.14,252.785 
  1837.17,252.83 1839.19,252.869 1841.22,252.903 1843.25,252.931 1845.27,252.954 1847.3,252.971 1849.32,252.982 1851.35,252.987 1853.37,252.986 1855.4,252.979 
  1857.43,252.965 1859.45,252.946 1861.48,252.92 1863.5,252.889 1865.53,252.851 1867.55,252.807 1869.58,252.758 1871.61,252.703 1873.63,252.642 1875.66,252.576 
  1877.68,252.505 1879.71,252.43 1881.74,252.35 1883.76,252.266 1885.79,252.178 1887.81,252.087 1889.84,251.994 1891.86,251.898 1893.89,251.8 1895.92,251.701 
  1897.94,251.601 1899.97,251.501 1901.99,251.402 1904.02,251.304 1906.04,251.208 1908.07,251.114 1910.1,251.025 1912.12,250.939 1914.15,250.858 1916.17,250.784 
  1918.2,250.716 1920.22,250.655 1922.25,250.604 1924.28,250.561 1926.3,250.529 1928.33,250.507 1930.35,250.498 1932.38,250.502 1934.4,250.519 1936.43,250.551 
  1938.46,250.598 1940.48,250.662 1942.51,250.742 1944.53,250.84 1946.56,250.957 1948.58,251.093 1950.61,251.249 1952.64,251.425 1954.66,251.622 1956.69,251.84 
  1958.71,252.08 1960.74,252.342 1962.76,252.626 1964.79,252.932 1966.82,253.26 1968.84,253.61 1970.87,253.982 1972.89,254.376 1974.92,254.791 1976.94,255.226 
  1978.97,255.681 1981,256.155 1983.02,256.646 1985.05,257.154 1987.07,257.677 1989.1,258.214 1991.13,258.763 1993.15,259.322 1995.18,259.889 1997.2,260.462 
  1999.23,261.039 2001.25,261.616 2003.28,262.191 2005.31,262.761 2007.33,263.324 2009.36,263.874 2011.38,264.41 2013.41,264.927 2015.43,265.421 2017.46,265.888 
  2019.49,266.325 2021.51,266.726 2023.54,267.087 2025.56,267.404 2027.59,267.671 2029.61,267.883 2031.64,268.037 2033.67,268.125 2035.69,268.144 2037.72,268.088 
  2039.74,267.952 2041.77,267.73 2043.79,267.417 2045.82,267.009 2047.85,266.5 2049.87,265.885 2051.9,265.159 2053.92,264.318 2055.95,263.357 2057.97,262.273 
  2060,261.061 2062.03,259.718 2064.05,258.241 2066.08,256.627 2068.1,254.875 2070.13,252.984 2072.15,250.951 2074.18,248.777 2076.21,246.463 2078.23,244.011 
  2080.26,241.421 2082.28,238.699 2084.31,235.848 2086.33,232.873 2088.36,229.781 2090.39,226.58 2092.41,223.28 2094.44,219.89 2096.46,216.422 2098.49,212.891 
  2100.51,209.311 2102.54,205.7 2104.57,202.075 2106.59,198.458 2108.62,194.87 2110.64,191.337 2112.67,187.885 2114.7,184.541 2116.72,181.338 2118.75,178.307 
  2120.77,175.484 2122.8,172.906 2124.82,170.613 2126.85,168.646 2128.88,167.051 2130.9,165.874 2132.93,165.163 2134.95,164.97 2136.98,165.348 2139,166.352 
  2141.03,168.04 2143.06,170.472 2145.08,173.707 2147.11,177.81 2149.13,182.843 2151.16,188.873 2153.18,195.965 2155.21,204.186 2157.24,213.604 2159.26,224.284 
  2161.29,236.293 2163.31,249.698 2165.34,264.56 2167.36,280.943 2169.39,298.905 2171.42,318.501 2173.44,339.783 2175.47,362.796 2177.49,387.581 2179.52,414.17 
  2181.54,442.588 2183.57,472.851 2185.6,504.962 2187.62,538.914 2189.65,574.686 2191.67,612.241 2193.7,651.525 2195.72,692.466 2197.75,734.968 2199.78,778.916 
  2201.8,824.165 2203.83,870.543 2205.85,917.849 2207.88,965.844 2209.9,1014.25 2211.93,1062.76 2213.96,1111.02 2215.98,1158.6 2218.01,1205.06 2220.03,1249.87 
  2222.06,1292.47 2224.09,1332.19 2226.11,1368.34 2228.14,1400.11 2230.16,1426.62 2232.19,1446.92 2234.21,1459.93 2236.24,1464.49 2238.27,1459.32 2240.29,1443.02 
  2242.32,1414.07 2244.34,1370.81 2246.37,1311.42 2248.39,1233.93 2250.42,1136.23 2252.45,1015.98 2254.47,870.695 2256.5,697.664 2258.52,493.964 2260.55,256.443 
  
  "/>
<polygon clip-path="url(#clip5501)" points="
1685.51,451.424 2249.26,451.424 2249.26,209.504 1685.51,209.504 
  " fill="#ffffff" fill-rule="evenodd" fill-opacity="1"/>
<polyline clip-path="url(#clip5501)" style="stroke:#000000; stroke-width:4; stroke-opacity:1; fill:none" points="
  1685.51,451.424 2249.26,451.424 2249.26,209.504 1685.51,209.504 1685.51,451.424 
  "/>
<polyline clip-path="url(#clip5501)" style="stroke:#009af9; stroke-width:4; stroke-opacity:1; fill:none" points="
  1709.51,269.984 1853.51,269.984 
  "/>
<g clip-path="url(#clip5501)">
<text style="fill:#000000; fill-opacity:1; font-family:Arial,Helvetica Neue,Helvetica,sans-serif; font-size:48px; text-anchor:start;" transform="rotate(0, 1877.51, 287.484)" x="1877.51" y="287.484">Runge function</text>
</g>
<circle clip-path="url(#clip5501)" style="fill:#000000; stroke:none; fill-opacity:1" cx="1793.51" cy="330.464" r="25"/>
<circle clip-path="url(#clip5501)" style="fill:#e26f46; stroke:none; fill-opacity:1" cx="1793.51" cy="330.464" r="21"/>
<g clip-path="url(#clip5501)">
<text style="fill:#000000; fill-opacity:1; font-family:Arial,Helvetica Neue,Helvetica,sans-serif; font-size:48px; text-anchor:start;" transform="rotate(0, 1877.51, 347.964)" x="1877.51" y="347.964">Nodes</text>
</g>
<polyline clip-path="url(#clip5501)" style="stroke:#3da44d; stroke-width:4; stroke-opacity:1; fill:none" points="
  1709.51,390.944 1853.51,390.944 
  "/>
<g clip-path="url(#clip5501)">
<text style="fill:#000000; fill-opacity:1; font-family:Arial,Helvetica Neue,Helvetica,sans-serif; font-size:48px; text-anchor:start;" transform="rotate(0, 1877.51, 408.444)" x="1877.51" y="408.444">Intepolation</text>
</g>
</svg>
