<?xml version="1.0" encoding="utf-8"?>
<svg xmlns="http://www.w3.org/2000/svg" xmlns:xlink="http://www.w3.org/1999/xlink" width="600" height="400" viewBox="0 0 2400 1600">
<defs>
  <clipPath id="clip5700">
    <rect x="0" y="0" width="2000" height="2000"/>
  </clipPath>
</defs>
<defs>
  <clipPath id="clip5701">
    <rect x="0" y="0" width="2400" height="1600"/>
  </clipPath>
</defs>
<polygon clip-path="url(#clip5701)" points="
0,1600 2400,1600 2400,0 0,0 
  " fill="#ffffff" fill-rule="evenodd" fill-opacity="1"/>
<defs>
  <clipPath id="clip5702">
    <rect x="480" y="0" width="1681" height="1600"/>
  </clipPath>
</defs>
<polygon clip-path="url(#clip5701)" points="
174.775,1503.47 2321.26,1503.47 2321.26,125.984 174.775,125.984 
  " fill="#ffffff" fill-rule="evenodd" fill-opacity="1"/>
<defs>
  <clipPath id="clip5703">
    <rect x="174" y="125" width="2147" height="1378"/>
  </clipPath>
</defs>
<polyline clip-path="url(#clip5703)" style="stroke:#000000; stroke-width:2; stroke-opacity:0.1; fill:none" points="
  235.525,1503.47 235.525,125.984 
  "/>
<polyline clip-path="url(#clip5703)" style="stroke:#000000; stroke-width:2; stroke-opacity:0.1; fill:none" points="
  741.771,1503.47 741.771,125.984 
  "/>
<polyline clip-path="url(#clip5703)" style="stroke:#000000; stroke-width:2; stroke-opacity:0.1; fill:none" points="
  1248.02,1503.47 1248.02,125.984 
  "/>
<polyline clip-path="url(#clip5703)" style="stroke:#000000; stroke-width:2; stroke-opacity:0.1; fill:none" points="
  1754.26,1503.47 1754.26,125.984 
  "/>
<polyline clip-path="url(#clip5703)" style="stroke:#000000; stroke-width:2; stroke-opacity:0.1; fill:none" points="
  2260.51,1503.47 2260.51,125.984 
  "/>
<polyline clip-path="url(#clip5703)" style="stroke:#000000; stroke-width:2; stroke-opacity:0.1; fill:none" points="
  174.775,1387.02 2321.26,1387.02 
  "/>
<polyline clip-path="url(#clip5703)" style="stroke:#000000; stroke-width:2; stroke-opacity:0.1; fill:none" points="
  174.775,1189.37 2321.26,1189.37 
  "/>
<polyline clip-path="url(#clip5703)" style="stroke:#000000; stroke-width:2; stroke-opacity:0.1; fill:none" points="
  174.775,991.718 2321.26,991.718 
  "/>
<polyline clip-path="url(#clip5703)" style="stroke:#000000; stroke-width:2; stroke-opacity:0.1; fill:none" points="
  174.775,794.069 2321.26,794.069 
  "/>
<polyline clip-path="url(#clip5703)" style="stroke:#000000; stroke-width:2; stroke-opacity:0.1; fill:none" points="
  174.775,596.42 2321.26,596.42 
  "/>
<polyline clip-path="url(#clip5703)" style="stroke:#000000; stroke-width:2; stroke-opacity:0.1; fill:none" points="
  174.775,398.771 2321.26,398.771 
  "/>
<polyline clip-path="url(#clip5703)" style="stroke:#000000; stroke-width:2; stroke-opacity:0.1; fill:none" points="
  174.775,201.122 2321.26,201.122 
  "/>
<polyline clip-path="url(#clip5701)" style="stroke:#000000; stroke-width:4; stroke-opacity:1; fill:none" points="
  174.775,1503.47 2321.26,1503.47 
  "/>
<polyline clip-path="url(#clip5701)" style="stroke:#000000; stroke-width:4; stroke-opacity:1; fill:none" points="
  174.775,1503.47 174.775,125.984 
  "/>
<polyline clip-path="url(#clip5701)" style="stroke:#000000; stroke-width:4; stroke-opacity:1; fill:none" points="
  235.525,1503.47 235.525,1482.81 
  "/>
<polyline clip-path="url(#clip5701)" style="stroke:#000000; stroke-width:4; stroke-opacity:1; fill:none" points="
  741.771,1503.47 741.771,1482.81 
  "/>
<polyline clip-path="url(#clip5701)" style="stroke:#000000; stroke-width:4; stroke-opacity:1; fill:none" points="
  1248.02,1503.47 1248.02,1482.81 
  "/>
<polyline clip-path="url(#clip5701)" style="stroke:#000000; stroke-width:4; stroke-opacity:1; fill:none" points="
  1754.26,1503.47 1754.26,1482.81 
  "/>
<polyline clip-path="url(#clip5701)" style="stroke:#000000; stroke-width:4; stroke-opacity:1; fill:none" points="
  2260.51,1503.47 2260.51,1482.81 
  "/>
<polyline clip-path="url(#clip5701)" style="stroke:#000000; stroke-width:4; stroke-opacity:1; fill:none" points="
  174.775,1387.02 206.972,1387.02 
  "/>
<polyline clip-path="url(#clip5701)" style="stroke:#000000; stroke-width:4; stroke-opacity:1; fill:none" points="
  174.775,1189.37 206.972,1189.37 
  "/>
<polyline clip-path="url(#clip5701)" style="stroke:#000000; stroke-width:4; stroke-opacity:1; fill:none" points="
  174.775,991.718 206.972,991.718 
  "/>
<polyline clip-path="url(#clip5701)" style="stroke:#000000; stroke-width:4; stroke-opacity:1; fill:none" points="
  174.775,794.069 206.972,794.069 
  "/>
<polyline clip-path="url(#clip5701)" style="stroke:#000000; stroke-width:4; stroke-opacity:1; fill:none" points="
  174.775,596.42 206.972,596.42 
  "/>
<polyline clip-path="url(#clip5701)" style="stroke:#000000; stroke-width:4; stroke-opacity:1; fill:none" points="
  174.775,398.771 206.972,398.771 
  "/>
<polyline clip-path="url(#clip5701)" style="stroke:#000000; stroke-width:4; stroke-opacity:1; fill:none" points="
  174.775,201.122 206.972,201.122 
  "/>
<g clip-path="url(#clip5701)">
<text style="fill:#000000; fill-opacity:1; font-family:Arial,Helvetica Neue,Helvetica,sans-serif; font-size:48px; text-anchor:middle;" transform="rotate(0, 235.525, 1557.47)" x="235.525" y="1557.47">-1.0</text>
</g>
<g clip-path="url(#clip5701)">
<text style="fill:#000000; fill-opacity:1; font-family:Arial,Helvetica Neue,Helvetica,sans-serif; font-size:48px; text-anchor:middle;" transform="rotate(0, 741.771, 1557.47)" x="741.771" y="1557.47">-0.5</text>
</g>
<g clip-path="url(#clip5701)">
<text style="fill:#000000; fill-opacity:1; font-family:Arial,Helvetica Neue,Helvetica,sans-serif; font-size:48px; text-anchor:middle;" transform="rotate(0, 1248.02, 1557.47)" x="1248.02" y="1557.47">0.0</text>
</g>
<g clip-path="url(#clip5701)">
<text style="fill:#000000; fill-opacity:1; font-family:Arial,Helvetica Neue,Helvetica,sans-serif; font-size:48px; text-anchor:middle;" transform="rotate(0, 1754.26, 1557.47)" x="1754.26" y="1557.47">0.5</text>
</g>
<g clip-path="url(#clip5701)">
<text style="fill:#000000; fill-opacity:1; font-family:Arial,Helvetica Neue,Helvetica,sans-serif; font-size:48px; text-anchor:middle;" transform="rotate(0, 2260.51, 1557.47)" x="2260.51" y="1557.47">1.0</text>
</g>
<g clip-path="url(#clip5701)">
<text style="fill:#000000; fill-opacity:1; font-family:Arial,Helvetica Neue,Helvetica,sans-serif; font-size:48px; text-anchor:end;" transform="rotate(0, 150.775, 1404.52)" x="150.775" y="1404.52">0</text>
</g>
<g clip-path="url(#clip5701)">
<text style="fill:#000000; fill-opacity:1; font-family:Arial,Helvetica Neue,Helvetica,sans-serif; font-size:48px; text-anchor:end;" transform="rotate(0, 150.775, 1206.87)" x="150.775" y="1206.87">20</text>
</g>
<g clip-path="url(#clip5701)">
<text style="fill:#000000; fill-opacity:1; font-family:Arial,Helvetica Neue,Helvetica,sans-serif; font-size:48px; text-anchor:end;" transform="rotate(0, 150.775, 1009.22)" x="150.775" y="1009.22">40</text>
</g>
<g clip-path="url(#clip5701)">
<text style="fill:#000000; fill-opacity:1; font-family:Arial,Helvetica Neue,Helvetica,sans-serif; font-size:48px; text-anchor:end;" transform="rotate(0, 150.775, 811.569)" x="150.775" y="811.569">60</text>
</g>
<g clip-path="url(#clip5701)">
<text style="fill:#000000; fill-opacity:1; font-family:Arial,Helvetica Neue,Helvetica,sans-serif; font-size:48px; text-anchor:end;" transform="rotate(0, 150.775, 613.92)" x="150.775" y="613.92">80</text>
</g>
<g clip-path="url(#clip5701)">
<text style="fill:#000000; fill-opacity:1; font-family:Arial,Helvetica Neue,Helvetica,sans-serif; font-size:48px; text-anchor:end;" transform="rotate(0, 150.775, 416.271)" x="150.775" y="416.271">100</text>
</g>
<g clip-path="url(#clip5701)">
<text style="fill:#000000; fill-opacity:1; font-family:Arial,Helvetica Neue,Helvetica,sans-serif; font-size:48px; text-anchor:end;" transform="rotate(0, 150.775, 218.622)" x="150.775" y="218.622">120</text>
</g>
<g clip-path="url(#clip5701)">
<text style="fill:#000000; fill-opacity:1; font-family:Arial,Helvetica Neue,Helvetica,sans-serif; font-size:84px; text-anchor:middle;" transform="rotate(0, 1248.02, 73.2)" x="1248.02" y="73.2">Runge&apos;s phenomenon (Nodes = 23)</text>
</g>
<polyline clip-path="url(#clip5703)" style="stroke:#009af9; stroke-width:4; stroke-opacity:1; fill:none" points="
  235.525,1386.64 237.552,1386.63 239.579,1386.63 241.606,1386.63 243.633,1386.63 245.66,1386.63 247.687,1386.63 249.714,1386.63 251.741,1386.62 253.768,1386.62 
  255.795,1386.62 257.822,1386.62 259.849,1386.62 261.876,1386.62 263.903,1386.61 265.93,1386.61 267.957,1386.61 269.984,1386.61 272.011,1386.61 274.038,1386.61 
  276.065,1386.61 278.092,1386.6 280.119,1386.6 282.146,1386.6 284.173,1386.6 286.2,1386.6 288.227,1386.6 290.254,1386.59 292.281,1386.59 294.308,1386.59 
  296.335,1386.59 298.362,1386.59 300.389,1386.58 302.416,1386.58 304.443,1386.58 306.47,1386.58 308.497,1386.58 310.524,1386.58 312.551,1386.57 314.578,1386.57 
  316.605,1386.57 318.632,1386.57 320.659,1386.57 322.686,1386.56 324.713,1386.56 326.74,1386.56 328.767,1386.56 330.794,1386.56 332.821,1386.56 334.848,1386.55 
  336.875,1386.55 338.902,1386.55 340.929,1386.55 342.956,1386.55 344.983,1386.54 347.01,1386.54 349.037,1386.54 351.064,1386.54 353.091,1386.53 355.119,1386.53 
  357.146,1386.53 359.173,1386.53 361.2,1386.53 363.227,1386.52 365.254,1386.52 367.281,1386.52 369.308,1386.52 371.335,1386.52 373.362,1386.51 375.389,1386.51 
  377.416,1386.51 379.443,1386.51 381.47,1386.5 383.497,1386.5 385.524,1386.5 387.551,1386.5 389.578,1386.5 391.605,1386.49 393.632,1386.49 395.659,1386.49 
  397.686,1386.49 399.713,1386.48 401.74,1386.48 403.767,1386.48 405.794,1386.48 407.821,1386.47 409.848,1386.47 411.875,1386.47 413.902,1386.47 415.929,1386.46 
  417.956,1386.46 419.983,1386.46 422.01,1386.46 424.037,1386.45 426.064,1386.45 428.091,1386.45 430.118,1386.45 432.145,1386.44 434.172,1386.44 436.199,1386.44 
  438.226,1386.43 440.253,1386.43 442.28,1386.43 444.307,1386.43 446.334,1386.42 448.361,1386.42 450.388,1386.42 452.415,1386.42 454.442,1386.41 456.469,1386.41 
  458.496,1386.41 460.523,1386.4 462.55,1386.4 464.577,1386.4 466.604,1386.39 468.631,1386.39 470.658,1386.39 472.685,1386.39 474.712,1386.38 476.739,1386.38 
  478.766,1386.38 480.793,1386.37 482.82,1386.37 484.847,1386.37 486.874,1386.36 488.901,1386.36 490.928,1386.36 492.955,1386.35 494.982,1386.35 497.009,1386.35 
  499.036,1386.34 501.063,1386.34 503.09,1386.34 505.117,1386.33 507.144,1386.33 509.171,1386.33 511.198,1386.32 513.225,1386.32 515.253,1386.32 517.28,1386.31 
  519.307,1386.31 521.334,1386.3 523.361,1386.3 525.388,1386.3 527.415,1386.29 529.442,1386.29 531.469,1386.29 533.496,1386.28 535.523,1386.28 537.55,1386.27 
  539.577,1386.27 541.604,1386.27 543.631,1386.26 545.658,1386.26 547.685,1386.25 549.712,1386.25 551.739,1386.25 553.766,1386.24 555.793,1386.24 557.82,1386.23 
  559.847,1386.23 561.874,1386.22 563.901,1386.22 565.928,1386.22 567.955,1386.21 569.982,1386.21 572.009,1386.2 574.036,1386.2 576.063,1386.19 578.09,1386.19 
  580.117,1386.18 582.144,1386.18 584.171,1386.18 586.198,1386.17 588.225,1386.17 590.252,1386.16 592.279,1386.16 594.306,1386.15 596.333,1386.15 598.36,1386.14 
  600.387,1386.14 602.414,1386.13 604.441,1386.13 606.468,1386.12 608.495,1386.12 610.522,1386.11 612.549,1386.11 614.576,1386.1 616.603,1386.09 618.63,1386.09 
  620.657,1386.08 622.684,1386.08 624.711,1386.07 626.738,1386.07 628.765,1386.06 630.792,1386.06 632.819,1386.05 634.846,1386.04 636.873,1386.04 638.9,1386.03 
  640.927,1386.03 642.954,1386.02 644.981,1386.01 647.008,1386.01 649.035,1386 651.062,1386 653.089,1385.99 655.116,1385.98 657.143,1385.98 659.17,1385.97 
  661.197,1385.96 663.224,1385.96 665.251,1385.95 667.278,1385.94 669.305,1385.94 671.332,1385.93 673.359,1385.92 675.386,1385.92 677.414,1385.91 679.441,1385.9 
  681.468,1385.9 683.495,1385.89 685.522,1385.88 687.549,1385.88 689.576,1385.87 691.603,1385.86 693.63,1385.85 695.657,1385.85 697.684,1385.84 699.711,1385.83 
  701.738,1385.82 703.765,1385.81 705.792,1385.81 707.819,1385.8 709.846,1385.79 711.873,1385.78 713.9,1385.77 715.927,1385.77 717.954,1385.76 719.981,1385.75 
  722.008,1385.74 724.035,1385.73 726.062,1385.72 728.089,1385.71 730.116,1385.71 732.143,1385.7 734.17,1385.69 736.197,1385.68 738.224,1385.67 740.251,1385.66 
  742.278,1385.65 744.305,1385.64 746.332,1385.63 748.359,1385.62 750.386,1385.61 752.413,1385.6 754.44,1385.59 756.467,1385.58 758.494,1385.57 760.521,1385.56 
  762.548,1385.55 764.575,1385.54 766.602,1385.53 768.629,1385.52 770.656,1385.51 772.683,1385.5 774.71,1385.49 776.737,1385.48 778.764,1385.46 780.791,1385.45 
  782.818,1385.44 784.845,1385.43 786.872,1385.42 788.899,1385.41 790.926,1385.39 792.953,1385.38 794.98,1385.37 797.007,1385.36 799.034,1385.35 801.061,1385.33 
  803.088,1385.32 805.115,1385.31 807.142,1385.29 809.169,1385.28 811.196,1385.27 813.223,1385.25 815.25,1385.24 817.277,1385.23 819.304,1385.21 821.331,1385.2 
  823.358,1385.19 825.385,1385.17 827.412,1385.16 829.439,1385.14 831.466,1385.13 833.493,1385.11 835.52,1385.1 837.547,1385.08 839.575,1385.07 841.602,1385.05 
  843.629,1385.04 845.656,1385.02 847.683,1385 849.71,1384.99 851.737,1384.97 853.764,1384.95 855.791,1384.94 857.818,1384.92 859.845,1384.9 861.872,1384.88 
  863.899,1384.87 865.926,1384.85 867.953,1384.83 869.98,1384.81 872.007,1384.79 874.034,1384.78 876.061,1384.76 878.088,1384.74 880.115,1384.72 882.142,1384.7 
  884.169,1384.68 886.196,1384.66 888.223,1384.64 890.25,1384.62 892.277,1384.6 894.304,1384.58 896.331,1384.56 898.358,1384.53 900.385,1384.51 902.412,1384.49 
  904.439,1384.47 906.466,1384.45 908.493,1384.42 910.52,1384.4 912.547,1384.38 914.574,1384.35 916.601,1384.33 918.628,1384.31 920.655,1384.28 922.682,1384.26 
  924.709,1384.23 926.736,1384.21 928.763,1384.18 930.79,1384.16 932.817,1384.13 934.844,1384.1 936.871,1384.08 938.898,1384.05 940.925,1384.02 942.952,1383.99 
  944.979,1383.97 947.006,1383.94 949.033,1383.91 951.06,1383.88 953.087,1383.85 955.114,1383.82 957.141,1383.79 959.168,1383.76 961.195,1383.73 963.222,1383.7 
  965.249,1383.67 967.276,1383.63 969.303,1383.6 971.33,1383.57 973.357,1383.54 975.384,1383.5 977.411,1383.47 979.438,1383.43 981.465,1383.4 983.492,1383.36 
  985.519,1383.33 987.546,1383.29 989.573,1383.26 991.6,1383.22 993.627,1383.18 995.654,1383.15 997.681,1383.11 999.708,1383.07 1001.74,1383.03 1003.76,1382.99 
  1005.79,1382.95 1007.82,1382.91 1009.84,1382.87 1011.87,1382.83 1013.9,1382.79 1015.92,1382.74 1017.95,1382.7 1019.98,1382.66 1022.01,1382.62 1024.03,1382.57 
  1026.06,1382.53 1028.09,1382.48 1030.11,1382.44 1032.14,1382.39 1034.17,1382.34 1036.19,1382.3 1038.22,1382.25 1040.25,1382.2 1042.28,1382.15 1044.3,1382.1 
  1046.33,1382.06 1048.36,1382.01 1050.38,1381.95 1052.41,1381.9 1054.44,1381.85 1056.46,1381.8 1058.49,1381.75 1060.52,1381.7 1062.55,1381.64 1064.57,1381.59 
  1066.6,1381.53 1068.63,1381.48 1070.65,1381.42 1072.68,1381.37 1074.71,1381.31 1076.73,1381.26 1078.76,1381.2 1080.79,1381.14 1082.82,1381.08 1084.84,1381.02 
  1086.87,1380.97 1088.9,1380.91 1090.92,1380.85 1092.95,1380.79 1094.98,1380.73 1097.01,1380.67 1099.03,1380.6 1101.06,1380.54 1103.09,1380.48 1105.11,1380.42 
  1107.14,1380.36 1109.17,1380.29 1111.19,1380.23 1113.22,1380.17 1115.25,1380.1 1117.28,1380.04 1119.3,1379.98 1121.33,1379.91 1123.36,1379.85 1125.38,1379.79 
  1127.41,1379.72 1129.44,1379.66 1131.46,1379.59 1133.49,1379.53 1135.52,1379.46 1137.55,1379.4 1139.57,1379.34 1141.6,1379.27 1143.63,1379.21 1145.65,1379.15 
  1147.68,1379.08 1149.71,1379.02 1151.73,1378.96 1153.76,1378.89 1155.79,1378.83 1157.82,1378.77 1159.84,1378.71 1161.87,1378.65 1163.9,1378.59 1165.92,1378.53 
  1167.95,1378.47 1169.98,1378.41 1172,1378.35 1174.03,1378.3 1176.06,1378.24 1178.09,1378.19 1180.11,1378.13 1182.14,1378.08 1184.17,1378.03 1186.19,1377.98 
  1188.22,1377.93 1190.25,1377.88 1192.27,1377.83 1194.3,1377.78 1196.33,1377.74 1198.36,1377.69 1200.38,1377.65 1202.41,1377.61 1204.44,1377.57 1206.46,1377.53 
  1208.49,1377.5 1210.52,1377.46 1212.54,1377.43 1214.57,1377.4 1216.6,1377.37 1218.63,1377.34 1220.65,1377.31 1222.68,1377.29 1224.71,1377.26 1226.73,1377.24 
  1228.76,1377.22 1230.79,1377.2 1232.81,1377.19 1234.84,1377.18 1236.87,1377.16 1238.9,1377.15 1240.92,1377.15 1242.95,1377.14 1244.98,1377.14 1247,1377.13 
  1249.03,1377.13 1251.06,1377.14 1253.09,1377.14 1255.11,1377.15 1257.14,1377.15 1259.17,1377.16 1261.19,1377.18 1263.22,1377.19 1265.25,1377.2 1267.27,1377.22 
  1269.3,1377.24 1271.33,1377.26 1273.36,1377.29 1275.38,1377.31 1277.41,1377.34 1279.44,1377.37 1281.46,1377.4 1283.49,1377.43 1285.52,1377.46 1287.54,1377.5 
  1289.57,1377.53 1291.6,1377.57 1293.63,1377.61 1295.65,1377.65 1297.68,1377.69 1299.71,1377.74 1301.73,1377.78 1303.76,1377.83 1305.79,1377.88 1307.81,1377.93 
  1309.84,1377.98 1311.87,1378.03 1313.9,1378.08 1315.92,1378.13 1317.95,1378.19 1319.98,1378.24 1322,1378.3 1324.03,1378.35 1326.06,1378.41 1328.08,1378.47 
  1330.11,1378.53 1332.14,1378.59 1334.17,1378.65 1336.19,1378.71 1338.22,1378.77 1340.25,1378.83 1342.27,1378.89 1344.3,1378.96 1346.33,1379.02 1348.35,1379.08 
  1350.38,1379.15 1352.41,1379.21 1354.44,1379.27 1356.46,1379.34 1358.49,1379.4 1360.52,1379.46 1362.54,1379.53 1364.57,1379.59 1366.6,1379.66 1368.62,1379.72 
  1370.65,1379.79 1372.68,1379.85 1374.71,1379.91 1376.73,1379.98 1378.76,1380.04 1380.79,1380.1 1382.81,1380.17 1384.84,1380.23 1386.87,1380.29 1388.89,1380.36 
  1390.92,1380.42 1392.95,1380.48 1394.98,1380.54 1397,1380.6 1399.03,1380.67 1401.06,1380.73 1403.08,1380.79 1405.11,1380.85 1407.14,1380.91 1409.17,1380.97 
  1411.19,1381.02 1413.22,1381.08 1415.25,1381.14 1417.27,1381.2 1419.3,1381.26 1421.33,1381.31 1423.35,1381.37 1425.38,1381.42 1427.41,1381.48 1429.44,1381.53 
  1431.46,1381.59 1433.49,1381.64 1435.52,1381.7 1437.54,1381.75 1439.57,1381.8 1441.6,1381.85 1443.62,1381.9 1445.65,1381.95 1447.68,1382.01 1449.71,1382.06 
  1451.73,1382.1 1453.76,1382.15 1455.79,1382.2 1457.81,1382.25 1459.84,1382.3 1461.87,1382.34 1463.89,1382.39 1465.92,1382.44 1467.95,1382.48 1469.98,1382.53 
  1472,1382.57 1474.03,1382.62 1476.06,1382.66 1478.08,1382.7 1480.11,1382.74 1482.14,1382.79 1484.16,1382.83 1486.19,1382.87 1488.22,1382.91 1490.25,1382.95 
  1492.27,1382.99 1494.3,1383.03 1496.33,1383.07 1498.35,1383.11 1500.38,1383.15 1502.41,1383.18 1504.43,1383.22 1506.46,1383.26 1508.49,1383.29 1510.52,1383.33 
  1512.54,1383.36 1514.57,1383.4 1516.6,1383.43 1518.62,1383.47 1520.65,1383.5 1522.68,1383.54 1524.7,1383.57 1526.73,1383.6 1528.76,1383.63 1530.79,1383.67 
  1532.81,1383.7 1534.84,1383.73 1536.87,1383.76 1538.89,1383.79 1540.92,1383.82 1542.95,1383.85 1544.97,1383.88 1547,1383.91 1549.03,1383.94 1551.06,1383.97 
  1553.08,1383.99 1555.11,1384.02 1557.14,1384.05 1559.16,1384.08 1561.19,1384.1 1563.22,1384.13 1565.24,1384.16 1567.27,1384.18 1569.3,1384.21 1571.33,1384.23 
  1573.35,1384.26 1575.38,1384.28 1577.41,1384.31 1579.43,1384.33 1581.46,1384.35 1583.49,1384.38 1585.52,1384.4 1587.54,1384.42 1589.57,1384.45 1591.6,1384.47 
  1593.62,1384.49 1595.65,1384.51 1597.68,1384.53 1599.7,1384.56 1601.73,1384.58 1603.76,1384.6 1605.79,1384.62 1607.81,1384.64 1609.84,1384.66 1611.87,1384.68 
  1613.89,1384.7 1615.92,1384.72 1617.95,1384.74 1619.97,1384.76 1622,1384.78 1624.03,1384.79 1626.06,1384.81 1628.08,1384.83 1630.11,1384.85 1632.14,1384.87 
  1634.16,1384.88 1636.19,1384.9 1638.22,1384.92 1640.24,1384.94 1642.27,1384.95 1644.3,1384.97 1646.33,1384.99 1648.35,1385 1650.38,1385.02 1652.41,1385.04 
  1654.43,1385.05 1656.46,1385.07 1658.49,1385.08 1660.51,1385.1 1662.54,1385.11 1664.57,1385.13 1666.6,1385.14 1668.62,1385.16 1670.65,1385.17 1672.68,1385.19 
  1674.7,1385.2 1676.73,1385.21 1678.76,1385.23 1680.78,1385.24 1682.81,1385.25 1684.84,1385.27 1686.87,1385.28 1688.89,1385.29 1690.92,1385.31 1692.95,1385.32 
  1694.97,1385.33 1697,1385.35 1699.03,1385.36 1701.05,1385.37 1703.08,1385.38 1705.11,1385.39 1707.14,1385.41 1709.16,1385.42 1711.19,1385.43 1713.22,1385.44 
  1715.24,1385.45 1717.27,1385.46 1719.3,1385.48 1721.32,1385.49 1723.35,1385.5 1725.38,1385.51 1727.41,1385.52 1729.43,1385.53 1731.46,1385.54 1733.49,1385.55 
  1735.51,1385.56 1737.54,1385.57 1739.57,1385.58 1741.6,1385.59 1743.62,1385.6 1745.65,1385.61 1747.68,1385.62 1749.7,1385.63 1751.73,1385.64 1753.76,1385.65 
  1755.78,1385.66 1757.81,1385.67 1759.84,1385.68 1761.87,1385.69 1763.89,1385.7 1765.92,1385.71 1767.95,1385.71 1769.97,1385.72 1772,1385.73 1774.03,1385.74 
  1776.05,1385.75 1778.08,1385.76 1780.11,1385.77 1782.14,1385.77 1784.16,1385.78 1786.19,1385.79 1788.22,1385.8 1790.24,1385.81 1792.27,1385.81 1794.3,1385.82 
  1796.32,1385.83 1798.35,1385.84 1800.38,1385.85 1802.41,1385.85 1804.43,1385.86 1806.46,1385.87 1808.49,1385.88 1810.51,1385.88 1812.54,1385.89 1814.57,1385.9 
  1816.59,1385.9 1818.62,1385.91 1820.65,1385.92 1822.68,1385.92 1824.7,1385.93 1826.73,1385.94 1828.76,1385.94 1830.78,1385.95 1832.81,1385.96 1834.84,1385.96 
  1836.86,1385.97 1838.89,1385.98 1840.92,1385.98 1842.95,1385.99 1844.97,1386 1847,1386 1849.03,1386.01 1851.05,1386.01 1853.08,1386.02 1855.11,1386.03 
  1857.13,1386.03 1859.16,1386.04 1861.19,1386.04 1863.22,1386.05 1865.24,1386.06 1867.27,1386.06 1869.3,1386.07 1871.32,1386.07 1873.35,1386.08 1875.38,1386.08 
  1877.4,1386.09 1879.43,1386.09 1881.46,1386.1 1883.49,1386.11 1885.51,1386.11 1887.54,1386.12 1889.57,1386.12 1891.59,1386.13 1893.62,1386.13 1895.65,1386.14 
  1897.68,1386.14 1899.7,1386.15 1901.73,1386.15 1903.76,1386.16 1905.78,1386.16 1907.81,1386.17 1909.84,1386.17 1911.86,1386.18 1913.89,1386.18 1915.92,1386.18 
  1917.95,1386.19 1919.97,1386.19 1922,1386.2 1924.03,1386.2 1926.05,1386.21 1928.08,1386.21 1930.11,1386.22 1932.13,1386.22 1934.16,1386.22 1936.19,1386.23 
  1938.22,1386.23 1940.24,1386.24 1942.27,1386.24 1944.3,1386.25 1946.32,1386.25 1948.35,1386.25 1950.38,1386.26 1952.4,1386.26 1954.43,1386.27 1956.46,1386.27 
  1958.49,1386.27 1960.51,1386.28 1962.54,1386.28 1964.57,1386.29 1966.59,1386.29 1968.62,1386.29 1970.65,1386.3 1972.67,1386.3 1974.7,1386.3 1976.73,1386.31 
  1978.76,1386.31 1980.78,1386.32 1982.81,1386.32 1984.84,1386.32 1986.86,1386.33 1988.89,1386.33 1990.92,1386.33 1992.94,1386.34 1994.97,1386.34 1997,1386.34 
  1999.03,1386.35 2001.05,1386.35 2003.08,1386.35 2005.11,1386.36 2007.13,1386.36 2009.16,1386.36 2011.19,1386.37 2013.21,1386.37 2015.24,1386.37 2017.27,1386.38 
  2019.3,1386.38 2021.32,1386.38 2023.35,1386.39 2025.38,1386.39 2027.4,1386.39 2029.43,1386.39 2031.46,1386.4 2033.48,1386.4 2035.51,1386.4 2037.54,1386.41 
  2039.57,1386.41 2041.59,1386.41 2043.62,1386.42 2045.65,1386.42 2047.67,1386.42 2049.7,1386.42 2051.73,1386.43 2053.76,1386.43 2055.78,1386.43 2057.81,1386.43 
  2059.84,1386.44 2061.86,1386.44 2063.89,1386.44 2065.92,1386.45 2067.94,1386.45 2069.97,1386.45 2072,1386.45 2074.03,1386.46 2076.05,1386.46 2078.08,1386.46 
  2080.11,1386.46 2082.13,1386.47 2084.16,1386.47 2086.19,1386.47 2088.21,1386.47 2090.24,1386.48 2092.27,1386.48 2094.3,1386.48 2096.32,1386.48 2098.35,1386.49 
  2100.38,1386.49 2102.4,1386.49 2104.43,1386.49 2106.46,1386.5 2108.48,1386.5 2110.51,1386.5 2112.54,1386.5 2114.57,1386.5 2116.59,1386.51 2118.62,1386.51 
  2120.65,1386.51 2122.67,1386.51 2124.7,1386.52 2126.73,1386.52 2128.75,1386.52 2130.78,1386.52 2132.81,1386.52 2134.84,1386.53 2136.86,1386.53 2138.89,1386.53 
  2140.92,1386.53 2142.94,1386.53 2144.97,1386.54 2147,1386.54 2149.02,1386.54 2151.05,1386.54 2153.08,1386.55 2155.11,1386.55 2157.13,1386.55 2159.16,1386.55 
  2161.19,1386.55 2163.21,1386.56 2165.24,1386.56 2167.27,1386.56 2169.29,1386.56 2171.32,1386.56 2173.35,1386.56 2175.38,1386.57 2177.4,1386.57 2179.43,1386.57 
  2181.46,1386.57 2183.48,1386.57 2185.51,1386.58 2187.54,1386.58 2189.56,1386.58 2191.59,1386.58 2193.62,1386.58 2195.65,1386.58 2197.67,1386.59 2199.7,1386.59 
  2201.73,1386.59 2203.75,1386.59 2205.78,1386.59 2207.81,1386.6 2209.83,1386.6 2211.86,1386.6 2213.89,1386.6 2215.92,1386.6 2217.94,1386.6 2219.97,1386.61 
  2222,1386.61 2224.02,1386.61 2226.05,1386.61 2228.08,1386.61 2230.11,1386.61 2232.13,1386.61 2234.16,1386.62 2236.19,1386.62 2238.21,1386.62 2240.24,1386.62 
  2242.27,1386.62 2244.29,1386.62 2246.32,1386.63 2248.35,1386.63 2250.38,1386.63 2252.4,1386.63 2254.43,1386.63 2256.46,1386.63 2258.48,1386.63 2260.51,1386.64 
  
  "/>
<circle clip-path="url(#clip5703)" style="fill:#000000; stroke:none; fill-opacity:1" cx="235.525" cy="1386.64" r="18"/>
<circle clip-path="url(#clip5703)" style="fill:#e26f46; stroke:none; fill-opacity:1" cx="235.525" cy="1386.64" r="14"/>
<circle clip-path="url(#clip5703)" style="fill:#000000; stroke:none; fill-opacity:1" cx="327.57" cy="1386.56" r="18"/>
<circle clip-path="url(#clip5703)" style="fill:#e26f46; stroke:none; fill-opacity:1" cx="327.57" cy="1386.56" r="14"/>
<circle clip-path="url(#clip5703)" style="fill:#000000; stroke:none; fill-opacity:1" cx="419.614" cy="1386.46" r="18"/>
<circle clip-path="url(#clip5703)" style="fill:#e26f46; stroke:none; fill-opacity:1" cx="419.614" cy="1386.46" r="14"/>
<circle clip-path="url(#clip5703)" style="fill:#000000; stroke:none; fill-opacity:1" cx="511.659" cy="1386.32" r="18"/>
<circle clip-path="url(#clip5703)" style="fill:#e26f46; stroke:none; fill-opacity:1" cx="511.659" cy="1386.32" r="14"/>
<circle clip-path="url(#clip5703)" style="fill:#000000; stroke:none; fill-opacity:1" cx="603.704" cy="1386.13" r="18"/>
<circle clip-path="url(#clip5703)" style="fill:#e26f46; stroke:none; fill-opacity:1" cx="603.704" cy="1386.13" r="14"/>
<circle clip-path="url(#clip5703)" style="fill:#000000; stroke:none; fill-opacity:1" cx="695.749" cy="1385.85" r="18"/>
<circle clip-path="url(#clip5703)" style="fill:#e26f46; stroke:none; fill-opacity:1" cx="695.749" cy="1385.85" r="14"/>
<circle clip-path="url(#clip5703)" style="fill:#000000; stroke:none; fill-opacity:1" cx="787.794" cy="1385.41" r="18"/>
<circle clip-path="url(#clip5703)" style="fill:#e26f46; stroke:none; fill-opacity:1" cx="787.794" cy="1385.41" r="14"/>
<circle clip-path="url(#clip5703)" style="fill:#000000; stroke:none; fill-opacity:1" cx="879.838" cy="1384.72" r="18"/>
<circle clip-path="url(#clip5703)" style="fill:#e26f46; stroke:none; fill-opacity:1" cx="879.838" cy="1384.72" r="14"/>
<circle clip-path="url(#clip5703)" style="fill:#000000; stroke:none; fill-opacity:1" cx="971.883" cy="1383.56" r="18"/>
<circle clip-path="url(#clip5703)" style="fill:#e26f46; stroke:none; fill-opacity:1" cx="971.883" cy="1383.56" r="14"/>
<circle clip-path="url(#clip5703)" style="fill:#000000; stroke:none; fill-opacity:1" cx="1063.93" cy="1381.61" r="18"/>
<circle clip-path="url(#clip5703)" style="fill:#e26f46; stroke:none; fill-opacity:1" cx="1063.93" cy="1381.61" r="14"/>
<circle clip-path="url(#clip5703)" style="fill:#000000; stroke:none; fill-opacity:1" cx="1155.97" cy="1378.83" r="18"/>
<circle clip-path="url(#clip5703)" style="fill:#e26f46; stroke:none; fill-opacity:1" cx="1155.97" cy="1378.83" r="14"/>
<circle clip-path="url(#clip5703)" style="fill:#000000; stroke:none; fill-opacity:1" cx="1248.02" cy="1377.13" r="18"/>
<circle clip-path="url(#clip5703)" style="fill:#e26f46; stroke:none; fill-opacity:1" cx="1248.02" cy="1377.13" r="14"/>
<circle clip-path="url(#clip5703)" style="fill:#000000; stroke:none; fill-opacity:1" cx="1340.06" cy="1378.83" r="18"/>
<circle clip-path="url(#clip5703)" style="fill:#e26f46; stroke:none; fill-opacity:1" cx="1340.06" cy="1378.83" r="14"/>
<circle clip-path="url(#clip5703)" style="fill:#000000; stroke:none; fill-opacity:1" cx="1432.11" cy="1381.61" r="18"/>
<circle clip-path="url(#clip5703)" style="fill:#e26f46; stroke:none; fill-opacity:1" cx="1432.11" cy="1381.61" r="14"/>
<circle clip-path="url(#clip5703)" style="fill:#000000; stroke:none; fill-opacity:1" cx="1524.15" cy="1383.56" r="18"/>
<circle clip-path="url(#clip5703)" style="fill:#e26f46; stroke:none; fill-opacity:1" cx="1524.15" cy="1383.56" r="14"/>
<circle clip-path="url(#clip5703)" style="fill:#000000; stroke:none; fill-opacity:1" cx="1616.2" cy="1384.72" r="18"/>
<circle clip-path="url(#clip5703)" style="fill:#e26f46; stroke:none; fill-opacity:1" cx="1616.2" cy="1384.72" r="14"/>
<circle clip-path="url(#clip5703)" style="fill:#000000; stroke:none; fill-opacity:1" cx="1708.24" cy="1385.41" r="18"/>
<circle clip-path="url(#clip5703)" style="fill:#e26f46; stroke:none; fill-opacity:1" cx="1708.24" cy="1385.41" r="14"/>
<circle clip-path="url(#clip5703)" style="fill:#000000; stroke:none; fill-opacity:1" cx="1800.29" cy="1385.85" r="18"/>
<circle clip-path="url(#clip5703)" style="fill:#e26f46; stroke:none; fill-opacity:1" cx="1800.29" cy="1385.85" r="14"/>
<circle clip-path="url(#clip5703)" style="fill:#000000; stroke:none; fill-opacity:1" cx="1892.33" cy="1386.13" r="18"/>
<circle clip-path="url(#clip5703)" style="fill:#e26f46; stroke:none; fill-opacity:1" cx="1892.33" cy="1386.13" r="14"/>
<circle clip-path="url(#clip5703)" style="fill:#000000; stroke:none; fill-opacity:1" cx="1984.38" cy="1386.32" r="18"/>
<circle clip-path="url(#clip5703)" style="fill:#e26f46; stroke:none; fill-opacity:1" cx="1984.38" cy="1386.32" r="14"/>
<circle clip-path="url(#clip5703)" style="fill:#000000; stroke:none; fill-opacity:1" cx="2076.42" cy="1386.46" r="18"/>
<circle clip-path="url(#clip5703)" style="fill:#e26f46; stroke:none; fill-opacity:1" cx="2076.42" cy="1386.46" r="14"/>
<circle clip-path="url(#clip5703)" style="fill:#000000; stroke:none; fill-opacity:1" cx="2168.47" cy="1386.56" r="18"/>
<circle clip-path="url(#clip5703)" style="fill:#e26f46; stroke:none; fill-opacity:1" cx="2168.47" cy="1386.56" r="14"/>
<circle clip-path="url(#clip5703)" style="fill:#000000; stroke:none; fill-opacity:1" cx="2260.51" cy="1386.64" r="18"/>
<circle clip-path="url(#clip5703)" style="fill:#e26f46; stroke:none; fill-opacity:1" cx="2260.51" cy="1386.64" r="14"/>
<polyline clip-path="url(#clip5703)" style="stroke:#3da44d; stroke-width:4; stroke-opacity:1; fill:none" points="
  235.525,1386.64 237.552,1127.44 239.579,908.391 241.606,725.381 243.633,574.624 245.66,452.649 247.687,356.275 249.714,282.592 251.741,228.94 253.768,192.892 
  255.795,172.239 257.822,164.97 259.849,169.262 261.876,183.463 263.903,206.079 265.93,235.766 267.957,271.311 269.984,311.629 272.011,355.748 274.038,402.803 
  276.065,452.025 278.092,502.733 280.119,554.329 282.146,606.289 284.173,658.156 286.2,709.534 288.227,760.085 290.254,809.521 292.281,857.599 294.308,904.119 
  296.335,948.919 298.362,991.868 300.389,1032.87 302.416,1071.84 304.443,1108.75 306.47,1143.56 308.497,1176.26 310.524,1206.86 312.551,1235.38 314.578,1261.85 
  316.605,1286.32 318.632,1308.85 320.659,1329.48 322.686,1348.29 324.713,1365.35 326.74,1380.73 328.767,1394.52 330.794,1406.78 332.821,1417.61 334.848,1427.08 
  336.875,1435.27 338.902,1442.27 340.929,1448.16 342.956,1453.01 344.983,1456.9 347.01,1459.9 349.037,1462.1 351.064,1463.55 353.091,1464.32 355.119,1464.49 
  357.146,1464.1 359.173,1463.23 361.2,1461.92 363.227,1460.23 365.254,1458.2 367.281,1455.89 369.308,1453.33 371.335,1450.57 373.362,1447.64 375.389,1444.59 
  377.416,1441.44 379.443,1438.21 381.47,1434.95 383.497,1431.67 385.524,1428.4 387.551,1425.16 389.578,1421.95 391.605,1418.81 393.632,1415.74 395.659,1412.76 
  397.686,1409.88 399.713,1407.1 401.74,1404.43 403.767,1401.89 405.794,1399.47 407.821,1397.18 409.848,1395.02 411.875,1392.99 413.902,1391.09 415.929,1389.33 
  417.956,1387.7 419.983,1386.2 422.01,1384.82 424.037,1383.57 426.064,1382.45 428.091,1381.44 430.118,1380.54 432.145,1379.76 434.172,1379.08 436.199,1378.5 
  438.226,1378.01 440.253,1377.62 442.28,1377.31 444.307,1377.08 446.334,1376.92 448.361,1376.84 450.388,1376.82 452.415,1376.86 454.442,1376.95 456.469,1377.09 
  458.496,1377.27 460.523,1377.5 462.55,1377.76 464.577,1378.05 466.604,1378.37 468.631,1378.71 470.658,1379.07 472.685,1379.45 474.712,1379.84 476.739,1380.24 
  478.766,1380.64 480.793,1381.05 482.82,1381.46 484.847,1381.87 486.874,1382.27 488.901,1382.67 490.928,1383.06 492.955,1383.44 494.982,1383.81 497.009,1384.17 
  499.036,1384.51 501.063,1384.84 503.09,1385.16 505.117,1385.46 507.144,1385.75 509.171,1386.02 511.198,1386.27 513.225,1386.5 515.253,1386.72 517.28,1386.92 
  519.307,1387.1 521.334,1387.27 523.361,1387.41 525.388,1387.55 527.415,1387.66 529.442,1387.76 531.469,1387.85 533.496,1387.92 535.523,1387.98 537.55,1388.02 
  539.577,1388.05 541.604,1388.07 543.631,1388.08 545.658,1388.07 547.685,1388.06 549.712,1388.04 551.739,1388 553.766,1387.97 555.793,1387.92 557.82,1387.86 
  559.847,1387.81 561.874,1387.74 563.901,1387.67 565.928,1387.6 567.955,1387.52 569.982,1387.44 572.009,1387.36 574.036,1387.28 576.063,1387.19 578.09,1387.11 
  580.117,1387.02 582.144,1386.94 584.171,1386.85 586.198,1386.77 588.225,1386.68 590.252,1386.6 592.279,1386.53 594.306,1386.45 596.333,1386.37 598.36,1386.3 
  600.387,1386.23 602.414,1386.17 604.441,1386.11 606.468,1386.05 608.495,1385.99 610.522,1385.94 612.549,1385.89 614.576,1385.84 616.603,1385.8 618.63,1385.76 
  620.657,1385.73 622.684,1385.69 624.711,1385.67 626.738,1385.64 628.765,1385.62 630.792,1385.6 632.819,1385.58 634.846,1385.57 636.873,1385.56 638.9,1385.55 
  640.927,1385.55 642.954,1385.55 644.981,1385.55 647.008,1385.55 649.035,1385.55 651.062,1385.56 653.089,1385.56 655.116,1385.57 657.143,1385.58 659.17,1385.59 
  661.197,1385.61 663.224,1385.62 665.251,1385.63 667.278,1385.65 669.305,1385.66 671.332,1385.68 673.359,1385.69 675.386,1385.71 677.414,1385.72 679.441,1385.74 
  681.468,1385.75 683.495,1385.77 685.522,1385.78 687.549,1385.8 689.576,1385.81 691.603,1385.82 693.63,1385.83 695.657,1385.84 697.684,1385.85 699.711,1385.86 
  701.738,1385.87 703.765,1385.88 705.792,1385.88 707.819,1385.89 709.846,1385.89 711.873,1385.9 713.9,1385.9 715.927,1385.9 717.954,1385.9 719.981,1385.9 
  722.008,1385.89 724.035,1385.89 726.062,1385.88 728.089,1385.88 730.116,1385.87 732.143,1385.86 734.17,1385.85 736.197,1385.84 738.224,1385.83 740.251,1385.82 
  742.278,1385.81 744.305,1385.8 746.332,1385.78 748.359,1385.77 750.386,1385.75 752.413,1385.74 754.44,1385.72 756.467,1385.7 758.494,1385.69 760.521,1385.67 
  762.548,1385.65 764.575,1385.63 766.602,1385.61 768.629,1385.6 770.656,1385.58 772.683,1385.56 774.71,1385.54 776.737,1385.52 778.764,1385.5 780.791,1385.48 
  782.818,1385.46 784.845,1385.44 786.872,1385.42 788.899,1385.4 790.926,1385.38 792.953,1385.37 794.98,1385.35 797.007,1385.33 799.034,1385.31 801.061,1385.29 
  803.088,1385.27 805.115,1385.26 807.142,1385.24 809.169,1385.22 811.196,1385.21 813.223,1385.19 815.25,1385.17 817.277,1385.16 819.304,1385.14 821.331,1385.13 
  823.358,1385.11 825.385,1385.1 827.412,1385.08 829.439,1385.07 831.466,1385.05 833.493,1385.04 835.52,1385.03 837.547,1385.01 839.575,1385 841.602,1384.99 
  843.629,1384.97 845.656,1384.96 847.683,1384.95 849.71,1384.93 851.737,1384.92 853.764,1384.91 855.791,1384.89 857.818,1384.88 859.845,1384.86 861.872,1384.85 
  863.899,1384.84 865.926,1384.82 867.953,1384.81 869.98,1384.79 872.007,1384.78 874.034,1384.77 876.061,1384.75 878.088,1384.73 880.115,1384.72 882.142,1384.7 
  884.169,1384.69 886.196,1384.67 888.223,1384.65 890.25,1384.64 892.277,1384.62 894.304,1384.6 896.331,1384.58 898.358,1384.56 900.385,1384.54 902.412,1384.52 
  904.439,1384.5 906.466,1384.48 908.493,1384.46 910.52,1384.44 912.547,1384.42 914.574,1384.39 916.601,1384.37 918.628,1384.35 920.655,1384.32 922.682,1384.3 
  924.709,1384.27 926.736,1384.25 928.763,1384.22 930.79,1384.19 932.817,1384.17 934.844,1384.14 936.871,1384.11 938.898,1384.08 940.925,1384.05 942.952,1384.02 
  944.979,1383.99 947.006,1383.96 949.033,1383.93 951.06,1383.9 953.087,1383.87 955.114,1383.84 957.141,1383.81 959.168,1383.77 961.195,1383.74 963.222,1383.71 
  965.249,1383.67 967.276,1383.64 969.303,1383.6 971.33,1383.57 973.357,1383.53 975.384,1383.5 977.411,1383.46 979.438,1383.43 981.465,1383.39 983.492,1383.35 
  985.519,1383.32 987.546,1383.28 989.573,1383.24 991.6,1383.2 993.627,1383.16 995.654,1383.13 997.681,1383.09 999.708,1383.05 1001.74,1383.01 1003.76,1382.97 
  1005.79,1382.93 1007.82,1382.89 1009.84,1382.84 1011.87,1382.8 1013.9,1382.76 1015.92,1382.72 1017.95,1382.68 1019.98,1382.63 1022.01,1382.59 1024.03,1382.55 
  1026.06,1382.5 1028.09,1382.46 1030.11,1382.41 1032.14,1382.37 1034.17,1382.32 1036.19,1382.28 1038.22,1382.23 1040.25,1382.19 1042.28,1382.14 1044.3,1382.09 
  1046.33,1382.04 1048.36,1381.99 1050.38,1381.94 1052.41,1381.9 1054.44,1381.85 1056.46,1381.8 1058.49,1381.74 1060.52,1381.69 1062.55,1381.64 1064.57,1381.59 
  1066.6,1381.54 1068.63,1381.48 1070.65,1381.43 1072.68,1381.37 1074.71,1381.32 1076.73,1381.26 1078.76,1381.21 1080.79,1381.15 1082.82,1381.09 1084.84,1381.04 
  1086.87,1380.98 1088.9,1380.92 1090.92,1380.86 1092.95,1380.8 1094.98,1380.74 1097.01,1380.68 1099.03,1380.62 1101.06,1380.56 1103.09,1380.5 1105.11,1380.44 
  1107.14,1380.37 1109.17,1380.31 1111.19,1380.25 1113.22,1380.18 1115.25,1380.12 1117.28,1380.06 1119.3,1379.99 1121.33,1379.93 1123.36,1379.86 1125.38,1379.8 
  1127.41,1379.73 1129.44,1379.67 1131.46,1379.6 1133.49,1379.54 1135.52,1379.47 1137.55,1379.41 1139.57,1379.34 1141.6,1379.28 1143.63,1379.21 1145.65,1379.15 
  1147.68,1379.09 1149.71,1379.02 1151.73,1378.96 1153.76,1378.89 1155.79,1378.83 1157.82,1378.77 1159.84,1378.71 1161.87,1378.65 1163.9,1378.59 1165.92,1378.53 
  1167.95,1378.47 1169.98,1378.41 1172,1378.35 1174.03,1378.29 1176.06,1378.24 1178.09,1378.18 1180.11,1378.13 1182.14,1378.07 1184.17,1378.02 1186.19,1377.97 
  1188.22,1377.92 1190.25,1377.87 1192.27,1377.82 1194.3,1377.78 1196.33,1377.73 1198.36,1377.69 1200.38,1377.65 1202.41,1377.6 1204.44,1377.57 1206.46,1377.53 
  1208.49,1377.49 1210.52,1377.46 1212.54,1377.42 1214.57,1377.39 1216.6,1377.36 1218.63,1377.33 1220.65,1377.31 1222.68,1377.28 1224.71,1377.26 1226.73,1377.24 
  1228.76,1377.22 1230.79,1377.2 1232.81,1377.19 1234.84,1377.17 1236.87,1377.16 1238.9,1377.15 1240.92,1377.15 1242.95,1377.14 1244.98,1377.14 1247,1377.13 
  1249.03,1377.13 1251.06,1377.14 1253.09,1377.14 1255.11,1377.15 1257.14,1377.15 1259.17,1377.16 1261.19,1377.17 1263.22,1377.19 1265.25,1377.2 1267.27,1377.22 
  1269.3,1377.24 1271.33,1377.26 1273.36,1377.28 1275.38,1377.31 1277.41,1377.33 1279.44,1377.36 1281.46,1377.39 1283.49,1377.42 1285.52,1377.46 1287.54,1377.49 
  1289.57,1377.53 1291.6,1377.57 1293.63,1377.6 1295.65,1377.65 1297.68,1377.69 1299.71,1377.73 1301.73,1377.78 1303.76,1377.82 1305.79,1377.87 1307.81,1377.92 
  1309.84,1377.97 1311.87,1378.02 1313.9,1378.07 1315.92,1378.13 1317.95,1378.18 1319.98,1378.24 1322,1378.29 1324.03,1378.35 1326.06,1378.41 1328.08,1378.47 
  1330.11,1378.53 1332.14,1378.59 1334.17,1378.65 1336.19,1378.71 1338.22,1378.77 1340.25,1378.83 1342.27,1378.89 1344.3,1378.96 1346.33,1379.02 1348.35,1379.09 
  1350.38,1379.15 1352.41,1379.21 1354.44,1379.28 1356.46,1379.34 1358.49,1379.41 1360.52,1379.47 1362.54,1379.54 1364.57,1379.6 1366.6,1379.67 1368.62,1379.73 
  1370.65,1379.8 1372.68,1379.86 1374.71,1379.93 1376.73,1379.99 1378.76,1380.06 1380.79,1380.12 1382.81,1380.18 1384.84,1380.25 1386.87,1380.31 1388.89,1380.37 
  1390.92,1380.44 1392.95,1380.5 1394.98,1380.56 1397,1380.62 1399.03,1380.68 1401.06,1380.74 1403.08,1380.8 1405.11,1380.86 1407.14,1380.92 1409.17,1380.98 
  1411.19,1381.04 1413.22,1381.09 1415.25,1381.15 1417.27,1381.21 1419.3,1381.26 1421.33,1381.32 1423.35,1381.37 1425.38,1381.43 1427.41,1381.48 1429.44,1381.54 
  1431.46,1381.59 1433.49,1381.64 1435.52,1381.69 1437.54,1381.74 1439.57,1381.8 1441.6,1381.85 1443.62,1381.9 1445.65,1381.94 1447.68,1381.99 1449.71,1382.04 
  1451.73,1382.09 1453.76,1382.14 1455.79,1382.19 1457.81,1382.23 1459.84,1382.28 1461.87,1382.32 1463.89,1382.37 1465.92,1382.41 1467.95,1382.46 1469.98,1382.5 
  1472,1382.55 1474.03,1382.59 1476.06,1382.63 1478.08,1382.68 1480.11,1382.72 1482.14,1382.76 1484.16,1382.8 1486.19,1382.84 1488.22,1382.89 1490.25,1382.93 
  1492.27,1382.97 1494.3,1383.01 1496.33,1383.05 1498.35,1383.09 1500.38,1383.13 1502.41,1383.16 1504.43,1383.2 1506.46,1383.24 1508.49,1383.28 1510.52,1383.32 
  1512.54,1383.35 1514.57,1383.39 1516.6,1383.43 1518.62,1383.46 1520.65,1383.5 1522.68,1383.53 1524.7,1383.57 1526.73,1383.6 1528.76,1383.64 1530.79,1383.67 
  1532.81,1383.71 1534.84,1383.74 1536.87,1383.77 1538.89,1383.81 1540.92,1383.84 1542.95,1383.87 1544.97,1383.9 1547,1383.93 1549.03,1383.96 1551.06,1383.99 
  1553.08,1384.02 1555.11,1384.05 1557.14,1384.08 1559.16,1384.11 1561.19,1384.14 1563.22,1384.17 1565.24,1384.19 1567.27,1384.22 1569.3,1384.25 1571.33,1384.27 
  1573.35,1384.3 1575.38,1384.32 1577.41,1384.35 1579.43,1384.37 1581.46,1384.39 1583.49,1384.42 1585.52,1384.44 1587.54,1384.46 1589.57,1384.48 1591.6,1384.5 
  1593.62,1384.52 1595.65,1384.54 1597.68,1384.56 1599.7,1384.58 1601.73,1384.6 1603.76,1384.62 1605.79,1384.64 1607.81,1384.65 1609.84,1384.67 1611.87,1384.69 
  1613.89,1384.7 1615.92,1384.72 1617.95,1384.73 1619.97,1384.75 1622,1384.77 1624.03,1384.78 1626.06,1384.79 1628.08,1384.81 1630.11,1384.82 1632.14,1384.84 
  1634.16,1384.85 1636.19,1384.86 1638.22,1384.88 1640.24,1384.89 1642.27,1384.91 1644.3,1384.92 1646.33,1384.93 1648.35,1384.95 1650.38,1384.96 1652.41,1384.97 
  1654.43,1384.99 1656.46,1385 1658.49,1385.01 1660.51,1385.03 1662.54,1385.04 1664.57,1385.05 1666.6,1385.07 1668.62,1385.08 1670.65,1385.1 1672.68,1385.11 
  1674.7,1385.13 1676.73,1385.14 1678.76,1385.16 1680.78,1385.17 1682.81,1385.19 1684.84,1385.21 1686.87,1385.22 1688.89,1385.24 1690.92,1385.26 1692.95,1385.27 
  1694.97,1385.29 1697,1385.31 1699.03,1385.33 1701.05,1385.35 1703.08,1385.37 1705.11,1385.38 1707.14,1385.4 1709.16,1385.42 1711.19,1385.44 1713.22,1385.46 
  1715.24,1385.48 1717.27,1385.5 1719.3,1385.52 1721.32,1385.54 1723.35,1385.56 1725.38,1385.58 1727.41,1385.6 1729.43,1385.61 1731.46,1385.63 1733.49,1385.65 
  1735.51,1385.67 1737.54,1385.69 1739.57,1385.7 1741.6,1385.72 1743.62,1385.74 1745.65,1385.75 1747.68,1385.77 1749.7,1385.78 1751.73,1385.8 1753.76,1385.81 
  1755.78,1385.82 1757.81,1385.83 1759.84,1385.84 1761.87,1385.85 1763.89,1385.86 1765.92,1385.87 1767.95,1385.88 1769.97,1385.88 1772,1385.89 1774.03,1385.89 
  1776.05,1385.9 1778.08,1385.9 1780.11,1385.9 1782.14,1385.9 1784.16,1385.9 1786.19,1385.89 1788.22,1385.89 1790.24,1385.88 1792.27,1385.88 1794.3,1385.87 
  1796.32,1385.86 1798.35,1385.85 1800.38,1385.84 1802.41,1385.83 1804.43,1385.82 1806.46,1385.81 1808.49,1385.8 1810.51,1385.78 1812.54,1385.77 1814.57,1385.75 
  1816.59,1385.74 1818.62,1385.72 1820.65,1385.71 1822.68,1385.69 1824.7,1385.68 1826.73,1385.66 1828.76,1385.65 1830.78,1385.63 1832.81,1385.62 1834.84,1385.61 
  1836.86,1385.59 1838.89,1385.58 1840.92,1385.57 1842.95,1385.56 1844.97,1385.56 1847,1385.55 1849.03,1385.55 1851.05,1385.55 1853.08,1385.55 1855.11,1385.55 
  1857.13,1385.55 1859.16,1385.56 1861.19,1385.57 1863.22,1385.58 1865.24,1385.6 1867.27,1385.62 1869.3,1385.64 1871.32,1385.67 1873.35,1385.69 1875.38,1385.73 
  1877.4,1385.76 1879.43,1385.8 1881.46,1385.84 1883.49,1385.89 1885.51,1385.94 1887.54,1385.99 1889.57,1386.05 1891.59,1386.11 1893.62,1386.17 1895.65,1386.23 
  1897.68,1386.3 1899.7,1386.37 1901.73,1386.45 1903.76,1386.53 1905.78,1386.6 1907.81,1386.68 1909.84,1386.77 1911.86,1386.85 1913.89,1386.94 1915.92,1387.02 
  1917.95,1387.11 1919.97,1387.19 1922,1387.28 1924.03,1387.36 1926.05,1387.44 1928.08,1387.52 1930.11,1387.6 1932.13,1387.67 1934.16,1387.74 1936.19,1387.81 
  1938.22,1387.86 1940.24,1387.92 1942.27,1387.97 1944.3,1388 1946.32,1388.04 1948.35,1388.06 1950.38,1388.07 1952.4,1388.08 1954.43,1388.07 1956.46,1388.05 
  1958.49,1388.02 1960.51,1387.98 1962.54,1387.92 1964.57,1387.85 1966.59,1387.76 1968.62,1387.66 1970.65,1387.55 1972.67,1387.41 1974.7,1387.27 1976.73,1387.1 
  1978.76,1386.92 1980.78,1386.72 1982.81,1386.5 1984.84,1386.27 1986.86,1386.02 1988.89,1385.75 1990.92,1385.46 1992.94,1385.16 1994.97,1384.84 1997,1384.51 
  1999.03,1384.17 2001.05,1383.81 2003.08,1383.44 2005.11,1383.06 2007.13,1382.67 2009.16,1382.27 2011.19,1381.87 2013.21,1381.46 2015.24,1381.05 2017.27,1380.64 
  2019.3,1380.24 2021.32,1379.84 2023.35,1379.45 2025.38,1379.07 2027.4,1378.71 2029.43,1378.37 2031.46,1378.05 2033.48,1377.76 2035.51,1377.5 2037.54,1377.27 
  2039.57,1377.09 2041.59,1376.95 2043.62,1376.86 2045.65,1376.82 2047.67,1376.84 2049.7,1376.92 2051.73,1377.08 2053.76,1377.31 2055.78,1377.62 2057.81,1378.01 
  2059.84,1378.5 2061.86,1379.08 2063.89,1379.76 2065.92,1380.54 2067.94,1381.44 2069.97,1382.45 2072,1383.57 2074.03,1384.82 2076.05,1386.2 2078.08,1387.7 
  2080.11,1389.33 2082.13,1391.09 2084.16,1392.99 2086.19,1395.02 2088.21,1397.18 2090.24,1399.47 2092.27,1401.89 2094.3,1404.43 2096.32,1407.1 2098.35,1409.88 
  2100.38,1412.76 2102.4,1415.74 2104.43,1418.81 2106.46,1421.95 2108.48,1425.16 2110.51,1428.4 2112.54,1431.67 2114.57,1434.95 2116.59,1438.21 2118.62,1441.44 
  2120.65,1444.59 2122.67,1447.64 2124.7,1450.57 2126.73,1453.33 2128.75,1455.89 2130.78,1458.2 2132.81,1460.23 2134.84,1461.92 2136.86,1463.23 2138.89,1464.1 
  2140.92,1464.49 2142.94,1464.32 2144.97,1463.55 2147,1462.1 2149.02,1459.9 2151.05,1456.9 2153.08,1453.01 2155.11,1448.16 2157.13,1442.27 2159.16,1435.27 
  2161.19,1427.08 2163.21,1417.61 2165.24,1406.78 2167.27,1394.52 2169.29,1380.73 2171.32,1365.35 2173.35,1348.29 2175.38,1329.48 2177.4,1308.85 2179.43,1286.32 
  2181.46,1261.85 2183.48,1235.38 2185.51,1206.86 2187.54,1176.26 2189.56,1143.56 2191.59,1108.75 2193.62,1071.84 2195.65,1032.87 2197.67,991.868 2199.7,948.919 
  2201.73,904.119 2203.75,857.599 2205.78,809.521 2207.81,760.085 2209.83,709.534 2211.86,658.156 2213.89,606.289 2215.92,554.329 2217.94,502.733 2219.97,452.025 
  2222,402.803 2224.02,355.748 2226.05,311.629 2228.08,271.311 2230.11,235.766 2232.13,206.079 2234.16,183.463 2236.19,169.262 2238.21,164.97 2240.24,172.239 
  2242.27,192.892 2244.29,228.94 2246.32,282.592 2248.35,356.275 2250.38,452.649 2252.4,574.624 2254.43,725.381 2256.46,908.391 2258.48,1127.44 2260.51,1386.64 
  
  "/>
<polygon clip-path="url(#clip5701)" points="
1685.51,451.424 2249.26,451.424 2249.26,209.504 1685.51,209.504 
  " fill="#ffffff" fill-rule="evenodd" fill-opacity="1"/>
<polyline clip-path="url(#clip5701)" style="stroke:#000000; stroke-width:4; stroke-opacity:1; fill:none" points="
  1685.51,451.424 2249.26,451.424 2249.26,209.504 1685.51,209.504 1685.51,451.424 
  "/>
<polyline clip-path="url(#clip5701)" style="stroke:#009af9; stroke-width:4; stroke-opacity:1; fill:none" points="
  1709.51,269.984 1853.51,269.984 
  "/>
<g clip-path="url(#clip5701)">
<text style="fill:#000000; fill-opacity:1; font-family:Arial,Helvetica Neue,Helvetica,sans-serif; font-size:48px; text-anchor:start;" transform="rotate(0, 1877.51, 287.484)" x="1877.51" y="287.484">Runge function</text>
</g>
<circle clip-path="url(#clip5701)" style="fill:#000000; stroke:none; fill-opacity:1" cx="1793.51" cy="330.464" r="25"/>
<circle clip-path="url(#clip5701)" style="fill:#e26f46; stroke:none; fill-opacity:1" cx="1793.51" cy="330.464" r="21"/>
<g clip-path="url(#clip5701)">
<text style="fill:#000000; fill-opacity:1; font-family:Arial,Helvetica Neue,Helvetica,sans-serif; font-size:48px; text-anchor:start;" transform="rotate(0, 1877.51, 347.964)" x="1877.51" y="347.964">Nodes</text>
</g>
<polyline clip-path="url(#clip5701)" style="stroke:#3da44d; stroke-width:4; stroke-opacity:1; fill:none" points="
  1709.51,390.944 1853.51,390.944 
  "/>
<g clip-path="url(#clip5701)">
<text style="fill:#000000; fill-opacity:1; font-family:Arial,Helvetica Neue,Helvetica,sans-serif; font-size:48px; text-anchor:start;" transform="rotate(0, 1877.51, 408.444)" x="1877.51" y="408.444">Intepolation</text>
</g>
</svg>
