<?xml version="1.0" encoding="utf-8"?>
<svg xmlns="http://www.w3.org/2000/svg" xmlns:xlink="http://www.w3.org/1999/xlink" width="600" height="400" viewBox="0 0 2400 1600">
<defs>
  <clipPath id="clip9500">
    <rect x="0" y="0" width="2000" height="2000"/>
  </clipPath>
</defs>
<defs>
  <clipPath id="clip9501">
    <rect x="0" y="0" width="2400" height="1600"/>
  </clipPath>
</defs>
<polygon clip-path="url(#clip9501)" points="
0,1600 2400,1600 2400,0 0,0 
  " fill="#ffffff" fill-rule="evenodd" fill-opacity="1"/>
<defs>
  <clipPath id="clip9502">
    <rect x="480" y="0" width="1681" height="1600"/>
  </clipPath>
</defs>
<polygon clip-path="url(#clip9501)" points="
149.361,1503.47 2321.26,1503.47 2321.26,125.984 149.361,125.984 
  " fill="#ffffff" fill-rule="evenodd" fill-opacity="1"/>
<defs>
  <clipPath id="clip9503">
    <rect x="149" y="125" width="2173" height="1378"/>
  </clipPath>
</defs>
<polyline clip-path="url(#clip9503)" style="stroke:#000000; stroke-width:2; stroke-opacity:0.1; fill:none" points="
  210.829,1503.47 210.829,125.984 
  "/>
<polyline clip-path="url(#clip9503)" style="stroke:#000000; stroke-width:2; stroke-opacity:0.1; fill:none" points="
  723.07,1503.47 723.07,125.984 
  "/>
<polyline clip-path="url(#clip9503)" style="stroke:#000000; stroke-width:2; stroke-opacity:0.1; fill:none" points="
  1235.31,1503.47 1235.31,125.984 
  "/>
<polyline clip-path="url(#clip9503)" style="stroke:#000000; stroke-width:2; stroke-opacity:0.1; fill:none" points="
  1747.55,1503.47 1747.55,125.984 
  "/>
<polyline clip-path="url(#clip9503)" style="stroke:#000000; stroke-width:2; stroke-opacity:0.1; fill:none" points="
  2259.79,1503.47 2259.79,125.984 
  "/>
<polyline clip-path="url(#clip9503)" style="stroke:#000000; stroke-width:2; stroke-opacity:0.1; fill:none" points="
  149.361,1289.93 2321.26,1289.93 
  "/>
<polyline clip-path="url(#clip9503)" style="stroke:#000000; stroke-width:2; stroke-opacity:0.1; fill:none" points="
  149.361,1008.69 2321.26,1008.69 
  "/>
<polyline clip-path="url(#clip9503)" style="stroke:#000000; stroke-width:2; stroke-opacity:0.1; fill:none" points="
  149.361,727.452 2321.26,727.452 
  "/>
<polyline clip-path="url(#clip9503)" style="stroke:#000000; stroke-width:2; stroke-opacity:0.1; fill:none" points="
  149.361,446.211 2321.26,446.211 
  "/>
<polyline clip-path="url(#clip9503)" style="stroke:#000000; stroke-width:2; stroke-opacity:0.1; fill:none" points="
  149.361,164.97 2321.26,164.97 
  "/>
<polyline clip-path="url(#clip9501)" style="stroke:#000000; stroke-width:4; stroke-opacity:1; fill:none" points="
  149.361,1503.47 2321.26,1503.47 
  "/>
<polyline clip-path="url(#clip9501)" style="stroke:#000000; stroke-width:4; stroke-opacity:1; fill:none" points="
  149.361,1503.47 149.361,125.984 
  "/>
<polyline clip-path="url(#clip9501)" style="stroke:#000000; stroke-width:4; stroke-opacity:1; fill:none" points="
  210.829,1503.47 210.829,1482.81 
  "/>
<polyline clip-path="url(#clip9501)" style="stroke:#000000; stroke-width:4; stroke-opacity:1; fill:none" points="
  723.07,1503.47 723.07,1482.81 
  "/>
<polyline clip-path="url(#clip9501)" style="stroke:#000000; stroke-width:4; stroke-opacity:1; fill:none" points="
  1235.31,1503.47 1235.31,1482.81 
  "/>
<polyline clip-path="url(#clip9501)" style="stroke:#000000; stroke-width:4; stroke-opacity:1; fill:none" points="
  1747.55,1503.47 1747.55,1482.81 
  "/>
<polyline clip-path="url(#clip9501)" style="stroke:#000000; stroke-width:4; stroke-opacity:1; fill:none" points="
  2259.79,1503.47 2259.79,1482.81 
  "/>
<polyline clip-path="url(#clip9501)" style="stroke:#000000; stroke-width:4; stroke-opacity:1; fill:none" points="
  149.361,1289.93 181.939,1289.93 
  "/>
<polyline clip-path="url(#clip9501)" style="stroke:#000000; stroke-width:4; stroke-opacity:1; fill:none" points="
  149.361,1008.69 181.939,1008.69 
  "/>
<polyline clip-path="url(#clip9501)" style="stroke:#000000; stroke-width:4; stroke-opacity:1; fill:none" points="
  149.361,727.452 181.939,727.452 
  "/>
<polyline clip-path="url(#clip9501)" style="stroke:#000000; stroke-width:4; stroke-opacity:1; fill:none" points="
  149.361,446.211 181.939,446.211 
  "/>
<polyline clip-path="url(#clip9501)" style="stroke:#000000; stroke-width:4; stroke-opacity:1; fill:none" points="
  149.361,164.97 181.939,164.97 
  "/>
<g clip-path="url(#clip9501)">
<text style="fill:#000000; fill-opacity:1; font-family:Arial,Helvetica Neue,Helvetica,sans-serif; font-size:48px; text-anchor:middle;" transform="rotate(0, 210.829, 1557.47)" x="210.829" y="1557.47">-1.0</text>
</g>
<g clip-path="url(#clip9501)">
<text style="fill:#000000; fill-opacity:1; font-family:Arial,Helvetica Neue,Helvetica,sans-serif; font-size:48px; text-anchor:middle;" transform="rotate(0, 723.07, 1557.47)" x="723.07" y="1557.47">-0.5</text>
</g>
<g clip-path="url(#clip9501)">
<text style="fill:#000000; fill-opacity:1; font-family:Arial,Helvetica Neue,Helvetica,sans-serif; font-size:48px; text-anchor:middle;" transform="rotate(0, 1235.31, 1557.47)" x="1235.31" y="1557.47">0.0</text>
</g>
<g clip-path="url(#clip9501)">
<text style="fill:#000000; fill-opacity:1; font-family:Arial,Helvetica Neue,Helvetica,sans-serif; font-size:48px; text-anchor:middle;" transform="rotate(0, 1747.55, 1557.47)" x="1747.55" y="1557.47">0.5</text>
</g>
<g clip-path="url(#clip9501)">
<text style="fill:#000000; fill-opacity:1; font-family:Arial,Helvetica Neue,Helvetica,sans-serif; font-size:48px; text-anchor:middle;" transform="rotate(0, 2259.79, 1557.47)" x="2259.79" y="1557.47">1.0</text>
</g>
<g clip-path="url(#clip9501)">
<text style="fill:#000000; fill-opacity:1; font-family:Arial,Helvetica Neue,Helvetica,sans-serif; font-size:48px; text-anchor:end;" transform="rotate(0, 125.361, 1307.43)" x="125.361" y="1307.43">-3</text>
</g>
<g clip-path="url(#clip9501)">
<text style="fill:#000000; fill-opacity:1; font-family:Arial,Helvetica Neue,Helvetica,sans-serif; font-size:48px; text-anchor:end;" transform="rotate(0, 125.361, 1026.19)" x="125.361" y="1026.19">-2</text>
</g>
<g clip-path="url(#clip9501)">
<text style="fill:#000000; fill-opacity:1; font-family:Arial,Helvetica Neue,Helvetica,sans-serif; font-size:48px; text-anchor:end;" transform="rotate(0, 125.361, 744.952)" x="125.361" y="744.952">-1</text>
</g>
<g clip-path="url(#clip9501)">
<text style="fill:#000000; fill-opacity:1; font-family:Arial,Helvetica Neue,Helvetica,sans-serif; font-size:48px; text-anchor:end;" transform="rotate(0, 125.361, 463.711)" x="125.361" y="463.711">0</text>
</g>
<g clip-path="url(#clip9501)">
<text style="fill:#000000; fill-opacity:1; font-family:Arial,Helvetica Neue,Helvetica,sans-serif; font-size:48px; text-anchor:end;" transform="rotate(0, 125.361, 182.47)" x="125.361" y="182.47">1</text>
</g>
<g clip-path="url(#clip9501)">
<text style="fill:#000000; fill-opacity:1; font-family:Arial,Helvetica Neue,Helvetica,sans-serif; font-size:84px; text-anchor:middle;" transform="rotate(0, 1235.31, 73.2)" x="1235.31" y="73.2">Runge&apos;s phenomenon (Nodes = 13)</text>
</g>
<polyline clip-path="url(#clip9503)" style="stroke:#009af9; stroke-width:4; stroke-opacity:1; fill:none" points="
  210.829,435.394 212.88,435.352 214.931,435.31 216.982,435.268 219.034,435.225 221.085,435.183 223.136,435.14 225.187,435.096 227.238,435.053 229.289,435.009 
  231.34,434.965 233.391,434.921 235.442,434.877 237.493,434.832 239.544,434.787 241.595,434.741 243.646,434.696 245.697,434.65 247.748,434.604 249.799,434.558 
  251.85,434.511 253.901,434.464 255.952,434.417 258.003,434.369 260.054,434.322 262.105,434.274 264.156,434.225 266.207,434.177 268.258,434.128 270.309,434.079 
  272.36,434.029 274.411,433.979 276.462,433.929 278.513,433.879 280.564,433.828 282.615,433.777 284.666,433.726 286.717,433.674 288.768,433.622 290.819,433.57 
  292.87,433.517 294.921,433.464 296.972,433.411 299.023,433.358 301.074,433.304 303.125,433.249 305.176,433.195 307.227,433.14 309.278,433.085 311.329,433.029 
  313.38,432.973 315.431,432.917 317.482,432.86 319.533,432.803 321.584,432.746 323.635,432.688 325.686,432.63 327.737,432.572 329.788,432.513 331.839,432.453 
  333.89,432.394 335.941,432.334 337.992,432.274 340.043,432.213 342.094,432.152 344.145,432.09 346.196,432.028 348.247,431.966 350.298,431.903 352.349,431.84 
  354.4,431.776 356.451,431.712 358.502,431.648 360.553,431.583 362.604,431.518 364.655,431.452 366.706,431.386 368.757,431.32 370.808,431.253 372.859,431.185 
  374.91,431.117 376.961,431.049 379.012,430.98 381.064,430.911 383.115,430.841 385.166,430.771 387.217,430.7 389.268,430.629 391.319,430.558 393.37,430.486 
  395.421,430.413 397.472,430.34 399.523,430.266 401.574,430.192 403.625,430.118 405.676,430.043 407.727,429.967 409.778,429.891 411.829,429.814 413.88,429.737 
  415.931,429.659 417.982,429.581 420.033,429.502 422.084,429.423 424.135,429.343 426.186,429.263 428.237,429.182 430.288,429.1 432.339,429.018 434.39,428.935 
  436.441,428.852 438.492,428.768 440.543,428.683 442.594,428.598 444.645,428.512 446.696,428.426 448.747,428.339 450.798,428.252 452.849,428.163 454.9,428.074 
  456.951,427.985 459.002,427.895 461.053,427.804 463.104,427.713 465.155,427.62 467.206,427.528 469.257,427.434 471.308,427.34 473.359,427.245 475.41,427.149 
  477.461,427.053 479.512,426.956 481.563,426.859 483.614,426.76 485.665,426.661 487.716,426.561 489.767,426.46 491.818,426.359 493.869,426.257 495.92,426.154 
  497.971,426.05 500.022,425.946 502.073,425.84 504.124,425.734 506.175,425.627 508.226,425.519 510.277,425.411 512.328,425.302 514.379,425.191 516.43,425.08 
  518.481,424.968 520.532,424.855 522.583,424.742 524.634,424.627 526.685,424.512 528.736,424.395 530.787,424.278 532.838,424.16 534.889,424.041 536.94,423.921 
  538.991,423.8 541.042,423.678 543.093,423.555 545.145,423.431 547.196,423.306 549.247,423.18 551.298,423.053 553.349,422.925 555.4,422.796 557.451,422.666 
  559.502,422.535 561.553,422.403 563.604,422.27 565.655,422.135 567.706,422 569.757,421.863 571.808,421.726 573.859,421.587 575.91,421.447 577.961,421.306 
  580.012,421.164 582.063,421.02 584.114,420.876 586.165,420.73 588.216,420.583 590.267,420.435 592.318,420.285 594.369,420.134 596.42,419.982 598.471,419.829 
  600.522,419.674 602.573,419.518 604.624,419.361 606.675,419.202 608.726,419.042 610.777,418.881 612.828,418.718 614.879,418.554 616.93,418.388 618.981,418.221 
  621.032,418.053 623.083,417.883 625.134,417.712 627.185,417.539 629.236,417.364 631.287,417.188 633.338,417.011 635.389,416.832 637.44,416.651 639.491,416.469 
  641.542,416.285 643.593,416.099 645.644,415.912 647.695,415.723 649.746,415.532 651.797,415.34 653.848,415.146 655.899,414.95 657.95,414.752 660.001,414.553 
  662.052,414.352 664.103,414.149 666.154,413.944 668.205,413.737 670.256,413.528 672.307,413.318 674.358,413.105 676.409,412.89 678.46,412.674 680.511,412.455 
  682.562,412.235 684.613,412.012 686.664,411.787 688.715,411.56 690.766,411.331 692.817,411.1 694.868,410.866 696.919,410.631 698.97,410.393 701.021,410.153 
  703.072,409.91 705.123,409.665 707.174,409.418 709.226,409.168 711.277,408.916 713.328,408.662 715.379,408.405 717.43,408.146 719.481,407.884 721.532,407.619 
  723.583,407.352 725.634,407.082 727.685,406.81 729.736,406.535 731.787,406.257 733.838,405.976 735.889,405.693 737.94,405.406 739.991,405.117 742.042,404.825 
  744.093,404.53 746.144,404.232 748.195,403.931 750.246,403.627 752.297,403.32 754.348,403.01 756.399,402.696 758.45,402.38 760.501,402.06 762.552,401.736 
  764.603,401.41 766.654,401.08 768.705,400.747 770.756,400.41 772.807,400.07 774.858,399.726 776.909,399.378 778.96,399.027 781.011,398.672 783.062,398.314 
  785.113,397.951 787.164,397.585 789.215,397.215 791.266,396.841 793.317,396.463 795.368,396.081 797.419,395.695 799.47,395.304 801.521,394.91 803.572,394.511 
  805.623,394.108 807.674,393.701 809.725,393.289 811.776,392.872 813.827,392.452 815.878,392.026 817.929,391.596 819.98,391.161 822.031,390.721 824.082,390.277 
  826.133,389.827 828.184,389.373 830.235,388.913 832.286,388.449 834.337,387.979 836.388,387.504 838.439,387.024 840.49,386.538 842.541,386.047 844.592,385.55 
  846.643,385.048 848.694,384.54 850.745,384.026 852.796,383.506 854.847,382.981 856.898,382.45 858.949,381.912 861,381.368 863.051,380.818 865.102,380.262 
  867.153,379.7 869.204,379.131 871.255,378.555 873.307,377.973 875.358,377.384 877.409,376.788 879.46,376.185 881.511,375.575 883.562,374.959 885.613,374.335 
  887.664,373.703 889.715,373.065 891.766,372.418 893.817,371.765 895.868,371.103 897.919,370.434 899.97,369.757 902.021,369.072 904.072,368.379 906.123,367.678 
  908.174,366.968 910.225,366.251 912.276,365.524 914.327,364.789 916.378,364.046 918.429,363.293 920.48,362.532 922.531,361.761 924.582,360.982 926.633,360.193 
  928.684,359.395 930.735,358.587 932.786,357.77 934.837,356.943 936.888,356.106 938.939,355.259 940.99,354.403 943.041,353.536 945.092,352.658 947.143,351.771 
  949.194,350.872 951.245,349.964 953.296,349.044 955.347,348.113 957.398,347.172 959.449,346.219 961.5,345.255 963.551,344.28 965.602,343.294 967.653,342.295 
  969.704,341.285 971.755,340.263 973.806,339.23 975.857,338.184 977.908,337.126 979.959,336.055 982.01,334.973 984.061,333.878 986.112,332.77 988.163,331.649 
  990.214,330.516 992.265,329.37 994.316,328.21 996.367,327.038 998.418,325.852 1000.47,324.654 1002.52,323.441 1004.57,322.216 1006.62,320.976 1008.67,319.723 
  1010.72,318.457 1012.78,317.177 1014.83,315.882 1016.88,314.574 1018.93,313.252 1020.98,311.916 1023.03,310.566 1025.08,309.203 1027.13,307.824 1029.18,306.432 
  1031.23,305.026 1033.29,303.606 1035.34,302.171 1037.39,300.723 1039.44,299.261 1041.49,297.784 1043.54,296.294 1045.59,294.789 1047.64,293.271 1049.69,291.739 
  1051.74,290.194 1053.8,288.635 1055.85,287.062 1057.9,285.476 1059.95,283.877 1062,282.265 1064.05,280.641 1066.1,279.003 1068.15,277.354 1070.2,275.692 
  1072.25,274.018 1074.31,272.333 1076.36,270.636 1078.41,268.928 1080.46,267.209 1082.51,265.481 1084.56,263.742 1086.61,261.993 1088.66,260.236 1090.71,258.469 
  1092.76,256.694 1094.82,254.912 1096.87,253.122 1098.92,251.326 1100.97,249.523 1103.02,247.715 1105.07,245.901 1107.12,244.084 1109.17,242.263 1111.22,240.439 
  1113.27,238.612 1115.33,236.784 1117.38,234.956 1119.43,233.128 1121.48,231.3 1123.53,229.475 1125.58,227.652 1127.63,225.833 1129.68,224.019 1131.73,222.21 
  1133.79,220.408 1135.84,218.614 1137.89,216.828 1139.94,215.052 1141.99,213.287 1144.04,211.535 1146.09,209.795 1148.14,208.07 1150.19,206.361 1152.24,204.668 
  1154.3,202.994 1156.35,201.339 1158.4,199.704 1160.45,198.092 1162.5,196.502 1164.55,194.938 1166.6,193.399 1168.65,191.887 1170.7,190.403 1172.75,188.95 
  1174.81,187.527 1176.86,186.137 1178.91,184.78 1180.96,183.459 1183.01,182.173 1185.06,180.925 1187.11,179.716 1189.16,178.547 1191.21,177.42 1193.26,176.334 
  1195.32,175.292 1197.37,174.295 1199.42,173.343 1201.47,172.438 1203.52,171.581 1205.57,170.773 1207.62,170.014 1209.67,169.305 1211.72,168.648 1213.77,168.043 
  1215.83,167.49 1217.88,166.991 1219.93,166.546 1221.98,166.155 1224.03,165.82 1226.08,165.539 1228.13,165.315 1230.18,165.146 1232.23,165.033 1234.28,164.977 
  1236.34,164.977 1238.39,165.033 1240.44,165.146 1242.49,165.315 1244.54,165.539 1246.59,165.82 1248.64,166.155 1250.69,166.546 1252.74,166.991 1254.79,167.49 
  1256.85,168.043 1258.9,168.648 1260.95,169.305 1263,170.014 1265.05,170.773 1267.1,171.581 1269.15,172.438 1271.2,173.343 1273.25,174.295 1275.3,175.292 
  1277.36,176.334 1279.41,177.42 1281.46,178.547 1283.51,179.716 1285.56,180.925 1287.61,182.173 1289.66,183.459 1291.71,184.78 1293.76,186.137 1295.82,187.527 
  1297.87,188.95 1299.92,190.403 1301.97,191.887 1304.02,193.399 1306.07,194.938 1308.12,196.502 1310.17,198.092 1312.22,199.704 1314.27,201.339 1316.33,202.994 
  1318.38,204.668 1320.43,206.361 1322.48,208.07 1324.53,209.795 1326.58,211.535 1328.63,213.287 1330.68,215.052 1332.73,216.828 1334.78,218.614 1336.84,220.408 
  1338.89,222.21 1340.94,224.019 1342.99,225.833 1345.04,227.652 1347.09,229.475 1349.14,231.3 1351.19,233.128 1353.24,234.956 1355.29,236.784 1357.35,238.612 
  1359.4,240.439 1361.45,242.263 1363.5,244.084 1365.55,245.901 1367.6,247.715 1369.65,249.523 1371.7,251.326 1373.75,253.122 1375.8,254.912 1377.86,256.694 
  1379.91,258.469 1381.96,260.236 1384.01,261.993 1386.06,263.742 1388.11,265.481 1390.16,267.209 1392.21,268.928 1394.26,270.636 1396.31,272.333 1398.37,274.018 
  1400.42,275.692 1402.47,277.354 1404.52,279.003 1406.57,280.641 1408.62,282.265 1410.67,283.877 1412.72,285.476 1414.77,287.062 1416.82,288.635 1418.88,290.194 
  1420.93,291.739 1422.98,293.271 1425.03,294.789 1427.08,296.294 1429.13,297.784 1431.18,299.261 1433.23,300.723 1435.28,302.171 1437.33,303.606 1439.39,305.026 
  1441.44,306.432 1443.49,307.824 1445.54,309.203 1447.59,310.566 1449.64,311.916 1451.69,313.252 1453.74,314.574 1455.79,315.882 1457.85,317.177 1459.9,318.457 
  1461.95,319.723 1464,320.976 1466.05,322.216 1468.1,323.441 1470.15,324.654 1472.2,325.852 1474.25,327.038 1476.3,328.21 1478.36,329.37 1480.41,330.516 
  1482.46,331.649 1484.51,332.77 1486.56,333.878 1488.61,334.973 1490.66,336.055 1492.71,337.126 1494.76,338.184 1496.81,339.23 1498.87,340.263 1500.92,341.285 
  1502.97,342.295 1505.02,343.294 1507.07,344.28 1509.12,345.255 1511.17,346.219 1513.22,347.172 1515.27,348.113 1517.32,349.044 1519.38,349.964 1521.43,350.872 
  1523.48,351.771 1525.53,352.658 1527.58,353.536 1529.63,354.403 1531.68,355.259 1533.73,356.106 1535.78,356.943 1537.83,357.77 1539.89,358.587 1541.94,359.395 
  1543.99,360.193 1546.04,360.982 1548.09,361.761 1550.14,362.532 1552.19,363.293 1554.24,364.046 1556.29,364.789 1558.34,365.524 1560.4,366.251 1562.45,366.968 
  1564.5,367.678 1566.55,368.379 1568.6,369.072 1570.65,369.757 1572.7,370.434 1574.75,371.103 1576.8,371.765 1578.85,372.418 1580.91,373.065 1582.96,373.703 
  1585.01,374.335 1587.06,374.959 1589.11,375.575 1591.16,376.185 1593.21,376.788 1595.26,377.384 1597.31,377.973 1599.36,378.555 1601.42,379.131 1603.47,379.7 
  1605.52,380.262 1607.57,380.818 1609.62,381.368 1611.67,381.912 1613.72,382.45 1615.77,382.981 1617.82,383.506 1619.88,384.026 1621.93,384.54 1623.98,385.048 
  1626.03,385.55 1628.08,386.047 1630.13,386.538 1632.18,387.024 1634.23,387.504 1636.28,387.979 1638.33,388.449 1640.39,388.913 1642.44,389.373 1644.49,389.827 
  1646.54,390.277 1648.59,390.721 1650.64,391.161 1652.69,391.596 1654.74,392.026 1656.79,392.452 1658.84,392.872 1660.9,393.289 1662.95,393.701 1665,394.108 
  1667.05,394.511 1669.1,394.91 1671.15,395.304 1673.2,395.695 1675.25,396.081 1677.3,396.463 1679.35,396.841 1681.41,397.215 1683.46,397.585 1685.51,397.951 
  1687.56,398.314 1689.61,398.672 1691.66,399.027 1693.71,399.378 1695.76,399.726 1697.81,400.07 1699.86,400.41 1701.92,400.747 1703.97,401.08 1706.02,401.41 
  1708.07,401.736 1710.12,402.06 1712.17,402.38 1714.22,402.696 1716.27,403.01 1718.32,403.32 1720.37,403.627 1722.43,403.931 1724.48,404.232 1726.53,404.53 
  1728.58,404.825 1730.63,405.117 1732.68,405.406 1734.73,405.693 1736.78,405.976 1738.83,406.257 1740.88,406.535 1742.94,406.81 1744.99,407.082 1747.04,407.352 
  1749.09,407.619 1751.14,407.884 1753.19,408.146 1755.24,408.405 1757.29,408.662 1759.34,408.916 1761.39,409.168 1763.45,409.418 1765.5,409.665 1767.55,409.91 
  1769.6,410.153 1771.65,410.393 1773.7,410.631 1775.75,410.866 1777.8,411.1 1779.85,411.331 1781.91,411.56 1783.96,411.787 1786.01,412.012 1788.06,412.235 
  1790.11,412.455 1792.16,412.674 1794.21,412.89 1796.26,413.105 1798.31,413.318 1800.36,413.528 1802.42,413.737 1804.47,413.944 1806.52,414.149 1808.57,414.352 
  1810.62,414.553 1812.67,414.752 1814.72,414.95 1816.77,415.146 1818.82,415.34 1820.87,415.532 1822.93,415.723 1824.98,415.912 1827.03,416.099 1829.08,416.285 
  1831.13,416.469 1833.18,416.651 1835.23,416.832 1837.28,417.011 1839.33,417.188 1841.38,417.364 1843.44,417.539 1845.49,417.712 1847.54,417.883 1849.59,418.053 
  1851.64,418.221 1853.69,418.388 1855.74,418.554 1857.79,418.718 1859.84,418.881 1861.89,419.042 1863.95,419.202 1866,419.361 1868.05,419.518 1870.1,419.674 
  1872.15,419.829 1874.2,419.982 1876.25,420.134 1878.3,420.285 1880.35,420.435 1882.4,420.583 1884.46,420.73 1886.51,420.876 1888.56,421.02 1890.61,421.164 
  1892.66,421.306 1894.71,421.447 1896.76,421.587 1898.81,421.726 1900.86,421.863 1902.91,422 1904.97,422.135 1907.02,422.27 1909.07,422.403 1911.12,422.535 
  1913.17,422.666 1915.22,422.796 1917.27,422.925 1919.32,423.053 1921.37,423.18 1923.42,423.306 1925.48,423.431 1927.53,423.555 1929.58,423.678 1931.63,423.8 
  1933.68,423.921 1935.73,424.041 1937.78,424.16 1939.83,424.278 1941.88,424.395 1943.94,424.512 1945.99,424.627 1948.04,424.742 1950.09,424.855 1952.14,424.968 
  1954.19,425.08 1956.24,425.191 1958.29,425.302 1960.34,425.411 1962.39,425.519 1964.45,425.627 1966.5,425.734 1968.55,425.84 1970.6,425.946 1972.65,426.05 
  1974.7,426.154 1976.75,426.257 1978.8,426.359 1980.85,426.46 1982.9,426.561 1984.96,426.661 1987.01,426.76 1989.06,426.859 1991.11,426.956 1993.16,427.053 
  1995.21,427.149 1997.26,427.245 1999.31,427.34 2001.36,427.434 2003.41,427.528 2005.47,427.62 2007.52,427.713 2009.57,427.804 2011.62,427.895 2013.67,427.985 
  2015.72,428.074 2017.77,428.163 2019.82,428.252 2021.87,428.339 2023.92,428.426 2025.98,428.512 2028.03,428.598 2030.08,428.683 2032.13,428.768 2034.18,428.852 
  2036.23,428.935 2038.28,429.018 2040.33,429.1 2042.38,429.182 2044.43,429.263 2046.49,429.343 2048.54,429.423 2050.59,429.502 2052.64,429.581 2054.69,429.659 
  2056.74,429.737 2058.79,429.814 2060.84,429.891 2062.89,429.967 2064.94,430.043 2067,430.118 2069.05,430.192 2071.1,430.266 2073.15,430.34 2075.2,430.413 
  2077.25,430.486 2079.3,430.558 2081.35,430.629 2083.4,430.7 2085.45,430.771 2087.51,430.841 2089.56,430.911 2091.61,430.98 2093.66,431.049 2095.71,431.117 
  2097.76,431.185 2099.81,431.253 2101.86,431.32 2103.91,431.386 2105.97,431.452 2108.02,431.518 2110.07,431.583 2112.12,431.648 2114.17,431.712 2116.22,431.776 
  2118.27,431.84 2120.32,431.903 2122.37,431.966 2124.42,432.028 2126.48,432.09 2128.53,432.152 2130.58,432.213 2132.63,432.274 2134.68,432.334 2136.73,432.394 
  2138.78,432.453 2140.83,432.513 2142.88,432.572 2144.93,432.63 2146.99,432.688 2149.04,432.746 2151.09,432.803 2153.14,432.86 2155.19,432.917 2157.24,432.973 
  2159.29,433.029 2161.34,433.085 2163.39,433.14 2165.44,433.195 2167.5,433.249 2169.55,433.304 2171.6,433.358 2173.65,433.411 2175.7,433.464 2177.75,433.517 
  2179.8,433.57 2181.85,433.622 2183.9,433.674 2185.95,433.726 2188.01,433.777 2190.06,433.828 2192.11,433.879 2194.16,433.929 2196.21,433.979 2198.26,434.029 
  2200.31,434.079 2202.36,434.128 2204.41,434.177 2206.46,434.225 2208.52,434.274 2210.57,434.322 2212.62,434.369 2214.67,434.417 2216.72,434.464 2218.77,434.511 
  2220.82,434.558 2222.87,434.604 2224.92,434.65 2226.97,434.696 2229.03,434.741 2231.08,434.787 2233.13,434.832 2235.18,434.877 2237.23,434.921 2239.28,434.965 
  2241.33,435.009 2243.38,435.053 2245.43,435.096 2247.48,435.14 2249.54,435.183 2251.59,435.225 2253.64,435.268 2255.69,435.31 2257.74,435.352 2259.79,435.394 
  
  "/>
<circle clip-path="url(#clip9503)" style="fill:#000000; stroke:none; fill-opacity:1" cx="210.829" cy="435.394" r="18"/>
<circle clip-path="url(#clip9503)" style="fill:#e26f46; stroke:none; fill-opacity:1" cx="210.829" cy="435.394" r="14"/>
<circle clip-path="url(#clip9503)" style="fill:#000000; stroke:none; fill-opacity:1" cx="381.576" cy="430.894" r="18"/>
<circle clip-path="url(#clip9503)" style="fill:#e26f46; stroke:none; fill-opacity:1" cx="381.576" cy="430.894" r="14"/>
<circle clip-path="url(#clip9503)" style="fill:#000000; stroke:none; fill-opacity:1" cx="552.323" cy="422.989" r="18"/>
<circle clip-path="url(#clip9503)" style="fill:#e26f46; stroke:none; fill-opacity:1" cx="552.323" cy="422.989" r="14"/>
<circle clip-path="url(#clip9503)" style="fill:#000000; stroke:none; fill-opacity:1" cx="723.07" cy="407.419" r="18"/>
<circle clip-path="url(#clip9503)" style="fill:#e26f46; stroke:none; fill-opacity:1" cx="723.07" cy="407.419" r="14"/>
<circle clip-path="url(#clip9503)" style="fill:#000000; stroke:none; fill-opacity:1" cx="893.817" cy="371.765" r="18"/>
<circle clip-path="url(#clip9503)" style="fill:#e26f46; stroke:none; fill-opacity:1" cx="893.817" cy="371.765" r="14"/>
<circle clip-path="url(#clip9503)" style="fill:#000000; stroke:none; fill-opacity:1" cx="1064.56" cy="280.233" r="18"/>
<circle clip-path="url(#clip9503)" style="fill:#e26f46; stroke:none; fill-opacity:1" cx="1064.56" cy="280.233" r="14"/>
<circle clip-path="url(#clip9503)" style="fill:#000000; stroke:none; fill-opacity:1" cx="1235.31" cy="164.97" r="18"/>
<circle clip-path="url(#clip9503)" style="fill:#e26f46; stroke:none; fill-opacity:1" cx="1235.31" cy="164.97" r="14"/>
<circle clip-path="url(#clip9503)" style="fill:#000000; stroke:none; fill-opacity:1" cx="1406.06" cy="280.233" r="18"/>
<circle clip-path="url(#clip9503)" style="fill:#e26f46; stroke:none; fill-opacity:1" cx="1406.06" cy="280.233" r="14"/>
<circle clip-path="url(#clip9503)" style="fill:#000000; stroke:none; fill-opacity:1" cx="1576.8" cy="371.765" r="18"/>
<circle clip-path="url(#clip9503)" style="fill:#e26f46; stroke:none; fill-opacity:1" cx="1576.8" cy="371.765" r="14"/>
<circle clip-path="url(#clip9503)" style="fill:#000000; stroke:none; fill-opacity:1" cx="1747.55" cy="407.419" r="18"/>
<circle clip-path="url(#clip9503)" style="fill:#e26f46; stroke:none; fill-opacity:1" cx="1747.55" cy="407.419" r="14"/>
<circle clip-path="url(#clip9503)" style="fill:#000000; stroke:none; fill-opacity:1" cx="1918.3" cy="422.989" r="18"/>
<circle clip-path="url(#clip9503)" style="fill:#e26f46; stroke:none; fill-opacity:1" cx="1918.3" cy="422.989" r="14"/>
<circle clip-path="url(#clip9503)" style="fill:#000000; stroke:none; fill-opacity:1" cx="2089.04" cy="430.894" r="18"/>
<circle clip-path="url(#clip9503)" style="fill:#e26f46; stroke:none; fill-opacity:1" cx="2089.04" cy="430.894" r="14"/>
<circle clip-path="url(#clip9503)" style="fill:#000000; stroke:none; fill-opacity:1" cx="2259.79" cy="435.394" r="18"/>
<circle clip-path="url(#clip9503)" style="fill:#e26f46; stroke:none; fill-opacity:1" cx="2259.79" cy="435.394" r="14"/>
<polyline clip-path="url(#clip9503)" style="stroke:#3da44d; stroke-width:4; stroke-opacity:1; fill:none" points="
  210.829,435.394 212.88,539.964 214.931,637.182 216.982,727.369 219.034,810.834 221.085,887.877 223.136,958.788 225.187,1023.85 227.238,1083.32 229.289,1137.48 
  231.34,1186.57 233.391,1230.84 235.442,1270.52 237.493,1305.85 239.544,1337.04 241.595,1364.3 243.646,1387.84 245.697,1407.86 247.748,1424.54 249.799,1438.08 
  251.85,1448.65 253.901,1456.41 255.952,1461.53 258.003,1464.18 260.054,1464.49 262.105,1462.62 264.156,1458.71 266.207,1452.89 268.258,1445.28 270.309,1436.03 
  272.36,1425.23 274.411,1413.02 276.462,1399.49 278.513,1384.75 280.564,1368.9 282.615,1352.05 284.666,1334.27 286.717,1315.65 288.768,1296.29 290.819,1276.26 
  292.87,1255.63 294.921,1234.48 296.972,1212.88 299.023,1190.89 301.074,1168.58 303.125,1146 305.176,1123.21 307.227,1100.27 309.278,1077.22 311.329,1054.11 
  313.38,1030.99 315.431,1007.9 317.482,984.877 319.533,961.961 321.584,939.187 323.635,916.587 325.686,894.194 327.737,872.035 329.788,850.137 331.839,828.526 
  333.89,807.224 335.941,786.252 337.992,765.632 340.043,745.379 342.094,725.512 344.145,706.044 346.196,686.99 348.247,668.361 350.298,650.168 352.349,632.421 
  354.4,615.129 356.451,598.298 358.502,581.935 360.553,566.044 362.604,550.63 364.655,535.696 366.706,521.244 368.757,507.275 370.808,493.79 372.859,480.789 
  374.91,468.271 376.961,456.233 379.012,444.674 381.064,433.591 383.115,422.979 385.166,412.836 387.217,403.156 389.268,393.934 391.319,385.165 393.37,376.843 
  395.421,368.96 397.472,361.512 399.523,354.49 401.574,347.886 403.625,341.695 405.676,335.906 407.727,330.513 409.778,325.507 411.829,320.878 413.88,316.619 
  415.931,312.721 417.982,309.174 420.033,305.969 422.084,303.097 424.135,300.548 426.186,298.313 428.237,296.383 430.288,294.748 432.339,293.398 434.39,292.325 
  436.441,291.517 438.492,290.966 440.543,290.663 442.594,290.597 444.645,290.76 446.696,291.141 448.747,291.732 450.798,292.524 452.849,293.507 454.9,294.673 
  456.951,296.012 459.002,297.515 461.053,299.174 463.104,300.981 465.155,302.926 467.206,305.002 469.257,307.2 471.308,309.513 473.359,311.932 475.41,314.45 
  477.461,317.059 479.512,319.752 481.563,322.521 483.614,325.36 485.665,328.261 487.716,331.218 489.767,334.224 491.818,337.273 493.869,340.359 495.92,343.475 
  497.971,346.616 500.022,349.775 502.073,352.949 504.124,356.13 506.175,359.315 508.226,362.497 510.277,365.672 512.328,368.837 514.379,371.985 516.43,375.113 
  518.481,378.216 520.532,381.292 522.583,384.335 524.634,387.343 526.685,390.312 528.736,393.239 530.787,396.12 532.838,398.953 534.889,401.735 536.94,404.463 
  538.991,407.135 541.042,409.749 543.093,412.302 545.145,414.792 547.196,417.218 549.247,419.577 551.298,421.869 553.349,424.092 555.4,426.244 557.451,428.324 
  559.502,430.331 561.553,432.265 563.604,434.124 565.655,435.908 567.706,437.616 569.757,439.248 571.808,440.804 573.859,442.283 575.91,443.684 577.961,445.009 
  580.012,446.257 582.063,447.428 584.114,448.523 586.165,449.542 588.216,450.485 590.267,451.352 592.318,452.145 594.369,452.865 596.42,453.511 598.471,454.085 
  600.522,454.587 602.573,455.019 604.624,455.381 606.675,455.674 608.726,455.901 610.777,456.061 612.828,456.156 614.879,456.188 616.93,456.157 618.981,456.065 
  621.032,455.914 623.083,455.704 625.134,455.438 627.185,455.116 629.236,454.741 631.287,454.314 633.338,453.836 635.389,453.308 637.44,452.734 639.491,452.114 
  641.542,451.449 643.593,450.742 645.644,449.995 647.695,449.208 649.746,448.384 651.797,447.523 653.848,446.629 655.899,445.702 657.95,444.745 660.001,443.758 
  662.052,442.744 664.103,441.704 666.154,440.64 668.205,439.554 670.256,438.446 672.307,437.319 674.358,436.175 676.409,435.014 678.46,433.839 680.511,432.651 
  682.562,431.451 684.613,430.241 686.664,429.023 688.715,427.798 690.766,426.566 692.817,425.331 694.868,424.092 696.919,422.852 698.97,421.612 701.021,420.372 
  703.072,419.135 705.123,417.901 707.174,416.672 709.226,415.448 711.277,414.231 713.328,413.023 715.379,411.823 717.43,410.633 719.481,409.453 721.532,408.286 
  723.583,407.132 725.634,405.991 727.685,404.864 729.736,403.753 731.787,402.657 733.838,401.579 735.889,400.517 737.94,399.474 739.991,398.449 742.042,397.443 
  744.093,396.457 746.144,395.491 748.195,394.545 750.246,393.62 752.297,392.717 754.348,391.836 756.399,390.976 758.45,390.139 760.501,389.324 762.552,388.531 
  764.603,387.762 766.654,387.015 768.705,386.292 770.756,385.591 772.807,384.913 774.858,384.259 776.909,383.627 778.96,383.018 781.011,382.433 783.062,381.869 
  785.113,381.328 787.164,380.81 789.215,380.313 791.266,379.838 793.317,379.385 795.368,378.952 797.419,378.541 799.47,378.149 801.521,377.778 803.572,377.427 
  805.623,377.094 807.674,376.78 809.725,376.484 811.776,376.206 813.827,375.945 815.878,375.7 817.929,375.472 819.98,375.258 822.031,375.06 824.082,374.875 
  826.133,374.704 828.184,374.546 830.235,374.4 832.286,374.265 834.337,374.141 836.388,374.027 838.439,373.922 840.49,373.826 842.541,373.738 844.592,373.656 
  846.643,373.581 848.694,373.512 850.745,373.447 852.796,373.386 854.847,373.328 856.898,373.272 858.949,373.218 861,373.165 863.051,373.112 865.102,373.058 
  867.153,373.002 869.204,372.943 871.255,372.882 873.307,372.816 875.358,372.746 877.409,372.67 879.46,372.587 881.511,372.497 883.562,372.4 885.613,372.293 
  887.664,372.177 889.715,372.051 891.766,371.914 893.817,371.765 895.868,371.603 897.919,371.428 899.97,371.24 902.021,371.037 904.072,370.818 906.123,370.584 
  908.174,370.332 910.225,370.064 912.276,369.778 914.327,369.473 916.378,369.149 918.429,368.806 920.48,368.442 922.531,368.058 924.582,367.652 926.633,367.224 
  928.684,366.774 930.735,366.301 932.786,365.805 934.837,365.285 936.888,364.741 938.939,364.173 940.99,363.579 943.041,362.961 945.092,362.316 947.143,361.646 
  949.194,360.949 951.245,360.226 953.296,359.476 955.347,358.699 957.398,357.895 959.449,357.064 961.5,356.204 963.551,355.317 965.602,354.403 967.653,353.46 
  969.704,352.489 971.755,351.49 973.806,350.463 975.857,349.407 977.908,348.324 979.959,347.212 982.01,346.072 984.061,344.905 986.112,343.709 988.163,342.486 
  990.214,341.235 992.265,339.956 994.316,338.651 996.367,337.318 998.418,335.958 1000.47,334.572 1002.52,333.159 1004.57,331.721 1006.62,330.257 1008.67,328.767 
  1010.72,327.253 1012.78,325.713 1014.83,324.15 1016.88,322.563 1018.93,320.952 1020.98,319.319 1023.03,317.663 1025.08,315.985 1027.13,314.286 1029.18,312.566 
  1031.23,310.826 1033.29,309.066 1035.34,307.286 1037.39,305.488 1039.44,303.673 1041.49,301.84 1043.54,299.99 1045.59,298.124 1047.64,296.243 1049.69,294.347 
  1051.74,292.437 1053.8,290.515 1055.85,288.579 1057.9,286.632 1059.95,284.674 1062,282.706 1064.05,280.728 1066.1,278.742 1068.15,276.748 1070.2,274.747 
  1072.25,272.74 1074.31,270.727 1076.36,268.71 1078.41,266.689 1080.46,264.665 1082.51,262.639 1084.56,260.612 1086.61,258.585 1088.66,256.558 1090.71,254.533 
  1092.76,252.511 1094.82,250.491 1096.87,248.476 1098.92,246.465 1100.97,244.461 1103.02,242.463 1105.07,240.473 1107.12,238.492 1109.17,236.52 1111.22,234.558 
  1113.27,232.608 1115.33,230.67 1117.38,228.745 1119.43,226.833 1121.48,224.937 1123.53,223.056 1125.58,221.191 1127.63,219.344 1129.68,217.515 1131.73,215.705 
  1133.79,213.915 1135.84,212.146 1137.89,210.399 1139.94,208.673 1141.99,206.971 1144.04,205.293 1146.09,203.64 1148.14,202.012 1150.19,200.411 1152.24,198.837 
  1154.3,197.29 1156.35,195.772 1158.4,194.284 1160.45,192.825 1162.5,191.397 1164.55,190 1166.6,188.636 1168.65,187.304 1170.7,186.006 1172.75,184.741 
  1174.81,183.511 1176.86,182.316 1178.91,181.157 1180.96,180.035 1183.01,178.949 1185.06,177.9 1187.11,176.889 1189.16,175.917 1191.21,174.983 1193.26,174.089 
  1195.32,173.235 1197.37,172.42 1199.42,171.646 1201.47,170.913 1203.52,170.222 1205.57,169.571 1207.62,168.963 1209.67,168.397 1211.72,167.873 1213.77,167.393 
  1215.83,166.955 1217.88,166.56 1219.93,166.209 1221.98,165.901 1224.03,165.637 1226.08,165.416 1228.13,165.24 1230.18,165.108 1232.23,165.019 1234.28,164.975 
  1236.34,164.975 1238.39,165.019 1240.44,165.108 1242.49,165.24 1244.54,165.416 1246.59,165.637 1248.64,165.901 1250.69,166.209 1252.74,166.56 1254.79,166.955 
  1256.85,167.393 1258.9,167.873 1260.95,168.397 1263,168.963 1265.05,169.571 1267.1,170.222 1269.15,170.913 1271.2,171.646 1273.25,172.42 1275.3,173.235 
  1277.36,174.089 1279.41,174.983 1281.46,175.917 1283.51,176.889 1285.56,177.9 1287.61,178.949 1289.66,180.035 1291.71,181.157 1293.76,182.316 1295.82,183.511 
  1297.87,184.741 1299.92,186.006 1301.97,187.304 1304.02,188.636 1306.07,190 1308.12,191.397 1310.17,192.825 1312.22,194.284 1314.27,195.772 1316.33,197.29 
  1318.38,198.837 1320.43,200.411 1322.48,202.012 1324.53,203.64 1326.58,205.293 1328.63,206.971 1330.68,208.673 1332.73,210.399 1334.78,212.146 1336.84,213.915 
  1338.89,215.705 1340.94,217.515 1342.99,219.344 1345.04,221.191 1347.09,223.056 1349.14,224.937 1351.19,226.833 1353.24,228.745 1355.29,230.67 1357.35,232.608 
  1359.4,234.558 1361.45,236.52 1363.5,238.492 1365.55,240.473 1367.6,242.463 1369.65,244.461 1371.7,246.465 1373.75,248.476 1375.8,250.491 1377.86,252.511 
  1379.91,254.533 1381.96,256.558 1384.01,258.585 1386.06,260.612 1388.11,262.639 1390.16,264.665 1392.21,266.689 1394.26,268.71 1396.31,270.727 1398.37,272.74 
  1400.42,274.747 1402.47,276.748 1404.52,278.742 1406.57,280.728 1408.62,282.706 1410.67,284.674 1412.72,286.632 1414.77,288.579 1416.82,290.515 1418.88,292.437 
  1420.93,294.347 1422.98,296.243 1425.03,298.124 1427.08,299.99 1429.13,301.84 1431.18,303.673 1433.23,305.488 1435.28,307.286 1437.33,309.066 1439.39,310.826 
  1441.44,312.566 1443.49,314.286 1445.54,315.985 1447.59,317.663 1449.64,319.319 1451.69,320.952 1453.74,322.563 1455.79,324.15 1457.85,325.713 1459.9,327.253 
  1461.95,328.767 1464,330.257 1466.05,331.721 1468.1,333.159 1470.15,334.572 1472.2,335.958 1474.25,337.318 1476.3,338.651 1478.36,339.956 1480.41,341.235 
  1482.46,342.486 1484.51,343.709 1486.56,344.905 1488.61,346.072 1490.66,347.212 1492.71,348.324 1494.76,349.407 1496.81,350.463 1498.87,351.49 1500.92,352.489 
  1502.97,353.46 1505.02,354.403 1507.07,355.317 1509.12,356.204 1511.17,357.064 1513.22,357.895 1515.27,358.699 1517.32,359.476 1519.38,360.226 1521.43,360.949 
  1523.48,361.646 1525.53,362.316 1527.58,362.961 1529.63,363.579 1531.68,364.173 1533.73,364.741 1535.78,365.285 1537.83,365.805 1539.89,366.301 1541.94,366.774 
  1543.99,367.224 1546.04,367.652 1548.09,368.058 1550.14,368.442 1552.19,368.806 1554.24,369.149 1556.29,369.473 1558.34,369.778 1560.4,370.064 1562.45,370.332 
  1564.5,370.584 1566.55,370.818 1568.6,371.037 1570.65,371.24 1572.7,371.428 1574.75,371.603 1576.8,371.765 1578.85,371.914 1580.91,372.051 1582.96,372.177 
  1585.01,372.293 1587.06,372.4 1589.11,372.497 1591.16,372.587 1593.21,372.67 1595.26,372.746 1597.31,372.816 1599.36,372.882 1601.42,372.943 1603.47,373.002 
  1605.52,373.058 1607.57,373.112 1609.62,373.165 1611.67,373.218 1613.72,373.272 1615.77,373.328 1617.82,373.386 1619.88,373.447 1621.93,373.512 1623.98,373.581 
  1626.03,373.656 1628.08,373.738 1630.13,373.826 1632.18,373.922 1634.23,374.027 1636.28,374.141 1638.33,374.265 1640.39,374.4 1642.44,374.546 1644.49,374.704 
  1646.54,374.875 1648.59,375.06 1650.64,375.258 1652.69,375.472 1654.74,375.7 1656.79,375.945 1658.84,376.206 1660.9,376.484 1662.95,376.78 1665,377.094 
  1667.05,377.427 1669.1,377.778 1671.15,378.149 1673.2,378.541 1675.25,378.952 1677.3,379.385 1679.35,379.838 1681.41,380.313 1683.46,380.81 1685.51,381.328 
  1687.56,381.869 1689.61,382.433 1691.66,383.018 1693.71,383.627 1695.76,384.259 1697.81,384.913 1699.86,385.591 1701.92,386.292 1703.97,387.015 1706.02,387.762 
  1708.07,388.531 1710.12,389.324 1712.17,390.139 1714.22,390.976 1716.27,391.836 1718.32,392.717 1720.37,393.62 1722.43,394.545 1724.48,395.491 1726.53,396.457 
  1728.58,397.443 1730.63,398.449 1732.68,399.474 1734.73,400.517 1736.78,401.579 1738.83,402.657 1740.88,403.753 1742.94,404.864 1744.99,405.991 1747.04,407.132 
  1749.09,408.286 1751.14,409.453 1753.19,410.633 1755.24,411.823 1757.29,413.023 1759.34,414.231 1761.39,415.448 1763.45,416.672 1765.5,417.901 1767.55,419.135 
  1769.6,420.372 1771.65,421.612 1773.7,422.852 1775.75,424.092 1777.8,425.331 1779.85,426.566 1781.91,427.798 1783.96,429.023 1786.01,430.241 1788.06,431.451 
  1790.11,432.651 1792.16,433.839 1794.21,435.014 1796.26,436.175 1798.31,437.319 1800.36,438.446 1802.42,439.554 1804.47,440.64 1806.52,441.704 1808.57,442.744 
  1810.62,443.758 1812.67,444.745 1814.72,445.702 1816.77,446.629 1818.82,447.523 1820.87,448.384 1822.93,449.208 1824.98,449.995 1827.03,450.742 1829.08,451.449 
  1831.13,452.114 1833.18,452.734 1835.23,453.308 1837.28,453.836 1839.33,454.314 1841.38,454.741 1843.44,455.116 1845.49,455.438 1847.54,455.704 1849.59,455.914 
  1851.64,456.065 1853.69,456.157 1855.74,456.188 1857.79,456.156 1859.84,456.061 1861.89,455.901 1863.95,455.674 1866,455.381 1868.05,455.019 1870.1,454.587 
  1872.15,454.085 1874.2,453.511 1876.25,452.865 1878.3,452.145 1880.35,451.352 1882.4,450.485 1884.46,449.542 1886.51,448.523 1888.56,447.428 1890.61,446.257 
  1892.66,445.009 1894.71,443.684 1896.76,442.283 1898.81,440.804 1900.86,439.248 1902.91,437.616 1904.97,435.908 1907.02,434.124 1909.07,432.265 1911.12,430.331 
  1913.17,428.324 1915.22,426.244 1917.27,424.092 1919.32,421.869 1921.37,419.577 1923.42,417.218 1925.48,414.792 1927.53,412.302 1929.58,409.749 1931.63,407.135 
  1933.68,404.463 1935.73,401.735 1937.78,398.953 1939.83,396.12 1941.88,393.239 1943.94,390.312 1945.99,387.343 1948.04,384.335 1950.09,381.292 1952.14,378.216 
  1954.19,375.113 1956.24,371.985 1958.29,368.837 1960.34,365.672 1962.39,362.497 1964.45,359.315 1966.5,356.13 1968.55,352.949 1970.6,349.775 1972.65,346.616 
  1974.7,343.475 1976.75,340.359 1978.8,337.273 1980.85,334.224 1982.9,331.218 1984.96,328.261 1987.01,325.36 1989.06,322.521 1991.11,319.752 1993.16,317.059 
  1995.21,314.45 1997.26,311.932 1999.31,309.513 2001.36,307.2 2003.41,305.002 2005.47,302.926 2007.52,300.981 2009.57,299.174 2011.62,297.515 2013.67,296.012 
  2015.72,294.673 2017.77,293.507 2019.82,292.524 2021.87,291.732 2023.92,291.141 2025.98,290.76 2028.03,290.597 2030.08,290.663 2032.13,290.966 2034.18,291.517 
  2036.23,292.325 2038.28,293.398 2040.33,294.748 2042.38,296.383 2044.43,298.313 2046.49,300.548 2048.54,303.097 2050.59,305.969 2052.64,309.174 2054.69,312.721 
  2056.74,316.619 2058.79,320.878 2060.84,325.507 2062.89,330.513 2064.94,335.906 2067,341.695 2069.05,347.886 2071.1,354.49 2073.15,361.512 2075.2,368.96 
  2077.25,376.843 2079.3,385.165 2081.35,393.934 2083.4,403.156 2085.45,412.836 2087.51,422.979 2089.56,433.591 2091.61,444.674 2093.66,456.233 2095.71,468.271 
  2097.76,480.789 2099.81,493.79 2101.86,507.275 2103.91,521.244 2105.97,535.696 2108.02,550.63 2110.07,566.044 2112.12,581.935 2114.17,598.298 2116.22,615.129 
  2118.27,632.421 2120.32,650.168 2122.37,668.361 2124.42,686.99 2126.48,706.044 2128.53,725.512 2130.58,745.379 2132.63,765.632 2134.68,786.252 2136.73,807.224 
  2138.78,828.526 2140.83,850.137 2142.88,872.035 2144.93,894.194 2146.99,916.587 2149.04,939.187 2151.09,961.961 2153.14,984.877 2155.19,1007.9 2157.24,1030.99 
  2159.29,1054.11 2161.34,1077.22 2163.39,1100.27 2165.44,1123.21 2167.5,1146 2169.55,1168.58 2171.6,1190.89 2173.65,1212.88 2175.7,1234.48 2177.75,1255.63 
  2179.8,1276.26 2181.85,1296.29 2183.9,1315.65 2185.95,1334.27 2188.01,1352.05 2190.06,1368.9 2192.11,1384.75 2194.16,1399.49 2196.21,1413.02 2198.26,1425.23 
  2200.31,1436.03 2202.36,1445.28 2204.41,1452.89 2206.46,1458.71 2208.52,1462.62 2210.57,1464.49 2212.62,1464.18 2214.67,1461.53 2216.72,1456.41 2218.77,1448.65 
  2220.82,1438.08 2222.87,1424.54 2224.92,1407.86 2226.97,1387.84 2229.03,1364.3 2231.08,1337.04 2233.13,1305.85 2235.18,1270.52 2237.23,1230.84 2239.28,1186.57 
  2241.33,1137.48 2243.38,1083.32 2245.43,1023.85 2247.48,958.788 2249.54,887.877 2251.59,810.834 2253.64,727.369 2255.69,637.182 2257.74,539.964 2259.79,435.394 
  
  "/>
<polygon clip-path="url(#clip9501)" points="
1685.51,451.424 2249.26,451.424 2249.26,209.504 1685.51,209.504 
  " fill="#ffffff" fill-rule="evenodd" fill-opacity="1"/>
<polyline clip-path="url(#clip9501)" style="stroke:#000000; stroke-width:4; stroke-opacity:1; fill:none" points="
  1685.51,451.424 2249.26,451.424 2249.26,209.504 1685.51,209.504 1685.51,451.424 
  "/>
<polyline clip-path="url(#clip9501)" style="stroke:#009af9; stroke-width:4; stroke-opacity:1; fill:none" points="
  1709.51,269.984 1853.51,269.984 
  "/>
<g clip-path="url(#clip9501)">
<text style="fill:#000000; fill-opacity:1; font-family:Arial,Helvetica Neue,Helvetica,sans-serif; font-size:48px; text-anchor:start;" transform="rotate(0, 1877.51, 287.484)" x="1877.51" y="287.484">Runge function</text>
</g>
<circle clip-path="url(#clip9501)" style="fill:#000000; stroke:none; fill-opacity:1" cx="1793.51" cy="330.464" r="25"/>
<circle clip-path="url(#clip9501)" style="fill:#e26f46; stroke:none; fill-opacity:1" cx="1793.51" cy="330.464" r="21"/>
<g clip-path="url(#clip9501)">
<text style="fill:#000000; fill-opacity:1; font-family:Arial,Helvetica Neue,Helvetica,sans-serif; font-size:48px; text-anchor:start;" transform="rotate(0, 1877.51, 347.964)" x="1877.51" y="347.964">Nodes</text>
</g>
<polyline clip-path="url(#clip9501)" style="stroke:#3da44d; stroke-width:4; stroke-opacity:1; fill:none" points="
  1709.51,390.944 1853.51,390.944 
  "/>
<g clip-path="url(#clip9501)">
<text style="fill:#000000; fill-opacity:1; font-family:Arial,Helvetica Neue,Helvetica,sans-serif; font-size:48px; text-anchor:start;" transform="rotate(0, 1877.51, 408.444)" x="1877.51" y="408.444">Intepolation</text>
</g>
</svg>
