<?xml version="1.0" encoding="utf-8"?>
<svg xmlns="http://www.w3.org/2000/svg" xmlns:xlink="http://www.w3.org/1999/xlink" width="600" height="400" viewBox="0 0 2400 1600">
<defs>
  <clipPath id="clip8700">
    <rect x="0" y="0" width="2000" height="2000"/>
  </clipPath>
</defs>
<defs>
  <clipPath id="clip8701">
    <rect x="0" y="0" width="2400" height="1600"/>
  </clipPath>
</defs>
<polygon clip-path="url(#clip8701)" points="
0,1600 2400,1600 2400,0 0,0 
  " fill="#ffffff" fill-rule="evenodd" fill-opacity="1"/>
<defs>
  <clipPath id="clip8702">
    <rect x="480" y="0" width="1681" height="1600"/>
  </clipPath>
</defs>
<polygon clip-path="url(#clip8701)" points="
189.504,1503.47 2321.26,1503.47 2321.26,125.984 189.504,125.984 
  " fill="#ffffff" fill-rule="evenodd" fill-opacity="1"/>
<defs>
  <clipPath id="clip8703">
    <rect x="189" y="125" width="2133" height="1378"/>
  </clipPath>
</defs>
<polyline clip-path="url(#clip8703)" style="stroke:#000000; stroke-width:2; stroke-opacity:0.1; fill:none" points="
  249.837,1503.47 249.837,125.984 
  "/>
<polyline clip-path="url(#clip8703)" style="stroke:#000000; stroke-width:2; stroke-opacity:0.1; fill:none" points="
  752.609,1503.47 752.609,125.984 
  "/>
<polyline clip-path="url(#clip8703)" style="stroke:#000000; stroke-width:2; stroke-opacity:0.1; fill:none" points="
  1255.38,1503.47 1255.38,125.984 
  "/>
<polyline clip-path="url(#clip8703)" style="stroke:#000000; stroke-width:2; stroke-opacity:0.1; fill:none" points="
  1758.15,1503.47 1758.15,125.984 
  "/>
<polyline clip-path="url(#clip8703)" style="stroke:#000000; stroke-width:2; stroke-opacity:0.1; fill:none" points="
  2260.93,1503.47 2260.93,125.984 
  "/>
<polyline clip-path="url(#clip8703)" style="stroke:#000000; stroke-width:2; stroke-opacity:0.1; fill:none" points="
  189.504,1464.47 2321.26,1464.47 
  "/>
<polyline clip-path="url(#clip8703)" style="stroke:#000000; stroke-width:2; stroke-opacity:0.1; fill:none" points="
  189.504,1139.59 2321.26,1139.59 
  "/>
<polyline clip-path="url(#clip8703)" style="stroke:#000000; stroke-width:2; stroke-opacity:0.1; fill:none" points="
  189.504,814.718 2321.26,814.718 
  "/>
<polyline clip-path="url(#clip8703)" style="stroke:#000000; stroke-width:2; stroke-opacity:0.1; fill:none" points="
  189.504,489.844 2321.26,489.844 
  "/>
<polyline clip-path="url(#clip8703)" style="stroke:#000000; stroke-width:2; stroke-opacity:0.1; fill:none" points="
  189.504,164.97 2321.26,164.97 
  "/>
<polyline clip-path="url(#clip8701)" style="stroke:#000000; stroke-width:4; stroke-opacity:1; fill:none" points="
  189.504,1503.47 2321.26,1503.47 
  "/>
<polyline clip-path="url(#clip8701)" style="stroke:#000000; stroke-width:4; stroke-opacity:1; fill:none" points="
  189.504,1503.47 189.504,125.984 
  "/>
<polyline clip-path="url(#clip8701)" style="stroke:#000000; stroke-width:4; stroke-opacity:1; fill:none" points="
  249.837,1503.47 249.837,1482.81 
  "/>
<polyline clip-path="url(#clip8701)" style="stroke:#000000; stroke-width:4; stroke-opacity:1; fill:none" points="
  752.609,1503.47 752.609,1482.81 
  "/>
<polyline clip-path="url(#clip8701)" style="stroke:#000000; stroke-width:4; stroke-opacity:1; fill:none" points="
  1255.38,1503.47 1255.38,1482.81 
  "/>
<polyline clip-path="url(#clip8701)" style="stroke:#000000; stroke-width:4; stroke-opacity:1; fill:none" points="
  1758.15,1503.47 1758.15,1482.81 
  "/>
<polyline clip-path="url(#clip8701)" style="stroke:#000000; stroke-width:4; stroke-opacity:1; fill:none" points="
  2260.93,1503.47 2260.93,1482.81 
  "/>
<polyline clip-path="url(#clip8701)" style="stroke:#000000; stroke-width:4; stroke-opacity:1; fill:none" points="
  189.504,1464.47 221.48,1464.47 
  "/>
<polyline clip-path="url(#clip8701)" style="stroke:#000000; stroke-width:4; stroke-opacity:1; fill:none" points="
  189.504,1139.59 221.48,1139.59 
  "/>
<polyline clip-path="url(#clip8701)" style="stroke:#000000; stroke-width:4; stroke-opacity:1; fill:none" points="
  189.504,814.718 221.48,814.718 
  "/>
<polyline clip-path="url(#clip8701)" style="stroke:#000000; stroke-width:4; stroke-opacity:1; fill:none" points="
  189.504,489.844 221.48,489.844 
  "/>
<polyline clip-path="url(#clip8701)" style="stroke:#000000; stroke-width:4; stroke-opacity:1; fill:none" points="
  189.504,164.97 221.48,164.97 
  "/>
<g clip-path="url(#clip8701)">
<text style="fill:#000000; fill-opacity:1; font-family:Arial,Helvetica Neue,Helvetica,sans-serif; font-size:48px; text-anchor:middle;" transform="rotate(0, 249.837, 1557.47)" x="249.837" y="1557.47">-1.0</text>
</g>
<g clip-path="url(#clip8701)">
<text style="fill:#000000; fill-opacity:1; font-family:Arial,Helvetica Neue,Helvetica,sans-serif; font-size:48px; text-anchor:middle;" transform="rotate(0, 752.609, 1557.47)" x="752.609" y="1557.47">-0.5</text>
</g>
<g clip-path="url(#clip8701)">
<text style="fill:#000000; fill-opacity:1; font-family:Arial,Helvetica Neue,Helvetica,sans-serif; font-size:48px; text-anchor:middle;" transform="rotate(0, 1255.38, 1557.47)" x="1255.38" y="1557.47">0.0</text>
</g>
<g clip-path="url(#clip8701)">
<text style="fill:#000000; fill-opacity:1; font-family:Arial,Helvetica Neue,Helvetica,sans-serif; font-size:48px; text-anchor:middle;" transform="rotate(0, 1758.15, 1557.47)" x="1758.15" y="1557.47">0.5</text>
</g>
<g clip-path="url(#clip8701)">
<text style="fill:#000000; fill-opacity:1; font-family:Arial,Helvetica Neue,Helvetica,sans-serif; font-size:48px; text-anchor:middle;" transform="rotate(0, 2260.93, 1557.47)" x="2260.93" y="1557.47">1.0</text>
</g>
<g clip-path="url(#clip8701)">
<text style="fill:#000000; fill-opacity:1; font-family:Arial,Helvetica Neue,Helvetica,sans-serif; font-size:48px; text-anchor:end;" transform="rotate(0, 165.504, 1481.97)" x="165.504" y="1481.97">-1.0</text>
</g>
<g clip-path="url(#clip8701)">
<text style="fill:#000000; fill-opacity:1; font-family:Arial,Helvetica Neue,Helvetica,sans-serif; font-size:48px; text-anchor:end;" transform="rotate(0, 165.504, 1157.09)" x="165.504" y="1157.09">-0.5</text>
</g>
<g clip-path="url(#clip8701)">
<text style="fill:#000000; fill-opacity:1; font-family:Arial,Helvetica Neue,Helvetica,sans-serif; font-size:48px; text-anchor:end;" transform="rotate(0, 165.504, 832.218)" x="165.504" y="832.218">0.0</text>
</g>
<g clip-path="url(#clip8701)">
<text style="fill:#000000; fill-opacity:1; font-family:Arial,Helvetica Neue,Helvetica,sans-serif; font-size:48px; text-anchor:end;" transform="rotate(0, 165.504, 507.344)" x="165.504" y="507.344">0.5</text>
</g>
<g clip-path="url(#clip8701)">
<text style="fill:#000000; fill-opacity:1; font-family:Arial,Helvetica Neue,Helvetica,sans-serif; font-size:48px; text-anchor:end;" transform="rotate(0, 165.504, 182.47)" x="165.504" y="182.47">1.0</text>
</g>
<g clip-path="url(#clip8701)">
<text style="fill:#000000; fill-opacity:1; font-family:Arial,Helvetica Neue,Helvetica,sans-serif; font-size:84px; text-anchor:middle;" transform="rotate(0, 1255.38, 73.2)" x="1255.38" y="73.2">Runge&apos;s phenomenon (Nodes = 9)</text>
</g>
<polyline clip-path="url(#clip8703)" style="stroke:#009af9; stroke-width:4; stroke-opacity:1; fill:none" points="
  249.837,789.727 251.85,789.631 253.863,789.534 255.876,789.436 257.889,789.338 259.902,789.239 261.915,789.14 263.929,789.04 265.942,788.94 267.955,788.839 
  269.968,788.737 271.981,788.635 273.994,788.532 276.007,788.429 278.02,788.325 280.033,788.22 282.046,788.115 284.06,788.009 286.073,787.902 288.086,787.795 
  290.099,787.688 292.112,787.579 294.125,787.47 296.138,787.361 298.151,787.25 300.164,787.139 302.178,787.028 304.191,786.915 306.204,786.802 308.217,786.689 
  310.23,786.574 312.243,786.459 314.256,786.344 316.269,786.227 318.282,786.11 320.295,785.992 322.309,785.874 324.322,785.754 326.335,785.634 328.348,785.513 
  330.361,785.392 332.374,785.27 334.387,785.147 336.4,785.023 338.413,784.898 340.426,784.773 342.44,784.647 344.453,784.52 346.466,784.392 348.479,784.264 
  350.492,784.135 352.505,784.005 354.518,783.874 356.531,783.742 358.544,783.609 360.558,783.476 362.571,783.342 364.584,783.207 366.597,783.071 368.61,782.934 
  370.623,782.796 372.636,782.658 374.649,782.518 376.662,782.378 378.675,782.237 380.689,782.095 382.702,781.951 384.715,781.807 386.728,781.663 388.741,781.517 
  390.754,781.37 392.767,781.222 394.78,781.073 396.793,780.923 398.806,780.773 400.82,780.621 402.833,780.468 404.846,780.315 406.859,780.16 408.872,780.004 
  410.885,779.847 412.898,779.689 414.911,779.531 416.924,779.371 418.938,779.21 420.951,779.047 422.964,778.884 424.977,778.72 426.99,778.554 429.003,778.388 
  431.016,778.22 433.029,778.051 435.042,777.881 437.055,777.71 439.069,777.538 441.082,777.365 443.095,777.19 445.108,777.014 447.121,776.837 449.134,776.659 
  451.147,776.479 453.16,776.298 455.173,776.116 457.186,775.933 459.2,775.748 461.213,775.562 463.226,775.375 465.239,775.187 467.252,774.997 469.265,774.806 
  471.278,774.613 473.291,774.419 475.304,774.224 477.318,774.027 479.331,773.829 481.344,773.63 483.357,773.429 485.37,773.226 487.383,773.023 489.396,772.817 
  491.409,772.611 493.422,772.402 495.435,772.193 497.449,771.981 499.462,771.768 501.475,771.554 503.488,771.338 505.501,771.12 507.514,770.901 509.527,770.68 
  511.54,770.458 513.553,770.234 515.566,770.008 517.58,769.781 519.593,769.552 521.606,769.321 523.619,769.088 525.632,768.854 527.645,768.618 529.658,768.38 
  531.671,768.14 533.684,767.899 535.698,767.656 537.711,767.41 539.724,767.163 541.737,766.915 543.75,766.664 545.763,766.411 547.776,766.156 549.789,765.9 
  551.802,765.641 553.815,765.38 555.829,765.118 557.842,764.853 559.855,764.586 561.868,764.317 563.881,764.047 565.894,763.773 567.907,763.498 569.92,763.221 
  571.933,762.941 573.946,762.659 575.96,762.375 577.973,762.089 579.986,761.8 581.999,761.509 584.012,761.216 586.025,760.921 588.038,760.623 590.051,760.322 
  592.064,760.019 594.078,759.714 596.091,759.406 598.104,759.096 600.117,758.783 602.13,758.468 604.143,758.15 606.156,757.829 608.169,757.506 610.182,757.18 
  612.195,756.851 614.209,756.52 616.222,756.186 618.235,755.849 620.248,755.509 622.261,755.167 624.274,754.821 626.287,754.473 628.3,754.122 630.313,753.768 
  632.326,753.41 634.34,753.05 636.353,752.687 638.366,752.32 640.379,751.95 642.392,751.578 644.405,751.202 646.418,750.822 648.431,750.44 650.444,750.054 
  652.458,749.665 654.471,749.272 656.484,748.876 658.497,748.476 660.51,748.073 662.523,747.667 664.536,747.257 666.549,746.843 668.562,746.425 670.575,746.004 
  672.589,745.579 674.602,745.151 676.615,744.718 678.628,744.282 680.641,743.841 682.654,743.397 684.667,742.949 686.68,742.496 688.693,742.04 690.706,741.579 
  692.72,741.114 694.733,740.645 696.746,740.171 698.759,739.694 700.772,739.211 702.785,738.725 704.798,738.234 706.811,737.738 708.824,737.237 710.838,736.732 
  712.851,736.223 714.864,735.708 716.877,735.189 718.89,734.664 720.903,734.135 722.916,733.601 724.929,733.062 726.942,732.517 728.955,731.967 730.969,731.412 
  732.982,730.852 734.995,730.287 737.008,729.716 739.021,729.139 741.034,728.557 743.047,727.969 745.06,727.375 747.073,726.776 749.086,726.171 751.1,725.56 
  753.113,724.942 755.126,724.319 757.139,723.69 759.152,723.054 761.165,722.412 763.178,721.764 765.191,721.109 767.204,720.447 769.218,719.779 771.231,719.105 
  773.244,718.423 775.257,717.735 777.27,717.039 779.283,716.337 781.296,715.627 783.309,714.911 785.322,714.186 787.335,713.455 789.349,712.716 791.362,711.969 
  793.375,711.215 795.388,710.452 797.401,709.682 799.414,708.904 801.427,708.118 803.44,707.323 805.453,706.521 807.466,705.709 809.48,704.89 811.493,704.061 
  813.506,703.224 815.519,702.378 817.532,701.523 819.545,700.659 821.558,699.786 823.571,698.903 825.584,698.011 827.598,697.109 829.611,696.198 831.624,695.276 
  833.637,694.345 835.65,693.404 837.663,692.452 839.676,691.49 841.689,690.518 843.702,689.535 845.715,688.541 847.729,687.536 849.742,686.521 851.755,685.494 
  853.768,684.455 855.781,683.405 857.794,682.344 859.807,681.271 861.82,680.185 863.833,679.088 865.846,677.978 867.86,676.856 869.873,675.721 871.886,674.574 
  873.899,673.413 875.912,672.24 877.925,671.053 879.938,669.852 881.951,668.638 883.964,667.411 885.978,666.169 887.991,664.913 890.004,663.642 892.017,662.357 
  894.03,661.058 896.043,659.743 898.056,658.413 900.069,657.068 902.082,655.707 904.095,654.331 906.109,652.938 908.122,651.529 910.135,650.104 912.148,648.663 
  914.161,647.204 916.174,645.729 918.187,644.236 920.2,642.726 922.213,641.198 924.226,639.652 926.24,638.088 928.253,636.505 930.266,634.904 932.279,633.284 
  934.292,631.645 936.305,629.986 938.318,628.308 940.331,626.61 942.344,624.892 944.358,623.154 946.371,621.395 948.384,619.615 950.397,617.814 952.41,615.991 
  954.423,614.147 956.436,612.281 958.449,610.393 960.462,608.483 962.475,606.55 964.489,604.593 966.502,602.614 968.515,600.611 970.528,598.584 972.541,596.533 
  974.554,594.458 976.567,592.359 978.58,590.234 980.593,588.084 982.606,585.909 984.62,583.708 986.633,581.482 988.646,579.228 990.659,576.949 992.672,574.643 
  994.685,572.309 996.698,569.948 998.711,567.56 1000.72,565.144 1002.74,562.7 1004.75,560.227 1006.76,557.726 1008.78,555.195 1010.79,552.636 1012.8,550.047 
  1014.82,547.429 1016.83,544.781 1018.84,542.103 1020.86,539.394 1022.87,536.655 1024.88,533.885 1026.89,531.085 1028.91,528.253 1030.92,525.39 1032.93,522.495 
  1034.95,519.569 1036.96,516.611 1038.97,513.621 1040.99,510.599 1043,507.545 1045.01,504.459 1047.03,501.34 1049.04,498.189 1051.05,495.005 1053.07,491.789 
  1055.08,488.54 1057.09,485.259 1059.1,481.945 1061.12,478.599 1063.13,475.22 1065.14,471.809 1067.16,468.366 1069.17,464.89 1071.18,461.383 1073.2,457.844 
  1075.21,454.273 1077.22,450.671 1079.24,447.038 1081.25,443.375 1083.26,439.68 1085.27,435.956 1087.29,432.203 1089.3,428.42 1091.31,424.609 1093.33,420.769 
  1095.34,416.903 1097.35,413.009 1099.37,409.089 1101.38,405.143 1103.39,401.173 1105.41,397.179 1107.42,393.161 1109.43,389.122 1111.45,385.061 1113.46,380.98 
  1115.47,376.88 1117.48,372.762 1119.5,368.627 1121.51,364.477 1123.52,360.312 1125.54,356.134 1127.55,351.945 1129.56,347.746 1131.58,343.538 1133.59,339.324 
  1135.6,335.105 1137.62,330.882 1139.63,326.658 1141.64,322.434 1143.65,318.212 1145.67,313.995 1147.68,309.784 1149.69,305.582 1151.71,301.39 1153.72,297.211 
  1155.73,293.048 1157.75,288.902 1159.76,284.777 1161.77,280.675 1163.79,276.597 1165.8,272.548 1167.81,268.529 1169.83,264.544 1171.84,260.595 1173.85,256.685 
  1175.86,252.816 1177.88,248.992 1179.89,245.216 1181.9,241.491 1183.92,237.819 1185.93,234.204 1187.94,230.648 1189.96,227.155 1191.97,223.728 1193.98,220.37 
  1196,217.083 1198.01,213.871 1200.02,210.737 1202.03,207.684 1204.05,204.715 1206.06,201.832 1208.07,199.039 1210.09,196.338 1212.1,193.732 1214.11,191.225 
  1216.13,188.817 1218.14,186.513 1220.15,184.315 1222.17,182.224 1224.18,180.244 1226.19,178.376 1228.21,176.622 1230.22,174.986 1232.23,173.467 1234.24,172.069 
  1236.26,170.793 1238.27,169.64 1240.28,168.611 1242.3,167.709 1244.31,166.933 1246.32,166.286 1248.34,165.766 1250.35,165.376 1252.36,165.116 1254.38,164.986 
  1256.39,164.986 1258.4,165.116 1260.41,165.376 1262.43,165.766 1264.44,166.286 1266.45,166.933 1268.47,167.709 1270.48,168.611 1272.49,169.64 1274.51,170.793 
  1276.52,172.069 1278.53,173.467 1280.55,174.986 1282.56,176.622 1284.57,178.376 1286.59,180.244 1288.6,182.224 1290.61,184.315 1292.62,186.513 1294.64,188.817 
  1296.65,191.225 1298.66,193.732 1300.68,196.338 1302.69,199.039 1304.7,201.832 1306.72,204.715 1308.73,207.684 1310.74,210.737 1312.76,213.871 1314.77,217.083 
  1316.78,220.37 1318.79,223.728 1320.81,227.155 1322.82,230.648 1324.83,234.204 1326.85,237.819 1328.86,241.491 1330.87,245.216 1332.89,248.992 1334.9,252.816 
  1336.91,256.685 1338.93,260.595 1340.94,264.544 1342.95,268.529 1344.97,272.548 1346.98,276.597 1348.99,280.675 1351,284.777 1353.02,288.902 1355.03,293.048 
  1357.04,297.211 1359.06,301.39 1361.07,305.582 1363.08,309.784 1365.1,313.995 1367.11,318.212 1369.12,322.434 1371.14,326.658 1373.15,330.882 1375.16,335.105 
  1377.17,339.324 1379.19,343.538 1381.2,347.746 1383.21,351.945 1385.23,356.134 1387.24,360.312 1389.25,364.477 1391.27,368.627 1393.28,372.762 1395.29,376.88 
  1397.31,380.98 1399.32,385.061 1401.33,389.122 1403.35,393.161 1405.36,397.179 1407.37,401.173 1409.38,405.143 1411.4,409.089 1413.41,413.009 1415.42,416.903 
  1417.44,420.769 1419.45,424.609 1421.46,428.42 1423.48,432.203 1425.49,435.956 1427.5,439.68 1429.52,443.375 1431.53,447.038 1433.54,450.671 1435.55,454.273 
  1437.57,457.844 1439.58,461.383 1441.59,464.89 1443.61,468.366 1445.62,471.809 1447.63,475.22 1449.65,478.599 1451.66,481.945 1453.67,485.259 1455.69,488.54 
  1457.7,491.789 1459.71,495.005 1461.73,498.189 1463.74,501.34 1465.75,504.459 1467.76,507.545 1469.78,510.599 1471.79,513.621 1473.8,516.611 1475.82,519.569 
  1477.83,522.495 1479.84,525.39 1481.86,528.253 1483.87,531.085 1485.88,533.885 1487.9,536.655 1489.91,539.394 1491.92,542.103 1493.93,544.781 1495.95,547.429 
  1497.96,550.047 1499.97,552.636 1501.99,555.195 1504,557.726 1506.01,560.227 1508.03,562.7 1510.04,565.144 1512.05,567.56 1514.07,569.948 1516.08,572.309 
  1518.09,574.643 1520.11,576.949 1522.12,579.228 1524.13,581.482 1526.14,583.708 1528.16,585.909 1530.17,588.084 1532.18,590.234 1534.2,592.359 1536.21,594.458 
  1538.22,596.533 1540.24,598.584 1542.25,600.611 1544.26,602.614 1546.28,604.593 1548.29,606.55 1550.3,608.483 1552.31,610.393 1554.33,612.281 1556.34,614.147 
  1558.35,615.991 1560.37,617.814 1562.38,619.615 1564.39,621.395 1566.41,623.154 1568.42,624.892 1570.43,626.61 1572.45,628.308 1574.46,629.986 1576.47,631.645 
  1578.49,633.284 1580.5,634.904 1582.51,636.505 1584.52,638.088 1586.54,639.652 1588.55,641.198 1590.56,642.726 1592.58,644.236 1594.59,645.729 1596.6,647.204 
  1598.62,648.663 1600.63,650.104 1602.64,651.529 1604.66,652.938 1606.67,654.331 1608.68,655.707 1610.69,657.068 1612.71,658.413 1614.72,659.743 1616.73,661.058 
  1618.75,662.357 1620.76,663.642 1622.77,664.913 1624.79,666.169 1626.8,667.411 1628.81,668.638 1630.83,669.852 1632.84,671.053 1634.85,672.24 1636.87,673.413 
  1638.88,674.574 1640.89,675.721 1642.9,676.856 1644.92,677.978 1646.93,679.088 1648.94,680.185 1650.96,681.271 1652.97,682.344 1654.98,683.405 1657,684.455 
  1659.01,685.494 1661.02,686.521 1663.04,687.536 1665.05,688.541 1667.06,689.535 1669.07,690.518 1671.09,691.49 1673.1,692.452 1675.11,693.404 1677.13,694.345 
  1679.14,695.276 1681.15,696.198 1683.17,697.109 1685.18,698.011 1687.19,698.903 1689.21,699.786 1691.22,700.659 1693.23,701.523 1695.25,702.378 1697.26,703.224 
  1699.27,704.061 1701.28,704.89 1703.3,705.709 1705.31,706.521 1707.32,707.323 1709.34,708.118 1711.35,708.904 1713.36,709.682 1715.38,710.452 1717.39,711.215 
  1719.4,711.969 1721.42,712.716 1723.43,713.455 1725.44,714.186 1727.45,714.911 1729.47,715.627 1731.48,716.337 1733.49,717.039 1735.51,717.735 1737.52,718.423 
  1739.53,719.105 1741.55,719.779 1743.56,720.447 1745.57,721.109 1747.59,721.764 1749.6,722.412 1751.61,723.054 1753.63,723.69 1755.64,724.319 1757.65,724.942 
  1759.66,725.56 1761.68,726.171 1763.69,726.776 1765.7,727.375 1767.72,727.969 1769.73,728.557 1771.74,729.139 1773.76,729.716 1775.77,730.287 1777.78,730.852 
  1779.8,731.412 1781.81,731.967 1783.82,732.517 1785.83,733.062 1787.85,733.601 1789.86,734.135 1791.87,734.664 1793.89,735.189 1795.9,735.708 1797.91,736.223 
  1799.93,736.732 1801.94,737.237 1803.95,737.738 1805.97,738.234 1807.98,738.725 1809.99,739.211 1812.01,739.694 1814.02,740.171 1816.03,740.645 1818.04,741.114 
  1820.06,741.579 1822.07,742.04 1824.08,742.496 1826.1,742.949 1828.11,743.397 1830.12,743.841 1832.14,744.282 1834.15,744.718 1836.16,745.151 1838.18,745.579 
  1840.19,746.004 1842.2,746.425 1844.21,746.843 1846.23,747.257 1848.24,747.667 1850.25,748.073 1852.27,748.476 1854.28,748.876 1856.29,749.272 1858.31,749.665 
  1860.32,750.054 1862.33,750.44 1864.35,750.822 1866.36,751.202 1868.37,751.578 1870.39,751.95 1872.4,752.32 1874.41,752.687 1876.42,753.05 1878.44,753.41 
  1880.45,753.768 1882.46,754.122 1884.48,754.473 1886.49,754.821 1888.5,755.167 1890.52,755.509 1892.53,755.849 1894.54,756.186 1896.56,756.52 1898.57,756.851 
  1900.58,757.18 1902.59,757.506 1904.61,757.829 1906.62,758.15 1908.63,758.468 1910.65,758.783 1912.66,759.096 1914.67,759.406 1916.69,759.714 1918.7,760.019 
  1920.71,760.322 1922.73,760.623 1924.74,760.921 1926.75,761.216 1928.77,761.509 1930.78,761.8 1932.79,762.089 1934.8,762.375 1936.82,762.659 1938.83,762.941 
  1940.84,763.221 1942.86,763.498 1944.87,763.773 1946.88,764.047 1948.9,764.317 1950.91,764.586 1952.92,764.853 1954.94,765.118 1956.95,765.38 1958.96,765.641 
  1960.97,765.9 1962.99,766.156 1965,766.411 1967.01,766.664 1969.03,766.915 1971.04,767.163 1973.05,767.41 1975.07,767.656 1977.08,767.899 1979.09,768.14 
  1981.11,768.38 1983.12,768.618 1985.13,768.854 1987.15,769.088 1989.16,769.321 1991.17,769.552 1993.18,769.781 1995.2,770.008 1997.21,770.234 1999.22,770.458 
  2001.24,770.68 2003.25,770.901 2005.26,771.12 2007.28,771.338 2009.29,771.554 2011.3,771.768 2013.32,771.981 2015.33,772.193 2017.34,772.402 2019.35,772.611 
  2021.37,772.817 2023.38,773.023 2025.39,773.226 2027.41,773.429 2029.42,773.63 2031.43,773.829 2033.45,774.027 2035.46,774.224 2037.47,774.419 2039.49,774.613 
  2041.5,774.806 2043.51,774.997 2045.53,775.187 2047.54,775.375 2049.55,775.562 2051.56,775.748 2053.58,775.933 2055.59,776.116 2057.6,776.298 2059.62,776.479 
  2061.63,776.659 2063.64,776.837 2065.66,777.014 2067.67,777.19 2069.68,777.365 2071.7,777.538 2073.71,777.71 2075.72,777.881 2077.73,778.051 2079.75,778.22 
  2081.76,778.388 2083.77,778.554 2085.79,778.72 2087.8,778.884 2089.81,779.047 2091.83,779.21 2093.84,779.371 2095.85,779.531 2097.87,779.689 2099.88,779.847 
  2101.89,780.004 2103.91,780.16 2105.92,780.315 2107.93,780.468 2109.94,780.621 2111.96,780.773 2113.97,780.923 2115.98,781.073 2118,781.222 2120.01,781.37 
  2122.02,781.517 2124.04,781.663 2126.05,781.807 2128.06,781.951 2130.08,782.095 2132.09,782.237 2134.1,782.378 2136.11,782.518 2138.13,782.658 2140.14,782.796 
  2142.15,782.934 2144.17,783.071 2146.18,783.207 2148.19,783.342 2150.21,783.476 2152.22,783.609 2154.23,783.742 2156.25,783.874 2158.26,784.005 2160.27,784.135 
  2162.29,784.264 2164.3,784.392 2166.31,784.52 2168.32,784.647 2170.34,784.773 2172.35,784.898 2174.36,785.023 2176.38,785.147 2178.39,785.27 2180.4,785.392 
  2182.42,785.513 2184.43,785.634 2186.44,785.754 2188.46,785.874 2190.47,785.992 2192.48,786.11 2194.49,786.227 2196.51,786.344 2198.52,786.459 2200.53,786.574 
  2202.55,786.689 2204.56,786.802 2206.57,786.915 2208.59,787.028 2210.6,787.139 2212.61,787.25 2214.63,787.361 2216.64,787.47 2218.65,787.579 2220.67,787.688 
  2222.68,787.795 2224.69,787.902 2226.7,788.009 2228.72,788.115 2230.73,788.22 2232.74,788.325 2234.76,788.429 2236.77,788.532 2238.78,788.635 2240.8,788.737 
  2242.81,788.839 2244.82,788.94 2246.84,789.04 2248.85,789.14 2250.86,789.239 2252.87,789.338 2254.89,789.436 2256.9,789.534 2258.91,789.631 2260.93,789.727 
  
  "/>
<circle clip-path="url(#clip8703)" style="fill:#000000; stroke:none; fill-opacity:1" cx="249.837" cy="789.727" r="18"/>
<circle clip-path="url(#clip8703)" style="fill:#e26f46; stroke:none; fill-opacity:1" cx="249.837" cy="789.727" r="14"/>
<circle clip-path="url(#clip8703)" style="fill:#000000; stroke:none; fill-opacity:1" cx="501.223" cy="771.581" r="18"/>
<circle clip-path="url(#clip8703)" style="fill:#e26f46; stroke:none; fill-opacity:1" cx="501.223" cy="771.581" r="14"/>
<circle clip-path="url(#clip8703)" style="fill:#000000; stroke:none; fill-opacity:1" cx="752.609" cy="725.097" r="18"/>
<circle clip-path="url(#clip8703)" style="fill:#e26f46; stroke:none; fill-opacity:1" cx="752.609" cy="725.097" r="14"/>
<circle clip-path="url(#clip8703)" style="fill:#000000; stroke:none; fill-opacity:1" cx="1004" cy="561.157" r="18"/>
<circle clip-path="url(#clip8703)" style="fill:#e26f46; stroke:none; fill-opacity:1" cx="1004" cy="561.157" r="14"/>
<circle clip-path="url(#clip8703)" style="fill:#000000; stroke:none; fill-opacity:1" cx="1255.38" cy="164.97" r="18"/>
<circle clip-path="url(#clip8703)" style="fill:#e26f46; stroke:none; fill-opacity:1" cx="1255.38" cy="164.97" r="14"/>
<circle clip-path="url(#clip8703)" style="fill:#000000; stroke:none; fill-opacity:1" cx="1506.77" cy="561.157" r="18"/>
<circle clip-path="url(#clip8703)" style="fill:#e26f46; stroke:none; fill-opacity:1" cx="1506.77" cy="561.157" r="14"/>
<circle clip-path="url(#clip8703)" style="fill:#000000; stroke:none; fill-opacity:1" cx="1758.15" cy="725.097" r="18"/>
<circle clip-path="url(#clip8703)" style="fill:#e26f46; stroke:none; fill-opacity:1" cx="1758.15" cy="725.097" r="14"/>
<circle clip-path="url(#clip8703)" style="fill:#000000; stroke:none; fill-opacity:1" cx="2009.54" cy="771.581" r="18"/>
<circle clip-path="url(#clip8703)" style="fill:#e26f46; stroke:none; fill-opacity:1" cx="2009.54" cy="771.581" r="14"/>
<circle clip-path="url(#clip8703)" style="fill:#000000; stroke:none; fill-opacity:1" cx="2260.93" cy="789.727" r="18"/>
<circle clip-path="url(#clip8703)" style="fill:#e26f46; stroke:none; fill-opacity:1" cx="2260.93" cy="789.727" r="14"/>
<polyline clip-path="url(#clip8703)" style="stroke:#3da44d; stroke-width:4; stroke-opacity:1; fill:none" points="
  249.837,789.727 251.85,830.129 253.863,868.921 255.876,906.141 257.889,941.824 259.902,976.006 261.915,1008.72 263.929,1040.01 265.942,1069.89 267.955,1098.41 
  269.968,1125.6 271.981,1151.49 273.994,1176.11 276.007,1199.5 278.02,1221.67 280.033,1242.68 282.046,1262.53 284.06,1281.27 286.073,1298.92 288.086,1315.51 
  290.099,1331.07 292.112,1345.63 294.125,1359.21 296.138,1371.83 298.151,1383.53 300.164,1394.34 302.178,1404.26 304.191,1413.34 306.204,1421.59 308.217,1429.04 
  310.23,1435.71 312.243,1441.63 314.256,1446.81 316.269,1451.29 318.282,1455.07 320.295,1458.19 322.309,1460.66 324.322,1462.51 326.335,1463.75 328.348,1464.4 
  330.361,1464.49 332.374,1464.03 334.387,1463.04 336.4,1461.55 338.413,1459.56 340.426,1457.1 342.44,1454.18 344.453,1450.82 346.466,1447.04 348.479,1442.86 
  350.492,1438.28 352.505,1433.33 354.518,1428.01 356.531,1422.36 358.544,1416.37 360.558,1410.07 362.571,1403.47 364.584,1396.58 366.597,1389.42 368.61,1381.99 
  370.623,1374.32 372.636,1366.42 374.649,1358.29 376.662,1349.95 378.675,1341.42 380.689,1332.69 382.702,1323.8 384.715,1314.73 386.728,1305.52 388.741,1296.16 
  390.754,1286.67 392.767,1277.05 394.78,1267.32 396.793,1257.49 398.806,1247.57 400.82,1237.56 402.833,1227.47 404.846,1217.32 406.859,1207.1 408.872,1196.84 
  410.885,1186.53 412.898,1176.19 414.911,1165.82 416.924,1155.43 418.938,1145.03 420.951,1134.62 422.964,1124.21 424.977,1113.8 426.99,1103.41 429.003,1093.04 
  431.016,1082.7 433.029,1072.39 435.042,1062.11 437.055,1051.88 439.069,1041.69 441.082,1031.55 443.095,1021.48 445.108,1011.46 447.121,1001.51 449.134,991.635 
  451.147,981.832 453.16,972.11 455.173,962.47 457.186,952.918 459.2,943.456 461.213,934.088 463.226,924.819 465.239,915.65 467.252,906.584 469.265,897.626 
  471.278,888.777 473.291,880.041 475.304,871.419 477.318,862.914 479.331,854.529 481.344,846.266 483.357,838.126 485.37,830.112 487.383,822.226 489.396,814.468 
  491.409,806.842 493.422,799.348 495.435,791.987 497.449,784.761 499.462,777.672 501.475,770.719 503.488,763.905 505.501,757.23 507.514,750.694 509.527,744.299 
  511.54,738.046 513.553,731.933 515.566,725.963 517.58,720.136 519.593,714.451 521.606,708.909 523.619,703.509 525.632,698.253 527.645,693.14 529.658,688.17 
  531.671,683.342 533.684,678.657 535.698,674.114 537.711,669.712 539.724,665.452 541.737,661.333 543.75,657.353 545.763,653.513 547.776,649.812 549.789,646.249 
  551.802,642.824 553.815,639.534 555.829,636.38 557.842,633.361 559.855,630.475 561.868,627.721 563.881,625.099 565.894,622.607 567.907,620.244 569.92,618.009 
  571.933,615.9 573.946,613.916 575.96,612.056 577.973,610.318 579.986,608.702 581.999,607.205 584.012,605.825 586.025,604.563 588.038,603.415 590.051,602.381 
  592.064,601.458 594.078,600.646 596.091,599.941 598.104,599.344 600.117,598.852 602.13,598.463 604.143,598.175 606.156,597.988 608.169,597.898 610.182,597.904 
  612.195,598.005 614.209,598.199 616.222,598.483 618.235,598.855 620.248,599.315 622.261,599.859 624.274,600.487 626.287,601.196 628.3,601.984 630.313,602.849 
  632.326,603.79 634.34,604.804 636.353,605.889 638.366,607.044 640.379,608.267 642.392,609.555 644.405,610.906 646.418,612.319 648.431,613.792 650.444,615.323 
  652.458,616.909 654.471,618.548 656.484,620.24 658.497,621.981 660.51,623.77 662.523,625.605 664.536,627.484 666.549,629.404 668.562,631.365 670.575,633.363 
  672.589,635.398 674.602,637.467 676.615,639.568 678.628,641.699 680.641,643.859 682.654,646.046 684.667,648.257 686.68,650.491 688.693,652.745 690.706,655.019 
  692.72,657.311 694.733,659.617 696.746,661.937 698.759,664.269 700.772,666.612 702.785,668.962 704.798,671.319 706.811,673.681 708.824,676.046 710.838,678.412 
  712.851,680.778 714.864,683.142 716.877,685.503 718.89,687.858 720.903,690.206 722.916,692.546 724.929,694.876 726.942,697.194 728.955,699.499 730.969,701.79 
  732.982,704.064 734.995,706.321 737.008,708.558 739.021,710.775 741.034,712.97 743.047,715.142 745.06,717.289 747.073,719.41 749.086,721.504 751.1,723.568 
  753.113,725.603 755.126,727.606 757.139,729.577 759.152,731.514 761.165,733.417 763.178,735.283 765.191,737.111 767.204,738.902 769.218,740.653 771.231,742.363 
  773.244,744.031 775.257,745.657 777.27,747.239 779.283,748.777 781.296,750.268 783.309,751.713 785.322,753.111 787.335,754.46 789.349,755.76 791.362,757.009 
  793.375,758.208 795.388,759.355 797.401,760.449 799.414,761.49 801.427,762.477 803.44,763.41 805.453,764.287 807.466,765.108 809.48,765.872 811.493,766.579 
  813.506,767.228 815.519,767.818 817.532,768.35 819.545,768.823 821.558,769.235 823.571,769.587 825.584,769.878 827.598,770.108 829.611,770.276 831.624,770.383 
  833.637,770.427 835.65,770.408 837.663,770.326 839.676,770.182 841.689,769.973 843.702,769.701 845.715,769.366 847.729,768.966 849.742,768.502 851.755,767.973 
  853.768,767.38 855.781,766.723 857.794,766.001 859.807,765.215 861.82,764.363 863.833,763.447 865.846,762.467 867.86,761.422 869.873,760.312 871.886,759.138 
  873.899,757.899 875.912,756.597 877.925,755.23 879.938,753.8 881.951,752.305 883.964,750.748 885.978,749.127 887.991,747.443 890.004,745.696 892.017,743.887 
  894.03,742.016 896.043,740.083 898.056,738.088 900.069,736.033 902.082,733.916 904.095,731.74 906.109,729.503 908.122,727.208 910.135,724.853 912.148,722.439 
  914.161,719.968 916.174,717.439 918.187,714.853 920.2,712.211 922.213,709.513 924.226,706.76 926.24,703.951 928.253,701.089 930.266,698.173 932.279,695.204 
  934.292,692.183 936.305,689.111 938.318,685.988 940.331,682.814 942.344,679.591 944.358,676.319 946.371,672.999 948.384,669.632 950.397,666.218 952.41,662.759 
  954.423,659.254 956.436,655.706 958.449,652.113 960.462,648.479 962.475,644.802 964.489,641.085 966.502,637.328 968.515,633.531 970.528,629.696 972.541,625.824 
  974.554,621.915 976.567,617.971 978.58,613.991 980.593,609.978 982.606,605.932 984.62,601.854 986.633,597.745 988.646,593.606 990.659,589.438 992.672,585.241 
  994.685,581.017 996.698,576.768 998.711,572.492 1000.72,568.193 1002.74,563.87 1004.75,559.526 1006.76,555.159 1008.78,550.773 1010.79,546.368 1012.8,541.944 
  1014.82,537.503 1016.83,533.046 1018.84,528.573 1020.86,524.087 1022.87,519.588 1024.88,515.076 1026.89,510.554 1028.91,506.022 1030.92,501.481 1032.93,496.932 
  1034.95,492.376 1036.96,487.815 1038.97,483.249 1040.99,478.679 1043,474.107 1045.01,469.533 1047.03,464.959 1049.04,460.385 1051.05,455.813 1053.07,451.244 
  1055.08,446.679 1057.09,442.118 1059.1,437.564 1061.12,433.016 1063.13,428.476 1065.14,423.945 1067.16,419.425 1069.17,414.915 1071.18,410.418 1073.2,405.933 
  1075.21,401.463 1077.22,397.008 1079.24,392.57 1081.25,388.148 1083.26,383.745 1085.27,379.361 1087.29,374.998 1089.3,370.655 1091.31,366.335 1093.33,362.039 
  1095.34,357.766 1097.35,353.519 1099.37,349.298 1101.38,345.104 1103.39,340.938 1105.41,336.801 1107.42,332.694 1109.43,328.618 1111.45,324.574 1113.46,320.563 
  1115.47,316.585 1117.48,312.642 1119.5,308.735 1121.51,304.864 1123.52,301.03 1125.54,297.234 1127.55,293.477 1129.56,289.76 1131.58,286.084 1133.59,282.449 
  1135.6,278.857 1137.62,275.307 1139.63,271.802 1141.64,268.342 1143.65,264.927 1145.67,261.558 1147.68,258.236 1149.69,254.962 1151.71,251.737 1153.72,248.561 
  1155.73,245.435 1157.75,242.36 1159.76,239.336 1161.77,236.364 1163.79,233.445 1165.8,230.579 1167.81,227.767 1169.83,225.01 1171.84,222.308 1173.85,219.663 
  1175.86,217.073 1177.88,214.541 1179.89,212.067 1181.9,209.65 1183.92,207.293 1185.93,204.994 1187.94,202.756 1189.96,200.578 1191.97,198.46 1193.98,196.404 
  1196,194.41 1198.01,192.477 1200.02,190.608 1202.03,188.801 1204.05,187.058 1206.06,185.379 1208.07,183.763 1210.09,182.213 1212.1,180.727 1214.11,179.307 
  1216.13,177.952 1218.14,176.663 1220.15,175.44 1222.17,174.283 1224.18,173.194 1226.19,172.171 1228.21,171.215 1230.22,170.327 1232.23,169.506 1234.24,168.753 
  1236.26,168.068 1238.27,167.451 1240.28,166.902 1242.3,166.421 1244.31,166.009 1246.32,165.666 1248.34,165.391 1250.35,165.185 1252.36,165.047 1254.38,164.978 
  1256.39,164.978 1258.4,165.047 1260.41,165.185 1262.43,165.391 1264.44,165.666 1266.45,166.009 1268.47,166.421 1270.48,166.902 1272.49,167.451 1274.51,168.068 
  1276.52,168.753 1278.53,169.506 1280.55,170.327 1282.56,171.215 1284.57,172.171 1286.59,173.194 1288.6,174.283 1290.61,175.44 1292.62,176.663 1294.64,177.952 
  1296.65,179.307 1298.66,180.727 1300.68,182.213 1302.69,183.763 1304.7,185.379 1306.72,187.058 1308.73,188.801 1310.74,190.608 1312.76,192.477 1314.77,194.41 
  1316.78,196.404 1318.79,198.46 1320.81,200.578 1322.82,202.756 1324.83,204.994 1326.85,207.293 1328.86,209.65 1330.87,212.067 1332.89,214.541 1334.9,217.073 
  1336.91,219.663 1338.93,222.308 1340.94,225.01 1342.95,227.767 1344.97,230.579 1346.98,233.445 1348.99,236.364 1351,239.336 1353.02,242.36 1355.03,245.435 
  1357.04,248.561 1359.06,251.737 1361.07,254.962 1363.08,258.236 1365.1,261.558 1367.11,264.927 1369.12,268.342 1371.14,271.802 1373.15,275.307 1375.16,278.857 
  1377.17,282.449 1379.19,286.084 1381.2,289.76 1383.21,293.477 1385.23,297.234 1387.24,301.03 1389.25,304.864 1391.27,308.735 1393.28,312.642 1395.29,316.585 
  1397.31,320.563 1399.32,324.574 1401.33,328.618 1403.35,332.694 1405.36,336.801 1407.37,340.938 1409.38,345.104 1411.4,349.298 1413.41,353.519 1415.42,357.766 
  1417.44,362.039 1419.45,366.335 1421.46,370.655 1423.48,374.998 1425.49,379.361 1427.5,383.745 1429.52,388.148 1431.53,392.57 1433.54,397.008 1435.55,401.463 
  1437.57,405.933 1439.58,410.418 1441.59,414.915 1443.61,419.425 1445.62,423.945 1447.63,428.476 1449.65,433.016 1451.66,437.564 1453.67,442.118 1455.69,446.679 
  1457.7,451.244 1459.71,455.813 1461.73,460.385 1463.74,464.959 1465.75,469.533 1467.76,474.107 1469.78,478.679 1471.79,483.249 1473.8,487.815 1475.82,492.376 
  1477.83,496.932 1479.84,501.481 1481.86,506.022 1483.87,510.554 1485.88,515.076 1487.9,519.588 1489.91,524.087 1491.92,528.573 1493.93,533.046 1495.95,537.503 
  1497.96,541.944 1499.97,546.368 1501.99,550.773 1504,555.159 1506.01,559.526 1508.03,563.87 1510.04,568.193 1512.05,572.492 1514.07,576.768 1516.08,581.017 
  1518.09,585.241 1520.11,589.438 1522.12,593.606 1524.13,597.745 1526.14,601.854 1528.16,605.932 1530.17,609.978 1532.18,613.991 1534.2,617.971 1536.21,621.915 
  1538.22,625.824 1540.24,629.696 1542.25,633.531 1544.26,637.328 1546.28,641.085 1548.29,644.802 1550.3,648.479 1552.31,652.113 1554.33,655.706 1556.34,659.254 
  1558.35,662.759 1560.37,666.218 1562.38,669.632 1564.39,672.999 1566.41,676.319 1568.42,679.591 1570.43,682.814 1572.45,685.988 1574.46,689.111 1576.47,692.183 
  1578.49,695.204 1580.5,698.173 1582.51,701.089 1584.52,703.951 1586.54,706.76 1588.55,709.513 1590.56,712.211 1592.58,714.853 1594.59,717.439 1596.6,719.968 
  1598.62,722.439 1600.63,724.853 1602.64,727.208 1604.66,729.503 1606.67,731.74 1608.68,733.916 1610.69,736.033 1612.71,738.088 1614.72,740.083 1616.73,742.016 
  1618.75,743.887 1620.76,745.696 1622.77,747.443 1624.79,749.127 1626.8,750.748 1628.81,752.305 1630.83,753.8 1632.84,755.23 1634.85,756.597 1636.87,757.899 
  1638.88,759.138 1640.89,760.312 1642.9,761.422 1644.92,762.467 1646.93,763.447 1648.94,764.363 1650.96,765.215 1652.97,766.001 1654.98,766.723 1657,767.38 
  1659.01,767.973 1661.02,768.502 1663.04,768.966 1665.05,769.366 1667.06,769.701 1669.07,769.973 1671.09,770.182 1673.1,770.326 1675.11,770.408 1677.13,770.427 
  1679.14,770.383 1681.15,770.276 1683.17,770.108 1685.18,769.878 1687.19,769.587 1689.21,769.235 1691.22,768.823 1693.23,768.35 1695.25,767.818 1697.26,767.228 
  1699.27,766.579 1701.28,765.872 1703.3,765.108 1705.31,764.287 1707.32,763.41 1709.34,762.477 1711.35,761.49 1713.36,760.449 1715.38,759.355 1717.39,758.208 
  1719.4,757.009 1721.42,755.76 1723.43,754.46 1725.44,753.111 1727.45,751.713 1729.47,750.268 1731.48,748.777 1733.49,747.239 1735.51,745.657 1737.52,744.031 
  1739.53,742.363 1741.55,740.653 1743.56,738.902 1745.57,737.111 1747.59,735.283 1749.6,733.417 1751.61,731.514 1753.63,729.577 1755.64,727.606 1757.65,725.603 
  1759.66,723.568 1761.68,721.504 1763.69,719.41 1765.7,717.289 1767.72,715.142 1769.73,712.97 1771.74,710.775 1773.76,708.558 1775.77,706.321 1777.78,704.064 
  1779.8,701.79 1781.81,699.499 1783.82,697.194 1785.83,694.876 1787.85,692.546 1789.86,690.206 1791.87,687.858 1793.89,685.503 1795.9,683.142 1797.91,680.778 
  1799.93,678.412 1801.94,676.046 1803.95,673.681 1805.97,671.319 1807.98,668.962 1809.99,666.612 1812.01,664.269 1814.02,661.937 1816.03,659.617 1818.04,657.311 
  1820.06,655.019 1822.07,652.745 1824.08,650.491 1826.1,648.257 1828.11,646.046 1830.12,643.859 1832.14,641.699 1834.15,639.568 1836.16,637.467 1838.18,635.398 
  1840.19,633.363 1842.2,631.365 1844.21,629.404 1846.23,627.484 1848.24,625.605 1850.25,623.77 1852.27,621.981 1854.28,620.24 1856.29,618.548 1858.31,616.909 
  1860.32,615.323 1862.33,613.792 1864.35,612.319 1866.36,610.906 1868.37,609.555 1870.39,608.267 1872.4,607.044 1874.41,605.889 1876.42,604.804 1878.44,603.79 
  1880.45,602.849 1882.46,601.984 1884.48,601.196 1886.49,600.487 1888.5,599.859 1890.52,599.315 1892.53,598.855 1894.54,598.483 1896.56,598.199 1898.57,598.005 
  1900.58,597.904 1902.59,597.898 1904.61,597.988 1906.62,598.175 1908.63,598.463 1910.65,598.852 1912.66,599.344 1914.67,599.941 1916.69,600.646 1918.7,601.458 
  1920.71,602.381 1922.73,603.415 1924.74,604.563 1926.75,605.825 1928.77,607.205 1930.78,608.702 1932.79,610.318 1934.8,612.056 1936.82,613.916 1938.83,615.9 
  1940.84,618.009 1942.86,620.244 1944.87,622.607 1946.88,625.099 1948.9,627.721 1950.91,630.475 1952.92,633.361 1954.94,636.38 1956.95,639.534 1958.96,642.824 
  1960.97,646.249 1962.99,649.812 1965,653.513 1967.01,657.353 1969.03,661.333 1971.04,665.452 1973.05,669.712 1975.07,674.114 1977.08,678.657 1979.09,683.342 
  1981.11,688.17 1983.12,693.14 1985.13,698.253 1987.15,703.509 1989.16,708.909 1991.17,714.451 1993.18,720.136 1995.2,725.963 1997.21,731.933 1999.22,738.046 
  2001.24,744.299 2003.25,750.694 2005.26,757.23 2007.28,763.905 2009.29,770.719 2011.3,777.672 2013.32,784.761 2015.33,791.987 2017.34,799.348 2019.35,806.842 
  2021.37,814.468 2023.38,822.226 2025.39,830.112 2027.41,838.126 2029.42,846.266 2031.43,854.529 2033.45,862.914 2035.46,871.419 2037.47,880.041 2039.49,888.777 
  2041.5,897.626 2043.51,906.584 2045.53,915.65 2047.54,924.819 2049.55,934.088 2051.56,943.456 2053.58,952.918 2055.59,962.47 2057.6,972.11 2059.62,981.832 
  2061.63,991.635 2063.64,1001.51 2065.66,1011.46 2067.67,1021.48 2069.68,1031.55 2071.7,1041.69 2073.71,1051.88 2075.72,1062.11 2077.73,1072.39 2079.75,1082.7 
  2081.76,1093.04 2083.77,1103.41 2085.79,1113.8 2087.8,1124.21 2089.81,1134.62 2091.83,1145.03 2093.84,1155.43 2095.85,1165.82 2097.87,1176.19 2099.88,1186.53 
  2101.89,1196.84 2103.91,1207.1 2105.92,1217.32 2107.93,1227.47 2109.94,1237.56 2111.96,1247.57 2113.97,1257.49 2115.98,1267.32 2118,1277.05 2120.01,1286.67 
  2122.02,1296.16 2124.04,1305.52 2126.05,1314.73 2128.06,1323.8 2130.08,1332.69 2132.09,1341.42 2134.1,1349.95 2136.11,1358.29 2138.13,1366.42 2140.14,1374.32 
  2142.15,1381.99 2144.17,1389.42 2146.18,1396.58 2148.19,1403.47 2150.21,1410.07 2152.22,1416.37 2154.23,1422.36 2156.25,1428.01 2158.26,1433.33 2160.27,1438.28 
  2162.29,1442.86 2164.3,1447.04 2166.31,1450.82 2168.32,1454.18 2170.34,1457.1 2172.35,1459.56 2174.36,1461.55 2176.38,1463.04 2178.39,1464.03 2180.4,1464.49 
  2182.42,1464.4 2184.43,1463.75 2186.44,1462.51 2188.46,1460.66 2190.47,1458.19 2192.48,1455.07 2194.49,1451.29 2196.51,1446.81 2198.52,1441.63 2200.53,1435.71 
  2202.55,1429.04 2204.56,1421.59 2206.57,1413.34 2208.59,1404.26 2210.6,1394.34 2212.61,1383.53 2214.63,1371.83 2216.64,1359.21 2218.65,1345.63 2220.67,1331.07 
  2222.68,1315.51 2224.69,1298.92 2226.7,1281.27 2228.72,1262.53 2230.73,1242.68 2232.74,1221.67 2234.76,1199.5 2236.77,1176.11 2238.78,1151.49 2240.8,1125.6 
  2242.81,1098.41 2244.82,1069.89 2246.84,1040.01 2248.85,1008.72 2250.86,976.006 2252.87,941.824 2254.89,906.141 2256.9,868.921 2258.91,830.129 2260.93,789.727 
  
  "/>
<polygon clip-path="url(#clip8701)" points="
1685.51,451.424 2249.26,451.424 2249.26,209.504 1685.51,209.504 
  " fill="#ffffff" fill-rule="evenodd" fill-opacity="1"/>
<polyline clip-path="url(#clip8701)" style="stroke:#000000; stroke-width:4; stroke-opacity:1; fill:none" points="
  1685.51,451.424 2249.26,451.424 2249.26,209.504 1685.51,209.504 1685.51,451.424 
  "/>
<polyline clip-path="url(#clip8701)" style="stroke:#009af9; stroke-width:4; stroke-opacity:1; fill:none" points="
  1709.51,269.984 1853.51,269.984 
  "/>
<g clip-path="url(#clip8701)">
<text style="fill:#000000; fill-opacity:1; font-family:Arial,Helvetica Neue,Helvetica,sans-serif; font-size:48px; text-anchor:start;" transform="rotate(0, 1877.51, 287.484)" x="1877.51" y="287.484">Runge function</text>
</g>
<circle clip-path="url(#clip8701)" style="fill:#000000; stroke:none; fill-opacity:1" cx="1793.51" cy="330.464" r="25"/>
<circle clip-path="url(#clip8701)" style="fill:#e26f46; stroke:none; fill-opacity:1" cx="1793.51" cy="330.464" r="21"/>
<g clip-path="url(#clip8701)">
<text style="fill:#000000; fill-opacity:1; font-family:Arial,Helvetica Neue,Helvetica,sans-serif; font-size:48px; text-anchor:start;" transform="rotate(0, 1877.51, 347.964)" x="1877.51" y="347.964">Nodes</text>
</g>
<polyline clip-path="url(#clip8701)" style="stroke:#3da44d; stroke-width:4; stroke-opacity:1; fill:none" points="
  1709.51,390.944 1853.51,390.944 
  "/>
<g clip-path="url(#clip8701)">
<text style="fill:#000000; fill-opacity:1; font-family:Arial,Helvetica Neue,Helvetica,sans-serif; font-size:48px; text-anchor:start;" transform="rotate(0, 1877.51, 408.444)" x="1877.51" y="408.444">Intepolation</text>
</g>
</svg>
