<?xml version="1.0" encoding="utf-8"?>
<svg xmlns="http://www.w3.org/2000/svg" xmlns:xlink="http://www.w3.org/1999/xlink" width="600" height="400" viewBox="0 0 2400 1600">
<defs>
  <clipPath id="clip0100">
    <rect x="0" y="0" width="2000" height="2000"/>
  </clipPath>
</defs>
<defs>
  <clipPath id="clip0101">
    <rect x="0" y="0" width="2400" height="1600"/>
  </clipPath>
</defs>
<polygon clip-path="url(#clip0101)" points="
0,1600 2400,1600 2400,0 0,0 
  " fill="#ffffff" fill-rule="evenodd" fill-opacity="1"/>
<defs>
  <clipPath id="clip0102">
    <rect x="480" y="0" width="1681" height="1600"/>
  </clipPath>
</defs>
<polygon clip-path="url(#clip0101)" points="
161.394,1503.47 2321.26,1503.47 2321.26,125.984 161.394,125.984 
  " fill="#ffffff" fill-rule="evenodd" fill-opacity="1"/>
<defs>
  <clipPath id="clip0103">
    <rect x="161" y="125" width="2161" height="1378"/>
  </clipPath>
</defs>
<polyline clip-path="url(#clip0103)" style="stroke:#000000; stroke-width:2; stroke-opacity:0.1; fill:none" points="
  222.522,1503.47 222.522,125.984 
  "/>
<polyline clip-path="url(#clip0103)" style="stroke:#000000; stroke-width:2; stroke-opacity:0.1; fill:none" points="
  731.925,1503.47 731.925,125.984 
  "/>
<polyline clip-path="url(#clip0103)" style="stroke:#000000; stroke-width:2; stroke-opacity:0.1; fill:none" points="
  1241.33,1503.47 1241.33,125.984 
  "/>
<polyline clip-path="url(#clip0103)" style="stroke:#000000; stroke-width:2; stroke-opacity:0.1; fill:none" points="
  1750.73,1503.47 1750.73,125.984 
  "/>
<polyline clip-path="url(#clip0103)" style="stroke:#000000; stroke-width:2; stroke-opacity:0.1; fill:none" points="
  2260.13,1503.47 2260.13,125.984 
  "/>
<polyline clip-path="url(#clip0103)" style="stroke:#000000; stroke-width:2; stroke-opacity:0.1; fill:none" points="
  161.394,1357.14 2321.26,1357.14 
  "/>
<polyline clip-path="url(#clip0103)" style="stroke:#000000; stroke-width:2; stroke-opacity:0.1; fill:none" points="
  161.394,1079.65 2321.26,1079.65 
  "/>
<polyline clip-path="url(#clip0103)" style="stroke:#000000; stroke-width:2; stroke-opacity:0.1; fill:none" points="
  161.394,802.162 2321.26,802.162 
  "/>
<polyline clip-path="url(#clip0103)" style="stroke:#000000; stroke-width:2; stroke-opacity:0.1; fill:none" points="
  161.394,524.671 2321.26,524.671 
  "/>
<polyline clip-path="url(#clip0103)" style="stroke:#000000; stroke-width:2; stroke-opacity:0.1; fill:none" points="
  161.394,247.18 2321.26,247.18 
  "/>
<polyline clip-path="url(#clip0101)" style="stroke:#000000; stroke-width:4; stroke-opacity:1; fill:none" points="
  161.394,1503.47 2321.26,1503.47 
  "/>
<polyline clip-path="url(#clip0101)" style="stroke:#000000; stroke-width:4; stroke-opacity:1; fill:none" points="
  161.394,1503.47 161.394,125.984 
  "/>
<polyline clip-path="url(#clip0101)" style="stroke:#000000; stroke-width:4; stroke-opacity:1; fill:none" points="
  222.522,1503.47 222.522,1482.81 
  "/>
<polyline clip-path="url(#clip0101)" style="stroke:#000000; stroke-width:4; stroke-opacity:1; fill:none" points="
  731.925,1503.47 731.925,1482.81 
  "/>
<polyline clip-path="url(#clip0101)" style="stroke:#000000; stroke-width:4; stroke-opacity:1; fill:none" points="
  1241.33,1503.47 1241.33,1482.81 
  "/>
<polyline clip-path="url(#clip0101)" style="stroke:#000000; stroke-width:4; stroke-opacity:1; fill:none" points="
  1750.73,1503.47 1750.73,1482.81 
  "/>
<polyline clip-path="url(#clip0101)" style="stroke:#000000; stroke-width:4; stroke-opacity:1; fill:none" points="
  2260.13,1503.47 2260.13,1482.81 
  "/>
<polyline clip-path="url(#clip0101)" style="stroke:#000000; stroke-width:4; stroke-opacity:1; fill:none" points="
  161.394,1357.14 193.792,1357.14 
  "/>
<polyline clip-path="url(#clip0101)" style="stroke:#000000; stroke-width:4; stroke-opacity:1; fill:none" points="
  161.394,1079.65 193.792,1079.65 
  "/>
<polyline clip-path="url(#clip0101)" style="stroke:#000000; stroke-width:4; stroke-opacity:1; fill:none" points="
  161.394,802.162 193.792,802.162 
  "/>
<polyline clip-path="url(#clip0101)" style="stroke:#000000; stroke-width:4; stroke-opacity:1; fill:none" points="
  161.394,524.671 193.792,524.671 
  "/>
<polyline clip-path="url(#clip0101)" style="stroke:#000000; stroke-width:4; stroke-opacity:1; fill:none" points="
  161.394,247.18 193.792,247.18 
  "/>
<g clip-path="url(#clip0101)">
<text style="fill:#000000; fill-opacity:1; font-family:Arial,Helvetica Neue,Helvetica,sans-serif; font-size:48px; text-anchor:middle;" transform="rotate(0, 222.522, 1557.47)" x="222.522" y="1557.47">-1.0</text>
</g>
<g clip-path="url(#clip0101)">
<text style="fill:#000000; fill-opacity:1; font-family:Arial,Helvetica Neue,Helvetica,sans-serif; font-size:48px; text-anchor:middle;" transform="rotate(0, 731.925, 1557.47)" x="731.925" y="1557.47">-0.5</text>
</g>
<g clip-path="url(#clip0101)">
<text style="fill:#000000; fill-opacity:1; font-family:Arial,Helvetica Neue,Helvetica,sans-serif; font-size:48px; text-anchor:middle;" transform="rotate(0, 1241.33, 1557.47)" x="1241.33" y="1557.47">0.0</text>
</g>
<g clip-path="url(#clip0101)">
<text style="fill:#000000; fill-opacity:1; font-family:Arial,Helvetica Neue,Helvetica,sans-serif; font-size:48px; text-anchor:middle;" transform="rotate(0, 1750.73, 1557.47)" x="1750.73" y="1557.47">0.5</text>
</g>
<g clip-path="url(#clip0101)">
<text style="fill:#000000; fill-opacity:1; font-family:Arial,Helvetica Neue,Helvetica,sans-serif; font-size:48px; text-anchor:middle;" transform="rotate(0, 2260.13, 1557.47)" x="2260.13" y="1557.47">1.0</text>
</g>
<g clip-path="url(#clip0101)">
<text style="fill:#000000; fill-opacity:1; font-family:Arial,Helvetica Neue,Helvetica,sans-serif; font-size:48px; text-anchor:end;" transform="rotate(0, 137.394, 1374.64)" x="137.394" y="1374.64">0.0</text>
</g>
<g clip-path="url(#clip0101)">
<text style="fill:#000000; fill-opacity:1; font-family:Arial,Helvetica Neue,Helvetica,sans-serif; font-size:48px; text-anchor:end;" transform="rotate(0, 137.394, 1097.15)" x="137.394" y="1097.15">0.5</text>
</g>
<g clip-path="url(#clip0101)">
<text style="fill:#000000; fill-opacity:1; font-family:Arial,Helvetica Neue,Helvetica,sans-serif; font-size:48px; text-anchor:end;" transform="rotate(0, 137.394, 819.662)" x="137.394" y="819.662">1.0</text>
</g>
<g clip-path="url(#clip0101)">
<text style="fill:#000000; fill-opacity:1; font-family:Arial,Helvetica Neue,Helvetica,sans-serif; font-size:48px; text-anchor:end;" transform="rotate(0, 137.394, 542.171)" x="137.394" y="542.171">1.5</text>
</g>
<g clip-path="url(#clip0101)">
<text style="fill:#000000; fill-opacity:1; font-family:Arial,Helvetica Neue,Helvetica,sans-serif; font-size:48px; text-anchor:end;" transform="rotate(0, 137.394, 264.68)" x="137.394" y="264.68">2.0</text>
</g>
<g clip-path="url(#clip0101)">
<text style="fill:#000000; fill-opacity:1; font-family:Arial,Helvetica Neue,Helvetica,sans-serif; font-size:84px; text-anchor:middle;" transform="rotate(0, 1241.33, 73.2)" x="1241.33" y="73.2">Runge&apos;s phenomenon (Nodes = 16)</text>
</g>
<polyline clip-path="url(#clip0103)" style="stroke:#009af9; stroke-width:4; stroke-opacity:1; fill:none" points="
  222.522,1335.8 224.562,1335.72 226.602,1335.63 228.641,1335.55 230.681,1335.47 232.721,1335.38 234.76,1335.3 236.8,1335.21 238.84,1335.13 240.879,1335.04 
  242.919,1334.95 244.958,1334.87 246.998,1334.78 249.038,1334.69 251.077,1334.6 253.117,1334.51 255.157,1334.42 257.196,1334.33 259.236,1334.24 261.276,1334.15 
  263.315,1334.06 265.355,1333.96 267.395,1333.87 269.434,1333.78 271.474,1333.68 273.514,1333.59 275.553,1333.49 277.593,1333.4 279.632,1333.3 281.672,1333.2 
  283.712,1333.11 285.751,1333.01 287.791,1332.91 289.831,1332.81 291.87,1332.71 293.91,1332.61 295.95,1332.51 297.989,1332.41 300.029,1332.3 302.069,1332.2 
  304.108,1332.1 306.148,1331.99 308.188,1331.89 310.227,1331.78 312.267,1331.67 314.307,1331.57 316.346,1331.46 318.386,1331.35 320.425,1331.24 322.465,1331.13 
  324.505,1331.02 326.544,1330.91 328.584,1330.8 330.624,1330.69 332.663,1330.57 334.703,1330.46 336.743,1330.35 338.782,1330.23 340.822,1330.11 342.862,1330 
  344.901,1329.88 346.941,1329.76 348.981,1329.64 351.02,1329.52 353.06,1329.4 355.099,1329.28 357.139,1329.16 359.179,1329.03 361.218,1328.91 363.258,1328.79 
  365.298,1328.66 367.337,1328.53 369.377,1328.41 371.417,1328.28 373.456,1328.15 375.496,1328.02 377.536,1327.89 379.575,1327.76 381.615,1327.63 383.655,1327.49 
  385.694,1327.36 387.734,1327.23 389.774,1327.09 391.813,1326.95 393.853,1326.82 395.892,1326.68 397.932,1326.54 399.972,1326.4 402.011,1326.26 404.051,1326.11 
  406.091,1325.97 408.13,1325.83 410.17,1325.68 412.21,1325.54 414.249,1325.39 416.289,1325.24 418.329,1325.09 420.368,1324.94 422.408,1324.79 424.448,1324.64 
  426.487,1324.48 428.527,1324.33 430.567,1324.17 432.606,1324.02 434.646,1323.86 436.685,1323.7 438.725,1323.54 440.765,1323.38 442.804,1323.22 444.844,1323.05 
  446.884,1322.89 448.923,1322.72 450.963,1322.56 453.003,1322.39 455.042,1322.22 457.082,1322.05 459.122,1321.88 461.161,1321.71 463.201,1321.53 465.241,1321.36 
  467.28,1321.18 469.32,1321 471.359,1320.82 473.399,1320.64 475.439,1320.46 477.478,1320.28 479.518,1320.09 481.558,1319.91 483.597,1319.72 485.637,1319.53 
  487.677,1319.34 489.716,1319.15 491.756,1318.96 493.796,1318.76 495.835,1318.57 497.875,1318.37 499.915,1318.17 501.954,1317.97 503.994,1317.77 506.034,1317.57 
  508.073,1317.36 510.113,1317.15 512.152,1316.95 514.192,1316.74 516.232,1316.53 518.271,1316.31 520.311,1316.1 522.351,1315.88 524.39,1315.67 526.43,1315.45 
  528.47,1315.23 530.509,1315 532.549,1314.78 534.589,1314.55 536.628,1314.33 538.668,1314.1 540.708,1313.86 542.747,1313.63 544.787,1313.4 546.826,1313.16 
  548.866,1312.92 550.906,1312.68 552.945,1312.44 554.985,1312.19 557.025,1311.95 559.064,1311.7 561.104,1311.45 563.144,1311.19 565.183,1310.94 567.223,1310.68 
  569.263,1310.42 571.302,1310.16 573.342,1309.9 575.382,1309.64 577.421,1309.37 579.461,1309.1 581.501,1308.83 583.54,1308.55 585.58,1308.28 587.619,1308 
  589.659,1307.72 591.699,1307.44 593.738,1307.15 595.778,1306.86 597.818,1306.57 599.857,1306.28 601.897,1305.98 603.937,1305.69 605.976,1305.39 608.016,1305.08 
  610.056,1304.78 612.095,1304.47 614.135,1304.16 616.175,1303.85 618.214,1303.53 620.254,1303.21 622.294,1302.89 624.333,1302.57 626.373,1302.24 628.412,1301.91 
  630.452,1301.58 632.492,1301.24 634.531,1300.91 636.571,1300.57 638.611,1300.22 640.65,1299.87 642.69,1299.52 644.73,1299.17 646.769,1298.81 648.809,1298.45 
  650.849,1298.09 652.888,1297.72 654.928,1297.35 656.968,1296.98 659.007,1296.61 661.047,1296.23 663.086,1295.84 665.126,1295.46 667.166,1295.07 669.205,1294.67 
  671.245,1294.28 673.285,1293.88 675.324,1293.47 677.364,1293.06 679.404,1292.65 681.443,1292.24 683.483,1291.82 685.523,1291.39 687.562,1290.97 689.602,1290.53 
  691.642,1290.1 693.681,1289.66 695.721,1289.22 697.761,1288.77 699.8,1288.32 701.84,1287.86 703.879,1287.4 705.919,1286.93 707.959,1286.46 709.998,1285.99 
  712.038,1285.51 714.078,1285.03 716.117,1284.54 718.157,1284.05 720.197,1283.55 722.236,1283.05 724.276,1282.54 726.316,1282.03 728.355,1281.51 730.395,1280.99 
  732.435,1280.46 734.474,1279.93 736.514,1279.39 738.553,1278.85 740.593,1278.3 742.633,1277.75 744.672,1277.19 746.712,1276.62 748.752,1276.05 750.791,1275.48 
  752.831,1274.9 754.871,1274.31 756.91,1273.71 758.95,1273.11 760.99,1272.51 763.029,1271.89 765.069,1271.28 767.109,1270.65 769.148,1270.02 771.188,1269.38 
  773.228,1268.74 775.267,1268.09 777.307,1267.43 779.346,1266.76 781.386,1266.09 783.426,1265.41 785.465,1264.73 787.505,1264.04 789.545,1263.34 791.584,1262.63 
  793.624,1261.91 795.664,1261.19 797.703,1260.46 799.743,1259.72 801.783,1258.98 803.822,1258.22 805.862,1257.46 807.902,1256.69 809.941,1255.91 811.981,1255.12 
  814.02,1254.33 816.06,1253.52 818.1,1252.71 820.139,1251.89 822.179,1251.06 824.219,1250.22 826.258,1249.37 828.298,1248.51 830.338,1247.65 832.377,1246.77 
  834.417,1245.88 836.457,1244.98 838.496,1244.08 840.536,1243.16 842.576,1242.23 844.615,1241.3 846.655,1240.35 848.695,1239.39 850.734,1238.42 852.774,1237.44 
  854.813,1236.45 856.853,1235.45 858.893,1234.43 860.932,1233.41 862.972,1232.37 865.012,1231.32 867.051,1230.26 869.091,1229.19 871.131,1228.1 873.17,1227.01 
  875.21,1225.9 877.25,1224.77 879.289,1223.64 881.329,1222.49 883.369,1221.33 885.408,1220.15 887.448,1218.96 889.488,1217.76 891.527,1216.54 893.567,1215.31 
  895.606,1214.06 897.646,1212.8 899.686,1211.53 901.725,1210.24 903.765,1208.93 905.805,1207.61 907.844,1206.28 909.884,1204.92 911.924,1203.56 913.963,1202.17 
  916.003,1200.77 918.043,1199.36 920.082,1197.92 922.122,1196.47 924.162,1195.01 926.201,1193.52 928.241,1192.02 930.28,1190.5 932.32,1188.96 934.36,1187.4 
  936.399,1185.83 938.439,1184.23 940.479,1182.62 942.518,1180.99 944.558,1179.34 946.598,1177.67 948.637,1175.98 950.677,1174.27 952.717,1172.53 954.756,1170.78 
  956.796,1169.01 958.836,1167.22 960.875,1165.4 962.915,1163.57 964.955,1161.71 966.994,1159.83 969.034,1157.93 971.073,1156 973.113,1154.05 975.153,1152.08 
  977.192,1150.09 979.232,1148.08 981.272,1146.04 983.311,1143.97 985.351,1141.88 987.391,1139.77 989.43,1137.63 991.47,1135.47 993.51,1133.29 995.549,1131.08 
  997.589,1128.84 999.629,1126.58 1001.67,1124.29 1003.71,1121.98 1005.75,1119.64 1007.79,1117.27 1009.83,1114.88 1011.87,1112.46 1013.91,1110.02 1015.95,1107.54 
  1017.99,1105.04 1020.03,1102.52 1022.06,1099.96 1024.1,1097.38 1026.14,1094.77 1028.18,1092.14 1030.22,1089.47 1032.26,1086.78 1034.3,1084.06 1036.34,1081.32 
  1038.38,1078.54 1040.42,1075.74 1042.46,1072.91 1044.5,1070.05 1046.54,1067.16 1048.58,1064.25 1050.62,1061.31 1052.66,1058.34 1054.7,1055.34 1056.74,1052.32 
  1058.78,1049.27 1060.82,1046.19 1062.86,1043.09 1064.9,1039.96 1066.94,1036.81 1068.98,1033.63 1071.02,1030.42 1073.06,1027.19 1075.1,1023.93 1077.14,1020.65 
  1079.17,1017.35 1081.21,1014.02 1083.25,1010.68 1085.29,1007.31 1087.33,1003.92 1089.37,1000.5 1091.41,997.072 1093.45,993.622 1095.49,990.153 1097.53,986.668 
  1099.57,983.166 1101.61,979.648 1103.65,976.116 1105.69,972.571 1107.73,969.014 1109.77,965.445 1111.81,961.867 1113.85,958.281 1115.89,954.687 1117.93,951.087 
  1119.97,947.483 1122.01,943.876 1124.05,940.268 1126.09,936.66 1128.13,933.054 1130.17,929.452 1132.21,925.855 1134.25,922.266 1136.29,918.686 1138.32,915.116 
  1140.36,911.56 1142.4,908.019 1144.44,904.496 1146.48,900.992 1148.52,897.509 1150.56,894.05 1152.6,890.618 1154.64,887.214 1156.68,883.84 1158.72,880.501 
  1160.76,877.196 1162.8,873.93 1164.84,870.705 1166.88,867.523 1168.92,864.387 1170.96,861.299 1173,858.262 1175.04,855.278 1177.08,852.351 1179.12,849.482 
  1181.16,846.675 1183.2,843.932 1185.24,841.255 1187.28,838.647 1189.32,836.11 1191.36,833.648 1193.4,831.262 1195.43,828.955 1197.47,826.73 1199.51,824.588 
  1201.55,822.532 1203.59,820.564 1205.63,818.686 1207.67,816.9 1209.71,815.208 1211.75,813.613 1213.79,812.115 1215.83,810.717 1217.87,809.42 1219.91,808.226 
  1221.95,807.136 1223.99,806.151 1226.03,805.273 1228.07,804.502 1230.11,803.839 1232.15,803.286 1234.19,802.843 1236.23,802.51 1238.27,802.287 1240.31,802.176 
  1242.35,802.176 1244.39,802.287 1246.43,802.51 1248.47,802.843 1250.51,803.286 1252.55,803.839 1254.58,804.502 1256.62,805.273 1258.66,806.151 1260.7,807.136 
  1262.74,808.226 1264.78,809.42 1266.82,810.717 1268.86,812.115 1270.9,813.613 1272.94,815.208 1274.98,816.9 1277.02,818.686 1279.06,820.564 1281.1,822.532 
  1283.14,824.588 1285.18,826.73 1287.22,828.955 1289.26,831.262 1291.3,833.648 1293.34,836.11 1295.38,838.647 1297.42,841.255 1299.46,843.932 1301.5,846.675 
  1303.54,849.482 1305.58,852.351 1307.62,855.278 1309.66,858.262 1311.69,861.299 1313.73,864.387 1315.77,867.523 1317.81,870.705 1319.85,873.93 1321.89,877.196 
  1323.93,880.501 1325.97,883.84 1328.01,887.214 1330.05,890.618 1332.09,894.05 1334.13,897.509 1336.17,900.992 1338.21,904.496 1340.25,908.019 1342.29,911.56 
  1344.33,915.116 1346.37,918.686 1348.41,922.266 1350.45,925.855 1352.49,929.452 1354.53,933.054 1356.57,936.66 1358.61,940.268 1360.65,943.876 1362.69,947.483 
  1364.73,951.087 1366.77,954.687 1368.8,958.281 1370.84,961.867 1372.88,965.445 1374.92,969.014 1376.96,972.571 1379,976.116 1381.04,979.648 1383.08,983.166 
  1385.12,986.668 1387.16,990.153 1389.2,993.622 1391.24,997.072 1393.28,1000.5 1395.32,1003.92 1397.36,1007.31 1399.4,1010.68 1401.44,1014.02 1403.48,1017.35 
  1405.52,1020.65 1407.56,1023.93 1409.6,1027.19 1411.64,1030.42 1413.68,1033.63 1415.72,1036.81 1417.76,1039.96 1419.8,1043.09 1421.84,1046.19 1423.88,1049.27 
  1425.92,1052.32 1427.95,1055.34 1429.99,1058.34 1432.03,1061.31 1434.07,1064.25 1436.11,1067.16 1438.15,1070.05 1440.19,1072.91 1442.23,1075.74 1444.27,1078.54 
  1446.31,1081.32 1448.35,1084.06 1450.39,1086.78 1452.43,1089.47 1454.47,1092.14 1456.51,1094.77 1458.55,1097.38 1460.59,1099.96 1462.63,1102.52 1464.67,1105.04 
  1466.71,1107.54 1468.75,1110.02 1470.79,1112.46 1472.83,1114.88 1474.87,1117.27 1476.91,1119.64 1478.95,1121.98 1480.99,1124.29 1483.03,1126.58 1485.06,1128.84 
  1487.1,1131.08 1489.14,1133.29 1491.18,1135.47 1493.22,1137.63 1495.26,1139.77 1497.3,1141.88 1499.34,1143.97 1501.38,1146.04 1503.42,1148.08 1505.46,1150.09 
  1507.5,1152.08 1509.54,1154.05 1511.58,1156 1513.62,1157.93 1515.66,1159.83 1517.7,1161.71 1519.74,1163.57 1521.78,1165.4 1523.82,1167.22 1525.86,1169.01 
  1527.9,1170.78 1529.94,1172.53 1531.98,1174.27 1534.02,1175.98 1536.06,1177.67 1538.1,1179.34 1540.14,1180.99 1542.18,1182.62 1544.21,1184.23 1546.25,1185.83 
  1548.29,1187.4 1550.33,1188.96 1552.37,1190.5 1554.41,1192.02 1556.45,1193.52 1558.49,1195.01 1560.53,1196.47 1562.57,1197.92 1564.61,1199.36 1566.65,1200.77 
  1568.69,1202.17 1570.73,1203.56 1572.77,1204.92 1574.81,1206.28 1576.85,1207.61 1578.89,1208.93 1580.93,1210.24 1582.97,1211.53 1585.01,1212.8 1587.05,1214.06 
  1589.09,1215.31 1591.13,1216.54 1593.17,1217.76 1595.21,1218.96 1597.25,1220.15 1599.29,1221.33 1601.32,1222.49 1603.36,1223.64 1605.4,1224.77 1607.44,1225.9 
  1609.48,1227.01 1611.52,1228.1 1613.56,1229.19 1615.6,1230.26 1617.64,1231.32 1619.68,1232.37 1621.72,1233.41 1623.76,1234.43 1625.8,1235.45 1627.84,1236.45 
  1629.88,1237.44 1631.92,1238.42 1633.96,1239.39 1636,1240.35 1638.04,1241.3 1640.08,1242.23 1642.12,1243.16 1644.16,1244.08 1646.2,1244.98 1648.24,1245.88 
  1650.28,1246.77 1652.32,1247.65 1654.36,1248.51 1656.4,1249.37 1658.44,1250.22 1660.47,1251.06 1662.51,1251.89 1664.55,1252.71 1666.59,1253.52 1668.63,1254.33 
  1670.67,1255.12 1672.71,1255.91 1674.75,1256.69 1676.79,1257.46 1678.83,1258.22 1680.87,1258.98 1682.91,1259.72 1684.95,1260.46 1686.99,1261.19 1689.03,1261.91 
  1691.07,1262.63 1693.11,1263.34 1695.15,1264.04 1697.19,1264.73 1699.23,1265.41 1701.27,1266.09 1703.31,1266.76 1705.35,1267.43 1707.39,1268.09 1709.43,1268.74 
  1711.47,1269.38 1713.51,1270.02 1715.55,1270.65 1717.58,1271.28 1719.62,1271.89 1721.66,1272.51 1723.7,1273.11 1725.74,1273.71 1727.78,1274.31 1729.82,1274.9 
  1731.86,1275.48 1733.9,1276.05 1735.94,1276.62 1737.98,1277.19 1740.02,1277.75 1742.06,1278.3 1744.1,1278.85 1746.14,1279.39 1748.18,1279.93 1750.22,1280.46 
  1752.26,1280.99 1754.3,1281.51 1756.34,1282.03 1758.38,1282.54 1760.42,1283.05 1762.46,1283.55 1764.5,1284.05 1766.54,1284.54 1768.58,1285.03 1770.62,1285.51 
  1772.66,1285.99 1774.7,1286.46 1776.73,1286.93 1778.77,1287.4 1780.81,1287.86 1782.85,1288.32 1784.89,1288.77 1786.93,1289.22 1788.97,1289.66 1791.01,1290.1 
  1793.05,1290.53 1795.09,1290.97 1797.13,1291.39 1799.17,1291.82 1801.21,1292.24 1803.25,1292.65 1805.29,1293.06 1807.33,1293.47 1809.37,1293.88 1811.41,1294.28 
  1813.45,1294.67 1815.49,1295.07 1817.53,1295.46 1819.57,1295.84 1821.61,1296.23 1823.65,1296.61 1825.69,1296.98 1827.73,1297.35 1829.77,1297.72 1831.81,1298.09 
  1833.84,1298.45 1835.88,1298.81 1837.92,1299.17 1839.96,1299.52 1842,1299.87 1844.04,1300.22 1846.08,1300.57 1848.12,1300.91 1850.16,1301.24 1852.2,1301.58 
  1854.24,1301.91 1856.28,1302.24 1858.32,1302.57 1860.36,1302.89 1862.4,1303.21 1864.44,1303.53 1866.48,1303.85 1868.52,1304.16 1870.56,1304.47 1872.6,1304.78 
  1874.64,1305.08 1876.68,1305.39 1878.72,1305.69 1880.76,1305.98 1882.8,1306.28 1884.84,1306.57 1886.88,1306.86 1888.92,1307.15 1890.96,1307.44 1892.99,1307.72 
  1895.03,1308 1897.07,1308.28 1899.11,1308.55 1901.15,1308.83 1903.19,1309.1 1905.23,1309.37 1907.27,1309.64 1909.31,1309.9 1911.35,1310.16 1913.39,1310.42 
  1915.43,1310.68 1917.47,1310.94 1919.51,1311.19 1921.55,1311.45 1923.59,1311.7 1925.63,1311.95 1927.67,1312.19 1929.71,1312.44 1931.75,1312.68 1933.79,1312.92 
  1935.83,1313.16 1937.87,1313.4 1939.91,1313.63 1941.95,1313.86 1943.99,1314.1 1946.03,1314.33 1948.07,1314.55 1950.1,1314.78 1952.14,1315 1954.18,1315.23 
  1956.22,1315.45 1958.26,1315.67 1960.3,1315.88 1962.34,1316.1 1964.38,1316.31 1966.42,1316.53 1968.46,1316.74 1970.5,1316.95 1972.54,1317.15 1974.58,1317.36 
  1976.62,1317.57 1978.66,1317.77 1980.7,1317.97 1982.74,1318.17 1984.78,1318.37 1986.82,1318.57 1988.86,1318.76 1990.9,1318.96 1992.94,1319.15 1994.98,1319.34 
  1997.02,1319.53 1999.06,1319.72 2001.1,1319.91 2003.14,1320.09 2005.18,1320.28 2007.22,1320.46 2009.25,1320.64 2011.29,1320.82 2013.33,1321 2015.37,1321.18 
  2017.41,1321.36 2019.45,1321.53 2021.49,1321.71 2023.53,1321.88 2025.57,1322.05 2027.61,1322.22 2029.65,1322.39 2031.69,1322.56 2033.73,1322.72 2035.77,1322.89 
  2037.81,1323.05 2039.85,1323.22 2041.89,1323.38 2043.93,1323.54 2045.97,1323.7 2048.01,1323.86 2050.05,1324.02 2052.09,1324.17 2054.13,1324.33 2056.17,1324.48 
  2058.21,1324.64 2060.25,1324.79 2062.29,1324.94 2064.33,1325.09 2066.36,1325.24 2068.4,1325.39 2070.44,1325.54 2072.48,1325.68 2074.52,1325.83 2076.56,1325.97 
  2078.6,1326.11 2080.64,1326.26 2082.68,1326.4 2084.72,1326.54 2086.76,1326.68 2088.8,1326.82 2090.84,1326.95 2092.88,1327.09 2094.92,1327.23 2096.96,1327.36 
  2099,1327.49 2101.04,1327.63 2103.08,1327.76 2105.12,1327.89 2107.16,1328.02 2109.2,1328.15 2111.24,1328.28 2113.28,1328.41 2115.32,1328.53 2117.36,1328.66 
  2119.4,1328.79 2121.44,1328.91 2123.48,1329.03 2125.51,1329.16 2127.55,1329.28 2129.59,1329.4 2131.63,1329.52 2133.67,1329.64 2135.71,1329.76 2137.75,1329.88 
  2139.79,1330 2141.83,1330.11 2143.87,1330.23 2145.91,1330.35 2147.95,1330.46 2149.99,1330.57 2152.03,1330.69 2154.07,1330.8 2156.11,1330.91 2158.15,1331.02 
  2160.19,1331.13 2162.23,1331.24 2164.27,1331.35 2166.31,1331.46 2168.35,1331.57 2170.39,1331.67 2172.43,1331.78 2174.47,1331.89 2176.51,1331.99 2178.55,1332.1 
  2180.59,1332.2 2182.62,1332.3 2184.66,1332.41 2186.7,1332.51 2188.74,1332.61 2190.78,1332.71 2192.82,1332.81 2194.86,1332.91 2196.9,1333.01 2198.94,1333.11 
  2200.98,1333.2 2203.02,1333.3 2205.06,1333.4 2207.1,1333.49 2209.14,1333.59 2211.18,1333.68 2213.22,1333.78 2215.26,1333.87 2217.3,1333.96 2219.34,1334.06 
  2221.38,1334.15 2223.42,1334.24 2225.46,1334.33 2227.5,1334.42 2229.54,1334.51 2231.58,1334.6 2233.62,1334.69 2235.66,1334.78 2237.7,1334.87 2239.74,1334.95 
  2241.77,1335.04 2243.81,1335.13 2245.85,1335.21 2247.89,1335.3 2249.93,1335.38 2251.97,1335.47 2254.01,1335.55 2256.05,1335.63 2258.09,1335.72 2260.13,1335.8 
  
  "/>
<circle clip-path="url(#clip0103)" style="fill:#000000; stroke:none; fill-opacity:1" cx="222.522" cy="1335.8" r="18"/>
<circle clip-path="url(#clip0103)" style="fill:#e26f46; stroke:none; fill-opacity:1" cx="222.522" cy="1335.8" r="14"/>
<circle clip-path="url(#clip0103)" style="fill:#000000; stroke:none; fill-opacity:1" cx="358.363" cy="1329.08" r="18"/>
<circle clip-path="url(#clip0103)" style="fill:#e26f46; stroke:none; fill-opacity:1" cx="358.363" cy="1329.08" r="14"/>
<circle clip-path="url(#clip0103)" style="fill:#000000; stroke:none; fill-opacity:1" cx="494.204" cy="1318.72" r="18"/>
<circle clip-path="url(#clip0103)" style="fill:#e26f46; stroke:none; fill-opacity:1" cx="494.204" cy="1318.72" r="14"/>
<circle clip-path="url(#clip0103)" style="fill:#000000; stroke:none; fill-opacity:1" cx="630.044" cy="1301.65" r="18"/>
<circle clip-path="url(#clip0103)" style="fill:#e26f46; stroke:none; fill-opacity:1" cx="630.044" cy="1301.65" r="14"/>
<circle clip-path="url(#clip0103)" style="fill:#000000; stroke:none; fill-opacity:1" cx="765.885" cy="1271.03" r="18"/>
<circle clip-path="url(#clip0103)" style="fill:#e26f46; stroke:none; fill-opacity:1" cx="765.885" cy="1271.03" r="14"/>
<circle clip-path="url(#clip0103)" style="fill:#000000; stroke:none; fill-opacity:1" cx="901.725" cy="1210.24" r="18"/>
<circle clip-path="url(#clip0103)" style="fill:#e26f46; stroke:none; fill-opacity:1" cx="901.725" cy="1210.24" r="14"/>
<circle clip-path="url(#clip0103)" style="fill:#000000; stroke:none; fill-opacity:1" cx="1037.57" cy="1079.65" r="18"/>
<circle clip-path="url(#clip0103)" style="fill:#e26f46; stroke:none; fill-opacity:1" cx="1037.57" cy="1079.65" r="14"/>
<circle clip-path="url(#clip0103)" style="fill:#000000; stroke:none; fill-opacity:1" cx="1173.41" cy="857.661" r="18"/>
<circle clip-path="url(#clip0103)" style="fill:#e26f46; stroke:none; fill-opacity:1" cx="1173.41" cy="857.661" r="14"/>
<circle clip-path="url(#clip0103)" style="fill:#000000; stroke:none; fill-opacity:1" cx="1309.25" cy="857.661" r="18"/>
<circle clip-path="url(#clip0103)" style="fill:#e26f46; stroke:none; fill-opacity:1" cx="1309.25" cy="857.661" r="14"/>
<circle clip-path="url(#clip0103)" style="fill:#000000; stroke:none; fill-opacity:1" cx="1445.09" cy="1079.65" r="18"/>
<circle clip-path="url(#clip0103)" style="fill:#e26f46; stroke:none; fill-opacity:1" cx="1445.09" cy="1079.65" r="14"/>
<circle clip-path="url(#clip0103)" style="fill:#000000; stroke:none; fill-opacity:1" cx="1580.93" cy="1210.24" r="18"/>
<circle clip-path="url(#clip0103)" style="fill:#e26f46; stroke:none; fill-opacity:1" cx="1580.93" cy="1210.24" r="14"/>
<circle clip-path="url(#clip0103)" style="fill:#000000; stroke:none; fill-opacity:1" cx="1716.77" cy="1271.03" r="18"/>
<circle clip-path="url(#clip0103)" style="fill:#e26f46; stroke:none; fill-opacity:1" cx="1716.77" cy="1271.03" r="14"/>
<circle clip-path="url(#clip0103)" style="fill:#000000; stroke:none; fill-opacity:1" cx="1852.61" cy="1301.65" r="18"/>
<circle clip-path="url(#clip0103)" style="fill:#e26f46; stroke:none; fill-opacity:1" cx="1852.61" cy="1301.65" r="14"/>
<circle clip-path="url(#clip0103)" style="fill:#000000; stroke:none; fill-opacity:1" cx="1988.45" cy="1318.72" r="18"/>
<circle clip-path="url(#clip0103)" style="fill:#e26f46; stroke:none; fill-opacity:1" cx="1988.45" cy="1318.72" r="14"/>
<circle clip-path="url(#clip0103)" style="fill:#000000; stroke:none; fill-opacity:1" cx="2124.29" cy="1329.08" r="18"/>
<circle clip-path="url(#clip0103)" style="fill:#e26f46; stroke:none; fill-opacity:1" cx="2124.29" cy="1329.08" r="14"/>
<circle clip-path="url(#clip0103)" style="fill:#000000; stroke:none; fill-opacity:1" cx="2260.13" cy="1335.8" r="18"/>
<circle clip-path="url(#clip0103)" style="fill:#e26f46; stroke:none; fill-opacity:1" cx="2260.13" cy="1335.8" r="14"/>
<polyline clip-path="url(#clip0103)" style="stroke:#3da44d; stroke-width:4; stroke-opacity:1; fill:none" points="
  222.522,1335.8 224.562,1184.09 226.602,1046.17 228.641,921.232 230.681,808.535 232.721,707.357 234.76,617.006 236.8,536.824 238.84,466.181 240.879,404.476 
  242.919,351.136 244.958,305.613 246.998,267.386 249.038,235.956 251.077,210.849 253.117,191.616 255.157,177.827 257.196,169.074 259.236,164.97 261.276,165.146 
  263.315,169.253 265.355,176.96 267.395,187.953 269.434,201.936 271.474,218.627 273.514,237.76 275.553,259.085 277.593,282.365 279.632,307.377 281.672,333.911 
  283.712,361.77 285.751,390.768 287.791,420.731 289.831,451.496 291.87,482.91 293.91,514.831 295.95,547.125 297.989,579.67 300.029,612.35 302.069,645.058 
  304.108,677.696 306.148,710.172 308.188,742.402 310.227,774.31 312.267,805.825 314.307,836.881 316.346,867.422 318.386,897.394 320.425,926.75 322.465,955.446 
  324.505,983.446 326.544,1010.72 328.584,1037.23 330.624,1062.95 332.663,1087.88 334.703,1111.97 336.743,1135.24 338.782,1157.65 340.822,1179.21 342.862,1199.9 
  344.901,1219.73 346.941,1238.69 348.981,1256.79 351.02,1274.03 353.06,1290.42 355.099,1305.96 357.139,1320.66 359.179,1334.54 361.218,1347.6 363.258,1359.86 
  365.298,1371.33 367.337,1382.03 369.377,1391.98 371.417,1401.19 373.456,1409.68 375.496,1417.47 377.536,1424.58 379.575,1431.03 381.615,1436.84 383.655,1442.03 
  385.694,1446.62 387.734,1450.64 389.774,1454.09 391.813,1457.01 393.853,1459.42 395.892,1461.33 397.932,1462.77 399.972,1463.77 402.011,1464.33 404.051,1464.49 
  406.091,1464.26 408.13,1463.66 410.17,1462.72 412.21,1461.45 414.249,1459.88 416.289,1458.02 418.329,1455.88 420.368,1453.5 422.408,1450.89 424.448,1448.07 
  426.487,1445.04 428.527,1441.84 430.567,1438.47 432.606,1434.96 434.646,1431.31 436.685,1427.55 438.725,1423.68 440.765,1419.72 442.804,1415.69 444.844,1411.59 
  446.884,1407.44 448.923,1403.25 450.963,1399.04 453.003,1394.81 455.042,1390.57 457.082,1386.34 459.122,1382.12 461.161,1377.92 463.201,1373.76 465.241,1369.63 
  467.28,1365.55 469.32,1361.52 471.359,1357.55 473.399,1353.64 475.439,1349.81 477.478,1346.06 479.518,1342.39 481.558,1338.8 483.597,1335.3 485.637,1331.9 
  487.677,1328.6 489.716,1325.4 491.756,1322.3 493.796,1319.31 495.835,1316.42 497.875,1313.65 499.915,1310.98 501.954,1308.43 503.994,1305.99 506.034,1303.67 
  508.073,1301.45 510.113,1299.35 512.152,1297.37 514.192,1295.49 516.232,1293.73 518.271,1292.08 520.311,1290.54 522.351,1289.11 524.39,1287.79 526.43,1286.57 
  528.47,1285.45 530.509,1284.44 532.549,1283.53 534.589,1282.71 536.628,1281.99 538.668,1281.36 540.708,1280.82 542.747,1280.37 544.787,1280.01 546.826,1279.72 
  548.866,1279.52 550.906,1279.39 552.945,1279.33 554.985,1279.35 557.025,1279.43 559.064,1279.57 561.104,1279.78 563.144,1280.04 565.183,1280.36 567.223,1280.73 
  569.263,1281.15 571.302,1281.61 573.342,1282.12 575.382,1282.66 577.421,1283.24 579.461,1283.85 581.501,1284.49 583.54,1285.16 585.58,1285.85 587.619,1286.57 
  589.659,1287.3 591.699,1288.04 593.738,1288.8 595.778,1289.56 597.818,1290.34 599.857,1291.12 601.897,1291.89 603.937,1292.67 605.976,1293.45 608.016,1294.22 
  610.056,1294.98 612.095,1295.74 614.135,1296.48 616.175,1297.2 618.214,1297.92 620.254,1298.61 622.294,1299.29 624.333,1299.94 626.373,1300.57 628.412,1301.18 
  630.452,1301.76 632.492,1302.32 634.531,1302.84 636.571,1303.34 638.611,1303.81 640.65,1304.24 642.69,1304.65 644.73,1305.02 646.769,1305.35 648.809,1305.66 
  650.849,1305.92 652.888,1306.15 654.928,1306.35 656.968,1306.5 659.007,1306.62 661.047,1306.71 663.086,1306.75 665.126,1306.76 667.166,1306.73 669.205,1306.66 
  671.245,1306.56 673.285,1306.42 675.324,1306.24 677.364,1306.02 679.404,1305.77 681.443,1305.48 683.483,1305.15 685.523,1304.79 687.562,1304.4 689.602,1303.97 
  691.642,1303.5 693.681,1303.01 695.721,1302.48 697.761,1301.91 699.8,1301.32 701.84,1300.7 703.879,1300.05 705.919,1299.37 707.959,1298.66 709.998,1297.92 
  712.038,1297.16 714.078,1296.38 716.117,1295.56 718.157,1294.73 720.197,1293.88 722.236,1293 724.276,1292.1 726.316,1291.19 728.355,1290.25 730.395,1289.3 
  732.435,1288.33 734.474,1287.35 736.514,1286.35 738.553,1285.34 740.593,1284.32 742.633,1283.29 744.672,1282.25 746.712,1281.19 748.752,1280.13 750.791,1279.06 
  752.831,1277.99 754.871,1276.91 756.91,1275.83 758.95,1274.74 760.99,1273.65 763.029,1272.56 765.069,1271.46 767.109,1270.37 769.148,1269.28 771.188,1268.19 
  773.228,1267.1 775.267,1266.01 777.307,1264.92 779.346,1263.84 781.386,1262.77 783.426,1261.7 785.465,1260.63 787.505,1259.58 789.545,1258.52 791.584,1257.48 
  793.624,1256.44 795.664,1255.41 797.703,1254.39 799.743,1253.37 801.783,1252.37 803.822,1251.37 805.862,1250.39 807.902,1249.41 809.941,1248.44 811.981,1247.48 
  814.02,1246.53 816.06,1245.6 818.1,1244.67 820.139,1243.74 822.179,1242.83 824.219,1241.93 826.258,1241.04 828.298,1240.16 830.338,1239.28 832.377,1238.41 
  834.417,1237.55 836.457,1236.7 838.496,1235.86 840.536,1235.02 842.576,1234.19 844.615,1233.37 846.655,1232.55 848.695,1231.74 850.734,1230.93 852.774,1230.13 
  854.813,1229.33 856.853,1228.53 858.893,1227.73 860.932,1226.94 862.972,1226.15 865.012,1225.36 867.051,1224.56 869.091,1223.77 871.131,1222.97 873.17,1222.18 
  875.21,1221.37 877.25,1220.57 879.289,1219.75 881.329,1218.94 883.369,1218.11 885.408,1217.28 887.448,1216.44 889.488,1215.59 891.527,1214.73 893.567,1213.86 
  895.606,1212.97 897.646,1212.07 899.686,1211.16 901.725,1210.24 903.765,1209.3 905.805,1208.34 907.844,1207.36 909.884,1206.37 911.924,1205.35 913.963,1204.32 
  916.003,1203.26 918.043,1202.19 920.082,1201.09 922.122,1199.96 924.162,1198.81 926.201,1197.64 928.241,1196.44 930.28,1195.21 932.32,1193.96 934.36,1192.67 
  936.399,1191.36 938.439,1190.02 940.479,1188.64 942.518,1187.24 944.558,1185.8 946.598,1184.32 948.637,1182.82 950.677,1181.28 952.717,1179.7 954.756,1178.09 
  956.796,1176.45 958.836,1174.76 960.875,1173.04 962.915,1171.29 964.955,1169.49 966.994,1167.65 969.034,1165.78 971.073,1163.87 973.113,1161.92 975.153,1159.93 
  977.192,1157.89 979.232,1155.82 981.272,1153.71 983.311,1151.55 985.351,1149.36 987.391,1147.12 989.43,1144.85 991.47,1142.53 993.51,1140.17 995.549,1137.77 
  997.589,1135.33 999.629,1132.85 1001.67,1130.33 1003.71,1127.77 1005.75,1125.17 1007.79,1122.52 1009.83,1119.84 1011.87,1117.12 1013.91,1114.36 1015.95,1111.56 
  1017.99,1108.72 1020.03,1105.85 1022.06,1102.94 1024.1,1099.99 1026.14,1097 1028.18,1093.98 1030.22,1090.93 1032.26,1087.84 1034.3,1084.72 1036.34,1081.56 
  1038.38,1078.38 1040.42,1075.16 1042.46,1071.91 1044.5,1068.63 1046.54,1065.33 1048.58,1061.99 1050.62,1058.63 1052.66,1055.25 1054.7,1051.84 1056.74,1048.4 
  1058.78,1044.95 1060.82,1041.47 1062.86,1037.98 1064.9,1034.46 1066.94,1030.93 1068.98,1027.38 1071.02,1023.82 1073.06,1020.24 1075.1,1016.65 1077.14,1013.05 
  1079.17,1009.43 1081.21,1005.81 1083.25,1002.19 1085.29,998.553 1087.33,994.916 1089.37,991.275 1091.41,987.633 1093.45,983.991 1095.49,980.351 1097.53,976.713 
  1099.57,973.08 1101.61,969.453 1103.65,965.833 1105.69,962.222 1107.73,958.622 1109.77,955.034 1111.81,951.459 1113.85,947.9 1115.89,944.357 1117.93,940.833 
  1119.97,937.328 1122.01,933.845 1124.05,930.385 1126.09,926.949 1128.13,923.539 1130.17,920.157 1132.21,916.804 1134.25,913.481 1136.29,910.191 1138.32,906.935 
  1140.36,903.713 1142.4,900.529 1144.44,897.382 1146.48,894.276 1148.52,891.21 1150.56,888.187 1152.6,885.209 1154.64,882.275 1156.68,879.389 1158.72,876.55 
  1160.76,873.762 1162.8,871.024 1164.84,868.339 1166.88,865.707 1168.92,863.13 1170.96,860.61 1173,858.146 1175.04,855.741 1177.08,853.397 1179.12,851.112 
  1181.16,848.89 1183.2,846.732 1185.24,844.637 1187.28,842.607 1189.32,840.644 1191.36,838.748 1193.4,836.921 1195.43,835.162 1197.47,833.473 1199.51,831.855 
  1201.55,830.309 1203.59,828.835 1205.63,827.435 1207.67,826.108 1209.71,824.856 1211.75,823.679 1213.79,822.577 1215.83,821.552 1217.87,820.604 1219.91,819.733 
  1221.95,818.94 1223.99,818.225 1226.03,817.589 1228.07,817.031 1230.11,816.553 1232.15,816.154 1234.19,815.834 1236.23,815.595 1238.27,815.435 1240.31,815.355 
  1242.35,815.355 1244.39,815.435 1246.43,815.595 1248.47,815.834 1250.51,816.154 1252.55,816.553 1254.58,817.031 1256.62,817.589 1258.66,818.225 1260.7,818.94 
  1262.74,819.733 1264.78,820.604 1266.82,821.552 1268.86,822.577 1270.9,823.679 1272.94,824.856 1274.98,826.108 1277.02,827.435 1279.06,828.835 1281.1,830.309 
  1283.14,831.855 1285.18,833.473 1287.22,835.162 1289.26,836.921 1291.3,838.748 1293.34,840.644 1295.38,842.607 1297.42,844.637 1299.46,846.732 1301.5,848.89 
  1303.54,851.112 1305.58,853.397 1307.62,855.741 1309.66,858.146 1311.69,860.61 1313.73,863.13 1315.77,865.707 1317.81,868.339 1319.85,871.024 1321.89,873.762 
  1323.93,876.55 1325.97,879.389 1328.01,882.275 1330.05,885.209 1332.09,888.187 1334.13,891.21 1336.17,894.276 1338.21,897.382 1340.25,900.529 1342.29,903.713 
  1344.33,906.935 1346.37,910.191 1348.41,913.481 1350.45,916.804 1352.49,920.157 1354.53,923.539 1356.57,926.949 1358.61,930.385 1360.65,933.845 1362.69,937.328 
  1364.73,940.833 1366.77,944.357 1368.8,947.9 1370.84,951.459 1372.88,955.034 1374.92,958.622 1376.96,962.222 1379,965.833 1381.04,969.453 1383.08,973.08 
  1385.12,976.713 1387.16,980.351 1389.2,983.991 1391.24,987.633 1393.28,991.275 1395.32,994.916 1397.36,998.553 1399.4,1002.19 1401.44,1005.81 1403.48,1009.43 
  1405.52,1013.05 1407.56,1016.65 1409.6,1020.24 1411.64,1023.82 1413.68,1027.38 1415.72,1030.93 1417.76,1034.46 1419.8,1037.98 1421.84,1041.47 1423.88,1044.95 
  1425.92,1048.4 1427.95,1051.84 1429.99,1055.25 1432.03,1058.63 1434.07,1061.99 1436.11,1065.33 1438.15,1068.63 1440.19,1071.91 1442.23,1075.16 1444.27,1078.38 
  1446.31,1081.56 1448.35,1084.72 1450.39,1087.84 1452.43,1090.93 1454.47,1093.98 1456.51,1097 1458.55,1099.99 1460.59,1102.94 1462.63,1105.85 1464.67,1108.72 
  1466.71,1111.56 1468.75,1114.36 1470.79,1117.12 1472.83,1119.84 1474.87,1122.52 1476.91,1125.17 1478.95,1127.77 1480.99,1130.33 1483.03,1132.85 1485.06,1135.33 
  1487.1,1137.77 1489.14,1140.17 1491.18,1142.53 1493.22,1144.85 1495.26,1147.12 1497.3,1149.36 1499.34,1151.55 1501.38,1153.71 1503.42,1155.82 1505.46,1157.89 
  1507.5,1159.93 1509.54,1161.92 1511.58,1163.87 1513.62,1165.78 1515.66,1167.65 1517.7,1169.49 1519.74,1171.29 1521.78,1173.04 1523.82,1174.76 1525.86,1176.45 
  1527.9,1178.09 1529.94,1179.7 1531.98,1181.28 1534.02,1182.82 1536.06,1184.32 1538.1,1185.8 1540.14,1187.24 1542.18,1188.64 1544.21,1190.02 1546.25,1191.36 
  1548.29,1192.67 1550.33,1193.96 1552.37,1195.21 1554.41,1196.44 1556.45,1197.64 1558.49,1198.81 1560.53,1199.96 1562.57,1201.09 1564.61,1202.19 1566.65,1203.26 
  1568.69,1204.32 1570.73,1205.35 1572.77,1206.37 1574.81,1207.36 1576.85,1208.34 1578.89,1209.3 1580.93,1210.24 1582.97,1211.16 1585.01,1212.07 1587.05,1212.97 
  1589.09,1213.86 1591.13,1214.73 1593.17,1215.59 1595.21,1216.44 1597.25,1217.28 1599.29,1218.11 1601.32,1218.94 1603.36,1219.75 1605.4,1220.57 1607.44,1221.37 
  1609.48,1222.18 1611.52,1222.97 1613.56,1223.77 1615.6,1224.56 1617.64,1225.36 1619.68,1226.15 1621.72,1226.94 1623.76,1227.73 1625.8,1228.53 1627.84,1229.33 
  1629.88,1230.13 1631.92,1230.93 1633.96,1231.74 1636,1232.55 1638.04,1233.37 1640.08,1234.19 1642.12,1235.02 1644.16,1235.86 1646.2,1236.7 1648.24,1237.55 
  1650.28,1238.41 1652.32,1239.28 1654.36,1240.16 1656.4,1241.04 1658.44,1241.93 1660.47,1242.83 1662.51,1243.74 1664.55,1244.67 1666.59,1245.6 1668.63,1246.53 
  1670.67,1247.48 1672.71,1248.44 1674.75,1249.41 1676.79,1250.39 1678.83,1251.37 1680.87,1252.37 1682.91,1253.37 1684.95,1254.39 1686.99,1255.41 1689.03,1256.44 
  1691.07,1257.48 1693.11,1258.52 1695.15,1259.58 1697.19,1260.63 1699.23,1261.7 1701.27,1262.77 1703.31,1263.84 1705.35,1264.92 1707.39,1266.01 1709.43,1267.1 
  1711.47,1268.19 1713.51,1269.28 1715.55,1270.37 1717.58,1271.46 1719.62,1272.56 1721.66,1273.65 1723.7,1274.74 1725.74,1275.83 1727.78,1276.91 1729.82,1277.99 
  1731.86,1279.06 1733.9,1280.13 1735.94,1281.19 1737.98,1282.25 1740.02,1283.29 1742.06,1284.32 1744.1,1285.34 1746.14,1286.35 1748.18,1287.35 1750.22,1288.33 
  1752.26,1289.3 1754.3,1290.25 1756.34,1291.19 1758.38,1292.1 1760.42,1293 1762.46,1293.88 1764.5,1294.73 1766.54,1295.56 1768.58,1296.38 1770.62,1297.16 
  1772.66,1297.92 1774.7,1298.66 1776.73,1299.37 1778.77,1300.05 1780.81,1300.7 1782.85,1301.32 1784.89,1301.91 1786.93,1302.48 1788.97,1303.01 1791.01,1303.5 
  1793.05,1303.97 1795.09,1304.4 1797.13,1304.79 1799.17,1305.15 1801.21,1305.48 1803.25,1305.77 1805.29,1306.02 1807.33,1306.24 1809.37,1306.42 1811.41,1306.56 
  1813.45,1306.66 1815.49,1306.73 1817.53,1306.76 1819.57,1306.75 1821.61,1306.71 1823.65,1306.62 1825.69,1306.5 1827.73,1306.35 1829.77,1306.15 1831.81,1305.92 
  1833.84,1305.66 1835.88,1305.35 1837.92,1305.02 1839.96,1304.65 1842,1304.24 1844.04,1303.81 1846.08,1303.34 1848.12,1302.84 1850.16,1302.32 1852.2,1301.76 
  1854.24,1301.18 1856.28,1300.57 1858.32,1299.94 1860.36,1299.29 1862.4,1298.61 1864.44,1297.92 1866.48,1297.2 1868.52,1296.48 1870.56,1295.74 1872.6,1294.98 
  1874.64,1294.22 1876.68,1293.45 1878.72,1292.67 1880.76,1291.89 1882.8,1291.12 1884.84,1290.34 1886.88,1289.56 1888.92,1288.8 1890.96,1288.04 1892.99,1287.3 
  1895.03,1286.57 1897.07,1285.85 1899.11,1285.16 1901.15,1284.49 1903.19,1283.85 1905.23,1283.24 1907.27,1282.66 1909.31,1282.12 1911.35,1281.61 1913.39,1281.15 
  1915.43,1280.73 1917.47,1280.36 1919.51,1280.04 1921.55,1279.78 1923.59,1279.57 1925.63,1279.43 1927.67,1279.35 1929.71,1279.33 1931.75,1279.39 1933.79,1279.52 
  1935.83,1279.72 1937.87,1280.01 1939.91,1280.37 1941.95,1280.82 1943.99,1281.36 1946.03,1281.99 1948.07,1282.71 1950.1,1283.53 1952.14,1284.44 1954.18,1285.45 
  1956.22,1286.57 1958.26,1287.79 1960.3,1289.11 1962.34,1290.54 1964.38,1292.08 1966.42,1293.73 1968.46,1295.49 1970.5,1297.37 1972.54,1299.35 1974.58,1301.45 
  1976.62,1303.67 1978.66,1305.99 1980.7,1308.43 1982.74,1310.98 1984.78,1313.65 1986.82,1316.42 1988.86,1319.31 1990.9,1322.3 1992.94,1325.4 1994.98,1328.6 
  1997.02,1331.9 1999.06,1335.3 2001.1,1338.8 2003.14,1342.39 2005.18,1346.06 2007.22,1349.81 2009.25,1353.64 2011.29,1357.55 2013.33,1361.52 2015.37,1365.55 
  2017.41,1369.63 2019.45,1373.76 2021.49,1377.92 2023.53,1382.12 2025.57,1386.34 2027.61,1390.57 2029.65,1394.81 2031.69,1399.04 2033.73,1403.25 2035.77,1407.44 
  2037.81,1411.59 2039.85,1415.69 2041.89,1419.72 2043.93,1423.68 2045.97,1427.55 2048.01,1431.31 2050.05,1434.96 2052.09,1438.47 2054.13,1441.84 2056.17,1445.04 
  2058.21,1448.07 2060.25,1450.89 2062.29,1453.5 2064.33,1455.88 2066.36,1458.02 2068.4,1459.88 2070.44,1461.45 2072.48,1462.72 2074.52,1463.66 2076.56,1464.26 
  2078.6,1464.49 2080.64,1464.33 2082.68,1463.77 2084.72,1462.77 2086.76,1461.33 2088.8,1459.42 2090.84,1457.01 2092.88,1454.09 2094.92,1450.64 2096.96,1446.62 
  2099,1442.03 2101.04,1436.84 2103.08,1431.03 2105.12,1424.58 2107.16,1417.47 2109.2,1409.68 2111.24,1401.19 2113.28,1391.98 2115.32,1382.03 2117.36,1371.33 
  2119.4,1359.86 2121.44,1347.6 2123.48,1334.54 2125.51,1320.66 2127.55,1305.96 2129.59,1290.42 2131.63,1274.03 2133.67,1256.79 2135.71,1238.69 2137.75,1219.73 
  2139.79,1199.9 2141.83,1179.21 2143.87,1157.65 2145.91,1135.24 2147.95,1111.97 2149.99,1087.88 2152.03,1062.95 2154.07,1037.23 2156.11,1010.72 2158.15,983.446 
  2160.19,955.446 2162.23,926.75 2164.27,897.394 2166.31,867.422 2168.35,836.881 2170.39,805.825 2172.43,774.31 2174.47,742.402 2176.51,710.172 2178.55,677.696 
  2180.59,645.058 2182.62,612.35 2184.66,579.67 2186.7,547.125 2188.74,514.831 2190.78,482.91 2192.82,451.496 2194.86,420.731 2196.9,390.768 2198.94,361.77 
  2200.98,333.911 2203.02,307.377 2205.06,282.365 2207.1,259.085 2209.14,237.76 2211.18,218.627 2213.22,201.936 2215.26,187.953 2217.3,176.96 2219.34,169.253 
  2221.38,165.146 2223.42,164.97 2225.46,169.074 2227.5,177.827 2229.54,191.616 2231.58,210.849 2233.62,235.956 2235.66,267.386 2237.7,305.613 2239.74,351.136 
  2241.77,404.476 2243.81,466.181 2245.85,536.824 2247.89,617.006 2249.93,707.357 2251.97,808.535 2254.01,921.232 2256.05,1046.17 2258.09,1184.09 2260.13,1335.8 
  
  "/>
<polygon clip-path="url(#clip0101)" points="
1685.51,451.424 2249.26,451.424 2249.26,209.504 1685.51,209.504 
  " fill="#ffffff" fill-rule="evenodd" fill-opacity="1"/>
<polyline clip-path="url(#clip0101)" style="stroke:#000000; stroke-width:4; stroke-opacity:1; fill:none" points="
  1685.51,451.424 2249.26,451.424 2249.26,209.504 1685.51,209.504 1685.51,451.424 
  "/>
<polyline clip-path="url(#clip0101)" style="stroke:#009af9; stroke-width:4; stroke-opacity:1; fill:none" points="
  1709.51,269.984 1853.51,269.984 
  "/>
<g clip-path="url(#clip0101)">
<text style="fill:#000000; fill-opacity:1; font-family:Arial,Helvetica Neue,Helvetica,sans-serif; font-size:48px; text-anchor:start;" transform="rotate(0, 1877.51, 287.484)" x="1877.51" y="287.484">Runge function</text>
</g>
<circle clip-path="url(#clip0101)" style="fill:#000000; stroke:none; fill-opacity:1" cx="1793.51" cy="330.464" r="25"/>
<circle clip-path="url(#clip0101)" style="fill:#e26f46; stroke:none; fill-opacity:1" cx="1793.51" cy="330.464" r="21"/>
<g clip-path="url(#clip0101)">
<text style="fill:#000000; fill-opacity:1; font-family:Arial,Helvetica Neue,Helvetica,sans-serif; font-size:48px; text-anchor:start;" transform="rotate(0, 1877.51, 347.964)" x="1877.51" y="347.964">Nodes</text>
</g>
<polyline clip-path="url(#clip0101)" style="stroke:#3da44d; stroke-width:4; stroke-opacity:1; fill:none" points="
  1709.51,390.944 1853.51,390.944 
  "/>
<g clip-path="url(#clip0101)">
<text style="fill:#000000; fill-opacity:1; font-family:Arial,Helvetica Neue,Helvetica,sans-serif; font-size:48px; text-anchor:start;" transform="rotate(0, 1877.51, 408.444)" x="1877.51" y="408.444">Intepolation</text>
</g>
</svg>
