<?xml version="1.0" encoding="utf-8"?>
<svg xmlns="http://www.w3.org/2000/svg" xmlns:xlink="http://www.w3.org/1999/xlink" width="600" height="400" viewBox="0 0 2400 1600">
<defs>
  <clipPath id="clip9900">
    <rect x="0" y="0" width="2000" height="2000"/>
  </clipPath>
</defs>
<defs>
  <clipPath id="clip9901">
    <rect x="0" y="0" width="2400" height="1600"/>
  </clipPath>
</defs>
<polygon clip-path="url(#clip9901)" points="
0,1600 2400,1600 2400,0 0,0 
  " fill="#ffffff" fill-rule="evenodd" fill-opacity="1"/>
<defs>
  <clipPath id="clip9902">
    <rect x="480" y="0" width="1681" height="1600"/>
  </clipPath>
</defs>
<polygon clip-path="url(#clip9901)" points="
121.251,1503.47 2321.26,1503.47 2321.26,125.984 121.251,125.984 
  " fill="#ffffff" fill-rule="evenodd" fill-opacity="1"/>
<defs>
  <clipPath id="clip9903">
    <rect x="121" y="125" width="2201" height="1378"/>
  </clipPath>
</defs>
<polyline clip-path="url(#clip9903)" style="stroke:#000000; stroke-width:2; stroke-opacity:0.1; fill:none" points="
  183.515,1503.47 183.515,125.984 
  "/>
<polyline clip-path="url(#clip9903)" style="stroke:#000000; stroke-width:2; stroke-opacity:0.1; fill:none" points="
  702.385,1503.47 702.385,125.984 
  "/>
<polyline clip-path="url(#clip9903)" style="stroke:#000000; stroke-width:2; stroke-opacity:0.1; fill:none" points="
  1221.26,1503.47 1221.26,125.984 
  "/>
<polyline clip-path="url(#clip9903)" style="stroke:#000000; stroke-width:2; stroke-opacity:0.1; fill:none" points="
  1740.13,1503.47 1740.13,125.984 
  "/>
<polyline clip-path="url(#clip9903)" style="stroke:#000000; stroke-width:2; stroke-opacity:0.1; fill:none" points="
  2259,1503.47 2259,125.984 
  "/>
<polyline clip-path="url(#clip9903)" style="stroke:#000000; stroke-width:2; stroke-opacity:0.1; fill:none" points="
  121.251,1344.78 2321.26,1344.78 
  "/>
<polyline clip-path="url(#clip9903)" style="stroke:#000000; stroke-width:2; stroke-opacity:0.1; fill:none" points="
  121.251,1018.59 2321.26,1018.59 
  "/>
<polyline clip-path="url(#clip9903)" style="stroke:#000000; stroke-width:2; stroke-opacity:0.1; fill:none" points="
  121.251,692.39 2321.26,692.39 
  "/>
<polyline clip-path="url(#clip9903)" style="stroke:#000000; stroke-width:2; stroke-opacity:0.1; fill:none" points="
  121.251,366.194 2321.26,366.194 
  "/>
<polyline clip-path="url(#clip9901)" style="stroke:#000000; stroke-width:4; stroke-opacity:1; fill:none" points="
  121.251,1503.47 2321.26,1503.47 
  "/>
<polyline clip-path="url(#clip9901)" style="stroke:#000000; stroke-width:4; stroke-opacity:1; fill:none" points="
  121.251,1503.47 121.251,125.984 
  "/>
<polyline clip-path="url(#clip9901)" style="stroke:#000000; stroke-width:4; stroke-opacity:1; fill:none" points="
  183.515,1503.47 183.515,1482.81 
  "/>
<polyline clip-path="url(#clip9901)" style="stroke:#000000; stroke-width:4; stroke-opacity:1; fill:none" points="
  702.385,1503.47 702.385,1482.81 
  "/>
<polyline clip-path="url(#clip9901)" style="stroke:#000000; stroke-width:4; stroke-opacity:1; fill:none" points="
  1221.26,1503.47 1221.26,1482.81 
  "/>
<polyline clip-path="url(#clip9901)" style="stroke:#000000; stroke-width:4; stroke-opacity:1; fill:none" points="
  1740.13,1503.47 1740.13,1482.81 
  "/>
<polyline clip-path="url(#clip9901)" style="stroke:#000000; stroke-width:4; stroke-opacity:1; fill:none" points="
  2259,1503.47 2259,1482.81 
  "/>
<polyline clip-path="url(#clip9901)" style="stroke:#000000; stroke-width:4; stroke-opacity:1; fill:none" points="
  121.251,1344.78 154.251,1344.78 
  "/>
<polyline clip-path="url(#clip9901)" style="stroke:#000000; stroke-width:4; stroke-opacity:1; fill:none" points="
  121.251,1018.59 154.251,1018.59 
  "/>
<polyline clip-path="url(#clip9901)" style="stroke:#000000; stroke-width:4; stroke-opacity:1; fill:none" points="
  121.251,692.39 154.251,692.39 
  "/>
<polyline clip-path="url(#clip9901)" style="stroke:#000000; stroke-width:4; stroke-opacity:1; fill:none" points="
  121.251,366.194 154.251,366.194 
  "/>
<g clip-path="url(#clip9901)">
<text style="fill:#000000; fill-opacity:1; font-family:Arial,Helvetica Neue,Helvetica,sans-serif; font-size:48px; text-anchor:middle;" transform="rotate(0, 183.515, 1557.47)" x="183.515" y="1557.47">-1.0</text>
</g>
<g clip-path="url(#clip9901)">
<text style="fill:#000000; fill-opacity:1; font-family:Arial,Helvetica Neue,Helvetica,sans-serif; font-size:48px; text-anchor:middle;" transform="rotate(0, 702.385, 1557.47)" x="702.385" y="1557.47">-0.5</text>
</g>
<g clip-path="url(#clip9901)">
<text style="fill:#000000; fill-opacity:1; font-family:Arial,Helvetica Neue,Helvetica,sans-serif; font-size:48px; text-anchor:middle;" transform="rotate(0, 1221.26, 1557.47)" x="1221.26" y="1557.47">0.0</text>
</g>
<g clip-path="url(#clip9901)">
<text style="fill:#000000; fill-opacity:1; font-family:Arial,Helvetica Neue,Helvetica,sans-serif; font-size:48px; text-anchor:middle;" transform="rotate(0, 1740.13, 1557.47)" x="1740.13" y="1557.47">0.5</text>
</g>
<g clip-path="url(#clip9901)">
<text style="fill:#000000; fill-opacity:1; font-family:Arial,Helvetica Neue,Helvetica,sans-serif; font-size:48px; text-anchor:middle;" transform="rotate(0, 2259, 1557.47)" x="2259" y="1557.47">1.0</text>
</g>
<g clip-path="url(#clip9901)">
<text style="fill:#000000; fill-opacity:1; font-family:Arial,Helvetica Neue,Helvetica,sans-serif; font-size:48px; text-anchor:end;" transform="rotate(0, 97.2505, 1362.28)" x="97.2505" y="1362.28">0</text>
</g>
<g clip-path="url(#clip9901)">
<text style="fill:#000000; fill-opacity:1; font-family:Arial,Helvetica Neue,Helvetica,sans-serif; font-size:48px; text-anchor:end;" transform="rotate(0, 97.2505, 1036.09)" x="97.2505" y="1036.09">2</text>
</g>
<g clip-path="url(#clip9901)">
<text style="fill:#000000; fill-opacity:1; font-family:Arial,Helvetica Neue,Helvetica,sans-serif; font-size:48px; text-anchor:end;" transform="rotate(0, 97.2505, 709.89)" x="97.2505" y="709.89">4</text>
</g>
<g clip-path="url(#clip9901)">
<text style="fill:#000000; fill-opacity:1; font-family:Arial,Helvetica Neue,Helvetica,sans-serif; font-size:48px; text-anchor:end;" transform="rotate(0, 97.2505, 383.694)" x="97.2505" y="383.694">6</text>
</g>
<g clip-path="url(#clip9901)">
<text style="fill:#000000; fill-opacity:1; font-family:Arial,Helvetica Neue,Helvetica,sans-serif; font-size:84px; text-anchor:middle;" transform="rotate(0, 1221.26, 73.2)" x="1221.26" y="73.2">Runge&apos;s phenomenon (Nodes = 15)</text>
</g>
<polyline clip-path="url(#clip9903)" style="stroke:#009af9; stroke-width:4; stroke-opacity:1; fill:none" points="
  183.515,1338.51 185.593,1338.48 187.67,1338.46 189.748,1338.44 191.825,1338.41 193.903,1338.39 195.98,1338.36 198.058,1338.34 200.135,1338.31 202.213,1338.29 
  204.291,1338.26 206.368,1338.23 208.446,1338.21 210.523,1338.18 212.601,1338.16 214.678,1338.13 216.756,1338.1 218.833,1338.08 220.911,1338.05 222.989,1338.02 
  225.066,1338 227.144,1337.97 229.221,1337.94 231.299,1337.91 233.376,1337.89 235.454,1337.86 237.531,1337.83 239.609,1337.8 241.687,1337.77 243.764,1337.75 
  245.842,1337.72 247.919,1337.69 249.997,1337.66 252.074,1337.63 254.152,1337.6 256.229,1337.57 258.307,1337.54 260.385,1337.51 262.462,1337.48 264.54,1337.45 
  266.617,1337.42 268.695,1337.39 270.772,1337.36 272.85,1337.33 274.927,1337.3 277.005,1337.27 279.083,1337.23 281.16,1337.2 283.238,1337.17 285.315,1337.14 
  287.393,1337.1 289.47,1337.07 291.548,1337.04 293.626,1337.01 295.703,1336.97 297.781,1336.94 299.858,1336.91 301.936,1336.87 304.013,1336.84 306.091,1336.8 
  308.168,1336.77 310.246,1336.73 312.324,1336.7 314.401,1336.66 316.479,1336.63 318.556,1336.59 320.634,1336.56 322.711,1336.52 324.789,1336.48 326.866,1336.45 
  328.944,1336.41 331.022,1336.37 333.099,1336.34 335.177,1336.3 337.254,1336.26 339.332,1336.22 341.409,1336.18 343.487,1336.15 345.564,1336.11 347.642,1336.07 
  349.72,1336.03 351.797,1335.99 353.875,1335.95 355.952,1335.91 358.03,1335.87 360.107,1335.83 362.185,1335.79 364.262,1335.75 366.34,1335.7 368.418,1335.66 
  370.495,1335.62 372.573,1335.58 374.65,1335.54 376.728,1335.49 378.805,1335.45 380.883,1335.41 382.961,1335.36 385.038,1335.32 387.116,1335.27 389.193,1335.23 
  391.271,1335.18 393.348,1335.14 395.426,1335.09 397.503,1335.05 399.581,1335 401.659,1334.95 403.736,1334.91 405.814,1334.86 407.891,1334.81 409.969,1334.76 
  412.046,1334.71 414.124,1334.67 416.201,1334.62 418.279,1334.57 420.357,1334.52 422.434,1334.47 424.512,1334.42 426.589,1334.37 428.667,1334.32 430.744,1334.26 
  432.822,1334.21 434.899,1334.16 436.977,1334.11 439.055,1334.05 441.132,1334 443.21,1333.95 445.287,1333.89 447.365,1333.84 449.442,1333.78 451.52,1333.73 
  453.597,1333.67 455.675,1333.62 457.753,1333.56 459.83,1333.5 461.908,1333.44 463.985,1333.39 466.063,1333.33 468.14,1333.27 470.218,1333.21 472.296,1333.15 
  474.373,1333.09 476.451,1333.03 478.528,1332.97 480.606,1332.91 482.683,1332.84 484.761,1332.78 486.838,1332.72 488.916,1332.66 490.994,1332.59 493.071,1332.53 
  495.149,1332.46 497.226,1332.4 499.304,1332.33 501.381,1332.26 503.459,1332.2 505.536,1332.13 507.614,1332.06 509.692,1331.99 511.769,1331.92 513.847,1331.86 
  515.924,1331.78 518.002,1331.71 520.079,1331.64 522.157,1331.57 524.234,1331.5 526.312,1331.43 528.39,1331.35 530.467,1331.28 532.545,1331.2 534.622,1331.13 
  536.7,1331.05 538.777,1330.97 540.855,1330.9 542.932,1330.82 545.01,1330.74 547.088,1330.66 549.165,1330.58 551.243,1330.5 553.32,1330.42 555.398,1330.34 
  557.475,1330.26 559.553,1330.17 561.631,1330.09 563.708,1330 565.786,1329.92 567.863,1329.83 569.941,1329.75 572.018,1329.66 574.096,1329.57 576.173,1329.48 
  578.251,1329.39 580.329,1329.3 582.406,1329.21 584.484,1329.12 586.561,1329.03 588.639,1328.93 590.716,1328.84 592.794,1328.74 594.871,1328.65 596.949,1328.55 
  599.027,1328.45 601.104,1328.35 603.182,1328.25 605.259,1328.15 607.337,1328.05 609.414,1327.95 611.492,1327.85 613.569,1327.74 615.647,1327.64 617.725,1327.53 
  619.802,1327.43 621.88,1327.32 623.957,1327.21 626.035,1327.1 628.112,1326.99 630.19,1326.88 632.267,1326.77 634.345,1326.65 636.423,1326.54 638.5,1326.42 
  640.578,1326.31 642.655,1326.19 644.733,1326.07 646.81,1325.95 648.888,1325.83 650.966,1325.71 653.043,1325.58 655.121,1325.46 657.198,1325.33 659.276,1325.21 
  661.353,1325.08 663.431,1324.95 665.508,1324.82 667.586,1324.69 669.664,1324.55 671.741,1324.42 673.819,1324.28 675.896,1324.15 677.974,1324.01 680.051,1323.87 
  682.129,1323.73 684.206,1323.59 686.284,1323.44 688.362,1323.3 690.439,1323.15 692.517,1323.01 694.594,1322.86 696.672,1322.71 698.749,1322.55 700.827,1322.4 
  702.904,1322.25 704.982,1322.09 707.06,1321.93 709.137,1321.77 711.215,1321.61 713.292,1321.45 715.37,1321.28 717.447,1321.12 719.525,1320.95 721.602,1320.78 
  723.68,1320.61 725.758,1320.44 727.835,1320.26 729.913,1320.09 731.99,1319.91 734.068,1319.73 736.145,1319.55 738.223,1319.36 740.3,1319.18 742.378,1318.99 
  744.456,1318.8 746.533,1318.61 748.611,1318.42 750.688,1318.22 752.766,1318.02 754.843,1317.82 756.921,1317.62 758.999,1317.42 761.076,1317.21 763.154,1317 
  765.231,1316.79 767.309,1316.58 769.386,1316.37 771.464,1316.15 773.541,1315.93 775.619,1315.71 777.697,1315.49 779.774,1315.26 781.852,1315.03 783.929,1314.8 
  786.007,1314.57 788.084,1314.33 790.162,1314.09 792.239,1313.85 794.317,1313.61 796.395,1313.36 798.472,1313.11 800.55,1312.86 802.627,1312.6 804.705,1312.34 
  806.782,1312.08 808.86,1311.82 810.937,1311.55 813.015,1311.28 815.093,1311.01 817.17,1310.74 819.248,1310.46 821.325,1310.18 823.403,1309.89 825.48,1309.6 
  827.558,1309.31 829.635,1309.02 831.713,1308.72 833.791,1308.42 835.868,1308.11 837.946,1307.81 840.023,1307.49 842.101,1307.18 844.178,1306.86 846.256,1306.54 
  848.334,1306.21 850.411,1305.88 852.489,1305.55 854.566,1305.21 856.644,1304.87 858.721,1304.52 860.799,1304.17 862.876,1303.82 864.954,1303.46 867.032,1303.1 
  869.109,1302.73 871.187,1302.36 873.264,1301.99 875.342,1301.61 877.419,1301.23 879.497,1300.84 881.574,1300.44 883.652,1300.05 885.73,1299.65 887.807,1299.24 
  889.885,1298.83 891.962,1298.41 894.04,1297.99 896.117,1297.56 898.195,1297.13 900.272,1296.7 902.35,1296.25 904.428,1295.81 906.505,1295.36 908.583,1294.9 
  910.66,1294.43 912.738,1293.97 914.815,1293.49 916.893,1293.01 918.97,1292.53 921.048,1292.04 923.126,1291.54 925.203,1291.04 927.281,1290.53 929.358,1290.01 
  931.436,1289.49 933.513,1288.97 935.591,1288.43 937.669,1287.89 939.746,1287.35 941.824,1286.79 943.901,1286.24 945.979,1285.67 948.056,1285.1 950.134,1284.52 
  952.211,1283.93 954.289,1283.34 956.367,1282.74 958.444,1282.13 960.522,1281.52 962.599,1280.9 964.677,1280.27 966.754,1279.64 968.832,1278.99 970.909,1278.34 
  972.987,1277.69 975.065,1277.02 977.142,1276.35 979.22,1275.67 981.297,1274.98 983.375,1274.29 985.452,1273.58 987.53,1272.87 989.607,1272.16 991.685,1271.43 
  993.763,1270.69 995.84,1269.95 997.918,1269.2 999.995,1268.44 1002.07,1267.68 1004.15,1266.9 1006.23,1266.12 1008.31,1265.33 1010.38,1264.53 1012.46,1263.72 
  1014.54,1262.91 1016.62,1262.08 1018.69,1261.25 1020.77,1260.41 1022.85,1259.56 1024.93,1258.71 1027,1257.84 1029.08,1256.97 1031.16,1256.09 1033.24,1255.2 
  1035.31,1254.3 1037.39,1253.4 1039.47,1252.49 1041.55,1251.57 1043.62,1250.64 1045.7,1249.71 1047.78,1248.76 1049.86,1247.81 1051.93,1246.86 1054.01,1245.89 
  1056.09,1244.92 1058.17,1243.95 1060.24,1242.96 1062.32,1241.97 1064.4,1240.97 1066.48,1239.97 1068.55,1238.96 1070.63,1237.95 1072.71,1236.93 1074.79,1235.91 
  1076.86,1234.88 1078.94,1233.84 1081.02,1232.81 1083.1,1231.76 1085.18,1230.72 1087.25,1229.67 1089.33,1228.62 1091.41,1227.56 1093.49,1226.51 1095.56,1225.45 
  1097.64,1224.39 1099.72,1223.33 1101.8,1222.27 1103.87,1221.21 1105.95,1220.15 1108.03,1219.09 1110.11,1218.03 1112.18,1216.98 1114.26,1215.93 1116.34,1214.88 
  1118.42,1213.83 1120.49,1212.79 1122.57,1211.76 1124.65,1210.73 1126.73,1209.7 1128.8,1208.69 1130.88,1207.68 1132.96,1206.68 1135.04,1205.69 1137.11,1204.71 
  1139.19,1203.73 1141.27,1202.77 1143.35,1201.83 1145.42,1200.89 1147.5,1199.97 1149.58,1199.06 1151.66,1198.17 1153.73,1197.29 1155.81,1196.43 1157.89,1195.59 
  1159.97,1194.76 1162.04,1193.96 1164.12,1193.17 1166.2,1192.41 1168.28,1191.66 1170.36,1190.94 1172.43,1190.24 1174.51,1189.56 1176.59,1188.9 1178.67,1188.27 
  1180.74,1187.67 1182.82,1187.09 1184.9,1186.54 1186.98,1186.01 1189.05,1185.52 1191.13,1185.05 1193.21,1184.61 1195.29,1184.2 1197.36,1183.82 1199.44,1183.47 
  1201.52,1183.15 1203.6,1182.86 1205.67,1182.6 1207.75,1182.37 1209.83,1182.18 1211.91,1182.01 1213.98,1181.88 1216.06,1181.79 1218.14,1181.72 1220.22,1181.69 
  1222.29,1181.69 1224.37,1181.72 1226.45,1181.79 1228.53,1181.88 1230.6,1182.01 1232.68,1182.18 1234.76,1182.37 1236.84,1182.6 1238.91,1182.86 1240.99,1183.15 
  1243.07,1183.47 1245.15,1183.82 1247.22,1184.2 1249.3,1184.61 1251.38,1185.05 1253.46,1185.52 1255.53,1186.01 1257.61,1186.54 1259.69,1187.09 1261.77,1187.67 
  1263.85,1188.27 1265.92,1188.9 1268,1189.56 1270.08,1190.24 1272.16,1190.94 1274.23,1191.66 1276.31,1192.41 1278.39,1193.17 1280.47,1193.96 1282.54,1194.76 
  1284.62,1195.59 1286.7,1196.43 1288.78,1197.29 1290.85,1198.17 1292.93,1199.06 1295.01,1199.97 1297.09,1200.89 1299.16,1201.83 1301.24,1202.77 1303.32,1203.73 
  1305.4,1204.71 1307.47,1205.69 1309.55,1206.68 1311.63,1207.68 1313.71,1208.69 1315.78,1209.7 1317.86,1210.73 1319.94,1211.76 1322.02,1212.79 1324.09,1213.83 
  1326.17,1214.88 1328.25,1215.93 1330.33,1216.98 1332.4,1218.03 1334.48,1219.09 1336.56,1220.15 1338.64,1221.21 1340.71,1222.27 1342.79,1223.33 1344.87,1224.39 
  1346.95,1225.45 1349.03,1226.51 1351.1,1227.56 1353.18,1228.62 1355.26,1229.67 1357.34,1230.72 1359.41,1231.76 1361.49,1232.81 1363.57,1233.84 1365.65,1234.88 
  1367.72,1235.91 1369.8,1236.93 1371.88,1237.95 1373.96,1238.96 1376.03,1239.97 1378.11,1240.97 1380.19,1241.97 1382.27,1242.96 1384.34,1243.95 1386.42,1244.92 
  1388.5,1245.89 1390.58,1246.86 1392.65,1247.81 1394.73,1248.76 1396.81,1249.71 1398.89,1250.64 1400.96,1251.57 1403.04,1252.49 1405.12,1253.4 1407.2,1254.3 
  1409.27,1255.2 1411.35,1256.09 1413.43,1256.97 1415.51,1257.84 1417.58,1258.71 1419.66,1259.56 1421.74,1260.41 1423.82,1261.25 1425.89,1262.08 1427.97,1262.91 
  1430.05,1263.72 1432.13,1264.53 1434.2,1265.33 1436.28,1266.12 1438.36,1266.9 1440.44,1267.68 1442.52,1268.44 1444.59,1269.2 1446.67,1269.95 1448.75,1270.69 
  1450.83,1271.43 1452.9,1272.16 1454.98,1272.87 1457.06,1273.58 1459.14,1274.29 1461.21,1274.98 1463.29,1275.67 1465.37,1276.35 1467.45,1277.02 1469.52,1277.69 
  1471.6,1278.34 1473.68,1278.99 1475.76,1279.64 1477.83,1280.27 1479.91,1280.9 1481.99,1281.52 1484.07,1282.13 1486.14,1282.74 1488.22,1283.34 1490.3,1283.93 
  1492.38,1284.52 1494.45,1285.1 1496.53,1285.67 1498.61,1286.24 1500.69,1286.79 1502.76,1287.35 1504.84,1287.89 1506.92,1288.43 1509,1288.97 1511.07,1289.49 
  1513.15,1290.01 1515.23,1290.53 1517.31,1291.04 1519.38,1291.54 1521.46,1292.04 1523.54,1292.53 1525.62,1293.01 1527.69,1293.49 1529.77,1293.97 1531.85,1294.43 
  1533.93,1294.9 1536.01,1295.36 1538.08,1295.81 1540.16,1296.25 1542.24,1296.7 1544.32,1297.13 1546.39,1297.56 1548.47,1297.99 1550.55,1298.41 1552.63,1298.83 
  1554.7,1299.24 1556.78,1299.65 1558.86,1300.05 1560.94,1300.44 1563.01,1300.84 1565.09,1301.23 1567.17,1301.61 1569.25,1301.99 1571.32,1302.36 1573.4,1302.73 
  1575.48,1303.1 1577.56,1303.46 1579.63,1303.82 1581.71,1304.17 1583.79,1304.52 1585.87,1304.87 1587.94,1305.21 1590.02,1305.55 1592.1,1305.88 1594.18,1306.21 
  1596.25,1306.54 1598.33,1306.86 1600.41,1307.18 1602.49,1307.49 1604.56,1307.81 1606.64,1308.11 1608.72,1308.42 1610.8,1308.72 1612.87,1309.02 1614.95,1309.31 
  1617.03,1309.6 1619.11,1309.89 1621.19,1310.18 1623.26,1310.46 1625.34,1310.74 1627.42,1311.01 1629.5,1311.28 1631.57,1311.55 1633.65,1311.82 1635.73,1312.08 
  1637.81,1312.34 1639.88,1312.6 1641.96,1312.86 1644.04,1313.11 1646.12,1313.36 1648.19,1313.61 1650.27,1313.85 1652.35,1314.09 1654.43,1314.33 1656.5,1314.57 
  1658.58,1314.8 1660.66,1315.03 1662.74,1315.26 1664.81,1315.49 1666.89,1315.71 1668.97,1315.93 1671.05,1316.15 1673.12,1316.37 1675.2,1316.58 1677.28,1316.79 
  1679.36,1317 1681.43,1317.21 1683.51,1317.42 1685.59,1317.62 1687.67,1317.82 1689.74,1318.02 1691.82,1318.22 1693.9,1318.42 1695.98,1318.61 1698.05,1318.8 
  1700.13,1318.99 1702.21,1319.18 1704.29,1319.36 1706.36,1319.55 1708.44,1319.73 1710.52,1319.91 1712.6,1320.09 1714.68,1320.26 1716.75,1320.44 1718.83,1320.61 
  1720.91,1320.78 1722.99,1320.95 1725.06,1321.12 1727.14,1321.28 1729.22,1321.45 1731.3,1321.61 1733.37,1321.77 1735.45,1321.93 1737.53,1322.09 1739.61,1322.25 
  1741.68,1322.4 1743.76,1322.55 1745.84,1322.71 1747.92,1322.86 1749.99,1323.01 1752.07,1323.15 1754.15,1323.3 1756.23,1323.44 1758.3,1323.59 1760.38,1323.73 
  1762.46,1323.87 1764.54,1324.01 1766.61,1324.15 1768.69,1324.28 1770.77,1324.42 1772.85,1324.55 1774.92,1324.69 1777,1324.82 1779.08,1324.95 1781.16,1325.08 
  1783.23,1325.21 1785.31,1325.33 1787.39,1325.46 1789.47,1325.58 1791.54,1325.71 1793.62,1325.83 1795.7,1325.95 1797.78,1326.07 1799.86,1326.19 1801.93,1326.31 
  1804.01,1326.42 1806.09,1326.54 1808.17,1326.65 1810.24,1326.77 1812.32,1326.88 1814.4,1326.99 1816.48,1327.1 1818.55,1327.21 1820.63,1327.32 1822.71,1327.43 
  1824.79,1327.53 1826.86,1327.64 1828.94,1327.74 1831.02,1327.85 1833.1,1327.95 1835.17,1328.05 1837.25,1328.15 1839.33,1328.25 1841.41,1328.35 1843.48,1328.45 
  1845.56,1328.55 1847.64,1328.65 1849.72,1328.74 1851.79,1328.84 1853.87,1328.93 1855.95,1329.03 1858.03,1329.12 1860.1,1329.21 1862.18,1329.3 1864.26,1329.39 
  1866.34,1329.48 1868.41,1329.57 1870.49,1329.66 1872.57,1329.75 1874.65,1329.83 1876.72,1329.92 1878.8,1330 1880.88,1330.09 1882.96,1330.17 1885.03,1330.26 
  1887.11,1330.34 1889.19,1330.42 1891.27,1330.5 1893.35,1330.58 1895.42,1330.66 1897.5,1330.74 1899.58,1330.82 1901.66,1330.9 1903.73,1330.97 1905.81,1331.05 
  1907.89,1331.13 1909.97,1331.2 1912.04,1331.28 1914.12,1331.35 1916.2,1331.43 1918.28,1331.5 1920.35,1331.57 1922.43,1331.64 1924.51,1331.71 1926.59,1331.78 
  1928.66,1331.86 1930.74,1331.92 1932.82,1331.99 1934.9,1332.06 1936.97,1332.13 1939.05,1332.2 1941.13,1332.26 1943.21,1332.33 1945.28,1332.4 1947.36,1332.46 
  1949.44,1332.53 1951.52,1332.59 1953.59,1332.66 1955.67,1332.72 1957.75,1332.78 1959.83,1332.84 1961.9,1332.91 1963.98,1332.97 1966.06,1333.03 1968.14,1333.09 
  1970.21,1333.15 1972.29,1333.21 1974.37,1333.27 1976.45,1333.33 1978.53,1333.39 1980.6,1333.44 1982.68,1333.5 1984.76,1333.56 1986.84,1333.62 1988.91,1333.67 
  1990.99,1333.73 1993.07,1333.78 1995.15,1333.84 1997.22,1333.89 1999.3,1333.95 2001.38,1334 2003.46,1334.05 2005.53,1334.11 2007.61,1334.16 2009.69,1334.21 
  2011.77,1334.26 2013.84,1334.32 2015.92,1334.37 2018,1334.42 2020.08,1334.47 2022.15,1334.52 2024.23,1334.57 2026.31,1334.62 2028.39,1334.67 2030.46,1334.71 
  2032.54,1334.76 2034.62,1334.81 2036.7,1334.86 2038.77,1334.91 2040.85,1334.95 2042.93,1335 2045.01,1335.05 2047.08,1335.09 2049.16,1335.14 2051.24,1335.18 
  2053.32,1335.23 2055.39,1335.27 2057.47,1335.32 2059.55,1335.36 2061.63,1335.41 2063.7,1335.45 2065.78,1335.49 2067.86,1335.54 2069.94,1335.58 2072.02,1335.62 
  2074.09,1335.66 2076.17,1335.7 2078.25,1335.75 2080.33,1335.79 2082.4,1335.83 2084.48,1335.87 2086.56,1335.91 2088.64,1335.95 2090.71,1335.99 2092.79,1336.03 
  2094.87,1336.07 2096.95,1336.11 2099.02,1336.15 2101.1,1336.18 2103.18,1336.22 2105.26,1336.26 2107.33,1336.3 2109.41,1336.34 2111.49,1336.37 2113.57,1336.41 
  2115.64,1336.45 2117.72,1336.48 2119.8,1336.52 2121.88,1336.56 2123.95,1336.59 2126.03,1336.63 2128.11,1336.66 2130.19,1336.7 2132.26,1336.73 2134.34,1336.77 
  2136.42,1336.8 2138.5,1336.84 2140.57,1336.87 2142.65,1336.91 2144.73,1336.94 2146.81,1336.97 2148.88,1337.01 2150.96,1337.04 2153.04,1337.07 2155.12,1337.1 
  2157.2,1337.14 2159.27,1337.17 2161.35,1337.2 2163.43,1337.23 2165.51,1337.27 2167.58,1337.3 2169.66,1337.33 2171.74,1337.36 2173.82,1337.39 2175.89,1337.42 
  2177.97,1337.45 2180.05,1337.48 2182.13,1337.51 2184.2,1337.54 2186.28,1337.57 2188.36,1337.6 2190.44,1337.63 2192.51,1337.66 2194.59,1337.69 2196.67,1337.72 
  2198.75,1337.75 2200.82,1337.77 2202.9,1337.8 2204.98,1337.83 2207.06,1337.86 2209.13,1337.89 2211.21,1337.91 2213.29,1337.94 2215.37,1337.97 2217.44,1338 
  2219.52,1338.02 2221.6,1338.05 2223.68,1338.08 2225.75,1338.1 2227.83,1338.13 2229.91,1338.16 2231.99,1338.18 2234.06,1338.21 2236.14,1338.23 2238.22,1338.26 
  2240.3,1338.29 2242.37,1338.31 2244.45,1338.34 2246.53,1338.36 2248.61,1338.39 2250.69,1338.41 2252.76,1338.44 2254.84,1338.46 2256.92,1338.48 2259,1338.51 
  
  "/>
<circle clip-path="url(#clip9903)" style="fill:#000000; stroke:none; fill-opacity:1" cx="183.515" cy="1338.51" r="18"/>
<circle clip-path="url(#clip9903)" style="fill:#e26f46; stroke:none; fill-opacity:1" cx="183.515" cy="1338.51" r="14"/>
<circle clip-path="url(#clip9903)" style="fill:#000000; stroke:none; fill-opacity:1" cx="331.764" cy="1336.36" r="18"/>
<circle clip-path="url(#clip9903)" style="fill:#e26f46; stroke:none; fill-opacity:1" cx="331.764" cy="1336.36" r="14"/>
<circle clip-path="url(#clip9903)" style="fill:#000000; stroke:none; fill-opacity:1" cx="480.012" cy="1332.92" r="18"/>
<circle clip-path="url(#clip9903)" style="fill:#e26f46; stroke:none; fill-opacity:1" cx="480.012" cy="1332.92" r="14"/>
<circle clip-path="url(#clip9903)" style="fill:#000000; stroke:none; fill-opacity:1" cx="628.261" cy="1326.98" r="18"/>
<circle clip-path="url(#clip9903)" style="fill:#e26f46; stroke:none; fill-opacity:1" cx="628.261" cy="1326.98" r="14"/>
<circle clip-path="url(#clip9903)" style="fill:#000000; stroke:none; fill-opacity:1" cx="776.509" cy="1315.61" r="18"/>
<circle clip-path="url(#clip9903)" style="fill:#e26f46; stroke:none; fill-opacity:1" cx="776.509" cy="1315.61" r="14"/>
<circle clip-path="url(#clip9903)" style="fill:#000000; stroke:none; fill-opacity:1" cx="924.758" cy="1291.15" r="18"/>
<circle clip-path="url(#clip9903)" style="fill:#e26f46; stroke:none; fill-opacity:1" cx="924.758" cy="1291.15" r="14"/>
<circle clip-path="url(#clip9903)" style="fill:#000000; stroke:none; fill-opacity:1" cx="1073.01" cy="1236.78" r="18"/>
<circle clip-path="url(#clip9903)" style="fill:#e26f46; stroke:none; fill-opacity:1" cx="1073.01" cy="1236.78" r="14"/>
<circle clip-path="url(#clip9903)" style="fill:#000000; stroke:none; fill-opacity:1" cx="1221.26" cy="1181.68" r="18"/>
<circle clip-path="url(#clip9903)" style="fill:#e26f46; stroke:none; fill-opacity:1" cx="1221.26" cy="1181.68" r="14"/>
<circle clip-path="url(#clip9903)" style="fill:#000000; stroke:none; fill-opacity:1" cx="1369.5" cy="1236.78" r="18"/>
<circle clip-path="url(#clip9903)" style="fill:#e26f46; stroke:none; fill-opacity:1" cx="1369.5" cy="1236.78" r="14"/>
<circle clip-path="url(#clip9903)" style="fill:#000000; stroke:none; fill-opacity:1" cx="1517.75" cy="1291.15" r="18"/>
<circle clip-path="url(#clip9903)" style="fill:#e26f46; stroke:none; fill-opacity:1" cx="1517.75" cy="1291.15" r="14"/>
<circle clip-path="url(#clip9903)" style="fill:#000000; stroke:none; fill-opacity:1" cx="1666" cy="1315.61" r="18"/>
<circle clip-path="url(#clip9903)" style="fill:#e26f46; stroke:none; fill-opacity:1" cx="1666" cy="1315.61" r="14"/>
<circle clip-path="url(#clip9903)" style="fill:#000000; stroke:none; fill-opacity:1" cx="1814.25" cy="1326.98" r="18"/>
<circle clip-path="url(#clip9903)" style="fill:#e26f46; stroke:none; fill-opacity:1" cx="1814.25" cy="1326.98" r="14"/>
<circle clip-path="url(#clip9903)" style="fill:#000000; stroke:none; fill-opacity:1" cx="1962.5" cy="1332.92" r="18"/>
<circle clip-path="url(#clip9903)" style="fill:#e26f46; stroke:none; fill-opacity:1" cx="1962.5" cy="1332.92" r="14"/>
<circle clip-path="url(#clip9903)" style="fill:#000000; stroke:none; fill-opacity:1" cx="2110.75" cy="1336.36" r="18"/>
<circle clip-path="url(#clip9903)" style="fill:#e26f46; stroke:none; fill-opacity:1" cx="2110.75" cy="1336.36" r="14"/>
<circle clip-path="url(#clip9903)" style="fill:#000000; stroke:none; fill-opacity:1" cx="2259" cy="1338.51" r="18"/>
<circle clip-path="url(#clip9903)" style="fill:#e26f46; stroke:none; fill-opacity:1" cx="2259" cy="1338.51" r="14"/>
<polyline clip-path="url(#clip9903)" style="stroke:#3da44d; stroke-width:4; stroke-opacity:1; fill:none" points="
  183.515,1338.51 185.593,1193.84 187.67,1061.67 189.748,941.33 191.825,832.152 193.903,733.51 195.98,644.805 198.058,565.459 200.135,494.922 202.213,432.665 
  204.291,378.185 206.368,330.999 208.446,290.646 210.523,256.687 212.601,228.7 214.678,206.286 216.756,189.061 218.833,176.662 220.911,168.742 222.989,164.97 
  225.066,165.032 227.144,168.629 229.221,175.477 231.299,185.306 233.376,197.862 235.454,212.9 237.531,230.19 239.609,249.517 241.687,270.673 243.764,293.463 
  245.842,317.705 247.919,343.225 249.997,369.859 252.074,397.454 254.152,425.866 256.229,454.958 258.307,484.604 260.385,514.683 262.462,545.086 264.54,575.707 
  266.617,606.45 268.695,637.225 270.772,667.947 272.85,698.539 274.927,728.929 277.005,759.052 279.083,788.846 281.16,818.255 283.238,847.23 285.315,875.723 
  287.393,903.692 289.47,931.1 291.548,957.913 293.626,984.101 295.703,1009.64 297.781,1034.5 299.858,1058.66 301.936,1082.12 304.013,1104.85 306.091,1126.83 
  308.168,1148.08 310.246,1168.57 312.324,1188.29 314.401,1207.26 316.479,1225.47 318.556,1242.92 320.634,1259.61 322.711,1275.54 324.789,1290.73 326.866,1305.18 
  328.944,1318.9 331.022,1331.89 333.099,1344.18 335.177,1355.76 337.254,1366.66 339.332,1376.88 341.409,1386.45 343.487,1395.36 345.564,1403.65 347.642,1411.33 
  349.72,1418.4 351.797,1424.9 353.875,1430.83 355.952,1436.21 358.03,1441.06 360.107,1445.4 362.185,1449.25 364.262,1452.62 366.34,1455.52 368.418,1457.99 
  370.495,1460.03 372.573,1461.67 374.65,1462.91 376.728,1463.79 378.805,1464.31 380.883,1464.49 382.961,1464.35 385.038,1463.91 387.116,1463.18 389.193,1462.18 
  391.271,1460.93 393.348,1459.43 395.426,1457.71 397.503,1455.78 399.581,1453.66 401.659,1451.35 403.736,1448.88 405.814,1446.26 407.891,1443.49 409.969,1440.6 
  412.046,1437.59 414.124,1434.48 416.201,1431.27 418.279,1427.99 420.357,1424.64 422.434,1421.22 424.512,1417.76 426.589,1414.26 428.667,1410.73 430.744,1407.18 
  432.822,1403.61 434.899,1400.04 436.977,1396.48 439.055,1392.92 441.132,1389.38 443.21,1385.87 445.287,1382.38 447.365,1378.93 449.442,1375.53 451.52,1372.17 
  453.597,1368.86 455.675,1365.61 457.753,1362.42 459.83,1359.29 461.908,1356.24 463.985,1353.25 466.063,1350.34 468.14,1347.51 470.218,1344.76 472.296,1342.09 
  474.373,1339.5 476.451,1337 478.528,1334.59 480.606,1332.27 482.683,1330.04 484.761,1327.89 486.838,1325.84 488.916,1323.88 490.994,1322.01 493.071,1320.24 
  495.149,1318.55 497.226,1316.96 499.304,1315.46 501.381,1314.05 503.459,1312.72 505.536,1311.49 507.614,1310.34 509.692,1309.28 511.769,1308.3 513.847,1307.41 
  515.924,1306.6 518.002,1305.87 520.079,1305.22 522.157,1304.64 524.234,1304.14 526.312,1303.71 528.39,1303.36 530.467,1303.07 532.545,1302.85 534.622,1302.7 
  536.7,1302.6 538.777,1302.57 540.855,1302.6 542.932,1302.68 545.01,1302.81 547.088,1303 549.165,1303.23 551.243,1303.51 553.32,1303.84 555.398,1304.2 
  557.475,1304.61 559.553,1305.05 561.631,1305.53 563.708,1306.04 565.786,1306.58 567.863,1307.15 569.941,1307.74 572.018,1308.36 574.096,1308.99 576.173,1309.65 
  578.251,1310.33 580.329,1311.02 582.406,1311.72 584.484,1312.43 586.561,1313.15 588.639,1313.88 590.716,1314.62 592.794,1315.36 594.871,1316.1 596.949,1316.83 
  599.027,1317.57 601.104,1318.31 603.182,1319.04 605.259,1319.76 607.337,1320.48 609.414,1321.18 611.492,1321.88 613.569,1322.57 615.647,1323.24 617.725,1323.9 
  619.802,1324.54 621.88,1325.17 623.957,1325.78 626.035,1326.37 628.112,1326.94 630.19,1327.5 632.267,1328.03 634.345,1328.54 636.423,1329.03 638.5,1329.5 
  640.578,1329.94 642.655,1330.37 644.733,1330.77 646.81,1331.14 648.888,1331.49 650.966,1331.81 653.043,1332.11 655.121,1332.39 657.198,1332.64 659.276,1332.86 
  661.353,1333.06 663.431,1333.24 665.508,1333.38 667.586,1333.51 669.664,1333.61 671.741,1333.68 673.819,1333.73 675.896,1333.75 677.974,1333.75 680.051,1333.73 
  682.129,1333.68 684.206,1333.61 686.284,1333.51 688.362,1333.4 690.439,1333.26 692.517,1333.1 694.594,1332.92 696.672,1332.72 698.749,1332.49 700.827,1332.25 
  702.904,1331.99 704.982,1331.71 707.06,1331.42 709.137,1331.1 711.215,1330.77 713.292,1330.42 715.37,1330.06 717.447,1329.69 719.525,1329.3 721.602,1328.89 
  723.68,1328.48 725.758,1328.05 727.835,1327.61 729.913,1327.16 731.99,1326.7 734.068,1326.23 736.145,1325.75 738.223,1325.26 740.3,1324.77 742.378,1324.27 
  744.456,1323.76 746.533,1323.25 748.611,1322.73 750.688,1322.21 752.766,1321.68 754.843,1321.16 756.921,1320.63 758.999,1320.09 761.076,1319.56 763.154,1319.03 
  765.231,1318.49 767.309,1317.96 769.386,1317.43 771.464,1316.9 773.541,1316.37 775.619,1315.84 777.697,1315.32 779.774,1314.79 781.852,1314.28 783.929,1313.76 
  786.007,1313.25 788.084,1312.75 790.162,1312.25 792.239,1311.75 794.317,1311.27 796.395,1310.78 798.472,1310.31 800.55,1309.84 802.627,1309.37 804.705,1308.92 
  806.782,1308.47 808.86,1308.02 810.937,1307.59 813.015,1307.16 815.093,1306.74 817.17,1306.32 819.248,1305.92 821.325,1305.52 823.403,1305.13 825.48,1304.74 
  827.558,1304.37 829.635,1304 831.713,1303.64 833.791,1303.28 835.868,1302.94 837.946,1302.6 840.023,1302.26 842.101,1301.94 844.178,1301.62 846.256,1301.31 
  848.334,1301 850.411,1300.7 852.489,1300.4 854.566,1300.11 856.644,1299.83 858.721,1299.55 860.799,1299.28 862.876,1299.01 864.954,1298.74 867.032,1298.48 
  869.109,1298.22 871.187,1297.96 873.264,1297.71 875.342,1297.46 877.419,1297.21 879.497,1296.96 881.574,1296.71 883.652,1296.47 885.73,1296.22 887.807,1295.98 
  889.885,1295.73 891.962,1295.48 894.04,1295.24 896.117,1294.99 898.195,1294.74 900.272,1294.48 902.35,1294.22 904.428,1293.96 906.505,1293.7 908.583,1293.43 
  910.66,1293.16 912.738,1292.88 914.815,1292.59 916.893,1292.3 918.97,1292.01 921.048,1291.7 923.126,1291.39 925.203,1291.08 927.281,1290.75 929.358,1290.42 
  931.436,1290.07 933.513,1289.72 935.591,1289.36 937.669,1288.99 939.746,1288.61 941.824,1288.22 943.901,1287.81 945.979,1287.4 948.056,1286.97 950.134,1286.53 
  952.211,1286.09 954.289,1285.62 956.367,1285.15 958.444,1284.66 960.522,1284.16 962.599,1283.65 964.677,1283.12 966.754,1282.58 968.832,1282.02 970.909,1281.45 
  972.987,1280.87 975.065,1280.27 977.142,1279.66 979.22,1279.03 981.297,1278.39 983.375,1277.73 985.452,1277.06 987.53,1276.37 989.607,1275.67 991.685,1274.96 
  993.763,1274.22 995.84,1273.48 997.918,1272.72 999.995,1271.94 1002.07,1271.15 1004.15,1270.34 1006.23,1269.52 1008.31,1268.69 1010.38,1267.84 1012.46,1266.97 
  1014.54,1266.1 1016.62,1265.2 1018.69,1264.3 1020.77,1263.38 1022.85,1262.45 1024.93,1261.5 1027,1260.54 1029.08,1259.57 1031.16,1258.59 1033.24,1257.6 
  1035.31,1256.59 1037.39,1255.57 1039.47,1254.54 1041.55,1253.51 1043.62,1252.46 1045.7,1251.4 1047.78,1250.33 1049.86,1249.25 1051.93,1248.17 1054.01,1247.07 
  1056.09,1245.97 1058.17,1244.86 1060.24,1243.75 1062.32,1242.63 1064.4,1241.5 1066.48,1240.37 1068.55,1239.23 1070.63,1238.09 1072.71,1236.95 1074.79,1235.8 
  1076.86,1234.65 1078.94,1233.5 1081.02,1232.35 1083.1,1231.19 1085.18,1230.04 1087.25,1228.88 1089.33,1227.73 1091.41,1226.58 1093.49,1225.43 1095.56,1224.28 
  1097.64,1223.14 1099.72,1222 1101.8,1220.87 1103.87,1219.74 1105.95,1218.61 1108.03,1217.49 1110.11,1216.38 1112.18,1215.28 1114.26,1214.19 1116.34,1213.1 
  1118.42,1212.02 1120.49,1210.96 1122.57,1209.9 1124.65,1208.86 1126.73,1207.82 1128.8,1206.8 1130.88,1205.8 1132.96,1204.8 1135.04,1203.82 1137.11,1202.86 
  1139.19,1201.91 1141.27,1200.97 1143.35,1200.06 1145.42,1199.16 1147.5,1198.27 1149.58,1197.41 1151.66,1196.56 1153.73,1195.74 1155.81,1194.93 1157.89,1194.14 
  1159.97,1193.37 1162.04,1192.63 1164.12,1191.9 1166.2,1191.2 1168.28,1190.52 1170.36,1189.86 1172.43,1189.22 1174.51,1188.61 1176.59,1188.02 1178.67,1187.46 
  1180.74,1186.92 1182.82,1186.41 1184.9,1185.92 1186.98,1185.46 1189.05,1185.02 1191.13,1184.61 1193.21,1184.22 1195.29,1183.86 1197.36,1183.53 1199.44,1183.22 
  1201.52,1182.95 1203.6,1182.69 1205.67,1182.47 1207.75,1182.28 1209.83,1182.11 1211.91,1181.97 1213.98,1181.86 1216.06,1181.77 1218.14,1181.72 1220.22,1181.69 
  1222.29,1181.69 1224.37,1181.72 1226.45,1181.77 1228.53,1181.86 1230.6,1181.97 1232.68,1182.11 1234.76,1182.28 1236.84,1182.47 1238.91,1182.69 1240.99,1182.95 
  1243.07,1183.22 1245.15,1183.53 1247.22,1183.86 1249.3,1184.22 1251.38,1184.61 1253.46,1185.02 1255.53,1185.46 1257.61,1185.92 1259.69,1186.41 1261.77,1186.92 
  1263.85,1187.46 1265.92,1188.02 1268,1188.61 1270.08,1189.22 1272.16,1189.86 1274.23,1190.52 1276.31,1191.2 1278.39,1191.9 1280.47,1192.63 1282.54,1193.37 
  1284.62,1194.14 1286.7,1194.93 1288.78,1195.74 1290.85,1196.56 1292.93,1197.41 1295.01,1198.27 1297.09,1199.16 1299.16,1200.06 1301.24,1200.97 1303.32,1201.91 
  1305.4,1202.86 1307.47,1203.82 1309.55,1204.8 1311.63,1205.8 1313.71,1206.8 1315.78,1207.82 1317.86,1208.86 1319.94,1209.9 1322.02,1210.96 1324.09,1212.02 
  1326.17,1213.1 1328.25,1214.19 1330.33,1215.28 1332.4,1216.38 1334.48,1217.49 1336.56,1218.61 1338.64,1219.74 1340.71,1220.87 1342.79,1222 1344.87,1223.14 
  1346.95,1224.28 1349.03,1225.43 1351.1,1226.58 1353.18,1227.73 1355.26,1228.88 1357.34,1230.04 1359.41,1231.19 1361.49,1232.35 1363.57,1233.5 1365.65,1234.65 
  1367.72,1235.8 1369.8,1236.95 1371.88,1238.09 1373.96,1239.23 1376.03,1240.37 1378.11,1241.5 1380.19,1242.63 1382.27,1243.75 1384.34,1244.86 1386.42,1245.97 
  1388.5,1247.07 1390.58,1248.17 1392.65,1249.25 1394.73,1250.33 1396.81,1251.4 1398.89,1252.46 1400.96,1253.51 1403.04,1254.54 1405.12,1255.57 1407.2,1256.59 
  1409.27,1257.6 1411.35,1258.59 1413.43,1259.57 1415.51,1260.54 1417.58,1261.5 1419.66,1262.45 1421.74,1263.38 1423.82,1264.3 1425.89,1265.2 1427.97,1266.1 
  1430.05,1266.97 1432.13,1267.84 1434.2,1268.69 1436.28,1269.52 1438.36,1270.34 1440.44,1271.15 1442.52,1271.94 1444.59,1272.72 1446.67,1273.48 1448.75,1274.22 
  1450.83,1274.96 1452.9,1275.67 1454.98,1276.37 1457.06,1277.06 1459.14,1277.73 1461.21,1278.39 1463.29,1279.03 1465.37,1279.66 1467.45,1280.27 1469.52,1280.87 
  1471.6,1281.45 1473.68,1282.02 1475.76,1282.58 1477.83,1283.12 1479.91,1283.65 1481.99,1284.16 1484.07,1284.66 1486.14,1285.15 1488.22,1285.62 1490.3,1286.09 
  1492.38,1286.53 1494.45,1286.97 1496.53,1287.4 1498.61,1287.81 1500.69,1288.22 1502.76,1288.61 1504.84,1288.99 1506.92,1289.36 1509,1289.72 1511.07,1290.07 
  1513.15,1290.42 1515.23,1290.75 1517.31,1291.08 1519.38,1291.39 1521.46,1291.7 1523.54,1292.01 1525.62,1292.3 1527.69,1292.59 1529.77,1292.88 1531.85,1293.16 
  1533.93,1293.43 1536.01,1293.7 1538.08,1293.96 1540.16,1294.22 1542.24,1294.48 1544.32,1294.74 1546.39,1294.99 1548.47,1295.24 1550.55,1295.48 1552.63,1295.73 
  1554.7,1295.98 1556.78,1296.22 1558.86,1296.47 1560.94,1296.71 1563.01,1296.96 1565.09,1297.21 1567.17,1297.46 1569.25,1297.71 1571.32,1297.96 1573.4,1298.22 
  1575.48,1298.48 1577.56,1298.74 1579.63,1299.01 1581.71,1299.28 1583.79,1299.55 1585.87,1299.83 1587.94,1300.11 1590.02,1300.4 1592.1,1300.7 1594.18,1301 
  1596.25,1301.31 1598.33,1301.62 1600.41,1301.94 1602.49,1302.26 1604.56,1302.6 1606.64,1302.94 1608.72,1303.28 1610.8,1303.64 1612.87,1304 1614.95,1304.37 
  1617.03,1304.74 1619.11,1305.13 1621.19,1305.52 1623.26,1305.92 1625.34,1306.32 1627.42,1306.74 1629.5,1307.16 1631.57,1307.59 1633.65,1308.02 1635.73,1308.47 
  1637.81,1308.92 1639.88,1309.37 1641.96,1309.84 1644.04,1310.31 1646.12,1310.78 1648.19,1311.27 1650.27,1311.75 1652.35,1312.25 1654.43,1312.75 1656.5,1313.25 
  1658.58,1313.76 1660.66,1314.28 1662.74,1314.79 1664.81,1315.32 1666.89,1315.84 1668.97,1316.37 1671.05,1316.9 1673.12,1317.43 1675.2,1317.96 1677.28,1318.49 
  1679.36,1319.03 1681.43,1319.56 1683.51,1320.09 1685.59,1320.63 1687.67,1321.16 1689.74,1321.68 1691.82,1322.21 1693.9,1322.73 1695.98,1323.25 1698.05,1323.76 
  1700.13,1324.27 1702.21,1324.77 1704.29,1325.26 1706.36,1325.75 1708.44,1326.23 1710.52,1326.7 1712.6,1327.16 1714.68,1327.61 1716.75,1328.05 1718.83,1328.48 
  1720.91,1328.89 1722.99,1329.3 1725.06,1329.69 1727.14,1330.06 1729.22,1330.42 1731.3,1330.77 1733.37,1331.1 1735.45,1331.42 1737.53,1331.71 1739.61,1331.99 
  1741.68,1332.25 1743.76,1332.49 1745.84,1332.72 1747.92,1332.92 1749.99,1333.1 1752.07,1333.26 1754.15,1333.4 1756.23,1333.51 1758.3,1333.61 1760.38,1333.68 
  1762.46,1333.73 1764.54,1333.75 1766.61,1333.75 1768.69,1333.73 1770.77,1333.68 1772.85,1333.61 1774.92,1333.51 1777,1333.38 1779.08,1333.24 1781.16,1333.06 
  1783.23,1332.86 1785.31,1332.64 1787.39,1332.39 1789.47,1332.11 1791.54,1331.81 1793.62,1331.49 1795.7,1331.14 1797.78,1330.77 1799.86,1330.37 1801.93,1329.94 
  1804.01,1329.5 1806.09,1329.03 1808.17,1328.54 1810.24,1328.03 1812.32,1327.5 1814.4,1326.94 1816.48,1326.37 1818.55,1325.78 1820.63,1325.17 1822.71,1324.54 
  1824.79,1323.9 1826.86,1323.24 1828.94,1322.57 1831.02,1321.88 1833.1,1321.18 1835.17,1320.48 1837.25,1319.76 1839.33,1319.04 1841.41,1318.31 1843.48,1317.57 
  1845.56,1316.83 1847.64,1316.1 1849.72,1315.36 1851.79,1314.62 1853.87,1313.88 1855.95,1313.15 1858.03,1312.43 1860.1,1311.72 1862.18,1311.02 1864.26,1310.33 
  1866.34,1309.65 1868.41,1308.99 1870.49,1308.36 1872.57,1307.74 1874.65,1307.15 1876.72,1306.58 1878.8,1306.04 1880.88,1305.53 1882.96,1305.05 1885.03,1304.61 
  1887.11,1304.2 1889.19,1303.84 1891.27,1303.51 1893.35,1303.23 1895.42,1303 1897.5,1302.81 1899.58,1302.68 1901.66,1302.6 1903.73,1302.57 1905.81,1302.6 
  1907.89,1302.7 1909.97,1302.85 1912.04,1303.07 1914.12,1303.36 1916.2,1303.71 1918.28,1304.14 1920.35,1304.64 1922.43,1305.22 1924.51,1305.87 1926.59,1306.6 
  1928.66,1307.41 1930.74,1308.3 1932.82,1309.28 1934.9,1310.34 1936.97,1311.49 1939.05,1312.72 1941.13,1314.05 1943.21,1315.46 1945.28,1316.96 1947.36,1318.55 
  1949.44,1320.24 1951.52,1322.01 1953.59,1323.88 1955.67,1325.84 1957.75,1327.89 1959.83,1330.04 1961.9,1332.27 1963.98,1334.59 1966.06,1337 1968.14,1339.5 
  1970.21,1342.09 1972.29,1344.76 1974.37,1347.51 1976.45,1350.34 1978.53,1353.25 1980.6,1356.24 1982.68,1359.29 1984.76,1362.42 1986.84,1365.61 1988.91,1368.86 
  1990.99,1372.17 1993.07,1375.53 1995.15,1378.93 1997.22,1382.38 1999.3,1385.87 2001.38,1389.38 2003.46,1392.92 2005.53,1396.48 2007.61,1400.04 2009.69,1403.61 
  2011.77,1407.18 2013.84,1410.73 2015.92,1414.26 2018,1417.76 2020.08,1421.22 2022.15,1424.64 2024.23,1427.99 2026.31,1431.27 2028.39,1434.48 2030.46,1437.59 
  2032.54,1440.6 2034.62,1443.49 2036.7,1446.26 2038.77,1448.88 2040.85,1451.35 2042.93,1453.66 2045.01,1455.78 2047.08,1457.71 2049.16,1459.43 2051.24,1460.93 
  2053.32,1462.18 2055.39,1463.18 2057.47,1463.91 2059.55,1464.35 2061.63,1464.49 2063.7,1464.31 2065.78,1463.79 2067.86,1462.91 2069.94,1461.67 2072.02,1460.03 
  2074.09,1457.99 2076.17,1455.52 2078.25,1452.62 2080.33,1449.25 2082.4,1445.4 2084.48,1441.06 2086.56,1436.21 2088.64,1430.83 2090.71,1424.9 2092.79,1418.4 
  2094.87,1411.33 2096.95,1403.65 2099.02,1395.36 2101.1,1386.45 2103.18,1376.88 2105.26,1366.66 2107.33,1355.76 2109.41,1344.18 2111.49,1331.89 2113.57,1318.9 
  2115.64,1305.18 2117.72,1290.73 2119.8,1275.54 2121.88,1259.61 2123.95,1242.92 2126.03,1225.47 2128.11,1207.26 2130.19,1188.29 2132.26,1168.57 2134.34,1148.08 
  2136.42,1126.83 2138.5,1104.85 2140.57,1082.12 2142.65,1058.66 2144.73,1034.5 2146.81,1009.64 2148.88,984.101 2150.96,957.913 2153.04,931.1 2155.12,903.692 
  2157.2,875.723 2159.27,847.23 2161.35,818.255 2163.43,788.846 2165.51,759.052 2167.58,728.929 2169.66,698.539 2171.74,667.947 2173.82,637.225 2175.89,606.45 
  2177.97,575.707 2180.05,545.086 2182.13,514.683 2184.2,484.604 2186.28,454.958 2188.36,425.866 2190.44,397.454 2192.51,369.859 2194.59,343.225 2196.67,317.705 
  2198.75,293.463 2200.82,270.673 2202.9,249.517 2204.98,230.19 2207.06,212.9 2209.13,197.862 2211.21,185.306 2213.29,175.477 2215.37,168.629 2217.44,165.032 
  2219.52,164.97 2221.6,168.742 2223.68,176.662 2225.75,189.061 2227.83,206.286 2229.91,228.7 2231.99,256.687 2234.06,290.646 2236.14,330.999 2238.22,378.185 
  2240.3,432.665 2242.37,494.922 2244.45,565.459 2246.53,644.805 2248.61,733.51 2250.69,832.152 2252.76,941.33 2254.84,1061.67 2256.92,1193.84 2259,1338.51 
  
  "/>
<polygon clip-path="url(#clip9901)" points="
1685.51,451.424 2249.26,451.424 2249.26,209.504 1685.51,209.504 
  " fill="#ffffff" fill-rule="evenodd" fill-opacity="1"/>
<polyline clip-path="url(#clip9901)" style="stroke:#000000; stroke-width:4; stroke-opacity:1; fill:none" points="
  1685.51,451.424 2249.26,451.424 2249.26,209.504 1685.51,209.504 1685.51,451.424 
  "/>
<polyline clip-path="url(#clip9901)" style="stroke:#009af9; stroke-width:4; stroke-opacity:1; fill:none" points="
  1709.51,269.984 1853.51,269.984 
  "/>
<g clip-path="url(#clip9901)">
<text style="fill:#000000; fill-opacity:1; font-family:Arial,Helvetica Neue,Helvetica,sans-serif; font-size:48px; text-anchor:start;" transform="rotate(0, 1877.51, 287.484)" x="1877.51" y="287.484">Runge function</text>
</g>
<circle clip-path="url(#clip9901)" style="fill:#000000; stroke:none; fill-opacity:1" cx="1793.51" cy="330.464" r="25"/>
<circle clip-path="url(#clip9901)" style="fill:#e26f46; stroke:none; fill-opacity:1" cx="1793.51" cy="330.464" r="21"/>
<g clip-path="url(#clip9901)">
<text style="fill:#000000; fill-opacity:1; font-family:Arial,Helvetica Neue,Helvetica,sans-serif; font-size:48px; text-anchor:start;" transform="rotate(0, 1877.51, 347.964)" x="1877.51" y="347.964">Nodes</text>
</g>
<polyline clip-path="url(#clip9901)" style="stroke:#3da44d; stroke-width:4; stroke-opacity:1; fill:none" points="
  1709.51,390.944 1853.51,390.944 
  "/>
<g clip-path="url(#clip9901)">
<text style="fill:#000000; fill-opacity:1; font-family:Arial,Helvetica Neue,Helvetica,sans-serif; font-size:48px; text-anchor:start;" transform="rotate(0, 1877.51, 408.444)" x="1877.51" y="408.444">Intepolation</text>
</g>
</svg>
