<?xml version="1.0" encoding="utf-8"?>
<svg xmlns="http://www.w3.org/2000/svg" xmlns:xlink="http://www.w3.org/1999/xlink" width="600" height="400" viewBox="0 0 2400 1600">
<defs>
  <clipPath id="clip6300">
    <rect x="0" y="0" width="2000" height="2000"/>
  </clipPath>
</defs>
<defs>
  <clipPath id="clip6301">
    <rect x="0" y="0" width="2400" height="1600"/>
  </clipPath>
</defs>
<polygon clip-path="url(#clip6301)" points="
0,1600 2400,1600 2400,0 0,0 
  " fill="#ffffff" fill-rule="evenodd" fill-opacity="1"/>
<defs>
  <clipPath id="clip6302">
    <rect x="480" y="0" width="1681" height="1600"/>
  </clipPath>
</defs>
<polygon clip-path="url(#clip6301)" points="
176.123,1503.47 2321.26,1503.47 2321.26,125.984 176.123,125.984 
  " fill="#ffffff" fill-rule="evenodd" fill-opacity="1"/>
<defs>
  <clipPath id="clip6303">
    <rect x="176" y="125" width="2146" height="1378"/>
  </clipPath>
</defs>
<polyline clip-path="url(#clip6303)" style="stroke:#000000; stroke-width:2; stroke-opacity:0.1; fill:none" points="
  236.834,1503.47 236.834,125.984 
  "/>
<polyline clip-path="url(#clip6303)" style="stroke:#000000; stroke-width:2; stroke-opacity:0.1; fill:none" points="
  742.763,1503.47 742.763,125.984 
  "/>
<polyline clip-path="url(#clip6303)" style="stroke:#000000; stroke-width:2; stroke-opacity:0.1; fill:none" points="
  1248.69,1503.47 1248.69,125.984 
  "/>
<polyline clip-path="url(#clip6303)" style="stroke:#000000; stroke-width:2; stroke-opacity:0.1; fill:none" points="
  1754.62,1503.47 1754.62,125.984 
  "/>
<polyline clip-path="url(#clip6303)" style="stroke:#000000; stroke-width:2; stroke-opacity:0.1; fill:none" points="
  2260.55,1503.47 2260.55,125.984 
  "/>
<polyline clip-path="url(#clip6303)" style="stroke:#000000; stroke-width:2; stroke-opacity:0.1; fill:none" points="
  176.123,1210.13 2321.26,1210.13 
  "/>
<polyline clip-path="url(#clip6303)" style="stroke:#000000; stroke-width:2; stroke-opacity:0.1; fill:none" points="
  176.123,886.599 2321.26,886.599 
  "/>
<polyline clip-path="url(#clip6303)" style="stroke:#000000; stroke-width:2; stroke-opacity:0.1; fill:none" points="
  176.123,563.068 2321.26,563.068 
  "/>
<polyline clip-path="url(#clip6303)" style="stroke:#000000; stroke-width:2; stroke-opacity:0.1; fill:none" points="
  176.123,239.537 2321.26,239.537 
  "/>
<polyline clip-path="url(#clip6301)" style="stroke:#000000; stroke-width:4; stroke-opacity:1; fill:none" points="
  176.123,1503.47 2321.26,1503.47 
  "/>
<polyline clip-path="url(#clip6301)" style="stroke:#000000; stroke-width:4; stroke-opacity:1; fill:none" points="
  176.123,1503.47 176.123,125.984 
  "/>
<polyline clip-path="url(#clip6301)" style="stroke:#000000; stroke-width:4; stroke-opacity:1; fill:none" points="
  236.834,1503.47 236.834,1482.81 
  "/>
<polyline clip-path="url(#clip6301)" style="stroke:#000000; stroke-width:4; stroke-opacity:1; fill:none" points="
  742.763,1503.47 742.763,1482.81 
  "/>
<polyline clip-path="url(#clip6301)" style="stroke:#000000; stroke-width:4; stroke-opacity:1; fill:none" points="
  1248.69,1503.47 1248.69,1482.81 
  "/>
<polyline clip-path="url(#clip6301)" style="stroke:#000000; stroke-width:4; stroke-opacity:1; fill:none" points="
  1754.62,1503.47 1754.62,1482.81 
  "/>
<polyline clip-path="url(#clip6301)" style="stroke:#000000; stroke-width:4; stroke-opacity:1; fill:none" points="
  2260.55,1503.47 2260.55,1482.81 
  "/>
<polyline clip-path="url(#clip6301)" style="stroke:#000000; stroke-width:4; stroke-opacity:1; fill:none" points="
  176.123,1210.13 208.3,1210.13 
  "/>
<polyline clip-path="url(#clip6301)" style="stroke:#000000; stroke-width:4; stroke-opacity:1; fill:none" points="
  176.123,886.599 208.3,886.599 
  "/>
<polyline clip-path="url(#clip6301)" style="stroke:#000000; stroke-width:4; stroke-opacity:1; fill:none" points="
  176.123,563.068 208.3,563.068 
  "/>
<polyline clip-path="url(#clip6301)" style="stroke:#000000; stroke-width:4; stroke-opacity:1; fill:none" points="
  176.123,239.537 208.3,239.537 
  "/>
<g clip-path="url(#clip6301)">
<text style="fill:#000000; fill-opacity:1; font-family:Arial,Helvetica Neue,Helvetica,sans-serif; font-size:48px; text-anchor:middle;" transform="rotate(0, 236.834, 1557.47)" x="236.834" y="1557.47">-1.0</text>
</g>
<g clip-path="url(#clip6301)">
<text style="fill:#000000; fill-opacity:1; font-family:Arial,Helvetica Neue,Helvetica,sans-serif; font-size:48px; text-anchor:middle;" transform="rotate(0, 742.763, 1557.47)" x="742.763" y="1557.47">-0.5</text>
</g>
<g clip-path="url(#clip6301)">
<text style="fill:#000000; fill-opacity:1; font-family:Arial,Helvetica Neue,Helvetica,sans-serif; font-size:48px; text-anchor:middle;" transform="rotate(0, 1248.69, 1557.47)" x="1248.69" y="1557.47">0.0</text>
</g>
<g clip-path="url(#clip6301)">
<text style="fill:#000000; fill-opacity:1; font-family:Arial,Helvetica Neue,Helvetica,sans-serif; font-size:48px; text-anchor:middle;" transform="rotate(0, 1754.62, 1557.47)" x="1754.62" y="1557.47">0.5</text>
</g>
<g clip-path="url(#clip6301)">
<text style="fill:#000000; fill-opacity:1; font-family:Arial,Helvetica Neue,Helvetica,sans-serif; font-size:48px; text-anchor:middle;" transform="rotate(0, 2260.55, 1557.47)" x="2260.55" y="1557.47">1.0</text>
</g>
<g clip-path="url(#clip6301)">
<text style="fill:#000000; fill-opacity:1; font-family:Arial,Helvetica Neue,Helvetica,sans-serif; font-size:48px; text-anchor:end;" transform="rotate(0, 152.123, 1227.63)" x="152.123" y="1227.63">-60</text>
</g>
<g clip-path="url(#clip6301)">
<text style="fill:#000000; fill-opacity:1; font-family:Arial,Helvetica Neue,Helvetica,sans-serif; font-size:48px; text-anchor:end;" transform="rotate(0, 152.123, 904.099)" x="152.123" y="904.099">-40</text>
</g>
<g clip-path="url(#clip6301)">
<text style="fill:#000000; fill-opacity:1; font-family:Arial,Helvetica Neue,Helvetica,sans-serif; font-size:48px; text-anchor:end;" transform="rotate(0, 152.123, 580.568)" x="152.123" y="580.568">-20</text>
</g>
<g clip-path="url(#clip6301)">
<text style="fill:#000000; fill-opacity:1; font-family:Arial,Helvetica Neue,Helvetica,sans-serif; font-size:48px; text-anchor:end;" transform="rotate(0, 152.123, 257.037)" x="152.123" y="257.037">0</text>
</g>
<g clip-path="url(#clip6301)">
<text style="fill:#000000; fill-opacity:1; font-family:Arial,Helvetica Neue,Helvetica,sans-serif; font-size:84px; text-anchor:middle;" transform="rotate(0, 1248.69, 73.2)" x="1248.69" y="73.2">Runge&apos;s phenomenon (Nodes = 26)</text>
</g>
<polyline clip-path="url(#clip6303)" style="stroke:#009af9; stroke-width:4; stroke-opacity:1; fill:none" points="
  236.834,238.915 238.86,238.912 240.886,238.91 242.912,238.907 244.937,238.905 246.963,238.903 248.989,238.9 251.015,238.898 253.04,238.895 255.066,238.893 
  257.092,238.89 259.118,238.887 261.143,238.885 263.169,238.882 265.195,238.88 267.22,238.877 269.246,238.875 271.272,238.872 273.298,238.869 275.323,238.867 
  277.349,238.864 279.375,238.861 281.401,238.858 283.426,238.856 285.452,238.853 287.478,238.85 289.504,238.847 291.529,238.845 293.555,238.842 295.581,238.839 
  297.607,238.836 299.632,238.833 301.658,238.83 303.684,238.828 305.71,238.825 307.735,238.822 309.761,238.819 311.787,238.816 313.812,238.813 315.838,238.81 
  317.864,238.807 319.89,238.804 321.915,238.801 323.941,238.798 325.967,238.794 327.993,238.791 330.018,238.788 332.044,238.785 334.07,238.782 336.096,238.779 
  338.121,238.775 340.147,238.772 342.173,238.769 344.199,238.766 346.224,238.762 348.25,238.759 350.276,238.756 352.302,238.752 354.327,238.749 356.353,238.746 
  358.379,238.742 360.405,238.739 362.43,238.735 364.456,238.732 366.482,238.728 368.507,238.725 370.533,238.721 372.559,238.717 374.585,238.714 376.61,238.71 
  378.636,238.707 380.662,238.703 382.688,238.699 384.713,238.695 386.739,238.692 388.765,238.688 390.791,238.684 392.816,238.68 394.842,238.676 396.868,238.673 
  398.894,238.669 400.919,238.665 402.945,238.661 404.971,238.657 406.997,238.653 409.022,238.649 411.048,238.645 413.074,238.641 415.099,238.637 417.125,238.632 
  419.151,238.628 421.177,238.624 423.202,238.62 425.228,238.615 427.254,238.611 429.28,238.607 431.305,238.603 433.331,238.598 435.357,238.594 437.383,238.589 
  439.408,238.585 441.434,238.58 443.46,238.576 445.486,238.571 447.511,238.567 449.537,238.562 451.563,238.557 453.589,238.553 455.614,238.548 457.64,238.543 
  459.666,238.538 461.691,238.534 463.717,238.529 465.743,238.524 467.769,238.519 469.794,238.514 471.82,238.509 473.846,238.504 475.872,238.499 477.897,238.494 
  479.923,238.489 481.949,238.483 483.975,238.478 486,238.473 488.026,238.468 490.052,238.462 492.078,238.457 494.103,238.451 496.129,238.446 498.155,238.44 
  500.181,238.435 502.206,238.429 504.232,238.424 506.258,238.418 508.284,238.412 510.309,238.407 512.335,238.401 514.361,238.395 516.386,238.389 518.412,238.383 
  520.438,238.377 522.464,238.371 524.489,238.365 526.515,238.359 528.541,238.353 530.567,238.347 532.592,238.34 534.618,238.334 536.644,238.328 538.67,238.321 
  540.695,238.315 542.721,238.309 544.747,238.302 546.773,238.295 548.798,238.289 550.824,238.282 552.85,238.275 554.876,238.269 556.901,238.262 558.927,238.255 
  560.953,238.248 562.978,238.241 565.004,238.234 567.03,238.227 569.056,238.219 571.081,238.212 573.107,238.205 575.133,238.197 577.159,238.19 579.184,238.183 
  581.21,238.175 583.236,238.167 585.262,238.16 587.287,238.152 589.313,238.144 591.339,238.136 593.365,238.128 595.39,238.121 597.416,238.112 599.442,238.104 
  601.468,238.096 603.493,238.088 605.519,238.08 607.545,238.071 609.57,238.063 611.596,238.054 613.622,238.046 615.648,238.037 617.673,238.028 619.699,238.019 
  621.725,238.01 623.751,238.002 625.776,237.992 627.802,237.983 629.828,237.974 631.854,237.965 633.879,237.956 635.905,237.946 637.931,237.937 639.957,237.927 
  641.982,237.917 644.008,237.907 646.034,237.898 648.06,237.888 650.085,237.878 652.111,237.868 654.137,237.857 656.163,237.847 658.188,237.837 660.214,237.826 
  662.24,237.816 664.265,237.805 666.291,237.794 668.317,237.783 670.343,237.772 672.368,237.761 674.394,237.75 676.42,237.739 678.446,237.727 680.471,237.716 
  682.497,237.704 684.523,237.693 686.549,237.681 688.574,237.669 690.6,237.657 692.626,237.645 694.652,237.633 696.677,237.62 698.703,237.608 700.729,237.595 
  702.755,237.583 704.78,237.57 706.806,237.557 708.832,237.544 710.857,237.531 712.883,237.517 714.909,237.504 716.935,237.49 718.96,237.477 720.986,237.463 
  723.012,237.449 725.038,237.435 727.063,237.421 729.089,237.406 731.115,237.392 733.141,237.377 735.166,237.362 737.192,237.347 739.218,237.332 741.244,237.317 
  743.269,237.302 745.295,237.286 747.321,237.271 749.347,237.255 751.372,237.239 753.398,237.223 755.424,237.206 757.449,237.19 759.475,237.173 761.501,237.156 
  763.527,237.139 765.552,237.122 767.578,237.105 769.604,237.087 771.63,237.07 773.655,237.052 775.681,237.034 777.707,237.016 779.733,236.997 781.758,236.979 
  783.784,236.96 785.81,236.941 787.836,236.922 789.861,236.902 791.887,236.883 793.913,236.863 795.939,236.843 797.964,236.823 799.99,236.802 802.016,236.782 
  804.042,236.761 806.067,236.74 808.093,236.719 810.119,236.697 812.144,236.675 814.17,236.653 816.196,236.631 818.222,236.609 820.247,236.586 822.273,236.563 
  824.299,236.54 826.325,236.517 828.35,236.493 830.376,236.469 832.402,236.445 834.428,236.42 836.453,236.395 838.479,236.37 840.505,236.345 842.531,236.32 
  844.556,236.294 846.582,236.268 848.608,236.241 850.634,236.214 852.659,236.187 854.685,236.16 856.711,236.132 858.736,236.105 860.762,236.076 862.788,236.048 
  864.814,236.019 866.839,235.99 868.865,235.96 870.891,235.93 872.917,235.9 874.942,235.869 876.968,235.838 878.994,235.807 881.02,235.776 883.045,235.744 
  885.071,235.711 887.097,235.678 889.123,235.645 891.148,235.612 893.174,235.578 895.2,235.544 897.226,235.509 899.251,235.474 901.277,235.439 903.303,235.403 
  905.329,235.366 907.354,235.33 909.38,235.292 911.406,235.255 913.431,235.217 915.457,235.178 917.483,235.139 919.509,235.1 921.534,235.06 923.56,235.02 
  925.586,234.979 927.612,234.938 929.637,234.896 931.663,234.854 933.689,234.811 935.715,234.768 937.74,234.724 939.766,234.679 941.792,234.635 943.818,234.589 
  945.843,234.543 947.869,234.497 949.895,234.45 951.921,234.402 953.946,234.354 955.972,234.305 957.998,234.256 960.023,234.206 962.049,234.156 964.075,234.105 
  966.101,234.053 968.126,234.001 970.152,233.948 972.178,233.894 974.204,233.84 976.229,233.785 978.255,233.73 980.281,233.674 982.307,233.617 984.332,233.56 
  986.358,233.502 988.384,233.443 990.41,233.383 992.435,233.323 994.461,233.262 996.487,233.201 998.513,233.139 1000.54,233.076 1002.56,233.012 1004.59,232.947 
  1006.62,232.882 1008.64,232.816 1010.67,232.75 1012.69,232.682 1014.72,232.614 1016.74,232.545 1018.77,232.475 1020.8,232.405 1022.82,232.334 1024.85,232.261 
  1026.87,232.189 1028.9,232.115 1030.92,232.041 1032.95,231.965 1034.98,231.889 1037,231.812 1039.03,231.735 1041.05,231.656 1043.08,231.577 1045.1,231.497 
  1047.13,231.416 1049.16,231.334 1051.18,231.252 1053.21,231.169 1055.23,231.084 1057.26,231 1059.28,230.914 1061.31,230.827 1063.34,230.74 1065.36,230.652 
  1067.39,230.563 1069.41,230.473 1071.44,230.383 1073.46,230.292 1075.49,230.2 1077.52,230.107 1079.54,230.014 1081.57,229.919 1083.59,229.824 1085.62,229.729 
  1087.65,229.633 1089.67,229.536 1091.7,229.438 1093.72,229.34 1095.75,229.241 1097.77,229.142 1099.8,229.041 1101.83,228.941 1103.85,228.84 1105.88,228.738 
  1107.9,228.636 1109.93,228.534 1111.95,228.431 1113.98,228.327 1116.01,228.224 1118.03,228.12 1120.06,228.015 1122.08,227.911 1124.11,227.806 1126.13,227.701 
  1128.16,227.596 1130.19,227.491 1132.21,227.386 1134.24,227.281 1136.26,227.176 1138.29,227.071 1140.31,226.966 1142.34,226.861 1144.37,226.757 1146.39,226.653 
  1148.42,226.549 1150.44,226.446 1152.47,226.343 1154.49,226.241 1156.52,226.139 1158.55,226.039 1160.57,225.939 1162.6,225.839 1164.62,225.741 1166.65,225.644 
  1168.67,225.547 1170.7,225.452 1172.73,225.358 1174.75,225.265 1176.78,225.174 1178.8,225.084 1180.83,224.995 1182.85,224.909 1184.88,224.823 1186.91,224.74 
  1188.93,224.658 1190.96,224.578 1192.98,224.5 1195.01,224.424 1197.04,224.35 1199.06,224.278 1201.09,224.208 1203.11,224.141 1205.14,224.076 1207.16,224.014 
  1209.19,223.954 1211.22,223.897 1213.24,223.842 1215.27,223.79 1217.29,223.741 1219.32,223.694 1221.34,223.65 1223.37,223.61 1225.4,223.572 1227.42,223.537 
  1229.45,223.505 1231.47,223.477 1233.5,223.451 1235.52,223.428 1237.55,223.409 1239.58,223.393 1241.6,223.38 1243.63,223.37 1245.65,223.364 1247.68,223.361 
  1249.7,223.361 1251.73,223.364 1253.76,223.37 1255.78,223.38 1257.81,223.393 1259.83,223.409 1261.86,223.428 1263.88,223.451 1265.91,223.477 1267.94,223.505 
  1269.96,223.537 1271.99,223.572 1274.01,223.61 1276.04,223.65 1278.06,223.694 1280.09,223.741 1282.12,223.79 1284.14,223.842 1286.17,223.897 1288.19,223.954 
  1290.22,224.014 1292.24,224.076 1294.27,224.141 1296.3,224.208 1298.32,224.278 1300.35,224.35 1302.37,224.424 1304.4,224.5 1306.42,224.578 1308.45,224.658 
  1310.48,224.74 1312.5,224.823 1314.53,224.909 1316.55,224.995 1318.58,225.084 1320.61,225.174 1322.63,225.265 1324.66,225.358 1326.68,225.452 1328.71,225.547 
  1330.73,225.644 1332.76,225.741 1334.79,225.839 1336.81,225.939 1338.84,226.039 1340.86,226.139 1342.89,226.241 1344.91,226.343 1346.94,226.446 1348.97,226.549 
  1350.99,226.653 1353.02,226.757 1355.04,226.861 1357.07,226.966 1359.09,227.071 1361.12,227.176 1363.15,227.281 1365.17,227.386 1367.2,227.491 1369.22,227.596 
  1371.25,227.701 1373.27,227.806 1375.3,227.911 1377.33,228.015 1379.35,228.12 1381.38,228.224 1383.4,228.327 1385.43,228.431 1387.45,228.534 1389.48,228.636 
  1391.51,228.738 1393.53,228.84 1395.56,228.941 1397.58,229.041 1399.61,229.142 1401.63,229.241 1403.66,229.34 1405.69,229.438 1407.71,229.536 1409.74,229.633 
  1411.76,229.729 1413.79,229.824 1415.81,229.919 1417.84,230.014 1419.87,230.107 1421.89,230.2 1423.92,230.292 1425.94,230.383 1427.97,230.473 1430,230.563 
  1432.02,230.652 1434.05,230.74 1436.07,230.827 1438.1,230.914 1440.12,231 1442.15,231.084 1444.18,231.169 1446.2,231.252 1448.23,231.334 1450.25,231.416 
  1452.28,231.497 1454.3,231.577 1456.33,231.656 1458.36,231.735 1460.38,231.812 1462.41,231.889 1464.43,231.965 1466.46,232.041 1468.48,232.115 1470.51,232.189 
  1472.54,232.261 1474.56,232.334 1476.59,232.405 1478.61,232.475 1480.64,232.545 1482.66,232.614 1484.69,232.682 1486.72,232.75 1488.74,232.816 1490.77,232.882 
  1492.79,232.947 1494.82,233.012 1496.84,233.076 1498.87,233.139 1500.9,233.201 1502.92,233.262 1504.95,233.323 1506.97,233.383 1509,233.443 1511.02,233.502 
  1513.05,233.56 1515.08,233.617 1517.1,233.674 1519.13,233.73 1521.15,233.785 1523.18,233.84 1525.2,233.894 1527.23,233.948 1529.26,234.001 1531.28,234.053 
  1533.31,234.105 1535.33,234.156 1537.36,234.206 1539.39,234.256 1541.41,234.305 1543.44,234.354 1545.46,234.402 1547.49,234.45 1549.51,234.497 1551.54,234.543 
  1553.57,234.589 1555.59,234.635 1557.62,234.679 1559.64,234.724 1561.67,234.768 1563.69,234.811 1565.72,234.854 1567.75,234.896 1569.77,234.938 1571.8,234.979 
  1573.82,235.02 1575.85,235.06 1577.87,235.1 1579.9,235.139 1581.93,235.178 1583.95,235.217 1585.98,235.255 1588,235.292 1590.03,235.33 1592.05,235.366 
  1594.08,235.403 1596.11,235.439 1598.13,235.474 1600.16,235.509 1602.18,235.544 1604.21,235.578 1606.23,235.612 1608.26,235.645 1610.29,235.678 1612.31,235.711 
  1614.34,235.744 1616.36,235.776 1618.39,235.807 1620.41,235.838 1622.44,235.869 1624.47,235.9 1626.49,235.93 1628.52,235.96 1630.54,235.99 1632.57,236.019 
  1634.59,236.048 1636.62,236.076 1638.65,236.105 1640.67,236.132 1642.7,236.16 1644.72,236.187 1646.75,236.214 1648.78,236.241 1650.8,236.268 1652.83,236.294 
  1654.85,236.32 1656.88,236.345 1658.9,236.37 1660.93,236.395 1662.96,236.42 1664.98,236.445 1667.01,236.469 1669.03,236.493 1671.06,236.517 1673.08,236.54 
  1675.11,236.563 1677.14,236.586 1679.16,236.609 1681.19,236.631 1683.21,236.653 1685.24,236.675 1687.26,236.697 1689.29,236.719 1691.32,236.74 1693.34,236.761 
  1695.37,236.782 1697.39,236.802 1699.42,236.823 1701.44,236.843 1703.47,236.863 1705.5,236.883 1707.52,236.902 1709.55,236.922 1711.57,236.941 1713.6,236.96 
  1715.62,236.979 1717.65,236.997 1719.68,237.016 1721.7,237.034 1723.73,237.052 1725.75,237.07 1727.78,237.087 1729.8,237.105 1731.83,237.122 1733.86,237.139 
  1735.88,237.156 1737.91,237.173 1739.93,237.19 1741.96,237.206 1743.98,237.223 1746.01,237.239 1748.04,237.255 1750.06,237.271 1752.09,237.286 1754.11,237.302 
  1756.14,237.317 1758.16,237.332 1760.19,237.347 1762.22,237.362 1764.24,237.377 1766.27,237.392 1768.29,237.406 1770.32,237.421 1772.35,237.435 1774.37,237.449 
  1776.4,237.463 1778.42,237.477 1780.45,237.49 1782.47,237.504 1784.5,237.517 1786.53,237.531 1788.55,237.544 1790.58,237.557 1792.6,237.57 1794.63,237.583 
  1796.65,237.595 1798.68,237.608 1800.71,237.62 1802.73,237.633 1804.76,237.645 1806.78,237.657 1808.81,237.669 1810.83,237.681 1812.86,237.693 1814.89,237.704 
  1816.91,237.716 1818.94,237.727 1820.96,237.739 1822.99,237.75 1825.01,237.761 1827.04,237.772 1829.07,237.783 1831.09,237.794 1833.12,237.805 1835.14,237.816 
  1837.17,237.826 1839.19,237.837 1841.22,237.847 1843.25,237.857 1845.27,237.868 1847.3,237.878 1849.32,237.888 1851.35,237.898 1853.37,237.907 1855.4,237.917 
  1857.43,237.927 1859.45,237.937 1861.48,237.946 1863.5,237.956 1865.53,237.965 1867.55,237.974 1869.58,237.983 1871.61,237.992 1873.63,238.002 1875.66,238.01 
  1877.68,238.019 1879.71,238.028 1881.74,238.037 1883.76,238.046 1885.79,238.054 1887.81,238.063 1889.84,238.071 1891.86,238.08 1893.89,238.088 1895.92,238.096 
  1897.94,238.104 1899.97,238.112 1901.99,238.121 1904.02,238.128 1906.04,238.136 1908.07,238.144 1910.1,238.152 1912.12,238.16 1914.15,238.167 1916.17,238.175 
  1918.2,238.183 1920.22,238.19 1922.25,238.197 1924.28,238.205 1926.3,238.212 1928.33,238.219 1930.35,238.227 1932.38,238.234 1934.4,238.241 1936.43,238.248 
  1938.46,238.255 1940.48,238.262 1942.51,238.269 1944.53,238.275 1946.56,238.282 1948.58,238.289 1950.61,238.295 1952.64,238.302 1954.66,238.309 1956.69,238.315 
  1958.71,238.321 1960.74,238.328 1962.76,238.334 1964.79,238.34 1966.82,238.347 1968.84,238.353 1970.87,238.359 1972.89,238.365 1974.92,238.371 1976.94,238.377 
  1978.97,238.383 1981,238.389 1983.02,238.395 1985.05,238.401 1987.07,238.407 1989.1,238.412 1991.13,238.418 1993.15,238.424 1995.18,238.429 1997.2,238.435 
  1999.23,238.44 2001.25,238.446 2003.28,238.451 2005.31,238.457 2007.33,238.462 2009.36,238.468 2011.38,238.473 2013.41,238.478 2015.43,238.483 2017.46,238.489 
  2019.49,238.494 2021.51,238.499 2023.54,238.504 2025.56,238.509 2027.59,238.514 2029.61,238.519 2031.64,238.524 2033.67,238.529 2035.69,238.534 2037.72,238.538 
  2039.74,238.543 2041.77,238.548 2043.79,238.553 2045.82,238.557 2047.85,238.562 2049.87,238.567 2051.9,238.571 2053.92,238.576 2055.95,238.58 2057.97,238.585 
  2060,238.589 2062.03,238.594 2064.05,238.598 2066.08,238.603 2068.1,238.607 2070.13,238.611 2072.15,238.615 2074.18,238.62 2076.21,238.624 2078.23,238.628 
  2080.26,238.632 2082.28,238.637 2084.31,238.641 2086.33,238.645 2088.36,238.649 2090.39,238.653 2092.41,238.657 2094.44,238.661 2096.46,238.665 2098.49,238.669 
  2100.51,238.673 2102.54,238.676 2104.57,238.68 2106.59,238.684 2108.62,238.688 2110.64,238.692 2112.67,238.695 2114.7,238.699 2116.72,238.703 2118.75,238.707 
  2120.77,238.71 2122.8,238.714 2124.82,238.717 2126.85,238.721 2128.88,238.725 2130.9,238.728 2132.93,238.732 2134.95,238.735 2136.98,238.739 2139,238.742 
  2141.03,238.746 2143.06,238.749 2145.08,238.752 2147.11,238.756 2149.13,238.759 2151.16,238.762 2153.18,238.766 2155.21,238.769 2157.24,238.772 2159.26,238.775 
  2161.29,238.779 2163.31,238.782 2165.34,238.785 2167.36,238.788 2169.39,238.791 2171.42,238.794 2173.44,238.798 2175.47,238.801 2177.49,238.804 2179.52,238.807 
  2181.54,238.81 2183.57,238.813 2185.6,238.816 2187.62,238.819 2189.65,238.822 2191.67,238.825 2193.7,238.828 2195.72,238.83 2197.75,238.833 2199.78,238.836 
  2201.8,238.839 2203.83,238.842 2205.85,238.845 2207.88,238.847 2209.9,238.85 2211.93,238.853 2213.96,238.856 2215.98,238.858 2218.01,238.861 2220.03,238.864 
  2222.06,238.867 2224.09,238.869 2226.11,238.872 2228.14,238.875 2230.16,238.877 2232.19,238.88 2234.21,238.882 2236.24,238.885 2238.27,238.887 2240.29,238.89 
  2242.32,238.893 2244.34,238.895 2246.37,238.898 2248.39,238.9 2250.42,238.903 2252.45,238.905 2254.47,238.907 2256.5,238.91 2258.52,238.912 2260.55,238.915 
  
  "/>
<circle clip-path="url(#clip6303)" style="fill:#000000; stroke:none; fill-opacity:1" cx="236.834" cy="238.915" r="18"/>
<circle clip-path="url(#clip6303)" style="fill:#e26f46; stroke:none; fill-opacity:1" cx="236.834" cy="238.915" r="14"/>
<circle clip-path="url(#clip6303)" style="fill:#000000; stroke:none; fill-opacity:1" cx="317.783" cy="238.807" r="18"/>
<circle clip-path="url(#clip6303)" style="fill:#e26f46; stroke:none; fill-opacity:1" cx="317.783" cy="238.807" r="14"/>
<circle clip-path="url(#clip6303)" style="fill:#000000; stroke:none; fill-opacity:1" cx="398.731" cy="238.669" r="18"/>
<circle clip-path="url(#clip6303)" style="fill:#e26f46; stroke:none; fill-opacity:1" cx="398.731" cy="238.669" r="14"/>
<circle clip-path="url(#clip6303)" style="fill:#000000; stroke:none; fill-opacity:1" cx="479.68" cy="238.489" r="18"/>
<circle clip-path="url(#clip6303)" style="fill:#e26f46; stroke:none; fill-opacity:1" cx="479.68" cy="238.489" r="14"/>
<circle clip-path="url(#clip6303)" style="fill:#000000; stroke:none; fill-opacity:1" cx="560.629" cy="238.249" r="18"/>
<circle clip-path="url(#clip6303)" style="fill:#e26f46; stroke:none; fill-opacity:1" cx="560.629" cy="238.249" r="14"/>
<circle clip-path="url(#clip6303)" style="fill:#000000; stroke:none; fill-opacity:1" cx="641.577" cy="237.919" r="18"/>
<circle clip-path="url(#clip6303)" style="fill:#e26f46; stroke:none; fill-opacity:1" cx="641.577" cy="237.919" r="14"/>
<circle clip-path="url(#clip6303)" style="fill:#000000; stroke:none; fill-opacity:1" cx="722.526" cy="237.452" r="18"/>
<circle clip-path="url(#clip6303)" style="fill:#e26f46; stroke:none; fill-opacity:1" cx="722.526" cy="237.452" r="14"/>
<circle clip-path="url(#clip6303)" style="fill:#000000; stroke:none; fill-opacity:1" cx="803.474" cy="236.767" r="18"/>
<circle clip-path="url(#clip6303)" style="fill:#e26f46; stroke:none; fill-opacity:1" cx="803.474" cy="236.767" r="14"/>
<circle clip-path="url(#clip6303)" style="fill:#000000; stroke:none; fill-opacity:1" cx="884.423" cy="235.722" r="18"/>
<circle clip-path="url(#clip6303)" style="fill:#e26f46; stroke:none; fill-opacity:1" cx="884.423" cy="235.722" r="14"/>
<circle clip-path="url(#clip6303)" style="fill:#000000; stroke:none; fill-opacity:1" cx="965.371" cy="234.072" r="18"/>
<circle clip-path="url(#clip6303)" style="fill:#e26f46; stroke:none; fill-opacity:1" cx="965.371" cy="234.072" r="14"/>
<circle clip-path="url(#clip6303)" style="fill:#000000; stroke:none; fill-opacity:1" cx="1046.32" cy="231.449" r="18"/>
<circle clip-path="url(#clip6303)" style="fill:#e26f46; stroke:none; fill-opacity:1" cx="1046.32" cy="231.449" r="14"/>
<circle clip-path="url(#clip6303)" style="fill:#000000; stroke:none; fill-opacity:1" cx="1127.27" cy="227.642" r="18"/>
<circle clip-path="url(#clip6303)" style="fill:#e26f46; stroke:none; fill-opacity:1" cx="1127.27" cy="227.642" r="14"/>
<circle clip-path="url(#clip6303)" style="fill:#000000; stroke:none; fill-opacity:1" cx="1208.22" cy="223.982" r="18"/>
<circle clip-path="url(#clip6303)" style="fill:#e26f46; stroke:none; fill-opacity:1" cx="1208.22" cy="223.982" r="14"/>
<circle clip-path="url(#clip6303)" style="fill:#000000; stroke:none; fill-opacity:1" cx="1289.17" cy="223.982" r="18"/>
<circle clip-path="url(#clip6303)" style="fill:#e26f46; stroke:none; fill-opacity:1" cx="1289.17" cy="223.982" r="14"/>
<circle clip-path="url(#clip6303)" style="fill:#000000; stroke:none; fill-opacity:1" cx="1370.11" cy="227.642" r="18"/>
<circle clip-path="url(#clip6303)" style="fill:#e26f46; stroke:none; fill-opacity:1" cx="1370.11" cy="227.642" r="14"/>
<circle clip-path="url(#clip6303)" style="fill:#000000; stroke:none; fill-opacity:1" cx="1451.06" cy="231.449" r="18"/>
<circle clip-path="url(#clip6303)" style="fill:#e26f46; stroke:none; fill-opacity:1" cx="1451.06" cy="231.449" r="14"/>
<circle clip-path="url(#clip6303)" style="fill:#000000; stroke:none; fill-opacity:1" cx="1532.01" cy="234.072" r="18"/>
<circle clip-path="url(#clip6303)" style="fill:#e26f46; stroke:none; fill-opacity:1" cx="1532.01" cy="234.072" r="14"/>
<circle clip-path="url(#clip6303)" style="fill:#000000; stroke:none; fill-opacity:1" cx="1612.96" cy="235.722" r="18"/>
<circle clip-path="url(#clip6303)" style="fill:#e26f46; stroke:none; fill-opacity:1" cx="1612.96" cy="235.722" r="14"/>
<circle clip-path="url(#clip6303)" style="fill:#000000; stroke:none; fill-opacity:1" cx="1693.91" cy="236.767" r="18"/>
<circle clip-path="url(#clip6303)" style="fill:#e26f46; stroke:none; fill-opacity:1" cx="1693.91" cy="236.767" r="14"/>
<circle clip-path="url(#clip6303)" style="fill:#000000; stroke:none; fill-opacity:1" cx="1774.86" cy="237.452" r="18"/>
<circle clip-path="url(#clip6303)" style="fill:#e26f46; stroke:none; fill-opacity:1" cx="1774.86" cy="237.452" r="14"/>
<circle clip-path="url(#clip6303)" style="fill:#000000; stroke:none; fill-opacity:1" cx="1855.81" cy="237.919" r="18"/>
<circle clip-path="url(#clip6303)" style="fill:#e26f46; stroke:none; fill-opacity:1" cx="1855.81" cy="237.919" r="14"/>
<circle clip-path="url(#clip6303)" style="fill:#000000; stroke:none; fill-opacity:1" cx="1936.75" cy="238.249" r="18"/>
<circle clip-path="url(#clip6303)" style="fill:#e26f46; stroke:none; fill-opacity:1" cx="1936.75" cy="238.249" r="14"/>
<circle clip-path="url(#clip6303)" style="fill:#000000; stroke:none; fill-opacity:1" cx="2017.7" cy="238.489" r="18"/>
<circle clip-path="url(#clip6303)" style="fill:#e26f46; stroke:none; fill-opacity:1" cx="2017.7" cy="238.489" r="14"/>
<circle clip-path="url(#clip6303)" style="fill:#000000; stroke:none; fill-opacity:1" cx="2098.65" cy="238.669" r="18"/>
<circle clip-path="url(#clip6303)" style="fill:#e26f46; stroke:none; fill-opacity:1" cx="2098.65" cy="238.669" r="14"/>
<circle clip-path="url(#clip6303)" style="fill:#000000; stroke:none; fill-opacity:1" cx="2179.6" cy="238.807" r="18"/>
<circle clip-path="url(#clip6303)" style="fill:#e26f46; stroke:none; fill-opacity:1" cx="2179.6" cy="238.807" r="14"/>
<circle clip-path="url(#clip6303)" style="fill:#000000; stroke:none; fill-opacity:1" cx="2260.55" cy="238.915" r="18"/>
<circle clip-path="url(#clip6303)" style="fill:#e26f46; stroke:none; fill-opacity:1" cx="2260.55" cy="238.915" r="14"/>
<polyline clip-path="url(#clip6303)" style="stroke:#3da44d; stroke-width:4; stroke-opacity:1; fill:none" points="
  236.834,238.915 238.86,534.926 240.886,778.261 242.912,975.154 244.937,1131.25 246.963,1251.66 248.989,1340.99 251.015,1403.4 253.04,1442.61 255.066,1461.97 
  257.092,1464.49 259.118,1452.83 261.143,1429.39 263.169,1396.26 265.195,1355.33 267.22,1308.25 269.246,1256.46 271.272,1201.23 273.298,1143.66 275.323,1084.7 
  277.349,1025.17 279.375,965.775 281.401,907.096 283.426,849.629 285.452,793.782 287.478,739.883 289.504,688.196 291.529,638.923 293.555,592.212 295.581,548.167 
  297.607,506.852 299.632,468.292 301.658,432.488 303.684,399.41 305.71,369.011 307.735,341.222 309.761,315.962 311.787,293.137 313.812,272.642 315.838,254.368 
  317.864,238.199 319.89,224.014 321.915,211.693 323.941,201.113 325.967,192.152 327.993,184.691 330.018,178.611 332.044,173.797 334.07,170.138 336.096,167.526 
  338.121,165.859 340.147,165.038 342.173,164.97 344.199,165.566 346.224,166.744 348.25,168.425 350.276,170.537 352.302,173.012 354.327,175.787 356.353,178.804 
  358.379,182.01 360.405,185.358 362.43,188.803 364.456,192.305 366.482,195.829 368.507,199.343 370.533,202.82 372.559,206.234 374.585,209.564 376.61,212.793 
  378.636,215.904 380.662,218.885 382.688,221.725 384.713,224.417 386.739,226.953 388.765,229.33 390.791,231.546 392.816,233.599 394.842,235.489 396.868,237.218 
  398.894,238.789 400.919,240.205 402.945,241.471 404.971,242.591 406.997,243.572 409.022,244.419 411.048,245.138 413.074,245.738 415.099,246.224 417.125,246.604 
  419.151,246.885 421.177,247.075 423.202,247.18 425.228,247.207 427.254,247.165 429.28,247.059 431.305,246.897 433.331,246.684 435.357,246.427 437.383,246.132 
  439.408,245.804 441.434,245.45 443.46,245.073 445.486,244.679 447.511,244.272 449.537,243.856 451.563,243.435 453.589,243.013 455.614,242.592 457.64,242.176 
  459.666,241.768 461.691,241.368 463.717,240.981 465.743,240.606 467.769,240.247 469.794,239.903 471.82,239.577 473.846,239.269 475.872,238.98 477.897,238.71 
  479.923,238.46 481.949,238.23 483.975,238.019 486,237.827 488.026,237.655 490.052,237.502 492.078,237.368 494.103,237.251 496.129,237.151 498.155,237.069 
  500.181,237.001 502.206,236.949 504.232,236.911 506.258,236.887 508.284,236.875 510.309,236.874 512.335,236.884 514.361,236.903 516.386,236.931 518.412,236.967 
  520.438,237.011 522.464,237.06 524.489,237.114 526.515,237.173 528.541,237.236 530.567,237.302 532.592,237.37 534.618,237.439 536.644,237.51 538.67,237.581 
  540.695,237.652 542.721,237.722 544.747,237.791 546.773,237.858 548.798,237.923 550.824,237.986 552.85,238.046 554.876,238.104 556.901,238.158 558.927,238.209 
  560.953,238.256 562.978,238.3 565.004,238.34 567.03,238.376 569.056,238.408 571.081,238.437 573.107,238.461 575.133,238.482 577.159,238.499 579.184,238.512 
  581.21,238.522 583.236,238.528 585.262,238.531 587.287,238.531 589.313,238.527 591.339,238.521 593.365,238.512 595.39,238.5 597.416,238.486 599.442,238.47 
  601.468,238.451 603.493,238.431 605.519,238.409 607.545,238.386 609.57,238.361 611.596,238.335 613.622,238.309 615.648,238.281 617.673,238.253 619.699,238.224 
  621.725,238.195 623.751,238.166 625.776,238.137 627.802,238.107 629.828,238.078 631.854,238.05 633.879,238.021 635.905,237.994 637.931,237.966 639.957,237.94 
  641.982,237.914 644.008,237.889 646.034,237.865 648.06,237.841 650.085,237.819 652.111,237.798 654.137,237.777 656.163,237.757 658.188,237.739 660.214,237.721 
  662.24,237.704 664.265,237.688 666.291,237.674 668.317,237.66 670.343,237.646 672.368,237.634 674.394,237.622 676.42,237.612 678.446,237.602 680.471,237.592 
  682.497,237.583 684.523,237.575 686.549,237.567 688.574,237.56 690.6,237.553 692.626,237.546 694.652,237.54 696.677,237.533 698.703,237.527 700.729,237.522 
  702.755,237.516 704.78,237.51 706.806,237.504 708.832,237.498 710.857,237.492 712.883,237.486 714.909,237.479 716.935,237.473 718.96,237.465 720.986,237.458 
  723.012,237.45 725.038,237.442 727.063,237.434 729.089,237.425 731.115,237.415 733.141,237.405 735.166,237.395 737.192,237.384 739.218,237.372 741.244,237.36 
  743.269,237.348 745.295,237.334 747.321,237.321 749.347,237.307 751.372,237.292 753.398,237.277 755.424,237.261 757.449,237.244 759.475,237.227 761.501,237.21 
  763.527,237.192 765.552,237.174 767.578,237.155 769.604,237.136 771.63,237.116 773.655,237.096 775.681,237.076 777.707,237.055 779.733,237.034 781.758,237.013 
  783.784,236.991 785.81,236.969 787.836,236.946 789.861,236.924 791.887,236.901 793.913,236.878 795.939,236.855 797.964,236.831 799.99,236.808 802.016,236.784 
  804.042,236.76 806.067,236.736 808.093,236.712 810.119,236.688 812.144,236.664 814.17,236.639 816.196,236.615 818.222,236.59 820.247,236.566 822.273,236.541 
  824.299,236.516 826.325,236.491 828.35,236.466 830.376,236.441 832.402,236.416 834.428,236.391 836.453,236.366 838.479,236.341 840.505,236.316 842.531,236.29 
  844.556,236.265 846.582,236.239 848.608,236.213 850.634,236.187 852.659,236.161 854.685,236.135 856.711,236.109 858.736,236.082 860.762,236.055 862.788,236.028 
  864.814,236.001 866.839,235.974 868.865,235.946 870.891,235.918 872.917,235.889 874.942,235.861 876.968,235.832 878.994,235.802 881.02,235.772 883.045,235.742 
  885.071,235.712 887.097,235.681 889.123,235.65 891.148,235.618 893.174,235.586 895.2,235.553 897.226,235.52 899.251,235.486 901.277,235.452 903.303,235.417 
  905.329,235.382 907.354,235.346 909.38,235.31 911.406,235.273 913.431,235.235 915.457,235.197 917.483,235.159 919.509,235.12 921.534,235.08 923.56,235.04 
  925.586,234.999 927.612,234.957 929.637,234.915 931.663,234.872 933.689,234.829 935.715,234.785 937.74,234.74 939.766,234.695 941.792,234.65 943.818,234.603 
  945.843,234.556 947.869,234.508 949.895,234.46 951.921,234.411 953.946,234.362 955.972,234.312 957.998,234.261 960.023,234.21 962.049,234.158 964.075,234.106 
  966.101,234.053 968.126,233.999 970.152,233.945 972.178,233.89 974.204,233.834 976.229,233.778 978.255,233.722 980.281,233.665 982.307,233.607 984.332,233.548 
  986.358,233.489 988.384,233.43 990.41,233.369 992.435,233.309 994.461,233.247 996.487,233.185 998.513,233.122 1000.54,233.059 1002.56,232.995 1004.59,232.931 
  1006.62,232.866 1008.64,232.8 1010.67,232.733 1012.69,232.666 1014.72,232.598 1016.74,232.53 1018.77,232.461 1020.8,232.391 1022.82,232.321 1024.85,232.249 
  1026.87,232.177 1028.9,232.105 1030.92,232.031 1032.95,231.957 1034.98,231.882 1037,231.807 1039.03,231.73 1041.05,231.653 1043.08,231.575 1045.1,231.496 
  1047.13,231.417 1049.16,231.336 1051.18,231.255 1053.21,231.173 1055.23,231.09 1057.26,231.006 1059.28,230.922 1061.31,230.836 1063.34,230.75 1065.36,230.663 
  1067.39,230.575 1069.41,230.486 1071.44,230.397 1073.46,230.306 1075.49,230.215 1077.52,230.123 1079.54,230.03 1081.57,229.936 1083.59,229.841 1085.62,229.746 
  1087.65,229.649 1089.67,229.552 1091.7,229.455 1093.72,229.356 1095.75,229.257 1097.77,229.157 1099.8,229.056 1101.83,228.955 1103.85,228.853 1105.88,228.751 
  1107.9,228.648 1109.93,228.544 1111.95,228.44 1113.98,228.336 1116.01,228.231 1118.03,228.126 1120.06,228.02 1122.08,227.914 1124.11,227.808 1126.13,227.702 
  1128.16,227.595 1130.19,227.489 1132.21,227.382 1134.24,227.276 1136.26,227.169 1138.29,227.063 1140.31,226.957 1142.34,226.851 1144.37,226.745 1146.39,226.64 
  1148.42,226.536 1150.44,226.431 1152.47,226.328 1154.49,226.225 1156.52,226.123 1158.55,226.021 1160.57,225.921 1162.6,225.821 1164.62,225.722 1166.65,225.625 
  1168.67,225.529 1170.7,225.433 1172.73,225.34 1174.75,225.247 1176.78,225.156 1178.8,225.067 1180.83,224.979 1182.85,224.892 1184.88,224.808 1186.91,224.725 
  1188.93,224.645 1190.96,224.566 1192.98,224.489 1195.01,224.414 1197.04,224.342 1199.06,224.271 1201.09,224.203 1203.11,224.137 1205.14,224.074 1207.16,224.013 
  1209.19,223.955 1211.22,223.899 1213.24,223.846 1215.27,223.795 1217.29,223.747 1219.32,223.702 1221.34,223.66 1223.37,223.621 1225.4,223.584 1227.42,223.551 
  1229.45,223.52 1231.47,223.492 1233.5,223.468 1235.52,223.446 1237.55,223.428 1239.58,223.412 1241.6,223.4 1243.63,223.39 1245.65,223.384 1247.68,223.381 
  1249.7,223.381 1251.73,223.384 1253.76,223.39 1255.78,223.4 1257.81,223.412 1259.83,223.428 1261.86,223.446 1263.88,223.468 1265.91,223.492 1267.94,223.52 
  1269.96,223.551 1271.99,223.584 1274.01,223.621 1276.04,223.66 1278.06,223.702 1280.09,223.747 1282.12,223.795 1284.14,223.846 1286.17,223.899 1288.19,223.955 
  1290.22,224.013 1292.24,224.074 1294.27,224.137 1296.3,224.203 1298.32,224.271 1300.35,224.342 1302.37,224.414 1304.4,224.489 1306.42,224.566 1308.45,224.645 
  1310.48,224.725 1312.5,224.808 1314.53,224.892 1316.55,224.979 1318.58,225.067 1320.61,225.156 1322.63,225.247 1324.66,225.34 1326.68,225.433 1328.71,225.529 
  1330.73,225.625 1332.76,225.722 1334.79,225.821 1336.81,225.921 1338.84,226.021 1340.86,226.123 1342.89,226.225 1344.91,226.328 1346.94,226.431 1348.97,226.536 
  1350.99,226.64 1353.02,226.745 1355.04,226.851 1357.07,226.957 1359.09,227.063 1361.12,227.169 1363.15,227.276 1365.17,227.382 1367.2,227.489 1369.22,227.595 
  1371.25,227.702 1373.27,227.808 1375.3,227.914 1377.33,228.02 1379.35,228.126 1381.38,228.231 1383.4,228.336 1385.43,228.44 1387.45,228.544 1389.48,228.648 
  1391.51,228.751 1393.53,228.853 1395.56,228.955 1397.58,229.056 1399.61,229.157 1401.63,229.257 1403.66,229.356 1405.69,229.455 1407.71,229.552 1409.74,229.649 
  1411.76,229.746 1413.79,229.841 1415.81,229.936 1417.84,230.03 1419.87,230.123 1421.89,230.215 1423.92,230.306 1425.94,230.397 1427.97,230.486 1430,230.575 
  1432.02,230.663 1434.05,230.75 1436.07,230.836 1438.1,230.922 1440.12,231.006 1442.15,231.09 1444.18,231.173 1446.2,231.255 1448.23,231.336 1450.25,231.417 
  1452.28,231.496 1454.3,231.575 1456.33,231.653 1458.36,231.73 1460.38,231.807 1462.41,231.882 1464.43,231.957 1466.46,232.031 1468.48,232.105 1470.51,232.177 
  1472.54,232.249 1474.56,232.321 1476.59,232.391 1478.61,232.461 1480.64,232.53 1482.66,232.598 1484.69,232.666 1486.72,232.733 1488.74,232.8 1490.77,232.866 
  1492.79,232.931 1494.82,232.995 1496.84,233.059 1498.87,233.122 1500.9,233.185 1502.92,233.247 1504.95,233.309 1506.97,233.369 1509,233.43 1511.02,233.489 
  1513.05,233.548 1515.08,233.607 1517.1,233.665 1519.13,233.722 1521.15,233.778 1523.18,233.834 1525.2,233.89 1527.23,233.945 1529.26,233.999 1531.28,234.053 
  1533.31,234.106 1535.33,234.158 1537.36,234.21 1539.39,234.261 1541.41,234.312 1543.44,234.362 1545.46,234.411 1547.49,234.46 1549.51,234.508 1551.54,234.556 
  1553.57,234.603 1555.59,234.65 1557.62,234.695 1559.64,234.74 1561.67,234.785 1563.69,234.829 1565.72,234.872 1567.75,234.915 1569.77,234.957 1571.8,234.999 
  1573.82,235.04 1575.85,235.08 1577.87,235.12 1579.9,235.159 1581.93,235.197 1583.95,235.235 1585.98,235.273 1588,235.31 1590.03,235.346 1592.05,235.382 
  1594.08,235.417 1596.11,235.452 1598.13,235.486 1600.16,235.52 1602.18,235.553 1604.21,235.586 1606.23,235.618 1608.26,235.65 1610.29,235.681 1612.31,235.712 
  1614.34,235.742 1616.36,235.772 1618.39,235.802 1620.41,235.832 1622.44,235.861 1624.47,235.889 1626.49,235.918 1628.52,235.946 1630.54,235.974 1632.57,236.001 
  1634.59,236.028 1636.62,236.055 1638.65,236.082 1640.67,236.109 1642.7,236.135 1644.72,236.161 1646.75,236.187 1648.78,236.213 1650.8,236.239 1652.83,236.265 
  1654.85,236.29 1656.88,236.316 1658.9,236.341 1660.93,236.366 1662.96,236.391 1664.98,236.416 1667.01,236.441 1669.03,236.466 1671.06,236.491 1673.08,236.516 
  1675.11,236.541 1677.14,236.566 1679.16,236.59 1681.19,236.615 1683.21,236.639 1685.24,236.664 1687.26,236.688 1689.29,236.712 1691.32,236.736 1693.34,236.76 
  1695.37,236.784 1697.39,236.808 1699.42,236.831 1701.44,236.855 1703.47,236.878 1705.5,236.901 1707.52,236.924 1709.55,236.946 1711.57,236.969 1713.6,236.991 
  1715.62,237.013 1717.65,237.034 1719.68,237.055 1721.7,237.076 1723.73,237.096 1725.75,237.116 1727.78,237.136 1729.8,237.155 1731.83,237.174 1733.86,237.192 
  1735.88,237.21 1737.91,237.227 1739.93,237.244 1741.96,237.261 1743.98,237.277 1746.01,237.292 1748.04,237.307 1750.06,237.321 1752.09,237.334 1754.11,237.348 
  1756.14,237.36 1758.16,237.372 1760.19,237.384 1762.22,237.395 1764.24,237.405 1766.27,237.415 1768.29,237.425 1770.32,237.434 1772.35,237.442 1774.37,237.45 
  1776.4,237.458 1778.42,237.465 1780.45,237.473 1782.47,237.479 1784.5,237.486 1786.53,237.492 1788.55,237.498 1790.58,237.504 1792.6,237.51 1794.63,237.516 
  1796.65,237.522 1798.68,237.527 1800.71,237.533 1802.73,237.54 1804.76,237.546 1806.78,237.553 1808.81,237.56 1810.83,237.567 1812.86,237.575 1814.89,237.583 
  1816.91,237.592 1818.94,237.602 1820.96,237.612 1822.99,237.622 1825.01,237.634 1827.04,237.646 1829.07,237.66 1831.09,237.674 1833.12,237.688 1835.14,237.704 
  1837.17,237.721 1839.19,237.739 1841.22,237.757 1843.25,237.777 1845.27,237.798 1847.3,237.819 1849.32,237.841 1851.35,237.865 1853.37,237.889 1855.4,237.914 
  1857.43,237.94 1859.45,237.966 1861.48,237.994 1863.5,238.021 1865.53,238.05 1867.55,238.078 1869.58,238.107 1871.61,238.137 1873.63,238.166 1875.66,238.195 
  1877.68,238.224 1879.71,238.253 1881.74,238.281 1883.76,238.309 1885.79,238.335 1887.81,238.361 1889.84,238.386 1891.86,238.409 1893.89,238.431 1895.92,238.451 
  1897.94,238.47 1899.97,238.486 1901.99,238.5 1904.02,238.512 1906.04,238.521 1908.07,238.527 1910.1,238.531 1912.12,238.531 1914.15,238.528 1916.17,238.522 
  1918.2,238.512 1920.22,238.499 1922.25,238.482 1924.28,238.461 1926.3,238.437 1928.33,238.408 1930.35,238.376 1932.38,238.34 1934.4,238.3 1936.43,238.256 
  1938.46,238.209 1940.48,238.158 1942.51,238.104 1944.53,238.046 1946.56,237.986 1948.58,237.923 1950.61,237.858 1952.64,237.791 1954.66,237.722 1956.69,237.652 
  1958.71,237.581 1960.74,237.51 1962.76,237.439 1964.79,237.37 1966.82,237.302 1968.84,237.236 1970.87,237.173 1972.89,237.114 1974.92,237.06 1976.94,237.011 
  1978.97,236.967 1981,236.931 1983.02,236.903 1985.05,236.884 1987.07,236.874 1989.1,236.875 1991.13,236.887 1993.15,236.911 1995.18,236.949 1997.2,237.001 
  1999.23,237.069 2001.25,237.151 2003.28,237.251 2005.31,237.368 2007.33,237.502 2009.36,237.655 2011.38,237.827 2013.41,238.019 2015.43,238.23 2017.46,238.46 
  2019.49,238.71 2021.51,238.98 2023.54,239.269 2025.56,239.577 2027.59,239.903 2029.61,240.247 2031.64,240.606 2033.67,240.981 2035.69,241.368 2037.72,241.768 
  2039.74,242.176 2041.77,242.592 2043.79,243.013 2045.82,243.435 2047.85,243.856 2049.87,244.272 2051.9,244.679 2053.92,245.073 2055.95,245.45 2057.97,245.804 
  2060,246.132 2062.03,246.427 2064.05,246.684 2066.08,246.897 2068.1,247.059 2070.13,247.165 2072.15,247.207 2074.18,247.18 2076.21,247.075 2078.23,246.885 
  2080.26,246.604 2082.28,246.224 2084.31,245.738 2086.33,245.138 2088.36,244.419 2090.39,243.572 2092.41,242.591 2094.44,241.471 2096.46,240.205 2098.49,238.789 
  2100.51,237.218 2102.54,235.489 2104.57,233.599 2106.59,231.546 2108.62,229.33 2110.64,226.953 2112.67,224.417 2114.7,221.725 2116.72,218.885 2118.75,215.904 
  2120.77,212.793 2122.8,209.564 2124.82,206.234 2126.85,202.82 2128.88,199.343 2130.9,195.829 2132.93,192.305 2134.95,188.803 2136.98,185.358 2139,182.01 
  2141.03,178.804 2143.06,175.787 2145.08,173.012 2147.11,170.537 2149.13,168.425 2151.16,166.744 2153.18,165.566 2155.21,164.97 2157.24,165.038 2159.26,165.859 
  2161.29,167.526 2163.31,170.138 2165.34,173.797 2167.36,178.611 2169.39,184.691 2171.42,192.152 2173.44,201.113 2175.47,211.693 2177.49,224.014 2179.52,238.199 
  2181.54,254.368 2183.57,272.642 2185.6,293.136 2187.62,315.962 2189.65,341.222 2191.67,369.011 2193.7,399.41 2195.72,432.487 2197.75,468.292 2199.78,506.851 
  2201.8,548.167 2203.83,592.212 2205.85,638.923 2207.88,688.196 2209.9,739.883 2211.93,793.781 2213.96,849.629 2215.98,907.096 2218.01,965.774 2220.03,1025.17 
  2222.06,1084.7 2224.09,1143.66 2226.11,1201.23 2228.14,1256.46 2230.16,1308.25 2232.19,1355.33 2234.21,1396.26 2236.24,1429.38 2238.27,1452.83 2240.29,1464.49 
  2242.32,1461.97 2244.34,1442.61 2246.37,1403.4 2248.39,1340.99 2250.42,1251.66 2252.45,1131.25 2254.47,975.153 2256.5,778.26 2258.52,534.926 2260.55,238.915 
  
  "/>
<polygon clip-path="url(#clip6301)" points="
1685.51,451.424 2249.26,451.424 2249.26,209.504 1685.51,209.504 
  " fill="#ffffff" fill-rule="evenodd" fill-opacity="1"/>
<polyline clip-path="url(#clip6301)" style="stroke:#000000; stroke-width:4; stroke-opacity:1; fill:none" points="
  1685.51,451.424 2249.26,451.424 2249.26,209.504 1685.51,209.504 1685.51,451.424 
  "/>
<polyline clip-path="url(#clip6301)" style="stroke:#009af9; stroke-width:4; stroke-opacity:1; fill:none" points="
  1709.51,269.984 1853.51,269.984 
  "/>
<g clip-path="url(#clip6301)">
<text style="fill:#000000; fill-opacity:1; font-family:Arial,Helvetica Neue,Helvetica,sans-serif; font-size:48px; text-anchor:start;" transform="rotate(0, 1877.51, 287.484)" x="1877.51" y="287.484">Runge function</text>
</g>
<circle clip-path="url(#clip6301)" style="fill:#000000; stroke:none; fill-opacity:1" cx="1793.51" cy="330.464" r="25"/>
<circle clip-path="url(#clip6301)" style="fill:#e26f46; stroke:none; fill-opacity:1" cx="1793.51" cy="330.464" r="21"/>
<g clip-path="url(#clip6301)">
<text style="fill:#000000; fill-opacity:1; font-family:Arial,Helvetica Neue,Helvetica,sans-serif; font-size:48px; text-anchor:start;" transform="rotate(0, 1877.51, 347.964)" x="1877.51" y="347.964">Nodes</text>
</g>
<polyline clip-path="url(#clip6301)" style="stroke:#3da44d; stroke-width:4; stroke-opacity:1; fill:none" points="
  1709.51,390.944 1853.51,390.944 
  "/>
<g clip-path="url(#clip6301)">
<text style="fill:#000000; fill-opacity:1; font-family:Arial,Helvetica Neue,Helvetica,sans-serif; font-size:48px; text-anchor:start;" transform="rotate(0, 1877.51, 408.444)" x="1877.51" y="408.444">Intepolation</text>
</g>
</svg>
